<svg width="150" height="150" viewBox="0 0 150 150" fill="none" xmlns="http://www.w3.org/2000/svg">
<path d="M27.1335 126.55L3.86936 27.0456C3.36287 24.8793 4.08618 22.6101 5.75584 21.1308L8.18031 18.9828C10.09 17.2908 12.5575 16.3558 15.1143 16.3558H62.0215C66.2478 16.3558 69.9205 19.2425 70.903 23.3324L95.1957 124.459C95.8641 127.242 95.2459 130.176 93.5105 132.457C91.6949 134.843 88.8613 136.246 85.8536 136.246H39.3993C33.5428 136.246 28.4607 132.227 27.1335 126.55Z" fill="url(#paint0_linear_2369_51634)" stroke="#0C2083" stroke-width="0.77613"/>
<path d="M24.7464 19.7699L24.9827 19.462L24.7465 19.7699C26.7066 21.2735 29.1112 22.0888 31.5851 22.0888H50.6376C51.9836 22.0888 53.2088 21.3128 53.7791 20.0968C54.2773 19.0347 55.3488 18.3549 56.528 18.3549H63.1234C66.7702 18.3549 69.9332 20.8596 70.7553 24.3944L94.1478 124.983C94.656 127.169 92.9896 129.26 90.7316 129.26H40.2272C36.379 129.26 33.0412 126.617 32.1738 122.887L8.98164 23.1595C8.41065 20.7042 10.2829 18.3549 12.8194 18.3549H20.8232C22.1711 18.3549 23.481 18.7991 24.5485 19.618L24.7464 19.7699Z" fill="url(#paint1_linear_2369_51634)" stroke="#0C2083" stroke-width="0.77613"/>
<g filter="url(#filter0_b_2369_51634)">
<rect width="18.7751" height="18.7751" rx="4.53177" transform="matrix(-1 0 0.221378 0.975188 39 54.1787)" fill="url(#paint2_linear_2369_51634)"/>
</g>
<path fill-rule="evenodd" clip-rule="evenodd" d="M29.1969 28.4502C24.2467 28.4502 21.1571 32.3562 22.2961 37.1744L22.6259 38.5692C23.7649 43.3875 28.7012 47.2934 33.6514 47.2934H41.0553C42.699 47.9321 43.8978 49.376 44.8172 50.4834C45.4915 51.2956 46.0155 51.9269 46.4548 51.9269L45.3594 47.2934H45.3598L42.9677 37.1744C41.8287 32.3562 36.8924 28.4502 31.9421 28.4502H29.1969Z" fill="url(#paint3_linear_2369_51634)"/>
<mask id="path-5-inside-1_2369_51634" fill="white">
<path fill-rule="evenodd" clip-rule="evenodd" d="M35.0993 23.2178C30.149 23.2178 27.0594 27.1237 28.1985 31.942L28.5282 33.3368C29.6672 38.1551 34.6035 42.061 39.5538 42.061H46.9576C48.6014 42.6997 49.8001 44.1436 50.7195 45.251C51.3938 46.0632 51.9179 46.6944 52.3571 46.6944C52.3085 46.4887 52.5239 46.3093 52.7517 46.1195C53.0074 45.9065 53.2788 45.6805 53.21 45.3896C52.8289 43.7775 51.2228 41.7939 51.1893 41.7526L48.87 31.942C47.731 27.1237 42.7947 23.2178 37.8445 23.2178H35.0993Z"/>
</mask>
<path fill-rule="evenodd" clip-rule="evenodd" d="M35.0993 23.2178C30.149 23.2178 27.0594 27.1237 28.1985 31.942L28.5282 33.3368C29.6672 38.1551 34.6035 42.061 39.5538 42.061H46.9576C48.6014 42.6997 49.8001 44.1436 50.7195 45.251C51.3938 46.0632 51.9179 46.6944 52.3571 46.6944C52.3085 46.4887 52.5239 46.3093 52.7517 46.1195C53.0074 45.9065 53.2788 45.6805 53.21 45.3896C52.8289 43.7775 51.2228 41.7939 51.1893 41.7526L48.87 31.942C47.731 27.1237 42.7947 23.2178 37.8445 23.2178H35.0993Z" fill="url(#paint4_linear_2369_51634)"/>
<path d="M28.1985 31.942L28.6641 31.9417L28.1985 31.942ZM28.5282 33.3368L28.0626 33.3371L28.5282 33.3368ZM46.9576 42.061L47.0472 41.6461L46.9486 41.6078H46.8508L46.9576 42.061ZM50.7195 45.251L51.0691 45.024L50.7195 45.251ZM52.3571 46.6944L52.4639 47.1477H52.93L52.8227 46.6941L52.3571 46.6944ZM52.7517 46.1195L52.3939 45.7509L52.3939 45.7509L52.7517 46.1195ZM53.21 45.3896L52.7444 45.3899L52.7444 45.3899L53.21 45.3896ZM51.1893 41.7526L50.7237 41.7529L50.7516 41.8712L50.8354 41.9744L51.1893 41.7526ZM48.87 31.942L48.4044 31.9423L48.87 31.942ZM28.6641 31.9417C27.5843 27.3739 30.5132 23.671 35.2061 23.671L34.9924 22.7645C29.7849 22.7645 26.5346 26.8736 27.7329 31.9423L28.6641 31.9417ZM28.9938 33.3365L28.6641 31.9417L27.7329 31.9423L28.0626 33.3371L28.9938 33.3365ZM39.447 41.6078C34.7538 41.6078 30.0737 37.9045 28.9938 33.3365L28.0626 33.3371C29.2608 38.4056 34.4533 42.5143 39.6606 42.5143L39.447 41.6078ZM46.8508 41.6078H39.447L39.6606 42.5143H47.0644L46.8508 41.6078ZM51.0691 45.024C50.1699 43.941 48.8693 42.354 47.0472 41.6461L46.8681 42.476C48.3335 43.0454 49.4303 44.3462 50.37 45.478L51.0691 45.024ZM52.2503 46.2412C52.2667 46.2412 52.187 46.2471 51.9269 45.9975C51.6887 45.7689 51.4147 45.4402 51.0691 45.024L50.37 45.478C50.6987 45.874 51.0238 46.267 51.3261 46.5571C51.6064 46.8261 52.0083 47.1477 52.4639 47.1477L52.2503 46.2412ZM52.3939 45.7509C52.2874 45.8396 52.1485 45.9536 52.048 46.0779C51.9535 46.1948 51.8226 46.4033 51.8915 46.6948L52.8227 46.6941C52.843 46.7799 52.7955 46.7958 52.8535 46.7241C52.9054 46.6598 52.9882 46.5892 53.1095 46.4882L52.3939 45.7509ZM52.7444 45.3899C52.7377 45.3617 52.7594 45.3824 52.6942 45.4678C52.6295 45.5526 52.529 45.6384 52.3939 45.7509L53.1095 46.4882C53.2302 46.3877 53.3932 46.254 53.5109 46.0998C53.6281 45.9462 53.751 45.7084 53.6756 45.3892L52.7444 45.3899ZM50.8354 41.9744C50.8444 41.9855 51.2393 42.4727 51.6763 43.1499C52.1196 43.8369 52.5745 44.6713 52.7444 45.3899L53.6756 45.3893C53.4644 44.4958 52.9257 43.5323 52.4623 42.8142C51.9926 42.0863 51.5676 41.561 51.5431 41.5308L50.8354 41.9744ZM48.4044 31.9423L50.7237 41.7529L51.6549 41.7523L49.3356 31.9417L48.4044 31.9423ZM37.9513 23.671C42.6445 23.671 47.3246 27.3743 48.4044 31.9423L49.3356 31.9417C48.1375 26.8732 42.9449 22.7645 37.7377 22.7645L37.9513 23.671ZM35.2061 23.671H37.9513L37.7377 22.7645H34.9924L35.2061 23.671Z" fill="#A31920" mask="url(#path-5-inside-1_2369_51634)"/>
<mask id="path-7-inside-2_2369_51634" fill="white">
<path fill-rule="evenodd" clip-rule="evenodd" d="M36.1539 22.21C31.2037 22.21 28.1141 26.1159 29.2532 30.9342L29.5829 32.329C30.7219 37.1472 35.6582 41.0532 40.6085 41.0532H48.0123C49.6561 41.6919 50.8548 43.1358 51.7742 44.2432C52.4485 45.0554 52.9726 45.6866 53.4118 45.6866L52.3165 41.0532H52.3169L49.9247 30.9342C48.7857 26.1159 43.8494 22.21 38.8992 22.21H36.1539Z"/>
</mask>
<path fill-rule="evenodd" clip-rule="evenodd" d="M36.1539 22.21C31.2037 22.21 28.1141 26.1159 29.2532 30.9342L29.5829 32.329C30.7219 37.1472 35.6582 41.0532 40.6085 41.0532H48.0123C49.6561 41.6919 50.8548 43.1358 51.7742 44.2432C52.4485 45.0554 52.9726 45.6866 53.4118 45.6866L52.3165 41.0532H52.3169L49.9247 30.9342C48.7857 26.1159 43.8494 22.21 38.8992 22.21H36.1539Z" fill="#EF6262"/>
<path d="M29.2532 30.9342L29.7188 30.9339L29.2532 30.9342ZM29.5829 32.329L29.1173 32.3293L29.5829 32.329ZM48.0123 41.0532L48.1019 40.6382L48.0033 40.5999H47.9055L48.0123 41.0532ZM51.7742 44.2432L52.1238 44.0162L51.7742 44.2432ZM53.4118 45.6866L53.5186 46.1399H53.9846L53.8774 45.6863L53.4118 45.6866ZM52.3165 41.0532L52.2097 40.5999H51.7437L51.8509 41.0535L52.3165 41.0532ZM52.3169 41.0532L52.4237 41.5065H52.8897L52.7825 41.0529L52.3169 41.0532ZM49.9247 30.9342L49.4591 30.9345L49.9247 30.9342ZM29.7188 30.9339C28.6389 26.3661 31.5679 22.6632 36.2608 22.6632L36.0471 21.7567C30.8396 21.7567 27.5893 25.8658 28.7876 30.9345L29.7188 30.9339ZM30.0485 32.3287L29.7188 30.9339L28.7876 30.9345L29.1173 32.3293L30.0485 32.3287ZM40.5016 40.5999C35.8085 40.5999 31.1284 36.8967 30.0485 32.3287L29.1173 32.3293C30.3155 37.3978 35.508 41.5065 40.7153 41.5065L40.5016 40.5999ZM47.9055 40.5999H40.5016L40.7153 41.5065H48.1191L47.9055 40.5999ZM52.1238 44.0162C51.2246 42.9332 49.924 41.3462 48.1019 40.6382L47.9227 41.4682C49.3882 42.0376 50.4849 43.3383 51.4247 44.4702L52.1238 44.0162ZM53.305 45.2334C53.3213 45.2334 53.2417 45.2393 52.9815 44.9897C52.7434 44.7611 52.4693 44.4324 52.1238 44.0162L51.4247 44.4702C51.7534 44.8662 52.0785 45.2592 52.3808 45.5493C52.6611 45.8183 53.063 46.1399 53.5186 46.1399L53.305 45.2334ZM51.8509 41.0535L52.9462 45.687L53.8774 45.6863L52.7821 41.0529L51.8509 41.0535ZM52.21 40.5999H52.2097L52.4233 41.5065H52.4237L52.21 40.5999ZM49.4591 30.9345L51.8513 41.0535L52.7825 41.0529L50.3903 30.9338L49.4591 30.9345ZM39.006 22.6632C43.6991 22.6632 48.3793 26.3665 49.4591 30.9345L50.3903 30.9338C49.1922 25.8654 43.9996 21.7567 38.7924 21.7567L39.006 22.6632ZM36.2608 22.6632H39.006L38.7924 21.7567H36.0471L36.2608 22.6632Z" fill="#A31920" mask="url(#path-7-inside-2_2369_51634)"/>
<mask id="path-9-inside-3_2369_51634" fill="white">
<path fill-rule="evenodd" clip-rule="evenodd" d="M36.1789 31.9167C35.3935 31.4247 34.7797 30.6417 34.5789 29.7599C34.2397 28.2707 35.2069 27.0634 36.7392 27.0634C37.8119 27.0634 38.8772 27.6552 39.536 28.5211C39.8005 27.6552 40.5963 27.0635 41.669 27.0635C43.2012 27.0635 44.7183 28.2707 45.0574 29.76C45.287 30.768 44.918 31.6469 44.1804 32.1096L41.1595 35.8802L36.1789 31.9167Z"/>
</mask>
<path fill-rule="evenodd" clip-rule="evenodd" d="M36.1789 31.9167C35.3935 31.4247 34.7797 30.6417 34.5789 29.7599C34.2397 28.2707 35.2069 27.0634 36.7392 27.0634C37.8119 27.0634 38.8772 27.6552 39.536 28.5211C39.8005 27.6552 40.5963 27.0635 41.669 27.0635C43.2012 27.0635 44.7183 28.2707 45.0574 29.76C45.287 30.768 44.918 31.6469 44.1804 32.1096L41.1595 35.8802L36.1789 31.9167Z" fill="white"/>
<path d="M34.5789 29.76L34.1133 29.7603L34.5789 29.76ZM36.179 31.9167L36.4345 31.595L36.4062 31.5724L36.3756 31.5532L36.179 31.9167ZM39.5361 28.5212L39.1707 28.7309L39.7601 29.5057L39.9969 28.7304L39.5361 28.5212ZM45.0575 29.76L44.5919 29.7603L44.5919 29.7603L45.0575 29.76ZM44.1804 32.1096L43.8621 31.7139L43.8137 31.7443L43.7786 31.7881L44.1804 32.1096ZM41.1596 35.8802L40.904 36.202L41.3054 36.5214L41.5614 36.2018L41.1596 35.8802ZM34.1133 29.7603C34.3482 30.7915 35.0665 31.7065 35.9824 32.2802L36.3756 31.5532C35.7206 31.143 35.2113 30.492 35.0445 29.7596L34.1133 29.7603ZM36.6361 26.6094C34.8481 26.6094 33.7167 28.0187 34.1133 29.7603L35.0445 29.7596C34.7629 28.5228 35.5659 27.5176 36.8423 27.5176L36.6361 26.6094ZM39.9016 28.3115C39.1326 27.3008 37.8887 26.6094 36.6361 26.6094L36.8423 27.5176C37.7352 27.5176 38.6219 28.0097 39.1707 28.7309L39.9016 28.3115ZM41.566 26.6094C40.3133 26.6094 39.3841 27.3009 39.0753 28.3119L39.9969 28.7304C40.2171 28.0096 40.8794 27.5176 41.7721 27.5176L41.566 26.6094ZM45.5231 29.7597C45.1266 28.0183 43.3538 26.6094 41.566 26.6094L41.7721 27.5176C43.0488 27.5176 44.3102 28.5232 44.5919 29.7603L45.5231 29.7597ZM44.4988 32.5053C45.3591 31.9656 45.7916 30.9389 45.5231 29.7597L44.5919 29.7603C44.7825 30.5972 44.477 31.3282 43.8621 31.7139L44.4988 32.5053ZM41.5614 36.2018L44.5823 32.4311L43.7786 31.7881L40.7577 35.5587L41.5614 36.2018ZM35.9234 32.2385L40.904 36.202L41.4152 35.5585L36.4345 31.595L35.9234 32.2385Z" fill="#A31920" mask="url(#path-9-inside-3_2369_51634)"/>
<path d="M22.3008 81.1006H47.7703L56.381 117.509C57.5337 122.383 53.8366 127.057 48.8281 127.057H33.1695L22.3008 81.1006Z" fill="url(#paint5_linear_2369_51634)"/>
<path d="M80.8824 68.2568L94.1044 123.227C78.6577 123.227 65.2239 112.64 61.613 97.6216L60.3649 92.4308C57.4021 80.1079 66.7415 68.2568 79.4156 68.2568H80.8824Z" fill="url(#paint6_linear_2369_51634)"/>
<path d="M11.0325 41.7613L13.3275 51.1808C13.4982 51.8813 13.1708 52.6092 12.5296 52.9486C12.236 53.1041 11.8764 52.941 11.7989 52.6233L9.44395 42.9578C9.29089 42.3296 9.58446 41.6769 10.1596 41.3724C10.5101 41.1868 10.9399 41.3812 11.0325 41.7613Z" fill="url(#paint7_linear_2369_51634)" stroke="#0C2083" stroke-width="0.77613"/>
<path d="M10.4583 41.7594L12.7533 51.1788C12.924 51.8794 12.5966 52.6072 11.9554 52.9467C11.6617 53.1021 11.3021 52.9391 11.2247 52.6213L8.86973 42.9559C8.71667 42.3277 9.01024 41.6749 9.58538 41.3705C9.93592 41.1849 10.3656 41.3793 10.4583 41.7594Z" fill="url(#paint8_linear_2369_51634)" stroke="#0C2083" stroke-width="0.77613"/>
<path d="M29.1211 19.2256L50.4341 19.2256" stroke="#0C2083" stroke-width="0.77613"/>
<path d="M61.8535 133.498H79.8767" stroke="#0C2083" stroke-width="0.77613"/>
<path d="M57.5125 133.341H58.5544C58.704 133.341 58.7773 133.523 58.6693 133.627C58.1484 134.127 57.4544 134.406 56.7326 134.406H55.6906C55.5411 134.406 55.4678 134.223 55.5757 134.12C56.0967 133.62 56.7906 133.341 57.5125 133.341Z" fill="url(#paint9_linear_2369_51634)" stroke="#0C2083" stroke-width="0.77613"/>
<path d="M27.0191 79.236H45.9059C52.5639 79.236 58.3164 83.8544 59.7134 90.3183L64.8372 114.026C65.53 117.232 63.07 120.258 59.7654 120.258H36.5464C32.4155 120.258 28.8469 117.393 27.9803 113.383L21.9473 85.4682C21.2545 82.2625 23.7145 79.236 27.0191 79.236Z" fill="url(#paint10_linear_2369_51634)" stroke="#7DA124" stroke-width="0.347038"/>
<path d="M27.8941 78.0778H49.1043C54.2881 78.0778 58.7667 81.6736 59.8543 86.7059L65.5084 112.868C66.2013 116.074 63.7412 119.1 60.4366 119.1H37.4214C33.2905 119.1 29.7219 116.235 28.8553 112.225L22.8223 84.31C22.1295 81.1043 24.5895 78.0778 27.8941 78.0778Z" fill="#F1FFCE" stroke="#7DA124" stroke-width="0.347038"/>
<path d="M27.8863 77.9665H50.1529C54.7956 77.9665 58.8028 81.1956 59.7608 85.7058C59.8467 86.1106 59.5359 86.4941 59.1157 86.4941H23.8861C23.5448 86.4941 23.2516 86.2569 23.1816 85.9273L22.8106 84.1809C22.1308 80.98 24.5892 77.9665 27.8863 77.9665Z" fill="#ADD359" stroke="#7DA124" stroke-width="0.347038"/>
<path d="M31.873 102.175L30.5183 95.7907H37.0801L38.4348 102.175H31.873ZM32.4459 89.0592H35.6518L37.0065 95.4438H30.4447L29.7828 92.3243C29.5891 91.4115 29.7954 90.5976 30.2719 90.0131C30.7485 89.4285 31.5071 89.0592 32.4459 89.0592ZM37.3611 95.4438L36.0064 89.0592H42.5682L43.9229 95.4438H37.3611ZM44.2776 95.4438L42.9229 89.0592H49.4847L50.8394 95.4438H44.2776ZM51.1941 95.4438L49.8394 89.0592H52.9722C54.8623 89.0592 56.7192 90.5579 57.1091 92.3958L57.7559 95.4438H51.1941ZM51.2677 95.7907H57.8295L59.1842 102.175H52.6224L51.2677 95.7907ZM52.696 102.522H59.2578L60.6125 108.907H54.0507L52.696 102.522ZM54.1243 109.254H60.6861L61.348 112.373C61.5416 113.286 61.3354 114.1 60.8588 114.685C60.3822 115.269 59.6236 115.638 58.6849 115.638H55.479L54.1243 109.254ZM53.7696 109.254L55.1243 115.638H48.5625L47.2078 109.254H53.7696ZM46.8531 109.254L48.2078 115.638H41.646L40.2913 109.254H46.8531ZM39.9367 109.254L41.2914 115.638H38.1586C36.2685 115.638 34.4116 114.14 34.0216 112.302L33.3749 109.254H39.9367ZM33.3013 108.907L31.9466 102.522H38.5084L39.8631 108.907H33.3013ZM46.7795 108.907H40.2177L38.863 102.522H45.4248L46.7795 108.907ZM45.3512 102.175H38.7894L37.4347 95.7907H43.9965L45.3512 102.175ZM45.7059 102.175L44.3512 95.7907H50.913L52.2677 102.175H45.7059ZM45.7795 102.522H52.3413L53.696 108.907H47.1342L45.7795 102.522Z" stroke="#7DA124" stroke-width="0.347038"/>
<path d="M55.5259 111.937C54.3937 111.24 53.7028 110.071 53.6094 108.695L53.5272 107.483C53.3129 104.323 49.6252 103.107 46.5998 105.198C44.6541 106.543 42.2457 106.583 40.8051 105.295L37.1605 102.037C36.5072 101.453 36.0642 100.681 35.8758 99.7987L34.352 92.6607C34.1005 91.4828 33.398 90.5116 32.3661 89.9156L29.239 88.1094L28.6097 89.6252L30.9987 91.1125C31.9438 91.7008 32.5929 92.6142 32.8463 93.7123L34.5989 101.308C34.8035 102.195 35.2671 102.965 35.9425 103.54L40.6162 107.519C41.9355 108.643 44.0907 108.584 45.8312 107.378C48.6108 105.451 51.9975 106.604 52.1355 109.524L52.1712 110.279C52.2252 111.422 52.7538 112.411 53.6466 113.038L59.5858 117.214L60.6536 115.092L55.5259 111.937Z" fill="url(#paint11_linear_2369_51634)"/>
<path d="M57.3833 110.569C56.2511 109.872 55.5602 108.703 55.4668 107.327L55.3846 106.115C55.1703 102.955 51.4826 101.739 48.4572 103.83C46.5116 105.175 44.1031 105.215 42.6625 103.927L39.0179 100.669C38.3646 100.085 37.9216 99.3132 37.7332 98.4305L36.2094 91.2926C35.9579 90.1146 35.2554 89.1435 34.2235 88.5474L31.0964 86.7412L30.4672 88.2571L32.8561 89.7443C33.8012 90.3327 34.4503 91.246 34.7037 92.3441L36.4563 99.9397C36.6609 100.826 37.1245 101.597 37.7999 102.172L42.4736 106.151C43.7929 107.275 45.9481 107.216 47.6886 106.01C50.4682 104.083 53.8549 105.236 53.9929 108.155L54.0286 108.911C54.0826 110.054 54.6112 111.042 55.5041 111.67L61.4432 115.846L62.5111 113.724L57.3833 110.569Z" fill="#54C981"/>
<path d="M28.9789 83.6C27.9126 83.6 26.9855 82.8444 26.7592 81.8083C26.5787 80.9815 27.2104 80.1862 28.0601 80.1862C29.1265 80.1862 30.0536 80.9418 30.2799 81.9779C30.4604 82.8047 29.8287 83.6 28.9789 83.6Z" fill="#F1FFCE" stroke="#7DA124" stroke-width="0.347038"/>
<path d="M33.645 83.6C32.5786 83.6 31.6515 82.8444 31.4252 81.8083C31.2447 80.9815 31.8764 80.1862 32.7262 80.1862C33.7925 80.1862 34.7197 80.9418 34.9459 81.9779C35.1264 82.8047 34.4947 83.6 33.645 83.6Z" fill="#F1FFCE" stroke="#7DA124" stroke-width="0.347038"/>
<path d="M38.3032 83.6C37.2368 83.6 36.3097 82.8444 36.0834 81.8083C35.9029 80.9815 36.5346 80.1862 37.3844 80.1862C38.4507 80.1862 39.3779 80.9418 39.6041 81.9779C39.7846 82.8047 39.1529 83.6 38.3032 83.6Z" fill="#F1FFCE" stroke="#7DA124" stroke-width="0.347038"/>
<path fill-rule="evenodd" clip-rule="evenodd" d="M55.3971 30.8418C54.8325 30.8418 54.4041 31.3502 54.4997 31.9066C54.6282 32.6539 55.2763 33.2001 56.0346 33.2001H73.933L73.5275 30.8418H55.3971ZM57.1252 35.5576C56.5452 35.5576 56.1049 36.0797 56.2026 36.6513C56.3276 37.3818 56.9607 37.9159 57.7018 37.9159H74.9314L74.5281 35.5576H57.1252ZM62.5488 41.324C62.4748 40.7681 62.9073 40.2742 63.4682 40.2742H75.333L76.0336 42.6325H64.0428C63.2872 42.6325 62.6484 42.073 62.5488 41.324ZM71.5427 45.7771C70.9618 45.7771 70.5211 46.3005 70.62 46.8729C70.7461 47.6025 71.379 48.1354 72.1193 48.1354H77.0862L76.6786 45.7771H71.5427Z" fill="url(#paint12_linear_2369_51634)"/>
<path d="M57.8442 29.4121H77.8852C78.5091 29.4121 79.0453 29.8546 79.1639 30.4671C79.2492 30.9079 78.9115 31.3172 78.4625 31.3172H58.483C57.8413 31.3172 57.2897 30.8622 57.1677 30.2321C57.0854 29.8069 57.4112 29.4121 57.8442 29.4121Z" fill="#BCC6F9" stroke="#0C2083" stroke-width="0.453177"/>
<path d="M59.4516 34.1289H79.4111C80.0665 34.1289 80.6297 34.594 80.7535 35.2376C80.8331 35.6507 80.5165 36.034 80.0958 36.034H60.0289C59.4047 36.034 58.8683 35.591 58.7503 34.978C58.6655 34.5376 59.003 34.1289 59.4516 34.1289Z" fill="#BCC6F9" stroke="#0C2083" stroke-width="0.453177"/>
<path d="M66.9248 38.8448H81.0473C81.7147 38.8448 82.2816 39.3331 82.3804 39.9931C82.4401 40.3916 82.1315 40.7498 81.7286 40.7498H67.5004C66.8634 40.7498 66.3222 40.2837 66.2279 39.6537C66.1641 39.2278 66.4941 38.8448 66.9248 38.8448Z" fill="#BCC6F9" stroke="#0C2083" stroke-width="0.453177"/>
<path d="M76.013 44.3477H82.561C83.2158 44.3477 83.7788 44.8117 83.9038 45.4544C83.9843 45.8683 83.6674 46.2528 83.2458 46.2528H76.5904C75.9668 46.2528 75.4306 45.8109 75.3115 45.1987C75.2257 44.7576 75.5636 44.3477 76.013 44.3477Z" fill="#BCC6F9" stroke="#0C2083" stroke-width="0.453177"/>
<g filter="url(#filter1_b_2369_51634)">
<rect width="18.7585" height="18.7585" rx="6.71969" transform="matrix(-1 0 0.221378 0.975188 42.3184 50.6914)" fill="#07134E"/>
</g>
<g filter="url(#filter2_b_2369_51634)">
<rect width="18.7585" height="18.7585" rx="6.71969" transform="matrix(-1 0 0.221378 0.975188 44.1953 48.8174)" fill="#2B2B98"/>
</g>
<path d="M35.599 63.189C34.5928 63.189 33.5848 62.4143 33.35 61.454L31.4418 53.65C31.2079 52.6933 31.8324 51.915 32.8424 51.915C33.8487 51.915 34.8567 52.6897 35.0915 53.65L36.9997 61.454C37.2336 62.4107 36.6091 63.189 35.599 63.189Z" fill="#D0FF00"/>
<path d="M43.5092 61.8795L43.1992 62.5007C42.8942 63.1111 42.0401 63.2575 41.2924 62.8255L38.4074 61.1619C37.6597 60.73 37.2989 59.8839 37.604 59.2734L37.9139 58.6523C38.219 58.0418 39.0731 57.8954 39.8208 58.3274L42.7057 59.991C43.4534 60.423 43.8142 61.269 43.5092 61.8795Z" fill="#E0FF01"/>
<path d="M39.1669 57.0019C40.3925 57.0019 41.155 56.0573 40.8701 54.8921C40.5852 53.7268 39.3607 52.7822 38.1351 52.7822C36.9095 52.7822 36.147 53.7268 36.4319 54.8921C36.7168 56.0573 37.9413 57.0019 39.1669 57.0019Z" fill="#E0FF01"/>
<path d="M123.664 78.9739C120.514 64.5495 106.021 52.8571 91.2935 52.8571C76.5663 52.8571 67.1802 64.5495 70.3305 78.9739L71.6208 84.8815C74.7711 99.3059 89.2644 110.998 103.992 110.998C118.719 110.998 128.105 99.3059 124.955 84.8815L123.664 78.9739Z" fill="url(#paint13_linear_2369_51634)" stroke="#D93535" stroke-width="0.453177"/>
<path d="M72.7892 76.5959L74.187 82.9958C77.3076 97.2843 91.6643 108.866 106.253 108.866C120.841 108.866 130.139 97.2843 127.018 82.9958L125.62 76.5959C122.5 62.3074 108.143 50.7253 93.5546 50.7253C78.9662 50.7253 69.6686 62.3074 72.7892 76.5959Z" fill="#EF6262" stroke="#D93535" stroke-width="0.453177"/>
<path d="M79.089 77.827L80.0567 82.2577C82.4944 93.4195 93.7094 102.467 105.105 102.467C116.501 102.467 123.764 93.4195 121.326 82.2577L120.359 77.827C117.921 66.6653 106.706 57.6179 95.3101 57.6179C83.9143 57.6179 76.6513 66.6653 79.089 77.827Z" fill="#FFE2E4" stroke="#D93535" stroke-width="0.453177"/>
<path d="M114.991 78.565C113.236 70.53 105.163 64.0173 96.9601 64.0173C88.757 64.0173 83.5286 70.53 85.2834 78.565L86.036 82.0111C87.7909 90.046 95.8641 96.5588 104.067 96.5588C112.27 96.5588 117.499 90.046 115.744 82.0111L114.991 78.565Z" fill="#EF6262" stroke="#D93535" stroke-width="0.453177"/>
<path d="M108.725 79.796C107.713 75.1596 103.054 71.402 98.3217 71.402C93.589 71.402 90.572 75.1596 91.5846 79.7959L91.7996 80.7806C92.8122 85.4169 97.4705 89.1745 102.203 89.1745C106.936 89.1745 109.953 85.4169 108.94 80.7806L108.725 79.796Z" fill="#FFE2E4" stroke="#D93535" stroke-width="0.453177"/>
<path d="M97.4439 79.459L97.4439 79.9629C97.4439 81.2298 98.4683 82.2558 99.7307 82.2558C100.993 82.2558 102.018 81.2298 102.018 79.9629L102.018 79.459C102.018 78.1921 100.993 77.166 99.7307 77.166C98.4683 77.166 97.4439 78.1921 97.4439 79.459Z" fill="#EF6262" stroke="#D93535" stroke-width="0.453177"/>
<path d="M125.747 92.4813L100.125 79.5423L99.807 80.3941L125.455 94.3114L125.747 92.4813Z" fill="url(#paint14_linear_2369_51634)"/>
<path d="M125.034 84.1921L101.119 80.0352L101.148 81.0035L125.47 86.189L125.034 84.1921Z" fill="url(#paint15_linear_2369_51634)"/>
<path d="M125.642 95.3597L99.6275 78.7543L99.192 79.5392L124.613 97.2155L125.642 95.3597Z" fill="url(#paint16_linear_2369_51634)"/>
<path d="M142.154 68.7009C142.23 68.5 142.06 68.2936 141.851 68.3283L135.005 69.4626C131.826 69.9892 129.16 72.1471 127.975 75.143C130.063 77.5965 133.282 78.7792 136.461 78.2526L143.307 77.1183C143.517 77.0836 143.611 76.8333 143.474 76.6678L140.769 73.3957C140.602 73.1932 140.556 72.9162 140.649 72.6704L142.154 68.7009Z" fill="#FFAEB2" stroke="#D93535" stroke-width="0.453177"/>
<path d="M135.311 73.4147L135.311 73.4149L135.302 73.4163L101.251 78.7968C100.955 78.8588 100.764 79.1485 100.824 79.4469C100.885 79.7467 101.176 79.94 101.474 79.8799L101.474 79.8797L101.483 79.8782L135.534 74.4978C135.829 74.4358 136.021 74.1461 135.961 73.8477C135.9 73.5479 135.609 73.3546 135.311 73.4147Z" fill="white" stroke="#D93535" stroke-width="0.453177"/>
<path d="M142.399 56.0966L136.166 59.1496C133.273 60.567 131.338 63.4001 131.062 66.6109C133.765 68.3618 137.188 68.5703 140.081 67.1529L146.314 64.0999C146.504 64.0065 146.523 63.7394 146.344 63.6202L142.815 61.2622C142.597 61.1162 142.474 60.8639 142.492 60.6018L142.796 56.3664C142.811 56.152 142.589 56.0033 142.399 56.0966Z" fill="#FFAEB2" stroke="#D93535" stroke-width="0.453177"/>
<path d="M100.737 78.8175L100.728 78.8213L100.718 78.8243C100.434 78.9157 100.277 79.2214 100.368 79.5078C100.459 79.7913 100.76 79.9479 101.042 79.8623L138.166 64.2792L138.175 64.2754L138.184 64.2724C138.469 64.181 138.626 63.8752 138.534 63.5888C138.443 63.3053 138.143 63.1488 137.861 63.2343L100.737 78.8175Z" fill="white" stroke="#D93535" stroke-width="0.453177"/>
<path d="M136.437 50.9925L130.429 54.4675C127.639 56.0809 125.901 59.0412 125.843 62.2644C128.658 63.8258 132.086 63.7987 134.876 62.1853L140.885 58.7103C141.069 58.6037 141.069 58.3358 140.883 58.2293L137.204 56.1187C136.976 55.9879 136.835 55.7446 136.836 55.4818L136.852 51.2343C136.853 51.0193 136.621 50.8863 136.437 50.9925Z" fill="#FFAEB2" stroke="#D93535" stroke-width="0.453177"/>
<path d="M131.846 59.9536L131.846 59.9536L131.85 59.9515C132.109 59.8018 132.198 59.4694 132.048 59.2089C131.898 58.9491 131.568 58.8602 131.309 59.0084C131.309 59.0087 131.308 59.0091 131.308 59.0094L99.6682 78.1122L99.6683 78.1122L99.6646 78.1143C99.4057 78.264 99.3165 78.5964 99.4666 78.857C99.6163 79.1167 99.9466 79.2056 100.205 79.0574C100.206 79.0571 100.206 79.0567 100.207 79.0564L131.846 59.9536Z" fill="white" stroke="#D93535" stroke-width="0.453177"/>
<defs>
<filter id="filter0_b_2369_51634" x="19.7388" y="52.8003" width="23.9033" height="21.0664" filterUnits="userSpaceOnUse" color-interpolation-filters="sRGB">
<feFlood flood-opacity="0" result="BackgroundImageFix"/>
<feGaussianBlur in="BackgroundImageFix" stdDeviation="0.689199"/>
<feComposite in2="SourceAlpha" operator="in" result="effect1_backgroundBlur_2369_51634"/>
<feBlend mode="normal" in="SourceGraphic" in2="effect1_backgroundBlur_2369_51634" result="shape"/>
</filter>
<filter id="filter1_b_2369_51634" x="23.5044" y="49.313" width="23.0224" height="21.0498" filterUnits="userSpaceOnUse" color-interpolation-filters="sRGB">
<feFlood flood-opacity="0" result="BackgroundImageFix"/>
<feGaussianBlur in="BackgroundImageFix" stdDeviation="0.689199"/>
<feComposite in2="SourceAlpha" operator="in" result="effect1_backgroundBlur_2369_51634"/>
<feBlend mode="normal" in="SourceGraphic" in2="effect1_backgroundBlur_2369_51634" result="shape"/>
</filter>
<filter id="filter2_b_2369_51634" x="25.3814" y="47.439" width="23.0224" height="21.0498" filterUnits="userSpaceOnUse" color-interpolation-filters="sRGB">
<feFlood flood-opacity="0" result="BackgroundImageFix"/>
<feGaussianBlur in="BackgroundImageFix" stdDeviation="0.689199"/>
<feComposite in2="SourceAlpha" operator="in" result="effect1_backgroundBlur_2369_51634"/>
<feBlend mode="normal" in="SourceGraphic" in2="effect1_backgroundBlur_2369_51634" result="shape"/>
</filter>
<linearGradient id="paint0_linear_2369_51634" x1="82.2551" y1="11.3952" x2="-68.8321" y2="116.533" gradientUnits="userSpaceOnUse">
<stop stop-color="#3554EC"/>
<stop offset="1" stop-color="#BCC6F9"/>
</linearGradient>
<linearGradient id="paint1_linear_2369_51634" x1="51.787" y1="10.5126" x2="79.5116" y2="134.465" gradientUnits="userSpaceOnUse">
<stop stop-color="#BCC6F9"/>
<stop offset="1" stop-color="#3554EC"/>
</linearGradient>
<linearGradient id="paint2_linear_2369_51634" x1="-3.25396" y1="-18.0245" x2="0.396918" y2="37.525" gradientUnits="userSpaceOnUse">
<stop stop-color="#0C2083"/>
<stop offset="1" stop-color="#0C2083" stop-opacity="0"/>
</linearGradient>
<linearGradient id="paint3_linear_2369_51634" x1="11.3446" y1="5.91211" x2="16.7059" y2="76.5133" gradientUnits="userSpaceOnUse">
<stop stop-color="#0C2083"/>
<stop offset="1" stop-color="#0C2083" stop-opacity="0"/>
</linearGradient>
<linearGradient id="paint4_linear_2369_51634" x1="37.0639" y1="23.2178" x2="40.9968" y2="59.3103" gradientUnits="userSpaceOnUse">
<stop stop-color="#A31920"/>
<stop offset="1" stop-color="#EE6262"/>
</linearGradient>
<linearGradient id="paint5_linear_2369_51634" x1="44.7857" y1="81.1006" x2="40.6454" y2="137.737" gradientUnits="userSpaceOnUse">
<stop stop-color="#0C2083"/>
<stop offset="1" stop-color="#0C2083" stop-opacity="0"/>
</linearGradient>
<linearGradient id="paint6_linear_2369_51634" x1="74.6207" y1="68.2568" x2="70.4026" y2="136.102" gradientUnits="userSpaceOnUse">
<stop stop-color="#0C2083"/>
<stop offset="1" stop-color="#0C2083" stop-opacity="0"/>
</linearGradient>
<linearGradient id="paint7_linear_2369_51634" x1="13.0635" y1="40.44" x2="2.78633" y2="43.9851" gradientUnits="userSpaceOnUse">
<stop stop-color="#3554EC"/>
<stop offset="1" stop-color="#BCC6F9"/>
</linearGradient>
<linearGradient id="paint8_linear_2369_51634" x1="12.4892" y1="40.4381" x2="2.21211" y2="43.9832" gradientUnits="userSpaceOnUse">
<stop stop-color="#3554EC"/>
<stop offset="1" stop-color="#BCC6F9"/>
</linearGradient>
<linearGradient id="paint9_linear_2369_51634" x1="59.1069" y1="132.883" x2="57.5373" y2="137.233" gradientUnits="userSpaceOnUse">
<stop stop-color="#3554EC"/>
<stop offset="1" stop-color="#BCC6F9"/>
</linearGradient>
<linearGradient id="paint10_linear_2369_51634" x1="43.3927" y1="79.0625" x2="43.3927" y2="120.432" gradientUnits="userSpaceOnUse">
<stop stop-color="#ACC963"/>
<stop offset="1" stop-color="#F1FFCE"/>
</linearGradient>
<linearGradient id="paint11_linear_2369_51634" x1="55.2951" y1="92.9021" x2="60.5698" y2="131.81" gradientUnits="userSpaceOnUse">
<stop stop-color="#BDD67D"/>
<stop offset="1" stop-color="#BDD67D" stop-opacity="0"/>
</linearGradient>
<linearGradient id="paint12_linear_2369_51634" x1="70.0792" y1="16.6925" x2="83.7948" y2="63.1818" gradientUnits="userSpaceOnUse">
<stop stop-color="#0C2083"/>
<stop offset="1" stop-color="#0C2083" stop-opacity="0"/>
</linearGradient>
<linearGradient id="paint13_linear_2369_51634" x1="91.2452" y1="52.6357" x2="82.2136" y2="138.498" gradientUnits="userSpaceOnUse">
<stop stop-color="#A31920"/>
<stop offset="1" stop-color="#EE6262"/>
</linearGradient>
<linearGradient id="paint14_linear_2369_51634" x1="98.5405" y1="78.8135" x2="134.393" y2="92.2" gradientUnits="userSpaceOnUse">
<stop stop-color="#D93535"/>
<stop offset="1" stop-color="#D93535" stop-opacity="0"/>
</linearGradient>
<linearGradient id="paint15_linear_2369_51634" x1="99.6623" y1="79.85" x2="131.547" y2="78.8926" gradientUnits="userSpaceOnUse">
<stop stop-color="#D93535"/>
<stop offset="1" stop-color="#D93535" stop-opacity="0"/>
</linearGradient>
<linearGradient id="paint16_linear_2369_51634" x1="97.9687" y1="77.8727" x2="134.1" y2="97.9234" gradientUnits="userSpaceOnUse">
<stop stop-color="#D93535"/>
<stop offset="1" stop-color="#D93535" stop-opacity="0"/>
</linearGradient>
</defs>
</svg>
