<svg width="150" height="150" viewBox="0 0 150 150" fill="none" xmlns="http://www.w3.org/2000/svg">
<path d="M2.09209 82.2163L3.5738 81.3913C3.59114 81.3898 3.61389 81.3881 3.64083 81.3861C3.70417 81.3814 3.78783 81.3757 3.87194 81.3702C4.02186 81.3604 4.15949 81.352 4.19549 81.3498C4.20149 81.3494 4.20466 81.3492 4.20461 81.3492H80.313L91.9425 136.742C91.9807 136.924 91.8418 137.095 91.655 137.095H13.0183C12.8595 137.095 12.5866 136.991 12.3124 136.692C12.0428 136.398 11.7823 135.925 11.6508 135.224L11.6508 135.224L11.6497 135.219L0.739488 84.7511L0.739483 84.7511C0.511777 83.6985 1.07306 82.6342 2.07162 82.2262L2.08216 82.2219L2.09209 82.2163Z" fill="url(#paint0_linear_2369_51545)" stroke="#0C2083" stroke-width="0.378119"/>
<path d="M4.59081 81.1646H84.3579L96.3597 136.74C96.3991 136.922 96.2601 137.095 96.0725 137.095H14.248C14.0526 137.095 13.884 136.959 13.8429 136.768L2.41575 83.8542C2.11703 82.471 3.17275 81.1646 4.59081 81.1646Z" fill="#BCC6F9" stroke="#0C2083" stroke-width="0.378119"/>
<path d="M6.83968 84.8453H81.5177C81.7397 84.8453 81.9316 85.0004 81.9781 85.2175L92.2623 133.213C92.3251 133.506 92.1016 133.783 91.8019 133.783H17.1238C16.9018 133.783 16.71 133.628 16.6635 133.411L6.37932 85.4148C6.31652 85.1217 6.53994 84.8453 6.83968 84.8453Z" fill="white" stroke="#0C2083" stroke-width="0.378119"/>
<path opacity="0.75" fill-rule="evenodd" clip-rule="evenodd" d="M84.6975 81.3457H53.796L53.796 81.3457H45.0918L46.7763 89.1741C47.4305 92.214 50.118 94.3847 53.2274 94.3847H56.5781L63.143 125.153C63.3704 126.219 64.3119 126.981 65.4017 126.981H94.4345L84.6975 81.3457Z" fill="url(#paint1_linear_2369_51545)"/>
<path d="M117.783 115.398H69.5579C68.5611 115.398 67.6989 114.704 67.4862 113.73L57.6186 68.5426C57.3054 67.1084 57.8532 65.6228 59.0225 64.7353L61.1807 63.0971C61.6823 62.7163 62.2984 62.5171 62.928 62.5322L83.3206 63.0189C98.2798 63.376 111.102 73.8108 114.49 88.3856L119.892 111.62C119.9 111.655 119.904 111.69 119.904 111.726V113.277C119.904 114.449 118.955 115.398 117.783 115.398Z" fill="url(#paint2_linear_2369_51545)" stroke="#0C2083" stroke-width="0.378119"/>
<path d="M62.4143 62.5357H100.579C105.932 62.5357 110.559 66.2737 111.684 71.5075L120.331 111.738C120.615 113.059 119.609 114.305 118.258 114.305H70.5879C69.5885 114.305 68.7248 113.607 68.5148 112.63L58.7283 67.0982C58.2237 64.7506 60.0131 62.5357 62.4143 62.5357Z" fill="#E8EFFD" stroke="#0C2083" stroke-width="0.378119"/>
<path d="M99.8157 91.6461L100.818 96.6154C100.977 97.4036 100.452 98.0425 99.6452 98.0425L95.3272 98.0425L93.7493 90.2189L98.0673 90.2189C98.8739 90.2189 99.6568 90.8579 99.8157 91.6461Z" fill="#FFB886" stroke="#A54D12" stroke-width="0.378119"/>
<path d="M83.7377 90.2189H93.8713C94.6779 90.2189 95.4607 90.8579 95.6197 91.6461L96.6219 96.6154C96.7809 97.4036 96.2558 98.0425 95.4491 98.0425H85.3156C84.5089 98.0425 83.7261 97.4036 83.5671 96.6154L82.5649 91.6461C82.406 90.8579 82.931 90.2189 83.7377 90.2189Z" fill="#FFB886"/>
<path d="M83.7377 90.2189H93.8713C94.6779 90.2189 95.4607 90.8579 95.6197 91.6461L96.6219 96.6154C96.7809 97.4036 96.2558 98.0425 95.4491 98.0425H85.3156C84.5089 98.0425 83.7261 97.4036 83.5671 96.6154L82.5649 91.6461C82.406 90.8579 82.931 90.2189 83.7377 90.2189Z" fill="url(#paint3_linear_2369_51545)"/>
<path d="M83.7377 90.2189H93.8713C94.6779 90.2189 95.4607 90.8579 95.6197 91.6461L96.6219 96.6154C96.7809 97.4036 96.2558 98.0425 95.4491 98.0425H85.3156C84.5089 98.0425 83.7261 97.4036 83.5671 96.6154L82.5649 91.6461C82.406 90.8579 82.931 90.2189 83.7377 90.2189Z" stroke="#A54D12" stroke-width="0.378119"/>
<path d="M101.935 83.7262L102.937 88.6954C103.096 89.4836 102.571 90.1226 101.764 90.1226L97.7261 90.1226L96.1483 82.299L100.186 82.299C100.993 82.299 101.776 82.938 101.935 83.7262Z" fill="#FFB886" stroke="#A54D12" stroke-width="0.378119"/>
<path d="M88.952 74.079L92.1297 78.5229C92.6334 79.2273 92.5146 80.0844 91.8642 80.4371L88.6104 82.202L83.6085 75.2071L86.8623 73.4421C87.5127 73.0894 88.4482 73.3745 88.952 74.079Z" fill="#FFB886" stroke="#A54D12" stroke-width="0.378119"/>
<path d="M86.06 82.299H96.1935C97.0002 82.299 97.783 82.938 97.942 83.7262L98.9442 88.6954C99.1031 89.4836 98.5781 90.1226 97.7714 90.1226H87.6379C86.8312 90.1226 86.0484 89.4836 85.8894 88.6954L84.8872 83.7262C84.7282 82.938 85.2533 82.299 86.06 82.299Z" fill="#FFB886"/>
<path d="M86.06 82.299H96.1935C97.0002 82.299 97.783 82.938 97.942 83.7262L98.9442 88.6954C99.1031 89.4836 98.5781 90.1226 97.7714 90.1226H87.6379C86.8312 90.1226 86.0484 89.4836 85.8894 88.6954L84.8872 83.7262C84.7282 82.938 85.2533 82.299 86.06 82.299Z" fill="url(#paint4_linear_2369_51545)"/>
<path d="M86.06 82.299H96.1935C97.0002 82.299 97.783 82.938 97.942 83.7262L98.9442 88.6954C99.1031 89.4836 98.5781 90.1226 97.7714 90.1226H87.6379C86.8312 90.1226 86.0484 89.4836 85.8894 88.6954L84.8872 83.7262C84.7282 82.938 85.2533 82.299 86.06 82.299Z" stroke="#A54D12" stroke-width="0.378119"/>
<path d="M75.5711 79.5658L83.7368 75.1366C84.3871 74.7838 85.3227 75.069 85.8264 75.7734L89.0041 80.2173C89.5079 80.9218 89.389 81.7788 88.7387 82.1316L80.573 86.5608C79.9226 86.9135 78.9871 86.6284 78.4833 85.9239L75.3056 81.48C74.8019 80.7756 74.9207 79.9185 75.5711 79.5658Z" fill="url(#paint5_linear_2369_51545)" stroke="#A54D12" stroke-width="0.378119"/>
<path d="M104.405 87.5816L103.849 90.7789H97.9375L97.9884 87.5816H104.405ZM97.9316 91.1483H103.784L103.228 94.3457H97.8808L97.9316 91.1483ZM97.6005 87.5816L97.5496 90.7789H91.6256L91.1711 87.5816H97.6005ZM91.6781 91.1483H97.5437L97.4928 94.3457H92.1326L91.6781 91.1483ZM90.792 87.5816L91.2465 90.7789H85.3182L84.3584 87.5816H90.792ZM85.4291 91.1483H91.299L91.7534 94.3457H86.3889L85.4291 91.1483ZM83.979 87.5816L84.9389 90.7789H79.0152L77.55 87.5816H83.979ZM79.1845 91.1483H85.0498L86.0096 94.3457H80.6497L79.1845 91.1483ZM83.8681 87.2122H77.3807L76.7185 85.767C76.3082 84.8717 76.8163 84.0148 77.7575 84.0148H82.9083L83.8681 87.2122ZM84.2475 87.2122L83.2876 84.0148H90.285L90.7395 87.2122H84.2475ZM91.1186 87.2122L90.6642 84.0148H97.6572L97.6063 87.2122H91.1186ZM98.0451 84.0148H105.025L104.469 87.2122H97.9943L98.0451 84.0148ZM97.8749 94.7151H103.156C102.703 96.651 101.011 97.9125 98.8273 97.9125H97.824L97.8749 94.7151ZM97.487 94.7151L97.4361 97.9125H92.6396L92.1851 94.7151H97.487ZM91.806 94.7151L92.2604 97.9125H87.4597L86.4998 94.7151H91.806ZM86.1205 94.7151L87.0803 97.9125H83.4424C82.7639 97.9125 82.075 97.4561 81.7793 96.8107L80.819 94.7151H86.1205Z" stroke="#0C2083" stroke-width="0.378119"/>
<path d="M76.4811 83.6992H104.994C105.294 83.6992 105.588 83.9362 105.652 84.2285C105.716 84.5208 105.525 84.7577 105.226 84.7577H77.1332C76.7969 84.7577 76.6167 85.0654 76.766 85.3847L83.7254 100.26C85.1156 103.232 88.2974 105.323 91.4278 105.323H105.225C105.459 105.323 105.683 105.529 105.694 105.756C105.703 105.935 105.573 106.066 105.387 106.066H90.9255C87.8486 106.066 84.7171 104.03 83.3155 101.118L74.4604 82.7221C73.8036 81.3576 72.336 80.4035 70.894 80.4035H64.5093C64.2733 80.4035 64.0411 80.2165 63.9907 79.986C63.9402 79.7554 64.0907 79.5685 64.3267 79.5685H71.0725C72.5493 79.5685 74.0627 80.4893 74.8331 81.8566L75.5532 83.1346C75.7433 83.472 76.1167 83.6992 76.4811 83.6992Z" fill="#3554EC" stroke="#0C2083" stroke-width="0.378119"/>
<path d="M91.1632 109.585C91.2975 110.199 90.8962 110.697 90.2663 110.697C89.6363 110.697 89.0171 110.199 88.8828 109.585C88.7486 108.971 89.1499 108.473 89.7798 108.473C90.4097 108.473 91.0289 108.971 91.1632 109.585Z" fill="#3554EC" stroke="#0C2083" stroke-width="0.378119"/>
<path d="M104.646 109.585C104.78 110.199 104.379 110.697 103.749 110.697C103.119 110.697 102.5 110.199 102.365 109.585C102.231 108.971 102.632 108.473 103.262 108.473C103.892 108.473 104.511 108.971 104.646 109.585Z" fill="#3554EC" stroke="#0C2083" stroke-width="0.378119"/>
<path d="M58.5559 62.5357H104.533C107.537 62.5357 110.131 64.6336 110.755 67.5669L111.389 70.5449H59.5237L57.9719 63.2554C57.8931 62.8851 58.1759 62.5357 58.5559 62.5357Z" fill="#798DF3" stroke="#0C2083" stroke-width="0.378119"/>
<path d="M59.684 68.6265C58.6957 68.6265 57.8355 67.9235 57.6252 66.9548C57.4584 66.187 58.0416 65.4527 58.822 65.4527C59.8103 65.4527 60.6705 66.1558 60.8808 67.1244C61.0476 67.8923 60.4644 68.6265 59.684 68.6265Z" fill="#798DF3" stroke="#0C2083" stroke-width="0.378119"/>
<path d="M64.061 68.6265C63.0727 68.6265 62.2125 67.9235 62.0021 66.9548C61.8354 66.187 62.4186 65.4527 63.1989 65.4527C64.1872 65.4527 65.0474 66.1558 65.2578 67.1244C65.4245 67.8922 64.8413 68.6265 64.061 68.6265Z" fill="#798DF3" stroke="#0C2083" stroke-width="0.378119"/>
<path d="M68.436 68.6265C67.4477 68.6265 66.5875 67.9235 66.3771 66.9548C66.2104 66.187 66.7936 65.4527 67.5739 65.4527C68.5622 65.4527 69.4224 66.1558 69.6328 67.1244C69.7995 67.8922 69.2163 68.6265 68.436 68.6265Z" fill="#798DF3" stroke="#0C2083" stroke-width="0.378119"/>
<path d="M58.623 67.1105C58.0924 64.6449 59.9716 62.3184 62.4936 62.3184H77.247L80.0841 75.503C80.2797 76.4119 79.5869 77.2696 78.6572 77.2696H60.809L58.623 67.1105Z" fill="url(#paint6_linear_2369_51545)"/>
<path d="M51.3523 120.999C51.6577 122.436 50.562 123.789 49.0932 123.789H26.4143C25.0123 123.789 23.8013 122.808 23.5098 121.437L14.9386 81.1162C19.2973 81.1162 36.1375 81.1162 42.8742 81.1162L51.3523 120.999Z" fill="url(#paint7_linear_2369_51545)"/>
<path d="M13.3253 11.8268H75.5272C75.6848 11.8268 75.8207 11.9366 75.8537 12.09L78.7831 25.7192C78.8043 25.8178 78.729 25.9115 78.6271 25.9115H16.4252C16.2676 25.9115 16.1317 25.8017 16.0987 25.6483L13.1693 12.0191C13.1481 11.9205 13.2234 11.8268 13.3253 11.8268Z" fill="url(#paint8_linear_2369_51545)" stroke="#6A6DCD" stroke-width="0.378119"/>
<path d="M14.1339 10.8199H76.4151C76.5727 10.8199 76.7086 10.9298 76.7416 11.0832L79.671 24.7123C79.6922 24.811 79.6169 24.9047 79.515 24.9047H17.2338C17.0762 24.9047 16.9403 24.7948 16.9073 24.6414L13.9779 11.0123C13.9567 10.9136 14.032 10.8199 14.1339 10.8199Z" fill="#EDEEFF" stroke="#6A6DCD" stroke-width="0.378119"/>
<path d="M16.5335 12.4709C16.4862 12.2539 16.6518 12.0488 16.8742 12.0488H17.1766C17.4226 12.0488 17.6353 12.22 17.6876 12.4601L19.8974 22.6109C19.9447 22.8279 19.7791 23.0329 19.5567 23.0329H19.2543C19.0083 23.0329 18.7956 22.8617 18.7433 22.6217L16.5335 12.4709Z" fill="#C2C5FF"/>
<path d="M20.4715 15.9454C20.2245 14.8565 21.0535 13.8203 22.1716 13.8203H25.0953C26.724 13.8203 28.1357 14.9463 28.4955 16.5324L29.0861 19.1361C29.3332 20.2249 28.5042 21.2612 27.3861 21.2612H24.4624C22.8337 21.2612 21.422 20.1352 21.0622 18.5491L20.4715 15.9454Z" fill="#C2C5FF"/>
<line x1="32.5953" y1="15.7553" x2="65.2107" y2="15.7553" stroke="#6A6DCD" stroke-width="0.378119" stroke-linecap="round"/>
<line x1="33.6598" y1="20.0082" x2="66.2752" y2="20.0082" stroke="#6A6DCD" stroke-width="0.378119" stroke-linecap="round"/>
<path d="M71.4324 16.3459L73.9677 18.7898" stroke="#6A6DCD" stroke-width="0.378119" stroke-linecap="round"/>
<path d="M73.2126 16.38L72.1576 18.6382" stroke="#6A6DCD" stroke-width="0.378119" stroke-linecap="round"/>
<path d="M44.7169 32.1383H74.5124L82.2807 68.2803C82.3604 68.6509 82.0775 69.0011 81.697 69.0011H50.538C50.0093 69.0011 49.5527 68.6324 49.4419 68.1168L42.3399 35.0748C42.0151 33.564 43.1685 32.1383 44.7169 32.1383Z" fill="url(#paint9_linear_2369_51545)" stroke="#7DA124" stroke-width="0.378119"/>
<path d="M45.5001 31.0953H75.1132L82.8815 67.2373C82.9612 67.6079 82.6783 67.9581 82.2978 67.9581H51.3212C50.7925 67.9581 50.3359 67.5895 50.2251 67.0738L43.1231 34.0318C42.7984 32.521 43.9517 31.0953 45.5001 31.0953Z" fill="#F1FFCE" stroke="#7DA124" stroke-width="0.378119"/>
<path d="M45.506 30.9977H80.0297L81.6374 38.6086H44.1163L43.1271 33.9257C42.8085 32.4172 43.961 30.9977 45.506 30.9977Z" fill="#ADD359" stroke="#7DA124" stroke-width="0.378119"/>
<path d="M51.8441 53.0995H57.6652L58.8595 58.7892H53.0384L51.8441 53.0995ZM57.5875 52.7294H51.7664L50.5721 47.0397H56.3932L57.5875 52.7294ZM59.2376 58.7892L58.0433 53.0995H63.8644L65.0587 58.7892H59.2376ZM63.7868 52.7294H57.9656L56.7714 47.0397H62.5925L63.7868 52.7294ZM65.4368 58.7892L64.2425 53.0995H70.0637L71.2579 58.7892H65.4368ZM69.986 52.7294H64.1649L62.9706 47.0397H68.7917L69.986 52.7294ZM71.6361 58.7892L70.4418 53.0995H76.2629L77.4572 58.7892H71.6361ZM76.1852 52.7294H70.3641L69.1698 47.0397H74.9909L76.1852 52.7294ZM71.7137 59.1592H77.5349L78.2257 62.4506C78.5038 63.7752 77.632 64.8489 76.2787 64.8489H72.908L71.7137 59.1592ZM71.3356 59.1592L72.5299 64.8489H66.7088L65.5145 59.1592H71.3356ZM65.1364 59.1592L66.3307 64.8489H60.5095L59.3153 59.1592H65.1364ZM58.9371 59.1592L60.1314 64.8489H56.7607C55.4074 64.8489 54.0849 63.7752 53.8069 62.4506L53.116 59.1592H58.9371ZM50.4944 46.6696L49.8036 43.3783C49.5255 42.0537 50.3973 40.98 51.7506 40.98H55.1213L56.3156 46.6696H50.4944ZM62.5148 46.6696H56.6937L55.4994 40.98H61.3205L62.5148 46.6696ZM62.8929 46.6696L61.6986 40.98H67.5198L68.714 46.6696H62.8929ZM69.0922 46.6696L67.8979 40.98H71.2686C72.6219 40.98 73.9444 42.0537 74.2224 43.3782L74.9133 46.6696H69.0922Z" stroke="#7DA124" stroke-width="0.378119"/>
<path d="M57.1581 58.7891C57.7755 58.4072 58.1518 57.7663 58.2019 57.0111L58.2673 56.026C58.4026 53.9862 60.7682 53.2007 62.713 54.5496V54.5496C63.9632 55.4168 65.5084 55.4429 66.4323 54.6124L68.8811 52.4112C69.227 52.1003 69.4613 51.6893 69.5607 51.2192L70.6085 46.2612C70.7411 45.6339 71.1127 45.1169 71.659 44.7998L73.844 43.5312L74.2491 44.5086L72.5534 45.5697C72.0531 45.8828 71.7097 46.369 71.5761 46.9538L70.3788 52.193C70.2708 52.6653 70.0256 53.0754 69.6681 53.3815L66.5552 56.0465C65.7092 56.7709 64.3264 56.7331 63.2081 55.9551V55.9551C61.4212 54.7121 59.2487 55.4566 59.1623 57.3415L59.1394 57.841C59.1061 58.568 58.7723 59.1966 58.2079 59.5956L54.3858 62.297L53.6986 60.9286L57.1581 58.7891Z" fill="#FFB886"/>
<path d="M62.5721 40.6831L62.6904 41.2347C64.3632 49.0333 71.2636 54.605 79.2492 54.605C79.5945 54.605 79.9353 54.5885 80.2708 54.5564L75.0715 30.9062H65.606C63.0768 33.3061 61.7677 36.9329 62.5721 40.6831Z" fill="url(#paint10_linear_2369_51545)"/>
<path d="M75.7957 22.2418H77.0394C83.9103 22.2418 89.8479 27.0408 91.2889 33.7589L91.7081 35.713C93.1116 42.2561 88.1239 48.4271 81.4319 48.4271C73.7058 48.4271 67.0291 43.0307 65.4087 35.4764L65.3437 35.1735C63.9162 28.5184 68.9892 22.2418 75.7957 22.2418Z" fill="#FFE2E4" stroke="#EF6262" stroke-width="0.378119"/>
<path d="M49.1707 36.0012C48.2329 36.0012 47.4166 35.334 47.2169 34.4147C47.0592 33.6883 47.611 32.9937 48.349 32.9937C49.2868 32.9937 50.1031 33.6609 50.3027 34.5802C50.4605 35.3066 49.9087 36.0012 49.1707 36.0012Z" fill="#F1FFCE" stroke="#7DA124" stroke-width="0.378119"/>
<path d="M53.3406 36.0012C52.4028 36.0012 51.5865 35.334 51.3869 34.4147C51.2291 33.6883 51.7809 32.9937 52.5189 32.9937C53.4567 32.9937 54.273 33.6609 54.4727 34.5802C54.6304 35.3066 54.0786 36.0012 53.3406 36.0012Z" fill="#F1FFCE" stroke="#7DA124" stroke-width="0.378119"/>
<path d="M57.5164 36.0012C56.5786 36.0012 55.7623 35.334 55.5626 34.4147C55.4049 33.6883 55.9567 32.9937 56.6947 32.9937C57.6325 32.9937 58.4488 33.6609 58.6485 34.5802C58.8062 35.3066 58.2544 36.0012 57.5164 36.0012Z" fill="#F1FFCE" stroke="#7DA124" stroke-width="0.378119"/>
<path fill-rule="evenodd" clip-rule="evenodd" d="M91.4812 34.5528C90.2311 27.1648 83.6546 21.8637 76.1562 22.2255L78.9613 35.0226C78.9945 35.174 79.1286 35.2819 79.2836 35.2819H79.8683L79.0234 35.3349L90.3614 43.3722C90.3883 43.3913 90.4258 43.3834 90.4427 43.355C91.7205 41.2077 92.196 38.677 91.7849 36.2122L91.5078 34.5512L91.4812 34.5528Z" fill="url(#paint11_linear_2369_51545)"/>
<path d="M81.9093 33.0494H93.4695L93.5716 33.5591C94.056 35.9781 93.6818 38.4886 92.5164 40.6593L81.8294 33.3063C81.7155 33.2279 81.7709 33.0494 81.9093 33.0494Z" fill="#84EAF6" stroke="#239CAA" stroke-width="0.378119"/>
<path d="M94.3019 30.0998L94.4346 30.7186H82.139C82.0726 30.7186 82.0152 30.6722 82.0013 30.6073L79.2575 17.8158C86.5206 17.8874 92.7757 22.9845 94.3019 30.0998Z" fill="#C2C5FF" stroke="#6A6DCD" stroke-width="0.378119"/>
<path d="M146.505 136.271C146.407 137.894 145.06 139.18 143.413 139.18H16.9451C15.2977 139.18 13.9506 137.894 13.8529 136.271H80.1789H146.505Z" fill="url(#paint12_linear_2369_51545)" stroke="#0C2083" stroke-width="0.378119"/>
<path d="M54.7702 117.065H30.7868C29.4218 117.065 28.079 115.984 27.7875 114.65L13.88 51.0208C13.6688 50.0547 14.0674 49.1816 14.8933 48.8013L16.4542 48.0824L39.1293 49.3518C40.4324 49.4247 41.6705 50.452 41.9729 51.7113L57.0599 114.525L56.682 115.754C56.4346 116.559 55.6966 117.065 54.7702 117.065Z" fill="url(#paint13_linear_2369_51545)" stroke="#0C2083" stroke-width="0.378119"/>
<path d="M17.0897 47.8839H40.0367C41.4017 47.8839 42.7445 48.965 43.036 50.2985L56.7501 113.043C57.0416 114.377 56.1713 115.458 54.8063 115.458H31.8593C30.4943 115.458 29.1515 114.377 28.86 113.043L15.1459 50.2985C14.8544 48.9649 15.7247 47.8839 17.0897 47.8839Z" fill="#E8EFFD" stroke="#0C2083" stroke-width="0.378119"/>
<rect x="0.229429" y="0.184699" width="3.30613" height="3.3034" rx="1.6517" transform="matrix(1 0 0.213529 0.976937 16.4488 49.3392)" fill="white" stroke="#3554EC" stroke-width="0.378119"/>
<rect x="0.229429" y="0.184699" width="9.46887" height="0.759806" rx="0.379903" transform="matrix(1 0 0.213529 0.976937 27.7672 54.2435)" fill="white" stroke="#3554EC" stroke-width="0.378119"/>
<rect x="0.229429" y="0.184699" width="15.3637" height="2.16548" rx="1.08274" transform="matrix(1 0 0.213529 0.976937 23.7496 49.3392)" fill="white" stroke="#3554EC" stroke-width="0.378119"/>
<rect x="0.229429" y="0.184699" width="15.3637" height="2.16548" rx="1.08274" transform="matrix(1 0 0.213529 0.976937 37.1422 110.612)" fill="white" stroke="#3554EC" stroke-width="0.378119"/>
<path d="M24.0742 60.8486H42.9864C43.9883 60.8486 44.9739 61.6421 45.1878 62.6209L45.2587 62.9453C45.4726 63.9241 44.8339 64.7175 43.832 64.7175H24.9198L24.0742 60.8486Z" fill="white"/>
<rect x="0.229429" y="0.184699" width="14.2249" height="0.759806" rx="0.379903" transform="matrix(1 0 0.213529 0.976937 28.6129 58.1019)" fill="white" stroke="#3554EC" stroke-width="0.378119"/>
<rect width="9.84699" height="1.13792" rx="0.568962" transform="matrix(1 0 0.213529 0.976937 29.7324 61.9561)" fill="#E8EFFD"/>
<rect x="0.229429" y="0.184699" width="2.23435" height="1.42917" rx="0.714586" transform="matrix(1 0 0.213529 0.976937 41.3727 61.6322)" fill="#798DF3" stroke="#3554EC" stroke-width="0.378119"/>
<rect x="0.229429" y="0.184699" width="5.44969" height="0.759806" rx="0.379903" transform="matrix(1 0 0.213529 0.976937 30.7945 65.8187)" fill="white" stroke="#3554EC" stroke-width="0.378119"/>
<rect x="0.229429" y="0.184699" width="9.46887" height="0.759806" rx="0.379903" transform="matrix(1 0 0.213529 0.976937 31.5289 69.6771)" fill="white" stroke="#3554EC" stroke-width="0.378119"/>
<rect x="0.229429" y="0.184699" width="9.46887" height="0.759806" rx="0.379903" transform="matrix(1 0 0.213529 0.976937 34.8297 86.5472)" fill="white" stroke="#3554EC" stroke-width="0.378119"/>
<rect x="0.229429" y="0.184699" width="4.44489" height="0.759806" rx="0.379903" transform="matrix(1 0 0.213529 0.976937 33.9703 82.6234)" fill="white" stroke="#3554EC" stroke-width="0.378119"/>
<rect x="0.229429" y="0.184699" width="9.46887" height="0.759806" rx="0.379903" transform="matrix(1 0 0.213529 0.976937 35.486 90.4711)" fill="white" stroke="#3554EC" stroke-width="0.378119"/>
<rect x="0.229429" y="0.184699" width="9.46887" height="0.759806" rx="0.379903" transform="matrix(1 0 0.213529 0.976937 36.3434 94.3959)" fill="white" stroke="#3554EC" stroke-width="0.378119"/>
<rect x="0.229429" y="0.184699" width="9.46887" height="0.759806" rx="0.379903" transform="matrix(1 0 0.213529 0.976937 37.2008 98.3187)" fill="white" stroke="#3554EC" stroke-width="0.378119"/>
<rect x="0.229429" y="0.184699" width="3.30613" height="3.3034" rx="1.6517" transform="matrix(1 0 0.213529 0.976937 17.5348 54.307)" fill="white" stroke="#3554EC" stroke-width="0.378119"/>
<rect x="0.229429" y="0.184699" width="3.30613" height="3.3034" rx="1.6517" transform="matrix(1 0 0.213529 0.976937 18.6207 59.2777)" fill="white" stroke="#3554EC" stroke-width="0.378119"/>
<rect x="0.229429" y="0.184699" width="3.30613" height="3.3034" rx="1.6517" transform="matrix(1 0 0.213529 0.976937 19.7067 64.2484)" fill="white" stroke="#3554EC" stroke-width="0.378119"/>
<path d="M21.0867 47.6992L27.7543 78.205M35.9371 115.642L27.7543 78.205M27.7543 78.205L49.3239 78.205" stroke="#3554EC" stroke-width="0.378119"/>
<path d="M26.3956 54.762C26.5232 55.3461 26.1417 55.8198 25.5431 55.8198C24.9444 55.8198 24.3559 55.3461 24.2282 54.762C24.1005 54.1779 24.4821 53.7042 25.0807 53.7042C25.6793 53.7042 26.2679 54.1779 26.3956 54.762Z" fill="white" stroke="#3554EC" stroke-width="0.378119"/>
<path d="M27.2354 58.6204C27.3631 59.2045 26.9816 59.6782 26.3829 59.6782C25.7843 59.6782 25.1957 59.2045 25.068 58.6204C24.9404 58.0363 25.3219 57.5626 25.9205 57.5626C26.5192 57.5626 27.1078 58.0363 27.2354 58.6204Z" fill="white" stroke="#3554EC" stroke-width="0.378119"/>
<ellipse cx="1.27274" cy="1.2718" rx="1.27274" ry="1.2718" transform="matrix(1 0 0.213529 0.976937 25.5059 61.2363)" fill="#E8EFFD"/>
<path d="M43.2861 62.4792C43.327 62.666 43.205 62.8176 43.0133 62.8176C42.8216 62.8176 42.6333 62.666 42.5925 62.4792C42.5516 62.2924 42.6736 62.1408 42.8653 62.1408C43.057 62.1408 43.2453 62.2924 43.2861 62.4792Z" fill="white" stroke="#3554EC" stroke-width="0.378119"/>
<path d="M29.1065 66.3372C29.2342 66.9213 28.8527 67.395 28.254 67.395C27.6554 67.395 27.0668 66.9213 26.9391 66.3372C26.8115 65.7531 27.193 65.2794 27.7916 65.2794C28.3903 65.2794 28.9788 65.7531 29.1065 66.3372Z" fill="white" stroke="#3554EC" stroke-width="0.378119"/>
<path d="M29.9932 70.1946C30.1209 70.7787 29.7394 71.2524 29.1407 71.2524C28.5421 71.2524 27.9535 70.7787 27.8259 70.1946C27.6982 69.6106 28.0797 69.1368 28.6783 69.1368C29.277 69.1368 29.8656 69.6106 29.9932 70.1946Z" fill="white" stroke="#3554EC" stroke-width="0.378119"/>
<path d="M24.42 60.993L25.195 64.5385C25.2421 64.7542 25.145 64.9385 24.9671 65.0124L23.985 60.5191C24.1952 60.593 24.3729 60.7773 24.42 60.993Z" fill="#798DF3" stroke="#3554EC" stroke-width="0.378119"/>
<defs>
<linearGradient id="paint0_linear_2369_51545" x1="66.2945" y1="81.1602" x2="81.3892" y2="153.576" gradientUnits="userSpaceOnUse">
<stop stop-color="#3554EC"/>
<stop offset="1" stop-color="#BCC6F9"/>
</linearGradient>
<linearGradient id="paint1_linear_2369_51545" x1="73.0975" y1="76.1203" x2="34.0745" y2="110.246" gradientUnits="userSpaceOnUse">
<stop stop-color="#1230C6"/>
<stop offset="1" stop-color="#3554EC" stop-opacity="0"/>
</linearGradient>
<linearGradient id="paint2_linear_2369_51545" x1="102.27" y1="62.3184" x2="121.279" y2="128.583" gradientUnits="userSpaceOnUse">
<stop stop-color="#3554EC"/>
<stop offset="1" stop-color="#BCC6F9"/>
</linearGradient>
<linearGradient id="paint3_linear_2369_51545" x1="96.1454" y1="88.2115" x2="87.7618" y2="100.164" gradientUnits="userSpaceOnUse">
<stop stop-color="#F18D4B"/>
<stop offset="1" stop-color="#FFB886"/>
</linearGradient>
<linearGradient id="paint4_linear_2369_51545" x1="98.4677" y1="80.2915" x2="90.084" y2="92.244" gradientUnits="userSpaceOnUse">
<stop stop-color="#F18D4B"/>
<stop offset="1" stop-color="#FFB886"/>
</linearGradient>
<linearGradient id="paint5_linear_2369_51545" x1="83.9037" y1="72.5552" x2="80.6108" y2="87.4665" gradientUnits="userSpaceOnUse">
<stop stop-color="#F18D4B"/>
<stop offset="1" stop-color="#FFB886"/>
</linearGradient>
<linearGradient id="paint6_linear_2369_51545" x1="74.5732" y1="51.664" x2="59.9778" y2="85.2334" gradientUnits="userSpaceOnUse">
<stop stop-color="#1230C6"/>
<stop offset="1" stop-color="#3554EC" stop-opacity="0"/>
</linearGradient>
<linearGradient id="paint7_linear_2369_51545" x1="51.5847" y1="78.301" x2="18.7451" y2="131.574" gradientUnits="userSpaceOnUse">
<stop stop-color="#1230C6"/>
<stop offset="1" stop-color="#3554EC" stop-opacity="0"/>
</linearGradient>
<linearGradient id="paint8_linear_2369_51545" x1="60.3629" y1="11.6377" x2="61.8071" y2="31.0019" gradientUnits="userSpaceOnUse">
<stop stop-color="#3554EC"/>
<stop offset="1" stop-color="#BCC6F9"/>
</linearGradient>
<linearGradient id="paint9_linear_2369_51545" x1="55.6887" y1="28.525" x2="58.7907" y2="72.2598" gradientUnits="userSpaceOnUse">
<stop stop-color="#647D05"/>
<stop offset="1" stop-color="#ADD359"/>
</linearGradient>
<linearGradient id="paint10_linear_2369_51545" x1="78.6165" y1="30.0082" x2="49.1058" y2="50.2277" gradientUnits="userSpaceOnUse">
<stop stop-color="#84B11F"/>
<stop offset="1" stop-color="#ADD359" stop-opacity="0"/>
</linearGradient>
<linearGradient id="paint11_linear_2369_51545" x1="95.1357" y1="14.9655" x2="68.732" y2="24.5296" gradientUnits="userSpaceOnUse">
<stop stop-color="#EE6262"/>
<stop offset="1" stop-color="#FFE2E4"/>
</linearGradient>
<linearGradient id="paint12_linear_2369_51545" x1="109.18" y1="136.082" x2="109.217" y2="140.507" gradientUnits="userSpaceOnUse">
<stop stop-color="#3554EC"/>
<stop offset="1" stop-color="#BCC6F9"/>
</linearGradient>
<linearGradient id="paint13_linear_2369_51545" x1="34.3397" y1="48.0012" x2="90.701" y2="106.657" gradientUnits="userSpaceOnUse">
<stop stop-color="#3554EC"/>
<stop offset="1" stop-color="#BCC6F9"/>
</linearGradient>
</defs>
</svg>
