<svg width="150" height="150" viewBox="0 0 150 150" fill="none" xmlns="http://www.w3.org/2000/svg">
<path d="M77.5667 55.9977C77.579 56.0481 77.5469 56.089 77.495 56.089C77.4431 56.089 77.411 56.1299 77.4233 56.1803L77.8577 57.9567C77.9325 58.2627 78.2485 58.5107 78.5635 58.5107C78.8784 58.5107 79.0731 58.2627 78.9983 57.9567L78.5655 56.1864C78.5523 56.1326 78.4967 56.089 78.4414 56.089C78.386 56.089 78.3304 56.0454 78.3173 55.9916L76.9974 50.5938C76.8531 50.0034 76.4725 49.4373 75.9398 49.0207L61.3807 37.6344C61.2924 37.5653 61.2293 37.4714 61.2055 37.3734C61.1257 37.0447 60.6755 36.8808 60.495 37.1147L60.4121 37.2222C60.2823 37.3904 60.3498 37.6613 60.5631 37.8279L75.258 49.3112C75.7911 49.7278 76.1721 50.2942 76.3166 50.8851L77.5667 55.9977Z" fill="#BCC6F9" stroke="#BCC6F9" stroke-width="0.440086"/>
<path d="M34.2862 44.1708C34.3334 44.364 34.5329 44.5205 34.7317 44.5205L38.0916 44.5205C38.6962 44.5205 39.3331 44.7533 39.8627 45.1678L45.1956 49.3415C45.7252 49.756 46.3621 49.9888 46.9667 49.9888L49.3224 49.9888L66.7527 49.9888C67.3503 49.9888 67.9798 50.2162 68.5061 50.6223L70.8569 52.436C71.3892 52.8467 71.7701 53.409 71.9136 53.996L72.4241 56.0839C72.437 56.1365 72.4035 56.1792 72.3493 56.1792C72.2952 56.1792 72.2617 56.2218 72.2745 56.2744L72.6874 57.9629C72.7614 58.2655 73.0738 58.5107 73.3853 58.5107C73.6967 58.5107 73.8893 58.2655 73.8153 57.9629L73.4024 56.2744C73.3895 56.2218 73.3352 56.1792 73.281 56.1792C73.2269 56.1792 73.1725 56.1365 73.1597 56.0839L72.5845 53.7316C72.4386 53.1348 72.0513 52.563 71.5101 52.1455L68.6293 49.9228C68.103 49.5167 67.4735 49.2893 66.8759 49.2893L49.3224 49.2893L47.0913 49.2893C46.4858 49.2893 45.8481 49.0559 45.318 48.6403L39.9989 44.47C39.4688 44.0545 38.8311 43.8211 38.2256 43.8211L34.5607 43.8211C34.3619 43.8211 34.239 43.9776 34.2862 44.1708Z" fill="#BCC6F9"/>
<path d="M39.4209 46.8736C38.8967 46.4728 38.272 46.2487 37.6787 46.2487L34.2997 46.2487C34.1008 46.2487 33.9014 46.0921 33.8541 45.899C33.8069 45.7058 33.9298 45.5493 34.1287 45.5493L37.813 45.5493C38.4069 45.5493 39.0324 45.7739 39.557 46.1756L46.1727 51.2414C46.6092 51.5756 47.1297 51.7626 47.6239 51.7626L49.5743 51.7626C49.8068 51.7626 50.0299 51.9734 50.0299 52.1931C50.0299 52.3508 49.9122 52.462 49.7454 52.462L47.655 52.462C47.0618 52.462 46.437 52.238 45.9128 51.8372L39.4209 46.8736Z" fill="#BCC6F9"/>
<path d="M49.3224 49.9888L46.9667 49.9888C46.3621 49.9888 45.7252 49.756 45.1956 49.3415L39.8627 45.1678C39.3331 44.7533 38.6962 44.5205 38.0916 44.5205L34.7317 44.5205C34.5329 44.5205 34.3334 44.364 34.2862 44.1708V44.1708C34.239 43.9776 34.3619 43.8211 34.5607 43.8211L38.2256 43.8211C38.8311 43.8211 39.4688 44.0545 39.9989 44.47L45.318 48.6403C45.8481 49.0559 46.4858 49.2893 47.0913 49.2893L49.3224 49.2893M49.3224 49.9888L66.7527 49.9888C67.3503 49.9888 67.9798 50.2162 68.5061 50.6223L70.8569 52.436C71.3892 52.8467 71.7701 53.409 71.9136 53.996L72.4241 56.0839C72.437 56.1365 72.4035 56.1792 72.3493 56.1792V56.1792C72.2952 56.1792 72.2617 56.2218 72.2745 56.2744L72.6874 57.9629C72.7614 58.2655 73.0738 58.5107 73.3853 58.5107V58.5107C73.6967 58.5107 73.8893 58.2655 73.8153 57.9629L73.4024 56.2744C73.3895 56.2218 73.3352 56.1792 73.281 56.1792V56.1792C73.2269 56.1792 73.1725 56.1365 73.1597 56.0839L72.5845 53.7316C72.4386 53.1348 72.0513 52.563 71.5101 52.1455L68.6293 49.9228C68.103 49.5167 67.4735 49.2893 66.8759 49.2893L49.3224 49.2893M49.3224 49.9888L49.3224 49.2893M49.5743 51.7626L47.6239 51.7626C47.1297 51.7626 46.6092 51.5756 46.1727 51.2414L39.557 46.1756C39.0324 45.7739 38.4069 45.5493 37.813 45.5493L34.1287 45.5493C33.9298 45.5493 33.8069 45.7058 33.8541 45.899V45.899C33.9014 46.0921 34.1008 46.2487 34.2997 46.2487L37.6787 46.2487C38.272 46.2487 38.8967 46.4728 39.4209 46.8736L45.9128 51.8372C46.437 52.238 47.0618 52.462 47.655 52.462L49.7454 52.462C49.9122 52.462 50.0299 52.3508 50.0299 52.1931V52.1931C50.0299 51.9734 49.8068 51.7626 49.5743 51.7626Z" stroke="#BCC6F9" stroke-width="0.440086"/>
<path d="M39.9756 42.0914C40.0047 42.1775 40.0632 42.2581 40.1411 42.3192L43.5122 44.965C44.0425 45.3812 44.6808 45.615 45.2868 45.615L66.3261 45.615C66.932 45.615 67.5704 45.8488 68.1007 46.265L73.9266 50.8376C74.457 51.2539 74.8358 51.8185 74.9798 52.4072L75.8564 55.9921C75.8694 56.0456 75.8354 56.089 75.7803 56.089C75.7252 56.089 75.6912 56.1324 75.7043 56.1859L76.138 57.9597C76.2124 58.264 76.5267 58.5107 76.84 58.5107C77.1533 58.5107 77.3469 58.264 77.2725 57.9597L76.8388 56.1859C76.8257 56.1324 76.7704 56.089 76.7153 56.089C76.6603 56.089 76.605 56.0456 76.5919 55.9921L75.6413 52.1045C75.4974 51.5158 75.1185 50.9511 74.5882 50.5349L68.2222 45.5385C67.692 45.1223 67.0536 44.8885 66.4476 44.8885L45.4013 44.8885C44.7921 44.8885 44.1504 44.6522 43.6186 44.2321L41.3636 42.4507C40.9012 42.0853 40.5524 41.6061 40.3823 41.0933C40.1155 40.2887 39.7195 39.0659 39.3715 37.8749C39.3146 37.6803 39.1123 37.5265 38.9117 37.5265C38.6995 37.5265 38.5717 37.698 38.632 37.9039C39.2165 39.9007 39.9187 41.9547 39.9756 42.0914Z" fill="#BCC6F9" stroke="#BCC6F9" stroke-width="0.440086"/>
<path d="M79.6204 57.9716L79.1832 56.1838C79.1704 56.1315 79.2037 56.089 79.2576 56.089C79.3115 56.089 79.3449 56.0466 79.3321 55.9942L77.2876 47.6327C77.1441 47.0462 76.7696 46.4842 76.245 46.0647C74.3802 44.5737 70.0848 41.1252 66.1228 37.985C65.6009 37.5714 65.2273 37.0146 65.0823 36.4331L63.8832 31.624C63.5818 30.4153 62.3326 29.4384 61.0883 29.4384L59.2082 29.4384C58.9981 29.4384 58.7873 29.273 58.7374 29.0689C58.6875 28.8648 58.8174 28.6993 59.0275 28.6993L61.6317 28.6993C62.8745 28.6993 64.1254 29.6642 64.4473 30.8712L65.9361 36.4535C66.088 37.0228 66.4579 37.5658 66.9704 37.9691C70.2748 40.569 73.6039 43.1401 76.8954 45.756C77.4158 46.1695 77.7859 46.7271 77.9278 47.3075L80.0518 55.9942C80.0646 56.0466 80.1187 56.089 80.1726 56.089C80.2265 56.089 80.2805 56.1315 80.2933 56.1838L80.7305 57.9716C80.8033 58.2693 80.6138 58.5107 80.3072 58.5107C80.0007 58.5107 79.6932 58.2693 79.6204 57.9716Z" fill="#BCC6F9" stroke="#BCC6F9" stroke-width="0.440086"/>
<path d="M71.6669 56.2419C71.654 56.1891 71.5995 56.1463 71.5451 56.1463C71.4908 56.1463 71.4363 56.1035 71.4234 56.0507L71.0179 54.3924C70.9038 53.9259 70.6031 53.4786 70.1824 53.1495L69.2785 52.4425C68.749 52.0283 68.1124 51.7958 67.5081 51.7958L49.1892 51.7958C48.7859 51.7958 48.5366 52.1133 48.6324 52.5051L67.3782 52.5051C67.9801 52.5051 68.614 52.7357 69.1423 53.1469L69.5858 53.492C69.9603 53.7834 70.228 54.1805 70.3293 54.5949L70.6868 56.0567C70.6989 56.1062 70.6674 56.1463 70.6164 56.1463C70.5655 56.1463 70.534 56.1864 70.5461 56.2359L70.9693 57.9671C71.0428 58.2673 71.3529 58.5107 71.662 58.5107C71.9711 58.5107 72.1622 58.2673 72.0887 57.9671L71.6669 56.2419Z" fill="#BCC6F9" stroke="#BCC6F9" stroke-width="0.440086"/>
<path d="M91.4596 58.3887H90.6958C90.5197 58.3887 90.4086 58.5279 90.4475 58.6996C90.4865 58.8713 90.6609 59.0105 90.837 59.0105H91.6008C91.7769 59.0105 91.888 58.8713 91.849 58.6996C91.81 58.5279 91.6357 58.3887 91.4596 58.3887Z" fill="#BCC6F9"/>
<path d="M92.3239 60.1162H91.56C91.384 60.1162 91.2728 60.2554 91.3118 60.4271C91.3508 60.5989 91.5251 60.7381 91.7012 60.7381H92.465C92.6411 60.7381 92.7523 60.5989 92.7133 60.4271C92.6743 60.2554 92.5 60.1162 92.3239 60.1162Z" fill="#BCC6F9"/>
<path d="M105.499 60.1164L96.3301 60.1164C96.1226 60.1164 95.9314 60.2289 95.8307 60.4103L93.9969 63.711C93.8962 63.8924 93.705 64.0049 93.4976 64.0049L88.6491 64.0049" stroke="#BCC6F9" stroke-width="0.440086" stroke-linejoin="round"/>
<path d="M103.338 61.4123L97.1933 61.4123C96.9858 61.4123 96.7947 61.5248 96.6939 61.7062L94.8601 65.0069C94.7594 65.1883 94.5682 65.3008 94.3608 65.3008L89.0803 65.3008" stroke="#BCC6F9" stroke-width="0.440086" stroke-linejoin="round"/>
<path d="M109.388 62.7098L98.0661 62.7098C97.8589 62.7098 97.668 62.8219 97.5671 63.0029L92.5952 71.9217C92.4943 72.1027 92.3034 72.2148 92.0962 72.2148L90.3775 72.2148" stroke="#BCC6F9" stroke-width="0.440086" stroke-linejoin="round"/>
<path d="M56.2451 68.3264L53.1249 68.3264C52.9174 68.3264 52.7262 68.4389 52.6255 68.6202L50.7917 71.921C50.691 72.1024 50.4998 72.2148 50.2923 72.2148L35.9388 72.2148" stroke="#BCC6F9" stroke-width="0.285633" stroke-linejoin="round"/>
<path d="M56.6768 69.6223L53.9885 69.6223C53.7811 69.6223 53.5899 69.7348 53.4892 69.9161L51.6554 73.2169C51.5547 73.3983 51.3635 73.5107 51.156 73.5107L36.3704 73.5107" stroke="#BCC6F9" stroke-width="0.285633" stroke-linejoin="round"/>
<path d="M57.1094 70.9172L54.8532 70.9172C54.6457 70.9172 54.4546 71.0297 54.3538 71.2111L52.5201 74.5118C52.4193 74.6932 52.2282 74.8057 52.0207 74.8057L36.371 74.8057" stroke="#BCC6F9" stroke-width="0.285633" stroke-linejoin="round"/>
<path d="M97.6195 74.5478L101.454 78.4C101.803 78.75 102.276 78.9467 102.77 78.9467H104.31C104.411 78.9467 104.492 79.0279 104.492 79.128C104.492 79.2281 104.411 79.3093 104.31 79.3093H102.512C102.094 79.3093 101.693 79.1428 101.399 78.8467L97.5638 74.9945C97.2154 74.6445 96.7419 74.4478 96.248 74.4478H90.7011C90.6009 74.4478 90.5198 74.3666 90.5198 74.2665C90.5198 74.1664 90.6009 74.0852 90.7011 74.0852H96.5061C96.924 74.0852 97.3247 74.2517 97.6195 74.5478Z" fill="#BCC6F9" stroke="#BCC6F9" stroke-width="0.285633"/>
<path d="M96.041 77.9986L99.9157 81.8536C100.264 82.1998 100.734 82.3941 101.225 82.3941H105.175C105.275 82.3941 105.355 82.475 105.355 82.5748C105.355 82.6746 105.275 82.7555 105.175 82.7555H100.965C100.55 82.7555 100.151 82.5911 99.857 82.2982L95.9823 78.4431C95.6344 78.097 95.1636 77.9027 94.6728 77.9027H91.1321C91.0323 77.9027 90.9514 77.8218 90.9514 77.722C90.9514 77.6222 91.0323 77.5413 91.1321 77.5413H94.933C95.3482 77.5413 95.7466 77.7057 96.041 77.9986Z" fill="#BCC6F9" stroke="#BCC6F9" stroke-width="0.285633"/>
<path d="M96.7989 76.2702L100.644 80.0972C100.992 80.4435 101.463 80.6379 101.954 80.6379H104.745C104.843 80.6379 104.923 80.718 104.923 80.8167C104.923 80.9155 104.843 80.9956 104.745 80.9956H101.695C101.28 80.9956 100.881 80.8311 100.587 80.5381L96.7418 76.7111C96.3939 76.3649 95.923 76.1705 95.4321 76.1705H91.1303C91.0315 76.1705 90.9514 76.0904 90.9514 75.9916C90.9514 75.8928 91.0315 75.8127 91.1303 75.8127H95.6907C96.1061 75.8127 96.5045 75.9772 96.7989 76.2702Z" fill="#BCC6F9" stroke="#BCC6F9" stroke-width="0.285633"/>
<path d="M68.613 85.9603C68.6007 85.9099 68.6328 85.869 68.6847 85.869C68.7366 85.869 68.7687 85.8281 68.7564 85.7777L68.322 84.0013C68.2472 83.6953 67.9312 83.4473 67.6162 83.4473C67.3012 83.4473 67.1065 83.6953 67.1814 84.0013L67.6142 85.7716C67.6274 85.8254 67.6829 85.869 67.7383 85.869C67.7937 85.869 67.8493 85.9126 67.8624 85.9664L69.1823 91.3642C69.3266 91.9546 69.7072 92.5208 70.2398 92.9373L84.799 104.324C84.8873 104.393 84.9504 104.487 84.9741 104.585C85.054 104.913 85.5042 105.077 85.6847 104.843L85.7676 104.736C85.8974 104.568 85.8299 104.297 85.6166 104.13L70.9217 92.6468C70.3886 92.2302 70.0076 91.6638 69.8631 91.073L68.613 85.9603Z" fill="#BCC6F9" stroke="#BCC6F9" stroke-width="0.440086"/>
<path d="M111.894 97.7872C111.846 97.5941 111.647 97.4375 111.448 97.4375H108.088C107.483 97.4375 106.847 97.2047 106.317 96.7902L100.984 92.6165C100.454 92.202 99.8176 91.9692 99.213 91.9692H96.8573H79.427C78.8293 91.9692 78.1999 91.7418 77.6736 91.3357L75.3228 89.522C74.7905 89.1113 74.4096 88.549 74.2661 87.962L73.7556 85.8741C73.7427 85.8215 73.7762 85.7789 73.8304 85.7789C73.8845 85.7789 73.918 85.7362 73.9051 85.6836L73.4923 83.9951C73.4183 83.6925 73.1059 83.4473 72.7944 83.4473C72.4829 83.4473 72.2904 83.6925 72.3644 83.9951L72.7773 85.6836C72.7901 85.7362 72.8445 85.7789 72.8986 85.7789C72.9528 85.7789 73.0072 85.8215 73.02 85.8741L73.5952 88.2264C73.7411 88.8233 74.1284 89.395 74.6696 89.8125L77.5504 92.0352C78.0767 92.4413 78.7061 92.6687 79.3038 92.6687H96.8573H99.0884C99.6938 92.6687 100.332 92.9021 100.862 93.3177L106.181 97.488C106.711 97.9035 107.349 98.1369 107.954 98.1369H111.619C111.818 98.1369 111.941 97.9804 111.894 97.7872Z" fill="#BCC6F9"/>
<path d="M106.759 95.0844C107.283 95.4852 107.908 95.7093 108.501 95.7093H111.88C112.079 95.7093 112.278 95.8659 112.326 96.059C112.373 96.2522 112.25 96.4088 112.051 96.4088H108.367C107.773 96.4088 107.147 96.1841 106.623 95.7824L100.007 90.7166C99.5705 90.3824 99.05 90.1954 98.5558 90.1954H96.6054C96.3729 90.1954 96.1498 89.9846 96.1498 89.7649C96.1498 89.6072 96.2675 89.496 96.4343 89.496H98.5247C99.1179 89.496 99.7427 89.72 100.267 90.1208L106.759 95.0844Z" fill="#BCC6F9"/>
<path d="M96.8573 91.9692H99.213C99.8176 91.9692 100.454 92.202 100.984 92.6165L106.317 96.7902C106.847 97.2047 107.483 97.4375 108.088 97.4375H111.448C111.647 97.4375 111.846 97.5941 111.894 97.7872V97.7872C111.941 97.9804 111.818 98.1369 111.619 98.1369H107.954C107.349 98.1369 106.711 97.9035 106.181 97.488L100.862 93.3177C100.332 92.9021 99.6938 92.6687 99.0884 92.6687H96.8573M96.8573 91.9692H79.427C78.8293 91.9692 78.1999 91.7418 77.6736 91.3357L75.3228 89.522C74.7905 89.1113 74.4096 88.549 74.2661 87.962L73.7556 85.8741C73.7427 85.8215 73.7762 85.7789 73.8304 85.7789V85.7789C73.8845 85.7789 73.918 85.7362 73.9051 85.6836L73.4923 83.9951C73.4183 83.6925 73.1059 83.4473 72.7944 83.4473V83.4473C72.4829 83.4473 72.2904 83.6925 72.3644 83.9951L72.7773 85.6836C72.7901 85.7362 72.8445 85.7789 72.8986 85.7789V85.7789C72.9528 85.7789 73.0072 85.8215 73.02 85.8741L73.5952 88.2264C73.7411 88.8233 74.1284 89.395 74.6696 89.8125L77.5504 92.0352C78.0767 92.4413 78.7061 92.6687 79.3038 92.6687H96.8573M96.8573 91.9692L96.8573 92.6687M96.6054 90.1954H98.5558C99.05 90.1954 99.5705 90.3824 100.007 90.7166L106.623 95.7824C107.147 96.1841 107.773 96.4088 108.367 96.4088H112.051C112.25 96.4088 112.373 96.2522 112.326 96.059V96.059C112.278 95.8659 112.079 95.7093 111.88 95.7093H108.501C107.908 95.7093 107.283 95.4852 106.759 95.0844L100.267 90.1208C99.7427 89.72 99.1179 89.496 98.5247 89.496H96.4343C96.2675 89.496 96.1498 89.6072 96.1498 89.7649V89.7649C96.1498 89.9846 96.3729 90.1954 96.6054 90.1954Z" stroke="#BCC6F9" stroke-width="0.440086"/>
<path d="M106.206 99.8666C106.177 99.7805 106.118 99.6999 106.041 99.6388L102.669 96.993C102.139 96.5768 101.501 96.343 100.895 96.343H79.8556C79.2496 96.343 78.6113 96.1092 78.081 95.693L72.255 91.1204C71.7246 90.7042 71.3458 90.1395 71.2018 89.5508L70.3253 85.9659C70.3122 85.9124 70.3462 85.869 70.4013 85.869C70.4564 85.869 70.4905 85.8256 70.4774 85.7721L70.0436 83.9983C69.9692 83.694 69.6549 83.4473 69.3417 83.4473C69.0284 83.4473 68.8347 83.694 68.9091 83.9983L69.3429 85.7721C69.356 85.8256 69.4112 85.869 69.4663 85.869C69.5214 85.869 69.5766 85.9124 69.5897 85.9659L70.5403 89.8535C70.6842 90.4422 71.0631 91.0069 71.5935 91.4231L77.9594 96.4195C78.4897 96.8357 79.128 97.0695 79.734 97.0695H100.78C101.389 97.0695 102.031 97.3058 102.563 97.7259L104.818 99.5073C105.28 99.8727 105.629 100.352 105.799 100.865C106.066 101.669 106.462 102.892 106.81 104.083C106.867 104.278 107.069 104.432 107.27 104.432C107.482 104.432 107.61 104.26 107.55 104.054C106.965 102.057 106.263 100.003 106.206 99.8666Z" fill="#BCC6F9" stroke="#BCC6F9" stroke-width="0.440086"/>
<path d="M66.5593 83.9864L66.9965 85.7742C67.0093 85.8266 66.976 85.869 66.9221 85.869C66.8682 85.869 66.8348 85.9114 66.8476 85.9638L68.8921 94.3253C69.0356 94.9118 69.4101 95.4739 69.9347 95.8933C71.7995 97.3843 76.0949 100.833 80.0569 103.973C80.5788 104.387 80.9524 104.943 81.0974 105.525L82.2965 110.334C82.5979 111.543 83.8471 112.52 85.0914 112.52H86.9715C87.1816 112.52 87.3924 112.685 87.4423 112.889C87.4922 113.093 87.3623 113.259 87.1522 113.259H84.548C83.3052 113.259 82.0543 112.294 81.7324 111.087L80.2436 105.504C80.0917 104.935 79.7218 104.392 79.2093 103.989C75.9049 101.389 72.5758 98.8179 69.2843 96.202C68.7639 95.7885 68.3938 95.2309 68.2519 94.6505L66.1279 85.9638C66.1151 85.9114 66.061 85.869 66.0071 85.869C65.9532 85.869 65.8992 85.8266 65.8863 85.7742L65.4492 83.9864C65.3764 83.6887 65.5659 83.4473 65.8724 83.4473C66.179 83.4473 66.4865 83.6887 66.5593 83.9864Z" fill="#BCC6F9" stroke="#BCC6F9" stroke-width="0.440086"/>
<g clip-path="url(#clip0_1789_49953)">
<path d="M0.947708 62.4078C0.768636 61.6386 0.933598 60.8295 1.39953 60.1918L3.36653 57.4995C3.51866 57.2913 3.76104 57.1682 4.01892 57.1682L36.9036 57.1682C37.2774 57.1682 37.6024 57.4247 37.6894 57.7882L52.2644 118.724C52.4533 119.514 52.2785 120.347 51.7882 120.994L50.2127 123.073C49.6997 123.751 48.8993 124.148 48.0498 124.148H33.0028H17.4748C16.2132 124.148 15.118 123.279 14.832 122.05L0.947708 62.4078Z" fill="url(#paint0_linear_1789_49953)" stroke="#0C2083" stroke-width="0.285633"/>
<path d="M2.48265 58.6816C2.32114 57.9829 2.85174 57.3157 3.56884 57.3157H35.6692C37.0663 57.3157 38.2787 58.2798 38.5934 59.641L52.4425 119.553C52.68 120.58 51.9 121.561 50.8458 121.561H19.4044C18.0073 121.561 16.7949 120.597 16.4802 119.236L2.48265 58.6816Z" fill="#E8EFFD" stroke="#3554EC" stroke-width="0.285633"/>
<path d="M27.7112 60.1257H27.7714L27.8135 60.0826L29.8023 58.0442H35.7403C37.137 58.0442 38.3492 59.0077 38.6642 60.3684L52.0107 118.007C52.2486 119.034 51.4686 120.016 50.4141 120.016H20.5842C19.1874 120.016 17.9753 119.052 17.6602 117.691L4.37319 60.3096C4.1049 59.151 4.98472 58.0442 6.17401 58.0442H11.8246C12.1402 58.0442 12.4469 58.1486 12.6969 58.3412L14.2677 59.5514C14.751 59.9238 15.3439 60.1257 15.954 60.1257H21.1492H27.7112Z" fill="url(#paint1_linear_1789_49953)" stroke="#0C2083" stroke-width="0.285633"/>
<path d="M8.97912 81.0825L5.55273 66.2852L39.3779 66.2852C39.7513 66.2852 40.074 66.5457 40.1528 66.9107L41.3389 72.4099L37.6728 75.8855C37.4659 76.0816 37.3803 76.3737 37.4486 76.6505L37.9675 78.7548C38.3903 80.4695 37.0924 82.1263 35.3264 82.1263C33.5006 82.1263 31.8578 81.1508 30.963 79.6385C30.8206 81.0013 29.6694 82.1263 28.1981 82.1263C26.3574 82.1263 24.6987 81.1555 23.7772 79.645C23.6646 80.9985 22.5309 82.1263 21.0765 82.1263C19.2567 82.1263 17.6196 81.1531 16.7292 79.6449C16.5839 81.0048 15.4339 82.1263 13.9649 82.1263C12.1238 82.1263 10.4648 81.1551 9.54341 79.6439C9.49928 80.1767 9.29695 80.6745 8.97912 81.0825Z" fill="url(#paint2_linear_1789_49953)"/>
<line x1="15.1846" y1="58.9373" x2="25.0322" y2="58.9373" stroke="#8896A2" stroke-width="0.285633"/>
<path d="M3.88987 58.5784C3.85343 58.4261 3.91385 58.267 4.04219 58.1773L6.35855 56.5579C8.91757 54.7689 12.4747 56.1198 13.2011 59.1565L14.975 66.572C15.0114 66.7243 14.951 66.8834 14.8227 66.9732L7.17667 72.3185L3.88987 58.5784Z" fill="url(#paint3_linear_1789_49953)" stroke="#037D48" stroke-width="0.285633"/>
<path d="M38.1546 58.2399L38.1545 58.2398L38.027 58.2703L38.1545 58.2398C38.1545 58.2398 38.1545 58.2399 38.1546 58.2399ZM41.5249 72.3293L38.1766 58.3321C41.7692 56.1512 46.4629 58.0967 47.4449 62.2017L48.7794 67.7802L41.5249 72.3293ZM48.8 67.8664C48.8 67.8664 48.8 67.8663 48.8 67.8662L48.8 67.8664ZM41.4801 72.3574C41.4801 72.3574 41.4802 72.3573 41.4803 72.3573L41.4801 72.3574Z" fill="url(#paint4_linear_1789_49953)" stroke="#037D48" stroke-width="0.285633"/>
<path d="M10.4158 56.9416L14.1155 56.9416L15.6807 56.9416C17.7698 56.9417 19.5933 58.3572 20.1113 60.381L22.2477 68.7283C22.5979 70.0963 21.5645 71.4274 20.1524 71.4274H19.5507C17.6531 71.4274 15.9968 70.1416 15.5263 68.3033L13.4804 60.3102C13.0721 58.7148 11.9001 57.4751 10.4158 56.9416Z" fill="#F9FAFA" stroke="#037D48" stroke-width="0.285633"/>
<path d="M23.9276 56.9407L27.6272 56.9407L29.1924 56.9407C31.2815 56.9407 33.105 58.3562 33.623 60.3801L35.7594 68.7273C36.1096 70.0953 35.0762 71.4265 33.6641 71.4265H33.0624C31.1649 71.4265 29.5085 70.1407 29.038 68.3024L26.9922 60.3092C26.5838 58.7138 25.4118 57.4742 23.9276 56.9407Z" fill="#F9FAFA" stroke="#037D48" stroke-width="0.285633"/>
<path d="M37.3797 56.9407L41.0794 56.9407L42.6446 56.9407C44.7336 56.9407 46.5571 58.3562 47.0751 60.3801L49.2116 68.7273C49.5617 70.0953 48.5284 71.4265 47.1163 71.4265H46.5146C44.617 71.4265 42.9606 70.1407 42.4901 68.3024L40.4443 60.3092C40.036 58.7138 38.864 57.4742 37.3797 56.9407Z" fill="#F9FAFA" stroke="#037D48" stroke-width="0.285633"/>
<path d="M17.1424 56.9416L21.9229 56.9416L22.5852 56.9416C24.6742 56.9417 26.4977 58.3572 27.0157 60.381L29.1522 68.7283C29.5023 70.0963 28.469 71.4274 27.0569 71.4274H26.2773C24.3797 71.4274 22.7233 70.1416 22.2528 68.3033L20.207 60.3102C19.7986 58.7148 18.6267 57.4751 17.1424 56.9416Z" fill="url(#paint5_linear_1789_49953)" stroke="#037D48" stroke-width="0.285633"/>
<path d="M30.6551 56.9416L35.4356 56.9416L36.0979 56.9416C38.1869 56.9417 40.0104 58.3572 40.5284 60.381L42.6649 68.7283C43.015 70.0963 41.9817 71.4274 40.5696 71.4274L39.7899 71.4274C37.8924 71.4274 36.236 70.1416 35.7655 68.3033L33.7197 60.3102C33.3113 58.7148 32.1394 57.4751 30.6551 56.9416Z" fill="url(#paint6_linear_1789_49953)" stroke="#037D48" stroke-width="0.285633"/>
<line x1="33.1474" y1="120.774" x2="41.5366" y2="120.774" stroke="#3554EC" stroke-width="0.197191" stroke-linecap="round"/>
</g>
<path d="M109.795 95.2054C109.677 94.6784 110.078 94.178 110.618 94.178H122.108C122.775 94.178 123.354 94.6384 123.505 95.2888L125.276 102.928C125.398 103.457 124.997 103.962 124.454 103.962L112.905 103.962C112.233 103.962 111.652 103.496 111.505 102.841L109.795 95.2054Z" fill="#798DF3" stroke="#3554EC" stroke-width="0.285633"/>
<path d="M110.125 94.9919C110.003 94.4636 110.404 93.9592 110.946 93.9592L122.208 93.9592C122.872 93.9592 123.449 94.4149 123.603 95.0608L125.375 102.485C125.502 103.015 125.1 103.524 124.555 103.524L113.234 103.524C112.566 103.524 111.986 103.063 111.836 102.412L110.125 94.9919Z" fill="#BCC6F9" stroke="#3554EC" stroke-width="0.285633"/>
<path fill-rule="evenodd" clip-rule="evenodd" d="M114.217 99.4817C113.986 98.4988 114.691 97.7764 115.675 97.7764H116.752L116.968 98.6939H115.891C115.332 98.6939 115.054 99.0889 115.146 99.4817C115.239 99.8733 115.701 100.267 116.262 100.267H117.711L117.927 101.184H116.478C115.496 101.184 114.449 100.466 114.217 99.4817Z" fill="white"/>
<path d="M117.356 95.7432C116.525 95.7432 115.771 96.2739 115.668 97.1309L115.689 97.1377L115.687 97.1296H116.718C116.882 96.8432 117.214 96.6607 117.572 96.6607C118.225 96.6607 118.876 97.1487 119.089 97.7779L119.191 98.0805L119.507 98.1701C119.982 98.3052 120.399 98.7127 120.513 99.1962C120.653 99.7886 120.279 100.27 119.679 100.27H118.457L118.673 101.188H119.895C121.008 101.188 121.701 100.295 121.442 99.1962C121.256 98.4032 120.627 97.7209 119.875 97.4003C119.421 96.4479 118.39 95.7432 117.356 95.7432Z" fill="white"/>
<path d="M21.6574 40.7669C21.5394 40.24 21.9402 39.7395 22.4802 39.7395H33.9698C34.6374 39.7395 35.2168 40.1999 35.3675 40.8503L37.1381 48.4899C37.2606 49.0184 36.8592 49.5234 36.3167 49.5234L24.7672 49.5234C24.0957 49.5234 23.514 49.0575 23.3672 48.4022L21.6574 40.7669Z" fill="#798DF3" stroke="#3554EC" stroke-width="0.285633"/>
<path d="M21.987 40.5534C21.8652 40.0251 22.2664 39.5207 22.8086 39.5207L34.07 39.5208C34.734 39.5208 35.3113 39.9765 35.4655 40.6224L37.2378 48.0469C37.3643 48.5768 36.9625 49.0858 36.4177 49.0858L25.0964 49.0857C24.4283 49.0857 23.8486 48.6245 23.6984 47.9735L21.987 40.5534Z" fill="#BCC6F9" stroke="#3554EC" stroke-width="0.285633"/>
<path fill-rule="evenodd" clip-rule="evenodd" d="M26.0786 45.0432C25.847 44.0603 26.5525 43.3379 27.5362 43.3379H28.6136L28.8298 44.2554H27.7524C27.1932 44.2554 26.9152 44.6504 27.0077 45.0432C27.1 45.4348 27.5624 45.8283 28.123 45.8283H29.5725L29.7887 46.7458H28.3392C27.357 46.7458 26.3105 46.0274 26.0786 45.0432Z" fill="white"/>
<path d="M29.2169 41.3047C28.3866 41.3047 27.6325 41.8354 27.5292 42.6924L27.5504 42.6992L27.5485 42.6911H28.5789C28.7429 42.4047 29.0749 42.2222 29.4331 42.2222C30.0866 42.2222 30.7375 42.7103 30.9502 43.3394L31.0524 43.642L31.3679 43.7316C31.8431 43.8667 32.2607 44.2742 32.3746 44.7578C32.5142 45.3501 32.1399 45.8319 31.54 45.8319H30.318L30.5342 46.7494H31.7562C32.8692 46.7494 33.5627 45.8569 33.3037 44.7578C33.1169 43.9648 32.4888 43.2825 31.7368 42.9618C31.2821 42.0095 30.2509 41.3047 29.2169 41.3047Z" fill="white"/>
<path d="M54.4934 60.0764C54.3754 59.5495 54.7762 59.0491 55.3161 59.0491H85.9381C86.6057 59.0491 87.1851 59.5095 87.3358 60.1599L92.3014 81.5855C92.4239 82.1141 92.0226 82.619 91.4801 82.619L60.6903 82.619C60.0187 82.619 59.437 82.1532 59.2903 81.4978L54.4934 60.0764Z" fill="#798DF3" stroke="#3554EC" stroke-width="0.285633"/>
<path d="M55.0212 59.5631C54.8993 59.0348 55.3006 58.5305 55.8428 58.5305H86.1639C86.828 58.5305 87.4052 58.9862 87.5594 59.6321L92.551 80.543C92.6775 81.0729 92.2757 81.5819 91.7309 81.5819L61.2411 81.5819C60.573 81.5819 59.9933 81.1206 59.8431 80.4696L55.0212 59.5631Z" fill="#BCC6F9" stroke="#3554EC" stroke-width="0.285633"/>
<g clip-path="url(#clip1_1789_49953)">
<path d="M93.3356 31.0048C93.1998 30.4214 93.3249 29.8077 93.6783 29.324L95.5167 26.8079C95.861 26.3365 96.4098 26.0579 96.9936 26.0579L127.629 26.0579C129.018 26.0579 130.225 27.0105 130.548 28.361L144.689 87.4814C144.898 88.3549 144.704 89.276 144.162 89.9919L142.755 91.8491C142.188 92.598 141.302 93.038 140.363 93.038H125.459H110.159C108.764 93.038 107.553 92.0763 107.236 90.7172L93.3356 31.0048Z" fill="url(#paint7_linear_1789_49953)" stroke="#0C2083" stroke-width="0.285633"/>
<path d="M95.0689 28.1311C94.8413 27.1465 95.589 26.2063 96.5995 26.2063H128.126C129.523 26.2063 130.736 27.1704 131.05 28.5317L144.595 87.1268C144.988 88.8274 143.697 90.4515 141.951 90.4515H111.861C110.464 90.4515 109.252 89.4874 108.937 88.1261L95.0689 28.1311Z" fill="#E8EFFD" stroke="#798DF3" stroke-width="0.285633"/>
<path d="M120.167 29.0144H120.227L120.27 28.9713L122.258 26.9329H128.196C129.593 26.9329 130.805 27.8964 131.12 29.2571L144.467 86.8957C144.705 87.923 143.925 88.9043 142.87 88.9043H113.04C111.643 88.9043 110.431 87.9408 110.116 86.58L96.8292 29.1983C96.561 28.0397 97.4408 26.9329 98.6301 26.9329H104.281C104.596 26.9329 104.903 27.0373 105.153 27.2299L106.724 28.4401C107.207 28.8125 107.8 29.0144 108.41 29.0144H113.605H120.167Z" fill="url(#paint8_linear_1789_49953)" stroke="#0C2083" stroke-width="0.285633"/>
<path d="M101.435 49.9721L98.0088 35.1748L131.834 35.1748C132.207 35.1748 132.53 35.4354 132.609 35.8003L133.795 41.2995L130.129 44.7752C129.922 44.9713 129.836 45.2634 129.905 45.5402L130.424 47.6445C130.846 49.3592 129.548 51.0159 127.782 51.0159C125.957 51.0159 124.314 50.0404 123.419 48.5282C123.277 49.8909 122.125 51.0159 120.654 51.0159C118.813 51.0159 117.155 50.0452 116.233 48.5346C116.121 49.8882 114.987 51.0159 113.533 51.0159C111.713 51.0159 110.076 50.0428 109.185 48.5345C109.04 49.8944 107.89 51.0159 106.421 51.0159C104.58 51.0159 102.921 50.0447 101.999 48.5335C101.955 49.0663 101.753 49.5642 101.435 49.9721Z" fill="url(#paint9_linear_1789_49953)"/>
<line x1="107.642" y1="27.8269" x2="117.489" y2="27.8269" stroke="#8896A2" stroke-width="0.285633"/>
<path d="M96.3459 27.4681C96.3095 27.3158 96.3699 27.1567 96.4982 27.067L98.8146 25.4476C101.374 23.6586 104.931 25.0094 105.657 28.0461L107.431 35.4617C107.467 35.614 107.407 35.7731 107.279 35.8628L99.6327 41.2082L96.3459 27.4681Z" fill="url(#paint10_linear_1789_49953)" stroke="#A54D12" stroke-width="0.285633"/>
<path d="M130.61 27.1296L130.61 27.1295L130.482 27.16L130.61 27.1295C130.61 27.1295 130.61 27.1295 130.61 27.1296ZM133.98 41.2189L130.632 27.2217C134.224 25.0408 138.918 26.9863 139.9 31.0914L141.234 36.6699L133.98 41.2189ZM141.255 36.7561C141.255 36.756 141.255 36.756 141.255 36.7559L141.255 36.7561ZM133.935 41.2471C133.935 41.247 133.935 41.247 133.935 41.2469L133.935 41.2471Z" fill="url(#paint11_linear_1789_49953)" stroke="#A54D12" stroke-width="0.285633"/>
<path d="M102.872 25.8303L106.572 25.8303L108.137 25.8303C110.226 25.8303 112.049 27.2459 112.567 29.2697L114.704 37.6169C115.054 38.9849 114.021 40.3161 112.608 40.3161H112.007C110.109 40.3161 108.453 39.0303 107.982 37.192L105.936 29.1989C105.528 27.6035 104.356 26.3638 102.872 25.8303Z" fill="url(#paint12_linear_1789_49953)" stroke="#A54D12" stroke-width="0.285633"/>
<path d="M116.383 25.8293L120.082 25.8293L121.648 25.8293C123.737 25.8293 125.56 27.2449 126.078 29.2687L128.215 37.616C128.565 38.984 127.531 40.3151 126.119 40.3151H125.517C123.62 40.3151 121.964 39.0293 121.493 37.191L119.447 29.1979C119.039 27.6025 117.867 26.3628 116.383 25.8293Z" fill="url(#paint13_linear_1789_49953)" stroke="#A54D12" stroke-width="0.285633"/>
<path d="M129.542 25.6946L133.304 25.6946L135.4 25.6946C137.452 25.6946 139.253 27.061 139.805 29.0369L142.129 37.3536C142.515 38.7325 141.478 40.0986 140.046 40.0986L138.844 40.0986C136.981 40.0986 135.345 38.8575 134.844 37.0626L132.579 28.96C132.146 27.4118 130.992 26.2158 129.542 25.6946Z" fill="url(#paint14_linear_1789_49953)" stroke="#A54D12" stroke-width="0.285633"/>
<path d="M129.542 25.6946L133.304 25.6946L135.4 25.6946C137.452 25.6946 139.253 27.061 139.805 29.0369L142.129 37.3536C142.515 38.7325 141.478 40.0986 140.046 40.0986L138.844 40.0986C136.981 40.0986 135.345 38.8575 134.844 37.0626L132.579 28.96C132.146 27.4118 130.992 26.2158 129.542 25.6946Z" fill="url(#paint15_linear_1789_49953)" stroke="#A54D12" stroke-width="0.285633"/>
<path d="M109.598 25.8303L114.379 25.8303L115.041 25.8303C117.13 25.8303 118.954 27.2459 119.472 29.2697L121.608 37.6169C121.958 38.9849 120.925 40.3161 119.513 40.3161H118.733C116.836 40.3161 115.179 39.0303 114.709 37.192L112.663 29.1989C112.255 27.6035 111.083 26.3638 109.598 25.8303Z" fill="#FFF6F0" stroke="#A54D12" stroke-width="0.285633"/>
<path d="M123.111 25.8303L127.892 25.8303L128.554 25.8303C130.643 25.8303 132.466 27.2459 132.984 29.2697L135.121 37.6169C135.471 38.9849 134.438 40.3161 133.026 40.3161L132.246 40.3161C130.348 40.3161 128.692 39.0303 128.222 37.192L126.176 29.1989C125.767 27.6035 124.595 26.3638 123.111 25.8303Z" fill="#FFF6F0" stroke="#A54D12" stroke-width="0.285633"/>
<path d="M125.953 89.4951H134.241" stroke="#3554EC" stroke-width="0.197191" stroke-linecap="round"/>
</g>
<path d="M82.0126 66.9751L82.0134 67.1337L82.1818 67.1435C84.5939 67.2838 86.9182 69.213 87.4538 71.5724C88.0005 73.9807 86.4806 75.9425 84.0461 76.0095C84.0191 76.0103 83.9939 76.0101 83.9659 76.0098C83.9504 76.0096 83.9341 76.0095 83.9161 76.0095H66.6385L66.6385 76.0094L66.6345 76.0095C66.6075 76.0103 66.5823 76.0101 66.5543 76.0098C66.5388 76.0096 66.5225 76.0095 66.5045 76.0095C63.9946 76.0095 61.5087 74.0231 60.9524 71.5724C60.4063 69.1672 61.922 67.2092 64.3512 67.1374L64.4503 67.1345L64.4608 67.042C64.6782 65.1209 66.2195 63.7358 68.406 63.7358C69.5508 63.7358 70.6905 64.1153 71.6735 64.7526L71.8721 64.8814L71.8825 64.6793C71.9883 62.6284 73.5674 61.1207 75.8485 61.1207C78.5803 61.1207 81.286 63.2827 81.8915 65.9501C81.9714 66.302 82.0108 66.6449 82.0126 66.9751Z" fill="url(#paint16_linear_1789_49953)" stroke="#536600" stroke-width="0.285633"/>
<path d="M82.8769 65.2466L82.8777 65.4052L83.0461 65.415C85.4582 65.5553 87.7824 67.4845 88.3181 69.8439C88.8648 72.2522 87.3448 74.2139 84.9103 74.281C84.8834 74.2818 84.8581 74.2815 84.8301 74.2813C84.8147 74.2811 84.7983 74.281 84.7804 74.281H67.5027L67.5027 74.2809L67.4988 74.281C67.4718 74.2818 67.4465 74.2815 67.4185 74.2813C67.4031 74.2811 67.3867 74.281 67.3688 74.281C64.8588 74.281 62.3729 72.2946 61.8166 69.8439C61.2706 67.4387 62.7863 65.4807 65.2154 65.4089L65.3146 65.4059L65.325 65.3135C65.5424 63.3924 67.0838 62.0073 69.2703 62.0073C70.415 62.0073 71.5548 62.3868 72.5378 63.0241L72.7363 63.1528L72.7467 62.9508C72.8525 60.8999 74.4316 59.3922 76.7127 59.3922C79.4445 59.3922 82.1503 61.5542 82.7558 64.2215C82.8357 64.5735 82.8751 64.9164 82.8769 65.2466Z" fill="#E3FF66" stroke="#536600" stroke-width="0.285633"/>
<path d="M50.3698 79.2657H50.9555C51.1921 79.2657 51.4295 79.452 51.4857 79.6819L51.8301 81.0902C51.8863 81.32 51.74 81.5063 51.5034 81.5063H50.9177C50.6811 81.5063 50.4437 81.32 50.3875 81.0901L50.0431 79.6819C49.9869 79.452 50.1332 79.2657 50.3698 79.2657Z" fill="#BCC6F9" stroke="#BCC6F9" stroke-width="0.285633"/>
<path d="M47.7771 79.2657H48.3627C48.5994 79.2657 48.8367 79.452 48.8929 79.6819L49.2373 81.0902C49.2935 81.32 49.1472 81.5063 48.9106 81.5063H48.3249C48.0883 81.5063 47.8509 81.32 47.7947 81.0901L47.4504 79.6819C47.3942 79.452 47.5404 79.2657 47.7771 79.2657Z" fill="#BCC6F9" stroke="#BCC6F9" stroke-width="0.285633"/>
<path d="M45.404 79.5466L45.8145 81.2254C45.8524 81.3806 45.7537 81.5063 45.5939 81.5063C45.4342 81.5063 45.2739 81.3805 45.236 81.2254L44.8255 79.5466C44.7876 79.3915 44.8863 79.2657 45.046 79.2657C45.2058 79.2657 45.366 79.3915 45.404 79.5466Z" fill="#BCC6F9" stroke="#BCC6F9" stroke-width="0.285633"/>
<path d="M56.6374 79.5466L57.0479 81.2254C57.0858 81.3806 56.9871 81.5063 56.8273 81.5063C56.6676 81.5063 56.5073 81.3805 56.4694 81.2254L56.0589 79.5466C56.021 79.3915 56.1197 79.2657 56.2794 79.2657C56.4392 79.2657 56.5994 79.3915 56.6374 79.5466Z" fill="#BCC6F9" stroke="#BCC6F9" stroke-width="0.285633"/>
<path d="M74.5147 85.7161C74.5276 85.7689 74.5822 85.8117 74.6365 85.8117C74.6909 85.8117 74.7454 85.8545 74.7583 85.9073L75.1638 87.5656C75.2778 88.0321 75.5785 88.4794 75.9993 88.8085L76.9031 89.5155C77.4327 89.9297 78.0692 90.1622 78.6736 90.1622H96.9925C97.3958 90.1622 97.645 89.8447 97.5492 89.4529H78.8034C78.2016 89.4529 77.5677 89.2223 77.0393 88.8111L76.5958 88.466C76.2214 88.1746 75.9536 87.7775 75.8523 87.3631L75.4949 85.9013C75.4828 85.8518 75.5143 85.8117 75.5652 85.8117C75.6162 85.8117 75.6477 85.7716 75.6356 85.7221L75.2123 83.9909C75.1389 83.6907 74.8288 83.4473 74.5197 83.4473C74.2105 83.4473 74.0195 83.6907 74.0929 83.9909L74.5147 85.7161Z" fill="#BCC6F9" stroke="#BCC6F9" stroke-width="0.440086"/>
<path d="M54.0446 79.5466L54.4551 81.2254C54.493 81.3806 54.3943 81.5063 54.2345 81.5063C54.0748 81.5063 53.9146 81.3805 53.8766 81.2254L53.4661 79.5466C53.4282 79.3915 53.5269 79.2657 53.6867 79.2657C53.8464 79.2657 54.0067 79.3915 54.0446 79.5466Z" fill="#BCC6F9" stroke="#BCC6F9" stroke-width="0.285633"/>
<path d="M84.7259 104.629C84.6129 104.124 84.9969 103.645 85.5142 103.645H92.223C92.8656 103.645 93.4232 104.088 93.5683 104.714C93.6859 105.221 93.3005 105.706 92.7797 105.706L86.0708 105.706C85.4257 105.706 84.8669 105.259 84.7259 104.629Z" fill="#798DF3" stroke="#3554EC" stroke-width="0.285633"/>
<path d="M85.0458 104.242C84.9318 103.748 85.3071 103.277 85.8142 103.277L92.5171 103.277C93.142 103.277 93.6852 103.705 93.8303 104.313C93.9489 104.81 93.5723 105.287 93.0616 105.287H86.3587C85.7312 105.287 85.1868 104.854 85.0458 104.242Z" fill="#BCC6F9" stroke="#3554EC" stroke-width="0.285633"/>
<path d="M87.1367 104.023C87.1182 104.023 87.102 104.012 87.0963 103.994L88.912 103.994C88.9306 103.994 88.9469 104.006 88.9529 104.023H87.1367Z" fill="#BCC6F9" stroke="#3554EC" stroke-width="0.285633"/>
<path d="M51.8909 28.7756C51.7779 28.2708 52.1619 27.7913 52.6792 27.7913H59.3881C60.0306 27.7913 60.5882 28.2344 60.7333 28.8604C60.8509 29.3678 60.4656 29.8526 59.9447 29.8526L53.2358 29.8526C52.5907 29.8526 52.0319 29.4051 51.8909 28.7756Z" fill="#798DF3" stroke="#3554EC" stroke-width="0.285633"/>
<path d="M52.2108 28.3889C52.0969 27.8948 52.4722 27.4231 52.9792 27.4231L59.6821 27.4231C60.307 27.4231 60.8502 27.8519 60.9953 28.4597C61.1139 28.9564 60.7373 29.4334 60.2267 29.4334H53.5238C52.8963 29.4334 52.3519 29.0003 52.2108 28.3889Z" fill="#BCC6F9" stroke="#3554EC" stroke-width="0.285633"/>
<path d="M54.3017 28.17C54.2832 28.17 54.2671 28.1581 54.2614 28.1409L56.0771 28.1409C56.0957 28.1409 56.112 28.1527 56.118 28.17H54.3017Z" fill="#BCC6F9" stroke="#3554EC" stroke-width="0.285633"/>
<path d="M86.4554 112.593C86.3424 112.088 86.7264 111.609 87.2437 111.609H93.9525C94.595 111.609 95.1527 112.052 95.2977 112.678C95.4153 113.185 95.03 113.67 94.5091 113.67L87.8003 113.67C87.1552 113.67 86.5964 113.223 86.4554 112.593Z" fill="#798DF3" stroke="#3554EC" stroke-width="0.285633"/>
<path d="M86.7753 112.206C86.6613 111.712 87.0366 111.24 87.5437 111.24L94.2466 111.24C94.8715 111.24 95.4147 111.669 95.5598 112.277C95.6784 112.774 95.3018 113.251 94.7911 113.251H88.0882C87.4607 113.251 86.9163 112.818 86.7753 112.206Z" fill="#BCC6F9" stroke="#3554EC" stroke-width="0.285633"/>
<path d="M88.8652 111.987C88.8467 111.987 88.8305 111.975 88.8248 111.958L90.6405 111.958C90.6591 111.958 90.6755 111.97 90.6815 111.987H88.8652Z" fill="#BCC6F9" stroke="#3554EC" stroke-width="0.285633"/>
<path d="M53.6195 36.7414C53.5064 36.2366 53.8904 35.7571 54.4078 35.7571H61.1166C61.7591 35.7571 62.3167 36.2002 62.4618 36.8262C62.5794 37.3336 62.1941 37.8185 61.6732 37.8185L54.9644 37.8185C54.3192 37.8185 53.7604 37.3709 53.6195 36.7414Z" fill="#798DF3" stroke="#3554EC" stroke-width="0.285633"/>
<path d="M53.9394 36.3547C53.8254 35.8606 54.2007 35.3889 54.7078 35.3889L61.4107 35.3889C62.0355 35.3889 62.5788 35.8177 62.7239 36.4255C62.8424 36.9222 62.4658 37.3993 61.9552 37.3993H55.2523C54.6248 37.3993 54.0804 36.9661 53.9394 36.3547Z" fill="#BCC6F9" stroke="#3554EC" stroke-width="0.285633"/>
<path d="M56.0302 36.1367C56.0117 36.1367 55.9956 36.1249 55.9899 36.1077L57.8056 36.1077C57.8242 36.1077 57.8405 36.1195 57.8465 36.1367H56.0302Z" fill="#BCC6F9" stroke="#3554EC" stroke-width="0.285633"/>
<defs>
<linearGradient id="paint0_linear_1789_49953" x1="35.74" y1="-13.8658" x2="-60.368" y2="47.0728" gradientUnits="userSpaceOnUse">
<stop stop-color="#0C2083"/>
<stop offset="1" stop-color="#BCC6F9"/>
</linearGradient>
<linearGradient id="paint1_linear_1789_49953" x1="28.1622" y1="57.9014" x2="28.1622" y2="120.158" gradientUnits="userSpaceOnUse">
<stop stop-color="#C4FFDC"/>
<stop offset="1" stop-color="white"/>
</linearGradient>
<linearGradient id="paint2_linear_1789_49953" x1="23.4111" y1="62.2783" x2="23.833" y2="96.8687" gradientUnits="userSpaceOnUse">
<stop stop-color="#09A854"/>
<stop offset="1" stop-color="#09A854" stop-opacity="0"/>
</linearGradient>
<linearGradient id="paint3_linear_1789_49953" x1="9.15213" y1="56.2297" x2="9.43243" y2="72.5558" gradientUnits="userSpaceOnUse">
<stop stop-color="#09A854"/>
<stop offset="1" stop-color="#3EE38C"/>
</linearGradient>
<linearGradient id="paint4_linear_1789_49953" x1="43.2122" y1="57.0157" x2="43.4801" y2="72.5559" gradientUnits="userSpaceOnUse">
<stop stop-color="#09A854"/>
<stop offset="1" stop-color="#3EE38C"/>
</linearGradient>
<linearGradient id="paint5_linear_1789_49953" x1="21.9808" y1="56.7988" x2="22.9781" y2="66.1675" gradientUnits="userSpaceOnUse">
<stop stop-color="#6DF2A0"/>
<stop offset="1" stop-color="#54C981"/>
</linearGradient>
<linearGradient id="paint6_linear_1789_49953" x1="35.4935" y1="56.7988" x2="36.4908" y2="66.1675" gradientUnits="userSpaceOnUse">
<stop stop-color="#6DF2A0"/>
<stop offset="1" stop-color="#54C981"/>
</linearGradient>
<linearGradient id="paint7_linear_1789_49953" x1="128.196" y1="-44.9762" x2="32.0881" y2="15.9624" gradientUnits="userSpaceOnUse">
<stop stop-color="#0C2083"/>
<stop offset="1" stop-color="#BCC6F9"/>
</linearGradient>
<linearGradient id="paint8_linear_1789_49953" x1="120.618" y1="26.79" x2="120.618" y2="89.0471" gradientUnits="userSpaceOnUse">
<stop stop-color="#FFEBDC"/>
<stop offset="1" stop-color="#FFFBF9"/>
</linearGradient>
<linearGradient id="paint9_linear_1789_49953" x1="115.902" y1="35.1748" x2="115.902" y2="51.0159" gradientUnits="userSpaceOnUse">
<stop stop-color="#E1721D"/>
<stop offset="1" stop-color="#FFB277"/>
</linearGradient>
<linearGradient id="paint10_linear_1789_49953" x1="101.888" y1="21.4844" x2="101.888" y2="41.4454" gradientUnits="userSpaceOnUse">
<stop stop-color="#E1721D"/>
<stop offset="1" stop-color="#FFB277"/>
</linearGradient>
<linearGradient id="paint11_linear_1789_49953" x1="135.933" y1="22.4453" x2="135.933" y2="41.4456" gradientUnits="userSpaceOnUse">
<stop stop-color="#E1721D"/>
<stop offset="1" stop-color="#FFB277"/>
</linearGradient>
<linearGradient id="paint12_linear_1789_49953" x1="107.621" y1="25.6875" x2="107.621" y2="40.4589" gradientUnits="userSpaceOnUse">
<stop stop-color="#FFD2B3"/>
<stop offset="1" stop-color="#FFB886"/>
</linearGradient>
<linearGradient id="paint13_linear_1789_49953" x1="121.132" y1="25.6865" x2="121.132" y2="40.458" gradientUnits="userSpaceOnUse">
<stop stop-color="#FFD2B3"/>
<stop offset="1" stop-color="#FFB886"/>
</linearGradient>
<linearGradient id="paint14_linear_1789_49953" x1="134.444" y1="25.5518" x2="134.444" y2="40.2414" gradientUnits="userSpaceOnUse">
<stop stop-color="#E1721D"/>
<stop offset="1" stop-color="#FFB277"/>
</linearGradient>
<linearGradient id="paint15_linear_1789_49953" x1="134.444" y1="25.5518" x2="134.444" y2="40.2414" gradientUnits="userSpaceOnUse">
<stop stop-color="#FFD2B3"/>
<stop offset="1" stop-color="#FFB886"/>
</linearGradient>
<linearGradient id="paint16_linear_1789_49953" x1="64.0219" y1="72.2147" x2="76.386" y2="76.7497" gradientUnits="userSpaceOnUse">
<stop stop-color="#536600"/>
<stop offset="1" stop-color="#A6CC00"/>
</linearGradient>
<clipPath id="clip0_1789_49953">
<rect width="57.0305" height="67.7871" fill="white" transform="translate(0.510742 56.6611)"/>
</clipPath>
<clipPath id="clip1_1789_49953">
<rect width="57.0305" height="67.7871" fill="white" transform="translate(92.9688 25.5518)"/>
</clipPath>
</defs>
</svg>
