<svg width="213" height="99" viewBox="0 0 213 99" fill="none" xmlns="http://www.w3.org/2000/svg">
<path opacity="0.7" d="M66.586 39.4155C63.6711 37.7624 44.6937 42.3664 43.2333 41.9171C41.9559 41.2279 41.7806 27.1452 42.553 24.8875C42.7705 24.1044 43.2851 23.9274 44.2797 24.1163C45.9516 24.5371 66.1149 20.7424 66.1149 20.7424C66.4893 21.1227 67.03 19.5423 67.207 20.0568C67.9069 21.2546 100.507 15.4605 103.363 15.0756C105.055 14.8475 103.794 15.8789 105.761 15.2908C109.905 14.086 119.312 13.5719 122.491 12.3896C124.944 11.4129 125.578 11.3274 128.082 11.5283C130.691 11.715 144.157 9.36148 145.51 8.21006C145.89 7.83576 146.116 7.91301 146.159 8.23029C146.173 8.33605 155.734 7.37033 155.763 7.58184C155.911 7.88487 156.137 7.96212 156.426 7.70783C156.912 7.31927 166.816 4.9074 167.156 5.83072C168.027 8.29768 168.24 19.4678 167.448 22.3743C166.669 25.3867 159.564 23.0062 154.505 25.4111L129.743 28.6412L124.597 30.4116C123.834 29.5453 121.821 32.1856 120.218 30.6788C119.498 30.1297 115.239 30.4884 114.493 31.3428C113.718 31.9856 92.035 33.2931 90.0564 35.3904C85.9437 34.4372 70.2448 38.5992 66.586 39.4155Z" fill="#FEEF38" fill-opacity="0.6"/>
<path opacity="0.7" d="M133.193 15.9004C137.094 16.8821 160.952 7.74379 162.899 7.80447C164.556 8.11944 166.361 22.3055 165.602 24.669C165.399 25.5579 164.779 25.7492 163.496 25.8145C161.338 25.7823 135.899 34.3799 135.899 34.3799C135.419 34.0139 134.801 35.8201 134.518 35.3198C133.515 34.2705 92.2807 47.9047 88.6646 49.0382C86.4864 49.6548 87.9303 48.3834 85.4918 49.4659C80.2976 51.6735 68.2921 54.4763 64.3528 56.4071C61.231 58.0124 60.505 58.2179 57.2121 58.5541C53.8278 59.0103 36.9251 64.6267 35.1925 66.1525C34.8123 66.5268 34.3892 66.5838 34.3464 66.2665C34.3322 66.1607 22.1721 69.415 22.0379 69.2178C21.8893 68.9148 21.452 68.866 21.1775 69.2261C20.6915 69.6146 8.09644 74.4351 7.66512 73.6318C6.27964 71.3419 4.88857 60.2228 5.56127 57.2247C6.20545 54.0152 15.5574 54.6929 21.8639 51.1508L53.2391 41.8606L59.6169 38.8473C60.6827 39.5651 62.9561 36.459 65.2566 37.5487C66.174 37.9635 71.5737 36.4819 72.5172 35.4932C73.3693 34.6246 101.145 28.1886 103.475 25.5055C108.877 25.6388 128.576 17.5995 133.193 15.9004Z" fill="#FEEF38" fill-opacity="0.6"/>
<path opacity="0.7" d="M47.3685 68.6032C42.7472 67.0725 14.4142 73.3682 12.545 73.0818C10.7531 72.5695 11.078 58.2041 12.3936 55.9809C12.8226 55.1693 13.4286 54.8722 15.0721 55.0814C16.3839 55.2276 31.0133 52.7173 32.3882 52.532C40.3974 51.237 47.9836 49.9991 47.9836 49.9991C48.4636 50.3651 49.4417 48.8335 49.8302 49.3195C50.0845 49.6083 53.2716 49.2863 58.1508 48.7363C58.1508 48.7363 86.8545 45.1904 104.813 43.4157C107.366 43.1794 105.456 44.1905 108.495 43.5656C114.903 42.3787 129.198 42.1749 134.125 41.1876C137.996 40.3429 138.856 40.3346 142.778 40.6675C145.93 40.8886 167.19 39.6382 169.643 38.6615C170.249 38.3644 170.686 38.4132 170.623 38.7447C170.623 38.7447 179.467 38.8449 182.922 38.9175C184.326 38.9437 185.2 39.0412 185.2 39.0412C185.349 39.3442 185.8 39.4987 186.195 39.2301C186.892 38.8131 202.462 37.6836 202.696 38.6212C203.475 41.2082 201.305 52.2688 199.623 54.9722C197.85 57.7955 188.05 54.5938 179.795 56.4603C172.715 56.6609 167.13 56.7676 161.122 56.9314C139.791 57.653 142.703 57.6912 134.602 59.1061C133.614 58.1626 130.289 60.6567 128.051 59.2354C127.105 58.6091 120.794 58.9214 119.385 59.6498C118.885 59.9326 102.321 60.8731 101.686 60.9586C99.2396 61.1807 84.5164 62.1961 82.558 63.6446C76.0758 62.6878 53.7771 67.4164 47.3685 68.6032Z" fill="#FEEF38" fill-opacity="0.6"/>
<path opacity="0.7" d="M165.455 39.5488C168.807 41.2506 195.793 39.3361 198.622 40.3546C200.245 41.2126 197.071 55.2084 195.621 57.2344C195.072 57.9545 194.437 58.04 193.203 57.668C191.171 56.9728 174.416 57.293 163.331 58.141C162.957 57.7607 161.859 59.2009 161.682 58.6864C161.533 58.3833 158.621 58.3452 154.227 58.5066C144.066 59.0148 140.893 59.4425 133.793 60.2919C130.832 60.691 124.063 61.6034 121.631 61.9313C116.886 62.6785 113.41 63.2547 112.458 63.383C110.146 63.8024 111.83 62.714 109.228 63.3876C103.617 64.8978 90.9118 66.5027 86.7182 68.1447C83.3564 69.567 82.6018 69.561 79.189 69.8057C77.0595 69.985 69.6789 71.949 66.9862 72.7427C64.9137 73.3451 57.5758 75.6264 56.1178 76.792C55.7375 77.1663 55.3144 77.2234 55.1659 76.9203C54.7714 77.1889 42.477 80.2459 42.477 80.2459C42.3285 79.9429 41.9055 79.9999 41.6167 80.2542C41.0249 80.657 28.3181 86.2463 27.7811 85.4572C26.2898 83.1816 24.2784 72.2538 24.9369 69.15C25.2519 67.4923 27.9446 66.6986 31.2719 65.8194C44.1723 62.4653 33.8933 64.4969 52.8625 59.0327C70.591 53.951 69.733 55.5742 83.2799 50.6254C84.3458 51.3432 87.0707 48.3915 89.3997 49.6928C90.3313 50.2133 96.2254 49.2035 97.3947 48.2921C97.775 47.9178 107.399 46.6206 107.928 46.5493C109.832 46.2927 111.841 46.0218 113.85 45.751C121.677 44.6961 130.166 43.7671 131.85 42.6787C136.491 43.5606 155.365 40.5858 165.455 39.5488Z" fill="#FEEF38" fill-opacity="0.6"/>
<path opacity="0.7" d="M75.136 86.0734C73.5556 85.5327 68.2759 87.1058 63.2362 88.8619C60.6635 89.7471 58.2108 90.7238 56.3641 91.4034C54.4117 92.0973 53.0796 92.5999 52.6423 92.5512C51.3019 92.1935 48.3483 78.27 48.6835 75.9635C48.7952 75.1946 49.1897 74.9261 50.2616 74.8893C51.242 74.9725 60.6867 71.5458 61.6243 71.3118C66.7698 69.5414 71.8094 67.7853 71.8094 67.7853C72.1837 68.1655 72.6045 66.4936 72.8873 66.9939C73.3958 67.5714 84.3783 64.3682 90.2926 62.7095C95.798 61.2137 103.376 59.1154 109.319 57.6683C110.982 57.2287 109.842 58.3516 111.794 57.6577C116.002 56.1214 125.654 55.0356 128.819 53.7476C131.363 52.6509 131.892 52.5797 134.593 52.6463C136.751 52.6785 151.049 50.1052 152.507 48.9395C152.901 48.6709 153.113 48.6424 153.156 48.9597C153.473 48.9169 162.943 48.0712 163.091 48.3743C163.24 48.6773 163.465 48.7545 163.754 48.5003C164.24 48.1117 174.505 45.9743 174.845 46.8977C175.624 49.4846 175.295 60.6202 174.488 63.4211C174.038 64.8815 172.12 65.0323 169.525 64.9514C167.05 64.962 164.032 64.9381 161.487 66.0348C134.49 69.4585 136.359 69.7449 131.849 71.4298C131.086 70.5635 129.193 73.2953 127.498 71.9085C126.778 71.3595 122.562 72.0354 121.816 72.8898C121.618 73.0241 120.152 73.3294 118.051 73.7203C115.844 74.1254 99.4313 76.9838 97.8757 79.0241C93.2912 78.5652 79.4353 84.4171 75.136 86.0734Z" fill="#FEEF38" fill-opacity="0.6"/>
<path opacity="0.7" d="M181.691 17.0085C184.289 18.7043 203.317 15.278 205.124 15.896C206.295 16.5995 205.413 30.8247 204.506 32.8852C204.183 33.6825 203.76 33.7395 202.751 33.4448C201.396 32.9813 189.614 34.2464 181.499 35.5556C181.231 35.1611 180.57 36.65 180.393 36.1354C179.516 34.4231 147.396 40.5832 145.507 40.9455C143.829 41.2794 144.984 40.2622 143.123 40.8361C139.112 42.2382 130.066 43.0268 127.141 44.4979C124.808 45.566 124.28 45.6373 121.804 45.6479C118.906 45.7155 106.549 49.1041 105.331 50.4528C105.056 50.8128 104.725 50.7498 104.682 50.4326C104.682 50.4326 104.576 50.4468 104.259 50.4896C104.153 50.5038 95.5663 52.3074 95.4321 52.1101C95.2835 51.8071 94.952 51.7441 94.769 51.9841C94.3887 52.3584 85.1982 56.0739 84.7669 55.2706C83.5787 52.8464 81.673 41.9044 82.0427 39.0548C82.2662 37.5172 84.1414 37.0491 86.5738 36.7212C88.992 36.2875 92.0733 35.9799 94.4548 34.4744C125.198 26.8847 114.407 30.7082 123.674 26.767C124.423 27.5275 126.316 24.7957 128.01 26.1825C128.731 26.7315 132.947 26.0556 133.693 25.2012C134.179 24.8126 144.967 23.3586 145.495 23.2873C147.505 23.0164 151.615 22.3547 153.61 21.9781C155.923 21.5587 157.678 20.9991 158.15 20.5048C161.402 21.4662 172.667 18.7633 181.691 17.0085Z" fill="#FEEF38" fill-opacity="0.6"/>
</svg>
