<svg width="83" height="99" viewBox="0 0 83 99" fill="none" xmlns="http://www.w3.org/2000/svg">
<g id="Group 2160">
<g id="ClodeoWebMobile">
<path id="Rectangle 1654" d="M58.4134 95.5693L81.2256 11.9274C81.4375 11.1504 81.3054 10.3337 80.8634 9.68817L78.4254 6.12741C77.9919 5.4942 77.2718 5.11942 76.4889 5.11942L33.843 5.11942C31.9647 5.11942 30.2789 6.40844 29.7693 8.23437L6.65265 91.0633C6.32539 92.2359 6.53253 93.4715 7.21779 94.4346L9.10867 97.0922C9.83251 98.1095 11.0078 98.708 12.2819 98.708H33.023H54.3332C56.2207 98.708 57.9123 97.4067 58.4134 95.5693Z" fill="url(#paint0_linear_5_4737)" stroke="#1230C6" stroke-width="0.530301"/>
<path id="Rectangle 1653" d="M75.3564 5.11551H33.1456C31.2559 5.11551 29.5627 6.41996 29.0638 8.26027L6.3043 92.2086C5.934 93.5745 6.91861 94.8773 8.32118 94.8773H52.1193C54.0091 94.8773 55.7023 93.5728 56.2012 91.7325L78.5416 9.32999C79.1264 7.17295 77.5714 5.11551 75.3564 5.11551Z" fill="#E8EFFD" stroke="#3554EC" stroke-width="0.530301"/>
<path id="Rectangle 1681" d="M44.083 9.25648H43.9707L43.8959 9.17589L41.2673 6.34403H33.0029C31.1137 6.34403 29.4209 7.64771 28.9214 9.48731L6.99252 90.2549C6.62163 91.621 7.60628 92.9243 9.00918 92.9243H50.5667C52.4559 92.9243 54.1487 91.6207 54.6482 89.7811L76.4814 9.36567C76.9012 7.81937 75.7867 6.34403 74.1987 6.34403H66.2894C65.8689 6.34403 65.4544 6.48384 65.1115 6.74145L62.8425 8.44579C62.143 8.97127 61.2977 9.25648 60.4397 9.25648H53.2076H44.083Z" fill="url(#paint1_linear_5_4737)" stroke="#1230C6" stroke-width="0.530301"/>
<path id="Union" d="M68.9203 38.5169L74.5417 17.8125L27.5071 17.8125C26.9879 17.8125 26.5241 18.1771 26.3935 18.6877L24.4257 26.3822L29.3221 31.2453C29.5984 31.5198 29.7006 31.9285 29.5897 32.3157L28.7463 35.2601C28.059 37.6593 29.7678 39.9774 32.2235 39.9774C34.7623 39.9774 37.1031 38.6125 38.4349 36.4965C38.554 38.4033 40.0897 39.9774 42.1356 39.9774C44.6951 39.9774 47.0577 38.6191 48.4265 36.5056C48.5048 38.3995 50.0158 39.9774 52.0383 39.9774C54.5686 39.9774 56.9015 38.6158 58.227 36.5054C58.3503 38.4082 59.8844 39.9774 61.9271 39.9774C64.4872 39.9774 66.8503 38.6185 68.219 36.5041C68.2495 37.2496 68.502 37.9462 68.9203 38.5169Z" fill="url(#paint2_linear_5_4737)"/>
<line id="Line 326" y1="-0.26515" x2="13.6933" y2="-0.26515" transform="matrix(-1 0 -0.0413525 0.999145 61.563 7.72949)" stroke="#8896A2" stroke-width="0.530301"/>
<g id="Group 1103">
<path id="Rectangle 1684" d="M76.5445 8.4819L73.3425 6.16184C69.9656 3.71507 65.038 5.55115 63.8838 9.68622L60.9504 20.1956C60.9 20.3765 60.9637 20.5652 61.1114 20.6722L71.3627 28.1L76.7054 8.95845C76.7559 8.77763 76.6922 8.58889 76.5445 8.4819Z" fill="url(#paint3_linear_5_4737)" stroke="#A31920" stroke-width="0.530301"/>
<path id="Rectangle 1688" d="M16.6037 12.0561L14.4218 19.8731L24.1301 26.1632L29.5587 6.71388C24.7408 3.7317 18.1793 6.41112 16.6037 12.0561Z" fill="url(#paint4_linear_5_4737)" stroke="#A31920" stroke-width="0.530301"/>
<path id="Rectangle 1684_2" d="M67.926 4.80204L63.1723 4.80204L60.9437 4.80204C58.1012 4.80204 55.5413 6.72909 54.7272 9.48168L51.2243 21.326C50.6821 23.1591 51.9948 24.9404 53.8878 24.9404L54.8286 24.9404C57.4077 24.9404 59.7303 23.192 60.4689 20.6945L63.8237 9.35116C64.4429 7.25768 65.9925 5.60419 67.926 4.80204Z" fill="url(#paint5_linear_5_4737)" stroke="#A31920" stroke-width="0.530301"/>
<path id="Rectangle 1689" d="M49.137 4.80204L44.3832 4.80204L42.1547 4.80204C39.3122 4.80204 36.7522 6.72909 35.9382 9.48168L32.4352 21.326C31.8931 23.1591 33.2058 24.9404 35.0988 24.9404H36.0396C38.6186 24.9404 40.9413 23.192 41.6799 20.6945L45.0347 9.35116C45.6538 7.25768 47.2034 5.60419 49.137 4.80204Z" fill="url(#paint6_linear_5_4737)" stroke="#A31920" stroke-width="0.530301"/>
<path id="Rectangle 1691" d="M30.85 4.61161L26.0077 4.61161L23.0422 4.61161C20.2501 4.61161 17.7238 6.47216 16.8659 9.16026L13.1002 20.96C12.5105 22.8077 13.8257 24.6356 15.7449 24.6356H17.5205C20.0538 24.6356 22.3459 22.9475 23.1243 20.5085L26.7912 9.01857C27.4388 6.98929 28.9625 5.39454 30.85 4.61161Z" fill="url(#paint7_linear_5_4737)" stroke="#A31920" stroke-width="0.530301"/>
<path id="Rectangle 1692" d="M30.85 4.61161L26.0077 4.61161L23.0422 4.61161C20.2501 4.61161 17.7238 6.47216 16.8659 9.16026L13.1002 20.96C12.5105 22.8077 13.8257 24.6356 15.7449 24.6356H17.5205C20.0538 24.6356 22.3459 22.9475 23.1243 20.5085L26.7912 9.01857C27.4388 6.98929 28.9625 5.39454 30.85 4.61161Z" fill="url(#paint8_linear_5_4737)" stroke="#A31920" stroke-width="0.530301"/>
<path id="Rectangle 1685" d="M58.5719 4.80204L52.3153 4.80204L51.3422 4.80204C48.4997 4.80204 45.9398 6.72909 45.1257 9.48168L41.6228 21.326C41.0806 23.1591 42.3933 24.9404 44.2864 24.9404H45.4745C48.0536 24.9404 50.3762 23.192 51.1149 20.6945L54.4696 9.35116C55.0888 7.25768 56.6384 5.60418 58.5719 4.80204Z" fill="#FFF6F0" stroke="#A31920" stroke-width="0.530301"/>
<path id="Rectangle 1690" d="M39.7829 4.80204L33.5262 4.80204L32.5532 4.80204C29.7107 4.80204 27.1508 6.72909 26.3367 9.48168L22.8338 21.326C22.2916 23.1591 23.6043 24.9404 25.4973 24.9404H26.6855C29.2645 24.9404 31.5872 23.192 32.3258 20.6945L35.6806 9.35116C36.2997 7.25768 37.8493 5.60418 39.7829 4.80204Z" fill="#FFF6F0" stroke="#A31920" stroke-width="0.530301"/>
</g>
<path id="Rectangle 1685_2" d="M62.6274 46.924C63.3331 44.3159 61.4527 41.8291 58.7748 41.8291L25.2999 41.8291C23.3679 41.8291 21.6342 43.1554 21.1109 45.0336L10.8969 81.6939C10.4109 83.438 11.6656 85.1111 13.4596 85.111L48.9721 85.111C50.9159 85.111 52.6572 83.7688 53.1695 81.8757L62.6274 46.924Z" fill="url(#paint9_linear_5_4737)"/>
</g>
<path id="Line 418" d="M35.2897 93.8164H23.7649" stroke="#3554EC" stroke-width="0.530301" stroke-linecap="round"/>
<g id="Group 1186">
<path id="Rectangle 1682" d="M8.84632 77.4057L41.3474 77.4057C44.1347 77.4057 46.6411 75.492 47.3958 72.7827L56.5677 39.8574C56.8081 38.9941 56.6397 38.0847 56.1113 37.3938L50.7624 30.3997C50.6693 30.278 50.518 30.2152 50.3619 30.2335L22.5019 33.5002C19.0177 33.9087 15.988 36.2525 14.6912 39.5424L2.62576 70.1544C2.57004 70.2957 2.58666 70.4525 2.67017 70.5735L6.57289 76.2285C7.0834 76.9682 7.92899 77.4057 8.84632 77.4057Z" fill="#1F212A" stroke="#040506" stroke-width="0.530301"/>
<path id="Rectangle 1685_3" d="M5.07152 72.3697L37.9712 72.3697C40.7752 72.3697 43.2872 70.4334 44.0262 67.7025L53.2498 33.6166C53.7364 31.8184 52.4399 30.1038 50.5935 30.1038H17.9671C15.1802 30.1038 12.6792 32.017 11.9243 34.7265L2.42104 68.8356C1.91847 70.6394 3.21613 72.3697 5.07152 72.3697Z" fill="url(#paint10_linear_5_4737)" stroke="#040506" stroke-width="0.530301"/>
</g>
<g id="Tiktok">
<g id="Union_2">
<mask id="path-18-inside-1_5_4737" fill="white">
<path fill-rule="evenodd" clip-rule="evenodd" d="M41.2756 44.3775C37.7162 44.3775 35.4926 41.569 36.309 38.1045L36.4283 37.5986H31.879L31.8143 37.873L29.166 49.1111C29.1659 49.111 29.1658 49.111 29.1657 49.1109L27.8886 54.5301C27.8887 54.5304 27.8888 54.5307 27.8888 54.531L27.219 57.3736C27.2188 57.3739 27.2186 57.3742 27.2184 57.3745L27.1841 57.5197H27.1198C26.1999 58.8259 24.6323 59.7337 23.0607 59.7337C20.9147 59.7337 19.5739 58.0407 20.066 55.9523C20.5581 53.8639 22.6969 52.1709 24.843 52.1709C25.0034 52.1709 25.1594 52.1804 25.3104 52.1988L26.2268 48.31C26.0725 48.3013 25.916 48.2969 25.7574 48.2969H25.28C20.7794 48.2969 16.2941 51.848 15.2618 56.2286C14.2295 60.6092 17.0411 64.1604 21.5417 64.1604H22.0191C26.5197 64.1604 31.005 60.6092 32.0373 56.2286C32.0444 56.1982 32.0514 56.1679 32.0582 56.1376L32.0597 56.1368L34.3204 46.5435C35.8302 47.8209 37.8793 48.574 40.2867 48.574L41.2756 44.3775Z"/>
</mask>
<path fill-rule="evenodd" clip-rule="evenodd" d="M41.2756 44.3775C37.7162 44.3775 35.4926 41.569 36.309 38.1045L36.4283 37.5986H31.879L31.8143 37.873L29.166 49.1111C29.1659 49.111 29.1658 49.111 29.1657 49.1109L27.8886 54.5301C27.8887 54.5304 27.8888 54.5307 27.8888 54.531L27.219 57.3736C27.2188 57.3739 27.2186 57.3742 27.2184 57.3745L27.1841 57.5197H27.1198C26.1999 58.8259 24.6323 59.7337 23.0607 59.7337C20.9147 59.7337 19.5739 58.0407 20.066 55.9523C20.5581 53.8639 22.6969 52.1709 24.843 52.1709C25.0034 52.1709 25.1594 52.1804 25.3104 52.1988L26.2268 48.31C26.0725 48.3013 25.916 48.2969 25.7574 48.2969H25.28C20.7794 48.2969 16.2941 51.848 15.2618 56.2286C14.2295 60.6092 17.0411 64.1604 21.5417 64.1604H22.0191C26.5197 64.1604 31.005 60.6092 32.0373 56.2286C32.0444 56.1982 32.0514 56.1679 32.0582 56.1376L32.0597 56.1368L34.3204 46.5435C35.8302 47.8209 37.8793 48.574 40.2867 48.574L41.2756 44.3775Z" fill="#FF004F"/>
<path d="M41.2756 44.3775L41.7756 44.3775L41.8903 43.8909H41.3903L41.2756 44.3775ZM36.4283 37.5986H36.9283L37.0429 37.112H36.5429L36.4283 37.5986ZM31.879 37.5986L31.9937 37.112H31.4937L31.379 37.5986H31.879ZM29.166 49.1111L28.8435 49.5484L29.4823 49.8906L29.666 49.1111H29.166ZM29.1657 49.1109L29.4883 48.6737L28.8494 48.3314L28.6657 49.1109L29.1657 49.1109ZM27.8886 54.5301L27.3886 54.5301L27.3661 54.6256L27.3824 54.714L27.8886 54.5301ZM27.8888 54.531L28.3888 54.531L28.4113 54.4356L28.3951 54.3472L27.8888 54.531ZM27.219 57.3736L27.6386 57.5574L27.6965 57.469L27.719 57.3736L27.219 57.3736ZM27.2184 57.3745L26.7987 57.1907L26.7409 57.279L26.7184 57.3745H27.2184ZM27.1841 57.5197L27.0695 58.0064H27.5695L27.6841 57.5197H27.1841ZM27.1198 57.5197L27.2345 57.0331H26.913L26.7125 57.3177L27.1198 57.5197ZM25.3104 52.1988L25.1362 52.6819L25.6809 52.7482L25.8104 52.1988H25.3104ZM26.2268 48.31H26.7268L26.8351 47.8503L26.3698 47.8241L26.2268 48.31ZM32.0582 56.1376L31.8978 55.721L31.6193 55.8649L31.5569 56.1431L32.0582 56.1376ZM32.0597 56.1368L32.22 56.5534L32.495 56.4114L32.5597 56.1368H32.0597ZM34.3204 46.5435L34.7067 46.1494L34.0451 45.5897L33.8204 46.5435H34.3204ZM40.2867 48.574L40.172 49.0606H40.672L40.7867 48.574L40.2867 48.574ZM35.809 38.1045C34.9293 41.8378 37.3254 44.8642 41.1609 44.8642L41.3903 43.8909C38.1071 43.8909 36.056 41.3002 36.809 38.1045H35.809ZM35.9283 37.5986L35.809 38.1045H36.809L36.9283 37.5986H35.9283ZM31.7643 38.0853H36.3136L36.5429 37.112H31.9937L31.7643 38.0853ZM32.3143 37.873L32.379 37.5986H31.379L31.3143 37.873H32.3143ZM29.666 49.1111L32.3143 37.873H31.3143L28.666 49.1111H29.666ZM28.8431 49.5482L28.8435 49.5484L29.4886 48.6739L29.4883 48.6737L28.8431 49.5482ZM28.3886 54.5301L29.6657 49.1109L28.6657 49.1109L27.3886 54.5301L28.3886 54.5301ZM28.3951 54.3472C28.3952 54.3477 28.3952 54.3481 28.3952 54.3478C28.3952 54.3478 28.3951 54.3471 28.3949 54.3463L27.3824 54.714C27.3823 54.7135 27.3822 54.7131 27.3823 54.7134C27.3823 54.7134 27.3824 54.7141 27.3825 54.7149L28.3951 54.3472ZM27.719 57.3736L28.3888 54.531L27.3888 54.531L26.719 57.3736L27.719 57.3736ZM27.638 57.5583C27.6385 57.5576 27.639 57.5569 27.639 57.5568C27.6391 57.5566 27.6389 57.557 27.6386 57.5574L26.7993 57.1898C26.7988 57.1905 26.7984 57.1912 26.7983 57.1913C26.7982 57.1915 26.7984 57.1911 26.7987 57.1907L27.638 57.5583ZM27.6841 57.5197L27.7184 57.3745H26.7184L26.6841 57.5197H27.6841ZM27.0051 58.0064H27.0695L27.2988 57.0331H27.2345L27.0051 58.0064ZM22.9461 60.2204C24.7205 60.2204 26.4895 59.1949 27.5271 57.7217L26.7125 57.3177C25.9102 58.4569 24.5441 59.2471 23.1754 59.2471L22.9461 60.2204ZM19.566 55.9523C19.0105 58.3096 20.5239 60.2204 22.9461 60.2204L23.1754 59.2471C21.3054 59.2471 20.1372 57.7719 20.566 55.9523H19.566ZM24.9576 51.6842C22.5355 51.6842 20.1215 53.595 19.566 55.9523H20.566C20.9948 54.1328 22.8582 52.6576 24.7283 52.6576L24.9576 51.6842ZM25.4846 51.7156C25.3142 51.6949 25.1383 51.6842 24.9576 51.6842L24.7283 52.6576C24.8685 52.6576 25.0046 52.6658 25.1362 52.6819L25.4846 51.7156ZM25.7268 48.31L24.8104 52.1988H25.8104L26.7268 48.31H25.7268ZM25.6427 48.7835C25.7918 48.7835 25.9388 48.7877 26.0838 48.7959L26.3698 47.8241C26.2062 47.8149 26.0402 47.8102 25.8721 47.8102L25.6427 48.7835ZM25.1653 48.7835H25.6427L25.8721 47.8102H25.3946L25.1653 48.7835ZM15.7618 56.2286C16.7308 52.1168 20.9408 48.7835 25.1653 48.7835L25.3946 47.8102C20.6179 47.8102 15.8574 51.5793 14.7618 56.2286H15.7618ZM21.6563 63.6737C17.4319 63.6737 14.7928 60.3404 15.7618 56.2286H14.7618C13.6662 60.878 16.6503 64.6471 21.427 64.6471L21.6563 63.6737ZM22.1338 63.6737H21.6563L21.427 64.6471H21.9044L22.1338 63.6737ZM31.5373 56.2286C30.5683 60.3404 26.3582 63.6737 22.1338 63.6737L21.9044 64.6471C26.6811 64.6471 31.4416 60.878 32.5373 56.2286H31.5373ZM31.5569 56.1431C31.5506 56.1716 31.544 56.2001 31.5373 56.2286H32.5373C32.5449 56.1964 32.5523 56.1642 32.5595 56.1321L31.5569 56.1431ZM31.8993 55.7203L31.8978 55.721L32.2186 56.5542L32.22 56.5534L31.8993 55.7203ZM33.8204 46.5435L31.5597 56.1368H32.5597L34.8204 46.5435H33.8204ZM40.4014 48.0873C38.1029 48.0873 36.1477 47.3686 34.7067 46.1494L33.9341 46.9375C35.5127 48.2731 37.6558 49.0606 40.172 49.0606L40.4014 48.0873ZM40.7756 44.3775L39.7867 48.574L40.7867 48.574L41.7756 44.3775L40.7756 44.3775Z" fill="black" mask="url(#path-18-inside-1_5_4737)"/>
</g>
<g id="Union_3">
<mask id="path-20-inside-2_5_4737" fill="white">
<path fill-rule="evenodd" clip-rule="evenodd" d="M39.2522 41.7027C35.6928 41.7027 33.4692 38.8942 34.2856 35.4297L34.4048 34.9238H29.8555L29.7909 35.1982L27.1426 46.4363C27.1425 46.4362 27.1424 46.4362 27.1423 46.4361L25.8652 51.8553C25.8653 51.8556 25.8653 51.8559 25.8654 51.8562L25.1955 54.6988C25.1953 54.6991 25.1951 54.6994 25.1949 54.6997L25.1607 54.8449H25.0964C24.1764 56.1511 22.6088 57.0589 21.0373 57.0589C18.8912 57.0589 17.5504 55.3659 18.0426 53.2775C18.5347 51.1891 20.6734 49.4961 22.8195 49.4961C22.98 49.4961 23.1359 49.5056 23.287 49.5239L24.2034 45.6352C24.0491 45.6265 23.8926 45.6221 23.734 45.6221H23.2565C18.7559 45.6221 14.2707 49.1732 13.2384 53.5538C12.2061 57.9344 15.0176 61.4856 19.5182 61.4856H19.9957C24.4962 61.4856 28.9815 57.9344 30.0138 53.5538C30.021 53.5234 30.028 53.4931 30.0348 53.4628L30.0362 53.462L32.2969 43.8687C33.8067 45.1461 35.8559 45.8992 38.2633 45.8992L39.2522 41.7027Z"/>
</mask>
<path fill-rule="evenodd" clip-rule="evenodd" d="M39.2522 41.7027C35.6928 41.7027 33.4692 38.8942 34.2856 35.4297L34.4048 34.9238H29.8555L29.7909 35.1982L27.1426 46.4363C27.1425 46.4362 27.1424 46.4362 27.1423 46.4361L25.8652 51.8553C25.8653 51.8556 25.8653 51.8559 25.8654 51.8562L25.1955 54.6988C25.1953 54.6991 25.1951 54.6994 25.1949 54.6997L25.1607 54.8449H25.0964C24.1764 56.1511 22.6088 57.0589 21.0373 57.0589C18.8912 57.0589 17.5504 55.3659 18.0426 53.2775C18.5347 51.1891 20.6734 49.4961 22.8195 49.4961C22.98 49.4961 23.1359 49.5056 23.287 49.5239L24.2034 45.6352C24.0491 45.6265 23.8926 45.6221 23.734 45.6221H23.2565C18.7559 45.6221 14.2707 49.1732 13.2384 53.5538C12.2061 57.9344 15.0176 61.4856 19.5182 61.4856H19.9957C24.4962 61.4856 28.9815 57.9344 30.0138 53.5538C30.021 53.5234 30.028 53.4931 30.0348 53.4628L30.0362 53.462L32.2969 43.8687C33.8067 45.1461 35.8559 45.8992 38.2633 45.8992L39.2522 41.7027Z" fill="#00FBF3"/>
<path d="M34.2856 35.4297L34.7856 35.4297L34.2856 35.4297ZM39.2522 41.7027H39.7522L39.8669 41.216H39.3669L39.2522 41.7027ZM34.4048 34.9238L34.9048 34.9238L35.0195 34.4372H34.5195L34.4048 34.9238ZM29.8555 34.9238L29.9702 34.4372H29.4702L29.3555 34.9238H29.8555ZM29.7909 35.1982L29.2909 35.1982L29.7909 35.1982ZM27.1426 46.4363L26.82 46.8735L27.4589 47.2158L27.6426 46.4363L27.1426 46.4363ZM27.1423 46.4361L27.4648 45.9989L26.826 45.6566L26.6423 46.4361H27.1423ZM25.8652 51.8553H25.3652L25.3427 51.9508L25.3589 52.0392L25.8652 51.8553ZM25.8654 51.8562H26.3654L26.3879 51.7608L26.3716 51.6724L25.8654 51.8562ZM25.1955 54.6988L25.6151 54.8826L25.673 54.7942L25.6955 54.6988H25.1955ZM25.1949 54.6997L24.7753 54.5159L24.7174 54.6042L24.6949 54.6997H25.1949ZM25.1607 54.8449L25.046 55.3316H25.546L25.6607 54.8449H25.1607ZM25.0964 54.8449L25.2111 54.3583H24.8896L24.6891 54.6429L25.0964 54.8449ZM23.287 49.5239L23.1128 50.0071L23.6575 50.0734L23.787 49.5239H23.287ZM24.2034 45.6352H24.7034L24.8117 45.1755L24.3464 45.1493L24.2034 45.6352ZM30.0348 53.4628L29.8744 53.0462L29.5958 53.1901L29.5335 53.4683L30.0348 53.4628ZM30.0362 53.462L30.1966 53.8786L30.4715 53.7366L30.5362 53.462L30.0362 53.462ZM32.2969 43.8687L32.6832 43.4746L32.0217 42.9149L31.7969 43.8687L32.2969 43.8687ZM38.2633 45.8992L38.1486 46.3858H38.6486L38.7633 45.8992H38.2633ZM33.7856 35.4297C32.9059 39.163 35.302 42.1894 39.1375 42.1894L39.3669 41.216C36.0836 41.216 34.0325 38.6254 34.7856 35.4297H33.7856ZM33.9048 34.9238L33.7856 35.4297L34.7856 35.4297L34.9048 34.9238L33.9048 34.9238ZM29.7409 35.4105H34.2901L34.5195 34.4372H29.9702L29.7409 35.4105ZM30.2909 35.1982L30.3555 34.9238H29.3555L29.2909 35.1982H30.2909ZM27.6426 46.4363L30.2909 35.1982L29.2909 35.1982L26.6426 46.4363L27.6426 46.4363ZM26.8197 46.8734L26.82 46.8735L27.4652 45.9991L27.4648 45.9989L26.8197 46.8734ZM26.3652 51.8553L27.6423 46.4361H26.6423L25.3652 51.8553H26.3652ZM26.3716 51.6724C26.3717 51.6729 26.3718 51.6733 26.3718 51.673C26.3717 51.673 26.3716 51.6723 26.3715 51.6715L25.3589 52.0392C25.3588 52.0387 25.3588 52.0383 25.3588 52.0386C25.3588 52.0386 25.359 52.0393 25.3591 52.0401L26.3716 51.6724ZM25.6955 54.6988L26.3654 51.8562H25.3654L24.6955 54.6988H25.6955ZM25.6146 54.8835C25.6151 54.8828 25.6155 54.8821 25.6156 54.882C25.6157 54.8818 25.6155 54.8822 25.6151 54.8826L24.7759 54.5149C24.7754 54.5157 24.7749 54.5164 24.7749 54.5165C24.7747 54.5167 24.775 54.5163 24.7753 54.5159L25.6146 54.8835ZM25.6607 54.8449L25.6949 54.6997H24.6949L24.6607 54.8449H25.6607ZM24.9817 55.3316H25.046L25.2754 54.3583H25.2111L24.9817 55.3316ZM20.9226 57.5456C22.6971 57.5456 24.4661 56.5201 25.5037 55.0469L24.6891 54.6429C23.8868 55.7821 22.5206 56.5723 21.152 56.5723L20.9226 57.5456ZM17.5426 53.2775C16.9871 55.6348 18.5005 57.5456 20.9226 57.5456L21.152 56.5723C19.2819 56.5723 18.1138 55.0971 18.5426 53.2775H17.5426ZM22.9342 49.0094C20.5121 49.0094 18.0981 50.9202 17.5426 53.2775H18.5426C18.9713 51.458 20.8348 49.9828 22.7048 49.9828L22.9342 49.0094ZM23.4612 49.0408C23.2907 49.0201 23.1149 49.0094 22.9342 49.0094L22.7048 49.9828C22.8451 49.9828 22.9812 49.991 23.1128 50.0071L23.4612 49.0408ZM23.7034 45.6352L22.787 49.5239H23.787L24.7034 45.6352H23.7034ZM23.6193 46.1087C23.7683 46.1087 23.9154 46.1129 24.0603 46.1211L24.3464 45.1493C24.1827 45.1401 24.0168 45.1354 23.8486 45.1354L23.6193 46.1087ZM23.1418 46.1087H23.6193L23.8486 45.1354H23.3712L23.1418 46.1087ZM13.7384 53.5538C14.7073 49.442 18.9174 46.1087 23.1418 46.1087L23.3712 45.1354C18.5945 45.1354 13.834 48.9045 12.7384 53.5538H13.7384ZM19.6329 60.9989C15.4085 60.9989 12.7694 57.6656 13.7384 53.5538H12.7384C11.6427 58.2032 14.6268 61.9723 19.4035 61.9723L19.6329 60.9989ZM20.1103 60.9989H19.6329L19.4035 61.9723H19.881L20.1103 60.9989ZM29.5138 53.5538C28.5449 57.6656 24.3348 60.9989 20.1103 60.9989L19.881 61.9723C24.6577 61.9723 29.4182 58.2032 30.5138 53.5538H29.5138ZM29.5335 53.4683C29.5271 53.4967 29.5206 53.5253 29.5138 53.5538H30.5138C30.5214 53.5216 30.5288 53.4894 30.536 53.4573L29.5335 53.4683ZM29.8759 53.0454L29.8744 53.0462L30.1951 53.8793L30.1966 53.8786L29.8759 53.0454ZM31.7969 43.8687L29.5362 53.462L30.5362 53.462L32.7969 43.8687L31.7969 43.8687ZM38.378 45.4125C36.0795 45.4125 34.1242 44.6938 32.6832 43.4746L31.9107 44.2627C33.4892 45.5983 35.6324 46.3858 38.1486 46.3858L38.378 45.4125ZM38.7522 41.7027L37.7633 45.8992H38.7633L39.7522 41.7027H38.7522Z" fill="black" mask="url(#path-20-inside-2_5_4737)"/>
</g>
<g id="Union_4">
<mask id="path-22-inside-3_5_4737" fill="white">
<path fill-rule="evenodd" clip-rule="evenodd" d="M40.1584 43.0865C36.5991 43.0865 34.3754 40.278 35.1919 36.8135L35.3111 36.3076H30.7618L30.6971 36.582L28.0488 47.8201C28.0487 47.82 28.0486 47.82 28.0485 47.8199L26.7715 53.2391C26.7715 53.2394 26.7716 53.2397 26.7716 53.24L26.1018 56.0826C26.1016 56.0829 26.1014 56.0832 26.1012 56.0835L26.0669 56.2287H26.0026C25.0827 57.5349 23.5151 58.4427 21.9436 58.4427C19.7975 58.4427 18.4567 56.7497 18.9488 54.6613C19.441 52.5729 21.5797 50.8799 23.7258 50.8799C23.8862 50.8799 24.0422 50.8893 24.1932 50.9077L25.1096 47.019C24.9553 47.0103 24.7988 47.0059 24.6402 47.0059H24.1628C19.6622 47.0059 15.1769 50.557 14.1446 54.9376C13.1123 59.3182 15.9239 62.8694 20.4245 62.8694H20.9019C25.4025 62.8694 29.8878 59.3182 30.9201 54.9376C30.9272 54.9072 30.9342 54.8769 30.941 54.8466L30.9425 54.8458L33.2032 45.2525C34.713 46.5298 36.7622 47.283 39.1695 47.283L40.1584 43.0865Z"/>
</mask>
<path fill-rule="evenodd" clip-rule="evenodd" d="M40.1584 43.0865C36.5991 43.0865 34.3754 40.278 35.1919 36.8135L35.3111 36.3076H30.7618L30.6971 36.582L28.0488 47.8201C28.0487 47.82 28.0486 47.82 28.0485 47.8199L26.7715 53.2391C26.7715 53.2394 26.7716 53.2397 26.7716 53.24L26.1018 56.0826C26.1016 56.0829 26.1014 56.0832 26.1012 56.0835L26.0669 56.2287H26.0026C25.0827 57.5349 23.5151 58.4427 21.9436 58.4427C19.7975 58.4427 18.4567 56.7497 18.9488 54.6613C19.441 52.5729 21.5797 50.8799 23.7258 50.8799C23.8862 50.8799 24.0422 50.8893 24.1932 50.9077L25.1096 47.019C24.9553 47.0103 24.7988 47.0059 24.6402 47.0059H24.1628C19.6622 47.0059 15.1769 50.557 14.1446 54.9376C13.1123 59.3182 15.9239 62.8694 20.4245 62.8694H20.9019C25.4025 62.8694 29.8878 59.3182 30.9201 54.9376C30.9272 54.9072 30.9342 54.8769 30.941 54.8466L30.9425 54.8458L33.2032 45.2525C34.713 46.5298 36.7622 47.283 39.1695 47.283L40.1584 43.0865Z" fill="white"/>
<path d="M35.1919 36.8135L35.6919 36.8135L35.1919 36.8135ZM40.1584 43.0865H40.6584L40.7731 42.5998H40.2731L40.1584 43.0865ZM35.3111 36.3076L35.8111 36.3076L35.9258 35.8209H35.4258L35.3111 36.3076ZM30.7618 36.3076L30.8765 35.8209H30.3765L30.2618 36.3076H30.7618ZM30.6971 36.582L30.1971 36.582L30.6971 36.582ZM28.0488 47.8201L27.7263 48.2573L28.3651 48.5996L28.5488 47.8201L28.0488 47.8201ZM28.0485 47.8199L28.3711 47.3827L27.7322 47.0404L27.5485 47.8199H28.0485ZM26.7715 53.2391H26.2715L26.249 53.3346L26.2652 53.423L26.7715 53.2391ZM26.7716 53.24H27.2716L27.2941 53.1446L27.2779 53.0562L26.7716 53.24ZM26.1018 56.0826L26.5214 56.2664L26.5793 56.178L26.6018 56.0826H26.1018ZM26.1012 56.0835L25.6815 55.8996L25.6237 55.988L25.6012 56.0835H26.1012ZM26.0669 56.2287L25.9523 56.7154H26.4523L26.5669 56.2287H26.0669ZM26.0026 56.2287L26.1173 55.742H25.7958L25.5953 56.0267L26.0026 56.2287ZM24.1932 50.9077L24.019 51.3908L24.5637 51.4572L24.6932 50.9077H24.1932ZM25.1096 47.019H25.6096L25.7179 46.5593L25.2527 46.5331L25.1096 47.019ZM30.941 54.8466L30.7806 54.43L30.5021 54.5739L30.4397 54.8521L30.941 54.8466ZM30.9425 54.8458L31.1029 55.2624L31.3778 55.1204L31.4425 54.8458L30.9425 54.8458ZM33.2032 45.2525L33.5895 44.8584L32.928 44.2987L32.7032 45.2525L33.2032 45.2525ZM39.1695 47.283L39.0548 47.7696H39.5548L39.6695 47.283H39.1695ZM34.6919 36.8135C33.8121 40.5468 36.2082 43.5732 40.0437 43.5732L40.2731 42.5998C36.9899 42.5998 34.9388 40.0092 35.6919 36.8135H34.6919ZM34.8111 36.3076L34.6919 36.8135L35.6919 36.8135L35.8111 36.3076L34.8111 36.3076ZM30.6471 36.7943H35.1964L35.4258 35.8209H30.8765L30.6471 36.7943ZM31.1971 36.582L31.2618 36.3076H30.2618L30.1971 36.582H31.1971ZM28.5488 47.8201L31.1971 36.582L30.1971 36.582L27.5488 47.8201L28.5488 47.8201ZM27.7259 48.2572L27.7263 48.2573L28.3714 47.3828L28.3711 47.3827L27.7259 48.2572ZM27.2715 53.2391L28.5485 47.8199H27.5485L26.2715 53.2391H27.2715ZM27.2779 53.0562C27.278 53.0567 27.2781 53.0571 27.278 53.0568C27.278 53.0568 27.2779 53.0561 27.2777 53.0553L26.2652 53.423C26.2651 53.4225 26.265 53.4221 26.2651 53.4223C26.2651 53.4224 26.2652 53.4231 26.2653 53.4239L27.2779 53.0562ZM26.6018 56.0826L27.2716 53.24H26.2716L25.6018 56.0826H26.6018ZM26.5208 56.2673C26.5213 56.2665 26.5218 56.2659 26.5218 56.2658C26.522 56.2656 26.5217 56.2659 26.5214 56.2664L25.6821 55.8987C25.6816 55.8995 25.6812 55.9002 25.6811 55.9003C25.681 55.9005 25.6812 55.9001 25.6815 55.8996L26.5208 56.2673ZM26.5669 56.2287L26.6012 56.0835H25.6012L25.5669 56.2287H26.5669ZM25.888 56.7154H25.9523L26.1816 55.742H26.1173L25.888 56.7154ZM21.8289 58.9294C23.6033 58.9294 25.3723 57.9039 26.4099 56.4307L25.5953 56.0267C24.793 57.1659 23.4269 57.9561 22.0582 57.9561L21.8289 58.9294ZM18.4488 54.6613C17.8933 57.0186 19.4067 58.9294 21.8289 58.9294L22.0582 57.9561C20.1882 57.9561 19.02 56.4808 19.4488 54.6613H18.4488ZM23.8404 50.3932C21.4183 50.3932 19.0043 52.304 18.4488 54.6613H19.4488C19.8776 52.8418 21.741 51.3666 23.6111 51.3666L23.8404 50.3932ZM24.3674 50.4246C24.197 50.4039 24.0211 50.3932 23.8404 50.3932L23.6111 51.3666C23.7513 51.3666 23.8874 51.3748 24.019 51.3908L24.3674 50.4246ZM24.6096 47.019L23.6932 50.9077H24.6932L25.6096 47.019H24.6096ZM24.5255 47.4925C24.6746 47.4925 24.8216 47.4967 24.9666 47.5048L25.2527 46.5331C25.089 46.5239 24.923 46.5192 24.7549 46.5192L24.5255 47.4925ZM24.0481 47.4925H24.5255L24.7549 46.5192H24.2775L24.0481 47.4925ZM14.6446 54.9376C15.6136 50.8258 19.8236 47.4925 24.0481 47.4925L24.2775 46.5192C19.5007 46.5192 14.7402 50.2883 13.6446 54.9376H14.6446ZM20.5392 62.3827C16.3147 62.3827 13.6756 59.0494 14.6446 54.9376H13.6446C12.549 59.587 15.5331 63.3561 20.3098 63.3561L20.5392 62.3827ZM21.0166 62.3827H20.5392L20.3098 63.3561H20.7872L21.0166 62.3827ZM30.4201 54.9376C29.4511 59.0494 25.241 62.3827 21.0166 62.3827L20.7872 63.3561C25.5639 63.3561 30.3244 59.587 31.4201 54.9376H30.4201ZM30.4397 54.8521C30.4334 54.8805 30.4268 54.9091 30.4201 54.9376H31.4201C31.4277 54.9054 31.4351 54.8732 31.4423 54.8411L30.4397 54.8521ZM30.7821 54.4292L30.7806 54.43L31.1014 55.2631L31.1029 55.2624L30.7821 54.4292ZM32.7032 45.2525L30.4425 54.8458L31.4425 54.8458L33.7032 45.2525L32.7032 45.2525ZM39.2842 46.7963C36.9857 46.7963 35.0305 46.0776 33.5895 44.8584L32.8169 45.6465C34.3955 46.9821 36.5386 47.7696 39.0548 47.7696L39.2842 46.7963ZM39.6584 43.0865L38.6695 47.283H39.6695L40.6584 43.0865H39.6584Z" fill="black" mask="url(#path-22-inside-3_5_4737)"/>
</g>
</g>
</g>
<defs>
<linearGradient id="paint0_linear_5_4737" x1="37.2065" y1="-94.3366" x2="166.343" y2="-7.61943" gradientUnits="userSpaceOnUse">
<stop stop-color="#1230C6"/>
<stop offset="1" stop-color="#BCC6F9"/>
</linearGradient>
<linearGradient id="paint1_linear_5_4737" x1="43.5874" y1="6.0791" x2="43.5874" y2="93.1893" gradientUnits="userSpaceOnUse">
<stop stop-color="#FFEBDC"/>
<stop offset="1" stop-color="#FFFBF9"/>
</linearGradient>
<linearGradient id="paint2_linear_5_4737" x1="49.661" y1="17.8125" x2="49.661" y2="39.9774" gradientUnits="userSpaceOnUse">
<stop stop-color="#A31920"/>
<stop offset="1" stop-color="#EF6262"/>
</linearGradient>
<linearGradient id="paint3_linear_5_4737" x1="69.4059" y1="0.612305" x2="69.4059" y2="28.5418" gradientUnits="userSpaceOnUse">
<stop stop-color="#A31920"/>
<stop offset="1" stop-color="#EF6262"/>
</linearGradient>
<linearGradient id="paint4_linear_5_4737" x1="22.5407" y1="0" x2="22.5407" y2="26.5852" gradientUnits="userSpaceOnUse">
<stop stop-color="#A31920"/>
<stop offset="1" stop-color="#EF6262"/>
</linearGradient>
<linearGradient id="paint5_linear_5_4737" x1="61.7235" y1="4.53711" x2="61.7235" y2="25.2053" gradientUnits="userSpaceOnUse">
<stop stop-color="#FFAEB2"/>
<stop offset="1" stop-color="#EF6262"/>
</linearGradient>
<linearGradient id="paint6_linear_5_4737" x1="42.9345" y1="4.53711" x2="42.9345" y2="25.2053" gradientUnits="userSpaceOnUse">
<stop stop-color="#FFAEB2"/>
<stop offset="1" stop-color="#EF6262"/>
</linearGradient>
<linearGradient id="paint7_linear_5_4737" x1="24.4335" y1="4.34668" x2="24.4335" y2="24.9005" gradientUnits="userSpaceOnUse">
<stop stop-color="#A31920"/>
<stop offset="1" stop-color="#EF6262"/>
</linearGradient>
<linearGradient id="paint8_linear_5_4737" x1="24.4335" y1="4.34668" x2="24.4335" y2="24.9005" gradientUnits="userSpaceOnUse">
<stop stop-color="#FFAEB2"/>
<stop offset="1" stop-color="#EF6262"/>
</linearGradient>
<linearGradient id="paint9_linear_5_4737" x1="38.9534" y1="13.0775" x2="45.5938" y2="75.323" gradientUnits="userSpaceOnUse">
<stop stop-color="#D93535"/>
<stop offset="1" stop-color="#FFAEB2"/>
</linearGradient>
<linearGradient id="paint10_linear_5_4737" x1="28.7027" y1="29.8389" x2="28.7027" y2="72.6346" gradientUnits="userSpaceOnUse">
<stop stop-color="#5D637E"/>
<stop offset="1" stop-color="#3E4254"/>
</linearGradient>
</defs>
</svg>
