<svg width="95" height="102" viewBox="0 0 95 102" fill="none" xmlns="http://www.w3.org/2000/svg">
<g id="Frame 44906">
<g id="Frame 4898">
<g id="Group 1194">
<g id="ClodeoWebMobile" clip-path="url(#clip0_3341_106073)">
<g id="ClodeoWebMobile_2">
<path id="Rectangle 1654" d="M88.1437 8.02468C88.3566 7.24599 88.2239 6.4273 87.78 5.78091L85.0555 1.8133C84.6217 1.18161 83.9025 0.807892 83.1207 0.807893L37.0071 0.807901C35.1297 0.807901 33.4446 2.09566 32.9341 3.92041L8.03682 92.9203C7.7081 94.0954 7.9162 95.3341 8.60433 96.2984L10.8021 99.3783C11.5262 100.393 12.7 100.99 13.9723 100.99H36.3885H59.5073C61.3938 100.99 63.0849 99.6897 63.5869 97.8535L88.1437 8.02468Z" fill="url(#paint0_linear_3341_106073)" stroke="#1230C6" stroke-width="0.530301"/>
<path id="Rectangle 1653" d="M85.3226 5.02048C85.9089 2.86291 84.3539 0.803986 82.138 0.803986H36.255C34.3662 0.803986 32.6736 2.1072 32.1738 3.94638L7.64204 94.2211C7.27078 95.5873 8.25546 96.891 9.65856 96.891H57.1299C59.0187 96.891 60.7113 95.5878 61.2111 93.7486L85.3226 5.02048Z" fill="#E8EFFD" stroke="#3554EC" stroke-width="0.530301"/>
<path id="Rectangle 1681" d="M48.246 5.23492H48.1339L48.0592 5.1546L45.2328 2.11844H36.1034C34.2151 2.11844 32.5229 3.42089 32.0226 5.25935L8.38148 92.1304C8.00963 93.4968 8.99435 94.8011 10.3978 94.8011H55.4648C57.3531 94.8011 59.0454 93.4987 59.5457 91.6602L83.0909 5.14152C83.5118 3.59484 82.3972 2.11844 80.8086 2.11844H72.0176C71.5979 2.11844 71.1843 2.25768 70.8417 2.51432L68.2881 4.42739C67.5893 4.95089 66.7456 5.23492 65.8895 5.23492H58.0367H48.246Z" fill="url(#paint1_linear_3341_106073)" stroke="#1230C6" stroke-width="0.530301"/>
<path id="Union" d="M74.9005 36.564L80.9297 14.4092L30.4614 14.4092C29.9044 14.4092 29.4067 14.7993 29.2666 15.3457L27.1561 23.5793L32.4106 28.783C32.7071 29.0767 32.8168 29.514 32.6978 29.9284L31.7932 33.079C31.0561 35.6463 32.8898 38.1268 35.5248 38.1268C38.249 38.1268 40.7605 36.6663 42.1893 34.4021C42.3173 36.4424 43.9653 38.1268 46.1605 38.1268C48.9069 38.1268 51.4418 36.6734 52.9103 34.4117C52.9945 36.4383 54.6161 38.1268 56.7862 38.1268C59.5012 38.1268 62.0043 36.6698 63.4262 34.4116C63.5588 36.4477 65.205 38.1268 67.3968 38.1268C70.1439 38.1268 72.6793 36.6727 74.1477 34.4102C74.1805 35.2079 74.4515 35.9533 74.9005 36.564Z" fill="url(#paint2_linear_3341_106073)"/>
<line id="Line 326" y1="-0.26515" x2="14.693" y2="-0.26515" transform="matrix(-1 0 -0.0413525 0.999145 67 3.61963)" stroke="#8896A2" stroke-width="0.530301"/>
<g id="Group 1103">
<path id="Rectangle 1684" d="M83.276 4.90657C83.3267 4.72547 83.2628 4.53637 83.1147 4.4294L79.1057 1.53287C75.7294 -0.906579 70.8096 0.928414 69.6542 5.0581L66.3168 16.9873C66.2661 17.1684 66.33 17.3575 66.4781 17.4645L77.5289 25.4488L83.276 4.90657ZM77.6708 25.5513C77.6706 25.5512 77.6705 25.5511 77.6703 25.551L77.6708 25.5513Z" fill="url(#paint3_linear_3341_106073)" stroke="#A54D12" stroke-width="0.530301"/>
<path id="Rectangle 1688" d="M26.8485 23.3748L32.682 2.52415C27.4957 -0.687683 20.4336 2.19463 18.7343 8.26848L16.3971 16.6224L26.8485 23.3748Z" fill="url(#paint4_linear_3341_106073)" stroke="#A54D12" stroke-width="0.530301"/>
<path id="Rectangle 1684_2" d="M73.6468 0.46854L68.7258 0.468543L65.9633 0.468544C63.1223 0.468546 60.5633 2.39357 59.7479 5.14422L55.8068 18.4385C55.2633 20.2721 56.5761 22.0548 58.4698 22.0548H60.1121C62.6898 22.0548 65.0116 20.3082 65.7514 17.8125L69.5457 5.01336C70.1658 2.92182 71.7146 1.27011 73.6468 0.46854Z" fill="url(#paint5_linear_3341_106073)" stroke="#A54D12" stroke-width="0.530301"/>
<path id="Rectangle 1689" d="M53.4866 0.46854L48.5656 0.468543L45.8031 0.468544C42.9621 0.468546 40.4032 2.39357 39.5878 5.14422L35.6467 18.4385C35.1031 20.2721 36.4159 22.0548 38.3097 22.0548L39.952 22.0548C42.5297 22.0548 44.8514 20.3082 45.5913 17.8125L49.3856 5.01338C50.0056 2.92183 51.5544 1.27011 53.4866 0.46854Z" fill="url(#paint6_linear_3341_106073)" stroke="#A54D12" stroke-width="0.530301"/>
<path id="Rectangle 1691" d="M33.872 0.264927L28.848 0.264929L25.3028 0.264931C22.5123 0.264933 19.9871 2.12334 19.1279 4.80933L14.8917 18.0512C14.3005 19.8994 15.6157 21.7288 17.5358 21.7288L20.0731 21.7288C22.6049 21.7288 24.896 20.0426 25.6757 17.6055L29.8147 4.66728C30.4632 2.64009 31.986 1.04724 33.872 0.264927Z" fill="url(#paint7_linear_3341_106073)" stroke="#A54D12" stroke-width="0.530301"/>
<path id="Rectangle 1692" d="M33.872 0.264927L28.848 0.264929L25.3028 0.264931C22.5123 0.264933 19.9871 2.12334 19.1279 4.80933L14.8917 18.0512C14.3005 19.8994 15.6157 21.7288 17.5358 21.7288L20.0731 21.7288C22.6049 21.7288 24.896 20.0426 25.6757 17.6055L29.8147 4.66728C30.4632 2.64009 31.986 1.04724 33.872 0.264927Z" fill="url(#paint8_linear_3341_106073)" stroke="#A54D12" stroke-width="0.530301"/>
<path id="Rectangle 1685" d="M63.6116 0.46854L57.078 0.468543L55.6627 0.468544C52.8217 0.468546 50.2627 2.39357 49.4473 5.14422L45.5062 18.4385C44.9627 20.2721 46.2755 22.0548 48.1692 22.0548L50.077 22.0548C52.6547 22.0548 54.9764 20.3082 55.7163 17.8125L59.5106 5.01338C60.1306 2.92183 61.6794 1.27011 63.6116 0.46854Z" fill="#FFF6F0" stroke="#A54D12" stroke-width="0.530301"/>
<path id="Rectangle 1690" d="M43.4515 0.46854L36.9178 0.468543L35.5025 0.468544C32.6615 0.468546 30.1026 2.39357 29.2872 5.14422L25.3461 18.4385C24.8025 20.2721 26.1153 22.0548 28.0091 22.0548L29.9168 22.0548C32.4945 22.0548 34.8163 20.3082 35.5561 17.8125L39.3504 5.01337C39.9705 2.92182 41.5193 1.27011 43.4515 0.46854Z" fill="#FFF6F0" stroke="#A54D12" stroke-width="0.530301"/>
</g>
<path id="Rectangle 1685_2" d="M68.5081 44.7141C69.2157 42.1053 67.3351 39.6167 64.6561 39.6167L28.6223 39.6167C26.6913 39.6167 24.9582 40.9417 24.434 42.8187L13.4943 81.9916C13.0071 83.7362 14.2619 85.4105 16.0566 85.4105L54.1501 85.4104C56.0929 85.4104 57.8337 84.0695 58.3468 82.1776L68.5081 44.7141Z" fill="url(#paint9_linear_3341_106073)"/>
</g>
<path id="Line 418" d="M38.8203 95.7373H26.4542" stroke="#3554EC" stroke-width="0.530301" stroke-linecap="round"/>
<g id="Group 1186">
<path id="Rectangle 1682" d="M66.4173 39.4961C66.9223 37.6915 65.6245 35.9588 63.7677 35.9588H30.2807C26.0185 35.9588 22.1988 38.8982 21.0687 43.0476L11.3527 78.7228C10.8628 80.5218 12.1636 82.2403 14.0125 82.2403L49.7036 82.2403C52.488 82.2403 54.9896 80.3305 55.7469 77.6244L66.4173 39.4961Z" fill="url(#paint10_linear_3341_106073)" stroke="#A54D12" stroke-width="0.530301"/>
<path id="Rectangle 1685_3" d="M64.7692 38.4567C65.2571 36.658 63.9605 34.9422 62.1134 34.9422H26.4544C23.6689 34.9422 21.1688 36.8535 20.4126 39.5613L10.0493 76.6702C9.54542 78.4745 10.8432 80.2061 12.6993 80.2061L48.6564 80.2061C51.4591 80.2061 53.9702 78.2716 54.7105 75.5424L64.7692 38.4567Z" fill="#FFF6F0" stroke="#A54D12" stroke-width="0.530301"/>
<g id="g4">
<path id="path2" fill-rule="evenodd" clip-rule="evenodd" d="M39.9088 63.1955C39.3941 64.5882 38.2501 65.7036 36.7639 66.2621C35.9363 66.5732 34.886 66.7412 34.1002 66.6884C32.8654 66.6423 31.7665 66.3488 30.8186 65.8123C30.48 65.6205 29.999 65.2375 29.6454 64.8788C29.5558 64.7882 29.5567 64.7301 29.6555 64.6285C29.7097 64.5702 29.8091 64.465 30.0283 64.2341C30.3462 63.8991 30.3859 63.8571 30.4221 63.8178C30.525 63.7056 30.6501 63.6958 30.7486 63.788C30.759 63.7976 30.759 63.7976 30.7668 63.8049C30.783 63.8198 30.783 63.8198 30.8212 63.855C30.8599 63.8908 30.8828 63.9119 30.8922 63.9202C31.8401 64.803 33.0709 65.3122 34.4268 65.3631C36.3367 65.3379 37.9084 64.5089 38.4649 63.2358C39.0772 61.8347 38.2377 60.6245 36.181 59.9499C35.5377 59.7389 33.948 59.058 33.6691 58.8741C32.3598 58.0098 31.9256 56.8779 32.3685 55.4797C32.9972 53.5417 35.2082 52.0962 37.5577 52.0865C38.6078 52.0844 39.6035 52.2957 40.5094 52.7064C40.8301 52.8518 41.3842 53.1871 41.565 53.346C41.6695 53.4359 41.6689 53.5408 41.5687 53.6539C41.5122 53.7195 41.4198 53.8235 41.2257 54.0404L41.2235 54.0427C40.968 54.3283 40.96 54.3372 40.9011 54.404C40.8009 54.5126 40.7119 54.5227 40.5991 54.4411C39.6936 53.7405 38.5862 53.388 37.2797 53.3626C35.6376 53.3939 34.1823 54.336 33.788 55.6194C33.4831 56.7786 34.1738 57.6248 35.9549 58.27C39.591 59.495 40.7459 60.9311 39.9088 63.1955ZM39.9412 43.185C42.5035 43.185 44.0162 45.5402 43.393 48.4883H33.896C34.7146 45.5402 37.3791 43.185 39.9412 43.185ZM51.7696 49.0426C51.8444 48.7365 51.6506 48.4883 51.3367 48.4883H45.181C45.9818 44.5957 43.872 41.4917 40.3553 41.4917C36.8386 41.4917 33.2109 44.5957 32.1081 48.4883L25.9436 48.4884C25.6332 48.4939 25.3241 48.74 25.2501 49.0426C25.2466 49.0571 25.2436 49.0714 25.2413 49.0856H25.2369L21.5281 67.8478C21.5154 67.9 21.5045 67.9527 21.4956 68.0057C21.4936 68.0176 21.4917 68.0295 21.4898 68.0413L21.482 68.0809L21.4836 68.083C21.2979 69.3886 22.019 70.4401 23.3373 70.4886L23.3396 70.4915H42.8939C42.9032 70.4916 42.9124 70.4917 42.9217 70.4917C42.9309 70.4917 42.9402 70.4916 42.9495 70.4915H42.9911L42.9922 70.4907C44.3543 70.4549 45.7112 69.3887 46.1502 68.067L46.151 68.0664L46.1563 68.0486C46.1608 68.0347 46.1652 68.0209 46.1695 68.007C46.1798 67.9737 46.1893 67.9405 46.1979 67.9075L51.7625 49.0712C51.7654 49.0618 51.7672 49.0522 51.7696 49.0426Z" fill="#EE4D2D"/>
</g>
</g>
</g>
</g>
</g>
</g>
<defs>
<linearGradient id="paint0_linear_3341_106073" x1="40.8546" y1="-105.597" x2="179.195" y2="-12.4583" gradientUnits="userSpaceOnUse">
<stop stop-color="#1230C6"/>
<stop offset="1" stop-color="#BCC6F9"/>
</linearGradient>
<linearGradient id="paint1_linear_3341_106073" x1="47.7131" y1="1.85352" x2="47.7131" y2="95.0661" gradientUnits="userSpaceOnUse">
<stop stop-color="#FFEBDC"/>
<stop offset="1" stop-color="#FFFBF9"/>
</linearGradient>
<linearGradient id="paint2_linear_3341_106073" x1="54.2327" y1="14.4092" x2="54.2327" y2="38.1268" gradientUnits="userSpaceOnUse">
<stop stop-color="#E1721D"/>
<stop offset="1" stop-color="#FFB277"/>
</linearGradient>
<linearGradient id="paint3_linear_3341_106073" x1="75.4149" y1="-3.99609" x2="75.4149" y2="25.89" gradientUnits="userSpaceOnUse">
<stop stop-color="#E1721D"/>
<stop offset="1" stop-color="#FFB277"/>
</linearGradient>
<linearGradient id="paint4_linear_3341_106073" x1="25.1284" y1="-4.65137" x2="25.1284" y2="23.7962" gradientUnits="userSpaceOnUse">
<stop stop-color="#E1721D"/>
<stop offset="1" stop-color="#FFB277"/>
</linearGradient>
<linearGradient id="paint5_linear_3341_106073" x1="67.1705" y1="0.203613" x2="67.1705" y2="22.3197" gradientUnits="userSpaceOnUse">
<stop stop-color="#FFD2B3"/>
<stop offset="1" stop-color="#FFB886"/>
</linearGradient>
<linearGradient id="paint6_linear_3341_106073" x1="47.0103" y1="0.203613" x2="47.0103" y2="22.3197" gradientUnits="userSpaceOnUse">
<stop stop-color="#FFD2B3"/>
<stop offset="1" stop-color="#FFB886"/>
</linearGradient>
<linearGradient id="paint7_linear_3341_106073" x1="27.1582" y1="0" x2="27.1582" y2="21.9937" gradientUnits="userSpaceOnUse">
<stop stop-color="#E1721D"/>
<stop offset="1" stop-color="#FFB277"/>
</linearGradient>
<linearGradient id="paint8_linear_3341_106073" x1="27.1582" y1="0" x2="27.1582" y2="21.9937" gradientUnits="userSpaceOnUse">
<stop stop-color="#FFD2B3"/>
<stop offset="1" stop-color="#FFB886"/>
</linearGradient>
<linearGradient id="paint9_linear_3341_106073" x1="43.3075" y1="9.19655" x2="50.3146" y2="75.0592" gradientUnits="userSpaceOnUse">
<stop stop-color="#E1721D"/>
<stop offset="1" stop-color="#FFB277"/>
</linearGradient>
<linearGradient id="paint10_linear_3341_106073" x1="39.5126" y1="35.6938" x2="39.5126" y2="82.5052" gradientUnits="userSpaceOnUse">
<stop stop-color="#E1721D"/>
<stop offset="1" stop-color="#FFB277"/>
</linearGradient>
<clipPath id="clip0_3341_106073">
<rect width="85.0914" height="101.579" fill="white" transform="matrix(-1 0 -0.0413525 0.999145 89.5859 0)"/>
</clipPath>
</defs>
</svg>
