<svg width="105" height="107" viewBox="0 0 105 107" fill="none" xmlns="http://www.w3.org/2000/svg">
<g id="Frame 44916">
<g id="Discount">
<g id="Frame 3393">
<path id="Ellipse 460" d="M59.87 101.122C56.4453 101.122 53.3164 99.1533 51.0321 95.9132C48.7484 92.6739 47.3269 88.1839 47.3269 83.2109C47.3269 78.238 48.7484 73.748 51.0321 70.5087C53.3164 67.2686 56.4453 65.3001 59.87 65.3001L74.7699 65.3C75.1264 66.0328 75.3894 67.1847 75.5756 68.6035C75.7735 70.1113 75.8805 71.8839 75.9349 73.6982C76.0126 76.2926 75.9825 78.9535 75.9589 81.0341C75.9494 81.8664 75.9411 82.6058 75.9411 83.2109C75.9411 84.364 75.9977 85.7466 76.0584 87.2283C76.0657 87.4069 76.0731 87.587 76.0804 87.7682C76.1488 89.4565 76.2146 91.2544 76.2052 92.9938C76.1958 94.7341 76.1111 96.407 75.881 97.8457C75.6612 99.22 75.313 100.35 74.7951 101.122H74.775H74.7535H74.7319H74.7101H74.6883H74.6663H74.6443H74.6221H74.5999H74.5776H74.5551H74.5326H74.51H74.4873H74.4644H74.4415H74.4185H74.3954H74.3722H74.3489H74.3255H74.3021H74.2785H74.2548H74.2311H74.2072H74.1833H74.1593H74.1352H74.111H74.0867H74.0623H74.0378H74.0133H73.9886H73.9639H73.9391H73.9142H73.8892H73.8641H73.8389H73.8137H73.7884H73.7629H73.7375H73.7119H73.6862H73.6605H73.6346H73.6087H73.5827H73.5567H73.5305H73.5043H73.478H73.4516H73.4251H73.3986H73.372H73.3453H73.3185H73.2916H73.2647H73.2377H73.2106H73.1835H73.1563H73.129H73.1016H73.0741H73.0466H73.019H72.9914H72.9636H72.9358H72.9079H72.88H72.852H72.8239H72.7957H72.7675H72.7392H72.7109H72.6824H72.6539H72.6254H72.5967H72.5681H72.5393H72.5105H72.4816H72.4526H72.4236H72.3945H72.3654H72.3362H72.3069H72.2776H72.2482H72.2188H72.1893H72.1597H72.1301H72.1004H72.0706H72.0408H72.011H71.981H71.9511H71.921H71.8909H71.8608H71.8306H71.8003H71.77H71.7396H71.7092H71.6787H71.6482H71.6176H71.587H71.5563H71.5256H71.4948H71.464H71.4331H71.4022H71.3712H71.3401H71.3091H71.2779H71.2467H71.2155H71.1842H71.1529H71.1216H71.0902H71.0587H71.0272H70.9957H70.9641H70.9324H70.9008H70.869H70.8373H70.8055H70.7736H70.7417H70.7098H70.6779H70.6459H70.6138H70.5817H70.5496H70.5174H70.4852H70.453H70.4207H70.3884H70.3561H70.3237H70.2913H70.2588H70.2263H70.1938H70.1613H70.1287H70.0961H70.0634H70.0307H69.998H69.9653H69.9325H69.8997H69.8668H69.834H69.8011H69.7681H69.7352H69.7022H69.6692H69.6362H69.6031H69.57H69.5369H69.5037H69.4706H69.4374H69.4042H69.3709H69.3377H69.3044H69.2711H69.2377H69.2044H69.171H69.1376H69.1042H69.0708H69.0373H69.0038H68.9703H68.9368H68.9033H68.8697H68.8362H68.8026H68.769H68.7354H68.7017H68.6681H68.6344H68.6008H68.5671H68.5334H68.4996H68.4659H68.4322H68.3984H68.3647H68.3309H68.2971H68.2633H68.2295H68.1957H68.1618H68.128H68.0942H68.0603H68.0265H67.9926H67.9587H67.9248H67.891H67.8571H67.8232H67.7893H67.7554H67.7215H67.6876H67.6536H67.6197H67.5858H67.5519H67.518H67.484H67.4501H67.4162H67.3823H67.3484H67.3144H67.2805H67.2466H67.2127H67.1788H67.1449H67.111H67.0771H67.0432H67.0093H66.9754H66.9415H66.9076H66.8738H66.8399H66.8061H66.7722H66.7384H66.7045H66.6707H66.6369H66.6031H66.5693H66.5355H66.5018H66.468H66.4343H66.4005H66.3668H66.3331H66.2994H66.2657H66.2321H66.1984H66.1648H66.1312H66.0975H66.064H66.0304H65.9968H65.9633H65.9298H65.8963H65.8628H65.8293H65.7959H65.7625H65.7291H65.6957H65.6623H65.629H65.5957H65.5624H65.5291H65.4958H65.4626H65.4294H65.3962H65.3631H65.33H65.2969H65.2638H65.2308H65.1977H65.1647H65.1318H65.0988H65.0659H65.0331H65.0002H64.9674H64.9346H64.9018H64.8691H64.8364H64.8037H64.7711H64.7385H64.706H64.6734H64.6409H64.6085H64.576H64.5436H64.5113H64.479H64.4467H64.4144H64.3822H64.35H64.3179H64.2858H64.2537H64.2217H64.1897H64.1578H64.1259H64.0941H64.0622H64.0305H63.9987H63.967H63.9354H63.9038H63.8722H63.8407H63.8092H63.7778H63.7464H63.7151H63.6838H63.6526H63.6214H63.5902H63.5591H63.5281H63.4971H63.4661H63.4352H63.4044H63.3736H63.3428H63.3121H63.2815H63.2509H63.2203H63.1898H63.1594H63.129H63.0987H63.0684H63.0382H63.008H62.9779H62.9479H62.9179H62.8879H62.858H62.8282H62.7984H62.7687H62.7391H62.7095H62.68H62.6505H62.6211H62.5917H62.5625H62.5332H62.5041H62.475H62.4459H62.417H62.388H62.3592H62.3304H62.3017H62.2731H62.2445H62.216H62.1875H62.1591H62.1308H62.1026H62.0744H62.0463H62.0182H61.9903H61.9624H61.9345H61.9068H61.8791H61.8515H61.8239H61.7964H61.769H61.7417H61.7145H61.6873H61.6602H61.6332H61.6062H61.5793H61.5525H61.5258H61.4992H61.4726H61.4461H61.4197H61.3933H61.3671H61.3409H61.3148H61.2888H61.2629H61.237H61.2112H61.1855H61.1599H61.1344H61.109H61.0836H61.0583H61.0331H61.008H60.983H60.9581H60.9332H60.9085H60.8838H60.8592H60.8347H60.8103H60.786H60.7617H60.7376H60.7135H60.6896H60.6657H60.6419H60.6182H60.5946H60.5711H60.5477H60.5244H60.5012H60.478H60.455H60.432H60.4092H60.3864H60.3638H60.3412H60.3187H60.2964H60.2741H60.2519H60.2299H60.2079H60.186H60.1642H60.1425H60.121H60.0995H60.0781H60.0568H60.0357H60.0146H59.9936H59.9728H59.952H59.9314H59.9108H59.8904H59.87Z" fill="#BCC6F9" stroke="#3554EC" stroke-width="0.571032"/>
<path id="Ellipse 458" d="M87.4866 83.2109C87.4866 88.1839 86.0651 92.6739 83.7813 95.9132C81.497 99.1533 78.3682 101.122 74.9434 101.122C71.5187 101.122 68.3898 99.1533 66.1056 95.9132C63.8218 92.6739 62.4003 88.1839 62.4003 83.2109C62.4003 78.238 63.8218 73.7479 66.1056 70.5086C68.3898 67.2686 71.5187 65.3 74.9434 65.3C78.3682 65.3 81.497 67.2686 83.7813 70.5086C86.0651 73.7479 87.4866 78.238 87.4866 83.2109Z" fill="#BCC6F9" stroke="#3554EC" stroke-width="0.571032"/>
<path id="Ellipse 462" d="M82.9974 83.2115C82.9974 86.0665 82.1515 88.6397 80.7979 90.4922C79.4442 92.345 77.5979 93.4607 75.5857 93.4607C73.5734 93.4607 71.7272 92.345 70.3735 90.4922C69.0199 88.6397 68.174 86.0665 68.174 83.2115C68.174 80.3565 69.0199 77.7833 70.3735 75.9307C71.7272 74.078 73.5734 72.9623 75.5857 72.9623C77.5979 72.9623 79.4442 74.078 80.7979 75.9307C82.1515 77.7833 82.9974 80.3565 82.9974 83.2115Z" fill="url(#paint0_linear_0_37)" stroke="#3554EC" stroke-width="0.571032"/>
<path id="Rectangle 1859" d="M68.9184 16.7769H68.0853L36.2293 101.122H37.1273L68.9184 16.7769ZM35.6189 101.122L67.4749 16.7769H56.0885L24.3622 101.122H35.6189ZM74.3472 16.7769H69.5287L37.7375 101.122H44.554C45.6242 101.122 46.5824 100.459 46.9591 99.4574L76.7523 20.2512C77.3843 18.5709 76.1424 16.7769 74.3472 16.7769Z" fill="url(#paint1_linear_0_37)" stroke="#3554EC" stroke-width="0.571032"/>
<path id="Rectangle 1858" d="M25.5454 101.122L56.894 16.7769H45.3086C44.2347 16.7769 43.274 17.4447 42.8999 18.4513L13.4614 97.6575C12.8375 99.3363 14.0792 101.122 15.8701 101.122H25.5454Z" fill="url(#paint2_linear_0_37)" stroke="#3554EC" stroke-width="0.571032"/>
<path id="Ellipse 461" d="M14.3287 52.5995C10.9039 52.5995 7.77506 50.6309 5.49078 47.3909C3.20705 44.1516 1.78552 39.6616 1.78552 34.6886C1.78552 29.7156 3.20705 25.2256 5.49078 21.9863C7.77506 18.7463 10.9039 16.7777 14.3287 16.7777L25.7007 16.7777C26.0572 17.5104 26.3201 18.6624 26.5063 20.0812C26.7042 21.589 26.8113 23.3616 26.8656 25.1759C26.9434 27.7702 26.9132 30.4312 26.8896 32.5118C26.8802 33.3441 26.8718 34.0835 26.8718 34.6886C26.8718 35.8417 26.9285 37.2244 26.9892 38.7061C26.9965 38.8847 27.0039 39.0647 27.0112 39.2459C27.0796 40.9342 27.1454 42.7321 27.136 44.4714C27.1266 46.2118 27.0419 47.8846 26.8118 49.3234C26.5919 50.6977 26.2438 51.828 25.7259 52.5995H25.7084H25.6875H25.6666H25.6457H25.6248H25.6038H25.5828H25.5618H25.5408H25.5197H25.4987H25.4776H25.4565H25.4353H25.4142H25.393H25.3718H25.3506H25.3293H25.3081H25.2868H25.2655H25.2442H25.2228H25.2015H25.1801H25.1587H25.1372H25.1158H25.0943H25.0728H25.0513H25.0298H25.0083H24.9867H24.9651H24.9435H24.9219H24.9002H24.8786H24.8569H24.8352H24.8135H24.7917H24.77H24.7482H24.7264H24.7046H24.6828H24.6609H24.6391H24.6172H24.5953H24.5733H24.5514H24.5295H24.5075H24.4855H24.4635H24.4415H24.4194H24.3974H24.3753H24.3532H24.3311H24.3089H24.2868H24.2646H24.2425H24.2203H24.1981H24.1758H24.1536H24.1313H24.1091H24.0868H24.0645H24.0421H24.0198H23.9975H23.9751H23.9527H23.9303H23.9079H23.8855H23.863H23.8406H23.8181H23.7956H23.7731H23.7506H23.7281H23.7055H23.683H23.6604H23.6378H23.6152H23.5926H23.57H23.5474H23.5247H23.502H23.4794H23.4567H23.434H23.4112H23.3885H23.3658H23.343H23.3202H23.2975H23.2747H23.2519H23.2291H23.2062H23.1834H23.1605H23.1377H23.1148H23.0919H23.069H23.0461H23.0232H23.0002H22.9773H22.9543H22.9314H22.9084H22.8854H22.8624H22.8394H22.8164H22.7933H22.7703H22.7472H22.7242H22.7011H22.678H22.6549H22.6318H22.6087H22.5856H22.5625H22.5394H22.5162H22.4931H22.4699H22.4467H22.4235H22.4003H22.3771H22.3539H22.3307H22.3075H22.2843H22.261H22.2378H22.2145H22.1912H22.168H22.1447H22.1214H22.0981H22.0748H22.0515H22.0282H22.0048H21.9815H21.9582H21.9348H21.9115H21.8881H21.8647H21.8414H21.818H21.7946H21.7712H21.7478H21.7244H21.701H21.6776H21.6542H21.6307H21.6073H21.5839H21.5604H21.537H21.5135H21.4901H21.4666H21.4431H21.4197H21.3962H21.3727H21.3492H21.3257H21.3022H21.2787H21.2552H21.2317H21.2082H21.1847H21.1612H21.1377H21.1141H21.0906H21.0671H21.0435H21.02H20.9965H20.9729H20.9494H20.9258H20.9023H20.8787H20.8552H20.8316H20.808H20.7845H20.7609H20.7373H20.7138H20.6902H20.6666H20.643H20.6195H20.5959H20.5723H20.5487H20.5251H20.5016H20.478H20.4544H20.4308H20.4072H20.3836H20.36H20.3364H20.3129H20.2893H20.2657H20.2421H20.2185H20.1949H20.1713H20.1477H20.1241H20.1006H20.077H20.0534H20.0298H20.0062H19.9826H19.9591H19.9355H19.9119H19.8883H19.8647H19.8412H19.8176H19.794H19.7705H19.7469H19.7233H19.6998H19.6762H19.6526H19.6291H19.6055H19.582H19.5584H19.5349H19.5113H19.4878H19.4643H19.4407H19.4172H19.3937H19.3702H19.3466H19.3231H19.2996H19.2761H19.2526H19.2291H19.2056H19.1821H19.1586H19.1351H19.1117H19.0882H19.0647H19.0413H19.0178H18.9943H18.9709H18.9475H18.924H18.9006H18.8772H18.8537H18.8303H18.8069H18.7835H18.7601H18.7367H18.7133H18.6899H18.6666H18.6432H18.6198H18.5965H18.5731H18.5498H18.5265H18.5031H18.4798H18.4565H18.4332H18.4099H18.3866H18.3633H18.3401H18.3168H18.2935H18.2703H18.247H18.2238H18.2006H18.1774H18.1542H18.131H18.1078H18.0846H18.0614H18.0382H18.0151H17.9919H17.9688H17.9457H17.9225H17.8994H17.8763H17.8532H17.8302H17.8071H17.784H17.761H17.7379H17.7149H17.6919H17.6689H17.6459H17.6229H17.5999H17.5769H17.554H17.531H17.5081H17.4852H17.4622H17.4393H17.4165H17.3936H17.3707H17.3479H17.325H17.3022H17.2794H17.2566H17.2338H17.211H17.1882H17.1654H17.1427H17.12H17.0972H17.0745H17.0518H17.0292H17.0065H16.9838H16.9612H16.9386H16.916H16.8934H16.8708H16.8482H16.8256H16.8031H16.7806H16.7581H16.7356H16.7131H16.6906H16.6681H16.6457H16.6233H16.6008H16.5784H16.5561H16.5337H16.5113H16.489H16.4667H16.4444H16.4221H16.3998H16.3775H16.3553H16.3331H16.3109H16.2887H16.2665H16.2443H16.2222H16.2H16.1779H16.1558H16.1337H16.1117H16.0896H16.0676H16.0456H16.0236H16.0016H15.9797H15.9577H15.9358H15.9139H15.892H15.8701H15.8483H15.8265H15.8046H15.7828H15.7611H15.7393H15.7176H15.6958H15.6741H15.6525H15.6308H15.6091H15.5875H15.5659H15.5443H15.5227H15.5012H15.4797H15.4582H15.4367H15.4152H15.3937H15.3723H15.3509H15.3295H15.3082H15.2868H15.2655H15.2442H15.2229H15.2016H15.1804H15.1592H15.138H15.1168H15.0956H15.0745H15.0534H15.0323H15.0112H14.9901H14.9691H14.9481H14.9271H14.9062H14.8852H14.8643H14.8434H14.8225H14.8017H14.7809H14.7601H14.7393H14.7185H14.6978H14.6771H14.6564H14.6357H14.6151H14.5945H14.5739H14.5533H14.5328H14.5123H14.4918H14.4713H14.4508H14.4304H14.41H14.3896H14.3693H14.349H14.3287Z" fill="url(#paint3_linear_0_37)" stroke="#3554EC" stroke-width="0.571032"/>
<path id="Ellipse 457" d="M38.4177 34.6876C38.4177 39.6605 36.9962 44.1506 34.7125 47.3898C32.4282 50.6299 29.2993 52.5984 25.8746 52.5984C22.4499 52.5984 19.321 50.6299 17.0367 47.3898C14.753 44.1506 13.3314 39.6605 13.3314 34.6876C13.3314 29.7146 14.753 25.2246 17.0367 21.9853C19.321 18.7452 22.4499 16.7767 25.8746 16.7767C29.2993 16.7767 32.4282 18.7452 34.7125 21.9853C36.9962 25.2246 38.4177 29.7146 38.4177 34.6876Z" fill="#BCC6F9" stroke="#3554EC" stroke-width="0.571032"/>
<path id="Ellipse 463" d="M33.287 34.6876C33.287 37.7226 32.4391 40.4577 31.0829 42.4263C29.726 44.3961 27.88 45.5753 25.8753 45.5753C23.8706 45.5753 22.0247 44.3961 20.6677 42.4263C19.3116 40.4577 18.4636 37.7226 18.4636 34.6876C18.4636 31.6526 19.3116 28.9175 20.6677 26.9489C22.0247 24.9791 23.8706 23.7999 25.8753 23.7999C27.88 23.7999 29.726 24.9791 31.0829 26.9489C32.4391 28.9175 33.287 31.6526 33.287 34.6876Z" fill="url(#paint4_linear_0_37)" stroke="#3554EC" stroke-width="0.571032"/>
</g>
</g>
<path id="Rectangle 9990" d="M104.006 33.5633L96.9346 53.3622L83.4995 39.9272L102 31.9922L104.006 33.5633Z" fill="#7D9900"/>
<g id="Vector">
<path d="M36.5472 64.3118L41.6882 69.4512L20.641 90.4922L15.5 85.3528L36.5472 64.3118Z" fill="#7D9900"/>
<path d="M63.0235 52.5776L68.1645 57.717L47.1173 78.758L41.9763 73.6185L63.0235 52.5776Z" fill="#7D9900"/>
<path d="M51.5315 73.6184L46.3905 78.7578L34.1733 66.5442L39.3143 61.4048L51.5315 73.6184Z" fill="#7D9900"/>
<path d="M78.0464 62.0195L72.9054 67.1589L60.6882 54.9453L65.8292 49.8059L78.0464 62.0195Z" fill="#7D9900"/>
<path d="M89.3591 41.4922L91.9295 44.0619L94.5 46.6316L73.4528 67.6726L68.3118 62.5332L89.3591 41.4922Z" fill="#7D9900"/>
</g>
<path id="Rectangle 9991" d="M102.006 31.5633L94.9346 51.3622L81.4995 37.9272L102.006 31.5633Z" fill="#D0FF00"/>
<g id="Vector_2">
<path d="M34.5472 62.3118L39.6882 67.4512L18.641 88.4922L13.5 83.3528L34.5472 62.3118Z" fill="#D0FF00"/>
<path d="M61.0235 50.5776L66.1645 55.717L45.1173 76.758L39.9763 71.6185L61.0235 50.5776Z" fill="#D0FF00"/>
<path d="M49.5315 71.6184L44.3905 76.7578L32.1733 64.5442L37.3143 59.4048L49.5315 71.6184Z" fill="#D0FF00"/>
<path d="M76.0464 60.0195L70.9054 65.1589L58.6882 52.9453L63.8292 47.8059L76.0464 60.0195Z" fill="#D0FF00"/>
<path d="M87.3591 39.4922L89.9295 42.0619L92.5 44.6316L71.4528 65.6726L66.3118 60.5332L87.3591 39.4922Z" fill="#D0FF00"/>
</g>
<g id="Uang_Koin">
<g id="Rectangle 1782">
<path d="M20.0822 101.63V94.9822H27.8239V101.63H20.0822ZM19.1909 94.9822V101.63H11.4492V94.9822H19.1909ZM28.7151 101.63V94.9822H35.5656C36.0578 94.9822 36.4568 95.3812 36.4568 95.8734V100.738C36.4568 101.231 36.0578 101.63 35.5656 101.63H28.7151ZM10.558 101.63H3.70752C3.21532 101.63 2.81631 101.231 2.81631 100.738V95.8734C2.81631 95.3812 3.21532 94.9822 3.70752 94.9822H10.558V101.63Z" fill="url(#paint5_linear_0_37)"/>
<path d="M20.0822 101.63V94.9822H27.8239V101.63H20.0822ZM19.1909 94.9822V101.63H11.4492V94.9822H19.1909ZM28.7151 101.63V94.9822H35.5656C36.0578 94.9822 36.4568 95.3812 36.4568 95.8734V100.738C36.4568 101.231 36.0578 101.63 35.5656 101.63H28.7151ZM10.558 101.63H3.70752C3.21532 101.63 2.81631 101.231 2.81631 100.738V95.8734C2.81631 95.3812 3.21532 94.9822 3.70752 94.9822H10.558V101.63Z" fill="url(#paint6_linear_0_37)"/>
<path d="M20.0822 101.63V94.9822H27.8239V101.63H20.0822ZM19.1909 94.9822V101.63H11.4492V94.9822H19.1909ZM28.7151 101.63V94.9822H35.5656C36.0578 94.9822 36.4568 95.3812 36.4568 95.8734V100.738C36.4568 101.231 36.0578 101.63 35.5656 101.63H28.7151ZM10.558 101.63H3.70752C3.21532 101.63 2.81631 101.231 2.81631 100.738V95.8734C2.81631 95.3812 3.21532 94.9822 3.70752 94.9822H10.558V101.63Z" stroke="#DF9B30" stroke-width="0.891217"/>
</g>
<g id="Rectangle 1781">
<path d="M18.2115 95.0334V88.3861H25.9532V95.0334H18.2115ZM17.3203 88.3861V95.0334H9.57854V88.3861H17.3203ZM26.8444 95.0334V88.3861H33.6949C34.1871 88.3861 34.5861 88.7851 34.5861 89.2773V94.1422C34.5861 94.6344 34.1871 95.0334 33.6949 95.0334H26.8444ZM8.68732 95.0334H1.83683C1.34462 95.0334 0.945609 94.6344 0.945609 94.1422V89.2773C0.945609 88.7851 1.34462 88.3861 1.83683 88.3861H8.68732V95.0334Z" fill="url(#paint7_linear_0_37)"/>
<path d="M18.2115 95.0334V88.3861H25.9532V95.0334H18.2115ZM17.3203 88.3861V95.0334H9.57854V88.3861H17.3203ZM26.8444 95.0334V88.3861H33.6949C34.1871 88.3861 34.5861 88.7851 34.5861 89.2773V94.1422C34.5861 94.6344 34.1871 95.0334 33.6949 95.0334H26.8444ZM8.68732 95.0334H1.83683C1.34462 95.0334 0.945609 94.6344 0.945609 94.1422V89.2773C0.945609 88.7851 1.34462 88.3861 1.83683 88.3861H8.68732V95.0334Z" fill="url(#paint8_linear_0_37)"/>
<path d="M18.2115 95.0334V88.3861H25.9532V95.0334H18.2115ZM17.3203 88.3861V95.0334H9.57854V88.3861H17.3203ZM26.8444 95.0334V88.3861H33.6949C34.1871 88.3861 34.5861 88.7851 34.5861 89.2773V94.1422C34.5861 94.6344 34.1871 95.0334 33.6949 95.0334H26.8444ZM8.68732 95.0334H1.83683C1.34462 95.0334 0.945609 94.6344 0.945609 94.1422V89.2773C0.945609 88.7851 1.34462 88.3861 1.83683 88.3861H8.68732V95.0334Z" stroke="#DF9B30" stroke-width="0.891217"/>
</g>
<g id="Rectangle 1780">
<path d="M21.9437 88.4372V81.7899H29.6854V88.4372H21.9437ZM21.0525 81.7899V88.4372H13.3108V81.7899H21.0525ZM30.5767 88.4372V81.7899H37.4272C37.9194 81.7899 38.3184 82.1889 38.3184 82.6811V87.546C38.3184 88.0382 37.9194 88.4372 37.4272 88.4372H30.5767ZM12.4196 88.4372H5.56909C5.07689 88.4372 4.67787 88.0382 4.67787 87.546V82.6811C4.67787 82.1889 5.07689 81.7899 5.56909 81.7899H12.4196V88.4372Z" fill="url(#paint9_linear_0_37)"/>
<path d="M21.9437 88.4372V81.7899H29.6854V88.4372H21.9437ZM21.0525 81.7899V88.4372H13.3108V81.7899H21.0525ZM30.5767 88.4372V81.7899H37.4272C37.9194 81.7899 38.3184 82.1889 38.3184 82.6811V87.546C38.3184 88.0382 37.9194 88.4372 37.4272 88.4372H30.5767ZM12.4196 88.4372H5.56909C5.07689 88.4372 4.67787 88.0382 4.67787 87.546V82.6811C4.67787 82.1889 5.07689 81.7899 5.56909 81.7899H12.4196V88.4372Z" fill="url(#paint10_linear_0_37)"/>
<path d="M21.9437 88.4372V81.7899H29.6854V88.4372H21.9437ZM21.0525 81.7899V88.4372H13.3108V81.7899H21.0525ZM30.5767 88.4372V81.7899H37.4272C37.9194 81.7899 38.3184 82.1889 38.3184 82.6811V87.546C38.3184 88.0382 37.9194 88.4372 37.4272 88.4372H30.5767ZM12.4196 88.4372H5.56909C5.07689 88.4372 4.67787 88.0382 4.67787 87.546V82.6811C4.67787 82.1889 5.07689 81.7899 5.56909 81.7899H12.4196V88.4372Z" stroke="#DF9B30" stroke-width="0.891217"/>
</g>
<g id="Rectangle 1771">
<path d="M18.2115 81.8399V75.1926H25.9532V81.8399H18.2115ZM17.3203 75.1926V81.8399H9.57854V75.1926H17.3203ZM26.8444 81.8399V75.1926H33.6949C34.1871 75.1926 34.5861 75.5916 34.5861 76.0838V80.9487C34.5861 81.4409 34.1871 81.8399 33.6949 81.8399H26.8444ZM8.68732 81.8399H1.83683C1.34462 81.8399 0.945609 81.4409 0.945609 80.9487V76.0838C0.945609 75.5916 1.34462 75.1926 1.83683 75.1926H8.68732V81.8399Z" fill="url(#paint11_linear_0_37)"/>
<path d="M18.2115 81.8399V75.1926H25.9532V81.8399H18.2115ZM17.3203 75.1926V81.8399H9.57854V75.1926H17.3203ZM26.8444 81.8399V75.1926H33.6949C34.1871 75.1926 34.5861 75.5916 34.5861 76.0838V80.9487C34.5861 81.4409 34.1871 81.8399 33.6949 81.8399H26.8444ZM8.68732 81.8399H1.83683C1.34462 81.8399 0.945609 81.4409 0.945609 80.9487V76.0838C0.945609 75.5916 1.34462 75.1926 1.83683 75.1926H8.68732V81.8399Z" fill="url(#paint12_linear_0_37)"/>
<path d="M18.2115 81.8399V75.1926H25.9532V81.8399H18.2115ZM17.3203 75.1926V81.8399H9.57854V75.1926H17.3203ZM26.8444 81.8399V75.1926H33.6949C34.1871 75.1926 34.5861 75.5916 34.5861 76.0838V80.9487C34.5861 81.4409 34.1871 81.8399 33.6949 81.8399H26.8444ZM8.68732 81.8399H1.83683C1.34462 81.8399 0.945609 81.4409 0.945609 80.9487V76.0838C0.945609 75.5916 1.34462 75.1926 1.83683 75.1926H8.68732V81.8399Z" stroke="#DF9B30" stroke-width="0.891217"/>
</g>
<g id="Group 1005">
<g id="Ellipse 453">
<path d="M49.952 99.5566C43.4341 103.026 34.8631 99.7481 30.8576 92.0521C26.8521 84.356 29.0319 75.3543 35.5497 71.8844L40.573 69.2102C40.8135 69.0821 41.0855 69.0718 41.3112 69.1778C43.143 70.0377 46.0373 71.7284 48.7051 73.6507C50.0379 74.611 51.3064 75.6236 52.3538 76.6134C53.4069 77.6087 54.2116 78.5579 54.6441 79.3889C55.074 80.2149 55.3722 81.4297 55.5557 82.8883C55.7381 84.338 55.803 85.9913 55.7876 87.6701C55.7567 91.0291 55.4046 94.4521 55.0503 96.4808C55.0063 96.7322 54.8443 96.9521 54.6051 97.0794L54.5898 97.0876L54.5747 97.0956L54.5596 97.1036L54.5446 97.1116L54.5297 97.1195L54.5149 97.1274L54.5002 97.1353L54.4856 97.143L54.471 97.1508L54.4566 97.1585L54.4422 97.1661L54.4279 97.1737L54.4137 97.1813L54.3996 97.1888L54.3856 97.1963L54.3716 97.2037L54.3577 97.2111L54.3439 97.2185L54.3302 97.2258L54.3166 97.233L54.303 97.2402L54.2896 97.2474L54.2762 97.2545L54.2629 97.2616L54.2497 97.2686L54.2365 97.2756L54.2234 97.2826L54.2105 97.2895L54.1975 97.2964L54.1847 97.3032L54.172 97.31L54.1593 97.3168L54.1467 97.3235L54.1341 97.3301L54.1217 97.3368L54.1093 97.3434L54.097 97.3499L54.0848 97.3564L54.0726 97.3629L54.0605 97.3693L54.0485 97.3757L54.0366 97.3821L54.0248 97.3884L54.013 97.3947L54.0012 97.4009L53.9896 97.4071L53.978 97.4133L53.9665 97.4194L53.9551 97.4255L53.9437 97.4315L53.9324 97.4375L53.9212 97.4435L53.9101 97.4494L53.899 97.4553L53.888 97.4612L53.877 97.467L53.8661 97.4728L53.8553 97.4786L53.8446 97.4843L53.8339 97.49L53.8233 97.4956L53.8127 97.5013L53.8022 97.5068L53.7918 97.5124L53.7815 97.5179L53.7712 97.5234L53.7609 97.5288L53.7508 97.5342L53.7407 97.5396L53.7306 97.545L53.7207 97.5503L53.7108 97.5555L53.7009 97.5608L53.6911 97.566L53.6814 97.5712L53.6717 97.5763L53.6621 97.5814L53.6525 97.5865L53.643 97.5916L53.6336 97.5966L53.6242 97.6016L53.6149 97.6066L53.6057 97.6115L53.5965 97.6164L53.5873 97.6213L53.5782 97.6261L53.5692 97.6309L53.5602 97.6357L53.5513 97.6404L53.5424 97.6452L53.5336 97.6498L53.5249 97.6545L53.5162 97.6591L53.5075 97.6637L53.4989 97.6683L53.4904 97.6729L53.4819 97.6774L53.4734 97.6819L53.465 97.6864L53.4567 97.6908L53.4484 97.6952L53.4402 97.6996L53.432 97.7039L53.4238 97.7083L53.4158 97.7126L53.4077 97.7169L53.3997 97.7211L53.3918 97.7253L53.3839 97.7295L53.3761 97.7337L53.3683 97.7379L53.3605 97.742L53.3528 97.7461L53.3451 97.7502L53.3375 97.7542L53.33 97.7583L53.3224 97.7623L53.3149 97.7663L53.3075 97.7702L53.3001 97.7742L53.2928 97.7781L53.2855 97.782L53.2782 97.7858L53.271 97.7897L53.2638 97.7935L53.2567 97.7973L53.2496 97.8011L53.2425 97.8048L53.2355 97.8086L53.2285 97.8123L53.2216 97.816L53.2147 97.8196L53.2078 97.8233L53.201 97.8269L53.1942 97.8305L53.1875 97.8341L53.1808 97.8377L53.1741 97.8412L53.1675 97.8448L53.1609 97.8483L53.1543 97.8518L53.1478 97.8553L53.1413 97.8587L53.1348 97.8621L53.1284 97.8656L53.122 97.869L53.1157 97.8723L53.1093 97.8757L53.1031 97.8791L53.0968 97.8824L53.0906 97.8857L53.0844 97.889L53.0782 97.8923L53.0721 97.8955L53.066 97.8988L53.0599 97.902L53.0539 97.9052L53.0479 97.9084L53.0419 97.9116L53.0359 97.9148L53.03 97.918L53.0241 97.9211L53.0182 97.9242L53.0124 97.9273L53.0066 97.9304L53.0008 97.9335L52.995 97.9366L52.9893 97.9396L52.9836 97.9427L52.9779 97.9457L52.9722 97.9487L52.9666 97.9517L52.9609 97.9547L52.9554 97.9577L52.9498 97.9607L52.9442 97.9636L52.9387 97.9666L52.9332 97.9695L52.9277 97.9724L52.9223 97.9753L52.9168 97.9782L52.9114 97.9811L52.906 97.984L52.9006 97.9868L52.8953 97.9897L52.8899 97.9925L52.8846 97.9954L52.8793 97.9982L52.874 98.001L52.8687 98.0038L52.8635 98.0066L52.8582 98.0094L52.853 98.0122L52.8478 98.0149L52.8426 98.0177L52.8374 98.0205L52.8323 98.0232L52.8271 98.026L52.822 98.0287L52.8169 98.0314L52.8118 98.0341L52.8067 98.0368L52.8016 98.0395L52.7965 98.0422L52.7915 98.0449L52.7864 98.0476L52.7814 98.0503L52.7764 98.053L52.7714 98.0556L52.7663 98.0583L52.7614 98.061L52.7564 98.0636L52.7514 98.0663L52.7464 98.0689L52.7415 98.0716L52.7365 98.0742L52.7316 98.0768L52.7266 98.0795L52.7217 98.0821L52.7168 98.0847L52.7118 98.0873L52.7069 98.09L52.702 98.0926L52.6971 98.0952L52.6922 98.0978L52.6873 98.1004L52.6824 98.103L52.6775 98.1056L52.6726 98.1082L52.6677 98.1108L52.6628 98.1134L52.6579 98.116L52.6531 98.1186L52.6482 98.1212L52.6433 98.1238L52.6384 98.1264L52.6335 98.129L52.6286 98.1316L52.6238 98.1342L52.6189 98.1368L52.614 98.1394L52.6091 98.142L52.6042 98.1446L52.5993 98.1472L52.5944 98.1499L52.5895 98.1525L52.5846 98.1551L52.5797 98.1577L52.5747 98.1603L52.5698 98.1629L52.5649 98.1656L52.5599 98.1682L52.555 98.1708L52.5501 98.1735L52.5451 98.1761L52.5401 98.1787L52.5352 98.1814L52.5302 98.184L52.5252 98.1867L52.5202 98.1894L52.5152 98.192L52.5102 98.1947L52.5051 98.1974L52.5001 98.2001L52.4951 98.2027L52.49 98.2054L52.4849 98.2081L52.4798 98.2108L52.4747 98.2136L52.4696 98.2163L52.4645 98.219L52.4594 98.2217L52.4542 98.2245L52.449 98.2272L52.4439 98.23L52.4387 98.2328L52.4335 98.2355L52.4282 98.2383L52.423 98.2411L52.4177 98.2439L52.4124 98.2467L52.4072 98.2495L52.4018 98.2524L52.3965 98.2552L52.3912 98.258L52.3858 98.2609L52.3804 98.2638L52.375 98.2667L52.3696 98.2695L52.3641 98.2724L52.3587 98.2754L52.3532 98.2783L52.3477 98.2812L52.3421 98.2842L52.3366 98.2871L52.331 98.2901L52.3254 98.2931L52.3198 98.2961L52.3141 98.2991L52.3084 98.3021L52.3027 98.3051L52.297 98.3082L52.2913 98.3112L52.2855 98.3143L52.2797 98.3174L52.2739 98.3205L52.268 98.3236L52.2621 98.3267L52.2562 98.3299L52.2503 98.333L52.2443 98.3362L52.2383 98.3394L52.2323 98.3426L52.2263 98.3458L52.2202 98.3491L52.2141 98.3523L52.2079 98.3556L52.2018 98.3589L52.1956 98.3622L52.1893 98.3655L52.1831 98.3688L52.1768 98.3722L52.1704 98.3756L52.1641 98.3789L52.1577 98.3824L52.1512 98.3858L52.1448 98.3892L52.1383 98.3927L52.1317 98.3962L52.1251 98.3997L52.1185 98.4032L52.1119 98.4067L52.1052 98.4103L52.0985 98.4139L52.0917 98.4175L52.0849 98.4211L52.0781 98.4247L52.0712 98.4284L52.0643 98.4321L52.0574 98.4358L52.0504 98.4395L52.0433 98.4432L52.0363 98.447L52.0292 98.4508L52.022 98.4546L52.0148 98.4584L52.0076 98.4623L52.0003 98.4661L51.993 98.47L51.9856 98.4739L51.9782 98.4779L51.9708 98.4819L51.9633 98.4858L51.9557 98.4899L51.9481 98.4939L51.9405 98.498L51.9328 98.502L51.9251 98.5062L51.9174 98.5103L51.9095 98.5145L51.9017 98.5186L51.8938 98.5228L51.8858 98.5271L51.8778 98.5313L51.8697 98.5356L51.8616 98.5399L51.8535 98.5443L51.8453 98.5487L51.837 98.553L51.8287 98.5575L51.8204 98.5619L51.812 98.5664L51.8035 98.5709L51.795 98.5754L51.7864 98.58L51.7778 98.5846L51.7692 98.5892L51.7604 98.5938L51.7517 98.5985L51.7428 98.6032L51.7339 98.6079L51.725 98.6127L51.716 98.6175L51.7069 98.6223L51.6978 98.6271L51.6887 98.632L51.6795 98.6369L51.6702 98.6419L51.6608 98.6468L51.6514 98.6519L51.642 98.6569L51.6325 98.6619L51.6229 98.667L51.6133 98.6722L51.6036 98.6773L51.5938 98.6825L51.584 98.6877L51.5741 98.693L51.5642 98.6983L51.5542 98.7036L51.5442 98.709L51.534 98.7144L51.5238 98.7198L51.5136 98.7252L51.5033 98.7307L51.4929 98.7363L51.4825 98.7418L51.472 98.7474L51.4614 98.753L51.4507 98.7587L51.44 98.7644L51.4293 98.7701L51.4184 98.7759L51.4075 98.7817L51.3966 98.7875L51.3855 98.7934L51.3744 98.7993L51.3632 98.8053L51.352 98.8113L51.3407 98.8173L51.3293 98.8234L51.3178 98.8295L51.3063 98.8356L51.2947 98.8418L51.283 98.848L51.2713 98.8542L51.2595 98.8605L51.2476 98.8668L51.2357 98.8732L51.2236 98.8796L51.2115 98.8861L51.1993 98.8925L51.1871 98.8991L51.1748 98.9056L51.1624 98.9122L51.1499 98.9189L51.1373 98.9255L51.1247 98.9323L51.112 98.939L51.0992 98.9458L51.0863 98.9527L51.0734 98.9596L51.0604 98.9665L51.0473 98.9735L51.0341 98.9805L51.0209 98.9875L51.0075 98.9946L50.9941 99.0018L50.9806 99.009L50.9671 99.0162L50.9534 99.0235L50.9397 99.0308L50.9258 99.0381L50.9119 99.0455L50.898 99.053L50.8839 99.0605L50.8697 99.068L50.8555 99.0756L50.8412 99.0832L50.8268 99.0909L50.8123 99.0986L50.7977 99.1063L50.7831 99.1141L50.7683 99.122L50.7535 99.1299L50.7386 99.1378L50.7236 99.1458L50.7085 99.1539L50.6933 99.1619L50.678 99.1701L50.6627 99.1782L50.6472 99.1865L50.6317 99.1947L50.6161 99.2031L50.6003 99.2114L50.5845 99.2198L50.5686 99.2283L50.5526 99.2368L50.5366 99.2454L50.5204 99.254L50.5041 99.2626L50.4878 99.2714L50.4713 99.2801L50.4548 99.2889L50.4381 99.2978L50.4214 99.3067L50.4046 99.3156L50.3876 99.3247L50.3706 99.3337L50.3535 99.3428L50.3363 99.352L50.319 99.3612L50.3016 99.3705L50.2841 99.3798L50.2665 99.3892L50.2488 99.3986L50.231 99.4081L50.2131 99.4176L50.1951 99.4272L50.177 99.4368L50.1588 99.4465L50.1405 99.4562L50.1221 99.466L50.1036 99.4759L50.085 99.4858L50.0663 99.4957L50.0475 99.5057L50.0286 99.5158L50.0096 99.5259L49.9905 99.5361L49.9713 99.5463L49.952 99.5566Z" fill="url(#paint13_linear_0_37)"/>
<path d="M49.952 99.5566C43.4341 103.026 34.8631 99.7481 30.8576 92.0521C26.8521 84.356 29.0319 75.3543 35.5497 71.8844L40.573 69.2102C40.8135 69.0821 41.0855 69.0718 41.3112 69.1778C43.143 70.0377 46.0373 71.7284 48.7051 73.6507C50.0379 74.611 51.3064 75.6236 52.3538 76.6134C53.4069 77.6087 54.2116 78.5579 54.6441 79.3889C55.074 80.2149 55.3722 81.4297 55.5557 82.8883C55.7381 84.338 55.803 85.9913 55.7876 87.6701C55.7567 91.0291 55.4046 94.4521 55.0503 96.4808C55.0063 96.7322 54.8443 96.9521 54.6051 97.0794L54.5898 97.0876L54.5747 97.0956L54.5596 97.1036L54.5446 97.1116L54.5297 97.1195L54.5149 97.1274L54.5002 97.1353L54.4856 97.143L54.471 97.1508L54.4566 97.1585L54.4422 97.1661L54.4279 97.1737L54.4137 97.1813L54.3996 97.1888L54.3856 97.1963L54.3716 97.2037L54.3577 97.2111L54.3439 97.2185L54.3302 97.2258L54.3166 97.233L54.303 97.2402L54.2896 97.2474L54.2762 97.2545L54.2629 97.2616L54.2497 97.2686L54.2365 97.2756L54.2234 97.2826L54.2105 97.2895L54.1975 97.2964L54.1847 97.3032L54.172 97.31L54.1593 97.3168L54.1467 97.3235L54.1341 97.3301L54.1217 97.3368L54.1093 97.3434L54.097 97.3499L54.0848 97.3564L54.0726 97.3629L54.0605 97.3693L54.0485 97.3757L54.0366 97.3821L54.0248 97.3884L54.013 97.3947L54.0012 97.4009L53.9896 97.4071L53.978 97.4133L53.9665 97.4194L53.9551 97.4255L53.9437 97.4315L53.9324 97.4375L53.9212 97.4435L53.9101 97.4494L53.899 97.4553L53.888 97.4612L53.877 97.467L53.8661 97.4728L53.8553 97.4786L53.8446 97.4843L53.8339 97.49L53.8233 97.4956L53.8127 97.5013L53.8022 97.5068L53.7918 97.5124L53.7815 97.5179L53.7712 97.5234L53.7609 97.5288L53.7508 97.5342L53.7407 97.5396L53.7306 97.545L53.7207 97.5503L53.7108 97.5555L53.7009 97.5608L53.6911 97.566L53.6814 97.5712L53.6717 97.5763L53.6621 97.5814L53.6525 97.5865L53.643 97.5916L53.6336 97.5966L53.6242 97.6016L53.6149 97.6066L53.6057 97.6115L53.5965 97.6164L53.5873 97.6213L53.5782 97.6261L53.5692 97.6309L53.5602 97.6357L53.5513 97.6404L53.5424 97.6452L53.5336 97.6498L53.5249 97.6545L53.5162 97.6591L53.5075 97.6637L53.4989 97.6683L53.4904 97.6729L53.4819 97.6774L53.4734 97.6819L53.465 97.6864L53.4567 97.6908L53.4484 97.6952L53.4402 97.6996L53.432 97.7039L53.4238 97.7083L53.4158 97.7126L53.4077 97.7169L53.3997 97.7211L53.3918 97.7253L53.3839 97.7295L53.3761 97.7337L53.3683 97.7379L53.3605 97.742L53.3528 97.7461L53.3451 97.7502L53.3375 97.7542L53.33 97.7583L53.3224 97.7623L53.3149 97.7663L53.3075 97.7702L53.3001 97.7742L53.2928 97.7781L53.2855 97.782L53.2782 97.7858L53.271 97.7897L53.2638 97.7935L53.2567 97.7973L53.2496 97.8011L53.2425 97.8048L53.2355 97.8086L53.2285 97.8123L53.2216 97.816L53.2147 97.8196L53.2078 97.8233L53.201 97.8269L53.1942 97.8305L53.1875 97.8341L53.1808 97.8377L53.1741 97.8412L53.1675 97.8448L53.1609 97.8483L53.1543 97.8518L53.1478 97.8553L53.1413 97.8587L53.1348 97.8621L53.1284 97.8656L53.122 97.869L53.1157 97.8723L53.1093 97.8757L53.1031 97.8791L53.0968 97.8824L53.0906 97.8857L53.0844 97.889L53.0782 97.8923L53.0721 97.8955L53.066 97.8988L53.0599 97.902L53.0539 97.9052L53.0479 97.9084L53.0419 97.9116L53.0359 97.9148L53.03 97.918L53.0241 97.9211L53.0182 97.9242L53.0124 97.9273L53.0066 97.9304L53.0008 97.9335L52.995 97.9366L52.9893 97.9396L52.9836 97.9427L52.9779 97.9457L52.9722 97.9487L52.9666 97.9517L52.9609 97.9547L52.9554 97.9577L52.9498 97.9607L52.9442 97.9636L52.9387 97.9666L52.9332 97.9695L52.9277 97.9724L52.9223 97.9753L52.9168 97.9782L52.9114 97.9811L52.906 97.984L52.9006 97.9868L52.8953 97.9897L52.8899 97.9925L52.8846 97.9954L52.8793 97.9982L52.874 98.001L52.8687 98.0038L52.8635 98.0066L52.8582 98.0094L52.853 98.0122L52.8478 98.0149L52.8426 98.0177L52.8374 98.0205L52.8323 98.0232L52.8271 98.026L52.822 98.0287L52.8169 98.0314L52.8118 98.0341L52.8067 98.0368L52.8016 98.0395L52.7965 98.0422L52.7915 98.0449L52.7864 98.0476L52.7814 98.0503L52.7764 98.053L52.7714 98.0556L52.7663 98.0583L52.7614 98.061L52.7564 98.0636L52.7514 98.0663L52.7464 98.0689L52.7415 98.0716L52.7365 98.0742L52.7316 98.0768L52.7266 98.0795L52.7217 98.0821L52.7168 98.0847L52.7118 98.0873L52.7069 98.09L52.702 98.0926L52.6971 98.0952L52.6922 98.0978L52.6873 98.1004L52.6824 98.103L52.6775 98.1056L52.6726 98.1082L52.6677 98.1108L52.6628 98.1134L52.6579 98.116L52.6531 98.1186L52.6482 98.1212L52.6433 98.1238L52.6384 98.1264L52.6335 98.129L52.6286 98.1316L52.6238 98.1342L52.6189 98.1368L52.614 98.1394L52.6091 98.142L52.6042 98.1446L52.5993 98.1472L52.5944 98.1499L52.5895 98.1525L52.5846 98.1551L52.5797 98.1577L52.5747 98.1603L52.5698 98.1629L52.5649 98.1656L52.5599 98.1682L52.555 98.1708L52.5501 98.1735L52.5451 98.1761L52.5401 98.1787L52.5352 98.1814L52.5302 98.184L52.5252 98.1867L52.5202 98.1894L52.5152 98.192L52.5102 98.1947L52.5051 98.1974L52.5001 98.2001L52.4951 98.2027L52.49 98.2054L52.4849 98.2081L52.4798 98.2108L52.4747 98.2136L52.4696 98.2163L52.4645 98.219L52.4594 98.2217L52.4542 98.2245L52.449 98.2272L52.4439 98.23L52.4387 98.2328L52.4335 98.2355L52.4282 98.2383L52.423 98.2411L52.4177 98.2439L52.4124 98.2467L52.4072 98.2495L52.4018 98.2524L52.3965 98.2552L52.3912 98.258L52.3858 98.2609L52.3804 98.2638L52.375 98.2667L52.3696 98.2695L52.3641 98.2724L52.3587 98.2754L52.3532 98.2783L52.3477 98.2812L52.3421 98.2842L52.3366 98.2871L52.331 98.2901L52.3254 98.2931L52.3198 98.2961L52.3141 98.2991L52.3084 98.3021L52.3027 98.3051L52.297 98.3082L52.2913 98.3112L52.2855 98.3143L52.2797 98.3174L52.2739 98.3205L52.268 98.3236L52.2621 98.3267L52.2562 98.3299L52.2503 98.333L52.2443 98.3362L52.2383 98.3394L52.2323 98.3426L52.2263 98.3458L52.2202 98.3491L52.2141 98.3523L52.2079 98.3556L52.2018 98.3589L52.1956 98.3622L52.1893 98.3655L52.1831 98.3688L52.1768 98.3722L52.1704 98.3756L52.1641 98.3789L52.1577 98.3824L52.1512 98.3858L52.1448 98.3892L52.1383 98.3927L52.1317 98.3962L52.1251 98.3997L52.1185 98.4032L52.1119 98.4067L52.1052 98.4103L52.0985 98.4139L52.0917 98.4175L52.0849 98.4211L52.0781 98.4247L52.0712 98.4284L52.0643 98.4321L52.0574 98.4358L52.0504 98.4395L52.0433 98.4432L52.0363 98.447L52.0292 98.4508L52.022 98.4546L52.0148 98.4584L52.0076 98.4623L52.0003 98.4661L51.993 98.47L51.9856 98.4739L51.9782 98.4779L51.9708 98.4819L51.9633 98.4858L51.9557 98.4899L51.9481 98.4939L51.9405 98.498L51.9328 98.502L51.9251 98.5062L51.9174 98.5103L51.9095 98.5145L51.9017 98.5186L51.8938 98.5228L51.8858 98.5271L51.8778 98.5313L51.8697 98.5356L51.8616 98.5399L51.8535 98.5443L51.8453 98.5487L51.837 98.553L51.8287 98.5575L51.8204 98.5619L51.812 98.5664L51.8035 98.5709L51.795 98.5754L51.7864 98.58L51.7778 98.5846L51.7692 98.5892L51.7604 98.5938L51.7517 98.5985L51.7428 98.6032L51.7339 98.6079L51.725 98.6127L51.716 98.6175L51.7069 98.6223L51.6978 98.6271L51.6887 98.632L51.6795 98.6369L51.6702 98.6419L51.6608 98.6468L51.6514 98.6519L51.642 98.6569L51.6325 98.6619L51.6229 98.667L51.6133 98.6722L51.6036 98.6773L51.5938 98.6825L51.584 98.6877L51.5741 98.693L51.5642 98.6983L51.5542 98.7036L51.5442 98.709L51.534 98.7144L51.5238 98.7198L51.5136 98.7252L51.5033 98.7307L51.4929 98.7363L51.4825 98.7418L51.472 98.7474L51.4614 98.753L51.4507 98.7587L51.44 98.7644L51.4293 98.7701L51.4184 98.7759L51.4075 98.7817L51.3966 98.7875L51.3855 98.7934L51.3744 98.7993L51.3632 98.8053L51.352 98.8113L51.3407 98.8173L51.3293 98.8234L51.3178 98.8295L51.3063 98.8356L51.2947 98.8418L51.283 98.848L51.2713 98.8542L51.2595 98.8605L51.2476 98.8668L51.2357 98.8732L51.2236 98.8796L51.2115 98.8861L51.1993 98.8925L51.1871 98.8991L51.1748 98.9056L51.1624 98.9122L51.1499 98.9189L51.1373 98.9255L51.1247 98.9323L51.112 98.939L51.0992 98.9458L51.0863 98.9527L51.0734 98.9596L51.0604 98.9665L51.0473 98.9735L51.0341 98.9805L51.0209 98.9875L51.0075 98.9946L50.9941 99.0018L50.9806 99.009L50.9671 99.0162L50.9534 99.0235L50.9397 99.0308L50.9258 99.0381L50.9119 99.0455L50.898 99.053L50.8839 99.0605L50.8697 99.068L50.8555 99.0756L50.8412 99.0832L50.8268 99.0909L50.8123 99.0986L50.7977 99.1063L50.7831 99.1141L50.7683 99.122L50.7535 99.1299L50.7386 99.1378L50.7236 99.1458L50.7085 99.1539L50.6933 99.1619L50.678 99.1701L50.6627 99.1782L50.6472 99.1865L50.6317 99.1947L50.6161 99.2031L50.6003 99.2114L50.5845 99.2198L50.5686 99.2283L50.5526 99.2368L50.5366 99.2454L50.5204 99.254L50.5041 99.2626L50.4878 99.2714L50.4713 99.2801L50.4548 99.2889L50.4381 99.2978L50.4214 99.3067L50.4046 99.3156L50.3876 99.3247L50.3706 99.3337L50.3535 99.3428L50.3363 99.352L50.319 99.3612L50.3016 99.3705L50.2841 99.3798L50.2665 99.3892L50.2488 99.3986L50.231 99.4081L50.2131 99.4176L50.1951 99.4272L50.177 99.4368L50.1588 99.4465L50.1405 99.4562L50.1221 99.466L50.1036 99.4759L50.085 99.4858L50.0663 99.4957L50.0475 99.5057L50.0286 99.5158L50.0096 99.5259L49.9905 99.5361L49.9713 99.5463L49.952 99.5566Z" fill="url(#paint14_linear_0_37)"/>
<path d="M49.952 99.5566C43.4341 103.026 34.8631 99.7481 30.8576 92.0521C26.8521 84.356 29.0319 75.3543 35.5497 71.8844L40.573 69.2102C40.8135 69.0821 41.0855 69.0718 41.3112 69.1778C43.143 70.0377 46.0373 71.7284 48.7051 73.6507C50.0379 74.611 51.3064 75.6236 52.3538 76.6134C53.4069 77.6087 54.2116 78.5579 54.6441 79.3889C55.074 80.2149 55.3722 81.4297 55.5557 82.8883C55.7381 84.338 55.803 85.9913 55.7876 87.6701C55.7567 91.0291 55.4046 94.4521 55.0503 96.4808C55.0063 96.7322 54.8443 96.9521 54.6051 97.0794L54.5898 97.0876L54.5747 97.0956L54.5596 97.1036L54.5446 97.1116L54.5297 97.1195L54.5149 97.1274L54.5002 97.1353L54.4856 97.143L54.471 97.1508L54.4566 97.1585L54.4422 97.1661L54.4279 97.1737L54.4137 97.1813L54.3996 97.1888L54.3856 97.1963L54.3716 97.2037L54.3577 97.2111L54.3439 97.2185L54.3302 97.2258L54.3166 97.233L54.303 97.2402L54.2896 97.2474L54.2762 97.2545L54.2629 97.2616L54.2497 97.2686L54.2365 97.2756L54.2234 97.2826L54.2105 97.2895L54.1975 97.2964L54.1847 97.3032L54.172 97.31L54.1593 97.3168L54.1467 97.3235L54.1341 97.3301L54.1217 97.3368L54.1093 97.3434L54.097 97.3499L54.0848 97.3564L54.0726 97.3629L54.0605 97.3693L54.0485 97.3757L54.0366 97.3821L54.0248 97.3884L54.013 97.3947L54.0012 97.4009L53.9896 97.4071L53.978 97.4133L53.9665 97.4194L53.9551 97.4255L53.9437 97.4315L53.9324 97.4375L53.9212 97.4435L53.9101 97.4494L53.899 97.4553L53.888 97.4612L53.877 97.467L53.8661 97.4728L53.8553 97.4786L53.8446 97.4843L53.8339 97.49L53.8233 97.4956L53.8127 97.5013L53.8022 97.5068L53.7918 97.5124L53.7815 97.5179L53.7712 97.5234L53.7609 97.5288L53.7508 97.5342L53.7407 97.5396L53.7306 97.545L53.7207 97.5503L53.7108 97.5555L53.7009 97.5608L53.6911 97.566L53.6814 97.5712L53.6717 97.5763L53.6621 97.5814L53.6525 97.5865L53.643 97.5916L53.6336 97.5966L53.6242 97.6016L53.6149 97.6066L53.6057 97.6115L53.5965 97.6164L53.5873 97.6213L53.5782 97.6261L53.5692 97.6309L53.5602 97.6357L53.5513 97.6404L53.5424 97.6452L53.5336 97.6498L53.5249 97.6545L53.5162 97.6591L53.5075 97.6637L53.4989 97.6683L53.4904 97.6729L53.4819 97.6774L53.4734 97.6819L53.465 97.6864L53.4567 97.6908L53.4484 97.6952L53.4402 97.6996L53.432 97.7039L53.4238 97.7083L53.4158 97.7126L53.4077 97.7169L53.3997 97.7211L53.3918 97.7253L53.3839 97.7295L53.3761 97.7337L53.3683 97.7379L53.3605 97.742L53.3528 97.7461L53.3451 97.7502L53.3375 97.7542L53.33 97.7583L53.3224 97.7623L53.3149 97.7663L53.3075 97.7702L53.3001 97.7742L53.2928 97.7781L53.2855 97.782L53.2782 97.7858L53.271 97.7897L53.2638 97.7935L53.2567 97.7973L53.2496 97.8011L53.2425 97.8048L53.2355 97.8086L53.2285 97.8123L53.2216 97.816L53.2147 97.8196L53.2078 97.8233L53.201 97.8269L53.1942 97.8305L53.1875 97.8341L53.1808 97.8377L53.1741 97.8412L53.1675 97.8448L53.1609 97.8483L53.1543 97.8518L53.1478 97.8553L53.1413 97.8587L53.1348 97.8621L53.1284 97.8656L53.122 97.869L53.1157 97.8723L53.1093 97.8757L53.1031 97.8791L53.0968 97.8824L53.0906 97.8857L53.0844 97.889L53.0782 97.8923L53.0721 97.8955L53.066 97.8988L53.0599 97.902L53.0539 97.9052L53.0479 97.9084L53.0419 97.9116L53.0359 97.9148L53.03 97.918L53.0241 97.9211L53.0182 97.9242L53.0124 97.9273L53.0066 97.9304L53.0008 97.9335L52.995 97.9366L52.9893 97.9396L52.9836 97.9427L52.9779 97.9457L52.9722 97.9487L52.9666 97.9517L52.9609 97.9547L52.9554 97.9577L52.9498 97.9607L52.9442 97.9636L52.9387 97.9666L52.9332 97.9695L52.9277 97.9724L52.9223 97.9753L52.9168 97.9782L52.9114 97.9811L52.906 97.984L52.9006 97.9868L52.8953 97.9897L52.8899 97.9925L52.8846 97.9954L52.8793 97.9982L52.874 98.001L52.8687 98.0038L52.8635 98.0066L52.8582 98.0094L52.853 98.0122L52.8478 98.0149L52.8426 98.0177L52.8374 98.0205L52.8323 98.0232L52.8271 98.026L52.822 98.0287L52.8169 98.0314L52.8118 98.0341L52.8067 98.0368L52.8016 98.0395L52.7965 98.0422L52.7915 98.0449L52.7864 98.0476L52.7814 98.0503L52.7764 98.053L52.7714 98.0556L52.7663 98.0583L52.7614 98.061L52.7564 98.0636L52.7514 98.0663L52.7464 98.0689L52.7415 98.0716L52.7365 98.0742L52.7316 98.0768L52.7266 98.0795L52.7217 98.0821L52.7168 98.0847L52.7118 98.0873L52.7069 98.09L52.702 98.0926L52.6971 98.0952L52.6922 98.0978L52.6873 98.1004L52.6824 98.103L52.6775 98.1056L52.6726 98.1082L52.6677 98.1108L52.6628 98.1134L52.6579 98.116L52.6531 98.1186L52.6482 98.1212L52.6433 98.1238L52.6384 98.1264L52.6335 98.129L52.6286 98.1316L52.6238 98.1342L52.6189 98.1368L52.614 98.1394L52.6091 98.142L52.6042 98.1446L52.5993 98.1472L52.5944 98.1499L52.5895 98.1525L52.5846 98.1551L52.5797 98.1577L52.5747 98.1603L52.5698 98.1629L52.5649 98.1656L52.5599 98.1682L52.555 98.1708L52.5501 98.1735L52.5451 98.1761L52.5401 98.1787L52.5352 98.1814L52.5302 98.184L52.5252 98.1867L52.5202 98.1894L52.5152 98.192L52.5102 98.1947L52.5051 98.1974L52.5001 98.2001L52.4951 98.2027L52.49 98.2054L52.4849 98.2081L52.4798 98.2108L52.4747 98.2136L52.4696 98.2163L52.4645 98.219L52.4594 98.2217L52.4542 98.2245L52.449 98.2272L52.4439 98.23L52.4387 98.2328L52.4335 98.2355L52.4282 98.2383L52.423 98.2411L52.4177 98.2439L52.4124 98.2467L52.4072 98.2495L52.4018 98.2524L52.3965 98.2552L52.3912 98.258L52.3858 98.2609L52.3804 98.2638L52.375 98.2667L52.3696 98.2695L52.3641 98.2724L52.3587 98.2754L52.3532 98.2783L52.3477 98.2812L52.3421 98.2842L52.3366 98.2871L52.331 98.2901L52.3254 98.2931L52.3198 98.2961L52.3141 98.2991L52.3084 98.3021L52.3027 98.3051L52.297 98.3082L52.2913 98.3112L52.2855 98.3143L52.2797 98.3174L52.2739 98.3205L52.268 98.3236L52.2621 98.3267L52.2562 98.3299L52.2503 98.333L52.2443 98.3362L52.2383 98.3394L52.2323 98.3426L52.2263 98.3458L52.2202 98.3491L52.2141 98.3523L52.2079 98.3556L52.2018 98.3589L52.1956 98.3622L52.1893 98.3655L52.1831 98.3688L52.1768 98.3722L52.1704 98.3756L52.1641 98.3789L52.1577 98.3824L52.1512 98.3858L52.1448 98.3892L52.1383 98.3927L52.1317 98.3962L52.1251 98.3997L52.1185 98.4032L52.1119 98.4067L52.1052 98.4103L52.0985 98.4139L52.0917 98.4175L52.0849 98.4211L52.0781 98.4247L52.0712 98.4284L52.0643 98.4321L52.0574 98.4358L52.0504 98.4395L52.0433 98.4432L52.0363 98.447L52.0292 98.4508L52.022 98.4546L52.0148 98.4584L52.0076 98.4623L52.0003 98.4661L51.993 98.47L51.9856 98.4739L51.9782 98.4779L51.9708 98.4819L51.9633 98.4858L51.9557 98.4899L51.9481 98.4939L51.9405 98.498L51.9328 98.502L51.9251 98.5062L51.9174 98.5103L51.9095 98.5145L51.9017 98.5186L51.8938 98.5228L51.8858 98.5271L51.8778 98.5313L51.8697 98.5356L51.8616 98.5399L51.8535 98.5443L51.8453 98.5487L51.837 98.553L51.8287 98.5575L51.8204 98.5619L51.812 98.5664L51.8035 98.5709L51.795 98.5754L51.7864 98.58L51.7778 98.5846L51.7692 98.5892L51.7604 98.5938L51.7517 98.5985L51.7428 98.6032L51.7339 98.6079L51.725 98.6127L51.716 98.6175L51.7069 98.6223L51.6978 98.6271L51.6887 98.632L51.6795 98.6369L51.6702 98.6419L51.6608 98.6468L51.6514 98.6519L51.642 98.6569L51.6325 98.6619L51.6229 98.667L51.6133 98.6722L51.6036 98.6773L51.5938 98.6825L51.584 98.6877L51.5741 98.693L51.5642 98.6983L51.5542 98.7036L51.5442 98.709L51.534 98.7144L51.5238 98.7198L51.5136 98.7252L51.5033 98.7307L51.4929 98.7363L51.4825 98.7418L51.472 98.7474L51.4614 98.753L51.4507 98.7587L51.44 98.7644L51.4293 98.7701L51.4184 98.7759L51.4075 98.7817L51.3966 98.7875L51.3855 98.7934L51.3744 98.7993L51.3632 98.8053L51.352 98.8113L51.3407 98.8173L51.3293 98.8234L51.3178 98.8295L51.3063 98.8356L51.2947 98.8418L51.283 98.848L51.2713 98.8542L51.2595 98.8605L51.2476 98.8668L51.2357 98.8732L51.2236 98.8796L51.2115 98.8861L51.1993 98.8925L51.1871 98.8991L51.1748 98.9056L51.1624 98.9122L51.1499 98.9189L51.1373 98.9255L51.1247 98.9323L51.112 98.939L51.0992 98.9458L51.0863 98.9527L51.0734 98.9596L51.0604 98.9665L51.0473 98.9735L51.0341 98.9805L51.0209 98.9875L51.0075 98.9946L50.9941 99.0018L50.9806 99.009L50.9671 99.0162L50.9534 99.0235L50.9397 99.0308L50.9258 99.0381L50.9119 99.0455L50.898 99.053L50.8839 99.0605L50.8697 99.068L50.8555 99.0756L50.8412 99.0832L50.8268 99.0909L50.8123 99.0986L50.7977 99.1063L50.7831 99.1141L50.7683 99.122L50.7535 99.1299L50.7386 99.1378L50.7236 99.1458L50.7085 99.1539L50.6933 99.1619L50.678 99.1701L50.6627 99.1782L50.6472 99.1865L50.6317 99.1947L50.6161 99.2031L50.6003 99.2114L50.5845 99.2198L50.5686 99.2283L50.5526 99.2368L50.5366 99.2454L50.5204 99.254L50.5041 99.2626L50.4878 99.2714L50.4713 99.2801L50.4548 99.2889L50.4381 99.2978L50.4214 99.3067L50.4046 99.3156L50.3876 99.3247L50.3706 99.3337L50.3535 99.3428L50.3363 99.352L50.319 99.3612L50.3016 99.3705L50.2841 99.3798L50.2665 99.3892L50.2488 99.3986L50.231 99.4081L50.2131 99.4176L50.1951 99.4272L50.177 99.4368L50.1588 99.4465L50.1405 99.4562L50.1221 99.466L50.1036 99.4759L50.085 99.4858L50.0663 99.4957L50.0475 99.5057L50.0286 99.5158L50.0096 99.5259L49.9905 99.5361L49.9713 99.5463L49.952 99.5566Z" stroke="#DF9B30" stroke-width="0.891217"/>
</g>
<g id="Ellipse 454">
<path d="M58.5498 76.9333C62.5552 84.6294 60.3755 93.6311 53.8576 97.101C47.3397 100.571 38.7687 97.2926 34.7632 89.5965C30.7578 81.9005 32.9375 72.8987 39.4554 69.4288C45.9732 65.9589 54.5443 69.2373 58.5498 76.9333Z" fill="url(#paint15_linear_0_37)"/>
<path d="M58.5498 76.9333C62.5552 84.6294 60.3755 93.6311 53.8576 97.101C47.3397 100.571 38.7687 97.2926 34.7632 89.5965C30.7578 81.9005 32.9375 72.8987 39.4554 69.4288C45.9732 65.9589 54.5443 69.2373 58.5498 76.9333Z" fill="url(#paint16_linear_0_37)"/>
<path d="M58.5498 76.9333C62.5552 84.6294 60.3755 93.6311 53.8576 97.101C47.3397 100.571 38.7687 97.2926 34.7632 89.5965C30.7578 81.9005 32.9375 72.8987 39.4554 69.4288C45.9732 65.9589 54.5443 69.2373 58.5498 76.9333Z" stroke="#DF9B30" stroke-width="0.891217"/>
</g>
<g id="Ellipse 455">
<path d="M56.1816 78.2423C59.2889 84.2126 57.5889 91.1722 52.561 93.8489C47.5331 96.5256 40.8981 94.0032 37.7908 88.033C34.6835 82.0628 36.3836 75.1031 41.4115 72.4264C46.4393 69.7498 53.0744 72.2721 56.1816 78.2423Z" fill="url(#paint17_linear_0_37)"/>
<path d="M56.1816 78.2423C59.2889 84.2126 57.5889 91.1722 52.561 93.8489C47.5331 96.5256 40.8981 94.0032 37.7908 88.033C34.6835 82.0628 36.3836 75.1031 41.4115 72.4264C46.4393 69.7498 53.0744 72.2721 56.1816 78.2423Z" fill="url(#paint18_linear_0_37)"/>
<path d="M56.1816 78.2423C59.2889 84.2126 57.5889 91.1722 52.561 93.8489C47.5331 96.5256 40.8981 94.0032 37.7908 88.033C34.6835 82.0628 36.3836 75.1031 41.4115 72.4264C46.4393 69.7498 53.0744 72.2721 56.1816 78.2423Z" stroke="#DF9B30" stroke-width="0.891217"/>
</g>
<path id="Line 348" d="M34.8838 90.025L30.967 92.1067" stroke="#DF9B30" stroke-width="0.891217"/>
<path id="Line 351" d="M38.9446 94.7841L35.0278 96.8658" stroke="#DF9B30" stroke-width="0.891217"/>
<path id="Line 352" d="M45.0769 97.9204L40.1217 100.554" stroke="#DF9B30" stroke-width="0.891217"/>
<path id="Line 349" d="M33.296 83.9483L29.3792 86.03" stroke="#DF9B30" stroke-width="0.891217"/>
<path id="Line 350" d="M33.1683 77.624L29.2515 79.7056" stroke="#DF9B30" stroke-width="0.891217"/>
</g>
</g>
</g>
<defs>
<linearGradient id="paint0_linear_0_37" x1="75.9064" y1="93.7462" x2="75.9064" y2="72.6767" gradientUnits="userSpaceOnUse">
<stop stop-color="#798DF3"/>
<stop offset="1" stop-color="#3554EC"/>
</linearGradient>
<linearGradient id="paint1_linear_0_37" x1="51.2107" y1="16.4914" x2="51.2107" y2="101.408" gradientUnits="userSpaceOnUse">
<stop stop-color="#E8EFFD"/>
<stop offset="1" stop-color="#BCC6F9"/>
</linearGradient>
<linearGradient id="paint2_linear_0_37" x1="22.3466" y1="87.6808" x2="56.5921" y2="28.9232" gradientUnits="userSpaceOnUse">
<stop stop-color="#BCC6F9"/>
<stop offset="1" stop-color="#798DF3"/>
</linearGradient>
<linearGradient id="paint3_linear_0_37" x1="14.4612" y1="16.4922" x2="14.4612" y2="52.885" gradientUnits="userSpaceOnUse">
<stop stop-color="#BCC6F9"/>
<stop offset="1" stop-color="#798DF3"/>
</linearGradient>
<linearGradient id="paint4_linear_0_37" x1="26.196" y1="45.8608" x2="26.196" y2="23.5144" gradientUnits="userSpaceOnUse">
<stop stop-color="#798DF3"/>
<stop offset="1" stop-color="#3554EC"/>
</linearGradient>
<linearGradient id="paint5_linear_0_37" x1="35.0358" y1="94.5366" x2="3.28263" y2="100.549" gradientUnits="userSpaceOnUse">
<stop stop-color="#FFE991"/>
<stop offset="1" stop-color="#FFC978"/>
</linearGradient>
<linearGradient id="paint6_linear_0_37" x1="35.5025" y1="98.3059" x2="16.37" y2="98.3059" gradientUnits="userSpaceOnUse">
<stop stop-color="white" stop-opacity="0"/>
<stop offset="0.435346" stop-color="white"/>
<stop offset="1" stop-color="white" stop-opacity="0"/>
</linearGradient>
<linearGradient id="paint7_linear_0_37" x1="33.1651" y1="87.9405" x2="1.41194" y2="93.9528" gradientUnits="userSpaceOnUse">
<stop stop-color="#FFE991"/>
<stop offset="1" stop-color="#FFC978"/>
</linearGradient>
<linearGradient id="paint8_linear_0_37" x1="33.6318" y1="91.7097" x2="14.4993" y2="91.7097" gradientUnits="userSpaceOnUse">
<stop stop-color="white" stop-opacity="0"/>
<stop offset="0.435346" stop-color="white"/>
<stop offset="1" stop-color="white" stop-opacity="0"/>
</linearGradient>
<linearGradient id="paint9_linear_0_37" x1="36.8974" y1="81.3443" x2="5.1442" y2="87.3566" gradientUnits="userSpaceOnUse">
<stop stop-color="#FFE991"/>
<stop offset="1" stop-color="#FFC978"/>
</linearGradient>
<linearGradient id="paint10_linear_0_37" x1="37.364" y1="85.1136" x2="18.2316" y2="85.1136" gradientUnits="userSpaceOnUse">
<stop stop-color="white" stop-opacity="0"/>
<stop offset="0.435346" stop-color="white"/>
<stop offset="1" stop-color="white" stop-opacity="0"/>
</linearGradient>
<linearGradient id="paint11_linear_0_37" x1="33.1651" y1="74.747" x2="1.41194" y2="80.7593" gradientUnits="userSpaceOnUse">
<stop stop-color="#FFE991"/>
<stop offset="1" stop-color="#FFC978"/>
</linearGradient>
<linearGradient id="paint12_linear_0_37" x1="33.6318" y1="78.5163" x2="14.4993" y2="78.5163" gradientUnits="userSpaceOnUse">
<stop stop-color="white" stop-opacity="0"/>
<stop offset="0.435346" stop-color="white"/>
<stop offset="1" stop-color="white" stop-opacity="0"/>
</linearGradient>
<linearGradient id="paint13_linear_0_37" x1="46.3023" y1="65.6552" x2="23.2431" y2="78.7278" gradientUnits="userSpaceOnUse">
<stop stop-color="#FFE991"/>
<stop offset="1" stop-color="#FFC978"/>
</linearGradient>
<linearGradient id="paint14_linear_0_37" x1="54.0413" y1="79.7098" x2="40.36" y2="86.8304" gradientUnits="userSpaceOnUse">
<stop stop-color="white" stop-opacity="0"/>
<stop offset="0.435346" stop-color="white"/>
<stop offset="1" stop-color="white" stop-opacity="0"/>
</linearGradient>
<linearGradient id="paint15_linear_0_37" x1="50.208" y1="63.1997" x2="27.1488" y2="76.2723" gradientUnits="userSpaceOnUse">
<stop stop-color="#FFE991"/>
<stop offset="1" stop-color="#FFC978"/>
</linearGradient>
<linearGradient id="paint16_linear_0_37" x1="57.9469" y1="77.2543" x2="44.2656" y2="84.3748" gradientUnits="userSpaceOnUse">
<stop stop-color="white" stop-opacity="0"/>
<stop offset="0.435346" stop-color="white"/>
<stop offset="1" stop-color="white" stop-opacity="0"/>
</linearGradient>
<linearGradient id="paint17_linear_0_37" x1="49.7579" y1="67.4783" x2="31.762" y2="77.6804" gradientUnits="userSpaceOnUse">
<stop stop-color="#FFE991"/>
<stop offset="1" stop-color="#FFC978"/>
</linearGradient>
<linearGradient id="paint18_linear_0_37" x1="55.7975" y1="78.4468" x2="45.1203" y2="84.0039" gradientUnits="userSpaceOnUse">
<stop stop-color="white" stop-opacity="0"/>
<stop offset="0.435346" stop-color="white"/>
<stop offset="1" stop-color="white" stop-opacity="0"/>
</linearGradient>
</defs>
</svg>
