<svg width="72" height="71" viewBox="0 0 72 71" fill="none" xmlns="http://www.w3.org/2000/svg">
<g filter="url(#filter0_d_1943_50451)">
<path d="M45.8177 10.1693L50.2485 18.0765L58.8713 20.87L57.8082 29.8714L63.1422 37.1997L56.9912 43.8572L56.9991 52.9211L48.1097 54.6917L42.7883 62.0292L34.556 58.2365L25.938 61.0449L21.5072 53.1377L12.8844 50.3442L13.9475 41.3428L8.61351 34.0145L14.7645 27.3571L14.7567 18.2931L23.646 16.5225L28.9674 9.18502L37.1997 12.9777L45.8177 10.1693Z" fill="#D93535"/>
</g>
<path d="M26.7813 24.7086C26.6202 24.5205 26.4363 24.3509 26.2295 24.1997C26.0254 24.0418 25.8235 23.9082 25.6238 23.7989C25.4268 23.6828 25.2604 23.5982 25.1247 23.5452C24.616 23.3464 24.1237 23.2557 23.6477 23.273C23.1718 23.2903 22.721 23.4035 22.2953 23.6125C21.8764 23.8241 21.5014 24.1233 21.1705 24.51C20.8422 24.89 20.5747 25.3445 20.3679 25.8736C20.1744 26.3688 20.0607 26.86 20.0267 27.3471C19.9995 27.8369 20.0614 28.299 20.2123 28.7332C20.3631 29.1675 20.6063 29.5558 20.9417 29.8979C21.284 30.2428 21.723 30.5199 22.2589 30.7293C22.4489 30.8035 22.6671 30.8653 22.9136 30.9148C23.1643 30.9736 23.4182 31.0142 23.6753 31.0365C23.9325 31.0588 24.1665 31.0603 24.3773 31.041L24.2604 29.8694C24.0157 29.8754 23.7559 29.8599 23.481 29.8229C23.2062 29.7858 22.9229 29.7103 22.6312 29.5964C22.3328 29.4797 22.0934 29.3119 21.9131 29.0929C21.7328 28.8739 21.6098 28.6186 21.5439 28.327C21.4848 28.0381 21.4694 27.7271 21.4979 27.3942C21.5331 27.0639 21.6156 26.7326 21.7455 26.4002C21.9523 25.8711 22.212 25.4565 22.5247 25.1565C22.8401 24.8497 23.1834 24.6515 23.5546 24.562C23.9258 24.4724 24.2912 24.4979 24.6507 24.6384C24.8542 24.7179 25.0218 24.7991 25.1537 24.8819C25.2855 24.9647 25.4181 25.0556 25.5515 25.1546C25.6875 25.2468 25.8385 25.3606 26.0046 25.4958L26.7813 24.7086ZM27.2573 32.659C26.7214 32.4496 26.2978 32.1629 25.9865 31.7988C25.6753 31.4348 25.4867 31.0171 25.4207 30.5456C25.3573 30.0673 25.4277 29.567 25.6318 29.0447C25.8453 28.5183 26.1328 28.1028 26.4942 27.7983C26.865 27.4897 27.2882 27.3071 27.7638 27.2506C28.2488 27.1899 28.7559 27.2629 29.285 27.4697C29.8277 27.6817 30.2513 27.9684 30.5557 28.3298C30.867 28.6938 31.0556 29.1116 31.1216 29.583C31.1876 30.0545 31.1172 30.5548 30.9105 31.0839C30.7064 31.6062 30.4189 32.0217 30.0481 32.3303C29.6773 32.6389 29.2528 32.8249 28.7745 32.8882C28.2989 32.9448 27.7932 32.8684 27.2573 32.659ZM27.7088 31.5335C27.9598 31.6316 28.202 31.652 28.4355 31.5946C28.6758 31.54 28.894 31.4219 29.09 31.2405C29.286 31.059 29.4383 30.8292 29.547 30.5511C29.6583 30.2662 29.7021 29.994 29.6784 29.7346C29.6547 29.4751 29.5717 29.2472 29.4295 29.0509C29.2899 28.8478 29.0947 28.6972 28.8437 28.5991C28.5995 28.5037 28.3538 28.482 28.1068 28.534C27.8665 28.5887 27.6483 28.7067 27.4523 28.8881C27.2589 29.0628 27.1066 29.2926 26.9953 29.5775C26.884 29.8624 26.8401 30.1346 26.8639 30.3941C26.8876 30.6535 26.9726 30.8862 27.119 31.0919C27.268 31.2909 27.4646 31.4381 27.7088 31.5335ZM32.0708 34.3991L33.4028 30.9905C33.5499 30.9541 33.7065 30.9136 33.8725 30.869C34.0385 30.8244 34.2046 30.7994 34.3709 30.794C34.5372 30.7887 34.6984 30.8164 34.8544 30.8774C35.0036 30.9357 35.1078 31.0194 35.1668 31.1285C35.2258 31.2376 35.2479 31.3713 35.2329 31.5296C35.2206 31.6812 35.172 31.8655 35.0872 32.0826L33.9024 35.1148L35.2251 35.6317L36.5133 32.3349C36.6618 31.955 36.7368 31.613 36.7384 31.3086C36.7427 30.9975 36.6573 30.7257 36.4824 30.4931C36.3074 30.2606 36.0232 30.0674 35.6298 29.9137C35.4805 29.8554 35.2935 29.8136 35.0688 29.7883C34.8468 29.7563 34.606 29.7521 34.3465 29.7758C34.0897 29.7928 33.8283 29.8314 33.5624 29.8917L33.5413 29.2853L32.6764 28.9473L30.7481 33.8822L32.0708 34.3991ZM36.5469 32.219C36.694 32.1827 36.8506 32.1422 37.0166 32.0976C37.1826 32.053 37.3487 32.028 37.515 32.0226C37.6813 32.0172 37.8425 32.045 37.9985 32.106C38.1477 32.1643 38.2485 32.2467 38.3007 32.3531C38.3598 32.4622 38.3818 32.5959 38.3668 32.7542C38.3613 32.9084 38.3161 33.0941 38.2313 33.3112L37.0465 36.3433L38.3692 36.8602L39.6574 33.5635C39.8059 33.1836 39.8809 32.8415 39.8825 32.5372C39.8868 32.2261 39.8015 31.9543 39.6265 31.7217C39.4515 31.4891 39.1673 31.296 38.7739 31.1422C38.6178 31.0813 38.4275 31.0382 38.2028 31.0129C37.9875 30.9835 37.7501 30.9807 37.4906 31.0044C37.2338 31.0213 36.9724 31.0599 36.7065 31.1202L36.5469 32.219ZM40.7855 37.8044L42.7138 32.8694L41.3809 32.3486L39.4526 37.2835L40.7855 37.8044ZM42.3126 31.9151C42.5161 31.9946 42.717 31.991 42.9151 31.9042C43.1158 31.8106 43.2573 31.6587 43.3395 31.4484C43.4216 31.2381 43.4159 31.0326 43.3224 30.8319C43.2356 30.6337 43.0904 30.4949 42.8869 30.4154C42.6834 30.3359 42.4826 30.3395 42.2845 30.4263C42.0864 30.5131 41.9463 30.6616 41.8641 30.8719C41.7819 31.0822 41.7829 31.2898 41.867 31.4947C41.9538 31.6928 42.1024 31.833 42.3126 31.9151ZM43.2198 38.7556L44.5517 35.3469C44.6988 35.3105 44.8588 35.2714 45.0315 35.2294C45.2111 35.1901 45.3942 35.1718 45.5809 35.1743C45.7675 35.1769 45.9423 35.21 46.1051 35.2736C46.3221 35.3584 46.4633 35.5074 46.5286 35.7206C46.5938 35.9337 46.5642 36.1997 46.4396 36.5186L45.2548 39.5507L46.5775 40.0676L47.7862 36.9744C47.9347 36.5945 48.0163 36.2355 48.0312 35.8972C48.0555 35.5549 47.98 35.2478 47.8047 34.976C47.6362 34.7069 47.3281 34.4848 46.8804 34.3099C46.704 34.241 46.4967 34.1912 46.2584 34.1607C46.0296 34.126 45.7787 34.1178 45.5056 34.1363C45.242 34.1505 44.9772 34.1878 44.7113 34.2481L44.6902 33.6417L43.8253 33.3038L41.897 38.2387L43.2198 38.7556ZM54.1977 37.3567L53.5057 37.0864L52.4972 37.8065L50.8591 41.9987C50.7319 42.3243 50.507 42.5296 50.1844 42.6147C49.866 42.7092 49.5087 42.683 49.1127 42.536C48.8643 42.4312 48.6279 42.2958 48.4034 42.1299C48.179 41.964 47.9432 41.7468 47.6963 41.4782L46.9337 42.2593C47.0349 42.4005 47.1638 42.5408 47.3205 42.6802C47.4745 42.8264 47.6405 42.9616 47.8187 43.086C47.9969 43.2104 48.1668 43.3158 48.3284 43.4025C48.4942 43.4985 48.6279 43.5664 48.7297 43.6062C49.252 43.8103 49.7417 43.9078 50.1987 43.8987C50.6532 43.8964 51.0499 43.7817 51.3888 43.5545C51.7346 43.3299 51.9976 42.987 52.1779 42.5257L54.1977 37.3567ZM51.8694 40.2236C51.5471 40.3479 51.2597 40.4232 51.007 40.4496C50.7611 40.4786 50.5228 40.4481 50.2921 40.3579C50.0547 40.2652 49.8683 40.122 49.7329 39.9283C49.6068 39.7305 49.5388 39.5045 49.5286 39.2503C49.5253 38.9988 49.5779 38.734 49.6866 38.4558C49.8006 38.1642 49.9441 37.927 50.1171 37.7444C50.2995 37.5577 50.5041 37.4343 50.7308 37.3743C50.9575 37.3144 51.1964 37.3334 51.4474 37.4315C51.6712 37.519 51.865 37.6533 52.0288 37.8346C52.202 38.0117 52.359 38.2803 52.4998 38.6403L53.216 37.888C53.1752 37.6922 53.0877 37.486 52.9534 37.2693C52.8259 37.0553 52.6641 36.8591 52.4679 36.6808C52.2785 36.5052 52.0786 36.3763 51.8684 36.2941C51.3393 36.0874 50.841 36.0217 50.3737 36.0971C49.9158 36.1684 49.5082 36.361 49.151 36.6749C48.8032 36.9847 48.5272 37.4008 48.3231 37.9231C48.1217 38.4386 48.0438 38.9281 48.0894 39.3917C48.1418 39.8578 48.3122 40.2724 48.6004 40.6352C48.8913 40.9913 49.2912 41.2687 49.7999 41.4675C50.0374 41.5603 50.2724 41.6091 50.5051 41.614C50.7445 41.6216 50.9823 41.5933 51.2185 41.5292C51.4573 41.4583 51.6871 41.3604 51.9079 41.2356L51.8694 40.2236ZM21.0938 41.392C21.1799 41.5117 21.2946 41.6386 21.4376 41.7727C21.5807 41.9068 21.74 42.0394 21.9155 42.1705C22.091 42.3016 22.2638 42.42 22.4337 42.5254C22.6077 42.6404 22.7659 42.7256 22.9084 42.7813C23.4646 42.9987 23.9658 43.0968 24.4119 43.0756C24.8581 43.0545 25.2372 42.9446 25.5494 42.746C25.8642 42.5406 26.0932 42.2548 26.2364 41.8884C26.353 41.59 26.3927 41.3084 26.3554 41.0436C26.3181 40.7788 26.2308 40.5218 26.0936 40.2727C25.959 40.0169 25.7941 39.7687 25.5987 39.5281C25.4128 39.2835 25.2256 39.0422 25.0371 38.8043C24.8757 38.5771 24.7144 38.3694 24.5533 38.1813C24.3949 37.9865 24.2798 37.8008 24.2081 37.6242C24.1363 37.4476 24.1336 37.2745 24.1999 37.1049C24.2926 36.8675 24.4599 36.7296 24.7017 36.6911C24.9435 36.6527 25.2136 36.6918 25.5121 36.8084C25.7088 36.8853 25.8827 36.9806 26.0337 37.0943C26.1941 37.2039 26.3391 37.3231 26.4687 37.4519C26.6008 37.5739 26.7215 37.6954 26.8306 37.8162L27.6918 36.933C27.4776 36.7007 27.2188 36.4627 26.9152 36.219C26.6117 35.9753 26.2869 35.7858 25.941 35.6506C25.439 35.4545 24.9765 35.3676 24.5533 35.3899C24.137 35.4149 23.7795 35.5293 23.4809 35.7332C23.1891 35.9398 22.9742 36.2194 22.8364 36.5721C22.733 36.8367 22.6986 37.1048 22.7333 37.3763C22.7706 37.6411 22.8552 37.9048 22.9871 38.1675C23.119 38.4302 23.2732 38.6859 23.4497 38.9347C23.6329 39.1861 23.8175 39.4342 24.0034 39.6788C24.166 39.8831 24.3251 40.0861 24.4809 40.2877C24.6394 40.4825 24.7592 40.6662 24.8404 40.8386C24.9283 41.0137 24.9418 41.1793 24.8808 41.3353C24.8172 41.4981 24.7154 41.6186 24.5754 41.6968C24.4448 41.7709 24.2773 41.7993 24.073 41.782C23.8686 41.7647 23.6274 41.7017 23.3492 41.593C23.1525 41.5162 22.9549 41.4116 22.7564 41.2793C22.5673 41.1428 22.389 40.9989 22.2214 40.8474C22.0606 40.6986 21.9223 40.5624 21.8063 40.4389L21.0938 41.392ZM28.6444 45.0109C28.1086 44.8015 27.685 44.5148 27.3737 44.1508C27.0624 43.7868 26.8738 43.369 26.8078 42.8976C26.7445 42.4193 26.8149 41.919 27.019 41.3967C27.2325 40.8702 27.52 40.4548 27.8813 40.1503C28.2521 39.8417 28.6753 39.6591 29.1509 39.6025C29.636 39.5419 30.1431 39.6149 30.6722 39.8216C31.2148 40.0337 31.6384 40.3204 31.9429 40.6818C32.2542 41.0458 32.4428 41.4635 32.5088 41.935C32.5748 42.4065 32.5044 42.9068 32.2976 43.4359C32.0935 43.9582 31.8061 44.3737 31.4353 44.6823C31.0645 44.9909 30.6399 45.1769 30.1617 45.2402C29.6861 45.2968 29.1803 45.2203 28.6444 45.0109ZM29.0959 43.8855C29.3469 43.9836 29.5892 44.0039 29.8227 43.9466C30.063 43.8919 30.2811 43.7739 30.4772 43.5925C30.6732 43.411 30.8255 43.1812 30.9342 42.9031C31.0455 42.6182 31.0893 42.346 31.0656 42.0865C31.0419 41.8271 30.9589 41.5992 30.8167 41.4028C30.6771 41.1997 30.4818 41.0491 30.2308 40.9511C29.9866 40.8557 29.741 40.834 29.4939 40.886C29.2536 40.9406 29.0355 41.0587 28.8395 41.2401C28.6461 41.4148 28.4938 41.6446 28.3824 41.9295C28.2711 42.2144 28.2273 42.4866 28.251 42.746C28.2747 43.0055 28.3598 43.2381 28.5061 43.4439C28.6551 43.6429 28.8517 43.7901 29.0959 43.8855ZM34.4176 47.2668C33.8817 47.0574 33.4582 46.7707 33.1469 46.4067C32.8356 46.0427 32.647 45.6249 32.581 45.1534C32.5177 44.6752 32.5881 44.1749 32.7922 43.6526C33.0057 43.1261 33.2931 42.7106 33.6545 42.4062C34.0253 42.0975 34.4485 41.915 34.9241 41.8584C35.4092 41.7977 35.9162 41.8708 36.4454 42.0775C36.988 42.2896 37.4116 42.5763 37.7161 42.9376C38.0274 43.3017 38.216 43.7194 38.282 44.1909C38.348 44.6624 38.2776 45.1626 38.0708 45.6918C37.8667 46.2141 37.5793 46.6295 37.2085 46.9382C36.8377 47.2468 36.4131 47.4328 35.9349 47.4961C35.4593 47.5526 34.9535 47.4762 34.4176 47.2668ZM34.8691 46.1414C35.1201 46.2394 35.3624 46.2598 35.5959 46.2025C35.8362 46.1478 36.0543 46.0298 36.2503 45.8483C36.4463 45.6669 36.5987 45.4371 36.7074 45.159C36.8187 44.8741 36.8625 44.6019 36.8388 44.3424C36.8151 44.0829 36.7321 43.855 36.5899 43.6587C36.4503 43.4556 36.255 43.305 36.004 43.2069C35.7598 43.1115 35.5142 43.0898 35.2671 43.1418C35.0268 43.1965 34.8087 43.3146 34.6126 43.496C34.4193 43.6707 34.267 43.9004 34.1556 44.1853C34.0443 44.4703 34.0005 44.7424 34.0242 45.0019C34.0479 45.2614 34.133 45.494 34.2793 45.6998C34.4283 45.8987 34.6249 46.0459 34.8691 46.1414ZM39.2312 49.007L40.5631 45.5983C40.7103 45.562 40.8702 45.5228 41.043 45.4809C41.2225 45.4416 41.4056 45.4232 41.5923 45.4258C41.779 45.4283 41.9537 45.4614 42.1165 45.525C42.3336 45.6098 42.4747 45.7588 42.54 45.972C42.6053 46.1852 42.5756 46.4512 42.451 46.77L41.2662 49.8022L42.589 50.319L43.7977 47.2258C43.9461 46.8459 44.0278 46.4869 44.0426 46.1486C44.0669 45.8063 43.9914 45.4992 43.8162 45.2274C43.6477 44.9583 43.3396 44.7362 42.8919 44.5613C42.7155 44.4924 42.5082 44.4426 42.2699 44.4121C42.041 44.3774 41.7901 44.3693 41.5171 44.3877C41.2534 44.402 40.9887 44.4392 40.7227 44.4995L40.7016 43.8931L39.8368 43.5552L37.9084 48.4901L39.2312 49.007Z" fill="#F0F2F3"/>
<defs>
<filter id="filter0_d_1943_50451" x="8.61328" y="9.18457" width="54.5293" height="54.4834" filterUnits="userSpaceOnUse" color-interpolation-filters="sRGB">
<feFlood flood-opacity="0" result="BackgroundImageFix"/>
<feColorMatrix in="SourceAlpha" type="matrix" values="0 0 0 0 0 0 0 0 0 0 0 0 0 0 0 0 0 0 127 0" result="hardAlpha"/>
<feOffset dy="1.63865"/>
<feComposite in2="hardAlpha" operator="out"/>
<feColorMatrix type="matrix" values="0 0 0 0 0.207843 0 0 0 0 0.329412 0 0 0 0 0.92549 0 0 0 1 0"/>
<feBlend mode="normal" in2="BackgroundImageFix" result="effect1_dropShadow_1943_50451"/>
<feBlend mode="normal" in="SourceGraphic" in2="effect1_dropShadow_1943_50451" result="shape"/>
</filter>
</defs>
<!-- CUMING SOON -->
</svg>
