<svg width="133" height="76" viewBox="0 0 133 76" fill="none" xmlns="http://www.w3.org/2000/svg">
<g id="Group 2159">
<g id="Frame 2638" clip-path="url(#clip0_5_4681)">
<path id="Vector" d="M14.5838 62.8789L24.8574 66.5606L18.4697 82.4234C20.2258 92.6058 12.1834 102.224 14.2163 112.799C16.3607 113.561 16.406 116.818 20.532 119.961C18.5518 122.453 15.8815 117.813 15.1115 119.254C14.4153 120.556 18.3067 129.952 15.1015 129.973C14.8372 128.624 13.3862 123.832 12.8137 123.211C12.3117 123.309 14.1229 131.391 11.7475 131.273C11.4899 129.958 10.7317 123.383 10.0351 123.434C9.78409 123.823 11.0979 130.294 8.52466 130.5C8.30314 129.369 8.83148 124.118 8.22521 123.579C7.65718 124.814 7.9748 128.138 6.31786 128.271C6.4297 125.824 7.63605 121.014 7.75799 112.608C7.87993 104.202 8.6479 92.178 9.65823 80.1932L14.5838 62.8789Z" fill="white" stroke="#0C2083" stroke-width="0.424209" stroke-linecap="round"/>
<path id="Vector_2" d="M77.3476 62.8789L67.074 66.5606L73.4617 82.4234C71.7056 92.6058 79.7479 102.224 77.7151 112.799C75.5707 113.561 75.5254 116.818 71.3994 119.961C73.3796 122.453 76.0499 117.813 76.8199 119.254C77.5161 120.556 73.6247 129.952 76.8299 129.973C77.0942 128.624 78.5452 123.832 79.1177 123.211C79.6197 123.309 77.8085 131.391 80.1839 131.273C80.4415 129.958 81.1997 123.383 81.8963 123.434C82.1473 123.823 80.8335 130.294 83.4067 130.5C83.6283 129.369 83.0999 124.118 83.7062 123.579C84.2742 124.814 83.9566 128.138 85.6135 128.271C85.5017 125.824 84.2953 121.014 84.1734 112.608C84.0515 104.202 83.2835 92.178 82.2732 80.1932L77.3476 62.8789Z" fill="white" stroke="#0C2083" stroke-width="0.424209" stroke-linecap="round"/>
<path id="Rectangle 2285" d="M68.9915 71.1416C68.9915 71.1416 70.9005 70.1719 72.264 69.2326C73.6275 68.2933 76.1122 66.2935 76.1122 66.2935C75.2638 69.2326 72.9912 72.293 70.9914 74.2928C70.4156 73.4406 69.3248 71.8991 68.9915 71.1416Z" fill="url(#paint0_linear_5_4681)"/>
<path id="Rectangle 2286" d="M22.7842 71.4443C22.7842 71.4443 20.8753 70.4747 19.5118 69.5354C18.1482 68.596 15.6636 66.5962 15.6636 66.5962C16.512 69.5354 18.7845 72.5957 20.7844 74.5956C21.3601 73.7434 22.4509 72.2018 22.7842 71.4443Z" fill="url(#paint1_linear_5_4681)"/>
<path id="Rectangle 2230" d="M30.2445 48.7626C34.0546 42.8555 35.2939 44.4485 46.2874 41.6646C54.6603 44.4484 64.4357 47.4473 64.8108 53.2347C66.7803 83.6262 72.8405 105.115 68.2347 108.867C63.629 112.618 55.5388 108.867 46.2874 108.867C39.0391 108.33 25.4324 112.382 22.3293 108.109C19.2262 103.837 25.714 81.4358 25.1169 66.3852C25.7458 56.9513 28.583 51.3386 30.2445 48.7626Z" fill="#A6CC00"/>
<path id="Rectangle 2276" d="M43.7821 35.2957C38.5401 33.4086 34.4192 38.5985 34.4192 41.3559C30.8539 42.1056 28.4197 41.3559 24.2304 43.4834C22.0094 45.0769 12.0086 62.4309 7.75458 77.2924C2.72076 94.8783 3.42158 106.139 3.42158 106.139C4.45182 111.775 13.8147 110.169 15.6328 108.745C15.6328 108.745 20.5124 97.273 26.9349 80.8982C34.9099 60.5651 49.0241 37.1829 43.7821 35.2957Z" fill="#A6CC00"/>
<path id="Rectangle 2508" d="M22.5053 92.1698C23.3099 85.6684 23.5804 61.0668 23.1469 60.7183C22.2465 64.4696 20.7032 89.2131 20.178 96.9882C20.6262 97.0627 21.589 93.2457 22.5053 92.1698Z" fill="url(#paint2_linear_5_4681)"/>
<path id="Rectangle 2500" d="M43.782 35.2955C38.54 33.4084 34.4191 38.5983 34.4191 41.3557C30.8537 42.1054 28.4195 41.3557 24.2303 43.4832C22.0093 45.0766 12.0085 62.4307 7.75447 77.2922C2.72065 94.8781 3.42147 106.139 3.42147 106.139C4.45171 111.774 13.8146 110.168 15.6326 108.744C15.6326 108.744 18.228 102.643 22.1244 92.988" stroke="#7D9900" stroke-width="0.424209"/>
<path id="Rectangle 2498" d="M47.65 34.7553C52.892 32.8682 57.0129 38.0581 57.0129 40.8155C60.5782 41.5652 62.8717 40.8155 67.2016 42.943C69.4226 44.5364 79.4235 61.8905 83.6775 76.752C88.7113 94.3379 87.6273 106.957 87.6273 106.957C86.5062 111.199 76.5979 110.835 74.5071 108.108C74.5071 108.108 70.9196 96.7326 64.4971 80.3578C56.5222 60.0246 42.408 36.6424 47.65 34.7553Z" fill="#A6CC00"/>
<path id="Rectangle 2265" d="M69.2402 92.1701C68.4355 85.6688 67.5888 61.0066 68.0223 60.6581C68.9226 64.4094 71.0423 89.2134 71.5675 96.9886C71.1192 97.0631 70.1565 93.2461 69.2402 92.1701Z" fill="url(#paint3_linear_5_4681)"/>
<path id="Rectangle 2504" d="M47.7253 34.9947C52.9673 33.1076 57.0882 38.2975 57.0882 41.0549C60.6535 41.8046 63.0877 41.0549 67.2769 43.1824C69.4979 44.7759 79.4988 62.1299 83.7528 76.9914C88.7866 94.5773 88.0858 105.838 88.0858 105.838C87.0555 111.474 77.6926 109.868 75.8746 108.444C75.8746 108.444 73.2792 102.342 69.3829 92.6872" stroke="#7D9900" stroke-width="0.424209"/>
<path id="Rectangle 2237" d="M55.4189 34.998C55.3949 35.8431 55.4495 36.5749 55.6357 37.14C54.7946 36.9649 53.4696 36.7966 51.8876 36.6564C50.0095 36.4899 47.7538 36.3617 45.4821 36.3103C43.2108 36.2589 40.92 36.2842 38.9727 36.4252C37.3328 36.544 35.9134 36.7462 34.9553 37.0647C35.1708 36.443 35.3382 35.599 35.4688 34.6397C35.6375 33.4008 35.748 31.943 35.814 30.466C35.946 27.5129 35.901 24.4664 35.7832 22.9117L35.7834 22.9117L35.7822 22.9015C35.2842 18.9088 35.5733 16.0201 36.1964 14.1398C36.508 13.1994 36.9003 12.5202 37.311 12.0797C37.7219 11.6391 38.1391 11.4489 38.5099 11.4489H38.722V11.2368C38.722 9.30368 39.931 7.81959 41.7735 6.95708C43.6187 6.09326 46.078 5.86771 48.498 6.46148C50.9147 7.05445 53.2805 8.46173 54.9472 10.849C56.6133 13.2354 57.5927 16.6182 57.2061 21.1828C56.9778 23.8791 56.5592 26.5097 56.1834 28.8713C56.0549 29.6793 55.9313 30.4559 55.8221 31.1928C55.6085 32.6341 55.4494 33.9264 55.4189 34.998Z" fill="#0C2083" stroke="#0A1A69" stroke-width="0.424209" stroke-linecap="round"/>
<g id="Rectangle 2236">
<path d="M41.9639 12.7822C49.4785 13.57 52.8496 20.721 52.8497 22.8168C57.1221 20.3927 55.7282 27.3714 52.8497 28.7557C52.5466 29.695 51.9103 30.3919 51.6376 30.6949C51.02 34.5343 50.9552 39.6033 52.8496 41.2093C52.8496 45.8265 49.024 46.81 46.7514 51.9308C44.3577 47.2039 40.2749 45.7701 40.2748 41.1184C42.4736 38.7549 42.0626 34.5128 41.5474 30.8767C40.8202 29.9677 40.5779 29.3011 40.275 28.7557C37.6691 28.7557 34.6996 20.0291 39.7598 22.241C39.966 17.3025 39.7598 17.2667 41.9639 12.7822Z" fill="white"/>
<path d="M46.7514 51.9308C49.024 46.81 52.8496 45.8265 52.8496 41.2093C50.9552 39.6033 51.02 34.5343 51.6376 30.6949C51.9103 30.3919 52.5466 29.695 52.8497 28.7557C55.7282 27.3714 57.1221 20.3927 52.8497 22.8168C52.8496 20.721 49.4785 13.57 41.9639 12.7822C39.7598 17.2667 39.966 17.3025 39.7598 22.241C34.6996 20.0291 37.6691 28.7557 40.275 28.7557C40.5779 29.3011 40.8202 29.9677 41.5474 30.8767C42.0626 34.5128 42.4736 38.7549 40.2748 41.1184C40.2749 45.7701 44.3577 47.2039 46.7514 51.9308ZM46.7514 51.9308C47.0241 52.3752 47.5635 53.4397 47.5392 54.1427" stroke="#0C2083" stroke-width="0.424209"/>
</g>
<path id="Rectangle 2257" d="M41.6985 31.4224C41.6985 31.4224 43.8498 33.907 46.2133 33.907C48.5767 33.907 50.4554 31.786 50.4554 31.786C47.9182 34.5692 46.6923 36.444 42.0924 35.9372C42.0865 34.0234 41.9723 32.9867 41.6985 31.4224Z" fill="url(#paint4_linear_5_4681)"/>
<path id="Line 484" d="M41.3359 19.4533C41.8488 19.1257 44.4143 19.696 44.6567 20.1505C44.8992 20.605 44.4627 24.6349 44.6567 24.9985C44.8507 25.3622 45.54 25.115 46.2066 25.7816" stroke="#0C2083" stroke-width="0.424209" stroke-linecap="round"/>
<path id="Line 485" d="M45.1028 28.1925C46.8819 28.5291 47.6246 28.2506 48.2281 27.9492" stroke="#0C2083" stroke-width="0.424209" stroke-linecap="round"/>
<path id="Line 486" d="M41.3351 30.6348C43.9712 34.1799 47.577 36.2101 51.6979 30.6348" stroke="#0C2083" stroke-width="0.424209" stroke-linecap="round"/>
<path id="Rectangle 2497" d="M32.3165 82.5951L57.9811 74.5654C57.9811 74.5654 54.7693 87.1402 44.8609 88.0795C34.9526 89.0188 36.1646 82.5951 26.8017 86.4736L32.3165 82.5951Z" fill="url(#paint5_linear_5_4681)"/>
<path id="Rectangle 2503" d="M23.2085 61.5361C24.0119 89.3716 22.8669 92.4674 21.6631 104.563C22.2524 113.251 30.0452 108.983 45.5401 109.138C60.3648 108.897 68.136 112.999 69.9018 104.563C68.8995 90.6884 68.2217 84.6484 67.9019 60.5059" stroke="#7D9900" stroke-width="0.424209"/>
<path id="Rectangle 2445" d="M58.2123 62.4932L54.9667 60.8648L61.2742 41.1792C61.3782 40.8548 61.7191 40.6698 62.0478 40.7595L64.3049 41.3756C64.6547 41.4711 64.8541 41.8391 64.7431 42.1843L58.2123 62.4932Z" fill="#9BAFC8" stroke="#0C2083" stroke-width="0.424209"/>
<path id="Rectangle 2453" d="M30.6771 78.3704C35.0716 80.5451 54.7752 63.6389 53.5661 59.9836M31.4461 83.0087C29.4963 82.3655 28.9991 79.8618 30.5009 78.517C31.076 78.8425 31.8687 78.8377 32.7666 78.6258C33.7505 78.3936 34.9146 77.9003 36.1766 77.2246C38.7026 75.8721 41.659 73.7682 44.4177 71.4773C47.1765 69.1862 49.7472 66.7001 51.4991 64.5789C52.374 63.5195 53.052 62.5424 53.4451 61.7202C53.6416 61.3092 53.7717 60.9273 53.8153 60.5868C53.8495 60.3203 53.8317 60.0689 53.7424 59.8487C55.3782 58.6922 57.6983 59.7183 57.9041 61.7548L58.7388 70.0121C59.0335 72.927 57.8336 75.7926 55.5505 77.6266L47.4447 84.138C45.1617 85.972 42.1058 86.5251 39.3247 85.6077L31.4461 83.0087ZM53.3859 60.1283C53.4106 60.2415 53.4147 60.3755 53.3945 60.5329C53.3588 60.8122 53.2482 61.1487 53.0624 61.5372C52.691 62.314 52.0379 63.2603 51.172 64.3088C49.4422 66.4033 46.8924 68.8707 44.1467 71.1509C41.4008 73.4313 38.4685 75.5163 35.9764 76.8506C34.7294 77.5183 33.6021 77.9928 32.6692 78.2129C31.8961 78.3953 31.2914 78.395 30.8627 78.2212L53.3859 60.1283Z" fill="#9BAFC8" stroke="#0C2083" stroke-width="0.424209"/>
<path id="Rectangle 2454" d="M31.3773 83.1896L39.2654 85.7965C42.1181 86.7393 46.4728 86.1354 51.8636 80.6663C44.4266 78.9304 37.6605 80.2499 36.4344 73.4321L30.4781 78.2221C28.7053 79.6478 29.2172 82.4756 31.3773 83.1896Z" fill="url(#paint6_linear_5_4681)"/>
<path id="Rectangle 2455" d="M30.6771 78.3704C35.0716 80.5451 54.7752 63.6389 53.5661 59.9836M31.4461 83.0087C29.4963 82.3655 28.9991 79.8618 30.5009 78.517C31.076 78.8425 31.8687 78.8377 32.7666 78.6258C33.7505 78.3936 34.9146 77.9003 36.1766 77.2246C38.7026 75.8721 41.659 73.7682 44.4177 71.4773C47.1765 69.1862 49.7472 66.7001 51.4991 64.5789C52.374 63.5195 53.052 62.5424 53.4451 61.7202C53.6416 61.3092 53.7717 60.9273 53.8153 60.5868C53.8495 60.3203 53.8317 60.0689 53.7424 59.8487C55.3782 58.6922 57.6983 59.7183 57.9041 61.7548L58.7388 70.0121C59.0335 72.927 57.8336 75.7926 55.5505 77.6266L47.4447 84.138C45.1617 85.972 42.1058 86.5251 39.3247 85.6077L31.4461 83.0087ZM53.3859 60.1283C53.4106 60.2415 53.4147 60.3755 53.3945 60.5329C53.3588 60.8122 53.2482 61.1487 53.0624 61.5372C52.691 62.314 52.0379 63.2603 51.172 64.3088C49.4422 66.4033 46.8924 68.8707 44.1467 71.1509C41.4008 73.4312 38.4685 75.5163 35.9764 76.8506C34.7294 77.5183 33.6021 77.9928 32.6692 78.2129C31.8961 78.3953 31.2914 78.395 30.8627 78.2212L53.3859 60.1283Z" stroke="#0C2083" stroke-width="0.424209"/>
<path id="Rectangle 2449" d="M46.1139 74.2383L45.9832 74.0712L46.1139 74.2383C47.9187 72.8254 49.1779 71.3706 50.5935 69.6876C50.6875 69.5759 50.7823 69.4631 50.8779 69.3492C52.1688 67.8119 53.6267 66.0757 55.7642 63.99L57.2663 70.4793C57.9512 73.4383 56.8672 76.5268 54.4833 78.4088L48.1166 83.4349C45.6899 85.3507 42.3646 85.6631 39.6235 84.2329L34.0836 81.3424C36.2445 79.5216 38.0421 78.6632 39.8732 77.8271C39.9638 77.7857 40.0546 77.7444 40.1454 77.703C41.9628 76.8751 43.8352 76.0221 46.1139 74.2383Z" stroke="#0C2083" stroke-width="0.424209"/>
</g>
<g id="Frame 2693" clip-path="url(#clip1_5_4681)">
<path id="Rectangle 2941" d="M82.3135 10.4741C82.307 10.4694 82.2774 10.4422 82.2449 10.3485C82.2013 10.2227 82.1748 10.0332 82.1814 9.79051C82.1929 9.3695 82.3011 8.877 82.4762 8.46072C85.718 7.41811 89.1745 7.20791 91.9428 8.49905C94.7133 9.79126 96.918 12.6475 97.483 18.0326L92.5841 33.8437L84.1618 32.3099L79.0264 16.6963C78.7616 14.8011 79.0937 13.3974 79.6861 12.5243C80.2731 11.6592 81.1266 11.2873 82.0378 11.4264L82.3102 10.4726C82.3116 10.4732 82.3127 10.4737 82.3135 10.4741ZM82.3135 10.4741C82.3143 10.4747 82.3147 10.475 82.3147 10.475L82.3135 10.4741Z" fill="#0C2083" stroke="#0A1A69"/>
<path id="Vector_3" d="M57.8007 61.0538L68.105 64.6487L61.8512 80.5648C63.6931 90.7321 55.7322 100.418 57.8541 110.975C60.0048 111.719 60.0776 114.976 64.2299 118.084C62.2708 120.592 59.5615 115.975 58.8037 117.422C58.1185 118.73 62.0889 128.093 58.884 128.141C58.6084 126.794 57.117 122.015 56.5393 121.399C56.0382 121.501 57.9175 129.567 55.5412 129.47C55.2725 128.156 54.4588 121.588 53.7627 121.645C53.515 122.036 54.8833 128.496 52.3119 128.724C52.0808 127.595 52.5649 122.339 51.9541 121.805C51.3965 123.045 51.7421 126.366 50.0864 126.513C50.1776 124.066 51.3433 119.246 51.3944 110.839C51.4455 102.432 52.112 90.4019 53.0213 78.409L57.8007 61.0538Z" fill="white" stroke="#0C2083" stroke-width="0.424209" stroke-linecap="round"/>
<path id="Vector_4" d="M117.847 60.7658L107.66 64.6802L114.407 80.3936C112.883 90.6134 121.142 100.046 119.35 110.665C117.223 111.475 117.252 114.732 113.199 117.969C115.235 120.415 117.799 115.715 118.602 117.138C119.327 118.424 115.651 127.907 118.856 127.855C119.089 126.5 120.431 121.676 120.989 121.042C121.493 121.129 119.866 129.249 122.238 129.078C122.466 127.757 123.074 121.166 123.772 121.201C124.032 121.585 122.865 128.084 125.443 128.232C125.638 127.096 124.991 121.858 125.585 121.305C126.181 122.528 125.939 125.857 127.598 125.953C127.431 123.51 126.115 118.728 125.802 110.327C125.489 101.926 124.448 89.9223 123.165 77.9637L117.847 60.7658Z" fill="white" stroke="#0C2083" stroke-width="0.424209" stroke-linecap="round"/>
<path id="Rectangle 2624" d="M112.219 74.8657C112.219 74.8657 114.76 74.724 117.006 73.99C119.253 73.2559 120.633 72.6904 120.633 72.6904C119.086 76.124 118.718 78.3155 114.188 79.2623C113.401 77.5048 112.965 76.2677 112.219 74.8657Z" fill="url(#paint7_linear_5_4681)"/>
<path id="Rectangle 2625" d="M63.3674 76.7163C63.3674 76.7163 60.826 76.5833 58.5769 75.8571C56.3278 75.1308 54.9459 74.57 54.9459 74.57C56.505 77.9982 56.8799 80.1885 61.413 81.1196C62.1948 79.3595 62.6261 78.1208 63.3674 76.7163Z" fill="url(#paint8_linear_5_4681)"/>
<path id="Rectangle 2230_2" d="M69.0519 49.0532C72.862 43.146 77.2478 44.4485 88.2412 41.6646C96.6141 44.4484 103.253 40.519 106.159 45.5383C109.31 50.9822 107.106 60.2647 107.409 69.0819C104.492 78.3236 107.462 95.8071 107.462 98.019C103.121 99.8371 92.8361 99.2311 87.1299 99.2311C82.5842 99.2311 73.3399 99.5579 69.7676 98.6646C68.8555 98.4366 68.3131 98.1289 68.3131 97.716C68.8283 96.0495 70.616 72.718 68.3131 65.6579C68.9419 56.2241 67.3904 51.6292 69.0519 49.0532Z" fill="#F18D4B"/>
<path id="Rectangle 2488" d="M85.1297 36.6596C82.5379 36.6596 81.0693 38.508 78.4753 40.9018C74.9099 41.6516 67.2044 42.0724 62.9799 43.6288C59.5256 44.9014 58.5862 49.4161 53.3444 71.0812C52.247 75.6166 64.3737 78.626 66.3735 77.3231C78.4753 54.2037 86.5397 37.2417 85.1297 36.6596Z" fill="#F18D4B"/>
<path id="Rectangle 2489" d="M69.1499 71.115C68.3065 59.8875 68.9191 63.7943 68.3919 63.2672C67.9175 69.9615 63.7069 76.0503 53.3744 71.687C56.0409 76.9593 63.6463 78.0198 66.1916 77.5961C68.3919 71.6264 68.7912 72.4194 69.1499 71.115Z" fill="url(#paint9_linear_5_4681)"/>
<path id="Rectangle 2621" d="M91.8267 36.2649C94.4185 36.2649 96.0072 38.0883 98.6013 40.4821C102.167 41.2318 109.31 42.3553 114.097 43.209C115.802 43.5132 119.448 50.3547 122.733 68.8684C123.549 73.4629 111.072 76.9337 109.072 75.6307C99.891 40.0881 86.2425 47.106 91.8267 36.2649Z" fill="#F18D4B"/>
<path id="Rectangle 2487" d="M107.037 69.5054C107.881 58.2778 107.666 62.8905 108.193 62.3634C108.579 67.7992 112.34 77.2926 122.642 69.9599C120.612 75.3231 110.583 74.9292 109.431 75.717C108.795 73.7475 108.193 70.9295 107.037 69.5054Z" fill="url(#paint10_linear_5_4681)"/>
<path id="Rectangle 2622" d="M68.3127 65.6572C70.6156 72.7173 68.8279 96.0791 68.3127 97.7456C68.3127 97.9997 68.518 98.2139 68.8884 98.3942M107.764 65.7178C104.848 74.9595 107.431 95.867 107.431 98.0789C103.09 99.897 92.8358 99.2607 87.1295 99.2607C82.1373 99.2607 71.478 99.6549 68.8884 98.3942M68.8884 98.3942C75.3728 97.1276 83.3722 95.5761 93.5532 96.8366" stroke="#2A3300" stroke-width="0.424209" stroke-linecap="round"/>
<path id="Line 499" d="M83.7965 36.8409C82.7361 37.144 80.7278 38.7497 79.5497 40.1134C79.3663 40.3256 79.1952 40.5393 79.0394 40.7497M79.0394 40.7497C74.648 41.455 65.3099 43.2795 62.7377 43.7191C57.7986 49.6581 59.3137 45.5372 53.2838 71.5352C55.1928 76.2015 65.2526 78.8983 66.1616 77.5347C67.5938 75.3864 67.4039 72.4321 69.222 71.5352M79.0394 40.7497C78.3727 42.4769 81.1544 49.0763 83.7966 49.6581C84.0717 48.6439 84.4575 47.8602 85.1601 47.0523C86.2509 47.4765 88.1417 49.7127 88.3114 50.7793C88.3114 50.7793 88.372 89.352 88.372 94.3516C88.372 99.3512 87.4934 101.442 87.4934 101.442" stroke="#2A3300" stroke-width="0.424209" stroke-linecap="round"/>
<path id="Line 500" d="M92.7397 36.3011C94.3153 36.6647 96.3241 38.513 97.345 39.6948C97.5283 39.9069 97.6994 40.1206 97.8553 40.3311M97.8553 40.3311C102.247 41.0363 110.583 42.356 114.157 43.3005C118.041 47.5426 120.097 58.2387 122.763 69.7833C120.855 74.4496 112.991 75.4696 109.284 75.6616C108.557 73.3285 108.738 71.5104 107.223 69.7833M97.8553 40.3311C98.5219 42.0582 95.7402 48.6577 93.098 49.2395C93.0427 48.1183 92.6488 47.3911 92.2192 46.7851C91.3506 46.8861 88.8309 48.2395 88.8309 50.1485" stroke="#2A3300" stroke-width="0.424209" stroke-linecap="round"/>
<path id="Rectangle 2236_2" d="M83.9064 12.7822C88.4799 20.0847 93.576 12.7822 94.7877 23.0501C99.0582 20.5697 97.665 27.7106 94.7877 29.1271C94.4042 30.0521 93.8486 30.8014 93.576 31.1115C92.9587 35.0401 92.894 40.227 94.7876 41.8703C94.7876 46.5949 88.9039 46.454 88.4799 50.1126C87.1775 46.8261 82.2181 46.5371 82.218 41.7773C84.4159 39.3588 84.005 35.0181 83.4901 31.2975C82.7632 30.3673 82.521 29.6852 82.2182 29.1271C79.6134 29.1271 76.6451 20.1976 81.7032 22.461C81.9093 17.4077 81.7032 13.0246 83.9064 12.7822Z" fill="white" stroke="#0C2083" stroke-width="0.424209"/>
<path id="Rectangle 2257_2" d="M83.7961 31.8721C83.7961 31.8721 85.8641 34.5385 88.2276 34.5385C90.591 34.5385 92.4696 32.4175 92.4696 32.4175C89.9325 35.2007 88.7065 37.0755 84.1067 36.5687C84.1008 34.655 84.0699 33.4364 83.7961 31.8721Z" fill="url(#paint11_linear_5_4681)"/>
<path id="Line 484_2" d="M82.8871 18.6C83.3999 18.2724 86.2201 18.1758 86.6095 19.4529C86.9988 20.7301 86.4154 24.6345 86.6094 24.9981C86.8034 25.3618 87.4927 25.1146 88.1593 25.7813" stroke="#0C2083" stroke-width="0.424209" stroke-linecap="round"/>
<path id="Line 485_2" d="M86.2393 28.054C88.0183 28.3906 90.4839 27.9918 91.0874 27.6904" stroke="#0C2083" stroke-width="0.424209" stroke-linecap="round"/>
<path id="Line 486_2" d="M83.289 30.9629C85.9252 34.5081 89.5309 36.5382 93.6518 30.9629" stroke="#0C2083" stroke-width="0.424209" stroke-linecap="round"/>
<path id="Rectangle 2623" d="M94.9424 59.4147H103.283C103.768 59.4147 104.16 59.8076 104.157 60.2915C104.149 61.4944 104.127 63.5001 104.066 65.3139C104.035 66.2211 103.995 67.0781 103.941 67.7618C103.915 68.1038 103.885 68.4002 103.852 68.6367C103.818 68.8785 103.783 69.0414 103.751 69.1268C103.559 69.6347 102.988 70.3463 102.153 70.9335C101.324 71.5171 100.259 71.9592 99.1012 71.9592C97.9401 71.9592 96.8675 71.5379 96.0318 70.966C95.1906 70.3905 94.6151 69.6808 94.4229 69.1318C94.3892 69.0355 94.3545 68.8633 94.322 68.6168C94.2901 68.3746 94.2618 68.0741 94.237 67.7294C94.1874 67.0401 94.152 66.1826 94.1269 65.2778C94.0768 63.4686 94.068 61.4788 94.0682 60.2856C94.0683 59.804 94.4592 59.4147 94.9424 59.4147Z" stroke="#2A3300" stroke-width="0.424209"/>
</g>
<g id="Frame 2690" clip-path="url(#clip2_5_4681)">
<path id="Rectangle 2233" d="M51.4671 71.6382L43.9088 67.7842L35.8413 82.5238C35.8413 82.5238 29.6081 103.919 28.1663 110.815C26.7245 117.711 25.0727 121.873 24.5576 123.237C25.8404 123.991 27.0437 120.389 27.0739 119.165C27.3452 119.89 26.1635 124.78 26.1635 126.146C28.0652 126.81 28.5822 120.177 28.5281 119.636C28.83 120.48 27.7695 126.254 27.7695 127.843C29.7692 128.366 30.042 119.89 30.648 119.89C31.1723 120.743 30.648 125.214 30.648 126.843C33.9811 125.176 31.8135 118.275 32.9196 116.919C34.1429 115.419 34.7386 119.89 37.1021 119.165C36.3698 117.603 34.8236 114.694 34.1586 109.535C33.4935 104.377 42.4956 93.1485 43.3996 86.3777L51.4671 71.6382Z" fill="white" stroke="#0C2083" stroke-width="0.424209" stroke-linecap="round"/>
<path id="Rectangle 2278" d="M81.688 71.6382L89.2464 67.7842L97.3138 82.5238C97.3138 82.5238 103.547 103.919 104.989 110.815C106.431 117.711 108.082 121.873 108.598 123.237C107.315 123.991 106.111 120.389 106.081 119.165C105.81 119.89 106.992 124.78 106.992 126.146C105.09 126.81 104.573 120.177 104.627 119.636C104.325 120.48 105.386 126.254 105.386 127.843C103.386 128.366 103.113 119.89 102.507 119.89C101.983 120.743 102.507 125.214 102.507 126.843C99.174 125.176 101.342 118.275 100.235 116.919C99.0122 115.419 98.4165 119.89 96.053 119.165C96.7854 117.603 98.3315 114.694 98.9966 109.535C99.6616 104.377 90.6595 93.1485 89.7555 86.3777L81.688 71.6382Z" fill="white" stroke="#0C2083" stroke-width="0.424209" stroke-linecap="round"/>
<path id="Rectangle 2230_3" d="M53.2319 57.5234C56.4211 52.5751 61.4939 50.3626 66.2814 51.4534C69.7962 50.9384 76.3554 51.8877 78.6175 56.186C86.7645 71.6668 77.0721 86.8173 81.9467 101.877C77.9471 107.725 56.4639 105.513 50.5981 103.119C53.2319 88.7262 51.5249 80.242 50.5982 74.0001C49.6716 67.7582 51.8412 59.6813 53.2319 57.5234Z" fill="#9BAFC8"/>
<path id="Rectangle 2598" d="M83.7039 54.5736C75.9469 54.5736 69.2841 49.9376 69.2841 49.9376C94.7787 101.033 87.3789 87.9849 95.7333 102.903L103.399 99.8731C100.455 87.1915 87.0369 53.9675 83.7039 54.5736Z" fill="#3554EC"/>
<path id="Rectangle 2609" d="M49.7062 54.5433C57.4632 54.5433 63.1501 49.9663 63.1501 49.9663C37.6555 101.062 45.0553 88.0137 36.7009 102.932L29.0348 99.9018C31.9789 87.2202 46.3732 53.9373 49.7062 54.5433Z" fill="#3554EC"/>
<path id="Rectangle 2599" d="M69.5871 50.1498C69.5871 50.1498 72.2527 50.8221 74.011 51.6781C76.038 52.6648 79.5225 54.6646 83.2192 54.6646C86.9159 54.6646 100.455 87.0099 103.399 99.6914L95.7334 102.903C89.4611 91.5102 88.5824 88.0862 82.2047 76.9356" stroke="#0C2083" stroke-width="0.424209"/>
<path id="Rectangle 2610" d="M62.8473 50.1783C62.8473 50.1783 60.4934 52.594 58.5541 52.8463C56.1861 53.1544 53.1606 54.6946 49.4639 54.6946C45.7672 54.6946 31.9791 87.0383 29.035 99.7199L36.701 102.932C42.9733 91.5387 43.852 88.1147 50.2297 76.9641" stroke="#0C2083" stroke-width="0.424209"/>
<path id="Rectangle 2380" d="M82.5526 77.451C82.2799 71.0879 82.1587 68.7245 81.8557 66.1792C83.401 73.9968 87.9587 73.3605 86.1406 83.2688C85.6863 83.2688 83.28 78.6627 82.5526 77.451Z" fill="url(#paint12_linear_5_4681)"/>
<path id="Rectangle 2611" d="M49.8679 77.451C50.1406 71.0879 50.2618 68.7245 50.5648 66.1792C49.0195 73.9968 44.4619 73.3605 46.2799 83.2688C46.7343 83.2688 49.1406 78.6627 49.8679 77.451Z" fill="url(#paint13_linear_5_4681)"/>
<path id="Line 459" d="M52.0396 64.2702C48.7133 73.3582 54.5547 85.3594 50.9489 102.116C54.7667 104.631 64.5538 105.512 67.0385 105.512" stroke="#0C2083" stroke-width="0.424209" stroke-linecap="round"/>
<path id="Line 474" d="M81.2191 64.0879C84.5454 73.1759 78.3121 84.665 81.918 101.421C77.9467 105.269 72.7653 105.269 63.7659 105.269" stroke="#0C2083" stroke-width="0.424209" stroke-linecap="round"/>
<path id="Rectangle 2596" d="M52.9486 56.6037L61.4934 51.4526C61.4934 51.4526 60.342 78.602 61.6449 97.8732C62.9479 117.144 61.6449 128.931 61.6449 128.931C56.4635 126.507 50.2519 130.295 42.3434 127.598C52.9486 96.6006 46.4037 69.6027 52.9486 56.6037Z" fill="#3554EC"/>
<path id="Rectangle 2612" d="M61.4934 51.4526C61.4934 51.4526 60.342 78.602 61.6449 97.8732C62.9479 117.144 61.6449 128.931 61.6449 128.931C56.4635 126.507 50.2519 130.295 42.3434 127.598C49.1828 107.608 48.8893 89.2808 49.574 75.2993" stroke="#0C2083" stroke-width="0.424209"/>
<path id="Rectangle 2600" d="M79.6164 56.6037L71.0716 51.4526C71.0716 51.4526 72.2231 78.602 70.9201 97.8732C69.6172 117.144 70.9201 128.931 70.9201 128.931C76.1016 126.507 82.3132 130.295 90.2217 127.598C79.6164 96.6006 86.1614 69.6027 79.6164 56.6037Z" fill="#3554EC"/>
<path id="Rectangle 2613" d="M71.0716 51.4526C71.0716 51.4526 72.2231 78.602 70.9201 97.8732C69.6172 117.144 70.9201 128.931 70.9201 128.931C76.1016 126.507 82.3132 130.295 90.2217 127.598C83.4168 107.709 83.6729 89.4659 83.0013 75.5114" stroke="#0C2083" stroke-width="0.424209"/>
<path id="Rectangle 2601" d="M70.9201 97.8734C69.7212 115.606 70.7288 127.002 70.8972 128.708M90.1532 127.398C84.3284 110.263 83.7301 94.3578 83.2417 81.375M77.3635 58.2403L70.8826 51.8821C70.9414 52.0646 70.9961 52.2607 71.047 52.4687C71.2548 53.317 71.41 54.4048 71.5245 55.6871C71.7537 58.2527 71.8222 61.6238 71.8121 65.4722C71.8028 69.0328 71.7262 73.0077 71.6466 77.139C71.6402 77.4743 71.6337 77.8106 71.6272 78.1478C71.5513 82.1105 71.4773 86.1969 71.4609 90.1866L78.431 64.6266C77.7375 64.0949 76.7328 63.0409 75.8 61.9987C74.8061 60.8883 73.8748 59.7697 73.4498 59.2536L73.2806 59.0482L73.5187 58.9291C74.1232 58.6268 75.0402 58.3874 75.9131 58.2796C76.3514 58.2254 76.7856 58.2036 77.1706 58.2253C77.2359 58.229 77.3003 58.2339 77.3635 58.2403Z" stroke="#0C2083" stroke-width="0.424209"/>
<path id="Rectangle 2602" d="M61.6449 97.8734C62.8439 115.606 61.8363 127.002 61.6678 128.708M42.4119 127.398C48.2367 110.263 48.835 94.3578 49.3234 81.375M59.4996 59.6851L59.5885 59.5865L59.5387 59.4634C59.1061 58.3956 58.1344 58.0438 57.163 58.0182C56.5808 58.0029 55.9803 58.1024 55.454 58.244L62.1414 51.8251C62.0579 52.0625 61.9801 52.3229 61.9072 52.6038C61.6775 53.4889 61.4901 54.6066 61.3381 55.9141C61.034 58.5296 60.8692 61.926 60.7973 65.7847C60.6639 72.9416 60.8502 81.7076 61.0664 90.0708L54.848 64.8435L59.4996 59.6851Z" stroke="#0C2083" stroke-width="0.424209"/>
<path id="Rectangle 2607" d="M76.2064 58.8407C75.5318 59.834 74.8447 60.4053 74.1898 60.5413C74.6019 59.1956 74.9642 56.8389 74.2305 54.7383C73.8307 53.5939 73.1047 52.5244 71.8873 51.7436C70.6721 50.9642 68.9836 50.4829 66.6747 50.4829C64.3657 50.4829 62.7479 50.9776 61.6288 51.7796C60.5071 52.5833 59.9092 53.6792 59.6101 54.8347C59.312 55.9862 59.3087 57.2027 59.3769 58.2634C59.4078 58.7427 59.4535 59.1936 59.494 59.593C59.4984 59.6361 59.5027 59.6785 59.5069 59.7204C59.5369 60.0177 59.5621 60.2799 59.575 60.5029C57.0811 59.7447 55.3982 57.5862 54.3194 54.6444C53.2021 51.5974 52.7496 47.7501 52.7099 43.8752C52.6703 40.003 53.0431 36.1181 53.5672 33.0043C53.8293 31.4474 54.1288 30.0861 54.4324 29.0174C54.7386 27.9397 55.0422 27.185 55.3028 26.8201C56.4188 25.2577 57.5587 24.4395 58.4107 24.0117C58.8373 23.7974 59.1932 23.6804 59.4397 23.6171C59.563 23.5854 59.6589 23.5672 59.7227 23.557C59.7546 23.5519 59.7784 23.5488 59.7936 23.547L59.8098 23.5453L59.8125 23.545L59.8128 23.545L59.8129 23.545L59.8129 23.545L59.8131 23.545L59.9469 23.5348L59.9947 23.409L59.9947 23.409L59.9947 23.409L59.9948 23.4088L59.995 23.4083L59.9965 23.4044L60.0036 23.3868C60.0101 23.3708 60.0203 23.3466 60.0342 23.315C60.062 23.252 60.1048 23.16 60.1636 23.047C60.2813 22.8207 60.4624 22.5115 60.7148 22.1824C61.2176 21.5266 61.9944 20.8024 63.1073 20.4828C69.083 19.9807 73.1387 22.222 75.777 25.8584C78.4285 29.5131 79.6599 34.5949 79.924 39.7673C80.1879 44.9364 79.4842 50.1691 78.2909 54.1038C77.694 56.0723 76.9777 57.705 76.2064 58.8407Z" fill="#1230C6" stroke="#0C2083" stroke-width="0.424209"/>
<path id="Rectangle 2608" d="M64.039 33.2729C80.4013 33.273 75.5532 60.786 73.8867 60.786C74.7654 58.3013 75.7956 50.6958 66.6751 50.6958C57.5547 50.6958 59.2212 59.483 59.7968 60.786C54.6458 56.9984 56.7668 35.5455 64.039 33.2729Z" fill="url(#paint14_linear_5_4681)"/>
<path id="Rectangle 2236_3" d="M60.3132 33.6727C60.361 33.4819 60.4022 33.3867 60.4258 33.3436L60.5246 33.3184V33.1545C60.5246 33.1543 60.5246 33.154 60.5246 33.1537L60.5249 33.1442C60.5253 33.1347 60.5263 33.1188 60.5283 33.0964C60.5324 33.0515 60.5408 32.9805 60.5582 32.8826C60.5931 32.6866 60.664 32.3827 60.8084 31.9642C61.0919 31.1423 61.6585 29.879 62.7903 28.125C64.1831 28.1555 65.7857 28.733 67.1789 29.5026C68.6142 30.2953 69.7828 31.2669 70.2547 31.9962C71.2486 33.5323 71.6343 34.1366 72.6913 36.6891L72.8157 36.9894L73.0405 36.7546C73.6957 36.0701 74.2418 35.6438 74.6835 35.4127C75.1272 35.1806 75.4386 35.1586 75.6467 35.2311C75.8494 35.3018 76.0094 35.4821 76.1078 35.7864C76.2067 36.092 76.2341 36.4995 76.182 36.967C76.0779 37.9009 75.6627 39.0185 74.9737 39.9175C74.2859 40.8151 73.3407 41.4764 72.1774 41.5473L72.0536 41.5549L71.9995 41.6663C71.7448 42.1906 71.5622 42.518 71.2746 42.9003C70.9829 43.2881 70.5815 43.7346 69.8828 44.494L69.8515 44.528L69.8372 44.572C69.63 45.2098 69.5012 46.4029 69.486 47.6044C69.4708 48.8047 69.5681 50.0641 69.839 50.8291L69.8573 50.8807L69.8983 50.9171C70.9208 51.8231 71.4341 53.1475 71.2712 54.5916C71.1082 56.0368 70.2649 57.618 68.5419 59.0143L68.4808 59.0638L68.4667 59.1413C68.1094 61.1147 67.5636 62.4493 67.112 63.2862C66.8861 63.7047 66.6834 63.9993 66.5392 64.1873C66.5092 64.2264 66.4817 64.261 66.4571 64.291C66.43 64.2607 66.3996 64.2256 66.3662 64.1856C66.2113 64 65.9919 63.7085 65.7424 63.2918C65.2435 62.4587 64.6228 61.1233 64.155 59.1306L64.1366 59.0522L64.0708 59.0057C62.1605 57.6582 61.3616 56.0562 61.2932 54.5952C61.2246 53.129 61.8894 51.7774 62.9595 50.9242L62.9867 50.9024L63.0056 50.8731L62.8272 50.7583C63.0056 50.8731 63.0057 50.8729 63.0059 50.8727L63.0061 50.8723L63.0067 50.8713L63.0081 50.8692L63.0115 50.8635C63.0141 50.8591 63.0173 50.8536 63.0211 50.8467C63.0286 50.8331 63.0384 50.8144 63.0498 50.79C63.0728 50.7413 63.1029 50.6698 63.1366 50.5703C63.2038 50.3716 63.2857 50.0608 63.354 49.5964C63.4904 48.6685 63.5732 47.1214 63.3721 44.6206L63.3657 44.5415L63.309 44.486C62.6202 43.8122 62.2054 43.3 61.9267 42.8929C61.7119 42.5793 61.5779 42.3289 61.4563 42.1016C61.4191 42.0321 61.3831 41.9648 61.3463 41.8984L61.2856 41.7893H61.1608C60.0168 41.7893 59.1489 41.1094 58.5367 40.1341C57.9233 39.1568 57.5866 37.9098 57.509 36.8575C57.4703 36.3316 57.4971 35.8655 57.5802 35.5136C57.6668 35.1472 57.7995 34.9637 57.9196 34.9067C58.014 34.8619 58.1933 34.8591 58.5011 35.1357C58.8036 35.4075 59.1757 35.9063 59.6108 36.709L59.9771 37.3848L60.0092 36.6168C60.0791 34.9419 60.2072 34.0954 60.3132 33.6727Z" fill="white" stroke="#0C2083" stroke-width="0.424209" stroke-linecap="round"/>
<path id="Line 463" d="M63.251 44.3647C65.9141 46.7696 67.3711 46.4801 69.8566 44.3647" stroke="#0C2083" stroke-width="0.424209" stroke-linecap="round"/>
<path id="Line 472" d="M61.9481 33.0326C61.9481 33.0326 64.4308 33.4872 64.7053 34.2143C64.9798 34.9415 64.6144 37.8808 64.7053 38.3656C64.7962 38.8504 65.9174 39.5472 65.9174 39.5472" stroke="#0C2083" stroke-width="0.424209" stroke-linecap="round"/>
<path id="Line 473" d="M65.5539 41.7593C66.5023 41.8282 67.0394 41.8128 68.0437 41.3355" stroke="#0C2083" stroke-width="0.424209" stroke-linecap="round"/>
<path id="Rectangle 2263" d="M63.9444 45.3045C63.9444 45.3045 64.221 45.7614 65.8572 46.2742C67.4934 46.787 69.3418 45.1531 69.3418 45.1531C68.1904 47.3954 66.4652 48.48 63.9444 47.9331C63.9444 47.0758 63.9444 46.0215 63.9444 45.3045Z" fill="url(#paint15_linear_5_4681)"/>
<g id="Rectangle 2496">
<path d="M59.3427 34.0629C59.5548 32.9389 63.9181 33.151 64.6425 34.0629C64.6425 34.0629 65.0958 35.6579 64.1605 37.1232C63.2252 38.5886 60.6626 38.0013 59.8275 36.9689C58.9924 35.9365 59.3427 34.0629 59.3427 34.0629Z" fill="white"/>
<path d="M71.9477 34.0629C71.7356 32.9389 67.3723 33.151 66.648 34.0629C66.648 34.0629 66.1946 35.6579 67.1299 37.1232C68.0652 38.5886 70.6278 38.0013 71.4629 36.9689C72.298 35.9365 71.9477 34.0629 71.9477 34.0629Z" fill="white"/>
<path d="M66.648 34.0629H64.6425M66.648 34.0629C67.3723 33.151 71.7356 32.9389 71.9477 34.0629C71.9477 34.0629 72.298 35.9365 71.4629 36.9689C70.6278 38.0013 68.0652 38.5886 67.1299 37.1232C66.1946 35.6579 66.648 34.0629 66.648 34.0629ZM64.6425 34.0629C63.9181 33.151 59.5548 32.9389 59.3427 34.0629C59.3427 34.0629 58.9924 35.9365 59.8275 36.9689C60.6626 38.0013 63.2252 38.5886 64.1605 37.1232C65.0958 35.6579 64.6425 34.0629 64.6425 34.0629Z" stroke="#0C2083" stroke-width="0.424209" stroke-linecap="round"/>
</g>
</g>
</g>
<defs>
<linearGradient id="paint0_linear_5_4681" x1="74.6274" y1="67.1412" x2="75.1484" y2="71.7037" gradientUnits="userSpaceOnUse">
<stop stop-color="#798DF3"/>
<stop offset="1" stop-color="#E8EFFD"/>
</linearGradient>
<linearGradient id="paint1_linear_5_4681" x1="17.1483" y1="67.4439" x2="16.6273" y2="72.0065" gradientUnits="userSpaceOnUse">
<stop stop-color="#798DF3"/>
<stop offset="1" stop-color="#E8EFFD"/>
</linearGradient>
<linearGradient id="paint2_linear_5_4681" x1="24.4108" y1="62.3135" x2="23.0037" y2="94.7841" gradientUnits="userSpaceOnUse">
<stop stop-color="#536600"/>
<stop offset="1" stop-color="#A6CC00"/>
</linearGradient>
<linearGradient id="paint3_linear_5_4681" x1="67.3346" y1="62.3138" x2="68.7417" y2="94.7844" gradientUnits="userSpaceOnUse">
<stop stop-color="#C98817"/>
<stop offset="1" stop-color="#F3B344"/>
</linearGradient>
<linearGradient id="paint4_linear_5_4681" x1="47.6557" y1="29.7885" x2="48.1853" y2="35.8645" gradientUnits="userSpaceOnUse">
<stop stop-color="#798DF3"/>
<stop offset="1" stop-color="#E8EFFD"/>
</linearGradient>
<linearGradient id="paint5_linear_5_4681" x1="31.4421" y1="83.7179" x2="31.5397" y2="90.755" gradientUnits="userSpaceOnUse">
<stop stop-color="#C98817"/>
<stop offset="1" stop-color="#F3B344"/>
</linearGradient>
<linearGradient id="paint6_linear_5_4681" x1="39.1231" y1="72.9103" x2="33.4398" y2="96.3055" gradientUnits="userSpaceOnUse">
<stop stop-color="#5A7AA3"/>
<stop offset="1" stop-color="#5A7AA3" stop-opacity="0"/>
</linearGradient>
<linearGradient id="paint7_linear_5_4681" x1="117.351" y1="71.6612" x2="119.742" y2="77.2723" gradientUnits="userSpaceOnUse">
<stop stop-color="#798DF3"/>
<stop offset="1" stop-color="#E8EFFD"/>
</linearGradient>
<linearGradient id="paint8_linear_5_4681" x1="58.2239" y1="73.5295" x2="55.8529" y2="79.1488" gradientUnits="userSpaceOnUse">
<stop stop-color="#798DF3"/>
<stop offset="1" stop-color="#E8EFFD"/>
</linearGradient>
<linearGradient id="paint9_linear_5_4681" x1="67.3829" y1="63.021" x2="67.3829" y2="77.5085" gradientUnits="userSpaceOnUse">
<stop stop-color="#A54D12"/>
<stop offset="1" stop-color="#A54D12" stop-opacity="0"/>
</linearGradient>
<linearGradient id="paint10_linear_5_4681" x1="108.749" y1="61.8604" x2="108.749" y2="75.717" gradientUnits="userSpaceOnUse">
<stop stop-color="#A54D12"/>
<stop offset="1" stop-color="#A54D12" stop-opacity="0"/>
</linearGradient>
<linearGradient id="paint11_linear_5_4681" x1="89.67" y1="30.42" x2="90.1996" y2="36.496" gradientUnits="userSpaceOnUse">
<stop stop-color="#798DF3"/>
<stop offset="1" stop-color="#E8EFFD"/>
</linearGradient>
<linearGradient id="paint12_linear_5_4681" x1="84.2238" y1="66.1792" x2="84.2238" y2="83.2688" gradientUnits="userSpaceOnUse">
<stop stop-color="#364962"/>
<stop offset="1" stop-color="#364962" stop-opacity="0"/>
</linearGradient>
<linearGradient id="paint13_linear_5_4681" x1="48.1968" y1="66.1792" x2="48.1968" y2="83.2688" gradientUnits="userSpaceOnUse">
<stop stop-color="#364962"/>
<stop offset="1" stop-color="#364962" stop-opacity="0"/>
</linearGradient>
<linearGradient id="paint14_linear_5_4681" x1="66.4106" y1="33.2729" x2="66.4106" y2="60.786" gradientUnits="userSpaceOnUse">
<stop stop-color="#0C2083"/>
<stop offset="1" stop-color="#0C2083" stop-opacity="0"/>
</linearGradient>
<linearGradient id="paint15_linear_5_4681" x1="69.3631" y1="45.2403" x2="67.7077" y2="48.4844" gradientUnits="userSpaceOnUse">
<stop stop-color="#798DF3"/>
<stop offset="1" stop-color="#E8EFFD"/>
</linearGradient>
<clipPath id="clip0_5_4681">
<rect width="89.1947" height="75.2164" fill="white" transform="translate(0.997299 0.492188)"/>
</clipPath>
<clipPath id="clip1_5_4681">
<rect width="89.1947" height="75.2164" fill="white" transform="translate(43.0297 0.492188)"/>
</clipPath>
<clipPath id="clip2_5_4681">
<rect width="97.8479" height="61.4045" fill="white" transform="translate(17.6351 14.3037)"/>
</clipPath>
</defs>
</svg>
