<svg width="101" height="100" viewBox="0 0 101 100" fill="none" xmlns="http://www.w3.org/2000/svg">
<g id="Frame 44914">
<g id="Frame 4897">
<g id="Group 1194">
<g id="ClodeoWebMobile">
<g id="ClodeoWebMobile_2">
<path id="Rectangle 1654" d="M1.89721 8.04003C1.6806 7.19655 1.80167 6.33786 2.23421 5.64998L4.51522 2.02247C4.97955 1.28404 5.79796 0.847689 6.71862 0.847689L51.4691 0.847697C53.8335 0.847698 56.0295 2.56232 56.6407 4.88557L79.3892 91.3615C79.7251 92.6383 79.5337 93.9404 78.8587 94.9692L77.1506 97.5731C76.3725 98.7591 75.0359 99.4556 73.5379 99.4556H51.5761H29.5089C27.1335 99.4556 24.9299 97.7254 24.3299 95.3891L1.89721 8.04003Z" fill="url(#paint0_linear_3341_106109)" stroke="#1230C6" stroke-width="0.626731"/>
<path id="Rectangle 1653" d="M4.35476 5.69851C3.73374 3.25536 5.40289 1.06546 7.88608 1.06546H52.2215C54.6016 1.06546 56.8084 2.80231 57.4036 5.14401L79.5246 92.1711C79.9179 93.7182 78.8609 95.1048 77.2886 95.1048H31.2259C28.8458 95.1048 26.639 93.368 26.0438 91.0263L4.35476 5.69851Z" fill="#E8EFFD" stroke="#3554EC" stroke-width="0.626731"/>
<path id="Rectangle 1681" d="M41.524 5.20937H41.6558L41.7379 5.11567L44.3454 2.1387H52.4069C54.7994 2.1387 57.0148 3.89339 57.5971 6.24971L78.4029 90.4415C78.7839 91.983 77.7277 93.3577 76.1625 93.3577H32.5046C30.112 93.3577 27.8967 91.603 27.3144 89.2467L6.60363 5.43969C6.17243 3.6948 7.36793 2.1387 9.13968 2.1387H17.4891C17.9826 2.1387 18.4798 2.30078 18.9033 2.59975L21.2681 4.26891C22.1321 4.87876 23.1462 5.20937 24.1528 5.20937H31.7626H41.524Z" fill="#EBFFF3" stroke="#037D48" stroke-width="0.626731"/>
<path id="Union" d="M14.6389 37.7816L8.9375 15.833L59.2546 15.833C59.81 15.833 60.3316 16.2174 60.5068 16.7558L62.0262 24.9997L56.4951 30.1151C56.2186 30.4044 56.1377 30.8353 56.2833 31.2436L57.3903 34.3479C58.2922 36.8774 56.6254 39.3215 53.9983 39.3215C51.2823 39.3215 48.6832 37.8824 47.1114 35.6515C47.1165 37.6618 45.5831 39.3214 43.3945 39.3214C40.6563 39.3214 38.0344 37.8894 36.4231 35.661C36.471 37.6578 34.9642 39.3214 32.8006 39.3214C30.0937 39.3214 27.5034 37.8859 25.9387 35.6609C25.939 37.667 24.407 39.3214 22.2217 39.3214C19.4829 39.3214 16.8605 37.8888 15.2493 35.6594C15.2684 36.4454 15.0467 37.1799 14.6389 37.7816Z" fill="url(#paint1_linear_3341_106109)"/>
<line id="Line 326" y1="-0.313366" x2="14.649" y2="-0.313366" transform="matrix(1 0 0.107305 0.994226 22.7188 3.56641)" stroke="#8896A2" stroke-width="0.626731"/>
<g id="Group 1103">
<path id="Rectangle 1684" d="M5.98788 3.77167C5.94166 3.58911 6.00135 3.4073 6.14214 3.30179C10.9155 -0.275211 18.3891 2.80421 19.956 8.99365L22.0152 17.1274C22.0658 17.3274 22.0004 17.5265 21.8462 17.6421L11.4682 25.4191L5.98788 3.77167Z" fill="url(#paint2_linear_3341_106109)" stroke="#037D48" stroke-width="0.626731"/>
<path id="Rectangle 1697" d="M56.6357 2.75722C56.5973 2.60558 56.6469 2.45455 56.7639 2.36691C61.0256 -0.826755 67.6983 1.92263 69.0973 7.44875L71.5223 17.0277C71.573 17.2277 71.5076 17.4268 71.3534 17.5424L62.1288 24.4551L56.6357 2.75722Z" fill="url(#paint3_linear_3341_106109)" stroke="#037D48" stroke-width="0.626731"/>
<path id="Rectangle 1684_2" d="M12.5514 0.51273L19.2348 0.512734L20.7389 0.512735C24.2366 0.512737 27.5136 2.96512 28.5715 6.37427L32.0554 17.6014C32.71 19.7107 31.3003 21.6806 29.1362 21.6806C25.9658 21.6805 22.9953 19.4576 22.0364 16.3675L19.298 7.54263C18.2783 4.25662 15.6795 1.65143 12.5514 0.51273Z" fill="url(#paint4_linear_3341_106109)" stroke="#037D48" stroke-width="0.626731"/>
<path id="Rectangle 1694" d="M32.7194 0.51273L39.4027 0.512734L40.9069 0.512735C44.4045 0.512737 47.6816 2.96512 48.7395 6.37427L52.2234 17.6014C52.878 19.7107 51.4683 21.6806 49.3041 21.6806C46.1337 21.6805 43.1633 19.4576 42.2044 16.3675L39.4659 7.54263C38.4463 4.25662 35.8475 1.65143 32.7194 0.51273Z" fill="url(#paint5_linear_3341_106109)" stroke="#037D48" stroke-width="0.626731"/>
<path id="Rectangle 1696" d="M52.8874 0.51273L59.5707 0.512734L61.0748 0.512735C64.5725 0.512737 67.8496 2.96512 68.9075 6.37427L72.3914 17.6014C73.0459 19.7107 71.6362 21.6806 69.4721 21.6806C66.3017 21.6805 63.3313 19.4576 62.3724 16.3675L59.6339 7.54263C58.6142 4.25662 56.0154 1.65143 52.8874 0.51273Z" fill="url(#paint6_linear_3341_106109)" stroke="#037D48" stroke-width="0.626731"/>
<path id="Rectangle 1693" d="M29.0581 6.48879C28.2036 3.73494 26.0629 1.5356 23.467 0.512729L29.322 0.512731L30.8261 0.512732C34.3238 0.512735 37.6008 2.96512 38.6587 6.37426L42.1426 17.6014C42.7972 19.7107 41.3875 21.6806 39.2233 21.6805C36.0529 21.6805 33.0825 19.4576 32.1236 16.3675L29.0581 6.48879Z" fill="#EBFFF3" stroke="#037D48" stroke-width="0.626731"/>
<path id="Rectangle 1695" d="M49.2222 6.48879C48.3677 3.73494 46.2269 1.5356 43.6311 0.512729L49.486 0.512731L50.9901 0.512732C54.4878 0.512735 57.7649 2.96512 58.8228 6.37426L62.3067 17.6014C62.9612 19.7107 61.5516 21.6806 59.3874 21.6805C56.217 21.6805 53.2466 19.4576 52.2877 16.3675L49.2222 6.48879Z" fill="#EBFFF3" stroke="#037D48" stroke-width="0.626731"/>
</g>
</g>
<path id="Line 418" d="M49.8438 94.3291H62.1728" stroke="#3554EC" stroke-width="0.626731" stroke-linecap="round"/>
<g id="Group 1187">
<path id="Rectangle 1686" d="M20.9447 46.2243C20.4464 44.2555 21.792 42.4922 23.7927 42.4922L63.8809 42.4922L72.6616 76.1002C73.1333 77.9057 71.9033 79.5324 70.0663 79.5324L32.2206 79.5324C30.5879 79.5324 29.0744 78.3401 28.6677 76.7335L20.9447 46.2243Z" fill="url(#paint7_linear_3341_106109)"/>
<path id="Rectangle 1682" d="M25.1598 39.9772C24.6221 37.9312 26.0151 36.086 28.0971 36.086L58.5879 36.086C63.8952 36.086 68.8317 39.914 70.2417 45.1229L76.7763 69.2639C77.3322 71.3178 75.9391 73.1806 73.8466 73.1806L38.3894 73.1806C35.7975 73.1806 33.3913 71.3007 32.7219 68.7536L25.1598 39.9772Z" fill="#09A854" stroke="#037D48" stroke-width="0.626731"/>
<path id="Rectangle 1685" d="M26.6905 36.2963C26.3577 34.9814 27.2563 33.8037 28.5925 33.8037H65.6271C67.9495 33.8037 70.1058 35.4901 70.7022 37.7728L78.6028 68.0121C78.9911 69.4982 77.9786 70.8371 76.4666 70.8371L38.9619 70.8371C36.9369 70.8371 35.0597 69.3583 34.5552 67.3656L26.6905 36.2963Z" fill="#EBFFF3" stroke="#037D48" stroke-width="0.626731"/>
<g id="Group 665">
<path id="Vector" fill-rule="evenodd" clip-rule="evenodd" d="M57.2671 44.0801H59.7189H62.0166H62.0896H62.8634L63.0459 44.8265L63.0631 44.8969L63.658 47.3302L65.9336 56.6367C66.3948 58.5228 66.0149 60.237 65.0305 61.4789C64.0468 62.7208 62.4584 63.4922 60.5032 63.4922H56.6079H46.3804H45.6066L45.4241 62.7458L41.1889 45.4248L41.1281 45.1762L41.0599 44.8975L41.0427 44.8271L40.8601 44.0801H41.6338H41.7068H42.6135H46.4558C46.3222 42.8961 46.627 41.8347 47.2627 41.0321C48.0168 40.0808 49.2351 39.4922 50.7396 39.4922C52.2442 39.4922 53.7502 40.0808 54.9689 41.0315C55.9978 41.8347 56.8215 42.8955 57.2671 44.0801ZM47.8507 44.1227C48.5026 44.1755 49.1381 44.2765 49.7531 44.419C50.5908 44.6131 51.3913 44.8861 52.141 45.221C52.7263 44.8861 53.3933 44.6131 54.1367 44.419C54.682 44.2765 55.2681 44.1755 55.8942 44.1227C55.5519 43.2883 54.9585 42.5414 54.2264 41.9703C53.3152 41.2591 52.1899 40.8198 51.0648 40.8198C49.9398 40.8198 49.0294 41.2597 48.4659 41.9703C48.0132 42.5419 47.785 43.2883 47.8507 44.1227Z" fill="#414141"/>
<g id="Group">
<path id="Vector_2" fill-rule="evenodd" clip-rule="evenodd" d="M57.1109 44.8252H62.1976C62.2376 44.8252 62.2783 44.857 62.2878 44.8956L65.1583 56.6353C65.9798 59.995 63.8023 62.7439 60.3195 62.7439H56.4243L52.3472 46.0694C53.5295 45.3026 55.1362 44.8252 57.1109 44.8252Z" fill="#4F9D4E"/>
<path id="Vector_3" fill-rule="evenodd" clip-rule="evenodd" d="M46.9761 44.8252H41.8894C41.8494 44.8252 41.8242 44.857 41.8336 44.8956C43.2884 50.8452 44.7431 56.7948 46.1978 62.7439C49.607 62.7439 53.0162 62.7439 56.4254 62.7439L52.3482 46.0694C50.7909 45.3026 48.9502 44.8252 46.9761 44.8252Z" fill="#60BB55"/>
</g>
<path id="Vector_4" fill-rule="evenodd" clip-rule="evenodd" d="M64.0158 61.3283C63.1332 62.2115 61.8527 62.7451 60.3187 62.7451H56.4241L54.8438 56.2817C58.3657 56.2976 61.899 58.3597 64.0158 61.3283Z" fill="#60BB55"/>
<path id="Vector_5" fill-rule="evenodd" clip-rule="evenodd" d="M47.8891 62.7456H56.4262L54.8458 56.2823C54.8323 56.2823 54.8186 56.2817 54.8051 56.2817C50.734 56.2817 47.9794 59.0238 47.8891 62.7456Z" fill="#84C567"/>
<g id="Group_2">
<path id="Vector_6" fill-rule="evenodd" clip-rule="evenodd" d="M47.8535 47.2056C49.2821 47.2056 50.7127 47.7647 51.8703 48.6677C52.4528 49.1224 52.9659 49.6639 53.3748 50.2655C53.4895 49.6639 53.7378 49.1224 54.098 48.6677C54.8138 47.7641 55.9705 47.2056 57.3997 47.2056C58.8284 47.2056 60.259 47.7647 61.4165 48.6677C62.5742 49.5713 63.4582 50.8189 63.7953 52.1976C64.1323 53.5758 63.8585 54.8239 63.1427 55.7276C62.4269 56.6312 61.2702 57.1897 59.841 57.1897C59.0967 57.1897 58.3517 57.0382 57.6453 56.7646L57.4524 57.0081L55.8909 58.9794L55.5658 59.3898L55.04 58.9794L52.5145 57.0081L52.2331 56.7884C51.6714 57.0467 51.0185 57.1897 50.2959 57.1897C48.8673 57.1897 47.4367 56.6306 46.2792 55.7276C45.1215 54.8239 44.2374 53.5764 43.9003 52.1976C43.5633 50.8195 43.8377 49.5713 44.5529 48.6677C45.2677 47.7647 46.4243 47.2056 47.8535 47.2056ZM55.1773 55.1588C54.8575 54.8421 54.5689 54.497 54.3191 54.1298C54.2502 54.4908 54.133 54.8296 53.9733 55.1412C54.1464 55.1106 54.3266 55.0941 54.5143 55.0941C54.7351 55.0947 54.957 55.1168 55.1773 55.1588Z" fill="#414141"/>
<path id="Vector_7" d="M59.6563 56.4433C62.0867 56.4433 63.5922 54.5427 63.019 52.1982C62.4457 49.8537 60.0107 47.9531 57.5803 47.9531C55.1499 47.9531 53.6444 49.8537 54.2177 52.1982C54.7909 54.5427 57.2259 56.4433 59.6563 56.4433Z" fill="white"/>
<path id="Vector_8" d="M50.1133 56.4433C52.5438 56.4433 54.0493 54.5427 53.476 52.1982C52.9027 49.8537 50.4678 47.9531 48.0374 47.9531C45.607 47.9531 44.1014 49.8537 44.6747 52.1982C45.248 54.5427 47.6829 56.4433 50.1133 56.4433Z" fill="white"/>
<path id="Vector_9" fill-rule="evenodd" clip-rule="evenodd" d="M48.9025 49.5142C50.4388 49.5142 51.9775 50.7152 52.3399 52.1972C52.7023 53.6792 51.7509 54.8803 50.2146 54.8803C48.6782 54.8803 47.1395 53.6792 46.7771 52.1972C46.6582 51.7108 46.6808 51.2544 46.8192 50.8605C47.1282 51.3804 47.7292 51.7545 48.3288 51.7545C49.0813 51.7545 49.547 51.1659 49.3696 50.4405C49.2818 50.0812 49.0527 49.7554 48.7522 49.5181C48.8023 49.5159 48.8519 49.5142 48.9025 49.5142Z" fill="#414141"/>
<path id="Vector_10" fill-rule="evenodd" clip-rule="evenodd" d="M57.3829 49.5142C58.9193 49.5142 60.458 50.7152 60.8204 52.1972C61.1827 53.6792 60.2313 54.8803 58.695 54.8803C57.1587 54.8803 55.62 53.6792 55.2576 52.1972C55.1387 51.7108 55.1612 51.2544 55.2997 50.8605C55.6086 51.3804 56.2097 51.7545 56.8092 51.7545C57.5618 51.7545 58.0275 51.1659 57.8501 50.4405C57.7622 50.0812 57.5331 49.7554 57.2327 49.5181C57.2827 49.5159 57.3329 49.5142 57.3829 49.5142Z" fill="#414141"/>
<path id="Vector_11" fill-rule="evenodd" clip-rule="evenodd" d="M54.6562 55.6758C55.4606 55.6758 56.2727 56.03 56.9253 56.5981L55.3638 58.5694L54.6562 55.6758Z" fill="#FFC868"/>
<path id="Vector_12" fill-rule="evenodd" clip-rule="evenodd" d="M55.3643 58.5694L52.8388 56.5981C53.2141 56.03 53.853 55.6758 54.6568 55.6758L55.3643 58.5694Z" fill="#FCF5AE"/>
</g>
</g>
</g>
</g>
</g>
</g>
</g>
<defs>
<linearGradient id="paint0_linear_3341_106109" x1="41.6797" y1="-104.043" x2="-86.9373" y2="-7.9274" gradientUnits="userSpaceOnUse">
<stop stop-color="#1230C6"/>
<stop offset="1" stop-color="#BCC6F9"/>
</linearGradient>
<linearGradient id="paint1_linear_3341_106109" x1="34.9872" y1="15.833" x2="39.2003" y2="44.3202" gradientUnits="userSpaceOnUse">
<stop stop-color="#09A854"/>
<stop offset="1" stop-color="#54C981" stop-opacity="0.44"/>
</linearGradient>
<linearGradient id="paint2_linear_3341_106109" x1="12.3323" y1="-5.03613" x2="12.3323" y2="25.9636" gradientUnits="userSpaceOnUse">
<stop stop-color="#09A854"/>
<stop offset="1" stop-color="#54C981"/>
</linearGradient>
<linearGradient id="paint3_linear_3341_106109" x1="62.4628" y1="-5.13574" x2="62.4628" y2="24.9996" gradientUnits="userSpaceOnUse">
<stop stop-color="#09A854"/>
<stop offset="1" stop-color="#54C981"/>
</linearGradient>
<linearGradient id="paint4_linear_3341_106109" x1="17.971" y1="-5.75533" x2="22.1057" y2="11.1894" gradientUnits="userSpaceOnUse">
<stop stop-color="#EBFFF3"/>
<stop offset="1" stop-color="#54C981"/>
</linearGradient>
<linearGradient id="paint5_linear_3341_106109" x1="38.1389" y1="-5.75533" x2="42.2737" y2="11.1894" gradientUnits="userSpaceOnUse">
<stop stop-color="#EBFFF3"/>
<stop offset="1" stop-color="#54C981"/>
</linearGradient>
<linearGradient id="paint6_linear_3341_106109" x1="58.3069" y1="-5.75533" x2="62.4416" y2="11.1894" gradientUnits="userSpaceOnUse">
<stop stop-color="#EBFFF3"/>
<stop offset="1" stop-color="#54C981"/>
</linearGradient>
<linearGradient id="paint7_linear_3341_106109" x1="10.8201" y1="10.8494" x2="37.2595" y2="95.4934" gradientUnits="userSpaceOnUse">
<stop stop-color="#09A854"/>
<stop offset="1" stop-color="#54C981" stop-opacity="0.44"/>
</linearGradient>
</defs>
</svg>
