<svg width="1196" height="501" viewBox="0 0 1196 501" fill="none" xmlns="http://www.w3.org/2000/svg">
<rect x="871.964" y="400.549" width="209.693" height="93.6683" rx="18.0185" stroke="#0C2083" stroke-width="1.56683"/>
<rect x="871.964" y="400.549" width="116.243" height="93.6683" rx="18.0185" stroke="#0C2083" stroke-width="1.56683"/>
<rect x="871.964" y="400.549" width="178.248" height="93.6683" rx="18.0185" stroke="#0C2083" stroke-width="1.56683"/>
<rect x="871.964" y="400.549" width="159.646" height="93.6683" rx="18.0185" stroke="#0C2083" stroke-width="1.56683"/>
<rect x="854.179" y="324.968" width="166.092" height="74.0129" rx="18.0185" stroke="#0C2083" stroke-width="1.56683"/>
<rect x="854.179" y="324.968" width="91.9282" height="74.0129" rx="18.0185" stroke="#0C2083" stroke-width="1.56683"/>
<rect x="854.179" y="324.968" width="141.136" height="74.0129" rx="18.0185" stroke="#0C2083" stroke-width="1.56683"/>
<rect x="854.179" y="324.968" width="126.374" height="74.0129" rx="18.0185" stroke="#0C2083" stroke-width="1.56683"/>
<path d="M904.362 302.784C904.578 302.541 904.893 302.388 905.244 302.388H942.449V302.784H904.362Z" stroke="#0C2083" stroke-width="1.56683"/>
<path d="M907.318 303.34H943.173V308.364V314.171V319.978V325.001H907.318V319.978V314.171V308.364V303.34Z" stroke="#0C2083" stroke-width="1.56683"/>
<path d="M957.646 303.34H993.502V308.364V314.171V319.978V325.001H957.646V319.978V314.171V308.364V303.34Z" stroke="#0C2083" stroke-width="1.56683"/>
<path d="M943.493 304.738C943.493 303.856 943.202 303.043 942.71 302.388H955.295C956.593 302.388 957.645 303.44 957.645 304.738V325.031H943.493V304.738Z" stroke="#0C2083" stroke-width="1.56683"/>
<path d="M866.67 303.34H907.042V308.364V314.171V319.978V325.001H866.67V319.978V314.171V308.364V303.34Z" stroke="#0C2083" stroke-width="1.56683"/>
<path d="M917.266 280.198C917.482 279.955 917.797 279.802 918.148 279.802H955.353V280.198H917.266Z" stroke="#0C2083" stroke-width="1.56683"/>
<path d="M920.221 280.754H956.077V285.778V291.585V297.392V302.415H920.221V297.392V291.585V285.778V280.754Z" stroke="#0C2083" stroke-width="1.56683"/>
<path d="M970.549 280.754H1006.4V285.778V291.585V297.392V302.415H970.549V297.392V291.585V285.778V280.754Z" stroke="#0C2083" stroke-width="1.56683"/>
<path d="M956.396 282.152C956.396 281.27 956.105 280.457 955.613 279.802H968.198C969.496 279.802 970.548 280.854 970.548 282.152V302.445H956.396V282.152Z" stroke="#0C2083" stroke-width="1.56683"/>
<path d="M879.573 280.754H919.946V285.778V291.585V297.392V302.415H879.573V297.392V291.585V285.778V280.754Z" stroke="#0C2083" stroke-width="1.56683"/>
<path d="M109.763 414.512H122.823H144.741H166.659H188.578H210.496H223.911V421.177C223.911 444.125 220.181 466.921 212.868 488.672C211.114 493.887 206.227 497.401 200.725 497.401H199.537H184.584H166.659H149.444H133.782H132.813C127.191 497.401 122.205 493.786 120.454 488.444C113.373 466.845 109.763 444.25 109.763 421.519V414.512Z" stroke="#0C2083" stroke-width="1.56683"/>
<path d="M99.8254 396.953C99.8254 392.54 103.403 388.962 107.816 388.962H225.86C230.273 388.962 233.851 392.54 233.851 396.953V414.364H99.8254V396.953Z" stroke="#0C2083" stroke-width="1.56683"/>
<path d="M40.4165 190.963C18.1793 182.431 24.2922 149.435 48.1099 149.435H59.9377C112.271 149.435 154.696 191.859 154.696 244.193V313.963L124.473 262.318C105.372 229.676 75.7263 204.511 40.4165 190.963Z" stroke="#0C2083" stroke-width="1.56683"/>
<path d="M288.957 137.017C308.145 131.243 303.981 102.949 283.942 102.949H248.463C211.069 102.949 180.755 133.264 180.755 170.658V266.5L202.758 214.419C218.536 177.073 250.134 148.699 288.957 137.017Z" stroke="#0C2083" stroke-width="1.56683"/>
<path d="M34.1359 72.0566C-4.86304 59.0758 4.47365 1.46115 45.5762 1.46115H96.9667C136.494 1.46115 168.538 33.5047 168.538 73.0324V236.695L150.917 186.763C131.786 132.549 88.6838 90.2129 34.1359 72.0566Z" stroke="#0C2083" stroke-width="1.56683"/>
<path d="M61.4164 176.462L63.2689 177.025C117.405 193.474 154.414 243.392 154.414 299.962L154.414 387.956" stroke="#0C2083" stroke-width="1.56683"/>
<path d="M242.118 132.893V132.893C204.285 151.676 180.356 190.269 180.356 232.505L180.356 388.388" stroke="#0C2083" stroke-width="1.56683"/>
<path d="M70.9988 43.9702V43.9702C126.647 52.3331 167.811 100.143 167.811 156.413L167.811 388.065" stroke="#0C2083" stroke-width="1.56683"/>
<path opacity="0.2" d="M480.568 334.994C482.353 334.994 483.685 336.646 483.307 338.396L448.981 497.635C448.702 498.929 447.561 499.851 446.241 499.851H209.395C207.609 499.851 206.278 498.2 206.655 496.449L240.982 337.21C241.26 335.916 242.402 334.994 243.721 334.994H480.568Z" fill="url(#paint0_linear_1821_49576)" stroke="#07134E" stroke-width="0.626731"/>
<path d="M488.356 334.994C490.141 334.994 491.473 336.646 491.095 338.396L456.769 497.635C456.49 498.929 455.349 499.851 454.029 499.851H217.183C215.397 499.851 214.066 498.2 214.443 496.449L248.77 337.21C249.048 335.916 250.19 334.994 251.509 334.994H488.356Z" fill="url(#paint1_linear_1821_49576)" stroke="#07134E" stroke-width="0.626731"/>
<path d="M228.022 277.999C226.937 272.967 229.612 267.881 234.366 265.933L242.476 262.608C242.813 262.47 243.173 262.399 243.537 262.399H562.951C564.277 262.399 565.422 263.33 565.694 264.632L611.847 485.176C613.43 492.742 607.668 499.851 599.954 499.851H288.181C280.992 499.851 274.777 494.825 273.258 487.783L228.022 277.999Z" fill="#0C2083" stroke="#07134E" stroke-width="0.626731"/>
<path d="M235.583 276.361C233.95 268.776 239.719 261.618 247.461 261.618H567.493C576.152 261.618 583.638 267.673 585.464 276.155L630.442 485.107C632.075 492.692 626.306 499.85 618.564 499.85H296.016C288.825 499.85 282.608 494.822 281.092 487.777L235.583 276.361Z" fill="#3554EC" stroke="#07134E" stroke-width="0.626731"/>
<path d="M251.833 280.627C251.459 278.878 252.79 277.23 254.573 277.23H569.667C570.989 277.23 572.131 278.156 572.408 279.451L615.754 482.403C616.128 484.153 614.797 485.8 613.014 485.8H297.92C296.598 485.8 295.456 484.875 295.179 483.579L251.833 280.627Z" fill="#0A1A69" stroke="#07134E" stroke-width="0.626731"/>
<g style="mix-blend-mode:multiply">
<path d="M596.797 423.397L556.279 262.461L395.254 261.305L403.952 295.854C404.794 299.196 407.799 301.539 411.245 301.539H427.636L459.175 422.241C460.143 426.084 463.598 428.778 467.561 428.778H592.605C595.42 428.778 597.485 426.128 596.797 423.397Z" fill="url(#paint2_linear_1821_49576)"/>
</g>
<g style="mix-blend-mode:multiply">
<path d="M366.827 456.213L318.784 262.307L245.388 261.451C238.953 261.376 234.114 267.296 235.468 273.588L276.16 462.696H361.785C365.171 462.696 367.654 459.504 366.827 456.213Z" fill="url(#paint3_linear_1821_49576)"/>
</g>
<path d="M425.798 214.387C425.359 212.647 425.8 210.801 426.98 209.446L433.138 202.372L560.116 211.733L608.901 372.394L601.311 379.509C600.06 380.681 598.408 381.334 596.691 381.334H474.539C470.654 381.334 467.267 378.7 466.319 374.944L425.798 214.387Z" fill="url(#paint4_linear_1821_49576)" stroke="#0C2083" stroke-width="0.360795"/>
<path d="M431.87 206.526C431.21 203.914 433.19 201.38 435.892 201.38H561.077C564.962 201.38 568.349 204.013 569.297 207.769L609.861 368.418C610.521 371.03 608.541 373.564 605.839 373.564H480.654C476.769 373.564 473.382 370.931 472.434 367.175L431.87 206.526Z" fill="#BCC6F9" stroke="#0C2083" stroke-width="0.360795"/>
<path d="M447.451 216.145C446.793 213.534 448.773 211.001 451.474 211.001H550.106C553.992 211.001 557.379 213.635 558.326 217.393L560.892 227.572C561.551 230.183 559.571 232.717 556.869 232.717H458.238C454.352 232.717 450.964 230.082 450.017 226.325L447.451 216.145Z" fill="#E8EFFD" stroke="#0C2083" stroke-width="0.360795"/>
<path d="M457.901 250.209C457.329 247.957 457.704 245.57 458.937 243.6L460.287 241.445L470.011 245.201C472.723 246.249 475.093 248.024 476.857 250.33L482.871 258.189L479.711 262.937C479.098 263.86 478.062 264.414 476.952 264.414H466.221C463.448 264.414 461.03 262.537 460.35 259.857L457.901 250.209Z" fill="#798DF3" stroke="#0C2083" stroke-width="0.360795"/>
<path d="M459.522 245.403C458.766 242.402 461.041 239.491 464.145 239.491H472.962C476.508 239.491 479.599 241.895 480.463 245.324L482.977 255.295C483.733 258.296 481.458 261.207 478.354 261.207H469.537C465.991 261.207 462.9 258.803 462.036 255.374L459.522 245.403Z" fill="#E8EFFD" stroke="#0C2083" stroke-width="0.360795"/>
<path d="M487.319 250.209C486.747 247.957 487.122 245.57 488.355 243.6L489.705 241.445L499.429 245.201C502.141 246.249 504.511 248.024 506.275 250.33L512.289 258.189L509.129 262.937C508.516 263.86 507.48 264.414 506.369 264.414H495.639C492.866 264.414 490.448 262.537 489.768 259.857L487.319 250.209Z" fill="#798DF3" stroke="#0C2083" stroke-width="0.360795"/>
<path d="M488.94 245.402C488.184 242.401 490.459 239.49 493.563 239.49H502.38C505.926 239.49 509.017 241.894 509.881 245.323L512.395 255.294C513.151 258.295 510.876 261.206 507.772 261.206H498.955C495.409 261.206 492.318 258.802 491.454 255.373L488.94 245.402Z" fill="#E8EFFD" stroke="#0C2083" stroke-width="0.360795"/>
<path d="M514.643 248.802C514.3 247.449 514.525 246.015 515.266 244.831L517.404 241.417L555.212 246.403C557.251 246.672 559.098 247.74 560.346 249.37L567.094 258.189L564.55 262.013C563.552 263.513 561.868 264.414 560.063 264.414H524.627C521.086 264.414 517.998 262.016 517.129 258.594L514.643 248.802Z" fill="#7D9900" stroke="#0C2083" stroke-width="0.360795"/>
<path d="M516.54 245.403C515.783 242.402 518.058 239.491 521.162 239.491H557.187C560.733 239.491 563.824 241.895 564.689 245.324L567.202 255.295C567.959 258.296 565.684 261.207 562.58 261.207H526.554C523.009 261.207 519.917 258.803 519.053 255.374L516.54 245.403Z" fill="#E3FF66" stroke="#0C2083" stroke-width="0.360795"/>
<path d="M465.266 279.762C464.695 277.51 465.069 275.123 466.303 273.153L467.652 270.997L477.376 274.754C480.089 275.802 482.458 277.577 484.222 279.883L490.236 287.741L487.076 292.49C486.463 293.412 485.427 293.967 484.317 293.967H473.586C470.814 293.967 468.396 292.09 467.715 289.41L465.266 279.762Z" fill="#798DF3" stroke="#0C2083" stroke-width="0.360795"/>
<path d="M466.887 274.956C466.131 271.956 468.406 269.045 471.51 269.045H480.327C483.873 269.045 486.964 271.449 487.829 274.877L490.342 284.849C491.099 287.85 488.824 290.761 485.72 290.761H476.902C473.356 290.761 470.265 288.357 469.401 284.928L466.887 274.956Z" fill="#E8EFFD" stroke="#0C2083" stroke-width="0.360795"/>
<path d="M493.454 279.762C492.882 277.51 493.256 275.123 494.49 273.153L495.84 270.997L505.564 274.754C508.276 275.802 510.645 277.577 512.41 279.883L518.424 287.741L515.264 292.49C514.65 293.412 513.614 293.967 512.504 293.967H501.773C499.001 293.967 496.583 292.09 495.903 289.41L493.454 279.762Z" fill="#798DF3" stroke="#0C2083" stroke-width="0.360795"/>
<path d="M495.075 274.956C494.318 271.956 496.593 269.045 499.697 269.045H508.515C512.061 269.045 515.152 271.449 516.016 274.877L518.53 284.849C519.286 287.85 517.011 290.761 513.907 290.761H505.089C501.544 290.761 498.453 288.357 497.588 284.928L495.075 274.956Z" fill="#E8EFFD" stroke="#0C2083" stroke-width="0.360795"/>
<path d="M521.641 279.762C521.07 277.51 521.444 275.123 522.678 273.153L524.027 270.997L533.751 274.754C536.464 275.802 538.833 277.577 540.597 279.883L546.611 287.741L543.452 292.49C542.838 293.412 541.802 293.967 540.692 293.967H529.961C527.189 293.967 524.771 292.09 524.09 289.41L521.641 279.762Z" fill="#798DF3" stroke="#0C2083" stroke-width="0.360795"/>
<path d="M523.261 274.956C522.505 271.956 524.78 269.045 527.884 269.045H536.701C540.247 269.045 543.338 271.449 544.203 274.877L546.716 284.849C547.473 287.85 545.198 290.761 542.094 290.761H533.276C529.73 290.761 526.639 288.357 525.775 284.928L523.261 274.956Z" fill="#E8EFFD" stroke="#0C2083" stroke-width="0.360795"/>
<path d="M549.829 279.762C549.257 277.51 549.631 275.123 550.865 273.153L552.215 270.997L561.939 274.754C564.651 275.802 567.02 277.577 568.785 279.883L574.799 287.741L571.639 292.49C571.025 293.412 569.989 293.967 568.879 293.967H558.148C555.376 293.967 552.958 292.09 552.278 289.41L549.829 279.762Z" fill="#798DF3" stroke="#0C2083" stroke-width="0.360795"/>
<path d="M551.449 274.956C550.692 271.956 552.967 269.045 556.071 269.045H564.889C568.435 269.045 571.526 271.449 572.39 274.877L574.904 284.849C575.66 287.85 573.385 290.761 570.281 290.761H561.464C557.918 290.761 554.827 288.357 553.962 284.928L551.449 274.956Z" fill="#E8EFFD" stroke="#0C2083" stroke-width="0.360795"/>
<path d="M473.749 309.364C473.177 307.112 473.551 304.726 474.785 302.755L476.135 300.6L485.859 304.357C488.571 305.404 490.94 307.179 492.705 309.485L498.718 317.344L495.559 322.093C494.945 323.015 493.909 323.569 492.799 323.569H482.068C479.296 323.569 476.878 321.692 476.198 319.013L473.749 309.364Z" fill="#798DF3" stroke="#0C2083" stroke-width="0.360795"/>
<path d="M475.369 304.557C474.612 301.556 476.887 298.645 479.991 298.645H488.809C492.355 298.645 495.446 301.049 496.31 304.478L498.824 314.45C499.58 317.45 497.305 320.361 494.201 320.361H485.383C481.838 320.361 478.747 317.957 477.882 314.529L475.369 304.557Z" fill="#E8EFFD" stroke="#0C2083" stroke-width="0.360795"/>
<path d="M501.936 309.364C501.364 307.112 501.739 304.726 502.972 302.755L504.322 300.6L514.046 304.357C516.759 305.404 519.128 307.179 520.892 309.485L526.906 317.344L523.746 322.093C523.133 323.015 522.097 323.569 520.987 323.569H510.256C507.483 323.569 505.066 321.692 504.385 319.013L501.936 309.364Z" fill="#798DF3" stroke="#0C2083" stroke-width="0.360795"/>
<path d="M503.556 304.558C502.8 301.557 505.075 298.646 508.179 298.646H516.996C520.542 298.646 523.633 301.05 524.498 304.479L527.011 314.451C527.768 317.451 525.493 320.362 522.389 320.362H513.571C510.025 320.362 506.934 317.958 506.07 314.53L503.556 304.558Z" fill="#E8EFFD" stroke="#0C2083" stroke-width="0.360795"/>
<path d="M530.124 309.364C529.552 307.112 529.926 304.726 531.16 302.755L532.51 300.6L542.234 304.357C544.946 305.404 547.315 307.179 549.08 309.485L555.093 317.344L551.934 322.093C551.32 323.015 550.284 323.569 549.174 323.569H538.443C535.671 323.569 533.253 321.692 532.573 319.013L530.124 309.364Z" fill="#798DF3" stroke="#0C2083" stroke-width="0.360795"/>
<path d="M531.743 304.558C530.986 301.557 533.261 298.646 536.365 298.646H545.183C548.729 298.646 551.82 301.05 552.684 304.479L555.198 314.451C555.954 317.451 553.679 320.362 550.575 320.362H541.757C538.212 320.362 535.121 317.958 534.256 314.53L531.743 304.558Z" fill="#E8EFFD" stroke="#0C2083" stroke-width="0.360795"/>
<path d="M558.31 309.364C557.738 307.112 558.113 304.726 559.346 302.755L560.696 300.6L570.42 304.357C573.133 305.404 575.502 307.179 577.266 309.485L583.28 317.344L580.12 322.093C579.507 323.015 578.471 323.569 577.361 323.569H566.63C563.857 323.569 561.44 321.692 560.759 319.013L558.31 309.364Z" fill="#798DF3" stroke="#0C2083" stroke-width="0.360795"/>
<path d="M559.931 304.558C559.175 301.557 561.45 298.646 564.554 298.646H573.371C576.917 298.646 580.008 301.05 580.873 304.479L583.386 314.451C584.143 317.451 581.868 320.362 578.764 320.362H569.946C566.4 320.362 563.309 317.958 562.445 314.53L559.931 304.558Z" fill="#E8EFFD" stroke="#0C2083" stroke-width="0.360795"/>
<path d="M482.476 340.958C481.904 338.706 482.279 336.319 483.512 334.349L484.862 332.194L494.586 335.95C497.299 336.998 499.668 338.773 501.432 341.079L507.446 348.938L504.286 353.686C503.673 354.609 502.637 355.163 501.527 355.163H490.796C488.023 355.163 485.606 353.286 484.925 350.606L482.476 340.958Z" fill="#798DF3" stroke="#0C2083" stroke-width="0.360795"/>
<path d="M484.096 336.153C483.34 333.152 485.615 330.241 488.719 330.241H497.536C501.082 330.241 504.173 332.645 505.038 336.074L507.551 346.045C508.308 349.046 506.033 351.957 502.929 351.957H494.111C490.565 351.957 487.474 349.553 486.61 346.124L484.096 336.153Z" fill="#E8EFFD" stroke="#0C2083" stroke-width="0.360795"/>
<path d="M510.664 340.958C510.092 338.706 510.466 336.319 511.7 334.349L513.05 332.194L522.774 335.95C525.486 336.998 527.855 338.773 529.62 341.079L535.633 348.938L532.474 353.686C531.86 354.609 530.824 355.163 529.714 355.163H518.983C516.211 355.163 513.793 353.286 513.113 350.606L510.664 340.958Z" fill="#798DF3" stroke="#0C2083" stroke-width="0.360795"/>
<path d="M512.285 336.153C511.528 333.152 513.803 330.241 516.907 330.241H525.725C529.271 330.241 532.362 332.645 533.226 336.074L535.74 346.045C536.496 349.046 534.221 351.957 531.117 351.957H522.299C518.754 351.957 515.663 349.553 514.798 346.124L512.285 336.153Z" fill="#E8EFFD" stroke="#0C2083" stroke-width="0.360795"/>
<path d="M538.851 340.958C538.279 338.706 538.654 336.319 539.887 334.349L541.237 332.194L550.961 335.95C553.674 336.998 556.043 338.773 557.807 341.079L563.821 348.938L560.661 353.686C560.048 354.609 559.012 355.163 557.902 355.163H547.171C544.398 355.163 541.981 353.286 541.3 350.606L538.851 340.958Z" fill="#798DF3" stroke="#0C2083" stroke-width="0.360795"/>
<path d="M540.471 336.153C539.715 333.152 541.99 330.241 545.094 330.241H553.911C557.457 330.241 560.548 332.645 561.413 336.074L563.926 346.045C564.683 349.046 562.408 351.957 559.304 351.957H550.486C546.94 351.957 543.849 349.553 542.985 346.124L540.471 336.153Z" fill="#E8EFFD" stroke="#0C2083" stroke-width="0.360795"/>
<path d="M567.034 340.958C566.462 338.706 566.836 336.319 568.07 334.349L569.42 332.194L579.144 335.95C581.856 336.998 584.225 338.773 585.99 341.079L592.004 348.938L588.844 353.686C588.231 354.609 587.194 355.163 586.084 355.163H575.354C572.581 355.163 570.163 353.286 569.483 350.606L567.034 340.958Z" fill="#798DF3" stroke="#0C2083" stroke-width="0.360795"/>
<path d="M568.655 336.153C567.898 333.152 570.173 330.241 573.277 330.241H582.095C585.641 330.241 588.732 332.645 589.596 336.074L592.11 346.045C592.866 349.046 590.591 351.957 587.487 351.957H578.67C575.124 351.957 572.033 349.553 571.168 346.124L568.655 336.153Z" fill="#E8EFFD" stroke="#0C2083" stroke-width="0.360795"/>
<path d="M430.76 201.2L452.463 287.123H473.895C475.528 287.123 476.725 285.586 476.325 284.002L455.566 201.818L430.76 201.2Z" fill="url(#paint5_linear_1821_49576)"/>
<path d="M227.5 151.252C227.209 149.918 227.617 148.671 228.588 147.928L233.884 143.876L339.142 149.056C341.311 149.163 343.38 150.87 343.883 152.969L407.53 418.315L404.871 426.978C404.461 428.313 403.237 429.153 401.701 429.153H292.256C289.993 429.153 287.768 427.361 287.285 425.151L227.5 151.252Z" fill="url(#paint6_linear_1821_49576)" stroke="#07134E" stroke-width="0.626731"/>
<path d="M232.36 146.631C231.878 144.42 233.321 142.628 235.583 142.628H343.312C345.575 142.628 347.8 144.42 348.282 146.631L407.629 418.519C408.111 420.73 406.668 422.521 404.406 422.521H296.677C294.415 422.521 292.189 420.73 291.707 418.519L232.36 146.631Z" fill="#BCC6F9" stroke="#07134E" stroke-width="0.626731"/>
<rect x="0.380192" y="0.306157" width="14.5633" height="14.5716" rx="5.1553" transform="matrix(1 0 0.213255 0.976997 239.693 149.077)" fill="white" stroke="#07134E" stroke-width="0.626731"/>
<rect x="0.380192" y="0.306157" width="39.972" height="4.07093" rx="2.03546" transform="matrix(1 0 0.213255 0.976997 286.369 169.326)" fill="white" stroke="#07134E" stroke-width="0.626731"/>
<rect x="0.380192" y="0.306157" width="64.276" height="9.87392" rx="2.69343" transform="matrix(1 0 0.213255 0.976997 269.798 149.077)" fill="white" stroke="#07134E" stroke-width="0.626731"/>
<rect x="0.380192" y="0.306157" width="64.276" height="9.87392" rx="2.69343" transform="matrix(1 0 0.213255 0.976997 325.013 402.046)" fill="#E3FF66" stroke="#536600" stroke-width="0.626731"/>
<path d="M271.04 196.602H353.487C355.147 196.602 356.78 197.917 357.135 199.539L359.339 209.637C359.693 211.259 358.634 212.574 356.973 212.574H274.526L271.04 196.602Z" fill="#E3FF66"/>
<rect x="0.380192" y="0.306157" width="59.5809" height="4.07093" rx="2.03546" transform="matrix(1 0 0.213255 0.976997 289.85 185.255)" fill="white" stroke="#07134E" stroke-width="0.626731"/>
<rect width="40.5987" height="4.69766" rx="2.34883" transform="matrix(1 0 0.213255 0.976997 294.368 201.177)" fill="#BCC6F9"/>
<rect x="0.380192" y="0.306157" width="10.1444" height="6.83426" rx="1.49071" transform="matrix(1 0 0.213255 0.976997 342.464 199.833)" fill="#798DF3" stroke="#07134E" stroke-width="0.626731"/>
<rect x="0.380192" y="0.306157" width="23.4011" height="4.07093" rx="2.03546" transform="matrix(1 0 0.213255 0.976997 298.853 217.113)" fill="white" stroke="#07134E" stroke-width="0.626731"/>
<rect x="0.380192" y="0.306157" width="39.972" height="4.07093" rx="2.03546" transform="matrix(1 0 0.213255 0.976997 301.866 233.041)" fill="white" stroke="#07134E" stroke-width="0.626731"/>
<rect x="0.380192" y="0.306157" width="39.972" height="4.07093" rx="2.03546" transform="matrix(1 0 0.213255 0.976997 315.482 302.695)" fill="white" stroke="#07134E" stroke-width="0.626731"/>
<rect x="0.380192" y="0.306157" width="19.2584" height="4.07093" rx="2.03546" transform="matrix(1 0 0.213255 0.976997 311.943 286.495)" fill="white" stroke="#07134E" stroke-width="0.626731"/>
<rect x="0.380192" y="0.306157" width="39.972" height="4.07093" rx="2.03546" transform="matrix(1 0 0.213255 0.976997 318.192 318.893)" fill="white" stroke="#07134E" stroke-width="0.626731"/>
<rect x="0.380192" y="0.306157" width="39.972" height="4.07093" rx="2.03546" transform="matrix(1 0 0.213255 0.976997 321.726 335.092)" fill="white" stroke="#07134E" stroke-width="0.626731"/>
<rect x="0.380192" y="0.306157" width="39.972" height="4.07093" rx="2.03546" transform="matrix(1 0 0.213255 0.976997 325.261 351.29)" fill="white" stroke="#07134E" stroke-width="0.626731"/>
<rect x="0.380192" y="0.306157" width="14.5633" height="14.5716" rx="5.19909" transform="matrix(1 0 0.213255 0.976997 244.176 169.595)" fill="white" stroke="#07134E" stroke-width="0.626731"/>
<rect x="0.380192" y="0.306157" width="14.5633" height="14.5716" rx="5.19909" transform="matrix(1 0 0.213255 0.976997 248.654 190.114)" fill="white" stroke="#07134E" stroke-width="0.626731"/>
<rect x="0.380192" y="0.306157" width="14.5633" height="14.5716" rx="5.1553" transform="matrix(1 0 0.213255 0.976997 253.128 210.633)" fill="white" stroke="#07134E" stroke-width="0.626731"/>
<path d="M258.724 142.322L286.214 268.266M319.951 422.828L286.214 268.266M286.214 268.266L375.145 268.266" stroke="#07134E" stroke-width="0.626731"/>
<path d="M281.071 171.478C281.652 174.142 279.914 176.302 277.189 176.302C274.465 176.302 271.784 174.142 271.203 171.478C270.621 168.814 272.359 166.655 275.084 166.655C277.809 166.655 280.489 168.814 281.071 171.478Z" fill="white" stroke="#07134E" stroke-width="0.626731"/>
<path d="M284.545 187.407C285.127 190.071 283.389 192.23 280.664 192.23C277.939 192.23 275.259 190.071 274.677 187.407C274.096 184.743 275.834 182.584 278.558 182.584C281.283 182.584 283.964 184.743 284.545 187.407Z" fill="white" stroke="#07134E" stroke-width="0.626731"/>
<ellipse rx="5.24745" ry="5.25032" transform="matrix(1 0 0.213255 0.976997 283.314 203.337)" fill="#BCC6F9"/>
<path d="M350.718 203.337C350.941 204.36 350.273 205.19 349.226 205.19C348.179 205.19 347.149 204.36 346.925 203.337C346.702 202.313 347.37 201.483 348.417 201.483C349.464 201.483 350.494 202.313 350.718 203.337Z" fill="white" stroke="#07134E" stroke-width="0.626731"/>
<path d="M292.255 219.264C292.837 221.928 291.099 224.088 288.374 224.088C285.649 224.088 282.969 221.928 282.387 219.264C281.806 216.6 283.544 214.441 286.268 214.441C288.993 214.441 291.674 216.6 292.255 219.264Z" fill="white" stroke="#07134E" stroke-width="0.626731"/>
<path d="M295.906 235.194C296.487 237.858 294.749 240.017 292.024 240.017C289.3 240.017 286.619 237.858 286.038 235.194C285.456 232.53 287.194 230.371 289.919 230.371C292.644 230.371 295.324 232.53 295.906 235.194Z" fill="white" stroke="#07134E" stroke-width="0.626731"/>
<path d="M270.084 194.665C271.412 194.816 272.651 195.893 272.936 197.199L276.133 211.844C276.418 213.15 275.649 214.227 274.387 214.378L270.084 194.665Z" fill="#798DF3" stroke="#07134E" stroke-width="0.626731"/>
<path d="M364.336 112.365C364.119 111.521 364.24 110.662 364.673 109.975L369.615 102.117C370.079 101.379 370.898 100.942 371.818 100.942L451.749 100.942C454.113 100.942 456.309 102.657 456.92 104.98L496.61 255.811C496.946 257.089 496.754 258.391 496.079 259.42L491.495 266.405C490.717 267.591 489.381 268.287 487.883 268.287H448.942H408.525C406.149 268.287 403.946 266.557 403.346 264.221L364.336 112.365Z" fill="url(#paint7_linear_1821_49576)" stroke="#1230C6" stroke-width="0.626731"/>
<path d="M367.875 105.945C367.253 103.502 368.923 101.312 371.406 101.312H453.05C455.43 101.312 457.636 103.048 458.232 105.39L497.031 257.989C497.424 259.536 496.367 260.923 494.795 260.923H411.424C409.044 260.923 406.837 259.186 406.242 256.845L367.875 105.945Z" fill="#E8EFFD" stroke="#3554EC" stroke-width="0.626731"/>
<path d="M431.879 108.326H432.011L432.093 108.232L436.565 103.128H453.389C455.781 103.128 457.996 104.883 458.579 107.239L495.117 255.049C495.498 256.591 494.442 257.965 492.876 257.965H413.572C411.179 257.965 408.964 256.211 408.382 253.855L371.939 106.429C371.508 104.684 372.703 103.128 374.475 103.128H391.786C392.279 103.128 392.776 103.29 393.2 103.589L398.58 107.386C399.444 107.995 400.458 108.326 401.465 108.326H415.352H431.879Z" fill="#EBFFF3" stroke="#037D48" stroke-width="0.626731"/>
<path d="M386.377 163.677L376.724 126.524L461.919 126.524C462.859 126.524 463.742 127.175 464.039 128.086L466.612 142.041L457.246 150.7C456.778 151.189 456.641 151.919 456.888 152.61L458.762 157.864C460.289 162.146 457.467 166.283 453.019 166.283C448.42 166.283 444.02 163.847 441.358 160.071C441.367 163.474 438.771 166.283 435.065 166.283C430.429 166.283 425.99 163.859 423.261 160.087C423.342 163.467 420.791 166.283 417.128 166.283C412.545 166.283 408.159 163.853 405.509 160.087C405.51 163.483 402.916 166.283 399.216 166.283C394.579 166.283 390.139 163.858 387.41 160.085C387.443 161.415 387.068 162.658 386.377 163.677Z" fill="url(#paint8_linear_1821_49576)"/>
<line y1="-0.313366" x2="24.8031" y2="-0.313366" transform="matrix(1 0 0.107335 0.994223 400.057 105.761)" stroke="#8896A2" stroke-width="0.626731"/>
<path d="M371.44 105.828C371.39 105.628 371.455 105.429 371.609 105.314L378.697 100.004C383.759 96.2117 391.683 99.4769 393.345 106.039L399.169 129.041C399.22 129.241 399.155 129.44 399 129.556L380.885 143.127L371.44 105.828ZM380.709 143.259C380.709 143.259 380.709 143.259 380.71 143.259L380.709 143.259Z" fill="url(#paint9_linear_1821_49576)" stroke="#037D48" stroke-width="0.626731"/>
<path d="M457.217 104.197C457.166 103.997 457.232 103.798 457.386 103.683L462.521 99.8355C467.582 96.0436 475.506 99.3088 477.168 105.871L482.993 128.873C483.044 129.073 482.978 129.272 482.824 129.388L466.662 141.496L457.217 104.197ZM466.486 141.628C466.486 141.628 466.486 141.628 466.486 141.628L466.486 141.628Z" fill="url(#paint10_linear_1821_49576)" stroke="#037D48" stroke-width="0.626731"/>
<path d="M385.723 100.375L394.14 100.375L401.033 100.375C404.53 100.375 407.808 102.827 408.866 106.236L417.035 132.554C417.69 134.665 416.279 136.637 414.112 136.637L407 136.637C403.826 136.637 400.853 134.412 399.893 131.319L392.47 107.404C391.45 104.119 388.851 101.514 385.723 100.375Z" fill="url(#paint11_linear_1821_49576)" stroke="#037D48" stroke-width="0.626731"/>
<path d="M419.871 100.375L428.288 100.375L435.181 100.375C438.679 100.375 441.956 102.827 443.014 106.236L451.183 132.554C451.838 134.665 450.427 136.637 448.261 136.637L441.148 136.637C437.975 136.637 435.001 134.412 434.041 131.319L426.618 107.404C425.598 104.119 422.999 101.514 419.871 100.375Z" fill="url(#paint12_linear_1821_49576)" stroke="#037D48" stroke-width="0.626731"/>
<path d="M454.018 100.375L462.434 100.375L469.328 100.375C472.825 100.375 476.102 102.827 477.161 106.236L485.33 132.554C485.985 134.665 484.574 136.637 482.407 136.637L475.294 136.637C472.121 136.637 469.148 134.412 468.188 131.319L460.765 107.404C459.745 104.119 457.146 101.514 454.018 100.375Z" fill="url(#paint13_linear_1821_49576)" stroke="#037D48" stroke-width="0.626731"/>
<path d="M402.799 100.375L411.215 100.375L418.109 100.375C421.606 100.375 424.883 102.827 425.941 106.236L434.11 132.554C434.766 134.665 433.355 136.637 431.188 136.637L424.075 136.637C420.902 136.637 417.929 134.412 416.969 131.319L409.545 107.404C408.525 104.119 405.927 101.514 402.799 100.375Z" fill="#EBFFF3" stroke="#037D48" stroke-width="0.626731"/>
<path d="M436.943 100.375L445.36 100.375L452.253 100.375C455.751 100.375 459.028 102.827 460.086 106.236L468.255 132.554C468.91 134.665 467.499 136.637 465.333 136.637L458.22 136.637C455.046 136.637 452.073 134.412 451.113 131.319L443.69 107.404C442.67 104.119 440.071 101.514 436.943 100.375Z" fill="#EBFFF3" stroke="#037D48" stroke-width="0.626731"/>
<path d="M445.986 259.394H466.861" stroke="#3554EC" stroke-width="0.626731" stroke-linecap="round"/>
<path d="M401.187 216.215C400.689 214.246 402.034 212.482 404.035 212.482H484.433L493.317 246.474L411.693 246.474C410.061 246.474 408.547 245.281 408.14 243.675L401.187 216.215Z" fill="url(#paint14_linear_1821_49576)"/>
<path d="M404.818 207.566C404.281 205.52 405.673 203.675 407.756 203.675H483.913C489.22 203.675 494.156 207.503 495.567 212.711L501.299 233.882C501.856 235.938 500.484 237.798 498.395 237.798L417.26 237.798C414.669 237.798 412.271 235.919 411.602 233.372L404.818 207.566Z" fill="#09A854" stroke="#037D48" stroke-width="0.626731"/>
<path d="M405.933 205.413C405.6 204.098 406.499 202.92 407.835 202.92H489.274C491.597 202.92 493.753 204.606 494.35 206.889L501.294 233.463C501.683 234.949 500.67 236.288 499.158 236.288L417.278 236.288C415.254 236.288 413.376 234.809 412.872 232.817L405.933 205.413Z" fill="#EBFFF3" stroke="#037D48" stroke-width="0.626731"/>
<path d="M408.721 170.957C408.223 168.988 409.568 167.225 411.569 167.225L473.342 167.225L482.225 201.216H419.227C417.595 201.216 416.081 200.024 415.674 198.417L408.721 170.957Z" fill="url(#paint15_linear_1821_49576)"/>
<path d="M413.268 163.133C412.73 161.087 414.123 159.241 416.205 159.241H473.324C478.631 159.241 483.568 163.069 484.978 168.278L490.71 189.448C491.266 191.502 489.877 193.365 487.785 193.365H456.862L425.709 193.365C423.118 193.365 420.721 191.486 420.051 188.938L413.268 163.133Z" fill="#09A854" stroke="#037D48" stroke-width="0.626731"/>
<path d="M414.477 160.979C414.144 159.664 415.043 158.486 416.379 158.486H478.684C481.007 158.486 483.163 160.173 483.76 162.455L490.704 189.029C491.093 190.516 490.08 191.855 488.568 191.855L425.822 191.855C423.797 191.855 421.92 190.376 421.416 188.383L414.477 160.979Z" fill="#EBFFF3" stroke="#037D48" stroke-width="0.626731"/>
<path d="M444.569 168.255C444.326 167.276 444.997 166.403 445.99 166.403L467.835 166.403C469.448 166.403 470.951 167.559 471.393 169.14C471.675 170.145 470.995 171.063 469.97 171.063H448.115C446.481 171.063 444.967 169.864 444.569 168.255Z" fill="#54C981"/>
<path d="M438.694 213.51C438.451 212.531 439.122 211.658 440.115 211.658L470.238 211.658C471.851 211.658 473.354 212.814 473.797 214.395C474.078 215.4 473.398 216.318 472.373 216.318H442.24C440.606 216.318 439.092 215.119 438.694 213.51Z" fill="#54C981"/>
<path d="M419.532 166.035C419.256 164.926 420.016 163.936 421.142 163.936L435.086 163.936C436.892 163.936 438.576 165.229 439.073 166.998L443.389 182.348C443.706 183.476 442.944 184.506 441.794 184.506H427.352C425.502 184.506 423.788 183.15 423.335 181.328L419.532 166.035Z" fill="#54C981"/>
<path d="M413.656 211.29C413.38 210.181 414.14 209.19 415.266 209.19L429.21 209.19C431.016 209.19 432.7 210.484 433.197 212.253L437.513 227.603C437.83 228.731 437.068 229.761 435.918 229.761H421.476C419.626 229.761 417.912 228.405 417.459 226.583L413.656 211.29Z" fill="#54C981"/>
<path d="M447.378 177.305C447.136 176.326 447.806 175.453 448.8 175.453L479.161 175.453C480.774 175.453 482.277 176.609 482.719 178.19C483 179.195 482.321 180.112 481.295 180.112H450.925C449.29 180.112 447.777 178.914 447.378 177.305Z" fill="#54C981"/>
<path d="M441.503 222.56C441.261 221.581 441.931 220.708 442.925 220.708H483.22C484.833 220.708 486.335 221.864 486.778 223.445C487.059 224.45 486.379 225.367 485.354 225.367L445.05 225.367C443.415 225.367 441.902 224.169 441.503 222.56Z" fill="#54C981"/>
<path d="M496.66 148.795C496.04 146.419 496.62 143.889 498.213 142.019L504.65 134.465L532.98 139.256C538.294 140.155 542.721 143.828 544.585 148.885L554.231 175.055L546.729 184.655C545.304 186.479 543.118 187.545 540.803 187.545H518.39C511.545 187.545 505.563 182.923 503.835 176.3L496.66 148.795Z" fill="url(#paint16_linear_1821_49576)"/>
<path d="M501.161 141.486C499.96 136.735 503.552 132.122 508.453 132.122H534.386C541.273 132.122 547.28 136.8 548.968 143.477L555.768 170.374C556.969 175.125 553.377 179.738 548.476 179.738H522.543C515.656 179.738 509.649 175.06 507.961 168.383L501.161 141.486Z" fill="#ECFF99"/>
<path fill-rule="evenodd" clip-rule="evenodd" d="M534.642 141.597H538.454H542.027H542.141H543.344L543.628 142.758L543.655 142.867L544.58 146.65L548.118 161.118C548.836 164.05 548.245 166.715 546.714 168.645C545.184 170.576 542.714 171.775 539.674 171.775H533.617H517.712H516.509L516.225 170.615L509.64 143.688L509.545 143.301L509.439 142.868L509.412 142.759L509.128 141.597H510.331H510.445H511.855H517.83C517.622 139.757 518.096 138.107 519.085 136.859C520.257 135.38 522.152 134.465 524.491 134.465C526.831 134.465 529.173 135.38 531.068 136.858C532.668 138.107 533.949 139.756 534.642 141.597ZM519.999 141.663C521.013 141.746 522.001 141.903 522.957 142.124C524.26 142.426 525.505 142.85 526.67 143.371C527.581 142.85 528.618 142.426 529.774 142.124C530.622 141.903 531.533 141.746 532.507 141.663C531.974 140.366 531.052 139.205 529.913 138.317C528.496 137.212 526.746 136.529 524.997 136.529C523.248 136.529 521.832 137.213 520.956 138.317C520.252 139.206 519.897 140.366 519.999 141.663Z" fill="#414141"/>
<path fill-rule="evenodd" clip-rule="evenodd" d="M534.398 142.756H542.307C542.369 142.756 542.433 142.805 542.447 142.865L546.912 161.116C548.19 166.339 544.804 170.612 539.389 170.612H533.332L526.991 144.69C528.829 143.498 531.327 142.756 534.398 142.756Z" fill="#4F9D4E"/>
<path fill-rule="evenodd" clip-rule="evenodd" d="M518.639 142.756H510.73C510.667 142.756 510.628 142.805 510.643 142.865C512.905 152.115 515.167 161.364 517.429 170.612C522.73 170.612 528.031 170.612 533.332 170.612L526.992 144.69C524.571 143.498 521.709 142.756 518.639 142.756Z" fill="#60BB55"/>
<path fill-rule="evenodd" clip-rule="evenodd" d="M545.139 168.412C543.766 169.785 541.775 170.614 539.39 170.614H533.334L530.876 160.566C536.353 160.591 541.847 163.797 545.139 168.412Z" fill="#60BB55"/>
<path fill-rule="evenodd" clip-rule="evenodd" d="M520.057 170.614H533.333L530.875 160.566C530.854 160.566 530.833 160.565 530.812 160.565C524.481 160.565 520.198 164.828 520.057 170.614Z" fill="#84C567"/>
<path fill-rule="evenodd" clip-rule="evenodd" d="M520.001 146.456C522.223 146.456 524.447 147.325 526.247 148.729C527.153 149.436 527.951 150.278 528.587 151.213C528.765 150.278 529.151 149.436 529.711 148.729C530.824 147.324 532.623 146.456 534.845 146.456C537.067 146.456 539.291 147.325 541.091 148.729C542.892 150.134 544.266 152.073 544.79 154.217C545.314 156.359 544.889 158.3 543.776 159.704C542.663 161.109 540.864 161.977 538.642 161.977C537.484 161.977 536.326 161.742 535.227 161.317L534.927 161.695L532.499 164.76L531.994 165.398L531.176 164.76L527.249 161.695L526.812 161.354C525.938 161.755 524.923 161.977 523.799 161.977C521.578 161.977 519.353 161.108 517.553 159.704C515.753 158.3 514.378 156.36 513.854 154.217C513.33 152.074 513.757 150.134 514.869 148.729C515.98 147.325 517.779 146.456 520.001 146.456ZM531.39 158.82C530.892 158.328 530.444 157.791 530.055 157.22C529.948 157.782 529.766 158.308 529.517 158.793C529.787 158.745 530.067 158.72 530.359 158.72C530.702 158.721 531.047 158.755 531.39 158.82Z" fill="#414141"/>
<path d="M538.358 160.818C542.137 160.818 544.478 157.863 543.586 154.219C542.695 150.574 538.908 147.619 535.129 147.619C531.35 147.619 529.009 150.574 529.901 154.219C530.792 157.863 534.579 160.818 538.358 160.818Z" fill="white"/>
<path d="M523.514 160.817C527.293 160.817 529.634 157.862 528.742 154.218C527.851 150.573 524.064 147.618 520.285 147.618C516.506 147.618 514.165 150.573 515.057 154.218C515.948 157.862 519.735 160.817 523.514 160.817Z" fill="white"/>
<path fill-rule="evenodd" clip-rule="evenodd" d="M521.632 150.045C524.02 150.045 526.413 151.912 526.977 154.216C527.54 156.52 526.061 158.387 523.672 158.387C521.283 158.387 518.891 156.52 518.327 154.216C518.142 153.46 518.177 152.75 518.392 152.138C518.873 152.946 519.807 153.528 520.74 153.528C521.91 153.528 522.634 152.613 522.358 151.485C522.221 150.926 521.865 150.42 521.398 150.051C521.476 150.048 521.553 150.045 521.632 150.045Z" fill="#414141"/>
<path fill-rule="evenodd" clip-rule="evenodd" d="M534.818 150.045C537.207 150.045 539.6 151.912 540.163 154.216C540.727 156.52 539.248 158.387 536.859 158.387C534.47 158.387 532.077 156.52 531.514 154.216C531.329 153.46 531.364 152.75 531.579 152.138C532.059 152.946 532.994 153.528 533.926 153.528C535.096 153.528 535.82 152.613 535.545 151.485C535.408 150.926 535.052 150.42 534.584 150.051C534.662 150.048 534.74 150.045 534.818 150.045Z" fill="#414141"/>
<path fill-rule="evenodd" clip-rule="evenodd" d="M530.58 159.624C531.831 159.624 533.094 160.175 534.108 161.058L531.681 164.122L530.58 159.624Z" fill="#FFC868"/>
<path fill-rule="evenodd" clip-rule="evenodd" d="M531.682 164.122L527.755 161.058C528.339 160.175 529.332 159.624 530.582 159.624L531.682 164.122Z" fill="#FCF5AE"/>
<path d="M835.852 311.089C835.577 310.064 834.725 309.388 833.787 309.388H653.921C652.516 309.388 651.436 310.882 651.856 312.44L701.792 498.058C702.067 499.083 702.919 499.76 703.857 499.76H883.723C885.129 499.76 886.208 498.266 885.788 496.707L835.852 311.089Z" fill="url(#paint17_linear_1821_49576)" stroke="#0C2083" stroke-width="0.626731"/>
<path d="M835.654 312.134C835.864 310.66 834.819 309.388 833.526 309.388H648.934C647.523 309.388 646.443 310.892 646.872 312.454L697.893 498.072C698.173 499.09 699.021 499.76 699.954 499.76H807.036C808.076 499.76 808.996 498.928 809.164 497.752L835.654 312.134Z" fill="url(#paint18_linear_1821_49576)" stroke="#0C2083" stroke-width="0.626731"/>
<path d="M833.505 312.311C833.832 310.785 832.765 309.388 831.408 309.388H656.719C655.308 309.388 654.228 310.892 654.657 312.454L705.678 498.072C705.958 499.09 706.806 499.76 707.74 499.76H791.615C792.596 499.76 793.478 499.02 793.712 497.929L833.505 312.311Z" fill="url(#paint19_linear_1821_49576)" stroke="#0C2083" stroke-width="0.626731"/>
<path d="M831.532 311.125C831.774 310.252 831.118 309.389 830.212 309.389H647.911C647.295 309.389 646.755 309.799 646.591 310.392L595.528 494.177C594.745 496.994 596.864 499.781 599.787 499.781H775.756C777.742 499.781 779.484 498.457 780.015 496.544L831.532 311.125Z" fill="#798DF3" stroke="#0C2083" stroke-width="0.626731"/>
<path d="M648.698 309.388H830.434C831.269 309.388 831.875 310.182 831.654 310.987L825.266 334.227H640.906L647.478 310.317C647.629 309.768 648.128 309.388 648.698 309.388Z" fill="#1230C6" stroke="#0C2083" stroke-width="0.626731"/>
<mask id="path-140-inside-1_1821_49576" fill="white">
<path d="M658.939 343.156C658.96 343.08 659.024 343.028 659.096 343.028H692.115C692.225 343.028 692.304 343.145 692.272 343.26L682.905 376.856C682.884 376.932 682.82 376.984 682.748 376.984H649.729C649.619 376.984 649.54 376.867 649.572 376.752L658.939 343.156Z"/>
<path d="M647.261 381.354C647.282 381.279 647.346 381.227 647.418 381.227H680.437C680.547 381.227 680.626 381.344 680.594 381.459L671.227 415.055C671.206 415.131 671.142 415.183 671.069 415.183H638.051C637.94 415.183 637.861 415.066 637.894 414.951L647.261 381.354Z"/>
<path d="M635.579 419.555C635.6 419.48 635.663 419.428 635.736 419.428H668.754C668.865 419.428 668.944 419.545 668.912 419.66L659.545 453.256C659.524 453.332 659.46 453.384 659.387 453.384H626.369C626.258 453.384 626.179 453.267 626.211 453.152L635.579 419.555Z"/>
<path d="M693.981 343.156C694.002 343.08 694.066 343.028 694.138 343.028H727.157C727.267 343.028 727.346 343.145 727.314 343.26L717.947 376.856C717.926 376.932 717.862 376.984 717.79 376.984H684.771C684.661 376.984 684.582 376.867 684.614 376.752L693.981 343.156Z"/>
<path d="M682.303 381.354C682.324 381.279 682.387 381.227 682.46 381.227H715.478C715.589 381.227 715.668 381.344 715.636 381.459L706.269 415.055C706.248 415.131 706.184 415.183 706.111 415.183H673.093C672.982 415.183 672.903 415.066 672.935 414.951L682.303 381.354Z"/>
<path d="M670.62 419.555C670.641 419.48 670.705 419.428 670.778 419.428H703.796C703.907 419.428 703.986 419.545 703.954 419.66L694.587 453.256C694.565 453.332 694.502 453.384 694.429 453.384H661.411C661.3 453.384 661.221 453.267 661.253 453.152L670.62 419.555Z"/>
<path d="M729.027 343.156C729.048 343.08 729.111 343.028 729.184 343.028H762.202C762.313 343.028 762.392 343.145 762.36 343.26L752.993 376.856C752.972 376.932 752.908 376.984 752.835 376.984H719.817C719.706 376.984 719.627 376.867 719.659 376.752L729.027 343.156Z"/>
<path d="M717.344 381.354C717.365 381.279 717.429 381.227 717.502 381.227H750.52C750.631 381.227 750.71 381.344 750.678 381.459L741.311 415.055C741.289 415.131 741.226 415.183 741.153 415.183H708.135C708.024 415.183 707.945 415.066 707.977 414.951L717.344 381.354Z"/>
<path d="M705.662 419.555C705.683 419.48 705.747 419.428 705.82 419.428H738.838C738.949 419.428 739.028 419.545 738.996 419.66L729.628 453.256C729.607 453.332 729.544 453.384 729.471 453.384H696.453C696.342 453.384 696.263 453.267 696.295 453.152L705.662 419.555Z"/>
<path d="M764.068 343.156C764.089 343.08 764.153 343.028 764.225 343.028H797.244C797.354 343.028 797.433 343.145 797.401 343.26L788.034 376.856C788.013 376.932 787.949 376.984 787.876 376.984H754.858C754.748 376.984 754.668 376.867 754.701 376.752L764.068 343.156Z"/>
<path d="M752.386 381.354C752.407 381.279 752.471 381.227 752.544 381.227H785.562C785.673 381.227 785.752 381.344 785.72 381.459L776.352 415.055C776.331 415.131 776.267 415.183 776.195 415.183H743.177C743.066 415.183 742.987 415.066 743.019 414.951L752.386 381.354Z"/>
<path d="M740.704 419.555C740.725 419.48 740.789 419.428 740.862 419.428H773.88C773.99 419.428 774.07 419.545 774.037 419.66L764.67 453.256C764.649 453.332 764.585 453.384 764.513 453.384H731.494C731.384 453.384 731.305 453.267 731.337 453.152L740.704 419.555Z"/>
</mask>
<path d="M658.939 343.156C658.96 343.08 659.024 343.028 659.096 343.028H692.115C692.225 343.028 692.304 343.145 692.272 343.26L682.905 376.856C682.884 376.932 682.82 376.984 682.748 376.984H649.729C649.619 376.984 649.54 376.867 649.572 376.752L658.939 343.156Z" fill="#3554EC"/>
<path d="M647.261 381.354C647.282 381.279 647.346 381.227 647.418 381.227H680.437C680.547 381.227 680.626 381.344 680.594 381.459L671.227 415.055C671.206 415.131 671.142 415.183 671.069 415.183H638.051C637.94 415.183 637.861 415.066 637.894 414.951L647.261 381.354Z" fill="#3554EC"/>
<path d="M635.579 419.555C635.6 419.48 635.663 419.428 635.736 419.428H668.754C668.865 419.428 668.944 419.545 668.912 419.66L659.545 453.256C659.524 453.332 659.46 453.384 659.387 453.384H626.369C626.258 453.384 626.179 453.267 626.211 453.152L635.579 419.555Z" fill="#3554EC"/>
<path d="M693.981 343.156C694.002 343.08 694.066 343.028 694.138 343.028H727.157C727.267 343.028 727.346 343.145 727.314 343.26L717.947 376.856C717.926 376.932 717.862 376.984 717.79 376.984H684.771C684.661 376.984 684.582 376.867 684.614 376.752L693.981 343.156Z" fill="#3554EC"/>
<path d="M682.303 381.354C682.324 381.279 682.387 381.227 682.46 381.227H715.478C715.589 381.227 715.668 381.344 715.636 381.459L706.269 415.055C706.248 415.131 706.184 415.183 706.111 415.183H673.093C672.982 415.183 672.903 415.066 672.935 414.951L682.303 381.354Z" fill="#3554EC"/>
<path d="M670.62 419.555C670.641 419.48 670.705 419.428 670.778 419.428H703.796C703.907 419.428 703.986 419.545 703.954 419.66L694.587 453.256C694.565 453.332 694.502 453.384 694.429 453.384H661.411C661.3 453.384 661.221 453.267 661.253 453.152L670.62 419.555Z" fill="#3554EC"/>
<path d="M729.027 343.156C729.048 343.08 729.111 343.028 729.184 343.028H762.202C762.313 343.028 762.392 343.145 762.36 343.26L752.993 376.856C752.972 376.932 752.908 376.984 752.835 376.984H719.817C719.706 376.984 719.627 376.867 719.659 376.752L729.027 343.156Z" fill="#3554EC"/>
<path d="M717.344 381.354C717.365 381.279 717.429 381.227 717.502 381.227H750.52C750.631 381.227 750.71 381.344 750.678 381.459L741.311 415.055C741.289 415.131 741.226 415.183 741.153 415.183H708.135C708.024 415.183 707.945 415.066 707.977 414.951L717.344 381.354Z" fill="#3554EC"/>
<path d="M705.662 419.555C705.683 419.48 705.747 419.428 705.82 419.428H738.838C738.949 419.428 739.028 419.545 738.996 419.66L729.628 453.256C729.607 453.332 729.544 453.384 729.471 453.384H696.453C696.342 453.384 696.263 453.267 696.295 453.152L705.662 419.555Z" fill="#3554EC"/>
<path d="M764.068 343.156C764.089 343.08 764.153 343.028 764.225 343.028H797.244C797.354 343.028 797.433 343.145 797.401 343.26L788.034 376.856C788.013 376.932 787.949 376.984 787.876 376.984H754.858C754.748 376.984 754.668 376.867 754.701 376.752L764.068 343.156Z" fill="#3554EC"/>
<path d="M752.386 381.354C752.407 381.279 752.471 381.227 752.544 381.227H785.562C785.673 381.227 785.752 381.344 785.72 381.459L776.352 415.055C776.331 415.131 776.267 415.183 776.195 415.183H743.177C743.066 415.183 742.987 415.066 743.019 414.951L752.386 381.354Z" fill="#3554EC"/>
<path d="M740.704 419.555C740.725 419.48 740.789 419.428 740.862 419.428H773.88C773.99 419.428 774.07 419.545 774.037 419.66L764.67 453.256C764.649 453.332 764.585 453.384 764.513 453.384H731.494C731.384 453.384 731.305 453.267 731.337 453.152L740.704 419.555Z" fill="#3554EC"/>
<path d="M658.939 343.156L659.543 343.324V343.324L658.939 343.156ZM692.272 343.26L691.668 343.092L691.668 343.092L692.272 343.26ZM682.905 376.856L682.301 376.688L682.301 376.688L682.905 376.856ZM649.572 376.752L648.968 376.584L649.572 376.752ZM647.261 381.354L647.864 381.523L647.261 381.354ZM680.594 381.459L681.198 381.627V381.627L680.594 381.459ZM671.227 415.055L670.623 414.887L670.623 414.887L671.227 415.055ZM637.894 414.951L637.29 414.783L637.894 414.951ZM635.579 419.555L634.975 419.387L635.579 419.555ZM668.912 419.66L669.515 419.828L669.515 419.828L668.912 419.66ZM659.545 453.256L658.941 453.088V453.088L659.545 453.256ZM626.211 453.152L625.608 452.984L626.211 453.152ZM693.981 343.156L694.585 343.324V343.324L693.981 343.156ZM727.314 343.26L727.918 343.428L727.918 343.428L727.314 343.26ZM717.947 376.856L717.343 376.688L717.343 376.688L717.947 376.856ZM684.614 376.752L684.01 376.584L684.614 376.752ZM682.303 381.354L682.906 381.523L682.303 381.354ZM715.636 381.459L715.032 381.29L715.032 381.29L715.636 381.459ZM706.269 415.055L705.665 414.887V414.887L706.269 415.055ZM672.935 414.951L672.332 414.783L672.935 414.951ZM670.62 419.555L671.224 419.724V419.724L670.62 419.555ZM703.954 419.66L703.35 419.491V419.491L703.954 419.66ZM694.587 453.256L693.983 453.088V453.088L694.587 453.256ZM661.253 453.152L660.65 452.984L661.253 453.152ZM729.027 343.156L729.63 343.324V343.324L729.027 343.156ZM762.36 343.26L761.756 343.092L761.756 343.092L762.36 343.26ZM752.993 376.856L752.389 376.688L752.389 376.688L752.993 376.856ZM719.659 376.752L719.056 376.584L719.659 376.752ZM717.344 381.354L717.948 381.523L717.344 381.354ZM750.678 381.459L751.281 381.627L751.281 381.627L750.678 381.459ZM741.311 415.055L740.707 414.887L740.707 414.887L741.311 415.055ZM707.977 414.951L707.374 414.783L707.977 414.951ZM705.662 419.555L705.059 419.387L705.662 419.555ZM738.996 419.66L738.392 419.491L738.392 419.491L738.996 419.66ZM729.628 453.256L730.232 453.425L730.232 453.425L729.628 453.256ZM696.295 453.152L695.691 452.984V452.984L696.295 453.152ZM764.068 343.156L764.671 343.324V343.324L764.068 343.156ZM797.401 343.26L796.797 343.092L796.797 343.092L797.401 343.26ZM788.034 376.856L787.43 376.688L787.43 376.688L788.034 376.856ZM754.701 376.752L754.097 376.584L754.701 376.752ZM752.386 381.354L752.99 381.523L752.386 381.354ZM785.72 381.459L785.116 381.29L785.116 381.29L785.72 381.459ZM776.352 415.055L775.749 414.887L775.749 414.887L776.352 415.055ZM743.019 414.951L742.415 414.783L743.019 414.951ZM740.704 419.555L741.308 419.724V419.724L740.704 419.555ZM774.037 419.66L773.434 419.491L773.434 419.491L774.037 419.66ZM764.67 453.256L764.067 453.088L764.067 453.088L764.67 453.256ZM731.337 453.152L730.733 452.984L731.337 453.152ZM658.335 342.987C658.423 342.672 658.711 342.402 659.096 342.402V343.655C659.336 343.655 659.497 343.488 659.543 343.324L658.335 342.987ZM659.096 342.402H692.115V343.655H659.096V342.402ZM692.115 342.402C692.711 342.402 693 342.985 692.876 343.428L691.668 343.092C691.633 343.217 691.658 343.349 691.729 343.453C691.8 343.559 691.937 343.655 692.115 343.655V342.402ZM692.876 343.428L683.509 377.025L682.301 376.688L691.668 343.092L692.876 343.428ZM683.509 377.025C683.421 377.34 683.132 377.61 682.748 377.61V376.357C682.508 376.357 682.347 376.524 682.301 376.688L683.509 377.025ZM682.748 377.61H649.729V376.357H682.748V377.61ZM649.729 377.61C649.133 377.61 648.844 377.027 648.968 376.584L650.176 376.92C650.211 376.795 650.186 376.663 650.115 376.559C650.044 376.453 649.908 376.357 649.729 376.357V377.61ZM648.968 376.584L658.335 342.987L659.543 343.324L650.176 376.92L648.968 376.584ZM646.657 381.186C646.745 380.871 647.033 380.601 647.418 380.601V381.854C647.658 381.854 647.819 381.687 647.864 381.523L646.657 381.186ZM647.418 380.601H680.437V381.854H647.418V380.601ZM680.437 380.601C681.033 380.601 681.321 381.183 681.198 381.627L679.99 381.29C679.955 381.416 679.98 381.548 680.05 381.652C680.122 381.758 680.258 381.854 680.437 381.854V380.601ZM681.198 381.627L671.831 415.224L670.623 414.887L679.99 381.29L681.198 381.627ZM671.831 415.224C671.743 415.539 671.454 415.809 671.069 415.809V414.556C670.829 414.556 670.669 414.723 670.623 414.887L671.831 415.224ZM671.069 415.809H638.051V414.556H671.069V415.809ZM638.051 415.809C637.455 415.809 637.166 415.226 637.29 414.783L638.497 415.119C638.532 414.994 638.508 414.862 638.437 414.758C638.365 414.652 638.229 414.556 638.051 414.556V415.809ZM637.29 414.783L646.657 381.186L647.864 381.523L638.497 415.119L637.29 414.783ZM634.975 419.387C635.063 419.072 635.351 418.802 635.736 418.802V420.055C635.976 420.055 636.136 419.888 636.182 419.724L634.975 419.387ZM635.736 418.802H668.754V420.055H635.736V418.802ZM668.754 418.802C669.35 418.802 669.639 419.385 669.515 419.828L668.308 419.492C668.273 419.617 668.297 419.749 668.368 419.853C668.44 419.959 668.576 420.055 668.754 420.055V418.802ZM669.515 419.828L660.148 453.425L658.941 453.088L668.308 419.491L669.515 419.828ZM660.148 453.425C660.06 453.74 659.772 454.01 659.387 454.01V452.757C659.147 452.757 658.987 452.924 658.941 453.088L660.148 453.425ZM659.387 454.01H626.369V452.757H659.387V454.01ZM626.369 454.01C625.773 454.01 625.484 453.427 625.608 452.984L626.815 453.32C626.85 453.195 626.826 453.063 626.755 452.959C626.683 452.853 626.547 452.757 626.369 452.757V454.01ZM625.608 452.984L634.975 419.387L636.182 419.724L626.815 453.32L625.608 452.984ZM693.377 342.987C693.465 342.672 693.753 342.402 694.138 342.402V343.655C694.378 343.655 694.539 343.488 694.585 343.324L693.377 342.987ZM694.138 342.402H727.157V343.655H694.138V342.402ZM727.157 342.402C727.753 342.402 728.041 342.985 727.918 343.428L726.71 343.092C726.675 343.217 726.7 343.349 726.771 343.453C726.842 343.559 726.978 343.655 727.157 343.655V342.402ZM727.918 343.428L718.551 377.025L717.343 376.688L726.71 343.092L727.918 343.428ZM718.551 377.025C718.463 377.34 718.174 377.61 717.79 377.61V376.357C717.55 376.357 717.389 376.524 717.343 376.688L718.551 377.025ZM717.79 377.61H684.771V376.357H717.79V377.61ZM684.771 377.61C684.175 377.61 683.886 377.027 684.01 376.584L685.217 376.92C685.252 376.795 685.228 376.663 685.157 376.559C685.085 376.453 684.949 376.357 684.771 376.357V377.61ZM684.01 376.584L693.377 342.987L694.585 343.324L685.217 376.92L684.01 376.584ZM681.699 381.186C681.787 380.871 682.075 380.601 682.46 380.601V381.854C682.7 381.854 682.86 381.687 682.906 381.523L681.699 381.186ZM682.46 380.601H715.478V381.854H682.46V380.601ZM715.478 380.601C716.074 380.601 716.363 381.183 716.239 381.627L715.032 381.29C714.997 381.416 715.021 381.548 715.092 381.652C715.164 381.758 715.3 381.854 715.478 381.854V380.601ZM716.239 381.627L706.872 415.224L705.665 414.887L715.032 381.29L716.239 381.627ZM706.872 415.224C706.784 415.539 706.496 415.809 706.111 415.809V414.556C705.871 414.556 705.711 414.723 705.665 414.887L706.872 415.224ZM706.111 415.809H673.093V414.556H706.111V415.809ZM673.093 415.809C672.497 415.809 672.208 415.226 672.332 414.783L673.539 415.119C673.574 414.994 673.55 414.862 673.479 414.758C673.407 414.652 673.271 414.556 673.093 414.556V415.809ZM672.332 414.783L681.699 381.186L682.906 381.523L673.539 415.119L672.332 414.783ZM670.017 419.387C670.105 419.072 670.393 418.802 670.778 418.802V420.055C671.018 420.055 671.178 419.888 671.224 419.724L670.017 419.387ZM670.778 418.802H703.796V420.055H670.778V418.802ZM703.796 418.802C704.392 418.802 704.681 419.384 704.557 419.828L703.35 419.491C703.315 419.617 703.339 419.749 703.41 419.853C703.482 419.959 703.618 420.055 703.796 420.055V418.802ZM704.557 419.828L695.19 453.425L693.983 453.088L703.35 419.491L704.557 419.828ZM695.19 453.425C695.102 453.74 694.814 454.01 694.429 454.01V452.757C694.189 452.757 694.029 452.924 693.983 453.088L695.19 453.425ZM694.429 454.01H661.411V452.757H694.429V454.01ZM661.411 454.01C660.815 454.01 660.526 453.427 660.65 452.984L661.857 453.32C661.892 453.195 661.868 453.063 661.797 452.959C661.725 452.853 661.589 452.757 661.411 452.757V454.01ZM660.65 452.984L670.017 419.387L671.224 419.724L661.857 453.32L660.65 452.984ZM728.423 342.987C728.511 342.672 728.799 342.402 729.184 342.402V343.655C729.424 343.655 729.584 343.488 729.63 343.324L728.423 342.987ZM729.184 342.402H762.202V343.655H729.184V342.402ZM762.202 342.402C762.798 342.402 763.087 342.985 762.963 343.428L761.756 343.092C761.721 343.217 761.745 343.349 761.816 343.453C761.888 343.559 762.024 343.655 762.202 343.655V342.402ZM762.963 343.428L753.596 377.025L752.389 376.688L761.756 343.092L762.963 343.428ZM753.596 377.025C753.508 377.34 753.22 377.61 752.835 377.61V376.357C752.595 376.357 752.435 376.524 752.389 376.688L753.596 377.025ZM752.835 377.61H719.817V376.357H752.835V377.61ZM719.817 377.61C719.221 377.61 718.932 377.027 719.056 376.584L720.263 376.92C720.298 376.795 720.274 376.663 720.203 376.559C720.131 376.453 719.995 376.357 719.817 376.357V377.61ZM719.056 376.584L728.423 342.987L729.63 343.324L720.263 376.92L719.056 376.584ZM716.741 381.186C716.829 380.871 717.117 380.601 717.502 380.601V381.854C717.742 381.854 717.902 381.687 717.948 381.523L716.741 381.186ZM717.502 380.601H750.52V381.854H717.502V380.601ZM750.52 380.601C751.116 380.601 751.405 381.183 751.281 381.627L750.074 381.29C750.039 381.416 750.063 381.548 750.134 381.652C750.206 381.758 750.342 381.854 750.52 381.854V380.601ZM751.281 381.627L741.914 415.224L740.707 414.887L750.074 381.29L751.281 381.627ZM741.914 415.224C741.826 415.539 741.538 415.809 741.153 415.809V414.556C740.913 414.556 740.753 414.723 740.707 414.887L741.914 415.224ZM741.153 415.809H708.135V414.556H741.153V415.809ZM708.135 415.809C707.539 415.809 707.25 415.226 707.374 414.783L708.581 415.119C708.616 414.994 708.592 414.862 708.521 414.758C708.449 414.652 708.313 414.556 708.135 414.556V415.809ZM707.374 414.783L716.741 381.186L717.948 381.523L708.581 415.119L707.374 414.783ZM705.059 419.387C705.147 419.072 705.435 418.802 705.82 418.802V420.055C706.06 420.055 706.22 419.888 706.266 419.724L705.059 419.387ZM705.82 418.802H738.838V420.055H705.82V418.802ZM738.838 418.802C739.434 418.802 739.723 419.385 739.599 419.828L738.392 419.491C738.357 419.617 738.381 419.749 738.452 419.853C738.524 419.959 738.66 420.055 738.838 420.055V418.802ZM739.599 419.828L730.232 453.425L729.025 453.088L738.392 419.491L739.599 419.828ZM730.232 453.425C730.144 453.74 729.856 454.01 729.471 454.01V452.757C729.231 452.757 729.071 452.924 729.025 453.088L730.232 453.425ZM729.471 454.01H696.453V452.757H729.471V454.01ZM696.453 454.01C695.856 454.01 695.568 453.427 695.691 452.984L696.899 453.32C696.934 453.195 696.91 453.063 696.839 452.959C696.767 452.853 696.631 452.757 696.453 452.757V454.01ZM695.691 452.984L705.059 419.387L706.266 419.724L696.899 453.32L695.691 452.984ZM763.464 342.987C763.552 342.672 763.84 342.402 764.225 342.402V343.655C764.465 343.655 764.626 343.488 764.671 343.324L763.464 342.987ZM764.225 342.402H797.244V343.655H764.225V342.402ZM797.244 342.402C797.84 342.402 798.128 342.985 798.005 343.428L796.797 343.092C796.762 343.217 796.787 343.349 796.857 343.453C796.929 343.559 797.065 343.655 797.244 343.655V342.402ZM798.005 343.428L788.638 377.025L787.43 376.688L796.797 343.092L798.005 343.428ZM788.638 377.025C788.55 377.34 788.261 377.61 787.876 377.61V376.357C787.637 376.357 787.476 376.524 787.43 376.688L788.638 377.025ZM787.876 377.61H754.858V376.357H787.876V377.61ZM754.858 377.61C754.262 377.61 753.973 377.027 754.097 376.584L755.304 376.92C755.339 376.795 755.315 376.663 755.244 376.559C755.172 376.453 755.036 376.357 754.858 376.357V377.61ZM754.097 376.584L763.464 342.987L764.671 343.324L755.304 376.92L754.097 376.584ZM751.783 381.186C751.87 380.871 752.159 380.601 752.544 380.601V381.854C752.784 381.854 752.944 381.687 752.99 381.523L751.783 381.186ZM752.544 380.601H785.562V381.854H752.544V380.601ZM785.562 380.601C786.158 380.601 786.447 381.183 786.323 381.627L785.116 381.29C785.081 381.416 785.105 381.548 785.176 381.652C785.248 381.758 785.384 381.854 785.562 381.854V380.601ZM786.323 381.627L776.956 415.224L775.749 414.887L785.116 381.29L786.323 381.627ZM776.956 415.224C776.868 415.539 776.58 415.809 776.195 415.809V414.556C775.955 414.556 775.794 414.723 775.749 414.887L776.956 415.224ZM776.195 415.809H743.177V414.556H776.195V415.809ZM743.177 415.809C742.58 415.809 742.292 415.226 742.415 414.783L743.623 415.119C743.658 414.994 743.634 414.862 743.563 414.758C743.491 414.652 743.355 414.556 743.177 414.556V415.809ZM742.415 414.783L751.783 381.186L752.99 381.523L743.623 415.119L742.415 414.783ZM740.1 419.387C740.188 419.072 740.477 418.802 740.862 418.802V420.055C741.101 420.055 741.262 419.888 741.308 419.724L740.1 419.387ZM740.862 418.802H773.88V420.055H740.862V418.802ZM773.88 418.802C774.476 418.802 774.765 419.385 774.641 419.828L773.434 419.491C773.399 419.617 773.423 419.749 773.494 419.853C773.566 419.959 773.702 420.055 773.88 420.055V418.802ZM774.641 419.828L765.274 453.425L764.067 453.088L773.434 419.491L774.641 419.828ZM765.274 453.425C765.186 453.74 764.898 454.01 764.513 454.01V452.757C764.273 452.757 764.112 452.924 764.067 453.088L765.274 453.425ZM764.513 454.01H731.494V452.757H764.513V454.01ZM731.494 454.01C730.898 454.01 730.61 453.427 730.733 452.984L731.941 453.32C731.976 453.195 731.951 453.063 731.881 452.959C731.809 452.853 731.673 452.757 731.494 452.757V454.01ZM730.733 452.984L740.1 419.387L741.308 419.724L731.941 453.32L730.733 452.984Z" fill="#0C2083" mask="url(#path-140-inside-1_1821_49576)"/>
<g style="mix-blend-mode:multiply">
<path d="M771.524 309.838L751.825 377.768C749.952 384.224 744.025 388.654 737.303 388.62L624.899 388.059L647.606 309.838H771.524Z" fill="url(#paint20_linear_1821_49576)"/>
</g>
<path d="M727.382 309.074C727.382 306.556 726.697 304.094 725.414 302C724.13 299.906 722.306 298.274 720.171 297.31C718.037 296.346 715.688 296.094 713.422 296.585C711.157 297.077 709.075 298.29 707.442 300.07C705.808 301.851 704.696 304.12 704.245 306.59C703.794 309.06 704.026 311.62 704.91 313.947C705.794 316.274 707.291 318.262 709.212 319.661" stroke="#0C2083" stroke-width="0.626731" stroke-linecap="round"/>
<path d="M684.549 309.074C684.549 306.556 683.864 304.094 682.58 302C681.297 299.906 679.473 298.274 677.338 297.31C675.204 296.346 672.855 296.094 670.589 296.585C668.324 297.077 666.242 298.29 664.609 300.07C662.975 301.851 661.863 304.12 661.412 306.59C660.961 309.06 661.193 311.62 662.077 313.947C662.961 316.274 664.458 318.262 666.379 319.661" stroke="#0C2083" stroke-width="0.626731" stroke-linecap="round"/>
<path d="M770.208 309.074C770.208 306.556 769.523 304.094 768.24 302C766.956 299.906 765.132 298.274 762.998 297.31C760.863 296.346 758.515 296.094 756.249 296.585C753.983 297.077 751.901 298.29 750.268 300.07C748.634 301.851 747.522 304.12 747.071 306.59C746.62 309.06 746.852 311.62 747.736 313.947C748.62 316.274 750.117 318.262 752.038 319.661" stroke="#0C2083" stroke-width="0.626731" stroke-linecap="round"/>
<path d="M813.039 309.074C813.039 306.556 812.354 304.094 811.071 302C809.787 299.906 807.963 298.274 805.829 297.31C803.694 296.346 801.346 296.094 799.08 296.585C796.814 297.077 794.733 298.29 793.099 300.07C791.465 301.851 790.353 304.12 789.902 306.59C789.451 309.06 789.683 311.62 790.567 313.947C791.451 316.274 792.948 318.262 794.869 319.661" stroke="#0C2083" stroke-width="0.626731" stroke-linecap="round"/>
<path d="M668.017 319.977C667.622 321.203 666.964 322.183 666.236 322.781C665.504 323.382 664.742 323.569 664.101 323.323C663.46 323.078 662.972 322.413 662.744 321.445C662.518 320.483 662.567 319.27 662.962 318.043C663.356 316.816 664.014 315.837 664.742 315.239C665.474 314.638 666.237 314.451 666.878 314.696C667.519 314.942 668.007 315.607 668.234 316.575C668.46 317.537 668.412 318.75 668.017 319.977Z" stroke="#0C2083" stroke-width="0.626731"/>
<path d="M710.848 319.977C710.453 321.203 709.796 322.183 709.067 322.781C708.335 323.382 707.573 323.569 706.932 323.323C706.291 323.078 705.803 322.413 705.575 321.445C705.349 320.483 705.398 319.27 705.793 318.043C706.187 316.816 706.845 315.837 707.573 315.239C708.306 314.638 709.068 314.451 709.709 314.696C710.35 314.942 710.838 315.607 711.065 316.575C711.291 317.537 711.243 318.75 710.848 319.977Z" stroke="#0C2083" stroke-width="0.626731"/>
<path d="M753.68 319.977C753.285 321.203 752.628 322.183 751.899 322.781C751.167 323.382 750.405 323.569 749.764 323.323C749.123 323.078 748.635 322.413 748.407 321.445C748.181 320.483 748.23 319.27 748.625 318.043C749.019 316.816 749.677 315.837 750.405 315.239C751.138 314.638 751.9 314.451 752.541 314.696C753.182 314.942 753.67 315.607 753.897 316.575C754.123 317.537 754.075 318.75 753.68 319.977Z" stroke="#0C2083" stroke-width="0.626731"/>
<path d="M796.506 319.977C796.111 321.203 795.454 322.183 794.725 322.781C793.993 323.382 793.231 323.569 792.59 323.323C791.949 323.078 791.461 322.413 791.234 321.445C791.008 320.483 791.056 319.27 791.451 318.043C791.846 316.816 792.503 315.837 793.231 315.239C793.964 314.638 794.726 314.451 795.367 314.696C796.008 314.942 796.496 315.607 796.723 316.575C796.949 317.537 796.901 318.75 796.506 319.977Z" stroke="#0C2083" stroke-width="0.626731"/>
<path d="M750.663 398.077L760.214 409.986C760.25 410.032 760.314 410.036 760.356 409.996L782.28 389.102" stroke="#D93535" stroke-width="0.626731" stroke-linecap="round"/>
<path d="M668.608 430.625L678.159 442.534C678.195 442.579 678.259 442.584 678.301 442.544L700.225 421.65" stroke="#D0FF00" stroke-width="4.38712" stroke-linecap="round"/>
<path d="M833.925 308.83L799.928 425.918L747.58 425.102C744.272 425.051 741.92 421.866 742.843 418.69L774.774 308.83H833.925Z" fill="url(#paint21_linear_1821_49576)"/>
<path d="M869.025 248.918C869.31 247.902 869.005 246.812 868.234 246.092L863.872 242.022L780.097 247.34C778.924 247.415 777.92 248.209 777.578 249.334L731.359 401.158C731.241 401.546 731.208 401.955 731.262 402.357L731.975 407.622C732.164 409.021 733.358 410.064 734.769 410.064H821.589C822.853 410.064 823.963 409.224 824.304 408.007L869.025 248.918Z" fill="#798DF3"/>
<path d="M869.025 248.918C869.31 247.902 869.005 246.812 868.234 246.092L863.872 242.022L780.097 247.34C778.924 247.415 777.92 248.209 777.578 249.334L731.359 401.158C731.241 401.546 731.208 401.955 731.262 402.357L731.975 407.622C732.164 409.021 733.358 410.064 734.769 410.064H821.589C822.853 410.064 823.963 409.224 824.304 408.007L869.025 248.918Z" fill="url(#paint22_linear_1821_49576)"/>
<path d="M869.025 248.918C869.31 247.902 869.005 246.812 868.234 246.092L863.872 242.022L780.097 247.34C778.924 247.415 777.92 248.209 777.578 249.334L731.359 401.158C731.241 401.546 731.208 401.955 731.262 402.357L731.975 407.622C732.164 409.021 733.358 410.064 734.769 410.064H821.589C822.853 410.064 823.963 409.224 824.304 408.007L869.025 248.918Z" stroke="#0C2083" stroke-width="0.626731" stroke-linecap="round"/>
<path d="M865.689 244.817C866.195 243.018 864.843 241.233 862.974 241.233H777.552C776.288 241.233 775.179 242.074 774.837 243.29L730.72 400.235C730.214 402.035 731.566 403.819 733.435 403.819H818.857C820.121 403.819 821.23 402.978 821.572 401.762L865.689 244.817Z" fill="white" stroke="#0C2083" stroke-width="0.626731" stroke-linecap="round"/>
<path d="M823.836 281.278C825.767 274.39 820.815 267.774 813.727 267.774H808.009C798.873 267.774 790.67 274.038 788.18 282.918L786.59 288.588C784.659 295.476 789.612 302.092 796.699 302.092H803.406C811.963 302.092 819.645 296.225 821.976 287.91L823.836 281.278Z" fill="#798DF3" stroke="#0C2083" stroke-width="0.626731" stroke-linecap="round"/>
<path d="M774.499 385.362C775.005 383.199 773.363 381.13 771.143 381.13H747.537C744.771 381.13 742.369 383.035 741.739 385.728L741.225 387.929C740.719 390.092 742.36 392.161 744.581 392.161H768.187C770.953 392.161 773.354 390.256 773.984 387.563L774.499 385.362Z" fill="#798DF3" stroke="#0C2083" stroke-width="0.626731"/>
<path d="M816.124 385.212C816.646 383.043 815.003 380.958 812.773 380.958H788.186C785.434 380.958 783.041 382.843 782.397 385.518L781.864 387.735C781.342 389.904 782.985 391.989 785.215 391.989H809.802C812.553 391.989 814.946 390.104 815.59 387.429L816.124 385.212Z" fill="#798DF3" stroke="#0C2083" stroke-width="0.626731"/>
<line x1="0.313366" y1="-0.313366" x2="52.6924" y2="-0.313366" transform="matrix(-1 0 0 1 823.296 318.979)" stroke="#0C2083" stroke-width="0.626731" stroke-linecap="round"/>
<line x1="0.313366" y1="-0.313366" x2="52.6924" y2="-0.313366" transform="matrix(-1 0 0 1 820.173 331.467)" stroke="#0C2083" stroke-width="0.626731" stroke-linecap="round"/>
<line x1="0.313366" y1="-0.313366" x2="52.6924" y2="-0.313366" transform="matrix(-1 0 0 1 817.05 341.616)" stroke="#0C2083" stroke-width="0.626731" stroke-linecap="round"/>
<line x1="0.313366" y1="-0.313366" x2="53.7525" y2="-0.313366" transform="matrix(-1 0 0 1 813.426 353.261)" stroke="#0C2083" stroke-width="0.626731" stroke-linecap="round"/>
<path d="M866.592 241.516L857.273 273.898L842.081 273.731C838.117 273.687 835.284 269.88 836.382 266.071L843.455 241.516H866.592Z" fill="url(#paint23_linear_1821_49576)"/>
<g clip-path="url(#clip0_1821_49576)">
<path d="M943.514 120.255C943.765 119.334 943.609 118.367 943.084 117.603L938.745 111.286C938.232 110.54 937.383 110.098 936.459 110.098L868.574 110.098C866.356 110.098 864.364 111.62 863.761 113.776L827.401 243.716C827.012 245.105 827.258 246.569 828.072 247.709L831.873 253.034C832.729 254.233 834.116 254.938 835.619 254.938H868.572H902.877C905.106 254.938 907.105 253.402 907.698 251.232L943.514 120.255Z" fill="url(#paint24_linear_1821_49576)" stroke="#1230C6" stroke-width="0.626731"/>
<path d="M939.667 115.076C940.361 112.526 938.523 110.092 935.904 110.092H867.483C865.25 110.092 863.25 111.632 862.659 113.806L826.764 245.862C826.325 247.477 827.488 249.018 829.147 249.018H899.445C901.677 249.018 903.678 247.478 904.269 245.304L939.667 115.076Z" fill="#E8EFFD" stroke="#3554EC" stroke-width="0.626731"/>
<path d="M885.71 116.492H885.578L885.489 116.397L881.386 111.991H867.263C865.031 111.991 863.031 113.53 862.44 115.703L827.83 242.843C827.391 244.458 828.554 245.999 830.213 245.999H897.038C899.269 245.999 901.269 244.46 901.861 242.288L936.357 115.564C936.854 113.736 935.537 111.991 933.66 111.991H919.86C919.365 111.991 918.876 112.155 918.471 112.459L914.359 115.538C913.533 116.157 912.536 116.492 911.525 116.492H899.855H885.71Z" fill="url(#paint25_linear_1821_49576)" stroke="#1230C6" stroke-width="0.626731"/>
<path d="M924.215 161.812L932.926 129.812L860.01 129.812C859.205 129.812 858.486 130.375 858.284 131.164L855.235 143.057L862.826 150.573C863.255 150.997 863.413 151.629 863.241 152.227L861.934 156.778C860.869 160.486 863.519 164.069 867.326 164.069C871.261 164.069 874.89 161.959 876.954 158.689C877.139 161.636 879.52 164.069 882.692 164.069C886.66 164.069 890.322 161.97 892.444 158.703C892.566 161.63 894.908 164.069 898.044 164.069C901.966 164.069 905.583 161.964 907.637 158.703C907.829 161.644 910.207 164.069 913.374 164.069C917.343 164.069 921.006 161.969 923.127 158.701C923.175 159.853 923.566 160.929 924.215 161.812Z" fill="url(#paint26_linear_1821_49576)"/>
<line y1="-0.313366" x2="21.2282" y2="-0.313366" transform="matrix(-1 0 -0.0413639 0.999144 912.804 114.229)" stroke="#8896A2" stroke-width="0.626731"/>
<path d="M936.421 115.979C936.481 115.765 936.405 115.541 936.23 115.415L928.402 109.76C924.412 106.878 918.598 109.047 917.233 113.927L911.715 133.645C911.655 133.859 911.73 134.083 911.905 134.209L928.055 145.874L936.421 115.979ZM928.223 145.995C928.223 145.995 928.222 145.995 928.222 145.995L928.223 145.995ZM927.998 146.079C927.998 146.079 927.998 146.079 927.998 146.079L927.998 146.079Z" fill="url(#paint27_linear_1821_49576)" stroke="#A54D12" stroke-width="0.626731"/>
<path d="M863.359 112.411L863.636 112.478L863.359 112.411C863.359 112.411 863.359 112.411 863.359 112.411L863.359 112.411ZM863.302 112.613C855.765 107.907 845.475 112.093 843.002 120.931L839.612 133.042L854.834 142.874L863.302 112.613ZM854.999 142.98C854.998 142.98 854.998 142.98 854.998 142.98L854.999 142.98Z" fill="url(#paint28_linear_1821_49576)" stroke="#A54D12" stroke-width="0.626731"/>
<path d="M921.778 109.607L915.303 109.607L909.987 109.607C906.63 109.607 903.606 111.882 902.642 115.132L896.261 136.651C895.618 138.818 897.17 140.925 899.408 140.925L904.059 140.925C907.105 140.925 909.849 138.861 910.724 135.912L916.931 114.978C917.664 112.506 919.494 110.554 921.778 109.607Z" fill="url(#paint29_linear_1821_49576)" stroke="#A54D12" stroke-width="0.626731"/>
<path d="M892.65 109.607L886.175 109.607L880.859 109.607C877.502 109.607 874.478 111.882 873.514 115.132L867.133 136.651C866.49 138.818 868.042 140.925 870.28 140.925L874.931 140.925C877.977 140.925 880.721 138.861 881.596 135.912L887.803 114.978C888.536 112.506 890.367 110.554 892.65 109.607Z" fill="url(#paint30_linear_1821_49576)" stroke="#A54D12" stroke-width="0.626731"/>
<path d="M864.342 109.313L857.688 109.313L851.272 109.313C847.974 109.313 844.99 111.509 843.974 114.683L837.118 136.108C836.419 138.292 837.974 140.454 840.243 140.454L846.184 140.454C849.176 140.454 851.884 138.462 852.806 135.582L859.547 114.515C860.313 112.12 862.113 110.238 864.342 109.313Z" fill="url(#paint31_linear_1821_49576)" stroke="#A54D12" stroke-width="0.626731"/>
<path d="M864.342 109.313L857.688 109.313L851.272 109.313C847.974 109.313 844.99 111.509 843.974 114.683L837.118 136.108C836.419 138.292 837.974 140.454 840.243 140.454L846.184 140.454C849.176 140.454 851.884 138.462 852.806 135.582L859.547 114.515C860.313 112.12 862.113 110.238 864.342 109.313Z" fill="url(#paint32_linear_1821_49576)" stroke="#A54D12" stroke-width="0.626731"/>
<path d="M907.277 109.607L898.472 109.607L895.103 109.607C891.745 109.607 888.721 111.882 887.757 115.132L881.376 136.651C880.734 138.818 882.285 140.925 884.523 140.925L889.558 140.925C892.604 140.925 895.348 138.861 896.223 135.912L902.43 114.978C903.163 112.506 904.993 110.554 907.277 109.607Z" fill="#FFF6F0" stroke="#A54D12" stroke-width="0.626731"/>
<path d="M878.148 109.607L869.343 109.607L865.974 109.607C862.616 109.607 859.592 111.882 858.628 115.132L852.247 136.651C851.605 138.818 853.156 140.925 855.395 140.925L860.429 140.925C863.475 140.925 866.219 138.861 867.094 135.912L873.301 114.978C874.034 112.506 875.865 110.554 878.148 109.607Z" fill="#FFF6F0" stroke="#A54D12" stroke-width="0.626731"/>
<path d="M915.345 172.246C916.182 169.163 913.959 166.222 910.793 166.222L856.489 166.222C854.207 166.222 852.159 167.787 851.54 170.006L835.248 228.325C834.672 230.387 836.155 232.365 838.276 232.365L895.111 232.365C897.407 232.365 899.464 230.781 900.071 228.545L915.345 172.246Z" fill="url(#paint33_linear_1821_49576)"/>
<path d="M872.089 247.281H854.223" stroke="#3554EC" stroke-width="0.626731" stroke-linecap="round"/>
<path d="M912.311 165.051C912.908 162.918 911.374 160.87 909.179 160.87H857.782C852.745 160.87 848.231 164.343 846.895 169.247L832.061 223.7C831.482 225.826 833.015 227.857 835.2 227.857L889.11 227.857C892.401 227.857 895.361 225.6 896.256 222.402L912.311 165.051Z" fill="url(#paint34_linear_1821_49576)" stroke="#A54D12" stroke-width="0.626731"/>
<path d="M909.918 163.554C910.494 161.428 908.962 159.4 906.779 159.4H852.918C849.626 159.4 846.672 161.659 845.778 164.859L830.168 220.739C829.573 222.871 831.106 224.918 833.3 224.918L887.61 224.918C890.922 224.918 893.89 222.632 894.765 219.406L909.918 163.554Z" fill="#FFF6F0" stroke="#A54D12" stroke-width="0.626731"/>
<path d="M892.083 210.565C892.374 209.413 891.539 208.33 890.361 208.33L841.079 208.33C839.366 208.33 837.828 209.501 837.356 211.165L836.237 215.107C835.906 216.273 836.744 217.397 837.945 217.397H887.351C889.106 217.397 890.672 216.168 891.104 214.453L892.083 210.565Z" fill="#EE4D2D"/>
<path d="M903.361 188.553L885.208 188.553C883.491 188.553 881.95 189.73 881.482 191.399L878.984 200.307C878.657 201.472 879.495 202.591 880.694 202.591H899.655L903.361 188.553Z" fill="url(#paint35_linear_1821_49576)"/>
<path d="M908.76 167.494L890.607 167.494C888.89 167.494 887.348 168.671 886.88 170.34L884.382 179.249C884.056 180.414 884.893 181.533 886.092 181.533H905.054L908.76 167.494Z" fill="url(#paint36_linear_1821_49576)"/>
<path d="M938.161 166.743C938.277 166.266 938.164 165.772 937.854 165.41L934.777 161.81C934.652 161.663 934.463 161.584 934.266 161.596L887.575 164.345C886.395 164.415 885.31 165.089 884.709 166.128L880.552 173.312L883.101 176.733C883.378 177.104 883.816 177.321 884.289 177.321L932.805 177.321C934.422 177.321 935.862 176.183 936.248 174.599L938.161 166.743Z" fill="url(#paint37_linear_1821_49576)" stroke="#A54D12" stroke-width="0.626731"/>
<path d="M931.89 186.24C932.006 185.763 931.892 185.27 931.583 184.907L928.506 181.307C928.38 181.16 928.192 181.081 927.994 181.093L881.304 183.842C880.124 183.912 879.038 184.587 878.438 185.625L874.28 192.809L876.829 196.23C877.106 196.601 877.544 196.818 878.017 196.818L926.534 196.818C928.151 196.818 929.591 195.68 929.976 194.096L931.89 186.24Z" fill="url(#paint38_linear_1821_49576)" stroke="#A54D12" stroke-width="0.626731"/>
<path d="M935.082 162.641C935.321 161.685 934.627 160.788 933.649 160.788L886.205 160.788C884.633 160.788 883.222 161.865 882.793 163.392L880.292 172.301C880.02 173.27 880.716 174.2 881.712 174.2H929.437C931.047 174.2 932.482 173.071 932.875 171.496L935.082 162.641Z" fill="#FFF6F0" stroke="#A54D12" stroke-width="0.626731"/>
<path d="M928.81 182.14C929.048 181.184 928.354 180.287 927.377 180.287L879.932 180.287C878.36 180.287 876.949 181.364 876.521 182.891L874.019 191.8C873.747 192.769 874.443 193.699 875.44 193.699H923.164C924.774 193.699 926.21 192.57 926.602 190.995L928.81 182.14Z" fill="#FFF6F0" stroke="#A54D12" stroke-width="0.626731"/>
<path d="M877.65 158.914L853.343 158.914C849.897 158.914 846.806 161.284 845.881 164.636L837.967 193.309L857.911 193.309C858.223 193.309 858.504 193.481 858.641 193.755L861.718 199.923C862.728 201.948 865.764 201.55 866.388 199.311L877.65 158.914Z" fill="url(#paint39_linear_1821_49576)"/>
<path d="M874.3 154.057C874.903 151.922 873.368 149.869 871.171 149.869H845.194C841.902 149.869 838.948 152.127 838.054 155.327L830.432 182.612C829.836 184.744 831.37 186.791 833.564 186.791L854.13 186.791C854.555 186.791 854.937 187.022 855.126 187.395L858.877 194.8C859.768 196.558 862.407 196.209 862.956 194.26L874.3 154.057Z" fill="url(#paint40_linear_1821_49576)" stroke="#A54D12" stroke-width="0.626731"/>
<path d="M872.119 150.156C872.721 148.021 871.187 145.968 868.989 145.968H843.013C839.721 145.968 836.766 148.227 835.872 151.427L828.251 178.711C827.655 180.844 829.189 182.89 831.382 182.89L851.948 182.89C852.374 182.89 852.756 183.122 852.945 183.495L856.696 190.9C857.586 192.658 860.225 192.308 860.775 190.36L872.119 150.156Z" fill="#FFF6F0" stroke="#A54D12" stroke-width="0.626731"/>
<path d="M864.437 152.763C864.622 152.079 864.129 151.427 863.427 151.427L842.142 151.427C840.993 151.427 839.956 152.201 839.617 153.31C839.402 154.013 839.904 154.701 840.631 154.701H861.922C863.086 154.701 864.13 153.897 864.437 152.763Z" fill="#FFF6F0" stroke="#A54D12" stroke-width="0.626731"/>
<path d="M861.803 159.781C861.988 159.098 861.495 158.446 860.794 158.446L839.508 158.446C838.359 158.446 837.322 159.219 836.983 160.329C836.768 161.031 837.27 161.719 837.997 161.719H859.288C860.452 161.719 861.496 160.915 861.803 159.781Z" fill="#FFF6F0" stroke="#A54D12" stroke-width="0.626731"/>
<path d="M845.864 167.582C846.049 166.899 845.556 166.247 844.854 166.247L837.623 166.247C836.474 166.247 835.437 167.02 835.098 168.13C834.883 168.832 835.385 169.52 836.112 169.52H843.349C844.513 169.52 845.556 168.716 845.864 167.582Z" fill="#FFF6F0" stroke="#A54D12" stroke-width="0.626731"/>
</g>
<path d="M975.824 222.267C976.443 219.891 975.864 217.362 974.271 215.492L969.605 210.015L948.561 213.575C943.247 214.474 938.82 218.148 936.956 223.205L929.808 242.605L935.383 249.742C936.809 251.566 938.995 252.632 941.31 252.632H956.283C963.128 252.632 969.11 248.01 970.837 241.387L975.824 222.267Z" fill="url(#paint41_linear_1821_49576)"/>
<path d="M971.938 217.498C973.139 212.747 969.548 208.135 964.647 208.135H948.048C941.16 208.135 935.153 212.813 933.465 219.491L929.04 237.002C927.839 241.753 931.43 246.365 936.331 246.365H952.93C959.817 246.365 965.825 241.687 967.513 235.009L971.938 217.498Z" fill="#FFEBDC"/>
<path fill-rule="evenodd" clip-rule="evenodd" d="M952.582 231.076C952.093 232.397 951.007 233.456 949.596 233.986C948.81 234.281 947.813 234.441 947.067 234.391C945.895 234.347 944.852 234.068 943.952 233.559C943.631 233.377 943.174 233.014 942.839 232.673C942.754 232.587 942.755 232.532 942.848 232.436C942.9 232.38 942.994 232.28 943.202 232.061C943.504 231.743 943.542 231.703 943.576 231.666C943.674 231.56 943.793 231.55 943.886 231.638C943.896 231.647 943.896 231.647 943.903 231.654C943.919 231.668 943.919 231.668 943.955 231.701C943.992 231.735 944.013 231.755 944.022 231.763C944.922 232.601 946.09 233.084 947.378 233.133C949.19 233.109 950.682 232.322 951.211 231.114C951.792 229.784 950.995 228.635 949.043 227.995C948.432 227.795 946.923 227.149 946.659 226.974C945.416 226.154 945.004 225.08 945.424 223.753C946.021 221.914 948.12 220.542 950.35 220.533C951.347 220.531 952.292 220.731 953.152 221.121C953.457 221.259 953.983 221.577 954.154 221.728C954.253 221.813 954.253 221.913 954.158 222.02C954.104 222.082 954.016 222.181 953.832 222.387L953.83 222.389C953.587 222.66 953.58 222.669 953.524 222.732C953.429 222.835 953.344 222.845 953.237 222.767C952.378 222.102 951.327 221.768 950.086 221.744C948.528 221.773 947.146 222.667 946.772 223.885C946.482 224.986 947.138 225.789 948.828 226.401C952.28 227.564 953.376 228.927 952.582 231.076ZM952.613 212.085C955.046 212.085 956.482 214.32 955.89 217.118H946.875C947.652 214.32 950.181 212.085 952.613 212.085ZM963.841 217.644C963.912 217.353 963.728 217.118 963.43 217.118H957.587C958.347 213.423 956.345 210.478 953.007 210.478C949.668 210.478 946.225 213.423 945.177 217.118L939.326 217.118C939.031 217.123 938.738 217.356 938.667 217.644C938.664 217.657 938.661 217.671 938.659 217.685H938.655L935.133 235.491C935.121 235.54 935.111 235.59 935.102 235.641C935.1 235.652 935.099 235.663 935.097 235.674L935.089 235.712L935.091 235.714C934.915 236.953 935.599 237.951 936.85 237.997L936.853 238H955.415C955.423 238 955.432 238 955.441 238C955.45 238 955.459 238 955.467 238H955.507L955.508 237.999C956.801 237.965 958.089 236.953 958.506 235.699L958.507 235.698L958.512 235.681C958.516 235.668 958.52 235.655 958.524 235.642C958.534 235.61 958.543 235.579 958.551 235.548L963.835 217.671C963.837 217.662 963.839 217.653 963.841 217.644Z" fill="#EE4D2D"/>
<g filter="url(#filter0_b_1821_49576)">
<path d="M604.278 200.272C606.516 195.596 611.207 192.028 616.26 191.159L738.278 170.186C742.758 169.416 746.827 170.891 749.015 174.077L759.128 188.805C760.79 191.227 761.203 194.406 760.276 197.644L722.078 330.983C720.226 337.448 713.591 342.499 706.95 342.499H570.232C566.89 342.499 563.982 341.198 562.154 338.884L550.925 324.672C548.537 321.651 548.287 317.287 550.265 313.153L604.278 200.272Z" fill="#0C2083"/>
</g>
<g filter="url(#filter1_b_1821_49576)">
<path d="M583.608 175.896C585.41 169.382 592.082 164.263 598.769 164.263H738.864C746.025 164.263 750.404 170.102 748.474 177.077L710.679 313.68C708.877 320.194 702.205 325.313 695.517 325.313H555.422C548.262 325.313 543.882 319.473 545.812 312.499L583.608 175.896Z" fill="url(#paint42_linear_1821_49576)"/>
</g>
<path d="M605.829 294.634C597.27 294.634 592.26 287.821 594.68 279.376L614.348 210.745C616.759 202.331 625.651 195.486 634.242 195.486C642.802 195.486 647.811 202.299 645.391 210.745L625.723 279.376C623.312 287.79 614.42 294.634 605.829 294.634Z" fill="#D0FF00"/>
<path d="M661.261 244.636C671.389 244.636 681.894 236.629 684.724 226.751C687.555 216.874 681.639 208.866 671.511 208.866C661.383 208.866 650.878 216.874 648.047 226.751C645.217 236.629 651.133 244.636 661.261 244.636Z" fill="#D0FF00"/>
<path d="M638.723 276.388C634.8 273.352 635.229 267.102 639.681 262.428L648.011 253.682C652.463 249.008 659.253 247.679 663.176 250.715L679.755 263.544C683.678 266.579 683.249 272.829 678.797 277.504L670.467 286.25C666.015 290.924 659.226 292.252 655.303 289.217L638.723 276.388Z" fill="#D0FF00"/>
<defs>
<filter id="filter0_b_1821_49576" x="547.987" y="169.032" width="213.727" height="174.42" filterUnits="userSpaceOnUse" color-interpolation-filters="sRGB">
<feFlood flood-opacity="0" result="BackgroundImageFix"/>
<feGaussianBlur in="BackgroundImageFix" stdDeviation="0.476572"/>
<feComposite in2="SourceAlpha" operator="in" result="effect1_backgroundBlur_1821_49576"/>
<feBlend mode="normal" in="SourceGraphic" in2="effect1_backgroundBlur_1821_49576" result="shape"/>
</filter>
<filter id="filter1_b_1821_49576" x="544.402" y="163.31" width="205.481" height="162.956" filterUnits="userSpaceOnUse" color-interpolation-filters="sRGB">
<feFlood flood-opacity="0" result="BackgroundImageFix"/>
<feGaussianBlur in="BackgroundImageFix" stdDeviation="0.476572"/>
<feComposite in2="SourceAlpha" operator="in" result="effect1_backgroundBlur_1821_49576"/>
<feBlend mode="normal" in="SourceGraphic" in2="effect1_backgroundBlur_1821_49576" result="shape"/>
</filter>
<linearGradient id="paint0_linear_1821_49576" x1="290.604" y1="334.68" x2="351.496" y2="464.447" gradientUnits="userSpaceOnUse">
<stop stop-color="#0C2083"/>
<stop offset="1" stop-color="#3554EC"/>
</linearGradient>
<linearGradient id="paint1_linear_1821_49576" x1="253.054" y1="376.832" x2="175.274" y2="477.533" gradientUnits="userSpaceOnUse">
<stop stop-color="#0C2083"/>
<stop offset="1" stop-color="#3554EC"/>
</linearGradient>
<linearGradient id="paint2_linear_1821_49576" x1="557.64" y1="184.417" x2="851.375" y2="655.643" gradientUnits="userSpaceOnUse">
<stop stop-color="#1230C6"/>
<stop offset="1" stop-color="#798DF3" stop-opacity="0"/>
</linearGradient>
<linearGradient id="paint3_linear_1821_49576" x1="357.986" y1="346.216" x2="655.6" y2="762.544" gradientUnits="userSpaceOnUse">
<stop stop-color="#1230C6"/>
<stop offset="1" stop-color="#798DF3" stop-opacity="0"/>
</linearGradient>
<linearGradient id="paint4_linear_1821_49576" x1="555.356" y1="201.199" x2="628.008" y2="419.821" gradientUnits="userSpaceOnUse">
<stop stop-color="#1230C6"/>
<stop offset="1" stop-color="#798DF3"/>
</linearGradient>
<linearGradient id="paint5_linear_1821_49576" x1="486.587" y1="220.325" x2="646.621" y2="323.692" gradientUnits="userSpaceOnUse">
<stop stop-color="#1230C6"/>
<stop offset="1" stop-color="#798DF3" stop-opacity="0"/>
</linearGradient>
<linearGradient id="paint6_linear_1821_49576" x1="286.691" y1="143.565" x2="258.62" y2="431.737" gradientUnits="userSpaceOnUse">
<stop stop-color="#1230C6"/>
<stop offset="1" stop-color="#798DF3"/>
</linearGradient>
<linearGradient id="paint7_linear_1821_49576" x1="432.162" y1="-76.3899" x2="214.436" y2="86.3626" gradientUnits="userSpaceOnUse">
<stop stop-color="#1230C6"/>
<stop offset="1" stop-color="#BCC6F9"/>
</linearGradient>
<linearGradient id="paint8_linear_1821_49576" x1="420.83" y1="126.524" x2="427.96" y2="174.745" gradientUnits="userSpaceOnUse">
<stop stop-color="#09A854"/>
<stop offset="1" stop-color="#54C981" stop-opacity="0.44"/>
</linearGradient>
<linearGradient id="paint9_linear_1821_49576" x1="382.472" y1="91.1982" x2="382.472" y2="143.671" gradientUnits="userSpaceOnUse">
<stop stop-color="#09A854"/>
<stop offset="1" stop-color="#54C981"/>
</linearGradient>
<linearGradient id="paint10_linear_1821_49576" x1="467.351" y1="91.0303" x2="467.351" y2="142.04" gradientUnits="userSpaceOnUse">
<stop stop-color="#09A854"/>
<stop offset="1" stop-color="#54C981"/>
</linearGradient>
<linearGradient id="paint11_linear_1821_49576" x1="392.023" y1="89.9809" x2="399.02" y2="118.664" gradientUnits="userSpaceOnUse">
<stop stop-color="#EBFFF3"/>
<stop offset="1" stop-color="#54C981"/>
</linearGradient>
<linearGradient id="paint12_linear_1821_49576" x1="426.171" y1="89.9809" x2="433.169" y2="118.664" gradientUnits="userSpaceOnUse">
<stop stop-color="#EBFFF3"/>
<stop offset="1" stop-color="#54C981"/>
</linearGradient>
<linearGradient id="paint13_linear_1821_49576" x1="460.318" y1="89.9809" x2="467.315" y2="118.664" gradientUnits="userSpaceOnUse">
<stop stop-color="#EBFFF3"/>
<stop offset="1" stop-color="#54C981"/>
</linearGradient>
<linearGradient id="paint14_linear_1821_49576" x1="397.355" y1="185.741" x2="416.957" y2="265.59" gradientUnits="userSpaceOnUse">
<stop stop-color="#09A854"/>
<stop offset="1" stop-color="#54C981" stop-opacity="0.44"/>
</linearGradient>
<linearGradient id="paint15_linear_1821_49576" x1="404.889" y1="140.483" x2="429.147" y2="218.164" gradientUnits="userSpaceOnUse">
<stop stop-color="#09A854"/>
<stop offset="1" stop-color="#54C981" stop-opacity="0.44"/>
</linearGradient>
<linearGradient id="paint16_linear_1821_49576" x1="524.951" y1="134.465" x2="524.951" y2="187.545" gradientUnits="userSpaceOnUse">
<stop stop-color="#7D9900"/>
<stop offset="1" stop-color="#536600"/>
</linearGradient>
<linearGradient id="paint17_linear_1821_49576" x1="768.822" y1="379.863" x2="768.822" y2="500.073" gradientUnits="userSpaceOnUse">
<stop stop-color="#1230C6"/>
<stop offset="1" stop-color="#3554EC"/>
</linearGradient>
<linearGradient id="paint18_linear_1821_49576" x1="741.229" y1="379.863" x2="741.229" y2="500.073" gradientUnits="userSpaceOnUse">
<stop stop-color="#1230C6"/>
<stop offset="1" stop-color="#3554EC"/>
</linearGradient>
<linearGradient id="paint19_linear_1821_49576" x1="744.063" y1="379.863" x2="744.063" y2="500.073" gradientUnits="userSpaceOnUse">
<stop stop-color="#1230C6"/>
<stop offset="1" stop-color="#3554EC"/>
</linearGradient>
<linearGradient id="paint20_linear_1821_49576" x1="653.465" y1="273.642" x2="546.556" y2="538.52" gradientUnits="userSpaceOnUse">
<stop stop-color="#1230C6"/>
<stop offset="1" stop-color="#798DF3" stop-opacity="0"/>
</linearGradient>
<linearGradient id="paint21_linear_1821_49576" x1="759.395" y1="235.456" x2="465.327" y2="408.434" gradientUnits="userSpaceOnUse">
<stop stop-color="#1230C6"/>
<stop offset="1" stop-color="#798DF3" stop-opacity="0"/>
</linearGradient>
<linearGradient id="paint22_linear_1821_49576" x1="816.14" y1="514.19" x2="829.98" y2="254.64" gradientUnits="userSpaceOnUse">
<stop offset="0.0956058" stop-color="#798DF3"/>
<stop offset="1" stop-color="#3554EC"/>
</linearGradient>
<linearGradient id="paint23_linear_1821_49576" x1="847.764" y1="221.223" x2="766.79" y2="268.428" gradientUnits="userSpaceOnUse">
<stop stop-color="#1230C6"/>
<stop offset="1" stop-color="#798DF3" stop-opacity="0"/>
</linearGradient>
<linearGradient id="paint24_linear_1821_49576" x1="875.028" y1="-43.5213" x2="1074.87" y2="91.0576" gradientUnits="userSpaceOnUse">
<stop stop-color="#1230C6"/>
<stop offset="1" stop-color="#BCC6F9"/>
</linearGradient>
<linearGradient id="paint25_linear_1821_49576" x1="884.937" y1="111.678" x2="884.937" y2="246.312" gradientUnits="userSpaceOnUse">
<stop stop-color="#FFEBDC"/>
<stop offset="1" stop-color="#FFFBF9"/>
</linearGradient>
<linearGradient id="paint26_linear_1821_49576" x1="894.354" y1="129.812" x2="894.354" y2="164.069" gradientUnits="userSpaceOnUse">
<stop stop-color="#E1721D"/>
<stop offset="1" stop-color="#FFB277"/>
</linearGradient>
<linearGradient id="paint27_linear_1821_49576" x1="924.961" y1="103.229" x2="924.961" y2="146.395" gradientUnits="userSpaceOnUse">
<stop stop-color="#E1721D"/>
<stop offset="1" stop-color="#FFB277"/>
</linearGradient>
<linearGradient id="paint28_linear_1821_49576" x1="852.308" y1="102.282" x2="852.308" y2="143.371" gradientUnits="userSpaceOnUse">
<stop stop-color="#E1721D"/>
<stop offset="1" stop-color="#FFB277"/>
</linearGradient>
<linearGradient id="paint29_linear_1821_49576" x1="913.053" y1="109.294" x2="913.053" y2="141.238" gradientUnits="userSpaceOnUse">
<stop stop-color="#FFD2B3"/>
<stop offset="1" stop-color="#FFB886"/>
</linearGradient>
<linearGradient id="paint30_linear_1821_49576" x1="883.925" y1="109.294" x2="883.925" y2="141.238" gradientUnits="userSpaceOnUse">
<stop stop-color="#FFD2B3"/>
<stop offset="1" stop-color="#FFB886"/>
</linearGradient>
<linearGradient id="paint31_linear_1821_49576" x1="855.244" y1="109" x2="855.244" y2="140.767" gradientUnits="userSpaceOnUse">
<stop stop-color="#E1721D"/>
<stop offset="1" stop-color="#FFB277"/>
</linearGradient>
<linearGradient id="paint32_linear_1821_49576" x1="855.244" y1="109" x2="855.244" y2="140.767" gradientUnits="userSpaceOnUse">
<stop stop-color="#FFD2B3"/>
<stop offset="1" stop-color="#FFB886"/>
</linearGradient>
<linearGradient id="paint33_linear_1821_49576" x1="878.573" y1="122.283" x2="888.691" y2="217.415" gradientUnits="userSpaceOnUse">
<stop stop-color="#E1721D"/>
<stop offset="1" stop-color="#FFB277"/>
</linearGradient>
<linearGradient id="paint34_linear_1821_49576" x1="873.088" y1="160.557" x2="873.088" y2="228.17" gradientUnits="userSpaceOnUse">
<stop stop-color="#E1721D"/>
<stop offset="1" stop-color="#FFB277"/>
</linearGradient>
<linearGradient id="paint35_linear_1821_49576" x1="877.831" y1="163.985" x2="910.721" y2="211.862" gradientUnits="userSpaceOnUse">
<stop stop-color="#E1721D"/>
<stop offset="1" stop-color="#FFB277"/>
</linearGradient>
<linearGradient id="paint36_linear_1821_49576" x1="883.23" y1="142.927" x2="916.119" y2="190.804" gradientUnits="userSpaceOnUse">
<stop stop-color="#E1721D"/>
<stop offset="1" stop-color="#FFB277"/>
</linearGradient>
<linearGradient id="paint37_linear_1821_49576" x1="925.353" y1="164.506" x2="925.353" y2="177.906" gradientUnits="userSpaceOnUse">
<stop stop-color="#E1721D"/>
<stop offset="1" stop-color="#FFB277"/>
</linearGradient>
<linearGradient id="paint38_linear_1821_49576" x1="919.081" y1="184.003" x2="919.081" y2="197.404" gradientUnits="userSpaceOnUse">
<stop stop-color="#E1721D"/>
<stop offset="1" stop-color="#FFB277"/>
</linearGradient>
<linearGradient id="paint39_linear_1821_49576" x1="857.122" y1="160.133" x2="857.122" y2="206.654" gradientUnits="userSpaceOnUse">
<stop stop-color="#E1721D"/>
<stop offset="1" stop-color="#FFB277"/>
</linearGradient>
<linearGradient id="paint40_linear_1821_49576" x1="853.165" y1="150.886" x2="853.165" y2="201.672" gradientUnits="userSpaceOnUse">
<stop stop-color="#E1721D"/>
<stop offset="1" stop-color="#FFB277"/>
</linearGradient>
<linearGradient id="paint41_linear_1821_49576" x1="953.381" y1="211.125" x2="953.381" y2="253.493" gradientUnits="userSpaceOnUse">
<stop stop-color="#E1721D"/>
<stop offset="1" stop-color="#FFB277"/>
</linearGradient>
<linearGradient id="paint42_linear_1821_49576" x1="665.782" y1="164.263" x2="665.782" y2="325.313" gradientUnits="userSpaceOnUse">
<stop stop-color="#0C2083"/>
<stop offset="1" stop-color="#3554EC"/>
</linearGradient>
<clipPath id="clip0_1821_49576">
<rect width="122.939" height="146.719" fill="white" transform="matrix(-1 0 -0.0413639 0.999144 945.432 109)"/>
</clipPath>
</defs>
</svg>
