<svg width="137" height="63" viewBox="0 0 137 63" fill="none" xmlns="http://www.w3.org/2000/svg">
<path opacity="0.7" d="M27.3464 41.3191C24.1897 39.3233 4.85819 46.9742 3.5576 46.555C2.2777 45.8655 2.23165 27.8893 3.0079 25.0013C3.26953 23.9042 3.69279 23.5976 4.80242 23.8999C5.76584 24.0812 15.5605 21.1833 16.5653 20.8242C21.9263 19.2663 27.1083 17.7245 27.1083 17.7245C27.4248 18.2327 28.0496 16.1635 28.2887 16.8128C28.686 17.7162 44.9186 13.6998 58.5067 10.8618C62.0939 10.1351 64.7417 9.49325 65.4574 9.42857C67.1899 9.13783 65.8994 10.3279 67.9537 9.60554C72.2859 8.14061 81.9839 7.66679 85.2425 6.29887C87.8542 5.25776 88.4237 5.07212 91.0783 5.50315C92.3995 5.65212 96.5475 5.14311 100.594 4.50908C104.596 3.8791 108.451 3.12815 109.196 2.38991C109.575 2.08734 109.843 2.06309 109.879 2.46237C110.148 2.43812 111.144 2.48229 111.457 2.45399C111.546 2.44591 119.825 2.23454 119.894 2.49669C120.019 2.88789 120.3 2.99673 120.589 2.70225C121.045 2.2585 131.505 0.239786 131.748 1.42552C132.54 4.70844 132.258 18.5547 131.307 21.9953C130.837 23.7821 128.812 23.8309 126.226 23.662C118.111 23.1877 121.944 24.1832 113.835 24.7817C89.1317 26.8799 93.0353 26.6613 86.9173 28.8243C86.1828 27.6831 84.0319 30.8294 82.3874 29.0995C81.689 28.3575 77.3501 28.7496 76.4502 29.7702C75.7946 30.5003 53.5718 32.106 51.3521 34.9902C46.6452 33.8053 29.4901 40.5887 27.3464 41.3191Z" fill="#FFF36C"/>
<path opacity="0.7" d="M34.16 57.342C33.035 56.3702 28.8904 57.4156 24.904 58.7151C21.0966 59.9985 17.1463 61.6972 16.4961 61.4876C15.5293 60.7699 14.857 42.8502 15.3648 39.9865C15.549 39.0306 15.8381 38.7361 16.6673 38.9295C16.9925 39.0343 18.1762 38.659 19.8072 38.2433C22.0524 37.6378 21.8734 37.654 33.3078 33.9371C33.5795 34.4493 33.9927 32.5334 34.175 33.0536C34.3005 33.4448 35.9435 33.1622 38.4365 32.8027C40.8726 32.3142 44.1467 31.6158 47.4774 31.0465C50.5726 30.3642 50.6173 30.3602 56.8763 29.2579C59.5808 28.7451 61.537 28.4341 62.1185 28.3816C63.4484 28.1272 62.4711 29.289 64.0126 28.8813C67.2506 27.7837 74.5485 28.1976 77.0381 27.3018C81.1225 25.5908 77.9808 27.7533 88.6062 27.0615C91.6152 26.9238 94.5554 26.5239 95.0888 25.939C95.3779 25.6445 95.6136 25.7574 95.6049 26.1607C95.6049 26.1607 95.7391 26.1486 95.9301 26.2655C96.983 26.4387 96.3894 26.3582 99.3451 26.6278C99.4345 26.6197 103.097 27.228 103.154 27.3571C103.235 27.7523 103.483 27.9983 103.682 27.7119C104.049 27.2762 111.933 26.6979 112.131 27.8877C112.745 31.1868 112.585 44.8878 111.89 48.171C111.554 49.9457 109.997 49.6839 108.046 49.0551C106.107 48.5594 103.754 47.9669 101.756 48.8184C98.0848 48.6134 82.5857 48.2696 82.5857 48.2696L78.6113 49.7022C78.0558 48.5448 76.4744 51.5055 75.2084 49.473C74.6769 48.5817 71.4442 48.7397 70.7559 49.607C70.6338 49.7522 69.4707 49.8573 67.8157 50.0068C62.6923 50.2015 63.6316 50.1166 58.4548 50.7186C56.8445 50.8641 52.7206 51.6393 52.0563 52.7728C48.5331 51.2126 37.3739 55.9781 34.16 57.342Z" fill="#FFF36C"/>
</svg>
