<svg width="20" height="21" viewBox="0 0 20 21" fill="none" xmlns="http://www.w3.org/2000/svg">
<path d="M6.6672 10.2236C6.6672 8.38275 8.15912 6.89003 10 6.89003C11.8409 6.89003 13.3336 8.38275 13.3336 10.2236C13.3336 12.0645 11.8409 13.5572 10 13.5572C8.15912 13.5572 6.6672 12.0645 6.6672 10.2236ZM4.86512 10.2236C4.86512 13.0596 7.164 15.3585 10 15.3585C12.836 15.3585 15.1349 13.0596 15.1349 10.2236C15.1349 7.38763 12.836 5.08875 10 5.08875C7.164 5.08875 4.86512 7.38763 4.86512 10.2236ZM14.1382 4.88515C14.1381 5.12249 14.2083 5.35453 14.3401 5.55192C14.4719 5.74931 14.6593 5.90319 14.8785 5.9941C15.0977 6.08502 15.339 6.10888 15.5718 6.06267C15.8046 6.01646 16.0185 5.90226 16.1863 5.7345C16.3542 5.56674 16.4686 5.35297 16.515 5.12021C16.5614 4.88745 16.5377 4.64616 16.447 4.42686C16.3563 4.20755 16.2025 4.02007 16.0052 3.88814C15.808 3.7562 15.576 3.68573 15.3386 3.68563H15.3382C15.02 3.68578 14.715 3.81219 14.49 4.0371C14.265 4.26201 14.1384 4.56702 14.1382 4.88515ZM5.96 18.3634C4.98504 18.319 4.45512 18.1566 4.10296 18.0194C3.63608 17.8376 3.30296 17.6212 2.95272 17.2714C2.60248 16.9216 2.38568 16.5888 2.20472 16.122C2.06744 15.77 1.90504 15.2399 1.86072 14.2649C1.81224 13.2108 1.80256 12.8942 1.80256 10.2237C1.80256 7.55323 1.81304 7.23747 1.86072 6.18251C1.90512 5.20755 2.06872 4.67851 2.20472 4.32547C2.38648 3.85859 2.60296 3.52547 2.95272 3.17523C3.30248 2.82499 3.63528 2.60819 4.10296 2.42723C4.45496 2.28995 4.98504 2.12755 5.96 2.08323C7.01408 2.03475 7.33072 2.02507 10 2.02507C12.6693 2.02507 12.9862 2.03555 14.0412 2.08323C15.0162 2.12763 15.5452 2.29123 15.8982 2.42723C16.3651 2.60819 16.6982 2.82547 17.0485 3.17523C17.3987 3.52499 17.6147 3.85859 17.7965 4.32547C17.9338 4.67747 18.0962 5.20755 18.1405 6.18251C18.189 7.23747 18.1986 7.55323 18.1986 10.2237C18.1986 12.8942 18.189 13.21 18.1405 14.2649C18.0961 15.2399 17.9329 15.7698 17.7965 16.122C17.6147 16.5888 17.3982 16.922 17.0485 17.2714C16.6987 17.6208 16.3651 17.8376 15.8982 18.0194C15.5462 18.1567 15.0162 18.3191 14.0412 18.3634C12.9871 18.4119 12.6705 18.4216 10 18.4216C7.32952 18.4216 7.01376 18.4119 5.96 18.3634ZM5.8772 0.284193C4.81264 0.332673 4.0852 0.501473 3.44992 0.748673C2.792 1.00395 2.23504 1.34643 1.67848 1.90211C1.12192 2.45779 0.78032 3.01563 0.52504 3.67355C0.27784 4.30923 0.10904 5.03627 0.06056 6.10083C0.01128 7.16707 0 7.50795 0 10.2236C0 12.9393 0.01128 13.2802 0.06056 14.3464C0.10904 15.4111 0.27784 16.138 0.52504 16.7737C0.78032 17.4312 1.122 17.9897 1.67848 18.5452C2.23496 19.1006 2.792 19.4426 3.44992 19.6986C4.0864 19.9458 4.81264 20.1146 5.8772 20.1631C6.944 20.2116 7.28432 20.2236 10 20.2236C12.7157 20.2236 13.0566 20.2124 14.1228 20.1631C15.1874 20.1146 15.9144 19.9458 16.5501 19.6986C17.2076 19.4426 17.765 19.1008 18.3215 18.5452C18.8781 17.9895 19.219 17.4312 19.475 16.7737C19.7222 16.138 19.8918 15.411 19.9394 14.3464C19.9879 13.2794 19.9992 12.9393 19.9992 10.2236C19.9992 7.50795 19.9879 7.16707 19.9394 6.10083C19.891 5.03619 19.7222 4.30883 19.475 3.67355C19.219 3.01603 18.8772 2.45867 18.3215 1.90211C17.7658 1.34555 17.2076 1.00395 16.5509 0.748673C15.9144 0.501473 15.1874 0.331873 14.1236 0.284193C13.0574 0.235713 12.7165 0.223633 10.0008 0.223633C7.28512 0.223633 6.944 0.234913 5.8772 0.284193Z" fill="#A6B0B9"/>
</svg>
