<svg width="20" height="20" viewBox="0 0 20 20" fill="none" xmlns="http://www.w3.org/2000/svg">
<path d="M19.6807 19.2004C18.4819 19.1719 17.3115 19.1719 16.1127 19.2004C15.8558 19.2004 15.7987 19.1433 15.7987 18.8864C15.7987 16.7741 15.7987 14.6333 15.7987 12.521C15.7987 12.0357 15.7701 11.5504 15.6274 11.0937C15.1992 9.60941 13.4865 9.06706 12.2591 10.0661C11.6026 10.5799 11.3457 11.2935 11.3457 12.1499C11.3457 14.148 11.3457 16.1461 11.3457 18.1443C11.3457 18.4012 11.3172 18.6581 11.3457 18.9435C11.3742 19.1719 11.2601 19.229 11.0603 19.2004C9.83283 19.2004 8.63396 19.2004 7.40654 19.2004C7.17818 19.2004 7.12109 19.1433 7.12109 18.915C7.14964 17.1167 7.14964 15.3183 7.14964 13.4915C7.14964 11.265 7.14964 9.03852 7.12109 6.84058C7.12109 6.58368 7.17818 6.52659 7.40654 6.52659C8.63396 6.52659 9.83283 6.52659 11.0603 6.52659C11.2886 6.52659 11.3457 6.58368 11.3457 6.81204C11.3457 7.26875 11.3457 7.72546 11.3457 8.26781C11.4313 8.18218 11.4599 8.15363 11.4884 8.12509C12.6017 6.49804 14.1716 6.04133 16.027 6.32678C18.1679 6.66931 19.538 8.15363 19.8805 10.4372C19.9662 10.9796 19.9947 11.5219 19.9947 12.0643C19.9947 14.3478 19.9947 16.6028 19.9947 18.8864C19.9947 19.1148 19.9376 19.2004 19.6807 19.2004Z" fill="#A6B0B9"/>
<path d="M4.86891 12.8635C4.86891 14.8616 4.86891 16.8597 4.86891 18.8578C4.86891 19.1147 4.81182 19.2004 4.55492 19.2004C3.35605 19.1718 2.15717 19.2004 0.958298 19.2004C0.729941 19.2004 0.672852 19.1433 0.672852 18.9149C0.672852 14.8901 0.672852 10.8368 0.672852 6.812C0.672852 6.61218 0.729941 6.52655 0.958298 6.52655C2.18572 6.52655 3.41314 6.52655 4.64056 6.52655C4.89746 6.52655 4.926 6.61218 4.926 6.84054C4.86891 8.83867 4.86891 10.8368 4.86891 12.8635Z" fill="#A6B0B9"/>
<path d="M5.06973 3.53552C4.78429 4.67731 3.61396 5.33384 2.27236 5.10548C0.845126 4.87712 0.0458761 3.47844 0.55968 2.10829C0.902216 1.25195 1.73001 0.73815 2.78616 0.766694C4.38466 0.73815 5.44081 2.02266 5.06973 3.53552Z" fill="#A6B0B9"/>
</svg>
