<svg width="163" height="43" viewBox="0 0 163 43" fill="none" xmlns="http://www.w3.org/2000/svg">
<path d="M71.883 34.2352C70.9489 34.2352 70.0737 33.779 69.5388 33.0132L64.0451 25.1492L69.1054 17.7799C69.6287 17.0179 70.4937 16.5626 71.4181 16.5626C73.6618 16.5626 74.9977 19.0659 73.7486 20.9298L70.4891 25.7936V24.2148L74.251 29.7728C75.5363 31.6717 74.1759 34.2352 71.883 34.2352ZM63.2074 27.6784V22.6199H66.2199V27.6784H63.2074ZM60.5251 34.2352C58.7768 34.2352 57.3595 32.8179 57.3595 31.0696L57.3594 11.3067C57.3594 9.55841 58.7767 8.14111 60.525 8.14111C62.2733 8.14111 63.6906 9.55839 63.6906 11.3067L63.6907 31.0695C63.6907 32.8179 62.2734 34.2352 60.5251 34.2352Z" fill="#BCC6F9"/>
<path d="M82.6989 34.2352C80.9506 34.2352 79.5333 32.8179 79.5333 31.0696L79.5332 11.3067C79.5332 9.55841 80.9505 8.14111 82.6988 8.14111C84.4471 8.14111 85.8644 9.55839 85.8644 11.3067L85.8645 31.0695C85.8645 32.8179 84.4472 34.2352 82.6989 34.2352Z" fill="#BCC6F9"/>
<path d="M99.4605 34.5735C97.4951 34.5735 95.7874 34.2244 94.3375 33.5263C92.8984 32.8175 91.7814 31.7864 90.9867 30.4332C90.1919 29.0692 89.7945 27.3992 89.7945 25.423C89.7945 23.4469 90.1758 21.7822 90.9383 20.429C91.7009 19.065 92.8017 18.034 94.2409 17.3359C95.68 16.627 97.4199 16.2726 99.4605 16.2726C101.49 16.2726 103.225 16.627 104.664 17.3359C106.103 18.034 107.204 19.065 107.967 20.429C108.729 21.7822 109.11 23.4415 109.11 25.4069C109.11 27.3831 108.713 29.0531 107.918 30.4171C107.134 31.7811 106.017 32.8175 104.567 33.5263C103.117 34.2244 101.415 34.5735 99.4605 34.5735ZM99.4605 29.8211C100.169 29.8211 100.771 29.6814 101.265 29.4022C101.77 29.1122 102.151 28.6504 102.409 28.0167C102.666 27.3723 102.795 26.5078 102.795 25.423C102.795 24.3383 102.666 23.4791 102.409 22.8455C102.151 22.2011 101.77 21.7392 101.265 21.46C100.771 21.1808 100.169 21.0411 99.4605 21.0411C98.7409 21.0411 98.1287 21.1808 97.624 21.46C97.1299 21.7285 96.754 22.1849 96.4963 22.8293C96.2385 23.463 96.1096 24.3222 96.1096 25.4069C96.1096 26.4917 96.2385 27.3562 96.4963 28.0006C96.754 28.645 97.1299 29.1122 97.624 29.4022C98.1287 29.6814 98.7409 29.8211 99.4605 29.8211Z" fill="#BCC6F9"/>
<path d="M122.264 34.5735C120.298 34.5735 118.591 34.2244 117.141 33.5263C115.701 32.8175 114.585 31.7864 113.79 30.4332C112.995 29.0692 112.598 27.3992 112.598 25.423C112.598 23.4469 112.979 21.7822 113.741 20.429C114.504 19.065 115.605 18.034 117.044 17.3359C118.483 16.627 120.223 16.2726 122.264 16.2726C124.293 16.2726 126.028 16.627 127.467 17.3359C128.906 18.034 130.007 19.065 130.77 20.429C131.532 21.7822 131.913 23.4415 131.913 25.4069C131.913 27.3831 131.516 29.0531 130.721 30.4171C129.937 31.7811 128.82 32.8175 127.37 33.5263C125.921 34.2244 124.218 34.5735 122.264 34.5735ZM122.264 29.8211C122.972 29.8211 123.574 29.6814 124.068 29.4022C124.573 29.1122 124.954 28.6504 125.212 28.0167C125.469 27.3723 125.598 26.5078 125.598 25.423C125.598 24.3383 125.469 23.4791 125.212 22.8455C124.954 22.2011 124.573 21.7392 124.068 21.46C123.574 21.1808 122.972 21.0411 122.264 21.0411C121.544 21.0411 120.932 21.1808 120.427 21.46C119.933 21.7285 119.557 22.1849 119.299 22.8293C119.042 23.463 118.913 24.3222 118.913 25.4069C118.913 26.4917 119.042 27.3562 119.299 28.0006C119.557 28.645 119.933 29.1122 120.427 29.4022C120.932 29.6814 121.544 29.8211 122.264 29.8211Z" fill="#BCC6F9"/>
<path d="M138.868 34.2352C137.12 34.2352 135.703 32.8179 135.703 31.0696L135.703 11.3067C135.703 9.55841 137.12 8.14111 138.868 8.14111C140.617 8.14111 142.034 9.55839 142.034 11.3067L142.034 31.0695C142.034 32.8179 140.617 34.2352 138.868 34.2352Z" fill="#BCC6F9"/>
<path d="M152.166 34.5735C150.115 34.5735 148.552 34.0794 147.478 33.0914C146.404 32.1033 145.867 30.8467 145.867 29.3216C145.867 27.6247 146.506 26.2983 147.784 25.3425C149.073 24.3759 151.141 23.8121 153.987 23.651L157.773 23.4093L158.417 26.7118L154.615 26.9696C153.713 27.034 153.069 27.222 152.682 27.5334C152.295 27.8342 152.102 28.2476 152.102 28.7739C152.102 29.2679 152.279 29.66 152.634 29.9499C152.999 30.2399 153.536 30.3849 154.245 30.3849C154.663 30.3849 155.093 30.3312 155.533 30.2238C155.974 30.1057 156.387 29.907 156.774 29.6277V23.8926C156.774 23.1515 156.64 22.5662 156.371 22.1366C156.113 21.6963 155.678 21.3848 155.066 21.2022C154.465 21.0089 153.643 20.9123 152.601 20.9123C151.892 20.9123 151.071 20.9713 150.137 21.0895C148.786 21.2603 147.478 20.2695 147.478 18.9078V18.7332C147.478 17.7467 148.138 16.8716 149.108 16.6931C149.603 16.6021 150.112 16.5263 150.636 16.4659C151.764 16.337 152.805 16.2726 153.761 16.2726C155.909 16.2726 157.66 16.525 159.013 17.0298C160.366 17.5345 161.36 18.3776 161.993 19.559C162.638 20.7404 162.96 22.346 162.96 24.3759V31.2825C162.96 32.9132 161.638 34.2352 160.007 34.2352H159.389C158.409 34.2352 157.552 33.5729 157.305 32.6242H157.032C156.462 33.3008 155.754 33.7948 154.905 34.1063C154.057 34.4177 153.144 34.5735 152.166 34.5735Z" fill="#BCC6F9"/>
<g filter="url(#filter0_b_1693_50202)">
<path d="M0.896484 13.8434C0.896484 6.34596 6.97439 0.268066 14.4719 0.268066H29.5615C37.0589 0.268066 43.1368 6.34598 43.1368 13.8435V28.933C43.1368 36.4305 37.0589 42.5084 29.5614 42.5084H14.4719C6.97438 42.5084 0.896484 36.4305 0.896484 28.933V13.8434Z" fill="#BCC6F9" fill-opacity="0.3"/>
</g>
<path d="M16.2253 34.1497C14.0385 34.1497 12.2598 32.3613 12.2598 30.1444V12.1288C12.2598 9.92015 14.0304 8.12354 16.2253 8.12354C18.4121 8.12354 20.1908 9.91191 20.1908 12.1288V30.1444C20.1908 32.3531 18.4202 34.1497 16.2253 34.1497Z" fill="#D0FF00"/>
<path d="M26.7262 21.0252C29.3138 21.0252 31.4114 18.9233 31.4114 16.3305C31.4114 13.7376 29.3138 11.6357 26.7262 11.6357C24.1387 11.6357 22.041 13.7376 22.041 16.3305C22.041 18.9233 24.1387 21.0252 26.7262 21.0252Z" fill="#D0FF00"/>
<path d="M23.2934 29.3603C22.0688 28.5634 21.7208 26.9228 22.516 25.6958L24.0039 23.4C24.7991 22.173 26.4364 21.8243 27.6609 22.6211L32.836 25.9887C34.0605 26.7855 34.4085 28.4262 33.6133 29.6532L32.1255 31.9489C31.3303 33.1759 29.693 33.5247 28.4684 32.7278L23.2934 29.3603Z" fill="#D0FF00"/>
<defs>
<filter id="filter0_b_1693_50202" x="-10.3675" y="-10.9959" width="64.7682" height="64.7682" filterUnits="userSpaceOnUse" color-interpolation-filters="sRGB">
<feFlood flood-opacity="0" result="BackgroundImageFix"/>
<feGaussianBlur in="BackgroundImageFix" stdDeviation="5.63198"/>
<feComposite in2="SourceAlpha" operator="in" result="effect1_backgroundBlur_1693_50202"/>
<feBlend mode="normal" in="SourceGraphic" in2="effect1_backgroundBlur_1693_50202" result="shape"/>
</filter>
</defs>
</svg>
