<svg width="116" height="30" viewBox="0 0 116 30" fill="none" xmlns="http://www.w3.org/2000/svg">
<path d="M51.3151 24.1246C50.6517 24.1246 50.0301 23.8006 49.6502 23.2567L45.7484 17.6714L49.3424 12.4376C49.714 11.8964 50.3284 11.573 50.9849 11.573C52.5785 11.573 53.5272 13.3509 52.6401 14.6747L50.3251 18.1291V17.0078L52.9969 20.9553C53.9098 22.3039 52.9436 24.1246 51.3151 24.1246ZM45.1534 19.4678V15.8751H47.293V19.4678H45.1534ZM43.2484 24.1246C42.0067 24.1246 41.0001 23.118 41.0001 21.8763L41 7.84011C41 6.5984 42.0066 5.5918 43.2483 5.5918C44.49 5.5918 45.4966 6.59839 45.4966 7.84009L45.4967 21.8762C45.4967 23.118 44.4901 24.1246 43.2484 24.1246Z" fill="#BCC6F9"/>
<path d="M58.9968 24.1246C57.7551 24.1246 56.7486 23.118 56.7485 21.8763L56.7485 7.84011C56.7485 6.5984 57.7551 5.5918 58.9968 5.5918C60.2385 5.5918 61.2451 6.59839 61.2451 7.84009L61.2452 21.8762C61.2452 23.118 60.2386 24.1246 58.9968 24.1246Z" fill="#BCC6F9"/>
<path d="M70.9015 24.3648C69.5056 24.3648 68.2927 24.1169 67.263 23.6211C66.2409 23.1177 65.4476 22.3854 64.8831 21.4243C64.3186 20.4556 64.0364 19.2695 64.0364 17.8659C64.0364 16.4624 64.3072 15.2801 64.8488 14.319C65.3903 13.3503 66.1722 12.618 67.1943 12.1222C68.2165 11.6187 69.4522 11.367 70.9015 11.367C72.3431 11.367 73.575 11.6187 74.5971 12.1222C75.6193 12.618 76.4011 13.3503 76.9427 14.319C77.4843 15.2801 77.7551 16.4586 77.7551 17.8545C77.7551 19.258 77.4728 20.4441 76.9084 21.4129C76.3515 22.3816 75.5582 23.1177 74.5285 23.6211C73.4987 24.1169 72.2897 24.3648 70.9015 24.3648ZM70.9015 20.9895C71.4049 20.9895 71.832 20.8904 72.1829 20.692C72.5414 20.4861 72.8122 20.1581 72.9953 19.7081C73.1784 19.2504 73.2699 18.6363 73.2699 17.8659C73.2699 17.0955 73.1784 16.4853 72.9953 16.0353C72.8122 15.5776 72.5414 15.2496 72.1829 15.0513C71.832 14.8529 71.4049 14.7538 70.9015 14.7538C70.3904 14.7538 69.9556 14.8529 69.5971 15.0513C69.2462 15.242 68.9792 15.5661 68.7962 16.0238C68.6131 16.4739 68.5216 17.0841 68.5216 17.8545C68.5216 18.6249 68.6131 19.2389 68.7962 19.6966C68.9792 20.1543 69.2462 20.4861 69.5971 20.692C69.9556 20.8904 70.3904 20.9895 70.9015 20.9895Z" fill="#BCC6F9"/>
<path d="M87.0969 24.3648C85.701 24.3648 84.4882 24.1169 83.4584 23.6211C82.4363 23.1177 81.643 22.3854 81.0785 21.4243C80.5141 20.4556 80.2318 19.2695 80.2318 17.8659C80.2318 16.4624 80.5026 15.2801 81.0442 14.319C81.5858 13.3503 82.3676 12.618 83.3898 12.1222C84.4119 11.6187 85.6476 11.367 87.0969 11.367C88.5385 11.367 89.7704 11.6187 90.7926 12.1222C91.8147 12.618 92.5965 13.3503 93.1381 14.319C93.6797 15.2801 93.9505 16.4586 93.9505 17.8545C93.9505 19.258 93.6683 20.4441 93.1038 21.4129C92.547 22.3816 91.7537 23.1177 90.7239 23.6211C89.6942 24.1169 88.4851 24.3648 87.0969 24.3648ZM87.0969 20.9895C87.6003 20.9895 88.0275 20.8904 88.3784 20.692C88.7369 20.4861 89.0076 20.1581 89.1907 19.7081C89.3738 19.2504 89.4653 18.6363 89.4653 17.8659C89.4653 17.0955 89.3738 16.4853 89.1907 16.0353C89.0076 15.5776 88.7369 15.2496 88.3784 15.0513C88.0275 14.8529 87.6003 14.7538 87.0969 14.7538C86.5858 14.7538 86.151 14.8529 85.7925 15.0513C85.4416 15.242 85.1747 15.5661 84.9916 16.0238C84.8085 16.4739 84.717 17.0841 84.717 17.8545C84.717 18.6249 84.8085 19.2389 84.9916 19.6966C85.1747 20.1543 85.4416 20.4861 85.7925 20.692C86.151 20.8904 86.5858 20.9895 87.0969 20.9895Z" fill="#BCC6F9"/>
<path d="M98.8901 24.1246C97.6484 24.1246 96.6418 23.118 96.6418 21.8763L96.6417 7.84011C96.6417 6.5984 97.6483 5.5918 98.89 5.5918C100.132 5.5918 101.138 6.59839 101.138 7.84009L101.138 21.8762C101.138 23.118 100.132 24.1246 98.8901 24.1246Z" fill="#BCC6F9"/>
<path d="M108.335 24.3648C106.878 24.3648 105.768 24.014 105.005 23.3122C104.242 22.6104 103.861 21.718 103.861 20.6348C103.861 19.4296 104.315 18.4876 105.223 17.8087C106.138 17.1222 107.606 16.7218 109.628 16.6073L112.316 16.4357L112.774 18.7813L110.074 18.9643C109.433 19.0101 108.975 19.1436 108.701 19.3648C108.426 19.5784 108.289 19.8721 108.289 20.2458C108.289 20.5967 108.415 20.8751 108.667 21.0811C108.926 21.287 109.307 21.39 109.811 21.39C110.108 21.39 110.413 21.3519 110.726 21.2756C111.039 21.1917 111.332 21.0506 111.607 20.8522V16.779C111.607 16.2526 111.512 15.8369 111.321 15.5318C111.138 15.2191 110.829 14.9979 110.394 14.8682C109.967 14.7309 109.384 14.6622 108.644 14.6622C108.14 14.6622 107.557 14.7042 106.893 14.7881C105.934 14.9094 105.005 14.2057 105.005 13.2386V13.1146C105.005 12.414 105.473 11.7924 106.163 11.6657C106.514 11.601 106.876 11.5472 107.248 11.5043C108.049 11.4128 108.789 11.367 109.467 11.367C110.993 11.367 112.236 11.5463 113.197 11.9048C114.159 12.2633 114.864 12.8621 115.314 13.7011C115.772 14.5402 116.001 15.6806 116.001 17.1222V22.0275C116.001 23.1857 115.062 24.1246 113.904 24.1246H113.464C112.768 24.1246 112.16 23.6542 111.985 22.9804H111.79C111.386 23.4609 110.882 23.8118 110.28 24.033C109.677 24.2542 109.029 24.3648 108.335 24.3648Z" fill="#BCC6F9"/>
<g filter="url(#filter0_b_1693_50268)">
<path d="M0.897461 9.64163C0.897461 4.3167 5.21417 0 10.5391 0H21.2562C26.5811 0 30.8978 4.31671 30.8978 9.64164V20.3587C30.8978 25.6836 26.5811 30.0003 21.2562 30.0003H10.5391C5.21416 30.0003 0.897461 25.6836 0.897461 20.3587V9.64163Z" fill="#BCC6F9" fill-opacity="0.3"/>
</g>
<path d="M11.7842 24.0636C10.2311 24.0636 8.96777 22.7935 8.96777 21.219V8.42378C8.96777 6.85511 10.2253 5.5791 11.7842 5.5791C13.3373 5.5791 14.6007 6.84926 14.6007 8.42378V21.219C14.6007 22.7876 13.3431 24.0636 11.7842 24.0636Z" fill="#D0FF00"/>
<path d="M19.2426 14.7419C21.0804 14.7419 22.5702 13.2491 22.5702 11.4076C22.5702 9.56608 21.0804 8.07324 19.2426 8.07324C17.4048 8.07324 15.915 9.56608 15.915 11.4076C15.915 13.2491 17.4048 14.7419 19.2426 14.7419Z" fill="#D0FF00"/>
<path d="M16.8042 20.6624C15.9345 20.0965 15.6873 18.9312 16.2521 18.0598L17.3088 16.4293C17.8736 15.5578 19.0365 15.3101 19.9062 15.8761L23.5817 18.2678C24.4514 18.8337 24.6985 19.999 24.1338 20.8704L23.077 22.5009C22.5123 23.3724 21.3494 23.6201 20.4797 23.0542L16.8042 20.6624Z" fill="#D0FF00"/>
<defs>
<filter id="filter0_b_1693_50268" x="-7.10254" y="-8" width="46" height="46" filterUnits="userSpaceOnUse" color-interpolation-filters="sRGB">
<feFlood flood-opacity="0" result="BackgroundImageFix"/>
<feGaussianBlur in="BackgroundImageFix" stdDeviation="4"/>
<feComposite in2="SourceAlpha" operator="in" result="effect1_backgroundBlur_1693_50268"/>
<feBlend mode="normal" in="SourceGraphic" in2="effect1_backgroundBlur_1693_50268" result="shape"/>
</filter>
</defs>
</svg>
