<svg width="425" height="534" viewBox="0 0 425 534" fill="none" xmlns="http://www.w3.org/2000/svg">
<g id="Property 1=Marketplace">
<g clip-path="url(#clip0_3497_104629)">
<g id="Rectangle 3765">
<path d="M0 212.966C0 95.6391 95.1123 0.526855 212.439 0.526855V0.526855C329.766 0.526855 424.878 95.6391 424.878 212.966V532.205C424.878 533.487 423.839 534.527 422.557 534.527H2.32174C1.03948 534.527 0 533.487 0 532.205V212.966Z" fill="url(#paint0_angular_3497_104629)"/>
<path d="M0 212.966C0 95.6391 95.1123 0.526855 212.439 0.526855V0.526855C329.766 0.526855 424.878 95.6391 424.878 212.966V532.205C424.878 533.487 423.839 534.527 422.557 534.527H2.32174C1.03948 534.527 0 533.487 0 532.205V212.966Z" fill="url(#paint1_linear_3497_104629)"/>
</g>
<path id="Rectangle 3766" d="M0 213.5C0 96.1395 95.1395 1 212.5 1V1C329.861 1 425 96.1395 425 213.5V532.691C425 533.966 423.966 535 422.691 535H2.30936C1.03394 535 0 533.966 0 532.691V213.5Z" fill="url(#paint2_radial_3497_104629)"/>
<path id="Intersect" fill-rule="evenodd" clip-rule="evenodd" d="M0 331.295V212.636C0 188.823 3.9391 165.929 11.2012 144.572L380 326.712V518.967L0 331.295ZM113.992 25.022L380 156.396V299L20.6068 121.505C40.431 80.0955 73.3457 46.1482 113.992 25.022Z" fill="url(#paint3_linear_3497_104629)"/>
<g id="Frame 4895">
<g id="Group 1194">
<g id="ClodeoWebMobile">
<g id="ClodeoWebMobile_2">
<path id="Rectangle 1654" d="M53.2727 371.913L14.8551 276.242C14.3529 274.991 14.5064 273.572 15.2646 272.458L17.4587 269.233C18.1324 268.243 19.2524 267.651 20.4499 267.651L57.1583 267.651C59.5154 267.651 61.6389 269.075 62.5327 271.256L101.265 365.772C102.02 367.613 101.779 369.712 100.628 371.335L99.369 373.109C98.2798 374.644 96.5142 375.557 94.6319 375.557H75.8041H58.6626C56.2904 375.557 54.1566 374.114 53.2727 371.913Z" fill="url(#paint4_linear_3497_104629)" stroke="#4B6CEF" stroke-width="0.13324"/>
<path id="Rectangle 1653" d="M22.7119 267.919H56.7304C59.0676 267.919 61.1746 269.328 62.0683 271.487L101.554 366.903C102.434 369.03 100.871 371.37 98.5684 371.37H63.1427C60.8055 371.37 58.6985 369.961 57.8048 367.802L18.8572 273.686C17.7206 270.939 19.7394 267.919 22.7119 267.919Z" fill="#E8EFFD" stroke="#7895F3" stroke-width="0.195828"/>
<path id="Rectangle 1681" d="M61.9619 272.665L99.755 364.424C100.631 366.551 99.0673 368.886 96.7673 368.886H64.0716C61.7309 368.886 59.6215 367.474 58.73 365.309L21.1597 274.09C20.1776 271.706 21.9307 269.088 24.5095 269.088H30.2091C30.6556 269.088 31.0958 269.193 31.4939 269.395L36.4122 271.89C37.1124 272.246 37.8865 272.431 38.6717 272.431H47.5964C48.5262 272.431 49.3452 271.819 49.6094 270.928C49.9329 269.836 50.9357 269.088 52.0742 269.088H56.6203C58.9611 269.088 61.0705 270.5 61.9619 272.665Z" fill="url(#paint5_linear_3497_104629)" stroke="#4B6CEF" stroke-width="0.195828"/>
<path id="Rectangle 1685" d="M41.7107 315.701C40.5351 312.888 42.6015 309.785 45.6502 309.785L70.4655 309.785C73.8883 309.785 76.9804 311.828 78.3218 314.978L95.9148 356.28C96.4458 357.526 95.5311 358.91 94.1762 358.91L65.4549 358.91C62.0109 358.91 58.904 356.841 57.576 353.664L41.7107 315.701Z" fill="url(#paint6_linear_3497_104629)"/>
<path id="Union" d="M33.8397 304.322L21.3702 273.871C21.0761 273.153 21.6226 272.371 22.3983 272.4L63.1569 273.939C63.5723 273.939 63.9315 274.294 64.019 274.793L70.8034 294.098L65.7678 297.226C65.5376 297.493 65.4424 297.892 65.5183 298.27L66.0957 301.144C66.5661 303.485 65.122 305.748 63.1569 305.748C61.1253 305.748 59.2973 304.416 58.3017 302.351C58.1432 304.212 56.8622 305.748 55.2251 305.748C53.1769 305.748 51.3313 304.422 50.3059 302.359C50.1805 304.208 48.9191 305.748 47.3007 305.748C45.2758 305.748 43.4541 304.419 42.4634 302.359C42.3017 304.216 41.0221 305.748 39.3875 305.748C37.3388 305.748 35.4929 304.422 34.4676 302.358C34.4185 303.086 34.1934 303.765 33.8397 304.322Z" fill="url(#paint7_linear_3497_104629)"/>
<path id="Line 326" d="M37.9531 270.629L47.9055 270.629" stroke="#8896A2" stroke-width="0.195828"/>
</g>
<path id="Line 418" d="M75.9531 369.703H89.2278" stroke="#7895F3" stroke-width="0.368454" stroke-linecap="round"/>
<path id="Rectangle 1684" d="M20.6284 270.475L22.9022 268.526C27.3078 264.751 34.1211 266.443 36.2487 271.84L40.6436 282.99C40.7814 283.34 40.6825 283.738 40.3973 283.982L29.2278 293.555C29.1767 293.599 29.0977 293.579 29.073 293.516L20.382 271.467C20.2442 271.118 20.3431 270.72 20.6284 270.475Z" fill="url(#paint8_linear_3497_104629)" stroke="#A54D12" stroke-width="0.195828"/>
<path id="Rectangle 1690" d="M62.4654 270.927L65.9507 268.483C70.4218 265.349 76.6475 267.22 78.6498 272.3L83.4408 284.454C83.5902 284.833 83.4604 285.265 83.1269 285.499L70.9722 294.02C70.9204 294.057 70.8482 294.035 70.8249 293.976L62.1514 271.971C62.002 271.592 62.1318 271.16 62.4654 270.927Z" fill="url(#paint9_linear_3497_104629)" stroke="#A54D12" stroke-width="0.195828"/>
<path id="Rectangle 1685_2" d="M28.9908 266.135L35.954 266.135L36.6945 266.135C40.2782 266.135 43.4965 268.329 44.8061 271.664L49.7328 284.214C50.5641 286.331 49.0029 288.621 46.7281 288.621C44.2193 288.621 41.9664 287.085 41.0496 284.75L36.0822 272.097C34.8653 268.997 32.1688 266.783 28.9908 266.135Z" fill="url(#paint10_linear_3497_104629)" stroke="#A54D12" stroke-width="0.195828"/>
<path id="Rectangle 1691" d="M38.0377 266.135L45.0008 266.135L45.7414 266.135C49.3251 266.135 52.5434 268.329 53.853 271.664L58.7797 284.214C59.611 286.331 58.0498 288.621 55.7749 288.621C53.2662 288.621 51.0133 287.085 50.0965 284.75L45.129 272.097C43.9122 268.997 41.2157 266.783 38.0377 266.135Z" fill="#FFF6F0" stroke="#A54D12" stroke-width="0.195828"/>
<path id="Rectangle 1692" d="M46.5284 266.135L53.4911 266.135L54.5503 266.135C58.0956 266.135 61.2875 268.282 62.6229 271.567L67.686 284.019C68.58 286.217 66.9623 288.621 64.589 288.621C62.0198 288.621 59.7066 287.065 58.7389 284.685L53.5763 271.988C52.3382 268.943 49.6668 266.775 46.5284 266.135Z" fill="url(#paint11_linear_3497_104629)" stroke="#A54D12" stroke-width="0.195828"/>
<path id="Rectangle 1693" d="M55.2252 266.135L62.1883 266.135L62.9289 266.135C66.5126 266.135 69.7309 268.329 71.0405 271.664L75.9672 284.214C76.7985 286.331 75.2373 288.621 72.9624 288.621C70.4537 288.621 68.2008 287.085 67.284 284.75L62.3165 272.097C61.0997 268.997 58.4032 266.783 55.2252 266.135Z" fill="#FFF6F0" stroke="#A54D12" stroke-width="0.195828"/>
<path id="Rectangle 1694" d="M64.276 266.135L71.2391 266.135L71.9796 266.135C75.5634 266.135 78.7817 268.329 80.0913 271.664L85.0179 284.214C85.8493 286.331 84.2881 288.621 82.0132 288.621C79.5045 288.621 77.2516 287.085 76.3348 284.75L71.3673 272.097C70.1505 268.997 67.454 266.783 64.276 266.135Z" fill="url(#paint12_linear_3497_104629)" stroke="#A54D12" stroke-width="0.195828"/>
<g id="Group 1186">
<path id="Rectangle 1682" d="M97.938 353.596L66.2792 353.596C62.8654 353.596 59.7807 351.54 58.4738 348.386L42.2949 309.343C41.1566 306.596 43.1755 303.574 46.1489 303.574H74.6786C79.7883 303.574 84.4013 306.634 86.3887 311.342L101.782 347.802C102.943 350.552 100.923 353.596 97.938 353.596Z" fill="url(#paint13_linear_3497_104629)" stroke="#A54D12" stroke-width="0.195828"/>
<path id="Rectangle 1685_3" d="M99.3465 351.412L67.6112 351.412C64.2067 351.412 61.1354 349.367 59.8226 346.226L43.9573 308.263C42.8087 305.515 44.8276 302.483 47.8064 302.483H79.2362C82.6198 302.483 85.6764 304.503 87.0024 307.616L103.185 345.606C104.357 348.358 102.337 351.412 99.3465 351.412Z" fill="#FFF6F0" stroke="#A54D12" stroke-width="0.195828"/>
<path id="Rectangle 1687" d="M71.3938 320.936H71.2368C67.8044 320.936 64.7137 318.858 63.419 315.679L62.3204 312.982C61.3807 310.674 63.0781 308.15 65.5695 308.15H65.7051C69.117 308.15 72.1934 310.204 73.5015 313.355L74.6339 316.083C75.5929 318.393 73.8952 320.936 71.3938 320.936Z" fill="#FFF6F0" stroke="#A54D12" stroke-width="0.195828"/>
<path id="Rectangle 1686" d="M68.1582 342.587C67.352 340.742 68.7036 338.677 70.7167 338.677L88.9917 338.677C91.2024 338.677 93.2061 339.978 94.1056 341.997V341.997C94.9302 343.848 93.5753 345.935 91.5487 345.935L73.2752 345.935C71.0558 345.935 69.047 344.621 68.1582 342.587V342.587Z" fill="#EE4D2D"/>
<path id="Rectangle 1688" d="M59.011 327.375C58.5626 326.442 59.2424 325.361 60.2773 325.361L85.5318 325.361C86.6071 325.361 87.5886 325.973 88.0618 326.939V326.939C88.5203 327.875 87.839 328.967 86.7968 328.967L61.5435 328.967C60.4634 328.967 59.479 328.348 59.011 327.375V327.375Z" fill="#FFB886"/>
<path id="Rectangle 1689" d="M59.7298 333.866C59.2814 332.934 59.9611 331.853 60.996 331.853L91.2992 331.853C92.3745 331.853 93.356 332.465 93.8291 333.43V333.43C94.2877 334.366 93.6064 335.459 92.5641 335.459L62.2622 335.459C61.1822 335.459 60.1977 334.84 59.7298 333.866V333.866Z" fill="#FFB886"/>
</g>
</g>
</g>
</g>
<g id="Frame 4897">
<g id="Group 1194_2">
<g id="ClodeoWebMobile_3">
<g id="ClodeoWebMobile_4">
<path id="Rectangle 1654_2" d="M156.298 181.281L138.294 59.6538C138.149 58.6799 138.395 57.6885 138.977 56.8943L143.171 51.1675C143.802 50.307 144.804 49.7984 145.871 49.7984L208.736 49.7985C211.387 49.7985 213.642 51.7321 214.046 54.3522L232.651 174.978C232.873 176.418 232.501 177.887 231.62 179.047L228.052 183.743C227.037 185.081 225.454 185.867 223.774 185.867H193.046H161.613C158.949 185.867 156.688 183.915 156.298 181.281Z" fill="url(#paint14_linear_3497_104629)" stroke="#4B6CEF" stroke-width="0.123251"/>
<path id="Rectangle 1653_2" d="M146.398 50.1262H209.743C212.397 50.1262 214.649 52.0744 215.031 54.7011L232.734 176.447C232.996 178.25 231.598 179.866 229.776 179.866H164.593C161.939 179.866 159.687 177.918 159.305 175.291L141.866 55.3647C141.465 52.6023 143.607 50.1262 146.398 50.1262Z" fill="#E8EFFD" stroke="#7895F3" stroke-width="0.181146"/>
<path id="Rectangle 1681_2" d="M193.212 55.8142H193.25L193.277 55.787L197.373 51.5999H209.849C212.517 51.5999 214.777 53.5681 215.142 56.2111L231.453 174.07C231.702 175.867 230.306 177.469 228.493 177.469H166.589C163.92 177.469 161.661 175.501 161.295 172.858L145.041 55.4105C144.763 53.3962 146.328 51.5999 148.361 51.5999H161.128C161.707 51.5999 162.27 51.7911 162.729 52.1438L166.26 54.8576C167.067 55.4779 168.057 55.8142 169.075 55.8142H179.892H193.212Z" fill="#EBFFF3" stroke="#037D48" stroke-width="0.181146"/>
<path id="Union_2" d="M151.727 100.855L147.18 70.7314L215.84 70.7314C216.597 70.7314 217.253 71.259 217.412 71.9979L218.272 83.3124L209.971 90.3331C209.551 90.7302 209.377 91.3216 209.516 91.882L210.569 96.1425C211.427 99.6142 208.793 102.969 205.208 102.969C201.502 102.969 198.167 100.994 196.351 97.9317C196.062 100.691 193.725 102.969 190.738 102.969C187.002 102.969 183.635 101.003 181.765 97.9447C181.536 100.685 179.235 102.969 176.283 102.969C172.589 102.969 169.266 100.998 167.458 97.9446C167.163 100.698 164.829 102.969 161.847 102.969C158.11 102.969 154.743 101.002 152.872 97.9426C152.783 99.0213 152.372 100.029 151.727 100.855Z" fill="url(#paint15_linear_3497_104629)"/>
<line id="Line 326_2" x1="167.789" y1="53.8059" x2="187.778" y2="53.8059" stroke="#8896A2" stroke-width="0.181146"/>
<g id="Group 1103">
<path id="Rectangle 1684_2" d="M144.92 53.3235L147.792 51.3206C153.764 47.1561 162.031 50.7413 163.071 57.9473L165.189 72.6153C165.233 72.9203 165.101 73.2241 164.849 73.4004L149.085 84.3927C149.03 84.4313 148.953 84.3981 148.944 84.3314L144.58 54.1086C144.536 53.8036 144.667 53.4998 144.92 53.3235Z" fill="url(#paint16_linear_3497_104629)" stroke="#037D48" stroke-width="0.181146"/>
<path id="Rectangle 1697" d="M214.19 52.0009L215.361 51.1843C221.333 47.0198 229.599 50.605 230.639 57.811L232.757 72.4789C232.801 72.784 232.67 73.0878 232.417 73.2641L218.355 83.0701C218.299 83.1087 218.223 83.0755 218.213 83.0088L213.849 52.786C213.805 52.481 213.937 52.1772 214.19 52.0009Z" fill="url(#paint17_linear_3497_104629)" stroke="#037D48" stroke-width="0.181146"/>
<path id="Rectangle 1684_3" d="M153.889 49.3674L163.49 49.3674L167.424 49.3674C171.263 49.3674 174.569 52.0748 175.326 55.8383L179.067 74.4307C179.553 76.842 177.709 79.0936 175.249 79.0936L172.176 79.0936C168.683 79.0936 165.673 76.6297 164.984 73.2044L161.761 57.1851C160.952 53.1666 157.793 50.1223 153.889 49.3674Z" fill="url(#paint18_linear_3497_104629)" stroke="#037D48" stroke-width="0.181146"/>
<path id="Rectangle 1694_2" d="M181.408 49.3674L191.009 49.3674L194.943 49.3674C198.782 49.3674 202.089 52.0748 202.846 55.8383L206.587 74.4307C207.072 76.842 205.228 79.0936 202.769 79.0936L199.696 79.0936C196.202 79.0936 193.193 76.6297 192.504 73.2044L189.28 57.1851C188.472 53.1666 185.312 50.1223 181.408 49.3674Z" fill="url(#paint19_linear_3497_104629)" stroke="#037D48" stroke-width="0.181146"/>
<path id="Rectangle 1696" d="M208.928 49.3674L218.529 49.3674L222.463 49.3674C226.302 49.3674 229.608 52.0748 230.365 55.8383L234.107 74.4307C234.592 76.842 232.748 79.0936 230.288 79.0936L227.216 79.0936C223.722 79.0936 220.713 76.6297 220.023 73.2044L216.8 57.1851C215.991 53.1666 212.832 50.1223 208.928 49.3674Z" fill="url(#paint20_linear_3497_104629)" stroke="#037D48" stroke-width="0.181146"/>
<path id="Rectangle 1693_2" d="M167.649 49.3674L177.25 49.3674L181.184 49.3674C185.023 49.3674 188.33 52.0748 189.087 55.8383L192.828 74.4307C193.313 76.842 191.469 79.0936 189.01 79.0936L185.937 79.0936C182.443 79.0936 179.434 76.6297 178.745 73.2044L175.521 57.1851C174.713 53.1666 171.553 50.1223 167.649 49.3674Z" fill="#EBFFF3" stroke="#037D48" stroke-width="0.181146"/>
<path id="Rectangle 1695" d="M195.169 49.3674L204.77 49.3674L208.704 49.3674C212.543 49.3674 215.849 52.0748 216.606 55.8383L220.347 74.4307C220.833 76.842 218.989 79.0936 216.529 79.0936L213.457 79.0936C209.963 79.0936 206.953 76.6297 206.264 73.2044L203.041 57.1851C202.232 53.1666 199.073 50.1223 195.169 49.3674Z" fill="#EBFFF3" stroke="#037D48" stroke-width="0.181146"/>
</g>
</g>
<path id="Line 418_2" d="M204.961 178.465H221.784" stroke="#7895F3" stroke-width="0.34083" stroke-linecap="round"/>
<g id="Group 1186_2">
<path id="Rectangle 1686_2" d="M159.233 144.423C158.929 142.315 160.564 140.427 162.694 140.427H226.507L230.709 167.988L165.663 167.988C163.925 167.988 162.451 166.711 162.203 164.991L159.233 144.423Z" fill="url(#paint21_linear_3497_104629)"/>
<path id="Rectangle 1682_2" d="M234.431 161.116L171.39 161.116C168.511 161.116 166.084 159.016 165.646 156.17L162.782 137.57C162.422 135.233 164.231 133.124 166.596 133.124H224.404C230.173 133.124 235.09 137.309 236.011 143.004L238.218 156.641C238.598 158.988 236.807 161.116 234.431 161.116Z" fill="#09A854" stroke="#037D48" stroke-width="0.181146"/>
<path id="Rectangle 1685_4" d="M235.465 159.892L171.297 159.892C169.02 159.892 167.089 158.219 166.764 155.966L163.803 135.458C163.579 133.904 164.785 132.512 166.355 132.512H230.126C232.718 132.512 234.922 134.405 235.312 136.968L238.303 156.587C238.568 158.326 237.223 159.892 235.465 159.892Z" fill="#EBFFF3" stroke="#037D48" stroke-width="0.181146"/>
</g>
<g id="Group 1187">
<path id="Rectangle 1686_3" d="M169.241 107.73C168.937 105.622 170.572 103.734 172.701 103.734L221.504 103.734L225.706 131.295H175.671C173.933 131.295 172.459 130.018 172.21 128.298L169.241 107.73Z" fill="url(#paint22_linear_3497_104629)"/>
<path id="Rectangle 1682_3" d="M229.749 125.09L182.083 125.09C179.204 125.09 176.756 122.99 176.318 120.144L173.454 101.544C173.094 99.2064 174.903 97.0979 177.268 97.0979H219.733C225.502 97.0979 230.418 101.283 231.34 106.978L233.547 120.615C233.926 122.962 232.126 125.09 229.749 125.09Z" fill="#09A854" stroke="#037D48" stroke-width="0.181146"/>
<path id="Rectangle 1685_5" d="M230.794 123.865L182.047 123.865C179.77 123.865 177.839 122.193 177.514 119.94L174.553 99.432C174.329 97.8777 175.535 96.4856 177.105 96.4856H225.455C228.048 96.4856 230.251 98.3788 230.642 100.942L233.633 120.561C233.898 122.299 232.553 123.865 230.794 123.865Z" fill="#EBFFF3" stroke="#037D48" stroke-width="0.181146"/>
<path id="Rectangle 1683" d="M198.228 104.568C198.118 103.774 198.734 103.066 199.535 103.066L217.139 103.066C218.439 103.066 219.55 104.004 219.769 105.285V105.285C219.908 106.1 219.281 106.844 218.454 106.844H200.842C199.525 106.844 198.409 105.873 198.228 104.568V104.568Z" fill="#54C981"/>
<path id="Rectangle 1689_2" d="M189.556 141.261C189.446 140.468 190.062 139.76 190.863 139.76L215.139 139.76C216.439 139.76 217.55 140.697 217.769 141.979V141.979C217.908 142.794 217.28 143.538 216.454 143.538H192.17C190.853 143.538 189.737 142.566 189.556 141.261V141.261Z" fill="#54C981"/>
<path id="Rectangle 1688_2" d="M178.318 103.313C178.152 102.125 179.075 101.065 180.274 101.065L190.152 101.065C192.074 101.065 193.718 102.45 194.044 104.344L195.953 115.434C196.161 116.641 195.231 117.744 194.007 117.744H183.772C181.802 117.744 180.133 116.292 179.861 114.341L178.318 103.313Z" fill="#54C981"/>
<path id="Rectangle 1690_2" d="M169.646 140.007C169.48 138.819 170.403 137.758 171.602 137.758L181.48 137.758C183.402 137.758 185.046 139.143 185.372 141.038L187.281 152.127C187.489 153.334 186.56 154.437 185.335 154.437H175.1C173.13 154.437 171.462 152.986 171.189 151.035L169.646 140.007Z" fill="#54C981"/>
<path id="Rectangle 1687_2" d="M199.704 111.906C199.594 111.113 200.211 110.405 201.012 110.405L225.479 110.405C226.779 110.405 227.89 111.343 228.109 112.624V112.624C228.248 113.439 227.62 114.183 226.794 114.183H202.319C201.001 114.183 199.886 113.212 199.704 111.906V111.906Z" fill="#54C981"/>
<path id="Rectangle 1691_2" d="M191.033 148.6C190.922 147.806 191.539 147.099 192.34 147.099H224.813C226.113 147.099 227.224 148.036 227.443 149.318V149.318C227.582 150.132 226.954 150.877 226.128 150.877L193.647 150.877C192.329 150.877 191.214 149.905 191.033 148.6V148.6Z" fill="#54C981"/>
</g>
</g>
</g>
</g>
<g id="Frame 4898">
<g id="Group 1194_3">
<g id="ClodeoWebMobile_5" clip-path="url(#clip1_3497_104629)">
<g id="ClodeoWebMobile_6">
<path id="Rectangle 1654_3" d="M331.956 229.357L358.394 115.296C358.646 114.208 358.414 113.065 357.757 112.162L354.128 107.173C353.48 106.282 352.445 105.755 351.344 105.755L292.898 105.755C290.339 105.755 288.114 107.512 287.521 110.002L260.612 222.995C260.23 224.599 260.583 226.289 261.576 227.604L264.468 231.438C265.512 232.822 267.146 233.636 268.88 233.636H297.295H326.572C329.143 233.636 331.375 231.863 331.956 229.357Z" fill="url(#paint23_linear_3497_104629)" stroke="#4B6CEF" stroke-width="0.126791"/>
<path id="Rectangle 1653_3" d="M350.019 105.779H291.947C289.386 105.779 287.164 107.548 286.59 110.043L260.216 224.632C259.772 226.558 261.236 228.396 263.212 228.396H323.34C325.901 228.396 328.123 226.628 328.697 224.132L354.61 111.547C355.289 108.596 353.048 105.779 350.019 105.779Z" fill="#E8EFFD" stroke="#7895F3" stroke-width="0.186349"/>
<path id="Rectangle 1681_3" d="M307.324 111.411H307.284L307.257 111.383L303.436 107.45H291.823C289.262 107.45 287.041 109.218 286.466 111.712L261.044 221.975C260.6 223.901 262.064 225.74 264.041 225.74H321.115C323.676 225.74 325.897 223.973 326.472 221.478L351.788 111.672C352.286 109.512 350.646 107.45 348.429 107.45H337.366C336.768 107.45 336.186 107.649 335.713 108.015L332.608 110.418C331.776 111.062 330.753 111.411 329.7 111.411H319.757H307.324Z" fill="url(#paint24_linear_3497_104629)" stroke="#4B6CEF" stroke-width="0.186349"/>
<path id="Union_3" d="M342.816 151.473L349.309 123.313L285.217 123.313C284.509 123.313 283.898 123.809 283.748 124.504L281.501 134.969L288.447 141.583C288.839 141.956 289.002 142.512 288.872 143.039L287.889 147.043C287.088 150.307 289.547 153.459 292.893 153.459C296.353 153.459 299.466 151.603 301.161 148.725C301.431 151.318 303.612 153.459 306.4 153.459C309.888 153.459 313.031 151.612 314.777 148.737C314.99 151.313 317.138 153.459 319.894 153.459C323.342 153.459 326.444 151.607 328.131 148.737C328.407 151.325 330.586 153.459 333.369 153.459C336.858 153.459 340.001 151.611 341.747 148.735C341.831 149.749 342.214 150.697 342.816 151.473Z" fill="url(#paint25_linear_3497_104629)"/>
<line id="Line 326_3" y1="-0.0931747" x2="18.6593" y2="-0.0931747" transform="matrix(-1 0 0 1 331.055 109.601)" stroke="#8896A2" stroke-width="0.186349"/>
<g id="Group 1103_2">
<path id="Rectangle 1684_4" d="M351.691 110.424L346.641 106.878C341.996 103.617 335.525 106.07 334.21 111.591L330.654 126.524C330.574 126.858 330.707 127.207 330.988 127.404L345.613 137.673C345.667 137.711 345.742 137.682 345.757 137.618L352.025 111.304C352.104 110.97 351.972 110.621 351.691 110.424Z" fill="url(#paint26_linear_3497_104629)" stroke="#A54D12" stroke-width="0.186349"/>
<path id="Rectangle 1688_3" d="M269.765 115.454L267.196 126.241L281.149 135.029C281.203 135.063 281.274 135.034 281.289 134.971L287.691 108.094C280.776 103.778 271.656 107.515 269.765 115.454Z" fill="url(#paint27_linear_3497_104629)" stroke="#A54D12" stroke-width="0.186349"/>
<path id="Rectangle 1684_5" d="M341.014 105.352L333.084 105.352L329.697 105.352C325.906 105.352 322.598 107.923 321.662 111.597L317.41 128.28C316.765 130.814 318.678 133.276 321.292 133.276L323.168 133.276C326.618 133.276 329.629 130.937 330.481 127.593L334.57 111.551C335.377 108.381 337.913 106.014 341.014 105.352Z" fill="url(#paint28_linear_3497_104629)" stroke="#A54D12" stroke-width="0.186349"/>
<path id="Rectangle 1689_3" d="M315.409 105.352L307.478 105.352L304.092 105.352C300.301 105.352 296.992 107.923 296.056 111.597L291.805 128.28C291.159 130.813 293.073 133.276 295.687 133.276L297.563 133.276C301.013 133.276 304.024 130.936 304.876 127.593L308.964 111.551C309.772 108.381 312.307 106.014 315.409 105.352Z" fill="url(#paint29_linear_3497_104629)" stroke="#A54D12" stroke-width="0.186349"/>
<path id="Rectangle 1691_3" d="M290.487 105.093L282.428 105.093L278.045 105.093C274.321 105.093 271.054 107.575 270.056 111.163L265.431 127.781C264.721 130.334 266.641 132.862 269.291 132.862L272.303 132.862C275.692 132.862 278.666 130.603 279.574 127.338L284.089 111.113C284.948 108.027 287.448 105.741 290.487 105.093Z" fill="url(#paint30_linear_3497_104629)" stroke="#A54D12" stroke-width="0.186349"/>
<path id="Rectangle 1692_2" d="M290.487 105.093L282.428 105.093L278.045 105.093C274.321 105.093 271.054 107.575 270.056 111.163L265.431 127.781C264.721 130.334 266.641 132.862 269.291 132.862L272.303 132.862C275.692 132.862 278.666 130.603 279.574 127.338L284.089 111.113C284.948 108.027 287.448 105.741 290.487 105.093Z" fill="url(#paint31_linear_3497_104629)" stroke="#A54D12" stroke-width="0.186349"/>
<path id="Rectangle 1685_6" d="M328.268 105.352L318.289 105.352L316.614 105.352C312.823 105.352 309.515 107.923 308.579 111.597L304.327 128.28C303.681 130.814 305.595 133.276 308.209 133.276L310.422 133.276C313.872 133.276 316.883 130.937 317.735 127.593L321.823 111.551C322.631 108.381 325.167 106.014 328.268 105.352Z" fill="#FFF6F0" stroke="#A54D12" stroke-width="0.186349"/>
<path id="Rectangle 1690_3" d="M302.663 105.352L292.684 105.352L291.009 105.352C287.218 105.352 283.909 107.923 282.973 111.597L278.721 128.28C278.076 130.813 279.99 133.276 282.604 133.276L284.816 133.276C288.267 133.276 291.278 130.936 292.13 127.593L296.218 111.551C297.026 108.381 299.561 106.014 302.663 105.352Z" fill="#FFF6F0" stroke="#A54D12" stroke-width="0.186349"/>
</g>
<path id="Rectangle 1685_7" d="M335.101 161.957C335.877 158.577 333.31 155.354 329.843 155.354L284.288 155.354C281.789 155.354 279.617 157.07 279.04 159.502L267.244 209.131C266.707 211.391 268.42 213.559 270.743 213.559L318.954 213.559C321.468 213.559 323.649 211.822 324.212 209.372L335.101 161.957Z" fill="url(#paint32_linear_3497_104629)"/>
</g>
<path id="Line 418_3" d="M297.043 226.686H281.339" stroke="#7895F3" stroke-width="0.350619" stroke-linecap="round"/>
<g id="Group 1186_3">
<path id="Rectangle 1682_4" d="M267.989 209.774L313.098 209.774C316.817 209.774 320.054 207.221 320.916 203.603L332.412 155.351C333.007 152.857 331.115 150.461 328.551 150.461H286.302C280.67 150.461 275.782 154.349 274.516 159.837L264.115 204.911C263.541 207.399 265.436 209.774 267.989 209.774Z" fill="url(#paint33_linear_3497_104629)" stroke="#A54D12" stroke-width="0.186349"/>
<path id="Rectangle 1685_8" d="M266.216 207.187L311.662 207.187C315.406 207.187 318.653 204.601 319.491 200.953L330.267 154.027C330.838 151.54 328.949 149.168 326.398 149.168H281.329C277.608 149.168 274.374 151.724 273.514 155.344L262.354 202.3C261.761 204.794 263.652 207.187 266.216 207.187Z" fill="#FFF6F0" stroke="#A54D12" stroke-width="0.186349"/>
<path id="Rectangle 1683_2" d="M316.247 194.858C316.512 193.595 315.549 192.408 314.259 192.408L272.065 192.408C270.19 192.408 268.558 193.692 268.117 195.515L267.545 197.877C267.235 199.156 268.204 200.387 269.519 200.387H311.786C313.708 200.387 315.367 199.04 315.763 197.16L316.247 194.858Z" fill="#EE4D2D"/>
<path id="Rectangle 1688_4" d="M325.457 175.004L310.134 175.004C308.253 175.004 306.618 176.295 306.182 178.124L304.575 184.855C304.27 186.132 305.238 187.358 306.551 187.358H322.71L325.457 175.004Z" fill="url(#paint34_linear_3497_104629)"/>
<path id="Rectangle 1691_4" d="M329.438 156.474L314.114 156.474C312.234 156.474 310.599 157.764 310.162 159.593L308.556 166.324C308.251 167.601 309.219 168.827 310.532 168.827H326.691L329.438 156.474Z" fill="url(#paint35_linear_3497_104629)"/>
<path id="Rectangle 1687_3" d="M308.482 165.303L350.277 165.303C352.166 165.303 353.794 163.971 354.168 162.119L355.395 156.044C355.516 155.445 355.347 154.824 354.939 154.368L352.304 151.424C352.109 151.206 351.825 151.089 351.533 151.106L311.141 153.493C309.764 153.575 308.529 154.364 307.877 155.579L304.639 161.612L306.958 164.562C307.325 165.03 307.887 165.303 308.482 165.303Z" fill="url(#paint36_linear_3497_104629)" stroke="#A54D12" stroke-width="0.186349"/>
<path id="Rectangle 1689_4" d="M303.677 182.461L345.472 182.461C347.361 182.461 348.989 181.129 349.363 179.277L350.59 173.203C350.711 172.603 350.542 171.982 350.134 171.526L347.5 168.582C347.305 168.364 347.021 168.247 346.729 168.265L306.336 170.652C304.96 170.733 303.724 171.522 303.072 172.737L299.835 178.77L302.153 181.72C302.521 182.188 303.083 182.461 303.677 182.461Z" fill="url(#paint37_linear_3497_104629)" stroke="#A54D12" stroke-width="0.186349"/>
<path id="Rectangle 1686_4" d="M306.414 162.557H347.203C349.084 162.557 350.707 161.237 351.09 159.395L352.475 152.722C352.725 151.519 351.807 150.39 350.578 150.39L309.999 150.39C308.163 150.39 306.566 151.65 306.138 153.437L304.529 160.168C304.238 161.387 305.161 162.557 306.414 162.557Z" fill="#FFF6F0" stroke="#A54D12" stroke-width="0.186349"/>
<path id="Rectangle 1690_4" d="M301.609 179.716H342.398C344.28 179.716 345.903 178.395 346.285 176.553L347.671 169.881C347.921 168.677 347.002 167.548 345.773 167.548L305.195 167.548C303.358 167.548 301.761 168.808 301.334 170.595L299.724 177.327C299.433 178.545 300.357 179.716 301.609 179.716Z" fill="#FFF6F0" stroke="#A54D12" stroke-width="0.186349"/>
</g>
<g id="Group 1187_2">
<path id="Rectangle 1688_5" d="M301.781 148.923L281.687 148.923C277.913 148.923 274.636 151.521 273.775 155.195L268.152 179.19L285.572 179.19C285.915 179.19 286.23 179.378 286.392 179.679L288.593 183.758C289.791 185.978 293.098 185.542 293.68 183.087L301.781 148.923Z" fill="url(#paint38_linear_3497_104629)"/>
<path id="Rectangle 1685_9" d="M290.656 178.705L298.598 145.679C299.199 143.182 297.307 140.781 294.739 140.781H274.19C270.469 140.781 267.235 143.336 266.375 146.956L261.195 168.748C260.602 171.242 262.494 173.636 265.057 173.636L282.012 173.636C282.386 173.636 282.731 173.84 282.911 174.169L285.751 179.358C286.915 181.486 290.089 181.063 290.656 178.705Z" fill="url(#paint39_linear_3497_104629)" stroke="#A54D12" stroke-width="0.186349"/>
<path id="Rectangle 1687_4" d="M288.597 175.273L296.54 142.247C297.14 139.75 295.248 137.349 292.68 137.349H272.131C268.41 137.349 265.177 139.904 264.316 143.524L259.137 165.317C258.544 167.811 260.435 170.204 262.999 170.204L279.953 170.204C280.327 170.204 280.672 170.409 280.852 170.737L283.692 175.927C284.857 178.054 288.03 177.632 288.597 175.273Z" fill="#FFF6F0" stroke="#A54D12" stroke-width="0.186349"/>
<path id="Rectangle 1689_5" d="M269.089 145.398H287.802C288.911 145.398 289.873 144.632 290.121 143.551C290.285 142.836 289.741 142.153 289.007 142.153L270.298 142.153C269.205 142.153 268.249 142.889 267.971 143.946C267.777 144.68 268.33 145.398 269.089 145.398Z" fill="#FFF6F0" stroke="#A54D12" stroke-width="0.186349"/>
<path id="Rectangle 1690_5" d="M267.031 151.575H285.744C286.853 151.575 287.815 150.809 288.062 149.728C288.226 149.012 287.683 148.33 286.949 148.33L268.24 148.33C267.147 148.33 266.191 149.066 265.912 150.123C265.718 150.857 266.272 151.575 267.031 151.575Z" fill="#FFF6F0" stroke="#A54D12" stroke-width="0.186349"/>
<path id="Rectangle 1691_5" d="M265.658 158.439H272.017C273.126 158.439 274.088 157.672 274.336 156.591C274.5 155.876 273.956 155.193 273.222 155.193L266.867 155.193C265.774 155.193 264.818 155.929 264.539 156.986C264.345 157.72 264.899 158.439 265.658 158.439Z" fill="#FFF6F0" stroke="#A54D12" stroke-width="0.186349"/>
</g>
</g>
</g>
</g>
<g id="Component 338">
<g id="Frame 44905">
<g id="Rectangle 3900" filter="url(#filter0_b_3497_104629)">
<path d="M163.134 366.535C165.225 362.04 169.721 358.594 174.57 357.768L298.153 334.562L309.83 356.789C309.947 357.011 310.082 357.224 310.222 357.433C312.483 360.819 313.118 366.294 311.987 370.733L282.378 481.576C279.325 493.564 267.072 503.12 254.756 503.12H131.813C124.07 503.12 117.414 499.936 113.484 494.352L104.273 481.264L163.134 366.535Z" fill="url(#paint40_linear_3497_104629)"/>
</g>
</g>
<g id="Rectangle 3901" filter="url(#filter1_b_3497_104629)">
<path d="M137.044 345.098C139.546 336.084 148.786 329 158.041 329H286.836C296.749 329 302.806 337.084 300.127 346.738L264.501 470.661C262 479.675 252.76 486.759 243.504 486.759H115.946C106.033 486.759 99.9755 478.676 102.655 469.022L137.044 345.098Z" fill="url(#paint41_linear_3497_104629)"/>
</g>
<g id="Component 337">
<path id="Vector" d="M159.772 459.846C151.091 459.846 146.01 452.956 148.465 444.416L168.413 375.015C170.858 366.507 179.877 359.586 188.59 359.586C197.271 359.586 202.353 366.475 199.898 375.015L179.95 444.416C177.504 452.924 168.486 459.846 159.772 459.846Z" fill="#D0FF00"/>
<path id="Vector_2" d="M215.992 409.286C226.264 409.286 236.919 401.189 239.79 391.201C242.661 381.213 236.661 373.116 226.389 373.116C216.116 373.116 205.462 381.213 202.591 391.201C199.72 401.189 205.72 409.286 215.992 409.286Z" fill="#D0FF00"/>
<path id="Rectangle 3894" d="M193.134 441.395C189.155 438.325 189.59 432.005 194.106 427.278L202.554 418.435C207.07 413.708 213.956 412.364 217.935 415.434L234.75 428.407C238.729 431.476 238.294 437.797 233.778 442.523L225.33 451.367C220.814 456.094 213.928 457.437 209.949 454.368L193.134 441.395Z" fill="#D0FF00"/>
</g>
<g id="Mask group">
<mask id="mask0_3497_104629" style="mask-type:alpha" maskUnits="userSpaceOnUse" x="97" y="329" width="210" height="159">
<path id="Rectangle 10113" d="M146.382 329.22H305.259C306.011 329.22 306.55 329.946 306.333 330.666L260.551 482.728C259.722 485.481 257.188 487.364 254.314 487.364L99.007 487.364C98.2639 487.364 97.7261 486.655 97.9267 485.939L140.661 333.558C141.38 330.993 143.718 329.22 146.382 329.22Z" fill="#4B6CEF" stroke="#0C2083" stroke-width="0.118105"/>
</mask>
<g mask="url(#mask0_3497_104629)">
<path id="Rectangle 3193" d="M201.684 329H174.837L207.169 432.561H234.016L201.684 329Z" fill="url(#paint42_linear_3497_104629)" fill-opacity="0.5"/>
<path id="Rectangle 10112" d="M231.685 329H223.77L255.687 432.561H263.602L231.685 329Z" fill="url(#paint43_linear_3497_104629)" fill-opacity="0.5"/>
</g>
</g>
</g>
<g id="Frame 4896">
<g id="Group 1194_4">
<g id="ClodeoWebMobile_7" clip-path="url(#clip2_3497_104629)">
<g id="ClodeoWebMobile_8">
<path id="Rectangle 1654_4" d="M76.8334 246.074L55.3932 153.435C55.1802 152.515 55.3767 151.547 55.932 150.783L58.8111 146.819C59.3599 146.063 60.2374 145.616 61.1713 145.616L108.455 145.616C110.624 145.616 112.509 147.106 113.011 149.216L134.827 240.96C135.15 242.317 134.851 243.747 134.012 244.861L131.771 247.836C130.886 249.01 129.501 249.701 128.03 249.701H105.035H81.396C79.2164 249.701 77.3249 248.198 76.8334 246.074Z" fill="url(#paint44_linear_3497_104629)" stroke="#4B6CEF" stroke-width="0.107432"/>
<path id="Rectangle 1653_4" d="M59.653 145.871H109.221C111.391 145.871 113.274 147.37 113.76 149.486L135.132 242.48C135.507 244.112 134.267 245.669 132.593 245.669H84.0166C81.846 245.669 79.9631 244.17 79.477 242.055L57.8833 148.093C57.622 146.956 58.486 145.871 59.653 145.871Z" fill="#E8EFFD" stroke="#7895F3" stroke-width="0.157896"/>
<path id="Rectangle 1681_4" d="M96.8874 150.222H96.9208L96.944 150.198L100.048 146.998H109.33C111.5 146.998 113.383 148.496 113.869 150.611L134.467 240.084C134.843 241.717 133.603 243.274 131.928 243.274H85.8335C83.6636 243.274 81.7811 241.776 81.2943 239.661L60.7858 150.574C60.3645 148.744 61.7545 146.998 63.6324 146.998H72.4368C72.9446 146.998 73.4379 147.167 73.8392 147.478L76.2918 149.378C76.9976 149.925 77.8652 150.222 78.7581 150.222H86.7822H96.8874Z" fill="url(#paint45_linear_3497_104629)" stroke="#4B6CEF" stroke-width="0.157896"/>
<line id="Line 326_4" x1="77.5977" y1="148.667" x2="92.7626" y2="148.667" stroke="#8896A2" stroke-width="0.157896"/>
<path id="Union_4" fill-rule="evenodd" clip-rule="evenodd" d="M68.0382 182.827L62.7617 159.907L114.851 159.907C115.426 159.907 115.923 160.31 116.044 160.876L117.871 169.394L112.225 174.777C111.907 175.081 111.775 175.534 111.88 175.962L112.638 179.054L120.575 179.054L123.61 193.592H105.412C103.299 193.592 101.461 192.144 100.967 190.089L99.5065 184.013C98.9455 184.288 98.3121 184.444 97.6346 184.444C94.8 184.444 92.2458 182.94 90.8267 180.601C90.7135 181.968 89.9316 183.187 88.78 183.869L98.5917 225.213C98.9325 226.649 97.8435 228.026 96.3678 228.026L86.6511 228.026C84.52 228.026 82.6717 226.554 82.1954 224.477L72.8973 183.927C71.2421 183.297 69.8329 182.126 68.9072 180.599C68.8392 181.424 68.5277 182.195 68.0382 182.827ZM79.973 180.601L80.0021 180.65H79.9674L79.973 180.601ZM105.286 201.733C103.808 201.733 102.718 203.116 103.064 204.553L105.039 212.768C105.532 214.823 107.37 216.271 109.483 216.271H118.198C119.684 216.271 120.775 214.876 120.416 213.434L117.937 203.467C117.683 202.448 116.768 201.733 115.719 201.733H105.286ZM124.476 201.733C122.997 201.733 121.908 203.116 122.253 204.553L124.228 212.768C124.722 214.823 126.56 216.271 128.673 216.271H129.135L125.518 201.733H124.476Z" fill="url(#paint46_linear_3497_104629)"/>
<g id="Group 1187_3">
<path id="Rectangle 1685_10" d="M129.336 190.37L108.593 190.37C105.42 190.37 102.668 188.178 101.959 185.085L99.9373 176.27C99.4543 174.164 101.055 172.155 103.216 172.155H123.889C127.042 172.155 129.783 174.321 130.511 177.389L132.609 186.23C133.111 188.343 131.508 190.37 129.336 190.37Z" fill="#EF6262" stroke="#A31920" stroke-width="0.157896"/>
<path id="Rectangle 1686_5" d="M131.083 188.044L110.339 188.044C107.166 188.044 104.414 185.852 103.705 182.759L101.683 173.944C101.2 171.837 102.801 169.828 104.962 169.828H125.635C128.788 169.828 131.529 171.995 132.257 175.063L134.355 183.904C134.857 186.017 133.254 188.044 131.083 188.044Z" fill="#FFF0F0" stroke="#A31920" stroke-width="0.157896"/>
<path id="Rectangle 1683_3" d="M124.275 185.372H110.53C109.589 185.372 108.774 184.721 108.566 183.803C108.429 183.198 108.889 182.622 109.509 182.622L123.251 182.622C124.178 182.622 124.988 183.248 125.222 184.145C125.384 184.765 124.916 185.372 124.275 185.372Z" fill="#EF6262" stroke="#A31920" stroke-width="0.157896"/>
</g>
<g id="Group 1103_3">
<path id="Rectangle 1684_6" d="M60.8594 148.893L64.3922 146.474C68.2854 143.809 73.6437 145.817 74.8262 150.385L77.9003 162.258C77.9755 162.548 77.8602 162.855 77.6122 163.023L65.7767 171.077C65.731 171.108 65.6683 171.083 65.6555 171.03L60.5695 149.644C60.5014 149.358 60.6167 149.059 60.8594 148.893Z" fill="url(#paint47_linear_3497_104629)" stroke="#A31920" stroke-width="0.157896"/>
<path id="Rectangle 1688_6" d="M127.403 153.497L129.493 162.289L118.163 169.435C118.117 169.464 118.057 169.439 118.044 169.387L112.844 147.52C118.459 144.012 125.869 147.047 127.403 153.497Z" fill="url(#paint48_linear_3497_104629)" stroke="#A31920" stroke-width="0.157896"/>
<path id="Rectangle 1684_7" d="M69.3379 145.291L75.9498 145.291L78.4743 145.291C81.6875 145.291 84.4913 147.471 85.2837 150.585L88.6418 163.782C89.1879 165.928 87.5663 168.013 85.3519 168.013L84.2156 168.013C81.2913 168.013 78.7395 166.03 78.0183 163.196L74.7994 150.546C74.1156 147.858 71.9669 145.852 69.3379 145.291Z" fill="url(#paint49_linear_3497_104629)" stroke="#A31920" stroke-width="0.157896"/>
<path id="Rectangle 1689_6" d="M90.1465 145.291L96.7584 145.291L99.2829 145.291C102.496 145.291 105.3 147.471 106.092 150.585L109.45 163.782C109.996 165.928 108.375 168.013 106.16 168.013L105.024 168.013C102.1 168.013 99.5481 166.03 98.8269 163.196L95.608 150.546C94.9242 147.858 92.7755 145.852 90.1465 145.291Z" fill="url(#paint50_linear_3497_104629)" stroke="#A31920" stroke-width="0.157896"/>
<path id="Rectangle 1691_6" d="M110.407 145.079L117.118 145.079L120.457 145.079C123.613 145.079 126.382 147.184 127.227 150.225L130.88 163.372C131.481 165.535 129.855 167.675 127.609 167.675L125.549 167.675C122.676 167.675 120.156 165.76 119.387 162.993L115.828 150.182C115.101 147.567 112.982 145.629 110.407 145.079Z" fill="url(#paint51_linear_3497_104629)" stroke="#A31920" stroke-width="0.157896"/>
<path id="Rectangle 1692_3" d="M110.407 145.079L117.118 145.079L120.457 145.079C123.613 145.079 126.382 147.184 127.227 150.225L130.88 163.372C131.481 165.535 129.855 167.675 127.609 167.675L125.549 167.675C122.676 167.675 120.156 165.76 119.387 162.993L115.828 150.182C115.101 147.567 112.982 145.629 110.407 145.079Z" fill="url(#paint52_linear_3497_104629)" stroke="#A31920" stroke-width="0.157896"/>
<path id="Rectangle 1685_11" d="M79.6973 145.291L87.9736 145.291L89.1077 145.291C92.3209 145.291 95.1247 147.471 95.9171 150.585L99.2752 163.782C99.8212 165.928 98.1996 168.013 95.9852 168.013L94.575 168.013C91.6506 168.013 89.0989 166.03 88.3777 163.196L85.1588 150.546C84.475 147.858 82.3262 145.852 79.6973 145.291Z" fill="#FFF0F0" stroke="#A31920" stroke-width="0.157896"/>
<path id="Rectangle 1690_6" d="M100.506 145.291L108.782 145.291L109.916 145.291C113.129 145.291 115.933 147.471 116.726 150.585L120.084 163.782C120.63 165.928 119.008 168.013 116.794 168.013L115.384 168.013C112.459 168.013 109.907 166.03 109.186 163.196L105.967 150.546C105.284 147.858 103.135 145.852 100.506 145.291Z" fill="#FFF0F0" stroke="#A31920" stroke-width="0.157896"/>
</g>
</g>
<path id="Line 418_4" d="M105.797 244.046H118.56" stroke="#7895F3" stroke-width="0.297084" stroke-linecap="round"/>
<g id="Group 1186_4">
<path id="Rectangle 1682_5" d="M99.9557 220.898L96.181 220.898H95.8298L95.8288 220.898H95.8287H95.8284H95.8279H95.8232H95.8043H95.7494L95.7391 220.898H95.7143L95.7117 220.898H95.7106H95.7105H95.7104L95.7097 220.898L95.5926 220.898L92.6426 220.898C89.488 220.898 86.73 218.73 86.0026 215.661L76.784 176.766C76.2833 174.653 77.8857 172.626 80.057 172.626H84.3982C89.1198 172.626 93.2305 175.852 94.3531 180.438L103.238 216.734C103.757 218.853 102.138 220.898 99.9557 220.898Z" fill="#EF6262" stroke="#A31920" stroke-width="0.157896"/>
<path id="Rectangle 1685_12" d="M101.166 218.792L93.7939 218.792C90.621 218.792 87.8689 216.599 87.1598 213.507L78.4881 175.689C78.0051 173.582 79.6055 171.573 81.7667 171.573H88.8351C91.9887 171.573 94.7292 173.739 95.4574 176.808L104.438 214.651C104.94 216.764 103.337 218.792 101.166 218.792Z" fill="#FFF0F0" stroke="#A31920" stroke-width="0.157896"/>
<path id="Rectangle 1683_4" d="M97.4482 213.382H94.9084C93.3171 213.382 91.9435 212.267 91.6165 210.71L91.263 209.026C91.0487 208.006 91.8274 207.046 92.8703 207.046L95.3557 207.046C96.9089 207.046 98.2602 208.11 98.6252 209.619L99.0446 211.354C99.2944 212.388 98.5114 213.382 97.4482 213.382Z" fill="#EF6262" stroke="#A31920" stroke-width="0.157896"/>
</g>
<g id="Group 1188">
<path id="Rectangle 1685_13" d="M120.15 212.122H114.326C111.141 212.122 108.381 209.913 107.684 206.805L106.311 200.678C105.839 198.576 107.438 196.578 109.593 196.578L115.369 196.578C118.536 196.578 121.284 198.762 121.999 201.846L123.427 207.998C123.916 210.106 122.315 212.122 120.15 212.122Z" fill="#EF6262" stroke="#A31920" stroke-width="0.157896"/>
<path id="Rectangle 1686_6" d="M121.315 210.377L116.072 210.377C112.887 210.377 110.127 208.168 109.431 205.06L108.057 198.933C107.585 196.831 109.185 194.834 111.339 194.834H116.534C119.7 194.834 122.448 197.017 123.164 200.102L124.591 206.253C125.081 208.362 123.48 210.377 121.315 210.377Z" fill="#FFF0F0" stroke="#A31920" stroke-width="0.157896"/>
</g>
<g id="Group 1189">
<path id="Rectangle 1685_14" d="M138.174 212.122H132.349C129.164 212.122 126.405 209.913 125.708 206.805L124.334 200.678C123.863 198.576 125.462 196.578 127.616 196.578L133.393 196.578C136.559 196.578 139.307 198.762 140.023 201.846L141.45 207.998C141.94 210.106 140.339 212.122 138.174 212.122Z" fill="#EF6262" stroke="#A31920" stroke-width="0.157896"/>
<path id="Rectangle 1686_7" d="M139.338 210.377L134.095 210.377C130.91 210.377 128.151 208.168 127.454 205.06L126.08 198.933C125.609 196.831 127.208 194.834 129.362 194.834H134.557C137.724 194.834 140.472 197.017 141.187 200.102L142.615 206.253C143.104 208.362 141.503 210.377 139.338 210.377Z" fill="#FFF0F0" stroke="#A31920" stroke-width="0.157896"/>
</g>
</g>
</g>
</g>
<g id="Frame 4899">
<g id="Group 1194_5">
<g id="ClodeoWebMobile_9">
<g id="ClodeoWebMobile_10">
<path id="Rectangle 1654_5" d="M375.398 335.434L415.837 234.728C416.366 233.412 416.204 231.918 415.406 230.745L413.096 227.351C412.387 226.309 411.208 225.685 409.948 225.685L371.308 225.685C368.826 225.685 366.591 227.185 365.65 229.48L324.88 328.969C324.085 330.908 324.338 333.117 325.55 334.826L326.876 336.693C328.022 338.309 329.881 339.269 331.862 339.269H351.681H369.724C372.221 339.269 374.467 337.751 375.398 335.434Z" fill="url(#paint53_linear_3497_104629)" stroke="#4B6CEF" stroke-width="0.140252"/>
<path id="Rectangle 1653_5" d="M407.565 225.967H371.757C369.296 225.967 367.078 227.45 366.138 229.723L324.574 330.16C323.647 332.4 325.293 334.862 327.717 334.862H365.007C367.467 334.862 369.685 333.38 370.626 331.106L411.623 232.038C412.819 229.147 410.694 225.967 407.565 225.967Z" fill="#E8EFFD" stroke="#7895F3" stroke-width="0.206134"/>
<path id="Rectangle 1681_5" d="M366.251 230.962L326.469 327.551C325.547 329.79 327.193 332.248 329.614 332.248H364.031C366.494 332.248 368.715 330.761 369.653 328.483L409.201 232.463C410.234 229.953 408.389 227.197 405.675 227.197H399.675C399.205 227.197 398.742 227.308 398.323 227.521L393.146 230.148C392.409 230.522 391.594 230.716 390.767 230.716H381.373C380.394 230.716 379.532 230.073 379.254 229.134C378.913 227.985 377.858 227.197 376.659 227.197H371.874C369.41 227.197 367.19 228.684 366.251 230.962Z" fill="#EBF4FF" stroke="#0061C2" stroke-width="0.206134"/>
<path id="Rectangle 1685_15" d="M388.968 274.072C390.205 271.111 388.03 267.844 384.821 267.844L358.7 267.844C355.097 267.844 351.842 269.996 350.43 273.31L332.501 315.402C331.662 317.37 333.107 319.555 335.246 319.555L363.974 319.555C367.599 319.555 370.87 317.377 372.268 314.032L388.968 274.072Z" fill="url(#paint54_linear_3497_104629)"/>
<path id="Union_5" d="M395.854 264.286L408.98 232.233C409.289 231.476 408.714 230.653 407.897 230.684L364.994 232.304C364.557 232.304 364.179 232.678 364.086 233.203L356.945 253.524L362.246 256.816C362.488 257.098 362.588 257.518 362.508 257.916L361.9 260.941C361.405 263.405 362.925 265.787 364.994 265.787C367.132 265.787 369.057 264.385 370.105 262.211C370.271 264.17 371.62 265.787 373.343 265.787C375.499 265.787 377.442 264.391 378.521 262.22C378.653 264.166 379.981 265.787 381.684 265.787C383.816 265.787 385.733 264.388 386.776 262.22C386.947 264.175 388.293 265.787 390.014 265.787C392.171 265.787 394.114 264.391 395.193 262.219C395.245 262.984 395.482 263.7 395.854 264.286Z" fill="url(#paint55_linear_3497_104629)"/>
<path id="Line 326_5" d="M391.523 228.82L381.047 228.82" stroke="#8896A2" stroke-width="0.206134"/>
</g>
<path id="Line 418_5" d="M351.52 333.107H337.546" stroke="#7895F3" stroke-width="0.387844" stroke-linecap="round"/>
<path id="Rectangle 1684_8" d="M409.758 228.658L407.365 226.606C402.727 222.632 395.556 224.413 393.316 230.095L388.69 241.831C388.545 242.199 388.649 242.619 388.949 242.876L400.706 252.952C400.76 252.998 400.843 252.978 400.869 252.912L410.018 229.702C410.163 229.334 410.059 228.915 409.758 228.658Z" fill="url(#paint56_linear_3497_104629)" stroke="#074DB6" stroke-width="0.206134"/>
<path id="Rectangle 1690_7" d="M365.717 229.133L362.048 226.561C357.342 223.261 350.789 225.231 348.681 230.578L343.638 243.372C343.481 243.771 343.617 244.226 343.968 244.472L356.763 253.442C356.817 253.48 356.893 253.457 356.918 253.395L366.048 230.233C366.205 229.834 366.068 229.379 365.717 229.133Z" fill="url(#paint57_linear_3497_104629)" stroke="#074DB6" stroke-width="0.206134"/>
<path id="Rectangle 1685_16" d="M400.956 224.089L393.626 224.089L392.847 224.089C389.075 224.089 385.687 226.398 384.308 229.91L379.123 243.119C378.247 245.348 379.891 247.759 382.285 247.759C384.926 247.759 387.298 246.142 388.263 243.684L393.491 230.365C394.772 227.102 397.611 224.772 400.956 224.089Z" fill="url(#paint58_linear_3497_104629)" stroke="#074DB6" stroke-width="0.206134"/>
<path id="Rectangle 1691_7" d="M391.429 224.089L384.099 224.089L383.32 224.089C379.547 224.089 376.16 226.398 374.781 229.91L369.595 243.119C368.72 245.348 370.363 247.759 372.758 247.759C375.399 247.759 377.77 246.142 378.735 243.684L383.964 230.365C385.245 227.102 388.083 224.772 391.429 224.089Z" fill="#D5E9FF" stroke="#074DB6" stroke-width="0.206134"/>
<path id="Rectangle 1692_4" d="M382.494 224.089L375.165 224.089L374.05 224.089C370.318 224.089 366.958 226.35 365.553 229.807L360.223 242.914C359.282 245.229 360.985 247.759 363.483 247.759C366.187 247.759 368.622 246.121 369.641 243.615L375.075 230.25C376.378 227.045 379.19 224.763 382.494 224.089Z" fill="url(#paint59_linear_3497_104629)" stroke="#074DB6" stroke-width="0.206134"/>
<path id="Rectangle 1693_3" d="M373.335 224.089L366.005 224.089L365.226 224.089C361.454 224.089 358.066 226.398 356.687 229.91L351.501 243.119C350.626 245.348 352.27 247.759 354.664 247.759C357.305 247.759 359.677 246.142 360.642 243.684L365.87 230.365C367.151 227.102 369.99 224.772 373.335 224.089Z" fill="#D5E9FF" stroke="#074DB6" stroke-width="0.206134"/>
<path id="Rectangle 1694_3" d="M363.811 224.089L356.482 224.089L355.702 224.089C351.93 224.089 348.542 226.398 347.164 229.91L341.978 243.119C341.103 245.348 342.746 247.759 345.141 247.759C347.782 247.759 350.153 246.142 351.118 243.684L356.347 230.365C357.628 227.102 360.466 224.772 363.811 224.089Z" fill="url(#paint60_linear_3497_104629)" stroke="#074DB6" stroke-width="0.206134"/>
<g id="Group 1186_5">
<path id="Rectangle 1682_6" d="M328.375 316.186L361.7 316.186C365.307 316.186 368.566 314.013 369.947 310.681L386.977 269.584C388.184 266.671 386.043 263.466 382.89 263.466H352.859C347.467 263.466 342.599 266.695 340.502 271.662L324.299 310.041C323.067 312.957 325.209 316.186 328.375 316.186Z" fill="url(#paint61_linear_3497_104629)" stroke="#0061C2" stroke-width="0.140252"/>
<path id="Rectangle 1685_17" d="M326.893 313.855L360.298 313.855C363.882 313.855 367.115 311.702 368.497 308.395L385.197 268.435C386.406 265.542 384.281 262.35 381.145 262.35H348.061C344.5 262.35 341.282 264.477 339.887 267.754L322.853 307.743C321.619 310.639 323.744 313.855 326.893 313.855Z" fill="#EBF4FF" stroke="#0061C2" stroke-width="0.206134"/>
<path id="Rectangle 1687_5" d="M356.17 281.653H356.335C359.948 281.653 363.202 279.465 364.564 276.119L365.721 273.28C366.71 270.851 364.923 268.194 362.301 268.194H362.158C358.566 268.194 355.328 270.356 353.951 273.673L352.759 276.544C351.75 278.976 353.537 281.653 356.17 281.653Z" stroke="#7895F3" stroke-width="0.206134"/>
<path id="Rectangle 1688_7" d="M369.204 288.431C369.676 287.449 368.96 286.312 367.871 286.312L341.287 286.312C340.155 286.312 339.122 286.956 338.624 287.972V287.972C338.141 288.957 338.859 290.107 339.956 290.107L366.538 290.107C367.675 290.107 368.711 289.456 369.204 288.431V288.431Z" fill="#95CEFF"/>
<path id="Rectangle 1689_7" d="M368.446 295.264C368.918 294.282 368.202 293.144 367.113 293.144L335.215 293.144C334.083 293.144 333.05 293.788 332.552 294.805V294.805C332.069 295.79 332.786 296.94 333.884 296.94L365.78 296.94C366.917 296.94 367.953 296.288 368.446 295.264V295.264Z" fill="#95CEFF"/>
<path id="Rectangle 1686_8" d="M359.725 304.565C360.573 302.624 359.15 300.449 357.031 300.449L337.795 300.449C335.468 300.449 333.359 301.819 332.412 303.944V303.944C331.544 305.893 332.97 308.09 335.103 308.09L354.338 308.09C356.674 308.09 358.789 306.706 359.725 304.565V304.565Z" fill="#307FE2"/>
</g>
</g>
</g>
</g>
</g>
</g>
<defs>
<filter id="filter0_b_3497_104629" x="104.011" y="334.3" width="208.786" height="169.083" filterUnits="userSpaceOnUse" color-interpolation-filters="sRGB">
<feFlood flood-opacity="0" result="BackgroundImageFix"/>
<feGaussianBlur in="BackgroundImageFix" stdDeviation="0.131112"/>
<feComposite in2="SourceAlpha" operator="in" result="effect1_backgroundBlur_3497_104629"/>
<feBlend mode="normal" in="SourceGraphic" in2="effect1_backgroundBlur_3497_104629" result="shape"/>
</filter>
<filter id="filter1_b_3497_104629" x="101.757" y="328.738" width="199.267" height="158.284" filterUnits="userSpaceOnUse" color-interpolation-filters="sRGB">
<feFlood flood-opacity="0" result="BackgroundImageFix"/>
<feGaussianBlur in="BackgroundImageFix" stdDeviation="0.131112"/>
<feComposite in2="SourceAlpha" operator="in" result="effect1_backgroundBlur_3497_104629"/>
<feBlend mode="normal" in="SourceGraphic" in2="effect1_backgroundBlur_3497_104629" result="shape"/>
</filter>
<radialGradient id="paint0_angular_3497_104629" cx="0" cy="0" r="1" gradientUnits="userSpaceOnUse" gradientTransform="translate(284.5 211) rotate(136.711) scale(390.851 287.475)">
<stop stop-color="#0C2083"/>
<stop offset="0.286458" stop-color="#07134E"/>
<stop offset="0.666667" stop-color="#07134E"/>
<stop offset="0.838542" stop-color="#0C2083"/>
</radialGradient>
<linearGradient id="paint1_linear_3497_104629" x1="212.439" y1="0.526855" x2="212.439" y2="534.527" gradientUnits="userSpaceOnUse">
<stop stop-color="#E8EFFD"/>
<stop offset="1" stop-color="white"/>
</linearGradient>
<radialGradient id="paint2_radial_3497_104629" cx="0" cy="0" r="1" gradientUnits="userSpaceOnUse" gradientTransform="translate(-237.466 -293.861) rotate(50.9436) scale(1417.21 1603.39)">
<stop offset="0.09375" stop-color="#E8EFFD"/>
<stop offset="0.410829" stop-color="#D2DEFB"/>
<stop offset="1" stop-color="#4B6CEF"/>
</radialGradient>
<linearGradient id="paint3_linear_3497_104629" x1="-27" y1="-48.5" x2="360.044" y2="234.421" gradientUnits="userSpaceOnUse">
<stop stop-color="#E8EFFD"/>
<stop offset="1" stop-color="#F0F8FF" stop-opacity="0"/>
</linearGradient>
<linearGradient id="paint4_linear_3497_104629" x1="73.7475" y1="153.722" x2="-84.0717" y2="259.429" gradientUnits="userSpaceOnUse">
<stop stop-color="#1230C6"/>
<stop offset="1" stop-color="#BCC6F9"/>
</linearGradient>
<linearGradient id="paint5_linear_3497_104629" x1="58.1829" y1="268.99" x2="58.1829" y2="368.984" gradientUnits="userSpaceOnUse">
<stop stop-color="#FFEBDC"/>
<stop offset="1" stop-color="#FFFBF9"/>
</linearGradient>
<linearGradient id="paint6_linear_3497_104629" x1="70.4799" y1="327.887" x2="70.4799" y2="359.695" gradientUnits="userSpaceOnUse">
<stop stop-color="#E1721D"/>
<stop offset="1" stop-color="#FFB277"/>
</linearGradient>
<linearGradient id="paint7_linear_3497_104629" x1="47.8022" y1="284.649" x2="47.8022" y2="306.281" gradientUnits="userSpaceOnUse">
<stop stop-color="#E1721D"/>
<stop offset="1" stop-color="#FFB277"/>
</linearGradient>
<linearGradient id="paint8_linear_3497_104629" x1="29.0893" y1="260.649" x2="29.0893" y2="292.71" gradientUnits="userSpaceOnUse">
<stop stop-color="#E1721D"/>
<stop offset="1" stop-color="#FFB277"/>
</linearGradient>
<linearGradient id="paint9_linear_3497_104629" x1="71.9148" y1="262.183" x2="71.9148" y2="294.243" gradientUnits="userSpaceOnUse">
<stop stop-color="#E1721D"/>
<stop offset="1" stop-color="#FFB277"/>
</linearGradient>
<linearGradient id="paint10_linear_3497_104629" x1="37.4251" y1="266.037" x2="37.4251" y2="290.246" gradientUnits="userSpaceOnUse">
<stop stop-color="#FFD2B3"/>
<stop offset="1" stop-color="#FFB886"/>
</linearGradient>
<linearGradient id="paint11_linear_3497_104629" x1="55.0148" y1="266.037" x2="55.0148" y2="290.246" gradientUnits="userSpaceOnUse">
<stop stop-color="#FFD2B3"/>
<stop offset="1" stop-color="#FFB886"/>
</linearGradient>
<linearGradient id="paint12_linear_3497_104629" x1="72.7103" y1="266.037" x2="72.7103" y2="290.246" gradientUnits="userSpaceOnUse">
<stop stop-color="#FFD2B3"/>
<stop offset="1" stop-color="#FFB886"/>
</linearGradient>
<linearGradient id="paint13_linear_3497_104629" x1="72.4696" y1="303.477" x2="72.4696" y2="353.694" gradientUnits="userSpaceOnUse">
<stop stop-color="#E1721D"/>
<stop offset="1" stop-color="#FFB277"/>
</linearGradient>
<linearGradient id="paint14_linear_3497_104629" x1="209.512" y1="-93.7948" x2="14.7132" y2="30.0352" gradientUnits="userSpaceOnUse">
<stop stop-color="#1230C6"/>
<stop offset="1" stop-color="#BCC6F9"/>
</linearGradient>
<linearGradient id="paint15_linear_3497_104629" x1="182.726" y1="70.7314" x2="188.363" y2="109.231" gradientUnits="userSpaceOnUse">
<stop stop-color="#09A854"/>
<stop offset="1" stop-color="#54C981" stop-opacity="0.44"/>
</linearGradient>
<linearGradient id="paint16_linear_3497_104629" x1="154.884" y1="42.0889" x2="154.884" y2="84.635" gradientUnits="userSpaceOnUse">
<stop stop-color="#09A854"/>
<stop offset="1" stop-color="#54C981"/>
</linearGradient>
<linearGradient id="paint17_linear_3497_104629" x1="223.303" y1="41.9526" x2="223.303" y2="83.3124" gradientUnits="userSpaceOnUse">
<stop stop-color="#09A854"/>
<stop offset="1" stop-color="#54C981"/>
</linearGradient>
<linearGradient id="paint18_linear_3497_104629" x1="162.689" y1="41.1017" x2="168.119" y2="63.8116" gradientUnits="userSpaceOnUse">
<stop stop-color="#EBFFF3"/>
<stop offset="1" stop-color="#54C981"/>
</linearGradient>
<linearGradient id="paint19_linear_3497_104629" x1="190.208" y1="41.1017" x2="195.639" y2="63.8116" gradientUnits="userSpaceOnUse">
<stop stop-color="#EBFFF3"/>
<stop offset="1" stop-color="#54C981"/>
</linearGradient>
<linearGradient id="paint20_linear_3497_104629" x1="217.728" y1="41.1017" x2="223.158" y2="63.8116" gradientUnits="userSpaceOnUse">
<stop stop-color="#EBFFF3"/>
<stop offset="1" stop-color="#54C981"/>
</linearGradient>
<linearGradient id="paint21_linear_3497_104629" x1="158.656" y1="118.745" x2="173.866" y2="181.958" gradientUnits="userSpaceOnUse">
<stop stop-color="#09A854"/>
<stop offset="1" stop-color="#54C981" stop-opacity="0.44"/>
</linearGradient>
<linearGradient id="paint22_linear_3497_104629" x1="168.664" y1="82.0514" x2="187.27" y2="143.269" gradientUnits="userSpaceOnUse">
<stop stop-color="#09A854"/>
<stop offset="1" stop-color="#54C981" stop-opacity="0.44"/>
</linearGradient>
<linearGradient id="paint23_linear_3497_104629" x1="292.109" y1="-29.2153" x2="474.665" y2="86.0373" gradientUnits="userSpaceOnUse">
<stop stop-color="#1230C6"/>
<stop offset="1" stop-color="#BCC6F9"/>
</linearGradient>
<linearGradient id="paint24_linear_3497_104629" x1="306.469" y1="107.357" x2="306.469" y2="225.833" gradientUnits="userSpaceOnUse">
<stop stop-color="#FFEBDC"/>
<stop offset="1" stop-color="#FFFBF9"/>
</linearGradient>
<linearGradient id="paint25_linear_3497_104629" x1="315.405" y1="123.313" x2="315.405" y2="153.459" gradientUnits="userSpaceOnUse">
<stop stop-color="#E1721D"/>
<stop offset="1" stop-color="#FFB277"/>
</linearGradient>
<linearGradient id="paint26_linear_3497_104629" x1="341.339" y1="99.9209" x2="341.339" y2="137.907" gradientUnits="userSpaceOnUse">
<stop stop-color="#E1721D"/>
<stop offset="1" stop-color="#FFB277"/>
</linearGradient>
<linearGradient id="paint27_linear_3497_104629" x1="277.443" y1="99.0884" x2="277.443" y2="135.246" gradientUnits="userSpaceOnUse">
<stop stop-color="#E1721D"/>
<stop offset="1" stop-color="#FFB277"/>
</linearGradient>
<linearGradient id="paint28_linear_3497_104629" x1="331.094" y1="105.259" x2="331.094" y2="133.37" gradientUnits="userSpaceOnUse">
<stop stop-color="#FFD2B3"/>
<stop offset="1" stop-color="#FFB886"/>
</linearGradient>
<linearGradient id="paint29_linear_3497_104629" x1="305.489" y1="105.259" x2="305.489" y2="133.369" gradientUnits="userSpaceOnUse">
<stop stop-color="#FFD2B3"/>
<stop offset="1" stop-color="#FFB886"/>
</linearGradient>
<linearGradient id="paint30_linear_3497_104629" x1="280.268" y1="105" x2="280.268" y2="132.955" gradientUnits="userSpaceOnUse">
<stop stop-color="#E1721D"/>
<stop offset="1" stop-color="#FFB277"/>
</linearGradient>
<linearGradient id="paint31_linear_3497_104629" x1="280.268" y1="105" x2="280.268" y2="132.955" gradientUnits="userSpaceOnUse">
<stop stop-color="#FFD2B3"/>
<stop offset="1" stop-color="#FFB886"/>
</linearGradient>
<linearGradient id="paint32_linear_3497_104629" x1="301.259" y1="116.689" x2="310.251" y2="200.763" gradientUnits="userSpaceOnUse">
<stop stop-color="#E1721D"/>
<stop offset="1" stop-color="#FFB277"/>
</linearGradient>
<linearGradient id="paint33_linear_3497_104629" x1="297.83" y1="150.368" x2="297.83" y2="209.867" gradientUnits="userSpaceOnUse">
<stop stop-color="#E1721D"/>
<stop offset="1" stop-color="#FFB277"/>
</linearGradient>
<linearGradient id="paint34_linear_3497_104629" x1="302.122" y1="153.385" x2="332.222" y2="195.907" gradientUnits="userSpaceOnUse">
<stop stop-color="#E1721D"/>
<stop offset="1" stop-color="#FFB277"/>
</linearGradient>
<linearGradient id="paint35_linear_3497_104629" x1="306.103" y1="134.855" x2="336.203" y2="177.376" gradientUnits="userSpaceOnUse">
<stop stop-color="#E1721D"/>
<stop offset="1" stop-color="#FFB277"/>
</linearGradient>
<linearGradient id="paint36_linear_3497_104629" x1="343.916" y1="153.843" x2="343.916" y2="165.636" gradientUnits="userSpaceOnUse">
<stop stop-color="#E1721D"/>
<stop offset="1" stop-color="#FFB277"/>
</linearGradient>
<linearGradient id="paint37_linear_3497_104629" x1="339.111" y1="171.001" x2="339.111" y2="182.794" gradientUnits="userSpaceOnUse">
<stop stop-color="#E1721D"/>
<stop offset="1" stop-color="#FFB277"/>
</linearGradient>
<linearGradient id="paint38_linear_3497_104629" x1="283.782" y1="149.996" x2="283.782" y2="190.934" gradientUnits="userSpaceOnUse">
<stop stop-color="#E1721D"/>
<stop offset="1" stop-color="#FFB277"/>
</linearGradient>
<linearGradient id="paint39_linear_3497_104629" x1="279.966" y1="141.859" x2="279.966" y2="186.549" gradientUnits="userSpaceOnUse">
<stop stop-color="#E1721D"/>
<stop offset="1" stop-color="#FFB277"/>
</linearGradient>
<linearGradient id="paint40_linear_3497_104629" x1="243.106" y1="492.669" x2="129.763" y2="518.986" gradientUnits="userSpaceOnUse">
<stop stop-color="#0A1A69"/>
<stop offset="1" stop-color="#1230C6"/>
</linearGradient>
<linearGradient id="paint41_linear_3497_104629" x1="219.087" y1="329" x2="219.087" y2="486.759" gradientUnits="userSpaceOnUse">
<stop stop-color="#0C2083"/>
<stop offset="1" stop-color="#3554EC"/>
</linearGradient>
<linearGradient id="paint42_linear_3497_104629" x1="204.427" y1="329" x2="213.169" y2="430.544" gradientUnits="userSpaceOnUse">
<stop stop-color="white"/>
<stop offset="1" stop-color="white" stop-opacity="0"/>
</linearGradient>
<linearGradient id="paint43_linear_3497_104629" x1="243.686" y1="329" x2="256.56" y2="429.65" gradientUnits="userSpaceOnUse">
<stop stop-color="white"/>
<stop offset="1" stop-color="white" stop-opacity="0"/>
</linearGradient>
<linearGradient id="paint44_linear_3497_104629" x1="109.25" y1="35.7543" x2="-39.2461" y2="129.363" gradientUnits="userSpaceOnUse">
<stop stop-color="#1230C6"/>
<stop offset="1" stop-color="#BCC6F9"/>
</linearGradient>
<linearGradient id="paint45_linear_3497_104629" x1="97.5819" y1="146.919" x2="97.5819" y2="243.353" gradientUnits="userSpaceOnUse">
<stop stop-color="#FFEBDC"/>
<stop offset="1" stop-color="#FFFBF9"/>
</linearGradient>
<linearGradient id="paint46_linear_3497_104629" x1="103.642" y1="133.114" x2="94.6335" y2="227.847" gradientUnits="userSpaceOnUse">
<stop stop-color="#D93535"/>
<stop offset="1" stop-color="#EE6262" stop-opacity="0.51"/>
</linearGradient>
<linearGradient id="paint47_linear_3497_104629" x1="69.2416" y1="140.867" x2="69.2416" y2="171.271" gradientUnits="userSpaceOnUse">
<stop stop-color="#D93535"/>
<stop offset="1" stop-color="#EE6262"/>
</linearGradient>
<linearGradient id="paint48_linear_3497_104629" x1="121.169" y1="140.189" x2="121.169" y2="169.62" gradientUnits="userSpaceOnUse">
<stop stop-color="#D93535"/>
<stop offset="1" stop-color="#EE6262"/>
</linearGradient>
<linearGradient id="paint49_linear_3497_104629" x1="77.5664" y1="145.212" x2="80.3908" y2="160.493" gradientUnits="userSpaceOnUse">
<stop stop-color="#FFAEB2"/>
<stop offset="1" stop-color="#EF6262"/>
</linearGradient>
<linearGradient id="paint50_linear_3497_104629" x1="98.375" y1="145.212" x2="101.199" y2="160.493" gradientUnits="userSpaceOnUse">
<stop stop-color="#FFAEB2"/>
<stop offset="1" stop-color="#EF6262"/>
</linearGradient>
<linearGradient id="paint51_linear_3497_104629" x1="118.873" y1="145" x2="118.873" y2="167.754" gradientUnits="userSpaceOnUse">
<stop stop-color="#E1721D"/>
<stop offset="1" stop-color="#FFB277"/>
</linearGradient>
<linearGradient id="paint52_linear_3497_104629" x1="118.873" y1="145" x2="121.459" y2="160.278" gradientUnits="userSpaceOnUse">
<stop stop-color="#FFAEB2"/>
<stop offset="1" stop-color="#EF6262"/>
</linearGradient>
<linearGradient id="paint53_linear_3497_104629" x1="353.845" y1="105.761" x2="519.97" y2="217.03" gradientUnits="userSpaceOnUse">
<stop stop-color="#1230C6"/>
<stop offset="1" stop-color="#BCC6F9"/>
</linearGradient>
<linearGradient id="paint54_linear_3497_104629" x1="361.151" y1="267.844" x2="361.151" y2="319.555" gradientUnits="userSpaceOnUse">
<stop stop-color="#074DB6"/>
<stop offset="1" stop-color="#074DB6" stop-opacity="0.54"/>
</linearGradient>
<linearGradient id="paint55_linear_3497_104629" x1="383.293" y1="230.618" x2="383.293" y2="265.787" gradientUnits="userSpaceOnUse">
<stop stop-color="#074DB6"/>
<stop offset="1" stop-color="#074DB6" stop-opacity="0.54"/>
</linearGradient>
<linearGradient id="paint56_linear_3497_104629" x1="394.752" y1="240.329" x2="411.519" y2="220.168" gradientUnits="userSpaceOnUse">
<stop stop-color="#65A5F5"/>
<stop offset="1" stop-color="#D4E9FF"/>
</linearGradient>
<linearGradient id="paint57_linear_3497_104629" x1="350.003" y1="241.214" x2="365.915" y2="220.404" gradientUnits="userSpaceOnUse">
<stop stop-color="#65A5F5"/>
<stop offset="1" stop-color="#D4E9FF"/>
</linearGradient>
<linearGradient id="paint58_linear_3497_104629" x1="384.919" y1="239.045" x2="393.908" y2="219.944" gradientUnits="userSpaceOnUse">
<stop stop-color="#65A5F5"/>
<stop offset="1" stop-color="#D4E9FF"/>
</linearGradient>
<linearGradient id="paint59_linear_3497_104629" x1="366.147" y1="239.045" x2="374.934" y2="219.706" gradientUnits="userSpaceOnUse">
<stop stop-color="#65A5F5"/>
<stop offset="1" stop-color="#D4E9FF"/>
</linearGradient>
<linearGradient id="paint60_linear_3497_104629" x1="347.775" y1="239.045" x2="356.764" y2="219.944" gradientUnits="userSpaceOnUse">
<stop stop-color="#65A5F5"/>
<stop offset="1" stop-color="#D4E9FF"/>
</linearGradient>
<linearGradient id="paint61_linear_3497_104629" x1="350.11" y1="207.687" x2="433.608" y2="290.55" gradientUnits="userSpaceOnUse">
<stop stop-color="#0061C2"/>
<stop offset="1" stop-color="#C6E5FF"/>
</linearGradient>
<clipPath id="clip0_3497_104629">
<rect width="424.878" height="534" rx="35.2393" fill="white"/>
</clipPath>
<clipPath id="clip1_3497_104629">
<rect width="108.061" height="129" fill="white" transform="matrix(-1 0 0 1 359.543 105)"/>
</clipPath>
<clipPath id="clip2_3497_104629">
<rect width="87.8246" height="105" fill="white" transform="translate(55 145)"/>
</clipPath>
</defs>
</svg>
