<svg width="425" height="534" viewBox="0 0 425 534" fill="none" xmlns="http://www.w3.org/2000/svg">
<g clip-path="url(#clip0_3488_105655)">
<path d="M0 212.966C0 95.6391 95.1123 0.526855 212.439 0.526855C329.766 0.526855 424.878 95.6391 424.878 212.966V532.205C424.878 533.487 423.839 534.527 422.557 534.527H2.32174C1.03948 534.527 0 533.487 0 532.205V212.966Z" fill="url(#paint0_radial_3488_105655)"/>
<path d="M0 212.966C0 95.6391 95.1123 0.526855 212.439 0.526855C329.766 0.526855 424.878 95.6391 424.878 212.966V532.205C424.878 533.487 423.839 534.527 422.557 534.527H2.32174C1.03948 534.527 0 533.487 0 532.205V212.966Z" fill="url(#paint1_radial_3488_105655)"/>
<path d="M0.00390625 212.965C0.00390625 95.6386 95.1162 0.526367 212.443 0.526367C329.77 0.526367 424.882 95.6386 424.882 212.965V532.205C424.882 533.487 423.843 534.526 422.56 534.526H2.32565C1.04339 534.526 0.00390625 533.487 0.00390625 532.205V212.965Z" fill="url(#paint2_linear_3488_105655)"/>
<path d="M300.176 444.474L300.176 444.474L300.185 444.478C300.328 444.533 300.459 444.556 300.572 444.556L304.088 444.556C304.192 444.556 304.28 444.536 304.352 444.504L318.773 437.098L318.781 437.094L318.789 437.09C318.982 437 319.134 436.778 319.134 436.388C319.134 435.999 318.972 435.514 318.616 435.084L301.212 414.06C300.967 413.764 300.675 413.555 300.398 413.453L201.611 377.008C201.475 376.958 201.35 376.936 201.242 376.936L199.231 376.937C199.013 376.937 198.865 377.021 198.768 377.15C198.665 377.288 198.589 377.522 198.625 377.856L201.833 407.527C201.912 408.262 202.487 409.017 203.134 409.268C203.135 409.269 203.136 409.269 203.138 409.27L300.176 444.474Z" fill="url(#paint3_linear_3488_105655)" stroke="#798DF3" stroke-width="1.00522"/>
<path d="M204.803 405.974C204.803 406.341 204.946 406.753 205.2 407.118C205.453 407.482 205.791 407.758 206.135 407.885L303.541 443.82C303.818 443.922 304.036 443.904 304.18 443.836L321.584 435.654C321.777 435.563 321.929 435.342 321.929 434.951C321.929 434.562 321.766 434.077 321.411 433.647L304.007 412.623C303.762 412.327 303.47 412.119 303.193 412.016L205.788 376.081C205.449 375.957 205.213 376.011 205.075 376.108C204.936 376.204 204.803 376.407 204.803 376.767V405.974Z" fill="url(#paint4_linear_3488_105655)" stroke="#798DF3" stroke-width="1.00522"/>
<path d="M192.784 250.496C192.784 245.777 196.609 241.951 201.328 241.951C206.047 241.951 209.873 245.777 209.873 250.496V630.972H192.784V250.496Z" fill="#FFDBFC" stroke="#798DF3" stroke-width="1.00522"/>
<path d="M204.846 305.837H208.867V326.946L207.514 323.699C205.753 319.472 204.846 314.939 204.846 310.36V305.837Z" fill="url(#paint5_linear_3488_105655)" stroke="#798DF3" stroke-width="1.00522"/>
<path d="M193.788 362.267V321.255L198.996 322.123L208.84 339.643V394.542L193.788 362.267Z" fill="url(#paint6_linear_3488_105655)" stroke="#798DF3" stroke-width="1.00522"/>
<path d="M316.852 241.567L317.066 241.113L316.852 241.567L335.969 250.555C336.197 250.662 336.366 250.921 336.366 251.354C336.366 251.787 336.187 252.322 335.795 252.795L316.931 275.584C316.661 275.909 316.339 276.141 316.03 276.254L208.951 315.758C208.799 315.814 208.659 315.839 208.536 315.839L206.356 315.839C206.107 315.839 205.934 315.741 205.821 315.59C205.701 315.43 205.617 315.165 205.657 314.796L209.134 282.634C209.222 281.82 209.858 280.986 210.576 280.71L312.295 241.591C312.455 241.529 312.602 241.503 312.73 241.503L316.541 241.503C316.664 241.503 316.767 241.527 316.852 241.567Z" fill="url(#paint7_linear_3488_105655)" stroke="#798DF3" stroke-width="1.00522"/>
<path d="M204.53 283.082C204.53 282.675 204.688 282.219 204.967 281.819C205.246 281.418 205.619 281.112 206.001 280.971L311.584 242.02C311.892 241.906 312.141 241.924 312.309 242.003L331.174 250.873C331.402 250.98 331.572 251.239 331.572 251.673C331.572 252.105 331.392 252.64 331.001 253.113L312.136 275.902C311.866 276.228 311.544 276.459 311.236 276.572L205.653 315.524C205.277 315.663 205.006 315.605 204.842 315.491C204.678 315.377 204.53 315.142 204.53 314.741V283.082Z" fill="#FFDBFC" stroke="#798DF3" stroke-width="1.00522"/>
<line x1="336.418" y1="251.927" x2="331.621" y2="251.927" stroke="#798DF3" stroke-width="1.00522"/>
<path d="M194.268 323.468C194.163 322.495 193.406 321.501 192.545 321.17L74.5389 275.787C74.346 275.713 74.1656 275.68 74.0056 275.68L69.5841 275.68C69.4314 275.68 69.2996 275.71 69.1893 275.762L47.0123 286.189C46.7108 286.331 46.5045 286.666 46.5045 287.189C46.5045 287.712 46.7209 288.35 47.1856 288.912L69.0705 315.349C69.3911 315.736 69.7759 316.014 70.1491 316.152L194.373 361.98C194.557 362.048 194.729 362.079 194.882 362.079L197.411 362.078C197.724 362.078 197.949 361.954 198.096 361.758C198.25 361.553 198.35 361.224 198.302 360.779L194.268 323.468Z" fill="#FFDBFC" stroke="#798DF3" stroke-width="1.00522"/>
<path d="M199.611 323.998C199.611 323.505 199.421 322.961 199.089 322.486C198.758 322.01 198.313 321.643 197.851 321.473L75.3642 276.285C74.9913 276.148 74.68 276.166 74.4603 276.269L52.5754 286.559C52.2739 286.7 52.0676 287.035 52.0676 287.559C52.0676 288.081 52.284 288.72 52.7487 289.281L74.6336 315.719C74.9542 316.106 75.3389 316.383 75.7121 316.521L198.199 361.709C198.655 361.877 198.998 361.811 199.214 361.661C199.43 361.51 199.611 361.211 199.611 360.725V323.998Z" fill="url(#paint8_linear_3488_105655)" stroke="#798DF3" stroke-width="1.00522"/>
<line y1="-0.502611" x2="5.56472" y2="-0.502611" transform="matrix(1 1.04907e-07 1.04907e-07 -1 46.5273 287.271)" stroke="#798DF3" stroke-width="1.00522"/>
<path d="M392.54 319.143C393.195 318.683 393.77 318.105 394.127 317.39C396.044 313.553 394.782 310.501 390.864 308.443C386.621 306.214 368.624 311.395 368.395 311.461C368.388 311.463 368.388 311.462 368.381 311.465C367.861 311.639 369.565 314.147 370.029 314.261C370.199 315.73 372.273 318.179 374.425 317.704C375.224 319.192 377.277 320.06 379.278 319.431C380.532 320.785 382.43 320.145 384.829 319.356L384.663 323.265C384.549 324.614 385.868 324.617 386.72 323.433C386.881 323.209 387.059 322.993 387.285 322.835L392.54 319.143Z" fill="url(#paint9_linear_3488_105655)"/>
<path d="M370.029 314.261C369.565 314.147 367.861 311.639 368.381 311.465C368.388 311.462 368.388 311.463 368.395 311.461C368.624 311.395 386.621 306.214 390.864 308.443C394.782 310.501 396.044 313.553 394.127 317.39C393.77 318.105 393.195 318.683 392.54 319.143L387.285 322.835C387.059 322.993 386.881 323.209 386.72 323.433C385.868 324.617 384.549 324.614 384.663 323.265L384.829 319.356C382.43 320.145 380.532 320.785 379.278 319.431M370.029 314.261C370.199 315.73 372.273 318.179 374.425 317.704M370.029 314.261C376.573 311.821 380.725 310.001 385.813 309.858M374.425 317.704C375.224 319.192 377.277 320.06 379.278 319.431M374.425 317.704C379.201 314.685 380.785 313.215 385.529 311.971M379.278 319.431C382.272 317.276 381.867 316.066 385.507 314.665" stroke="#798DF3" stroke-linecap="round"/>
<path d="M368.08 340.071L365.194 315.51L386.291 317.319L389.177 341.88L368.08 340.071Z" fill="url(#paint10_linear_3488_105655)" stroke="#D19000" stroke-width="0.149103"/>
<path d="M347.763 346.906L344.957 322.615L365.157 315.581L367.962 339.872L347.763 346.906Z" fill="#FFEDCE" stroke="#D19000" stroke-width="0.209635"/>
<path d="M368.241 348.885L347.728 346.896L368.066 339.813L388.578 341.802L368.241 348.885Z" fill="url(#paint11_linear_3488_105655)" stroke="#D19000" stroke-width="0.209635"/>
<path d="M379.245 316.745L380.934 331.207L378.256 329.286L378.205 329.25L378.149 329.277L375.102 330.753L373.408 316.245L379.245 316.745Z" fill="#F3B344" stroke="#D19000" stroke-width="0.209635"/>
<path d="M356.885 309.88C354.815 305.099 352.45 301.292 346.131 302.698C339.962 304.07 321.596 316.973 320.723 317.588C320.695 317.607 320.672 317.616 320.648 317.64C320.227 318.048 324.625 319.596 325.385 319.514C326.837 320.791 331.885 322.196 334.653 320.89C337.043 321.93 340.765 321.895 343.186 320.509C346.134 321.243 349.163 320.782 352.035 319.088L357.06 322.23C358.976 323.287 360.772 322.5 360.929 320.956C360.949 320.763 360.904 320.57 360.836 320.388L356.885 309.88Z" fill="url(#paint12_linear_3488_105655)"/>
<path d="M352.035 319.088L357.06 322.23C358.976 323.287 360.772 322.5 360.929 320.956C360.949 320.763 360.904 320.57 360.836 320.388L356.885 309.88C354.815 305.099 352.45 301.292 346.131 302.698C339.962 304.07 321.596 316.973 320.723 317.588C320.695 317.607 320.672 317.616 320.648 317.64C320.227 318.048 324.625 319.596 325.385 319.514M352.035 319.088C349.163 320.782 346.134 321.243 343.186 320.509M352.035 319.088C352.927 318.563 353.122 314.754 352.563 312.934M325.385 319.514C326.837 320.791 331.885 322.196 334.653 320.89M325.385 319.514C331.228 318.115 336.753 315.653 343.193 308.706M334.653 320.89C337.043 321.93 340.765 321.895 343.186 320.509M334.653 320.89C341.064 317.618 344.754 315.457 347.078 309.984M343.186 320.509C346.236 319.801 348.958 315.814 349.75 312.693" stroke="#798DF3" stroke-linecap="round"/>
<path d="M312.396 324.121C312.686 323.917 312.942 323.66 313.101 323.342C313.953 321.636 313.392 320.28 311.651 319.365C309.764 318.374 301.764 320.677 301.662 320.706C301.659 320.707 301.659 320.707 301.656 320.708C301.425 320.786 302.182 321.901 302.389 321.951C302.464 322.604 303.386 323.693 304.343 323.482C304.698 324.143 305.61 324.529 306.5 324.249C307.057 324.851 307.901 324.567 308.967 324.216L308.894 325.954C308.843 326.553 309.43 326.555 309.808 326.028C309.88 325.929 309.959 325.833 310.059 325.763L312.396 324.121Z" fill="url(#paint13_linear_3488_105655)"/>
<path d="M302.389 321.951C302.182 321.901 301.425 320.786 301.656 320.708C301.659 320.707 301.659 320.707 301.662 320.706C301.764 320.677 309.764 318.374 311.651 319.365C313.392 320.28 313.953 321.636 313.101 323.342C312.942 323.66 312.686 323.917 312.396 324.121L310.059 325.763C309.959 325.833 309.88 325.929 309.808 326.028C309.43 326.555 308.843 326.553 308.894 325.954L308.967 324.216C307.901 324.567 307.057 324.851 306.5 324.249M302.389 321.951C302.464 322.604 303.386 323.693 304.343 323.482M302.389 321.951C305.298 320.867 307.143 320.058 309.405 319.994M304.343 323.482C304.698 324.143 305.61 324.529 306.5 324.249M304.343 323.482C306.466 322.14 307.17 321.486 309.279 320.933M306.5 324.249C307.831 323.292 307.651 322.753 309.269 322.131" stroke="#798DF3" stroke-linecap="round"/>
<path d="M301.588 333.358L300.322 322.586L309.555 323.378L310.821 334.15L301.588 333.358Z" fill="url(#paint14_linear_3488_105655)" stroke="#D19000" stroke-width="0.209635"/>
<path d="M292.539 336.384L291.306 325.705L300.172 322.617L301.406 333.297L292.539 336.384Z" fill="#FFEDCE" stroke="#D19000" stroke-width="0.209635"/>
<path d="M301.587 337.284L292.745 336.427L301.523 333.369L310.365 334.226L301.587 337.284Z" fill="url(#paint15_linear_3488_105655)" stroke="#D19000" stroke-width="0.209635"/>
<path d="M306.484 323.056L307.234 329.485L306.044 328.631L306.021 328.615L305.996 328.627L304.642 329.283L303.889 322.834L306.484 323.056Z" fill="#F3B344" stroke="#D19000" stroke-width="0.0931899"/>
<path d="M296.546 320.004C295.626 317.878 294.575 316.186 291.766 316.811C289.024 317.421 280.859 323.157 280.471 323.43C280.459 323.439 280.449 323.443 280.438 323.453C280.251 323.635 282.206 324.323 282.544 324.286C283.189 324.854 285.433 325.479 286.664 324.898C287.726 325.36 289.381 325.345 290.457 324.729C291.767 325.055 293.114 324.85 294.391 324.097L296.624 325.494C297.476 325.964 298.274 325.614 298.344 324.927C298.353 324.842 298.333 324.756 298.303 324.675L296.546 320.004Z" fill="url(#paint16_linear_3488_105655)"/>
<path d="M294.391 324.097L296.624 325.494C297.476 325.964 298.274 325.614 298.344 324.927C298.353 324.842 298.333 324.756 298.303 324.675L296.546 320.004C295.626 317.878 294.575 316.186 291.766 316.811C289.024 317.421 280.859 323.157 280.471 323.43C280.459 323.439 280.449 323.443 280.438 323.453C280.251 323.635 282.206 324.323 282.544 324.286M294.391 324.097C293.114 324.85 291.767 325.055 290.457 324.729M294.391 324.097C294.787 323.864 294.874 322.171 294.625 321.361M282.544 324.286C283.189 324.854 285.433 325.479 286.664 324.898M282.544 324.286C285.141 323.664 287.597 322.57 290.46 319.482M286.664 324.898C287.726 325.36 289.381 325.345 290.457 324.729M286.664 324.898C289.513 323.444 291.154 322.483 292.187 320.05M290.457 324.729C291.812 324.414 293.023 322.642 293.375 321.254" stroke="#798DF3" stroke-linecap="round"/>
<path d="M283.515 350.439C283.704 350.306 283.871 350.14 283.974 349.933C284.527 348.824 284.163 347.943 283.031 347.348C281.806 346.705 276.607 348.201 276.541 348.22C276.538 348.221 276.539 348.221 276.537 348.221C276.386 348.272 276.879 348.996 277.013 349.029C277.062 349.453 277.661 350.161 278.283 350.024C278.513 350.453 279.106 350.704 279.685 350.522C280.047 350.914 280.595 350.729 281.288 350.501L281.24 351.63C281.207 352.02 281.588 352.02 281.834 351.678C281.881 351.614 281.932 351.552 281.997 351.506L283.515 350.439Z" fill="url(#paint17_linear_3488_105655)"/>
<path d="M277.013 349.029C276.879 348.996 276.386 348.272 276.537 348.221C276.539 348.221 276.538 348.221 276.541 348.22C276.607 348.201 281.806 346.705 283.031 347.348C284.163 347.943 284.527 348.824 283.974 349.933C283.871 350.14 283.704 350.306 283.515 350.439L281.997 351.506C281.932 351.552 281.881 351.614 281.834 351.678C281.588 352.02 281.207 352.02 281.24 351.63L281.288 350.501C280.595 350.729 280.047 350.914 279.685 350.522M277.013 349.029C277.062 349.453 277.661 350.161 278.283 350.024M277.013 349.029C278.903 348.324 280.102 347.798 281.572 347.757M278.283 350.024C278.513 350.453 279.106 350.704 279.685 350.522M278.283 350.024C279.662 349.151 280.12 348.727 281.49 348.368M279.685 350.522C280.549 349.9 280.432 349.55 281.484 349.146" stroke="#798DF3" stroke-linecap="round"/>
<path d="M276.527 356.408L275.713 349.482L281.638 349.99L282.452 356.916L276.527 356.408Z" fill="url(#paint18_linear_3488_105655)" stroke="#D19000" stroke-width="0.209635"/>
<path d="M270.646 358.359L269.853 351.493L275.544 349.512L276.336 356.377L270.646 358.359Z" fill="#FFEDCE" stroke="#D19000" stroke-width="0.209635"/>
<path d="M276.487 358.955L270.916 358.415L276.454 356.486L282.025 357.026L276.487 358.955Z" fill="url(#paint19_linear_3488_105655)" stroke="#D19000" stroke-width="0.209635"/>
<path d="M279.674 349.747L280.161 353.924L279.388 353.369L279.373 353.359L279.357 353.367L278.477 353.793L277.988 349.602L279.674 349.747Z" fill="#F3B344" stroke="#D19000" stroke-width="0.0605574"/>
<path d="M273.217 347.763C272.619 346.382 271.936 345.282 270.11 345.688C268.329 346.085 263.023 349.812 262.771 349.99C262.763 349.995 262.756 349.998 262.749 350.005C262.627 350.123 263.898 350.57 264.118 350.546C264.537 350.915 265.995 351.321 266.795 350.944C267.485 351.244 268.56 351.234 269.26 350.834C270.111 351.046 270.986 350.912 271.816 350.423L273.268 351.331C273.821 351.636 274.34 351.409 274.385 350.963C274.391 350.907 274.378 350.851 274.358 350.799L273.217 347.763Z" fill="url(#paint20_linear_3488_105655)"/>
<path d="M271.816 350.423L273.268 351.331C273.821 351.636 274.34 351.409 274.385 350.963C274.391 350.907 274.378 350.851 274.358 350.799L273.217 347.763C272.619 346.382 271.936 345.282 270.11 345.688C268.329 346.085 263.023 349.812 262.771 349.99C262.763 349.995 262.756 349.998 262.749 350.005C262.627 350.123 263.898 350.57 264.118 350.546M271.816 350.423C270.986 350.912 270.111 351.046 269.26 350.834M271.816 350.423C272.073 350.272 272.13 349.171 271.969 348.646M264.118 350.546C264.537 350.915 265.995 351.321 266.795 350.944M264.118 350.546C265.806 350.142 267.401 349.431 269.262 347.424M266.795 350.944C267.485 351.244 268.56 351.234 269.26 350.834M266.795 350.944C268.647 349.999 269.713 349.374 270.384 347.793M269.26 350.834C270.141 350.629 270.927 349.477 271.156 348.576" stroke="#798DF3" stroke-linecap="round"/>
<path d="M345.977 364.854C346.443 364.527 346.852 364.116 347.106 363.608C348.469 360.878 347.572 358.708 344.785 357.244C341.767 355.659 328.967 359.343 328.804 359.39C328.799 359.392 328.799 359.392 328.794 359.393C328.424 359.517 329.636 361.301 329.966 361.382C330.087 362.427 331.562 364.169 333.093 363.831C333.661 364.889 335.121 365.506 336.545 365.059C337.436 366.022 338.786 365.567 340.492 365.006L340.374 367.787C340.293 368.745 341.232 368.748 341.838 367.906C341.952 367.746 342.079 367.593 342.24 367.48L345.977 364.854Z" fill="url(#paint21_linear_3488_105655)"/>
<path d="M329.966 361.382C329.636 361.301 328.424 359.517 328.794 359.393C328.799 359.392 328.799 359.392 328.804 359.39C328.967 359.343 341.767 355.659 344.785 357.244C347.572 358.708 348.469 360.878 347.106 363.608C346.852 364.116 346.443 364.527 345.977 364.854L342.24 367.48C342.079 367.593 341.952 367.746 341.838 367.906C341.232 368.748 340.293 368.745 340.374 367.787L340.492 365.006C338.786 365.567 337.436 366.022 336.545 365.059M329.966 361.382C330.087 362.427 331.562 364.169 333.093 363.831M329.966 361.382C334.621 359.647 337.574 358.352 341.192 358.251M333.093 363.831C333.661 364.889 335.121 365.506 336.545 365.059M333.093 363.831C336.49 361.683 337.616 360.638 340.991 359.754M336.545 365.059C338.674 363.527 338.386 362.666 340.975 361.669" stroke="#798DF3" stroke-linecap="round"/>
<path d="M328.632 379.692L326.592 362.328L341.492 363.606L343.532 380.97L328.632 379.692Z" fill="url(#paint22_linear_3488_105655)" stroke="#D19000" stroke-width="0.209635"/>
<path d="M314.155 384.56L312.167 367.345L326.475 362.362L328.463 379.577L314.155 384.56Z" fill="#FFEDCE" stroke="#D19000" stroke-width="0.209635"/>
<path d="M328.693 385.978L314.247 384.577L328.576 379.587L343.021 380.988L328.693 385.978Z" fill="url(#paint23_linear_3488_105655)" stroke="#D19000" stroke-width="0.209635"/>
<path d="M336.525 363.149L337.726 373.435L335.822 372.069L335.786 372.043L335.746 372.062L333.579 373.112L332.374 362.793L336.525 363.149Z" fill="#F3B344" stroke="#D19000" stroke-width="0.149103"/>
<path d="M320.62 358.266C319.148 354.865 317.466 352.157 312.972 353.158C308.584 354.134 295.521 363.311 294.901 363.748C294.881 363.762 294.864 363.769 294.847 363.785C294.547 364.076 297.676 365.176 298.216 365.118C299.249 366.026 302.839 367.026 304.808 366.097C306.508 366.837 309.155 366.812 310.877 365.826C312.974 366.348 315.128 366.02 317.171 364.816L320.745 367.05C322.108 367.802 323.385 367.242 323.497 366.144C323.511 366.006 323.479 365.869 323.431 365.74L320.62 358.266Z" fill="url(#paint24_linear_3488_105655)"/>
<path d="M317.171 364.816L320.745 367.05C322.108 367.802 323.385 367.242 323.497 366.144C323.511 366.006 323.479 365.869 323.431 365.74L320.62 358.266C319.148 354.865 317.466 352.157 312.972 353.158C308.584 354.134 295.521 363.311 294.901 363.748C294.881 363.762 294.864 363.769 294.847 363.785C294.547 364.076 297.676 365.176 298.216 365.118M317.171 364.816C315.128 366.02 312.974 366.348 310.877 365.826M317.171 364.816C317.805 364.442 317.944 361.733 317.547 360.438M298.216 365.118C299.249 366.026 302.839 367.026 304.808 366.097M298.216 365.118C302.372 364.123 306.301 362.372 310.882 357.431M304.808 366.097C306.508 366.837 309.155 366.812 310.877 365.826M304.808 366.097C309.368 363.77 311.993 362.232 313.645 358.34M310.877 365.826C313.046 365.323 314.983 362.486 315.546 360.267" stroke="#798DF3" stroke-linecap="round"/>
<path d="M181.399 158.532C181.023 157.881 180.762 157.161 180.741 156.41C180.628 152.381 182.911 150.281 187.064 150.079C191.562 149.861 204.844 161.402 205.013 161.549C205.018 161.554 205.018 161.553 205.023 161.558C205.398 161.913 202.952 163.375 202.512 163.288C201.785 164.472 199.049 165.737 197.403 164.48C196.133 165.431 194.04 165.358 192.584 164.029C190.98 164.687 189.616 163.389 187.885 161.767L186.478 165.164C186.041 166.358 184.915 165.838 184.659 164.492C184.61 164.237 184.544 163.983 184.414 163.759L181.399 158.532Z" fill="url(#paint25_linear_3488_105655)"/>
<path d="M202.512 163.288C202.952 163.375 205.398 161.913 205.023 161.558C205.018 161.553 205.018 161.554 205.013 161.549C204.844 161.402 191.562 149.861 187.064 150.079C182.911 150.281 180.628 152.381 180.741 156.41C180.762 157.161 181.023 157.881 181.399 158.532L184.414 163.759C184.544 163.983 184.61 164.237 184.659 164.492C184.915 165.838 186.041 166.358 186.478 165.164L187.885 161.767C189.616 163.389 190.98 164.687 192.584 164.029M202.512 163.288C201.785 164.472 199.049 165.737 197.403 164.48M202.512 163.288C197.903 158.617 195.086 155.422 190.808 153.286M197.403 164.48C196.133 165.431 194.04 165.358 192.584 164.029M197.403 164.48C194.53 160.017 193.762 158.137 190.212 155.198M192.584 164.029C190.887 161.009 191.711 160.137 189.165 157.502" stroke="#798DF3" stroke-linecap="round"/>
<path d="M198.752 180.764L203.414 158.06H183.578L178.915 180.764H198.752Z" fill="#FFEDCE" stroke="#D19000" stroke-width="0.196965"/>
<path d="M217.249 188.823L221.825 166.309L203.481 158.102L198.905 180.616L217.249 188.823Z" fill="url(#paint26_linear_3488_105655)" stroke="#D19000" stroke-width="0.196965"/>
<path d="M197.919 189.031L217.28 188.816L198.811 180.552L179.449 180.767L197.919 189.031Z" fill="url(#paint27_linear_3488_105655)" stroke="#D19000" stroke-width="0.196965"/>
<path d="M190.199 158.06L187.457 171.463L190.118 169.879L190.169 169.849L190.219 169.879L192.953 171.506L195.704 158.06H190.199Z" fill="#F3B344" stroke="#D19000" stroke-width="0.196965"/>
<path d="M211.68 153.428C214.001 149.118 216.521 145.744 222.323 147.568C227.987 149.348 244.145 162.902 244.912 163.547C244.937 163.567 244.958 163.578 244.979 163.602C245.34 164.018 241.098 165.113 240.394 164.975C238.932 166.055 234.094 166.965 231.607 165.52C229.286 166.302 225.805 165.97 223.649 164.478C220.831 164.928 218.032 164.253 215.48 162.438L210.524 164.975C208.645 165.811 207.028 164.929 207.004 163.472C207.001 163.289 207.058 163.112 207.137 162.948L211.68 153.428Z" fill="url(#paint28_linear_3488_105655)"/>
<path d="M215.48 162.438L210.524 164.975C208.645 165.811 207.028 164.929 207.004 163.472C207.001 163.289 207.058 163.112 207.137 162.948L211.68 153.428C214.001 149.118 216.521 145.744 222.323 147.568C227.987 149.348 244.145 162.902 244.912 163.547C244.937 163.567 244.958 163.578 244.979 163.602C245.34 164.018 241.098 165.113 240.394 164.975M215.48 162.438C218.032 164.253 220.831 164.928 223.649 164.478M215.48 162.438C214.688 161.874 214.81 158.293 215.48 156.634M240.394 164.975C238.932 166.055 234.094 166.965 231.607 165.52M240.394 164.975C235.036 163.196 230.062 160.448 224.591 153.428M231.607 165.52C229.286 166.302 225.805 165.97 223.649 164.478M231.607 165.52C225.869 161.942 222.587 159.622 220.852 154.313M223.649 164.478C220.852 163.571 218.623 159.619 218.132 156.634" stroke="#798DF3" stroke-linecap="round"/>
<path d="M131.648 200.216C131.461 199.877 131.333 199.504 131.329 199.117C131.31 197.041 132.506 195.981 134.646 195.916C136.965 195.846 143.697 201.917 143.783 201.994C143.785 201.997 143.785 201.996 143.788 201.999C143.977 202.185 142.704 202.915 142.478 202.866C142.092 203.469 140.671 204.095 139.835 203.432C139.172 203.91 138.095 203.852 137.357 203.154C136.525 203.477 135.834 202.796 134.958 201.944L134.201 203.68C133.965 204.291 133.39 204.013 133.271 203.317C133.248 203.185 133.216 203.054 133.152 202.937L131.648 200.216Z" fill="url(#paint29_linear_3488_105655)"/>
<path d="M142.478 202.866C142.704 202.915 143.977 202.185 143.788 201.999C143.785 201.996 143.785 201.997 143.783 201.994C143.697 201.917 136.965 195.846 134.646 195.916C132.506 195.981 131.31 197.041 131.329 199.117C131.333 199.504 131.461 199.877 131.648 200.216L133.152 202.937C133.216 203.054 133.248 203.185 133.271 203.317C133.39 204.013 133.965 204.291 134.201 203.68L134.958 201.944C135.834 202.796 136.525 203.477 137.357 203.154M142.478 202.866C142.092 203.469 140.671 204.095 139.835 203.432M142.478 202.866C140.148 200.417 138.728 198.744 136.544 197.603M139.835 203.432C139.172 203.91 138.095 203.852 137.357 203.154M139.835 203.432C138.397 201.105 138.02 200.13 136.22 198.583M137.357 203.154C136.512 201.582 136.945 201.141 135.658 199.759" stroke="#798DF3" stroke-width="0.515152" stroke-linecap="round"/>
<path d="M140.177 211.939L142.578 200.243H132.359L129.958 211.939H140.177Z" fill="#FFEDCE" stroke="#D19000" stroke-width="0.101467"/>
<path d="M149.706 216.09L152.063 204.492L142.613 200.265L140.256 211.863L149.706 216.09Z" fill="url(#paint30_linear_3488_105655)" stroke="#D19000" stroke-width="0.101467"/>
<path d="M139.747 216.197L149.721 216.087L140.207 211.83L130.232 211.94L139.747 216.197Z" fill="url(#paint31_linear_3488_105655)" stroke="#D19000" stroke-width="0.101467"/>
<path d="M135.77 200.243L134.358 207.147L135.729 206.332L135.755 206.316L135.78 206.332L137.189 207.17L138.606 200.243H135.77Z" fill="#F3B344" stroke="#D19000" stroke-width="0.101467"/>
<path d="M146.834 197.857C148.03 195.637 149.328 193.899 152.318 194.838C155.235 195.755 163.559 202.737 163.954 203.07C163.967 203.08 163.978 203.086 163.989 203.098C164.175 203.312 161.99 203.877 161.627 203.806C160.873 204.362 158.381 204.831 157.1 204.086C155.904 204.489 154.111 204.318 153.001 203.549C151.549 203.781 150.107 203.434 148.792 202.498L146.239 203.806C145.271 204.236 144.438 203.782 144.426 203.031C144.424 202.937 144.454 202.846 144.494 202.761L146.834 197.857Z" fill="url(#paint32_linear_3488_105655)"/>
<path d="M148.792 202.498L146.239 203.806C145.271 204.236 144.438 203.782 144.426 203.031C144.424 202.937 144.454 202.846 144.494 202.761L146.834 197.857C148.03 195.637 149.328 193.899 152.318 194.838C155.235 195.755 163.559 202.737 163.954 203.07C163.967 203.08 163.978 203.086 163.989 203.098C164.175 203.312 161.99 203.877 161.627 203.806M148.792 202.498C150.107 203.434 151.549 203.781 153.001 203.549M148.792 202.498C148.384 202.208 148.447 200.363 148.792 199.509M161.627 203.806C160.873 204.362 158.381 204.831 157.1 204.086M161.627 203.806C158.866 202.889 156.304 201.474 153.486 197.857M157.1 204.086C155.904 204.489 154.111 204.318 153.001 203.549M157.1 204.086C154.144 202.243 152.454 201.048 151.56 198.313M153.001 203.549C151.56 203.082 150.411 201.046 150.159 199.509" stroke="#798DF3" stroke-width="0.515152" stroke-linecap="round"/>
<path d="M45.2517 172.302C44.5832 171.364 44.0781 170.303 43.9357 169.16C43.1717 163.026 46.3496 159.484 52.6602 158.566C59.4954 157.572 81.4686 173.242 81.7487 173.442C81.7573 173.448 81.7567 173.447 81.7651 173.454C82.3895 173.94 78.8705 176.531 78.1847 176.463C77.2496 178.378 73.2574 180.712 70.5598 179.034C68.761 180.673 65.5551 180.868 63.1362 179.053C60.7835 180.293 58.5109 178.512 55.6297 176.29L53.9805 181.683C53.4885 183.57 51.6939 182.941 51.1043 180.924C50.9928 180.542 50.8539 180.164 50.6231 179.84L45.2517 172.302Z" fill="url(#paint33_linear_3488_105655)"/>
<path d="M78.1847 176.463C78.8705 176.531 82.3895 173.94 81.7651 173.454C81.7567 173.447 81.7573 173.448 81.7487 173.442C81.4686 173.242 59.4954 157.572 52.6602 158.566C46.3496 159.484 43.1717 163.026 43.9357 169.16C44.0781 170.303 44.5832 171.364 45.2517 172.302L50.6231 179.84C50.8539 180.164 50.9928 180.542 51.1043 180.924C51.6939 182.941 53.4885 183.57 53.9805 181.683L55.6297 176.29C58.5109 178.512 60.7835 180.293 63.1362 179.053M78.1847 176.463C77.2496 178.378 73.2574 180.712 70.5598 179.034M78.1847 176.463C70.462 170.009 65.6924 165.545 58.847 162.911M70.5598 179.034C68.761 180.673 65.5551 180.868 63.1362 179.053M70.5598 179.034C65.5179 172.641 64.0696 169.884 58.2188 165.919M63.1362 179.053C60.1018 174.691 61.2327 173.239 56.9574 169.589" stroke="#798DF3" stroke-linecap="round"/>
<path d="M75.2965 204.388L82.4476 169.565H52.0219L44.8708 204.388H75.2965Z" fill="#FFEDCE" stroke="#D19000" stroke-width="0.302106"/>
<path d="M103.668 216.748L110.687 182.217L82.551 169.629L75.5318 204.161L103.668 216.748Z" fill="url(#paint34_linear_3488_105655)" stroke="#D19000" stroke-width="0.302106"/>
<path d="M74.0187 217.068L103.716 216.738L75.3871 204.063L45.69 204.393L74.0187 217.068Z" fill="url(#paint35_linear_3488_105655)" stroke="#D19000" stroke-width="0.302106"/>
<path d="M62.177 169.565L57.9713 190.122L62.053 187.693L62.1303 187.647L62.2075 187.693L66.4004 190.188L70.6196 169.565H62.177Z" fill="#F3B344" stroke="#D19000" stroke-width="0.302106"/>
<path d="M95.1246 162.461C98.6846 155.85 102.55 150.675 111.45 153.473C120.138 156.203 144.92 176.992 146.097 177.981C146.135 178.013 146.167 178.029 146.199 178.066C146.754 178.704 140.247 180.384 139.167 180.172C136.924 181.828 129.504 183.224 125.69 181.007C122.13 182.207 116.79 181.698 113.484 179.409C109.161 180.1 104.869 179.065 100.953 176.28L93.3518 180.172C90.4705 181.454 87.9895 180.102 87.9535 177.866C87.949 177.586 88.0366 177.315 88.157 177.063L95.1246 162.461Z" fill="url(#paint36_linear_3488_105655)"/>
<path d="M100.953 176.28L93.3518 180.172C90.4705 181.454 87.9895 180.102 87.9535 177.866C87.949 177.586 88.0366 177.315 88.157 177.063L95.1246 162.461C98.6846 155.85 102.55 150.675 111.45 153.473C120.138 156.203 144.92 176.992 146.097 177.981C146.135 178.013 146.167 178.029 146.199 178.066C146.754 178.704 140.247 180.384 139.167 180.172M100.953 176.28C104.869 179.065 109.161 180.1 113.484 179.409M100.953 176.28C99.7385 175.416 99.9262 169.923 100.953 167.378M139.167 180.172C136.924 181.828 129.504 183.224 125.69 181.007M139.167 180.172C130.948 177.444 123.32 173.228 114.929 162.461M125.69 181.007C122.13 182.207 116.79 181.698 113.484 179.409M125.69 181.007C116.888 175.52 111.855 171.962 109.193 163.818M113.484 179.409C109.193 178.018 105.775 171.957 105.022 167.378" stroke="#798DF3" stroke-linecap="round"/>
<path d="M210.892 181.848C210.544 180.75 210.39 179.585 210.606 178.453C211.766 172.382 215.879 169.989 222.166 171.057C228.976 172.214 245.063 193.884 245.268 194.16C245.274 194.169 245.274 194.167 245.28 194.176C245.725 194.831 241.579 196.214 240.947 195.939C239.469 197.473 234.952 198.465 232.901 196.039C230.686 197.045 227.575 196.245 225.832 193.774C223.212 194.229 221.597 191.836 219.539 188.835L216.311 193.459C215.263 195.103 213.749 193.953 213.808 191.852C213.819 191.455 213.804 191.052 213.684 190.673L210.892 181.848Z" fill="url(#paint37_linear_3488_105655)"/>
<path d="M240.947 195.939C241.579 196.214 245.725 194.831 245.28 194.176C245.274 194.167 245.274 194.169 245.268 194.16C245.063 193.884 228.976 172.214 222.166 171.057C215.879 169.989 211.766 172.382 210.606 178.453C210.39 179.585 210.544 180.75 210.892 181.848L213.684 190.673C213.804 191.052 213.819 191.455 213.808 191.852C213.749 193.953 215.263 195.103 216.311 193.459L219.539 188.835C221.597 191.836 223.212 194.229 225.832 193.774M240.947 195.939C239.469 197.473 234.952 198.465 232.901 196.039M240.947 195.939C235.585 187.422 232.42 181.707 226.717 177.095M232.901 196.039C230.686 197.045 227.575 196.245 225.832 193.774M232.901 196.039C230.071 188.405 229.541 185.336 225.193 179.763M225.832 193.774C224.287 188.689 225.809 187.656 222.864 182.868" stroke="#798DF3" stroke-linecap="round"/>
<path d="M237.297 219.388L244.448 184.565H214.022L206.871 219.388H237.297Z" fill="#FFEDCE" stroke="#D19000" stroke-width="0.302106"/>
<path d="M265.668 231.748L272.687 197.217L244.551 184.629L237.532 219.161L265.668 231.748Z" fill="url(#paint38_linear_3488_105655)" stroke="#D19000" stroke-width="0.302106"/>
<path d="M236.019 232.068L265.716 231.738L237.387 219.063L207.69 219.393L236.019 232.068Z" fill="url(#paint39_linear_3488_105655)" stroke="#D19000" stroke-width="0.302106"/>
<path d="M224.177 184.565L219.971 205.122L224.053 202.693L224.13 202.647L224.208 202.693L228.4 205.188L232.62 184.565H224.177Z" fill="#F3B344" stroke="#D19000" stroke-width="0.302106"/>
<path d="M257.125 177.461C260.685 170.85 264.55 165.675 273.45 168.473C282.138 171.203 306.92 191.992 308.097 192.981C308.135 193.013 308.167 193.029 308.199 193.066C308.754 193.704 302.247 195.384 301.167 195.172C298.924 196.828 291.504 198.224 287.69 196.007C284.13 197.207 278.79 196.698 275.484 194.409C271.161 195.1 266.869 194.065 262.953 191.28L255.352 195.172C252.47 196.454 249.99 195.102 249.954 192.866C249.949 192.586 250.037 192.315 250.157 192.063L257.125 177.461Z" fill="url(#paint40_linear_3488_105655)"/>
<path d="M262.953 191.28L255.352 195.172C252.47 196.454 249.99 195.102 249.954 192.866C249.949 192.586 250.037 192.315 250.157 192.063L257.125 177.461C260.685 170.85 264.55 165.675 273.45 168.473C282.138 171.203 306.92 191.992 308.097 192.981C308.135 193.013 308.167 193.029 308.199 193.066C308.754 193.704 302.247 195.384 301.167 195.172M262.953 191.28C266.869 194.065 271.161 195.1 275.484 194.409M262.953 191.28C261.738 190.416 261.926 184.923 262.953 182.378M301.167 195.172C298.924 196.828 291.504 198.224 287.69 196.007M301.167 195.172C292.948 192.444 285.32 188.228 276.929 177.461M287.69 196.007C284.13 197.207 278.79 196.698 275.484 194.409M287.69 196.007C278.888 190.52 273.855 186.962 271.193 178.818M275.484 194.409C271.193 193.018 267.775 186.957 267.022 182.378" stroke="#798DF3" stroke-linecap="round"/>
<path d="M43.7714 37.2014C42.5083 35.3209 41.5732 33.2079 41.3555 30.953C40.1875 18.8545 46.6265 12.065 59.0804 10.6042C72.5696 9.02187 114.907 41.0182 115.447 41.4265C115.464 41.4392 115.462 41.4374 115.478 41.4507C116.679 42.4404 109.621 47.3431 108.277 47.1716C106.335 50.885 98.3611 55.2546 93.15 51.8097C89.5251 54.9333 83.2131 55.1428 78.5574 51.4442C73.8655 53.7522 69.4955 50.1288 63.9531 45.6044L60.418 56.1145C59.3484 59.7962 55.8552 58.4633 54.8061 54.466C54.6075 53.7095 54.3552 52.9587 53.9191 52.3094L43.7714 37.2014Z" fill="url(#paint41_linear_3488_105655)"/>
<path d="M108.277 47.1716C109.621 47.3431 116.679 42.4404 115.478 41.4507C115.462 41.4374 115.464 41.4392 115.447 41.4265C114.907 41.0182 72.5696 9.02187 59.0804 10.6042C46.6265 12.065 40.1875 18.8545 41.3555 30.953C41.5732 33.2079 42.5083 35.3209 43.7714 37.2014L53.9191 52.3094C54.3552 52.9587 54.6075 53.7095 54.8061 54.466C55.8552 58.4633 59.3484 59.7962 60.418 56.1145L63.9531 45.6044C69.4955 50.1288 73.8655 53.7522 78.5574 51.4442M108.277 47.1716C106.335 50.885 98.3611 55.2546 93.15 51.8097M108.277 47.1716C93.4488 34.0662 84.3165 25.0316 71.0048 19.482M93.15 51.8097C89.5251 54.9333 83.2131 55.1428 78.5574 51.4442M93.15 51.8097C83.5876 38.97 80.8907 33.4723 69.6062 25.3594M78.5574 51.4442C72.8304 42.7036 75.1322 39.9123 66.9273 32.506" stroke="#798DF3" stroke-linecap="round"/>
<path d="M106.574 102.877L120.636 34.404H60.8089L46.7475 102.877H106.574Z" fill="#FFEDCE" stroke="#D19000" stroke-width="0.594038"/>
<path d="M162.36 127.182L176.162 59.2809L120.836 34.5295L107.035 102.43L162.36 127.182Z" fill="url(#paint42_linear_3488_105655)" stroke="#D19000" stroke-width="0.594038"/>
<path d="M104.061 127.81L162.455 127.162L106.751 102.238L48.3572 102.886L104.061 127.81Z" fill="url(#paint43_linear_3488_105655)" stroke="#D19000" stroke-width="0.594038"/>
<path d="M80.7773 34.404L72.5075 74.8247L80.5336 70.0496L80.6855 69.9593L80.8373 70.0496L89.0819 74.9547L97.3782 34.404H80.7773Z" fill="#F3B344" stroke="#D19000" stroke-width="0.594038"/>
<path d="M145.559 20.4352C152.559 7.43648 160.159 -2.73941 177.659 2.76101C194.742 8.13032 243.473 49.007 245.787 50.9527C245.861 51.0151 245.924 51.0464 245.988 51.1195C247.078 52.3734 234.285 55.6771 232.159 55.2612C227.75 58.5163 213.159 61.2612 205.659 56.903C198.659 59.2612 188.159 58.2612 181.659 53.7612C173.159 55.1193 164.718 53.083 157.02 47.6074L142.073 55.2612C136.407 57.7814 131.529 55.1227 131.458 50.7261C131.449 50.1762 131.621 49.6429 131.858 49.1465L145.559 20.4352Z" fill="url(#paint44_linear_3488_105655)"/>
<path d="M157.02 47.6074L142.073 55.2612C136.407 57.7814 131.529 55.1227 131.458 50.7261C131.449 50.1762 131.621 49.6429 131.858 49.1466L145.559 20.4352C152.559 7.43648 160.159 -2.73941 177.659 2.76101C194.742 8.13032 243.473 49.007 245.787 50.9527C245.861 51.0151 245.924 51.0464 245.988 51.1195C247.078 52.3734 234.285 55.6771 232.159 55.2612M157.02 47.6074C164.718 53.083 173.159 55.1193 181.659 53.7612M157.02 47.6074C154.631 45.9084 155 35.1074 157.02 30.1042M232.159 55.2612C227.75 58.5163 213.159 61.2612 205.659 56.903M232.159 55.2612C216 49.8962 201 41.6074 184.5 20.4352M205.659 56.903C198.659 59.2612 188.159 58.2612 181.659 53.7612M205.659 56.903C188.352 46.1126 178.456 39.1172 173.222 23.1041M181.659 53.7612C173.222 51.0246 166.5 39.1074 165.02 30.1042" stroke="#798DF3" stroke-linecap="round"/>
</g>
<defs>
<radialGradient id="paint0_radial_3488_105655" cx="0" cy="0" r="1" gradientUnits="userSpaceOnUse" gradientTransform="translate(3.63997e-05 -103.951) rotate(54.6676) scale(1336.87 1512.41)">
<stop offset="0.09375" stop-color="#0A1A69"/>
<stop offset="0.410829" stop-color="#0A1A69"/>
<stop offset="1" stop-color="#07134E"/>
</radialGradient>
<radialGradient id="paint1_radial_3488_105655" cx="0" cy="0" r="1" gradientUnits="userSpaceOnUse" gradientTransform="translate(334.5 847) rotate(-105.32) scale(963.23 4435.38)">
<stop stop-color="#FF964A"/>
<stop offset="0.202832" stop-color="#FFA7A7"/>
<stop offset="1" stop-color="#3554EC"/>
</radialGradient>
<linearGradient id="paint2_linear_3488_105655" x1="23.4134" y1="-9.85413" x2="341.159" y2="389.623" gradientUnits="userSpaceOnUse">
<stop stop-color="#0C2083"/>
<stop offset="1" stop-color="#0C2083" stop-opacity="0"/>
</linearGradient>
<linearGradient id="paint3_linear_3488_105655" x1="395.361" y1="542.645" x2="172.973" y2="308.711" gradientUnits="userSpaceOnUse">
<stop stop-color="#1230C6"/>
<stop offset="1" stop-color="#798DF3"/>
</linearGradient>
<linearGradient id="paint4_linear_3488_105655" x1="396.042" y1="542.354" x2="172.555" y2="314.699" gradientUnits="userSpaceOnUse">
<stop stop-color="#1230C6"/>
<stop offset="1" stop-color="#798DF3"/>
</linearGradient>
<linearGradient id="paint5_linear_3488_105655" x1="204.344" y1="311.365" x2="210.917" y2="343.836" gradientUnits="userSpaceOnUse">
<stop stop-color="#1230C6"/>
<stop offset="1" stop-color="#BCC6F9"/>
</linearGradient>
<linearGradient id="paint6_linear_3488_105655" x1="219.348" y1="212.379" x2="158.405" y2="220.013" gradientUnits="userSpaceOnUse">
<stop stop-color="#1230C6"/>
<stop offset="1" stop-color="#798DF3"/>
</linearGradient>
<linearGradient id="paint7_linear_3488_105655" x1="418.951" y1="133.863" x2="174.661" y2="387.579" gradientUnits="userSpaceOnUse">
<stop stop-color="#1230C6"/>
<stop offset="1" stop-color="#798DF3"/>
</linearGradient>
<linearGradient id="paint8_linear_3488_105655" x1="-41" y1="152.5" x2="240.034" y2="438.776" gradientUnits="userSpaceOnUse">
<stop stop-color="#1230C6"/>
<stop offset="1" stop-color="#798DF3"/>
</linearGradient>
<linearGradient id="paint9_linear_3488_105655" x1="391.126" y1="308.479" x2="363.258" y2="315.703" gradientUnits="userSpaceOnUse">
<stop stop-color="white"/>
<stop offset="1" stop-color="#BCC6F9"/>
</linearGradient>
<linearGradient id="paint10_linear_3488_105655" x1="360.681" y1="289.52" x2="413.499" y2="303.184" gradientUnits="userSpaceOnUse">
<stop stop-color="#F3B344"/>
<stop offset="1" stop-color="#3554EC"/>
</linearGradient>
<linearGradient id="paint11_linear_3488_105655" x1="338.5" y1="327.5" x2="393" y2="373" gradientUnits="userSpaceOnUse">
<stop stop-color="#F3B344"/>
<stop offset="1" stop-color="#3554EC"/>
</linearGradient>
<linearGradient id="paint12_linear_3488_105655" x1="350.635" y1="302.46" x2="326.312" y2="332.074" gradientUnits="userSpaceOnUse">
<stop stop-color="white"/>
<stop offset="1" stop-color="#BCC6F9"/>
</linearGradient>
<linearGradient id="paint13_linear_3488_105655" x1="311.767" y1="319.381" x2="299.378" y2="322.592" gradientUnits="userSpaceOnUse">
<stop stop-color="white"/>
<stop offset="1" stop-color="#BCC6F9"/>
</linearGradient>
<linearGradient id="paint14_linear_3488_105655" x1="298.235" y1="310.954" x2="321.714" y2="317.028" gradientUnits="userSpaceOnUse">
<stop stop-color="#F3B344"/>
<stop offset="1" stop-color="#3554EC"/>
</linearGradient>
<linearGradient id="paint15_linear_3488_105655" x1="288.373" y1="327.837" x2="312.6" y2="348.063" gradientUnits="userSpaceOnUse">
<stop stop-color="#F3B344"/>
<stop offset="1" stop-color="#3554EC"/>
</linearGradient>
<linearGradient id="paint16_linear_3488_105655" x1="293.768" y1="316.705" x2="282.956" y2="329.87" gradientUnits="userSpaceOnUse">
<stop stop-color="white"/>
<stop offset="1" stop-color="#BCC6F9"/>
</linearGradient>
<linearGradient id="paint17_linear_3488_105655" x1="283.107" y1="347.359" x2="275.057" y2="349.446" gradientUnits="userSpaceOnUse">
<stop stop-color="white"/>
<stop offset="1" stop-color="#BCC6F9"/>
</linearGradient>
<linearGradient id="paint18_linear_3488_105655" x1="274.315" y1="341.882" x2="289.572" y2="345.829" gradientUnits="userSpaceOnUse">
<stop stop-color="#F3B344"/>
<stop offset="1" stop-color="#3554EC"/>
</linearGradient>
<linearGradient id="paint19_linear_3488_105655" x1="267.905" y1="352.853" x2="283.648" y2="365.997" gradientUnits="userSpaceOnUse">
<stop stop-color="#F3B344"/>
<stop offset="1" stop-color="#3554EC"/>
</linearGradient>
<linearGradient id="paint20_linear_3488_105655" x1="271.412" y1="345.62" x2="264.385" y2="354.175" gradientUnits="userSpaceOnUse">
<stop stop-color="white"/>
<stop offset="1" stop-color="#BCC6F9"/>
</linearGradient>
<linearGradient id="paint21_linear_3488_105655" x1="344.972" y1="357.27" x2="325.15" y2="362.408" gradientUnits="userSpaceOnUse">
<stop stop-color="white"/>
<stop offset="1" stop-color="#BCC6F9"/>
</linearGradient>
<linearGradient id="paint22_linear_3488_105655" x1="323.323" y1="343.786" x2="360.89" y2="353.504" gradientUnits="userSpaceOnUse">
<stop stop-color="#F3B344"/>
<stop offset="1" stop-color="#3554EC"/>
</linearGradient>
<linearGradient id="paint23_linear_3488_105655" x1="307.543" y1="370.799" x2="346.307" y2="403.161" gradientUnits="userSpaceOnUse">
<stop stop-color="#F3B344"/>
<stop offset="1" stop-color="#3554EC"/>
</linearGradient>
<linearGradient id="paint24_linear_3488_105655" x1="316.175" y1="352.989" x2="298.875" y2="374.052" gradientUnits="userSpaceOnUse">
<stop stop-color="white"/>
<stop offset="1" stop-color="#BCC6F9"/>
</linearGradient>
<linearGradient id="paint25_linear_3488_105655" x1="186.827" y1="150.006" x2="207.71" y2="167.198" gradientUnits="userSpaceOnUse">
<stop stop-color="white"/>
<stop offset="1" stop-color="#BCC6F9"/>
</linearGradient>
<linearGradient id="paint26_linear_3488_105655" x1="207.542" y1="153.539" x2="230.681" y2="204.657" gradientUnits="userSpaceOnUse">
<stop stop-color="#F3B344"/>
<stop offset="1" stop-color="#3554EC"/>
</linearGradient>
<linearGradient id="paint27_linear_3488_105655" x1="193.64" y1="179.215" x2="194.938" y2="196.355" gradientUnits="userSpaceOnUse">
<stop stop-color="#F3B344"/>
<stop offset="1" stop-color="#3554EC"/>
</linearGradient>
<linearGradient id="paint28_linear_3488_105655" x1="218.126" y1="146.984" x2="238.517" y2="176.659" gradientUnits="userSpaceOnUse">
<stop stop-color="white"/>
<stop offset="1" stop-color="#BCC6F9"/>
</linearGradient>
<linearGradient id="paint29_linear_3488_105655" x1="134.525" y1="195.876" x2="145.118" y2="204.93" gradientUnits="userSpaceOnUse">
<stop stop-color="white"/>
<stop offset="1" stop-color="#BCC6F9"/>
</linearGradient>
<linearGradient id="paint30_linear_3488_105655" x1="144.705" y1="197.914" x2="156.625" y2="224.248" gradientUnits="userSpaceOnUse">
<stop stop-color="#F3B344"/>
<stop offset="1" stop-color="#3554EC"/>
</linearGradient>
<linearGradient id="paint31_linear_3488_105655" x1="137.543" y1="211.141" x2="138.211" y2="219.971" gradientUnits="userSpaceOnUse">
<stop stop-color="#F3B344"/>
<stop offset="1" stop-color="#3554EC"/>
</linearGradient>
<linearGradient id="paint32_linear_3488_105655" x1="150.155" y1="194.537" x2="160.66" y2="209.825" gradientUnits="userSpaceOnUse">
<stop stop-color="white"/>
<stop offset="1" stop-color="#BCC6F9"/>
</linearGradient>
<linearGradient id="paint33_linear_3488_105655" x1="52.2871" y1="158.489" x2="86.6956" y2="181.671" gradientUnits="userSpaceOnUse">
<stop stop-color="white"/>
<stop offset="1" stop-color="#BCC6F9"/>
</linearGradient>
<linearGradient id="paint34_linear_3488_105655" x1="88.7791" y1="162.631" x2="124.271" y2="241.036" gradientUnits="userSpaceOnUse">
<stop stop-color="#F3B344"/>
<stop offset="1" stop-color="#3554EC"/>
</linearGradient>
<linearGradient id="paint35_linear_3488_105655" x1="67.4562" y1="202.013" x2="69.4464" y2="228.302" gradientUnits="userSpaceOnUse">
<stop stop-color="#F3B344"/>
<stop offset="1" stop-color="#3554EC"/>
</linearGradient>
<linearGradient id="paint36_linear_3488_105655" x1="105.012" y1="152.577" x2="136.288" y2="198.093" gradientUnits="userSpaceOnUse">
<stop stop-color="white"/>
<stop offset="1" stop-color="#BCC6F9"/>
</linearGradient>
<linearGradient id="paint37_linear_3488_105655" x1="221.835" y1="170.869" x2="247.444" y2="203.512" gradientUnits="userSpaceOnUse">
<stop stop-color="white"/>
<stop offset="1" stop-color="#BCC6F9"/>
</linearGradient>
<linearGradient id="paint38_linear_3488_105655" x1="250.779" y1="177.631" x2="286.271" y2="256.036" gradientUnits="userSpaceOnUse">
<stop stop-color="#F3B344"/>
<stop offset="1" stop-color="#3554EC"/>
</linearGradient>
<linearGradient id="paint39_linear_3488_105655" x1="229.456" y1="217.013" x2="231.446" y2="243.302" gradientUnits="userSpaceOnUse">
<stop stop-color="#F3B344"/>
<stop offset="1" stop-color="#3554EC"/>
</linearGradient>
<linearGradient id="paint40_linear_3488_105655" x1="267.012" y1="167.577" x2="298.288" y2="213.093" gradientUnits="userSpaceOnUse">
<stop stop-color="white"/>
<stop offset="1" stop-color="#BCC6F9"/>
</linearGradient>
<linearGradient id="paint41_linear_3488_105655" x1="58.3512" y1="10.4333" x2="124.723" y2="57.8701" gradientUnits="userSpaceOnUse">
<stop stop-color="white"/>
<stop offset="1" stop-color="#BCC6F9"/>
</linearGradient>
<linearGradient id="paint42_linear_3488_105655" x1="133.083" y1="20.7688" x2="202.871" y2="174.939" gradientUnits="userSpaceOnUse">
<stop stop-color="#F3B344"/>
<stop offset="1" stop-color="#3554EC"/>
</linearGradient>
<linearGradient id="paint43_linear_3488_105655" x1="91.1567" y1="98.2075" x2="95.0701" y2="149.9" gradientUnits="userSpaceOnUse">
<stop stop-color="#F3B344"/>
<stop offset="1" stop-color="#3554EC"/>
</linearGradient>
<linearGradient id="paint44_linear_3488_105655" x1="165" y1="1" x2="226.5" y2="90.5" gradientUnits="userSpaceOnUse">
<stop stop-color="white"/>
<stop offset="1" stop-color="#BCC6F9"/>
</linearGradient>
<clipPath id="clip0_3488_105655">
<rect width="424.878" height="534" rx="35.2393" fill="white"/>
</clipPath>
</defs>
</svg>
