<svg width="374" height="471" viewBox="0 0 374 471" fill="none" xmlns="http://www.w3.org/2000/svg">
<g clip-path="url(#clip0_1693_50115)">
<path d="M0 187.854C0 84.6416 83.6703 0.971191 186.883 0.971191C290.095 0.971191 373.766 84.6415 373.766 187.854V468.689C373.766 469.817 372.851 470.731 371.723 470.731H2.04244C0.914434 470.731 0 469.817 0 468.689V187.854Z" fill="url(#paint0_radial_1693_50115)"/>
<path fill-rule="evenodd" clip-rule="evenodd" d="M40.8489 71.2271V469.71H0.273227C0.0994552 469.41 0 469.061 0 468.689V187.854C0 143.739 15.2854 103.194 40.8489 71.2271Z" fill="url(#paint1_linear_1693_50115)"/>
<path fill-rule="evenodd" clip-rule="evenodd" d="M373.767 213.604V383.636L165.438 286.912V116.879L373.767 213.604ZM373.767 189.094L165.438 92.3702V2.18835C172.476 1.38433 179.632 0.971191 186.885 0.971191C290.097 0.971191 373.767 84.6415 373.767 187.854V189.094Z" fill="url(#paint2_linear_1693_50115)"/>
<rect y="309.379" width="373.766" height="161.352" fill="url(#paint3_linear_1693_50115)"/>
<path d="M203.584 425.084L178.736 305.01H98.6188C98.4184 305.01 98.2258 305.088 98.0815 305.227C91.5311 311.541 88.7509 320.816 90.7477 329.692L113.648 431.489L203.584 425.084Z" fill="url(#paint4_linear_1693_50115)" stroke="#0C2083" stroke-width="1.02122"/>
<path d="M199.331 305.406C199.278 305.174 199.071 305.01 198.834 305.01H101.48C99.8383 305.01 98.6234 306.537 98.992 308.136L126.101 425.777C126.155 426.009 126.361 426.173 126.599 426.173H226.519C226.848 426.173 227.091 425.868 227.017 425.548L199.331 305.406Z" fill="url(#paint5_linear_1693_50115)" stroke="#0C2083" stroke-width="1.02122"/>
<path d="M73.5987 178.84C71.8662 171.382 74.3432 163.574 80.0577 158.478L80.725 157.883C85.8699 153.295 92.5223 150.76 99.4155 150.76H192.114C206.058 150.76 218.179 160.329 221.417 173.892L272.652 388.551C274.132 394.752 272.762 401.29 268.918 406.376C264.884 411.711 258.583 414.846 251.894 414.846H198.007H152.353C138.341 414.846 126.179 405.186 123.009 391.537L73.5987 178.84Z" fill="url(#paint6_linear_1693_50115)" stroke="#07467E" stroke-width="1.02122"/>
<path d="M82.2991 175.732C79.4208 163.255 88.8978 151.343 101.703 151.343H193.958C207.987 151.343 220.159 161.027 223.313 174.697L271.596 384.013C274.031 394.571 266.012 404.65 255.177 404.65H159.072C145.042 404.65 132.87 394.966 129.717 381.296L82.2991 175.732Z" fill="#2B9DFF" stroke="#07467E" stroke-width="1.02122"/>
<path d="M166.448 163.353H166.567L166.673 163.301L183.271 155.149H192.207C206.232 155.149 218.402 164.828 221.56 178.493L267.856 378.852C270.296 389.412 262.277 399.495 251.439 399.495H161.67C147.645 399.495 135.475 389.817 132.318 376.152L86.5997 178.295C83.8639 166.455 92.8555 155.149 105.007 155.149H109.756C112.907 155.149 115.969 156.194 118.463 158.119C122.858 161.512 128.253 163.353 133.806 163.353H149.357H166.448Z" fill="url(#paint7_linear_1693_50115)" stroke="#07467E" stroke-width="1.02122"/>
<g style="mix-blend-mode:color-burn">
<path d="M129.5 289.32C128.712 286.103 131.147 282.998 134.46 282.998H244.527C246.879 282.998 248.927 284.604 249.487 286.888L273.954 386.676H157.377C155.025 386.676 152.978 385.07 152.418 382.786L129.5 289.32Z" fill="url(#paint8_linear_1693_50115)"/>
</g>
<g style="mix-blend-mode:color-burn">
<path fill-rule="evenodd" clip-rule="evenodd" d="M101.092 259.471L85.0889 190.095C104.612 191.907 121.082 205.938 125.755 225.302C129.785 242.003 117.855 258.102 101.092 259.471Z" fill="url(#paint9_linear_1693_50115)"/>
</g>
<line x1="128.079" y1="157.368" x2="183.59" y2="157.368" stroke="#07467E" stroke-width="1.02122"/>
<g style="mix-blend-mode:color-burn">
<path fill-rule="evenodd" clip-rule="evenodd" d="M144.239 177.849C140.945 177.849 138.513 180.921 139.27 184.127L153.052 242.548C153.814 245.775 156.694 248.055 160.01 248.055H197.409L216.372 328.564C216.915 330.87 218.973 332.5 221.342 332.5H289.774C293.067 332.5 295.499 329.429 294.744 326.223L273.926 237.837C273.383 235.531 271.325 233.901 268.956 233.901H222.188L209.892 181.782C209.348 179.477 207.29 177.849 204.922 177.849H144.239Z" fill="url(#paint10_linear_1693_50115)"/>
</g>
<path d="M144.221 269.022C143.713 266.947 144.779 264.809 146.741 263.965C147.287 263.73 147.875 263.609 148.469 263.609H301.32C302.625 263.609 303.869 264.164 304.741 265.136L305.41 265.882C305.909 266.438 306.264 267.107 306.446 267.832L330.709 364.53C330.934 365.429 330.883 366.375 330.561 367.244L329.723 369.508C329.055 371.311 327.336 372.508 325.413 372.508L173.157 372.508C171.04 372.508 169.197 371.062 168.694 369.005L144.221 269.022Z" fill="#AFDAFF" stroke="#07467E" stroke-width="1.02122"/>
<path d="M146.731 268.855C146.023 265.961 148.215 263.167 151.195 263.167L302.522 263.167C304.639 263.167 306.482 264.614 306.986 266.67L330.894 364.349C331.603 367.244 329.411 370.037 326.43 370.037L175.104 370.037C172.987 370.037 171.143 368.59 170.64 366.534L146.731 268.855Z" fill="#E5F3FE" stroke="#07467E" stroke-width="1.02122"/>
<path d="M182.139 322.034C181.583 319.651 183.392 317.371 185.839 317.371H284.874C287.975 317.371 290.667 319.507 291.372 322.527C291.928 324.911 290.119 327.19 287.672 327.19H188.637C185.536 327.19 182.844 325.054 182.139 322.034Z" fill="#83C5FD" stroke="#07467E" stroke-width="1.02122"/>
<path d="M153.429 296.125L148.787 277.014H309.73L314.472 296.125H153.429Z" fill="#147EE3" stroke="#07467E" stroke-width="1.02122"/>
<path d="M279.793 349.164C279.018 345.83 281.549 342.642 284.972 342.642H286.052C290.828 342.642 294.974 345.934 296.056 350.585C296.832 353.919 294.301 357.107 290.877 357.107H289.797C285.021 357.107 280.876 353.816 279.793 349.164Z" fill="#83C5FD" stroke="#07467E" stroke-width="1.02122"/>
<path d="M293.171 349.164C292.396 345.83 294.927 342.642 298.35 342.642H299.43C304.206 342.642 308.352 345.934 309.434 350.585C310.21 353.919 307.678 357.107 304.255 357.107H303.175C298.399 357.107 294.254 353.816 293.171 349.164Z" fill="#83C5FD" stroke="#07467E" stroke-width="1.02122"/>
<path d="M214.973 262.65H287.933C290.31 262.65 292.374 264.291 292.908 266.608L310.221 341.664C310.959 344.863 308.529 347.918 305.246 347.918H238.704C236.326 347.918 234.263 346.276 233.729 343.959L214.973 262.65Z" fill="url(#paint11_linear_1693_50115)"/>
<path d="M210.176 194.198C209.498 191.314 211.687 188.551 214.65 188.551H290.73C292.862 188.551 294.715 190.019 295.203 192.095L327.882 331.102C328.561 333.986 326.372 336.749 323.409 336.749H247.329C245.196 336.749 243.344 335.281 242.856 333.205L210.176 194.198Z" fill="white" stroke="#07467E" stroke-width="1.02122"/>
<path d="M235.827 227.182C233.262 216.503 241.356 206.236 252.338 206.236L256.88 206.236C270.734 206.236 282.781 215.732 286.017 229.202C288.581 239.881 280.488 250.148 269.506 250.148H264.963C251.11 250.148 239.063 240.652 235.827 227.182Z" fill="url(#paint12_linear_1693_50115)"/>
<path d="M63.9105 206.453C59.7748 189.314 72.7619 172.821 90.3928 172.821H92.0238C113.154 172.821 131.535 187.294 136.492 207.835C140.628 224.974 127.641 241.468 110.01 241.468H108.379C87.248 241.468 68.867 226.994 63.9105 206.453Z" fill="url(#paint13_linear_1693_50115)" stroke="#A6CC00" stroke-width="1.02122"/>
<path d="M70.4886 198.509C66.3529 181.37 79.34 164.876 96.971 164.876H98.6019C119.733 164.876 138.114 179.35 143.07 199.891C147.206 217.03 134.219 233.523 116.588 233.523H114.957C93.8261 233.523 75.4451 219.05 70.4886 198.509Z" fill="#ECFF99" stroke="#A6CC00" stroke-width="1.02122"/>
<mask id="path-26-inside-1_1693_50115" fill="white">
<path fill-rule="evenodd" clip-rule="evenodd" d="M100.854 169.628C97.0224 169.628 94.2173 173.238 95.165 176.951L98.3319 189.359H84.2416C80.1284 189.359 77.1156 193.233 78.1279 197.22C79.3116 201.881 83.5079 205.145 88.3174 205.145H102.361L105.853 218.827C106.959 223.16 110.862 226.193 115.335 226.193C119.167 226.193 121.972 222.582 121.024 218.869L117.522 205.145H130.568C134.682 205.145 137.694 201.272 136.682 197.285C135.498 192.623 131.302 189.359 126.493 189.359H113.493L110.336 176.994C109.23 172.66 105.327 169.628 100.854 169.628Z"/>
</mask>
<path fill-rule="evenodd" clip-rule="evenodd" d="M100.854 169.628C97.0224 169.628 94.2173 173.238 95.165 176.951L98.3319 189.359H84.2416C80.1284 189.359 77.1156 193.233 78.1279 197.22C79.3116 201.881 83.5079 205.145 88.3174 205.145H102.361L105.853 218.827C106.959 223.16 110.862 226.193 115.335 226.193C119.167 226.193 121.972 222.582 121.024 218.869L117.522 205.145H130.568C134.682 205.145 137.694 201.272 136.682 197.285C135.498 192.623 131.302 189.359 126.493 189.359H113.493L110.336 176.994C109.23 172.66 105.327 169.628 100.854 169.628Z" fill="#D0FF00"/>
<path d="M95.165 176.951L96.1545 176.699V176.699L95.165 176.951ZM98.3319 189.359V190.381H99.6465L99.3214 189.107L98.3319 189.359ZM78.1279 197.22L77.1381 197.471L78.1279 197.22ZM102.361 205.145L103.35 204.893L103.154 204.124H102.361V205.145ZM105.853 218.827L104.863 219.079L105.853 218.827ZM121.024 218.869L120.035 219.121H120.035L121.024 218.869ZM117.522 205.145V204.124H116.207L116.532 205.398L117.522 205.145ZM136.682 197.285L135.692 197.536L136.682 197.285ZM113.493 189.359L112.503 189.612L112.699 190.381H113.493V189.359ZM110.336 176.994L111.326 176.741L110.336 176.994ZM96.1545 176.699C95.3716 173.632 97.6888 170.649 100.854 170.649V168.606C96.3559 168.606 93.063 172.845 94.1755 177.204L96.1545 176.699ZM99.3214 189.107L96.1545 176.699L94.1755 177.204L97.3424 189.612L99.3214 189.107ZM84.2416 190.381H98.3319V188.338H84.2416V190.381ZM79.1177 196.968C78.2693 193.627 80.7943 190.381 84.2416 190.381V188.338C79.4624 188.338 75.9619 192.839 77.1381 197.471L79.1177 196.968ZM88.3174 204.124C83.9751 204.124 80.1864 201.177 79.1177 196.968L77.1381 197.471C78.4368 202.585 83.0407 206.166 88.3174 206.166V204.124ZM102.361 204.124H88.3174V206.166H102.361V204.124ZM106.842 218.574L103.35 204.893L101.371 205.398L104.863 219.079L106.842 218.574ZM115.335 225.171C111.329 225.171 107.833 222.455 106.842 218.574L104.863 219.079C106.085 223.865 110.396 227.214 115.335 227.214V225.171ZM120.035 219.121C120.818 222.188 118.501 225.171 115.335 225.171V227.214C119.833 227.214 123.126 222.975 122.014 218.616L120.035 219.121ZM116.532 205.398L120.035 219.121L122.014 218.616L118.511 204.893L116.532 205.398ZM130.568 204.124H117.522V206.166H130.568V204.124ZM135.692 197.536C136.541 200.878 134.016 204.124 130.568 204.124V206.166C135.347 206.166 138.848 201.666 137.672 197.034L135.692 197.536ZM126.493 190.381C130.835 190.381 134.623 193.328 135.692 197.536L137.672 197.034C136.373 191.919 131.769 188.338 126.493 188.338V190.381ZM113.493 190.381H126.493V188.338H113.493V190.381ZM109.347 177.246L112.503 189.612L114.482 189.107L111.326 176.741L109.347 177.246ZM100.854 170.649C104.86 170.649 108.356 173.365 109.347 177.246L111.326 176.741C110.104 171.955 105.794 168.606 100.854 168.606V170.649Z" fill="#A6CC00" mask="url(#path-26-inside-1_1693_50115)"/>
<path d="M248.089 224.59C246.877 219.099 251.057 213.895 256.681 213.895H257.059C264.1 213.895 270.194 218.791 271.712 225.666C272.924 231.158 268.743 236.362 263.119 236.362H262.742C255.701 236.362 249.607 231.466 248.089 224.59Z" fill="#D5E9FF" stroke="#147EE3" stroke-width="1.02122"/>
<mask id="path-29-inside-2_1693_50115" fill="white">
<path fill-rule="evenodd" clip-rule="evenodd" d="M281.791 244.195C279.023 247.202 275.049 249.127 270.532 249.127H262.068C257.381 249.127 252.936 247.851 249.107 245.593C249.104 241.453 252.464 237.894 256.82 237.894H270.735C275.368 237.894 279.526 240.37 281.791 244.195Z"/>
</mask>
<path fill-rule="evenodd" clip-rule="evenodd" d="M281.791 244.195C279.023 247.202 275.049 249.127 270.532 249.127H262.068C257.381 249.127 252.936 247.851 249.107 245.593C249.104 241.453 252.464 237.894 256.82 237.894H270.735C275.368 237.894 279.526 240.37 281.791 244.195Z" fill="#D5E9FF"/>
<path d="M281.791 244.195L282.543 244.887L283.057 244.328L282.67 243.675L281.791 244.195ZM249.107 245.593L248.086 245.594L248.087 246.177L248.589 246.473L249.107 245.593ZM281.04 243.504C278.455 246.311 274.749 248.106 270.532 248.106V250.148C275.348 250.148 279.59 248.093 282.543 244.887L281.04 243.504ZM270.532 248.106H262.068V250.148H270.532V248.106ZM262.068 248.106C257.568 248.106 253.302 246.881 249.626 244.713L248.589 246.473C252.571 248.821 257.194 250.148 262.068 250.148V248.106ZM250.129 245.592C250.125 242.001 253.044 238.915 256.82 238.915V236.872C251.885 236.872 248.082 240.905 248.086 245.594L250.129 245.592ZM256.82 238.915H270.735V236.872H256.82V238.915ZM270.735 238.915C274.999 238.915 278.827 241.194 280.913 244.716L282.67 243.675C280.225 239.547 275.737 236.872 270.735 236.872V238.915Z" fill="#147EE3" mask="url(#path-29-inside-2_1693_50115)"/>
<path d="M260.788 321.397C260.4 319.687 261.699 318.059 263.453 318.059H306.323C308.609 318.059 310.59 319.641 311.096 321.87C311.485 323.58 310.185 325.208 308.432 325.208H265.561C263.276 325.208 261.294 323.626 260.788 321.397Z" stroke="#07467E" stroke-width="1.02122"/>
<path d="M247.868 309.39C247.304 307.041 249.084 304.784 251.499 304.784H307.429C310.463 304.784 313.102 306.864 313.811 309.815C314.375 312.163 312.595 314.421 310.18 314.421H254.251C251.216 314.421 248.577 312.34 247.868 309.39Z" fill="#83C5FD" stroke="#07467E" stroke-width="1.02122"/>
<path d="M188.543 145.928L201.314 145.928C203.681 145.928 205.738 147.554 206.283 149.858L217.243 196.163C218.002 199.37 215.569 202.445 212.274 202.445H201.92L188.543 145.928Z" fill="url(#paint14_linear_1693_50115)"/>
<path d="M211.964 201.425C211.213 198.272 213.553 195.225 216.793 195.137L224.25 194.935C226.665 194.87 228.796 196.506 229.356 198.856L234.786 221.65C235.538 224.804 233.198 227.85 229.958 227.938L218.356 228.252L211.964 201.425Z" fill="url(#paint15_linear_1693_50115)"/>
<path d="M149.262 138C148.584 135.115 150.772 132.352 153.736 132.352H217.432C219.565 132.352 221.417 133.819 221.906 135.895L239.106 209.013C239.785 211.897 237.596 214.661 234.633 214.661H170.936C168.804 214.661 166.951 213.193 166.463 211.118L149.262 138Z" fill="#CAE7FF" stroke="#07467E" stroke-width="1.02122"/>
<path d="M159.156 148.804C158.845 147.316 159.981 145.917 161.501 145.917H214.938C216.261 145.917 217.403 146.845 217.673 148.14C217.951 149.465 216.939 150.71 215.585 150.71H161.501C160.367 150.71 159.388 149.914 159.156 148.804Z" fill="#83C5FD" stroke="#07467E" stroke-width="1.02122"/>
<path d="M163.149 162.159C162.837 160.439 164.159 158.857 165.906 158.857H218.428C219.784 158.857 220.945 159.827 221.186 161.16C221.498 162.88 220.176 164.462 218.429 164.462H165.906C164.551 164.462 163.39 163.493 163.149 162.159Z" fill="#83C5FD" stroke="#07467E" stroke-width="1.02122"/>
<path d="M165.913 176.459C165.596 174.705 166.944 173.093 168.726 173.093H194.129C195.729 173.093 197.1 174.238 197.384 175.813C197.666 177.374 196.467 178.809 194.88 178.809H168.726C167.343 178.809 166.159 177.82 165.913 176.459Z" fill="#83C5FD" stroke="#07467E" stroke-width="1.02122"/>
<path d="M169.738 190.116C169.445 188.635 170.579 187.256 172.089 187.256H184.996C186.329 187.256 187.475 188.198 187.734 189.505C187.994 190.822 186.986 192.048 185.644 192.048H172.089C170.944 192.048 169.96 191.239 169.738 190.116Z" fill="#83C5FD" stroke="#07467E" stroke-width="1.02122"/>
<path d="M59.6736 470.428C58.1839 470.428 57.5708 468.517 58.7824 467.65L173.019 385.936C175.177 393.52 172.357 401.682 165.909 406.308L79.3329 468.418C77.5108 469.725 75.3248 470.428 73.0824 470.428H59.6736Z" fill="url(#paint16_linear_1693_50115)" stroke="#0C2083" stroke-width="1.02122"/>
<path d="M173.138 385.736C173.121 385.677 173.165 385.618 173.227 385.618H317.166C317.214 385.618 317.257 385.65 317.27 385.696C319.408 393.258 316.58 401.348 310.197 405.931L220.473 470.357H77.0192L165.856 406.568C172.427 401.85 175.339 393.521 173.138 385.736Z" fill="url(#paint17_linear_1693_50115)" stroke="#0C2083" stroke-width="1.02122"/>
<path d="M252.509 470.066L243.474 434.38H127.577L115.21 442.926C115.038 443.045 114.956 443.257 115.003 443.461L119.957 464.921C120.652 467.933 123.334 470.066 126.425 470.066H252.509Z" fill="#147EE3"/>
<path d="M252.509 470.066L243.474 434.38H127.577L115.21 442.926C115.038 443.045 114.956 443.257 115.003 443.461L119.957 464.921C120.652 467.933 123.334 470.066 126.425 470.066H252.509Z" fill="url(#paint18_linear_1693_50115)"/>
<path d="M252.509 470.066L243.474 434.38H127.577L115.21 442.926C115.038 443.045 114.956 443.257 115.003 443.461L119.957 464.921C120.652 467.933 123.334 470.066 126.425 470.066H252.509Z" fill="url(#paint19_linear_1693_50115)"/>
<path d="M252.509 470.066L243.474 434.38H127.577L115.21 442.926C115.038 443.045 114.956 443.257 115.003 443.461L119.957 464.921C120.652 467.933 123.334 470.066 126.425 470.066H252.509Z" stroke="#0C2083" stroke-width="1.02122"/>
<path d="M279.695 470.465L271.723 434.067H128.715L135.016 462.839C135.991 467.292 139.934 470.465 144.493 470.465H279.695Z" fill="url(#paint20_linear_1693_50115)"/>
<path d="M279.695 470.465L271.723 434.067H128.715L135.016 462.839C135.991 467.292 139.934 470.465 144.493 470.465H279.695Z" fill="url(#paint21_linear_1693_50115)"/>
<path d="M279.695 470.465L271.723 434.067H128.715L135.016 462.839C135.991 467.292 139.934 470.465 144.493 470.465H279.695Z" stroke="#0C2083" stroke-width="1.02122"/>
<line x1="169.57" y1="404.147" x2="311.663" y2="404.147" stroke="#0C2083" stroke-width="1.02122" stroke-linecap="round"/>
<line x1="243.051" y1="258.829" x2="289.006" y2="258.829" stroke="#07467E" stroke-width="1.02122"/>
<path d="M244.947 269.891H294.111" stroke="#07467E" stroke-width="1.02122"/>
<path d="M246.88 279.581L297.685 279.581" stroke="#07467E" stroke-width="1.02122"/>
<path d="M248.815 290.239L301.261 290.239" stroke="#07467E" stroke-width="1.02122"/>
</g>
<defs>
<radialGradient id="paint0_radial_1693_50115" cx="0" cy="0" r="1" gradientUnits="userSpaceOnUse" gradientTransform="translate(3.20208e-05 -90.9384) rotate(54.6676) scale(1176.05 1330.47)">
<stop offset="0.09375" stop-color="#0A1A69"/>
<stop offset="0.410829" stop-color="#0A1A69"/>
<stop offset="1" stop-color="#07134E"/>
</radialGradient>
<linearGradient id="paint1_linear_1693_50115" x1="40.8489" y1="321.123" x2="-175.698" y2="260.124" gradientUnits="userSpaceOnUse">
<stop stop-color="#0C2083"/>
<stop offset="1" stop-color="#0C2083"/>
</linearGradient>
<linearGradient id="paint2_linear_1693_50115" x1="176.917" y1="-6.46748" x2="407.982" y2="192.304" gradientUnits="userSpaceOnUse">
<stop stop-color="#0C2083"/>
<stop offset="1" stop-color="#0C2083" stop-opacity="0"/>
</linearGradient>
<linearGradient id="paint3_linear_1693_50115" x1="186.883" y1="522.083" x2="186.883" y2="309.379" gradientUnits="userSpaceOnUse">
<stop stop-color="#1230C6"/>
<stop offset="1" stop-color="#0C2083" stop-opacity="0"/>
</linearGradient>
<linearGradient id="paint4_linear_1693_50115" x1="120.215" y1="326.708" x2="51.4485" y2="360.162" gradientUnits="userSpaceOnUse">
<stop stop-color="#1230C6"/>
<stop offset="1" stop-color="#0C2083"/>
</linearGradient>
<linearGradient id="paint5_linear_1693_50115" x1="117.583" y1="299.869" x2="280.534" y2="454.857" gradientUnits="userSpaceOnUse">
<stop stop-color="#0A1A69"/>
<stop offset="1" stop-color="#1230C6"/>
</linearGradient>
<linearGradient id="paint6_linear_1693_50115" x1="244.07" y1="140.203" x2="-87.1282" y2="369.201" gradientUnits="userSpaceOnUse">
<stop stop-color="#147EE3"/>
<stop offset="1" stop-color="#83C5FD"/>
</linearGradient>
<linearGradient id="paint7_linear_1693_50115" x1="177.56" y1="138.262" x2="238.827" y2="410.421" gradientUnits="userSpaceOnUse">
<stop stop-color="#0C2083"/>
<stop offset="1" stop-color="#0A1A69"/>
</linearGradient>
<linearGradient id="paint8_linear_1693_50115" x1="235.198" y1="279.069" x2="96.8218" y2="421.83" gradientUnits="userSpaceOnUse">
<stop stop-color="#147EE3"/>
<stop offset="1" stop-color="#147EE3" stop-opacity="0"/>
</linearGradient>
<linearGradient id="paint9_linear_1693_50115" x1="126.632" y1="167.94" x2="41.3989" y2="188.9" gradientUnits="userSpaceOnUse">
<stop stop-color="#147EE3"/>
<stop offset="1" stop-color="#147EE3" stop-opacity="0"/>
</linearGradient>
<linearGradient id="paint10_linear_1693_50115" x1="211.144" y1="167.746" x2="117.833" y2="270.533" gradientUnits="userSpaceOnUse">
<stop stop-color="#147EE3"/>
<stop offset="1" stop-color="#147EE3" stop-opacity="0"/>
</linearGradient>
<linearGradient id="paint11_linear_1693_50115" x1="288.225" y1="259.419" x2="174.92" y2="362.051" gradientUnits="userSpaceOnUse">
<stop stop-color="#147EE3"/>
<stop offset="1" stop-color="#147EE3" stop-opacity="0"/>
</linearGradient>
<linearGradient id="paint12_linear_1693_50115" x1="261.432" y1="202.151" x2="266.028" y2="264.445" gradientUnits="userSpaceOnUse">
<stop stop-color="#D0FF00"/>
<stop offset="1" stop-color="#F8FDE2"/>
</linearGradient>
<linearGradient id="paint13_linear_1693_50115" x1="115" y1="201.857" x2="90.6641" y2="269.603" gradientUnits="userSpaceOnUse">
<stop stop-color="#D0FF00"/>
<stop offset="1" stop-color="#F6FFCC"/>
</linearGradient>
<linearGradient id="paint14_linear_1693_50115" x1="214.053" y1="143.786" x2="155.019" y2="172.239" gradientUnits="userSpaceOnUse">
<stop stop-color="#147EE3"/>
<stop offset="1" stop-color="#147EE3" stop-opacity="0"/>
</linearGradient>
<linearGradient id="paint15_linear_1693_50115" x1="229.871" y1="193.575" x2="186.191" y2="242.789" gradientUnits="userSpaceOnUse">
<stop stop-color="#147EE3"/>
<stop offset="1" stop-color="#147EE3" stop-opacity="0"/>
</linearGradient>
<linearGradient id="paint16_linear_1693_50115" x1="44.8572" y1="385.107" x2="143.938" y2="354.187" gradientUnits="userSpaceOnUse">
<stop stop-color="#0C2083"/>
<stop offset="1" stop-color="#1230C6"/>
</linearGradient>
<linearGradient id="paint17_linear_1693_50115" x1="58.7159" y1="385.107" x2="214.383" y2="288.929" gradientUnits="userSpaceOnUse">
<stop stop-color="#0C2083"/>
<stop offset="1" stop-color="#1230C6"/>
</linearGradient>
<linearGradient id="paint18_linear_1693_50115" x1="135.628" y1="432.478" x2="162.322" y2="522.603" gradientUnits="userSpaceOnUse">
<stop stop-color="#147EE3"/>
<stop offset="1" stop-color="#83C5FD"/>
</linearGradient>
<linearGradient id="paint19_linear_1693_50115" x1="135.628" y1="432.478" x2="162.322" y2="522.603" gradientUnits="userSpaceOnUse">
<stop stop-color="#1230C6"/>
<stop offset="1" stop-color="#0A1A69"/>
</linearGradient>
<linearGradient id="paint20_linear_1693_50115" x1="190.144" y1="441.758" x2="193.963" y2="498.955" gradientUnits="userSpaceOnUse">
<stop stop-color="#147EE3"/>
<stop offset="1" stop-color="#83C5FD"/>
</linearGradient>
<linearGradient id="paint21_linear_1693_50115" x1="290.676" y1="433.557" x2="215.384" y2="367.568" gradientUnits="userSpaceOnUse">
<stop stop-color="#1230C6"/>
<stop offset="1" stop-color="#0C2083"/>
</linearGradient>
<clipPath id="clip0_1693_50115">
<rect y="0.507812" width="373.766" height="469.76" rx="31" fill="white"/>
</clipPath>
</defs>
</svg>
