<svg width="438" height="353" viewBox="0 0 438 353" fill="none" xmlns="http://www.w3.org/2000/svg">
<path opacity="0.2" d="M154.35 13.9349C154.724 11.494 156.824 9.69141 159.293 9.69141H190.5L192.94 11.3994C194.506 12.4958 195.31 14.3895 195.011 16.2779L188.168 59.4737C187.783 61.9028 185.689 63.6914 183.23 63.6914H153.603C151.972 63.6914 150.443 62.8954 149.507 61.5587L147.5 58.6914L154.35 13.9349Z" fill="url(#paint0_linear_1878_51668)"/>
<path opacity="0.3" d="M154.337 13.9166C154.719 11.484 156.815 9.69141 159.277 9.69141H189.493C191.335 9.69141 192.742 11.3363 192.456 13.1563L185.663 56.4662C185.281 58.8988 183.185 60.6914 180.723 60.6914H150.507C148.665 60.6914 147.258 59.0465 147.544 57.2265L154.337 13.9166Z" fill="url(#paint1_linear_1878_51668)"/>
<path opacity="0.2" d="M50.0366 100.599C50.2926 98.9265 51.7312 97.6914 53.4231 97.6914H74.8057L76.4776 98.8617C77.5508 99.6129 78.1016 100.91 77.8966 102.204L73.208 131.802C72.9443 133.466 71.5094 134.691 69.8243 134.691H49.5246C48.4067 134.691 47.3591 134.146 46.718 133.23L45.3428 131.265L50.0366 100.599Z" fill="url(#paint2_linear_1878_51668)"/>
<path opacity="0.3" d="M50.0274 100.586C50.2888 98.9197 51.7248 97.6914 53.4119 97.6914H74.1154C75.3777 97.6914 76.3417 98.8185 76.1461 100.066L71.4912 129.741C71.2297 131.408 69.7937 132.636 68.1066 132.636H47.4031C46.1409 132.636 45.1768 131.509 45.3724 130.262L50.0274 100.586Z" fill="url(#paint3_linear_1878_51668)"/>
<path opacity="0.2" d="M345.037 237.599C345.293 235.927 346.731 234.691 348.423 234.691H369.806L371.478 235.862C372.551 236.613 373.102 237.91 372.897 239.204L368.208 268.802C367.944 270.466 366.509 271.691 364.824 271.691H344.525C343.407 271.691 342.359 271.146 341.718 270.23L340.343 268.265L345.037 237.599Z" fill="url(#paint4_linear_1878_51668)"/>
<path opacity="0.3" d="M345.027 237.586C345.289 235.92 346.725 234.691 348.412 234.691H369.115C370.378 234.691 371.342 235.818 371.146 237.066L366.491 266.741C366.23 268.408 364.794 269.636 363.107 269.636H342.403C341.141 269.636 340.177 268.509 340.372 267.262L345.027 237.586Z" fill="url(#paint5_linear_1878_51668)"/>
<path opacity="0.2" d="M373.38 42.7975C373.654 41.0108 375.191 39.6914 376.998 39.6914H399.84L401.626 40.9416C402.773 41.7441 403.361 43.1302 403.142 44.5124L398.134 76.13C397.852 77.908 396.319 79.2172 394.519 79.2172H372.834C371.639 79.2172 370.52 78.6345 369.835 77.6561L368.366 75.5574L373.38 42.7975Z" fill="url(#paint6_linear_1878_51668)"/>
<path opacity="0.3" d="M373.371 42.7841C373.65 41.0035 375.184 39.6914 376.986 39.6914H399.103C400.451 39.6914 401.481 40.8954 401.272 42.2276L396.3 73.9287C396.02 75.7092 394.486 77.0213 392.684 77.0213H370.567C369.219 77.0213 368.189 75.8173 368.398 74.4851L373.371 42.7841Z" fill="url(#paint7_linear_1878_51668)"/>
<path opacity="0.2" d="M19.9917 231.882C20.4486 228.896 23.0167 226.691 26.0371 226.691H64.2089L67.1934 228.781C69.1093 230.122 70.0926 232.438 69.7267 234.748L61.3566 287.584C60.8859 290.555 58.3244 292.743 55.3161 292.743H19.0777C17.082 292.743 15.2118 291.769 14.0674 290.134L11.6123 286.627L19.9917 231.882Z" fill="url(#paint8_linear_1878_51668)"/>
<path opacity="0.3" d="M19.9747 231.86C20.4415 228.884 23.0049 226.691 26.0167 226.691H62.9761C65.2295 226.691 66.9505 228.703 66.6013 230.93L58.2914 283.905C57.8247 286.881 55.2612 289.073 52.2494 289.073H15.29C13.0367 289.073 11.3156 287.061 11.6648 284.835L19.9747 231.86Z" fill="url(#paint9_linear_1878_51668)"/>
<path opacity="0.2" d="M283.393 113.114C283.87 109.995 286.553 107.691 289.708 107.691H329.584L332.702 109.874C334.703 111.275 335.73 113.694 335.348 116.107L326.605 171.302C326.113 174.406 323.437 176.691 320.294 176.691H282.438C280.353 176.691 278.4 175.674 277.204 173.966L274.64 170.303L283.393 113.114Z" fill="url(#paint10_linear_1878_51668)"/>
<path opacity="0.3" d="M283.375 113.09C283.863 109.982 286.541 107.691 289.687 107.691H328.296C330.65 107.691 332.448 109.793 332.083 112.119L323.402 167.459C322.915 170.567 320.237 172.858 317.091 172.858H278.482C276.128 172.858 274.33 170.756 274.694 168.431L283.375 113.09Z" fill="url(#paint11_linear_1878_51668)"/>
<path d="M326.409 81.8872C326.577 80.7782 326.258 79.725 325.533 78.9909L323.968 77.4075C323.874 77.3123 323.74 77.2625 323.593 77.2685L268.51 79.528C268.208 79.5404 267.933 79.7821 267.882 80.0782L256.28 148.408C256.249 148.595 256.313 148.77 256.453 148.875L259.637 151.27C260.223 151.71 260.96 151.945 261.752 151.945H312.215C314.205 151.945 316.068 150.344 316.365 148.378L326.409 81.8872Z" fill="#A6CC00" stroke="#7D9900" stroke-width="0.125318"/>
<g clip-path="url(#clip0_1878_51668)">
<rect width="60.4036" height="74.6037" rx="4.37786" transform="matrix(-1 0 -0.148327 0.988938 325.203 75.4902)" fill="#F6FFCC"/>
<path d="M269.335 150.503C264.513 156.45 257.708 165.383 250.05 178.827L249.245 179.963C248.04 181.665 246.315 182.979 244.377 183.674C242.439 184.369 240.412 184.4 238.653 183.762C237.002 183.165 235.682 182.014 234.901 180.489C234.119 178.964 233.92 177.15 234.334 175.331L234.767 173.436C244.05 149.261 252.626 131 255.558 130.635C256.276 130.544 257.286 130.384 258.445 130.163C261.104 129.647 263.745 129.898 266.034 130.886C268.324 131.874 270.16 133.554 271.312 135.714L271.409 135.899C272.553 138.052 272.966 140.586 272.597 143.184C272.228 145.781 271.093 148.327 269.335 150.503Z" fill="#A6CC00"/>
<path d="M236.761 170.353C243.583 152.618 249.833 137.575 254.244 131.906" stroke="#A6CC00" stroke-width="0.292914" stroke-linecap="round"/>
<path d="M298.949 150.503C301.987 156.45 306.112 165.383 309.737 178.827L310.198 179.963C310.893 181.666 312.222 182.982 313.952 183.679C315.682 184.375 317.701 184.408 319.653 183.771C321.483 183.172 323.146 182.018 324.383 180.491C325.62 178.964 326.361 177.149 326.49 175.331L326.625 173.436C324.594 149.261 321.496 131 318.674 130.634C317.983 130.544 317.021 130.384 315.928 130.163C313.425 129.649 310.712 129.902 308.128 130.889C305.545 131.877 303.207 133.556 301.408 135.714L301.256 135.898C299.466 138.052 298.292 140.586 297.882 143.183C297.472 145.781 297.843 148.327 298.949 150.503Z" fill="#A6CC00"/>
<path d="M319.618 131.906C322.328 137.575 324.066 152.618 325.567 170.353" stroke="#A6CC00" stroke-width="0.292914" stroke-linecap="round"/>
<path d="M319.195 130.633C315.051 130.352 306.467 128.285 299.427 127.028C295.691 121.979 292.835 121.287 288.764 120.559C282.092 120.861 279.568 123.206 275.589 127.028C270.818 127.732 264.571 129.292 255.375 130.491C250.368 137.309 260.275 151.466 258.232 162.523C260.184 174.1 253.148 195.993 252.732 198.764C257.882 201.043 270.998 200.275 278.214 200.275C283.962 200.275 295.59 200.683 300.289 199.565C301.487 199.263 302.22 198.894 302.297 198.377C301.961 196.289 304.083 167.068 308.32 158.226C309.29 146.405 320.798 133.858 319.195 130.633Z" fill="#A6CC00"/>
<path d="M294.148 122.133C295.431 122.511 297.671 124.523 298.904 126.23C299.096 126.496 299.272 126.762 299.428 127.028M299.428 127.028C304.223 127.808 313.747 129.687 318.075 130.491L299.428 127.028ZM299.428 127.028C299.946 129.189 295.188 137.457 291.738 138.185C291.619 136.975 291.196 135.855 290.503 134.921C289.048 135.45 286.234 138.245 285.819 139.587C285.819 139.587 278.497 187.897 277.557 194.159C276.618 200.42 277.336 203.037 277.336 203.037M285.634 139.578C285.621 138.242 283.649 135.441 282.349 134.912C281.376 135.846 280.617 136.966 280.136 138.176C276.904 137.448 274.626 129.18 275.795 127.019" stroke="#A6CC00" stroke-width="0.292914" stroke-linecap="round"/>
<path d="M275.586 127.028C275.821 126.762 276.078 126.496 276.349 126.23C278.094 124.523 280.938 122.511 282.334 122.133" stroke="#A6CC00" stroke-width="0.292914" stroke-linecap="round"/>
<path d="M255.371 130.491C259.94 129.688 270.028 127.808 275.058 127.028" stroke="#A6CC00" stroke-width="0.292914" stroke-linecap="round"/>
<path d="M282.566 120.238C284.739 122.027 291.927 121.946 294.67 120.238C299.583 109.858 302.07 110.849 305.3 98.351C306.538 93.5554 302.478 90.597 302.478 90.597C303.883 88.0646 303.182 85.5565 297.986 84.3387C292.347 83.0151 281.28 88.6569 279.554 97.2541C277.237 108.737 283.583 112.747 282.566 120.238Z" fill="url(#paint12_linear_1878_51668)" stroke="#A6CC00" stroke-width="0.292914" stroke-linecap="round"/>
<path d="M301.31 91.0658C302.35 87.0769 297.274 83.2513 286.118 87.8717" stroke="#A6CC00" stroke-width="0.292914" stroke-linecap="round"/>
<path d="M302.466 90.5967L299.997 91.5969L297.622 92.5609L285.276 121.293" stroke="#A6CC00" stroke-width="0.292914" stroke-linecap="round"/>
<path d="M304.567 100.962C302.887 97.1661 300.504 93.709 296.954 93.5791" stroke="#A6CC00" stroke-width="0.292914" stroke-linecap="round"/>
<path d="M305.288 98.3506C305.288 98.3506 304.335 91.0559 299.983 91.5938" stroke="#A6CC00" stroke-width="0.292914" stroke-linecap="round"/>
<path d="M303.975 102.848C301.182 102.225 298.38 99.2216 296.136 96.0215" stroke="#A6CC00" stroke-width="0.292914" stroke-linecap="round"/>
<path d="M296.591 94.9609C297.217 89.2194 290.736 86.3365 280.246 94.9609" stroke="#A6CC00" stroke-width="0.292914" stroke-linecap="round"/>
<path d="M295.367 97.8099C292.734 95.3924 289.389 95.1507 279.079 101.478" stroke="#A6CC00" stroke-width="0.292914" stroke-linecap="round"/>
<path d="M298.701 91.999C289.051 92.9872 286.469 91.999 283.052 104.567C278.102 101.545 278.554 110.272 281.936 112.007C282.187 112.884 282.579 113.7 283.099 114.424C283.159 119.235 282.286 125.581 279.599 127.593C278.731 133.377 286.199 133.205 286.064 137.68C288.315 133.658 294.654 133.305 295.527 127.479C293.192 124.52 294.507 119.208 295.843 114.654C296.929 113.515 297.359 112.681 297.849 111.998C301.144 111.998 306.54 101.068 299.723 103.839C300.378 97.662 300.644 97.6167 298.701 91.999Z" fill="white" stroke="#A6CC00" stroke-width="0.292914"/>
<path d="M295.535 115.346C295.535 115.346 292.347 118.455 289.36 118.455C286.373 118.455 284.395 115.799 284.395 115.799C287.078 119.286 288.276 121.634 294.19 121C294.45 119.103 294.901 117.209 295.535 115.346Z" fill="url(#paint13_linear_1878_51668)"/>
<path d="M298.506 100.804C297.921 100.393 294.433 99.7861 294.043 100.354C293.653 100.922 293.313 106.845 293 107.304C292.687 107.764 291.861 107.453 290.894 108.287" stroke="#A6CC00" stroke-width="0.292914" stroke-linecap="round"/>
<path d="M292.896 111.127C290.585 111.547 287.541 111.049 286.835 110.671" stroke="#A6CC00" stroke-width="0.292914" stroke-linecap="round"/>
<path d="M296.141 114.357C292.143 118.797 287.203 121.341 283.039 114.357" stroke="#A6CC00" stroke-width="0.292914" stroke-linecap="round"/>
<path d="M299.111 75.4902H280.102L302.995 149.075H322.004L299.111 75.4902Z" fill="white" fill-opacity="0.8"/>
<path d="M312.193 75.4902H306.674L329.567 149.075H335.086L312.193 75.4902Z" fill="white" fill-opacity="0.8"/>
</g>
<rect x="-0.104734" y="0.0901964" width="60.2212" height="74.4213" rx="4.28665" transform="matrix(-1 0 -0.148327 0.988938 325.007 75.4912)" stroke="#7D9900" stroke-width="0.182411"/>
<path d="M70.7952 76.8199C71.0016 75.4537 70.4686 74.1921 69.3901 73.4941L67.6097 72.3418C67.5217 72.2848 67.4137 72.2579 67.2999 72.2646L34.2908 74.2121C33.9952 74.2296 33.7274 74.4658 33.6749 74.7554L26.1089 116.437C26.0821 116.584 26.1156 116.727 26.2019 116.834L28.053 119.123C28.6763 119.894 29.6394 120.33 30.7187 120.33H60.611C62.6014 120.33 64.4645 118.729 64.7614 116.763L70.7952 76.8199Z" fill="#3554EC" stroke="#1230C6" stroke-width="0.125318"/>
<g clip-path="url(#clip1_1878_51668)">
<rect width="38.4891" height="47.5374" rx="4.37786" transform="matrix(-1 0 -0.148327 0.988938 70.2168 71.6348)" fill="#E8EFFD"/>
<path d="M34.6201 119.433C31.5476 123.223 27.2119 128.914 22.3323 137.481L21.8193 138.205C21.051 139.289 19.9523 140.127 18.7174 140.57C17.4824 141.013 16.1905 141.032 15.0697 140.625C14.0176 140.245 13.1768 139.512 12.6789 138.54C12.181 137.568 12.054 136.412 12.3177 135.253L12.594 134.046C18.5089 118.642 23.9733 107.006 25.8416 106.773C26.2994 106.715 26.9426 106.613 27.6811 106.472C29.3755 106.143 31.0581 106.304 32.517 106.933C33.9759 107.562 35.146 108.633 35.8799 110.01L35.942 110.127C36.6709 111.499 36.9342 113.114 36.6991 114.769C36.464 116.424 35.7408 118.047 34.6201 119.433Z" fill="#798DF3"/>
<path d="M13.8649 132.081C18.2117 120.781 22.1943 111.195 25.0049 107.583" stroke="#3554EC" stroke-width="0.292914" stroke-linecap="round"/>
<path d="M53.4897 119.434C55.4254 123.223 58.0537 128.915 60.3636 137.482L60.6574 138.206C61.1001 139.291 61.9473 140.129 63.0496 140.573C64.1519 141.017 65.4384 141.038 66.682 140.632C67.848 140.25 68.908 139.515 69.6962 138.542C70.4845 137.569 70.9566 136.413 71.0387 135.254L71.1245 134.047C69.8305 118.642 67.8565 107.006 66.0581 106.773C65.6177 106.716 65.005 106.614 64.3087 106.473C62.7139 106.146 60.9848 106.307 59.3387 106.936C57.6925 107.565 56.2028 108.635 55.0567 110.01L54.9593 110.128C53.8188 111.5 53.0711 113.114 52.8097 114.77C52.5483 116.425 52.7848 118.047 53.4897 119.434Z" fill="#3554EC"/>
<path d="M66.6604 107.584C68.3874 111.196 69.4947 120.782 70.4515 132.082" stroke="#3554EC" stroke-width="0.292914" stroke-linecap="round"/>
<path d="M66.3899 106.773C63.7494 106.594 58.2797 105.277 53.7941 104.476C51.413 101.259 49.5933 100.818 46.9994 100.354C42.7478 100.546 41.1394 102.04 38.6044 104.476C35.5645 104.925 31.5835 105.918 25.7239 106.683C22.5332 111.027 28.846 120.048 27.5443 127.093C28.7884 134.47 24.3047 148.42 24.0399 150.186C27.3216 151.638 35.6791 151.149 40.277 151.149C43.9398 151.149 51.3489 151.409 54.3428 150.696C55.1066 150.504 55.5735 150.269 55.6228 149.94C55.4083 148.609 56.7604 129.989 59.4602 124.355C60.0786 116.823 67.4116 108.828 66.3899 106.773Z" fill="#798DF3"/>
<path d="M50.4294 101.356C51.2468 101.597 52.674 102.88 53.4595 103.967C53.5819 104.137 53.6945 104.306 53.7935 104.476M53.7935 104.476C56.8491 104.973 62.918 106.17 65.6758 106.682L53.7935 104.476ZM53.7935 104.476C54.1236 105.853 51.0918 111.121 48.8934 111.585C48.818 110.814 48.5482 110.1 48.1068 109.505C47.1795 109.842 45.3862 111.623 45.1219 112.478C45.1219 112.478 40.4562 143.262 39.8578 147.251C39.2594 151.241 39.7169 152.908 39.7169 152.908M45.0041 112.472C44.9957 111.621 43.7392 109.836 42.911 109.499C42.2911 110.094 41.8072 110.808 41.5006 111.579C39.4413 111.115 37.9899 105.847 38.7349 104.47" stroke="#3554EC" stroke-width="0.292914" stroke-linecap="round"/>
<path d="M38.6025 104.476C38.7524 104.306 38.9158 104.137 39.089 103.967C40.2009 102.88 42.0128 101.597 42.9023 101.356" stroke="#3554EC" stroke-width="0.292914" stroke-linecap="round"/>
<path d="M25.7214 106.682C28.6328 106.17 35.061 104.972 38.2656 104.476" stroke="#3554EC" stroke-width="0.292914" stroke-linecap="round"/>
<path d="M43.05 100.149C44.4344 101.289 49.0149 101.237 50.7625 100.149C53.8931 93.5349 55.4782 94.1665 57.5359 86.2025C58.3247 83.1467 55.7379 81.2616 55.7379 81.2616C56.6331 79.648 56.1865 78.0498 52.8754 77.2738C49.2827 76.4305 42.2305 80.0254 41.1309 85.5035C39.6543 92.8205 43.6979 95.3757 43.05 100.149Z" fill="url(#paint14_linear_1878_51668)" stroke="#3554EC" stroke-width="0.292914" stroke-linecap="round"/>
<path d="M54.993 81.5603C55.6562 79.0186 52.4212 76.5809 45.3131 79.525" stroke="#3554EC" stroke-width="0.292914" stroke-linecap="round"/>
<path d="M55.7295 81.2617L54.1563 81.8991L52.643 82.5133L44.7762 100.821" stroke="#3554EC" stroke-width="0.292914" stroke-linecap="round"/>
<path d="M57.0689 87.8662C55.9988 85.4477 54.4802 83.2449 52.218 83.1621" stroke="#3554EC" stroke-width="0.292914" stroke-linecap="round"/>
<path d="M57.5283 86.2024C57.5283 86.2024 56.9209 81.5542 54.1477 81.897" stroke="#3554EC" stroke-width="0.292914" stroke-linecap="round"/>
<path d="M56.6923 89.0675C54.9126 88.6709 53.1272 86.7569 51.6969 84.7178" stroke="#3554EC" stroke-width="0.292914" stroke-linecap="round"/>
<path d="M51.9869 84.0418C52.3859 80.3833 48.256 78.5464 41.572 84.0418" stroke="#3554EC" stroke-width="0.292914" stroke-linecap="round"/>
<path d="M51.2068 85.8575C49.5287 84.317 47.3977 84.163 40.8283 88.195" stroke="#3554EC" stroke-width="0.292914" stroke-linecap="round"/>
<path d="M53.3311 82.1553C47.1825 82.7849 45.537 82.1553 43.3599 90.1635C40.2055 88.238 40.4933 93.7989 42.6488 94.9042C42.8083 95.4634 43.0582 95.9829 43.3899 96.4446C43.4278 99.51 42.8719 103.554 41.1592 104.836C40.6064 108.521 45.3647 108.412 45.2791 111.263C46.7134 108.701 50.7522 108.475 51.309 104.763C49.8206 102.878 50.6588 99.4927 51.5101 96.5909C52.2022 95.865 52.4763 95.3336 52.7885 94.8984C54.8882 94.8984 58.3261 87.9338 53.9824 89.6995C54.3997 85.7637 54.5692 85.7348 53.3311 82.1553Z" fill="white" stroke="#3554EC" stroke-width="0.292914"/>
<path d="M51.3135 97.0322C51.3135 97.0322 49.2821 99.0136 47.3788 99.0136C45.4754 99.0136 44.2148 97.3211 44.2148 97.3211C45.9248 99.5431 46.6881 101.039 50.4562 100.635C50.6222 99.4266 50.9094 98.2197 51.3135 97.0322Z" fill="url(#paint15_linear_1878_51668)"/>
<path d="M53.2073 87.7662C52.8345 87.5043 50.612 87.1173 50.3633 87.4793C50.1146 87.8413 49.8985 91.6153 49.699 91.908C49.4996 92.2007 48.9733 92.0024 48.357 92.5338" stroke="#3554EC" stroke-width="0.292914" stroke-linecap="round"/>
<path d="M49.6322 94.3435C48.1592 94.6111 46.2199 94.2934 45.77 94.0527" stroke="#3554EC" stroke-width="0.292914" stroke-linecap="round"/>
<path d="M51.7002 96.4023C49.1529 99.2309 46.0052 100.852 43.352 96.4023" stroke="#3554EC" stroke-width="0.292914" stroke-linecap="round"/>
<path d="M53.5904 71.6348H41.4776L56.065 118.523H68.1777L53.5904 71.6348Z" fill="white" fill-opacity="0.8"/>
<path d="M61.9263 71.6348H58.4097L72.9971 118.523H76.5137L61.9263 71.6348Z" fill="white" fill-opacity="0.8"/>
</g>
<rect x="-0.104734" y="0.0901964" width="38.3067" height="47.355" rx="4.28665" transform="matrix(-1 0 -0.148327 0.988938 70.0207 71.6358)" stroke="#1230C6" stroke-width="0.182411"/>
<path d="M49.8454 249.744C50.0483 248.401 49.5366 247.157 48.4907 246.452L46.1134 244.848C46.0229 244.787 45.9104 244.759 45.7917 244.767L10.3279 247.143C10.0358 247.163 9.77201 247.396 9.71763 247.682L1.11678 292.908C1.08579 293.071 1.12828 293.228 1.23303 293.338L3.72513 295.947C4.34887 296.6 5.23905 296.961 6.22183 296.961H39.1012C41.0916 296.961 42.9547 295.36 43.2517 293.394L49.8454 249.744Z" fill="#A6CC00" stroke="#536600" stroke-width="0.125318"/>
<g clip-path="url(#clip2_1878_51668)">
<rect width="41.5675" height="51.3396" rx="4.37786" transform="matrix(-1 0 -0.148327 0.988938 49.1836 244.367)" fill="#ECFF99"/>
<path d="M41.7368 283.042C35.4645 281.9 31.2477 281.071 28.748 280.637C26.7902 278.395 26.2697 277.083 21.9431 275.945C18.8722 276.909 16.859 276.499 13.3881 280.287C9.1005 280.958 4.0925 281.886 -0.261785 282.619C-1.46432 288.937 3.6887 290.849 2.01384 303.241C3.27979 310.728 -1.27518 324.893 -1.54375 326.684C1.79187 328.158 10.2878 327.662 14.959 327.662C18.6816 327.662 26.2139 327.925 29.2547 327.202C30.0309 327.007 30.5053 326.768 30.5555 326.434C30.3352 325.083 31.706 306.181 34.451 300.461C35.0754 292.833 41.1883 288.82 41.7368 283.042Z" fill="#7D9900"/>
<path d="M18.0636 277.032C16.7293 277.325 14.8607 278.823 13.8792 279.781C13.7033 279.953 13.5369 280.127 13.3849 280.297M13.3849 280.297C9.88926 280.838 3.41561 281.829 0.164626 282.584L13.3849 280.297ZM13.3849 280.297C12.6296 281.697 14.104 287.043 16.197 287.514C16.3359 286.795 16.6906 286.102 17.2144 285.526C17.9154 285.608 19.9015 288.4 19.6695 289.946" stroke="#7D9900" stroke-width="0.364821" stroke-linecap="round"/>
<path d="M28.7419 280.637C28.6393 280.465 28.3907 279.949 28.2663 279.777C27.5722 278.819 26.3469 277.542 25.1006 277.249M19.9544 289.203C20.1864 287.657 23.1671 285.608 23.8907 285.526C24.2437 286.101 24.3906 286.794 24.3118 287.514C26.556 287.043 29.0847 282.04 28.7518 280.637M41.7367 283.041C38.7138 282.289 32.0791 281.178 28.7479 280.637L41.7367 283.041Z" stroke="#7D9900" stroke-width="0.291857" stroke-linecap="round"/>
<path d="M19.6689 289.946L13.9553 328.041" stroke="#7D9900" stroke-width="0.364821" stroke-linecap="round"/>
<path d="M7.03708 291.819C7.51139 290.64 7.69096 289.405 7.55945 288.228C7.42795 287.051 6.98955 285.968 6.28413 285.079C5.57872 284.191 4.6287 283.523 3.52054 283.139C2.41238 282.754 1.18125 282.663 -0.0607805 282.876L-0.182558 282.897C-1.6165 283.144 -5.4334 288.686 -10.3724 303.686C-11.5974 307.4 -1.80482 310.221 -0.00754774 309.159C3.28624 301.15 5.49587 295.653 7.03708 291.819Z" fill="#7D9900"/>
<path d="M-0.69598 283.421C-4.18727 287.121 -7.06994 295.459 -10.5094 304.426C-9.51346 308.207 -3.19786 309.034 -0.184287 309.19C0.692026 307.3 0.7649 305.826 2.21573 304.426" stroke="#7D9900" stroke-width="0.364821" stroke-linecap="round"/>
<path d="M2.40408 304.201C3.07678 295.105 2.69204 298.843 2.32352 298.415C1.34678 302.819 -2.88523 310.51 -10.4315 304.569C-9.4215 308.914 -1.15573 308.596 -0.312741 309.233C0.448457 307.636 1.28264 305.355 2.40408 304.201Z" fill="url(#paint16_linear_1878_51668)"/>
<path d="M33.2973 309.179C34.777 310.235 45.4168 307.42 45.3041 303.706C44.8646 288.706 42.7101 283.164 41.3501 282.917L41.2348 282.896C40.0564 282.683 38.7981 282.773 37.5742 283.157C36.3504 283.542 35.2 284.209 34.2278 285.098C33.2556 285.987 32.4925 287.07 32.0081 288.247C31.5236 289.425 31.3332 290.66 31.4541 291.839C31.8462 295.667 32.4069 301.164 33.2973 309.179Z" fill="#7D9900"/>
<path d="M32.4926 304.437C33.5255 305.836 33.1543 307.31 33.4655 309.201C36.526 309.044 43.0966 308.223 45.2196 304.437C44.4701 295.47 44.0865 287.132 41.7072 283.432" stroke="#7D9900" stroke-width="0.291857" stroke-linecap="round"/>
<path d="M33.5811 309.248C34.6192 308.61 42.7854 308.929 45.099 304.583C35.7706 310.524 33.847 302.824 34.19 298.429C33.6931 298.858 34.4295 295.12 32.3737 304.216C33.1491 305.369 33.3026 307.653 33.5811 309.248Z" fill="url(#paint17_linear_1878_51668)"/>
<path d="M32.0628 261.234C33.0212 257.993 31.7181 256.194 29.8487 256.472C30.4015 256.251 30.4961 254.974 30.1985 254.14C24.9622 252.321 18.2519 253.231 15.9782 262.264L18.143 275.497L25.8403 274.146L32.0628 261.234Z" fill="#7D9900"/>
<path d="M28.1547 257.977C23.5129 263.894 20.2351 257.977 17.9953 266.297C14.8013 264.287 15.0735 270.073 17.2568 271.221C17.4166 271.802 17.6683 272.344 18.0037 272.828C18.0322 276.01 17.4552 280.213 15.7083 281.545C15.1342 285.372 19.9706 285.259 19.8738 288.222C21.3382 285.56 25.4458 285.325 26.0243 281.468C24.5175 279.513 25.3811 275.995 26.2564 272.978C26.9621 272.226 27.2426 271.672 27.5616 271.219C29.6937 271.219 33.2109 263.986 28.7926 265.818C29.2287 261.724 29.9292 258.174 28.1547 257.977Z" fill="white" stroke="#7D9900" stroke-width="0.364821"/>
<path d="M25.9258 273.444C25.9258 273.444 23.9079 275.595 21.9734 275.595C20.039 275.595 18.7555 273.876 18.7555 273.876C20.4958 276.132 21.2718 277.651 25.1015 277.241C25.3365 275.7 25.5105 274.711 25.9258 273.444Z" fill="url(#paint18_linear_1878_51668)"/>
<path d="M28.281 262.693C27.9019 262.427 25.6038 262.349 25.1286 263.383C24.6534 264.417 24.6588 267.582 24.4542 267.879C24.2496 268.176 23.7166 267.975 23.0904 268.514" stroke="#7D9900" stroke-width="0.364821" stroke-linecap="round"/>
<path d="M24.3883 270.351C22.8913 270.623 20.9203 270.3 20.4629 270.056" stroke="#7D9900" stroke-width="0.364821" stroke-linecap="round"/>
<path d="M26.4512 272.707C23.8624 275.581 20.6618 277.225 17.9645 272.707" stroke="#7D9900" stroke-width="0.364821" stroke-linecap="round"/>
<path d="M12.6609 244.367H8.86306L24.6172 295.005H28.415L12.6609 244.367Z" fill="white" fill-opacity="0.8"/>
<path d="M3.94022 248.024H-9.14132L6.61279 298.663H19.6943L3.94022 248.024Z" fill="white" fill-opacity="0.8"/>
<path d="M47.826 237.334H34.7444L50.4985 287.972H63.5801L47.826 237.334Z" fill="white" fill-opacity="0.8"/>
</g>
<rect x="-0.104734" y="0.0901964" width="41.3851" height="51.1571" rx="4.28665" transform="matrix(-1 0 -0.148327 0.988938 48.9875 244.368)" stroke="#536600" stroke-width="0.182411"/>
<path d="M186.397 5.64551C186.565 4.53653 186.246 3.48337 185.521 2.74925L184.856 2.07649C184.762 1.98128 184.628 1.93146 184.481 1.93747L146.84 3.48147C146.539 3.49384 146.263 3.73558 146.213 4.0317L138.277 50.7675C138.245 50.9541 138.31 51.1293 138.45 51.2343L140.279 52.6097C140.865 53.0501 141.601 53.2855 142.394 53.2855H175.589C177.58 53.2855 179.443 51.6843 179.74 49.7185L186.397 5.64551Z" fill="#A6CC00" stroke="#7D9900" stroke-width="0.125318"/>
<g clip-path="url(#clip3_1878_51668)">
<rect width="41.5675" height="51.3396" rx="4.37786" transform="matrix(-1 0 -0.148327 0.988938 185.672 0.691406)" fill="#ECFF99"/>
<path d="M159.552 35.0664L159.51 35.0807L159.469 35.0711C159.12 34.9886 158.655 35.0078 158.093 35.1256C157.533 35.2431 156.886 35.4566 156.18 35.7534C154.767 36.3469 153.129 37.2682 151.491 38.3991C148.218 40.6587 144.979 43.733 143.541 46.6634C139.995 70.2917 131.731 99.1965 124.276 120.045C126.311 120.993 129.696 121.749 133.765 122.264C137.898 122.788 142.724 123.062 147.529 123.042C152.335 123.022 157.117 122.707 161.164 122.055C163.188 121.728 165.024 121.317 166.587 120.818C168.109 120.331 169.362 119.763 170.273 119.112C168.479 86.0712 170.136 66.9121 171.648 49.4216C171.785 47.8463 171.92 46.2845 172.051 44.7273C171.152 41.3378 169.123 38.5494 166.766 36.7954C164.398 35.0333 161.727 34.3337 159.552 35.0664Z" fill="#7D9900" stroke="#7D9900" stroke-width="0.292914"/>
<path d="M126.38 64.1351L126.261 64.4665C125.785 65.7891 125.803 67.1667 126.313 68.3356C126.822 69.5045 127.787 70.3826 129.023 70.8019L129.399 70.9267C130.561 71.3203 131.888 71.2828 133.153 70.8207C134.419 70.3586 135.545 69.5004 136.339 68.3925C139.289 63.178 143.186 56.4255 148.9 47.0627C151.73 42.4252 147.984 37.4856 142.858 39.1113L142.667 39.1718C139.287 40.2751 132.364 52.3806 126.38 64.1351Z" fill="#F8FDE2"/>
<path d="M126.783 63.6559C132.142 53.2191 138.197 42.6302 141.797 39.7861" stroke="#A6CC00" stroke-width="0.292914" stroke-linecap="round"/>
<path d="M184.71 64.1674L184.73 64.4988C184.809 65.8214 184.378 67.1989 183.518 68.3678C182.657 69.5367 181.429 70.4148 180.068 70.8341L179.655 70.9589C178.374 71.3527 177.058 71.3153 175.931 70.8532C174.803 70.3911 173.935 69.5328 173.472 68.4247C172.086 63.2102 170.215 56.4577 167.31 47.095C165.871 42.4575 171.098 37.5178 175.737 39.1436L175.909 39.204C178.961 40.3073 182.253 52.4128 184.71 64.1674Z" fill="#F8FDE2"/>
<path d="M184.451 63.6881C182.224 53.2513 179.345 42.6625 176.598 39.8184" stroke="#A6CC00" stroke-width="0.292914" stroke-linecap="round"/>
<path d="M142.957 39.1605C145.402 38.3671 149.688 38.0396 151.396 37.3223C150.64 40.1001 150.656 42.8701 152.367 44.5173C152.799 44.9325 155.519 42.373 155.942 42.7629C153.77 47.3712 157.253 47.3458 157.058 48.8059" stroke="#A6CC00" stroke-width="0.292914" stroke-linecap="round"/>
<path d="M170.378 41.1777H146.747L133.594 96.3443C146.554 101.935 153.714 101.12 166.415 96.3443L170.378 41.1777Z" fill="#7D9900"/>
<path d="M174.541 38.8391C171.459 38.1608 162.127 36.9697 162.127 36.9697L151.815 78.2511L152.999 120.3C157.894 118.351 162.953 121.4 170.31 119.226C169.738 100.173 169.99 63.2976 174.541 38.8391Z" fill="#F8FDE2"/>
<path d="M161.385 40.9443L159.777 47.153M171.606 59.198C166.798 91.2531 171.451 104.446 170.282 119.072C163.455 121.47 157.466 118.273 152.941 120.242L152.041 77.0209M152.041 77.0209L165.097 52.849L159.778 47.1471L152.041 77.0209ZM152.041 77.0189L159.781 47.153" stroke="#7D9900" stroke-width="0.292914"/>
<path d="M144.414 38.868L158.111 36.2754L154.632 76.2253L141.364 119.766C138.381 118.273 130.505 121.715 124.248 119.446C127.268 101.836 137.673 91.8123 144.414 38.868Z" fill="#F8FDE2"/>
<path d="M154.63 76.4633C154.948 76.208 155.489 56.6989 155.755 46.6208L154.63 76.4633ZM154.63 76.4633C151.323 66.8608 150.017 61.4806 148.66 51.9483L155.747 46.6208L154.63 76.4633ZM155.747 46.6208C155.837 43.1002 155.893 40.7318 155.893 40.7318L153.515 37.373L146.756 41.6909L155.747 46.6208Z" fill="#F8FDE2"/>
<path d="M141.273 57.8373C138.731 83.4732 125.871 108.308 124.161 119.712C130.328 121.53 134.331 118.932 141.287 119.979C141.287 119.979 154.254 78.9682 154.63 76.4633M154.63 76.4633C154.948 76.208 155.489 56.6989 155.755 46.6208L154.63 76.4633ZM154.63 76.4633C151.323 66.8608 150.017 61.4806 148.66 51.9483L155.747 46.6208M154.63 76.4633L155.747 46.6208M155.747 46.6208C155.837 43.1002 155.893 40.7318 155.893 40.7318L153.515 37.373L146.756 41.6909L155.747 46.6208Z" stroke="#A6CC00" stroke-width="0.292914"/>
<path d="M175.735 39.1605C173.526 38.3671 169.339 38.0396 167.848 37.3223C167.77 40.1001 166.923 42.8701 164.718 44.5173C164.161 44.9325 162.209 42.373 161.668 42.7629C162.459 47.3712 158.984 47.3458 158.739 48.8059" stroke="#A6CC00" stroke-width="0.292914" stroke-linecap="round"/>
<path d="M169.332 12.4691C166.486 8.58798 159.119 8.63282 154.402 13.5179C151.329 16.7012 151.332 26.2237 150.466 32.9431C150.292 34.2743 149.766 35.5888 148.94 36.7541C148.142 37.9237 147.474 38.5397 148.124 38.8575C150.199 39.4793 147.083 73.5792 161.571 56.6316C160.832 62.3081 153.883 74.2985 156.462 75.7898C159.251 78.7489 159.407 78.7645 160.075 78.8288C162.933 79.1056 163.092 74.4857 165.165 75.7898C165.956 72.4759 170.255 39.5319 170.705 38.8575C171.379 37.8418 169.384 33.9548 170.11 31.5045C172.478 23.5102 171.649 13.5179 169.332 12.4691Z" fill="#A6CC00"/>
<path d="M162.489 14.582C165.103 14.582 167.7 16.1279 167.376 23.3229C166.904 26.4672 165.363 28.1202 163.066 30.3405C160.384 32.4556 158.882 32.2022 156.956 30.3405C154.918 27.3814 155.025 25.7557 155.541 22.319C156.056 18.8823 159.875 14.582 162.489 14.582Z" fill="#F8FDE2" stroke="#7D9900" stroke-width="0.292914" stroke-linecap="round"/>
<path d="M165.676 20.1279C165.676 20.1279 163.41 20.5178 163.068 21.1669C162.726 21.8161 162.665 24.3912 162.52 24.8181C162.375 25.245 161.288 25.8571 161.288 25.8571" stroke="#7D9900" stroke-width="0.292914" stroke-linecap="round"/>
<path d="M161.32 27.803C160.467 27.8634 159.99 27.8498 159.16 27.4287" stroke="#7D9900" stroke-width="0.292914" stroke-linecap="round"/>
<path d="M167.547 23.7949C166.775 26.4948 165.82 27.9607 163.274 30.3759C163.274 30.3759 165.48 35.0661 163.342 40.5125C161.204 45.959 162.156 53.809 162.156 53.809C164.065 46.7037 165.705 40.2162 167.547 23.7949Z" fill="#A6CC00"/>
<path d="M164.654 42.9371C158.628 56.0932 156.917 51.0483 154.88 45.021C153.546 41.0891 152.071 36.7382 149.164 36.746M150.674 32.8336L150.672 32.8317C150.866 31.2781 151.018 29.5802 151.176 27.853C151.188 27.738 151.191 27.623 151.208 27.51C151.377 25.6211 151.554 23.7068 151.799 21.9017C151.997 20.2567 152.331 18.6104 152.799 16.9796C153.241 15.5449 153.804 14.3928 154.537 13.6345C159.169 8.83717 166.006 8.79817 169.181 12.5994L169.193 12.6131H169.209C169.99 13.1959 170.585 14.1589 170.988 15.4143C171.416 16.8528 171.638 18.3687 171.649 19.9231C171.731 23.3559 171.111 27.4866 169.933 31.4671C169.756 32.1775 169.716 32.8945 169.813 33.5802C169.902 34.325 170.036 35.0578 170.213 35.7752C170.242 35.9 170.27 36.0247 170.3 36.1456C170.43 36.7089 170.552 37.2255 170.617 37.668C170.655 37.893 170.67 38.124 170.664 38.3581C170.667 38.4944 170.632 38.6347 170.561 38.7636C170.54 38.7966 170.523 38.8321 170.512 38.8688C170.501 38.9019 170.486 38.9409 170.479 38.9838C170.456 39.0716 170.423 39.1885 170.402 39.3289C170.343 39.6174 170.264 40.0111 170.191 40.4985C170.027 41.4712 169.823 42.8299 169.581 44.4478C169.103 47.6857 168.497 51.9723 167.882 56.3389L167.79 56.9529C167.205 61.1167 166.611 65.3234 166.116 68.7192C165.642 71.9551 165.258 74.4483 165.044 75.4951C164.88 75.4148 164.695 75.3716 164.502 75.3684C164.262 75.3702 164.017 75.4535 163.81 75.6043C163.602 75.7589 163.416 75.9426 163.261 76.1481C163.098 76.3509 162.94 76.5809 162.783 76.8109L162.768 76.8343C162.469 77.3155 162.101 77.7593 161.679 78.1501C161.459 78.3382 161.204 78.4803 160.934 78.5655C160.665 78.6506 160.388 78.6766 160.125 78.6414C159.983 78.6334 159.845 78.6079 159.715 78.5653C159.525 78.4846 159.352 78.3756 159.202 78.2417C158.739 77.8675 158.012 77.1326 156.615 75.6511L156.6 75.6354L156.58 75.6238C156.315 75.4717 156.157 75.1754 156.104 74.7232C156.065 74.1472 156.117 73.5555 156.261 72.9688C156.556 71.5633 157.201 69.764 157.954 67.8147C158.23 67.1071 158.519 66.378 158.808 65.645C159.312 64.376 159.828 63.0778 160.283 61.8419C160.996 59.9003 161.574 58.0718 161.765 56.6313C161.864 56.2433 161.977 55.8047 162.103 55.3233C163.011 51.8183 164.482 46.1379 165.161 42.2392C165.502 40.284 167.334 28.2137 167.537 26.3988C167.807 24.1098 167.797 21.8376 167.509 19.6307C167.401 18.7952 167.195 17.9878 166.897 17.2233C166.558 16.5418 166.088 15.9431 165.508 15.4552C164.3 14.5838 163.009 14.4103 162.952 14.5039C162.895 14.5975 164.313 14.5741 165.71 15.9737C166.162 16.4318 166.284 16.7983 166.54 17.4065C166.829 18.1494 167.026 18.934 167.129 19.7457C167.414 21.9201 167.423 24.1589 167.158 26.4144M166.619 30.2722C165.87 33.0715 165.109 35.0812 164.293 36.4653C163.721 37.4399 163.12 38.1222 162.475 38.5452C161.852 38.9513 161.131 39.1393 160.448 39.0735C159.673 38.9848 158.942 38.7556 158.29 38.3971C157.468 37.9623 156.681 37.474 155.935 36.9351C155.466 36.6076 154.982 36.2586 154.482 35.8961C153.29 35.0364 152.01 34.1104 150.613 33.2625C150.417 34.4096 149.964 35.5367 149.287 36.5608M149.034 36.9351C148.896 37.13 148.764 37.3152 148.642 37.4789C148.607 37.5296 148.573 37.5764 148.538 37.6232C148.4 37.8065 148.274 37.9966 148.159 38.1924C148.094 38.2902 148.058 38.4013 148.058 38.5101C148.065 38.5589 148.095 38.6213 148.229 38.6856C148.334 38.7281 148.42 38.8011 148.477 38.8961C148.55 39.0104 148.607 39.1347 148.648 39.2665C148.763 39.6454 148.847 40.0363 148.901 40.4361C149.042 41.4108 149.149 42.7266 149.261 44.2354C149.274 44.3991 149.286 44.5687 149.298 44.7383C149.518 47.6623 149.78 51.214 150.388 54.2667C150.654 55.7476 151.087 57.1723 151.681 58.5163C152.235 59.6859 152.919 60.5261 153.762 60.914C154.604 61.3019 155.601 61.2551 156.859 60.5923C158.118 59.9296 159.622 58.643 161.407 56.5591" stroke="#7D9900" stroke-width="0.292914" stroke-linecap="round"/>
<path d="M140.428 0.691406H127.346L143.1 51.3296H156.182L140.428 0.691406Z" fill="white" fill-opacity="0.8"/>
<path d="M147.742 0.691406H143.944L159.698 51.3296H163.496L147.742 0.691406Z" fill="white" fill-opacity="0.8"/>
</g>
<rect x="-0.104734" y="0.0901964" width="41.3851" height="51.1571" rx="4.28665" transform="matrix(-1 0 -0.148327 0.988938 185.476 0.692404)" stroke="#536600" stroke-width="0.182411"/>
<path d="M428.928 180.016C429.096 178.907 428.777 177.854 428.052 177.12L426.365 175.413C426.271 175.318 426.137 175.268 425.991 175.274L368.548 177.631C368.247 177.643 367.971 177.885 367.921 178.181L355.823 249.431C355.791 249.618 355.856 249.793 355.995 249.898L359.363 252.43C359.948 252.871 360.685 253.106 361.478 253.106H414.276C416.266 253.106 418.129 251.505 418.426 249.539L428.928 180.016Z" fill="#798DF3" stroke="#0C2083" stroke-width="0.125318"/>
<g clip-path="url(#clip4_1878_51668)">
<rect width="62.9508" height="77.7498" rx="4.37786" transform="matrix(-1 0 -0.148327 0.988938 427.66 173.424)" fill="#E8EFFD"/>
<path d="M388.089 225.411L388.047 225.425L388.006 225.416C387.463 225.288 386.746 225.319 385.89 225.498C385.034 225.678 384.049 226.003 382.976 226.454C380.83 227.356 378.343 228.754 375.859 230.47C370.893 233.898 365.968 238.57 363.784 243.032C358.411 278.833 345.884 322.64 334.589 354.219C337.675 355.67 342.833 356.824 349.032 357.61C355.294 358.403 362.605 358.819 369.885 358.788C377.166 358.758 384.413 358.281 390.547 357.292C393.614 356.797 396.4 356.174 398.772 355.416C401.103 354.671 403.025 353.797 404.418 352.792C401.698 302.731 404.208 273.711 406.499 247.216C406.706 244.827 406.911 242.457 407.11 240.095C405.746 234.943 402.664 230.704 399.08 228.038C395.487 225.364 391.418 224.29 388.089 225.411Z" fill="#3554EC" stroke="#3554EC" stroke-width="0.292914"/>
<path d="M337.868 269.504L337.688 270.006C336.967 272.009 336.994 274.095 337.766 275.865C338.538 277.635 339.999 278.965 341.87 279.6L342.439 279.789C344.199 280.385 346.209 280.328 348.125 279.629C350.042 278.929 351.747 277.629 352.95 275.951C357.418 268.054 363.32 257.828 371.972 243.649C376.259 236.626 370.586 229.145 362.822 231.607L362.534 231.699C357.414 233.37 346.929 251.702 337.868 269.504Z" fill="#E8EFFD"/>
<path d="M338.478 268.778C346.593 252.972 355.762 236.936 361.215 232.629" stroke="#798DF3" stroke-width="0.292914" stroke-linecap="round"/>
<path d="M426.205 269.555L426.234 270.056C426.355 272.059 425.701 274.146 424.399 275.916C423.096 277.686 421.236 279.016 419.174 279.651L418.548 279.84C416.609 280.436 414.616 280.379 412.909 279.68C411.201 278.98 409.886 277.68 409.186 276.002C407.086 268.105 404.253 257.879 399.853 243.7C397.674 236.677 405.59 229.196 412.616 231.658L412.877 231.749C417.498 233.42 422.483 251.753 426.205 269.555Z" fill="#E8EFFD"/>
<path d="M425.813 268.829C422.439 253.023 418.08 236.987 413.919 232.68" stroke="#798DF3" stroke-width="0.292914" stroke-linecap="round"/>
<path d="M362.972 231.681C366.675 230.48 373.165 229.984 375.752 228.897C374.607 233.104 374.632 237.299 377.222 239.794C377.877 240.423 381.996 236.546 382.636 237.137C379.347 244.116 384.622 244.077 384.326 246.289" stroke="#798DF3" stroke-width="0.292914" stroke-linecap="round"/>
<path d="M404.499 234.737H368.711L348.792 318.283C368.419 326.75 379.262 325.516 398.498 318.283L404.499 234.737Z" fill="#3554EC"/>
<path d="M410.805 231.194C406.138 230.167 392.004 228.363 392.004 228.363L376.388 290.881L378.181 354.561C385.594 351.609 393.255 356.226 404.397 352.935C403.53 324.08 403.912 268.235 410.805 231.194Z" fill="#E8EFFD"/>
<path d="M390.879 234.383L388.445 243.785M406.358 262.027C399.077 310.572 406.123 330.552 404.353 352.702C394.014 356.333 384.945 351.491 378.092 354.473L376.729 289.018M376.729 289.018L396.501 252.412L388.446 243.776L376.729 289.018ZM376.729 289.015L388.451 243.785" stroke="#3554EC" stroke-width="0.292914"/>
<path d="M365.178 231.239L385.921 227.312L380.653 287.814L360.559 353.753C356.041 351.491 344.115 356.705 334.639 353.268C339.212 326.599 354.971 311.419 365.178 231.239Z" fill="#E8EFFD"/>
<path d="M380.65 288.174C381.132 287.787 381.951 258.242 382.354 242.98L380.65 288.174ZM380.65 288.174C375.643 273.632 373.664 265.484 371.608 251.048L382.342 242.98L380.65 288.174ZM382.342 242.98C382.479 237.648 382.563 234.061 382.563 234.061L378.961 228.975L368.726 235.514L382.342 242.98Z" fill="#E8EFFD"/>
<path d="M360.422 259.966C356.572 298.79 337.097 336.4 334.507 353.67C343.847 356.424 349.909 352.489 360.443 354.074C360.443 354.074 380.081 291.967 380.65 288.174M380.65 288.174C381.132 287.787 381.951 258.242 382.354 242.98L380.65 288.174ZM380.65 288.174C375.643 273.632 373.664 265.484 371.608 251.048L382.342 242.98M380.65 288.174L382.342 242.98M382.342 242.98C382.479 237.648 382.563 234.061 382.563 234.061L378.961 228.975L368.726 235.514L382.342 242.98Z" stroke="#798DF3" stroke-width="0.292914"/>
<path d="M412.612 231.681C409.266 230.48 402.925 229.984 400.667 228.897C400.55 233.104 399.267 237.299 395.928 239.794C395.084 240.423 392.128 236.546 391.308 237.137C392.506 244.116 387.243 244.077 386.873 246.289" stroke="#798DF3" stroke-width="0.292914" stroke-linecap="round"/>
<path d="M402.915 191.26C398.605 185.383 387.448 185.451 380.305 192.849C375.65 197.669 375.655 212.091 374.343 222.267C374.081 224.283 373.284 226.273 372.033 228.038C370.824 229.809 369.812 230.742 370.797 231.223C373.94 232.165 369.221 283.807 391.162 258.141C390.042 266.738 379.518 284.896 383.425 287.155C387.648 291.636 387.884 291.66 388.896 291.757C393.225 292.176 393.465 285.18 396.605 287.155C397.802 282.136 404.312 232.245 404.994 231.223C406.016 229.685 402.994 223.799 404.094 220.088C407.68 207.981 406.424 192.849 402.915 191.26Z" fill="#798DF3"/>
<path d="M392.551 194.46C396.509 194.46 400.442 196.801 399.951 207.697C399.237 212.459 396.903 214.963 393.425 218.325C389.363 221.528 387.089 221.144 384.171 218.325C381.084 213.844 381.248 211.382 382.028 206.177C382.809 200.972 388.592 194.46 392.551 194.46Z" fill="#E8EFFD" stroke="#3554EC" stroke-width="0.292914" stroke-linecap="round"/>
<path d="M397.378 202.859C397.378 202.859 393.946 203.45 393.428 204.433C392.911 205.416 392.818 209.316 392.599 209.962C392.38 210.609 390.733 211.536 390.733 211.536" stroke="#3554EC" stroke-width="0.292914" stroke-linecap="round"/>
<path d="M390.781 214.482C389.49 214.573 388.767 214.553 387.511 213.915" stroke="#3554EC" stroke-width="0.292914" stroke-linecap="round"/>
<path d="M400.212 208.412C399.043 212.501 397.597 214.721 393.74 218.379C393.74 218.379 397.081 225.481 393.844 233.73C390.607 241.978 392.048 253.866 392.048 253.866C394.939 243.106 397.422 233.281 400.212 208.412Z" fill="#3554EC"/>
<path d="M395.831 237.402C386.705 257.326 384.113 249.686 381.028 240.558C379.007 234.604 376.774 228.015 372.372 228.026M374.658 222.102L374.656 222.099C374.949 219.746 375.179 217.174 375.419 214.559C375.436 214.385 375.442 214.21 375.467 214.039C375.723 211.179 375.991 208.28 376.362 205.546C376.662 203.055 377.168 200.562 377.877 198.092C378.546 195.919 379.399 194.174 380.509 193.026C387.524 185.761 397.877 185.702 402.686 191.458L402.704 191.479H402.728C403.912 192.362 404.813 193.82 405.423 195.721C406.071 197.9 406.407 200.196 406.423 202.55C406.548 207.748 405.609 214.004 403.825 220.032C403.557 221.108 403.496 222.194 403.643 223.232C403.778 224.36 403.981 225.47 404.249 226.556C404.292 226.745 404.336 226.934 404.38 227.117C404.577 227.97 404.762 228.753 404.861 229.423C404.918 229.764 404.942 230.113 404.931 230.468C404.937 230.674 404.883 230.887 404.776 231.082C404.743 231.132 404.718 231.186 404.702 231.241C404.685 231.292 404.662 231.351 404.652 231.416C404.617 231.548 404.567 231.725 404.535 231.938C404.445 232.375 404.326 232.971 404.215 233.709C403.967 235.182 403.659 237.24 403.291 239.69C402.568 244.594 401.651 251.086 400.719 257.698L400.579 258.628C399.693 264.934 398.794 271.305 398.044 276.447C397.327 281.348 396.746 285.124 396.421 286.709C396.172 286.587 395.892 286.522 395.599 286.517C395.236 286.52 394.866 286.646 394.551 286.874C394.236 287.109 393.955 287.387 393.72 287.698C393.474 288.005 393.234 288.353 392.997 288.702L392.973 288.737C392.52 289.466 391.964 290.138 391.325 290.73C390.991 291.015 390.605 291.23 390.197 291.359C389.789 291.488 389.37 291.527 388.972 291.474C388.757 291.462 388.548 291.423 388.35 291.359C388.063 291.236 387.801 291.071 387.573 290.869C386.873 290.302 385.771 289.189 383.656 286.945L383.633 286.922L383.603 286.904C383.202 286.674 382.961 286.225 382.882 285.54C382.822 284.668 382.902 283.772 383.119 282.883C383.567 280.755 384.543 278.03 385.684 275.078C386.102 274.006 386.539 272.902 386.977 271.792C387.74 269.87 388.521 267.904 389.211 266.032C390.291 263.092 391.166 260.323 391.454 258.141C391.605 257.554 391.777 256.89 391.967 256.16C393.342 250.852 395.569 242.25 396.598 236.346C397.114 233.385 399.889 215.105 400.196 212.357C400.605 208.89 400.591 205.449 400.154 202.107C399.99 200.841 399.679 199.619 399.227 198.461C398.713 197.429 398.001 196.522 397.123 195.783C395.294 194.464 393.34 194.201 393.253 194.343C393.166 194.484 395.314 194.449 397.43 196.569C398.114 197.262 398.299 197.817 398.686 198.738C399.123 199.863 399.423 201.052 399.579 202.281C400.01 205.574 400.024 208.964 399.623 212.38M398.806 218.222C397.672 222.462 396.52 225.505 395.283 227.601C394.417 229.077 393.506 230.111 392.529 230.751C391.586 231.366 390.494 231.651 389.46 231.551C388.287 231.417 387.18 231.07 386.192 230.527C384.947 229.868 383.756 229.129 382.626 228.313C381.915 227.817 381.182 227.288 380.426 226.739C378.621 225.437 376.682 224.035 374.567 222.751C374.269 224.488 373.583 226.195 372.558 227.746M372.174 228.313C371.966 228.608 371.765 228.888 371.582 229.136C371.529 229.213 371.476 229.284 371.424 229.355C371.215 229.633 371.023 229.92 370.85 230.217C370.751 230.365 370.697 230.533 370.697 230.698C370.707 230.772 370.752 230.866 370.956 230.964C371.115 231.028 371.245 231.139 371.332 231.283C371.442 231.456 371.529 231.644 371.591 231.844C371.765 232.417 371.892 233.009 371.973 233.615C372.187 235.091 372.348 237.084 372.519 239.369C372.539 239.617 372.557 239.873 372.575 240.13C372.908 244.558 373.304 249.937 374.226 254.56C374.628 256.803 375.284 258.961 376.183 260.996C377.022 262.767 378.058 264.04 379.334 264.627C380.611 265.215 382.12 265.144 384.026 264.14C385.932 263.136 388.209 261.188 390.913 258.032" stroke="#3554EC" stroke-width="0.292914" stroke-linecap="round"/>
<path d="M409.812 173.424H390.001L413.859 250.112H433.67L409.812 173.424Z" fill="white" fill-opacity="0.8"/>
<path d="M370.218 173.424H364.466L388.325 250.112H394.076L370.218 173.424Z" fill="white" fill-opacity="0.8"/>
</g>
<rect x="-0.104734" y="0.0901964" width="62.7684" height="77.5674" rx="4.28665" transform="matrix(-1 0 -0.148327 0.988938 427.464 173.425)" stroke="#0C2083" stroke-width="0.182411"/>
<path d="M184.097 95.5682C184.293 94.2893 183.923 93.0761 183.08 92.2376L180.647 89.8183C180.541 89.712 180.389 89.6565 180.224 89.6632L104.335 92.7221C103.989 92.736 103.672 93.0142 103.615 93.3539L88.1955 185.806C88.1599 186.02 88.2351 186.22 88.3957 186.338L93.0474 189.776C93.7107 190.266 94.5415 190.528 95.4345 190.528H165.374C167.647 190.528 169.78 188.699 170.125 186.455L184.097 95.5682Z" fill="#3554EC" stroke="#3554EC" stroke-width="0.143123"/>
<g clip-path="url(#clip5_1878_51668)">
<rect width="83.0026" height="100.777" rx="4.99985" transform="matrix(-1 0 -0.150886 0.988551 183.033 87.8291)" fill="url(#paint19_linear_1878_51668)"/>
<path d="M176.248 212.556L176.585 215.193C176.858 217.306 176.339 219.559 175.118 221.557C173.898 223.556 172.053 225.174 169.906 226.128C167.752 227.085 165.433 227.313 163.354 226.773C161.276 226.232 159.571 224.957 158.54 223.172L157.418 221.228C155.032 214.048 151.218 202.72 144.248 182.715C141.404 174.553 149.099 165.185 158.276 165.45C158.612 165.45 158.948 165.45 159.284 165.45C163.217 164.77 170.941 189.438 176.248 212.556Z" fill="#798DF3"/>
<path d="M175.897 211.504C171.087 191.785 164.446 171.25 160.076 166.591" stroke="#3554EC" stroke-width="0.416654"/>
<path d="M155.995 214.754C161.759 197.734 153.66 198.824 153.022 185.397C152.88 189.766 152.47 193.829 151.28 204.76C152.226 206.841 155.205 214.754 155.995 214.754Z" fill="url(#paint20_linear_1878_51668)"/>
<path d="M67.1215 212.556L65.9758 215.193C65.0579 217.306 64.8896 219.558 65.5002 221.557C66.1107 223.556 67.4614 225.173 69.3164 226.128C71.1777 227.085 73.4277 227.313 75.6712 226.773C77.9147 226.232 80.0083 224.957 81.5842 223.172L83.3045 221.228C87.8815 214.048 95.1536 202.72 108.231 182.715C113.566 174.553 108.731 165.185 99.4732 165.45C99.1373 165.45 98.8014 165.45 98.4655 165.45C94.7395 164.77 79.4852 189.438 67.1215 212.556Z" fill="#798DF3"/>
<path d="M97.3252 166.591C91.5288 171.25 78.6186 191.785 67.794 211.504" stroke="#3554EC" stroke-width="0.416654"/>
<path d="M94.4688 204.76C96.6117 193.829 97.4417 189.766 98.6377 185.397C93.8967 198.824 86.1307 197.734 86.6991 214.754C87.4885 214.754 92.8872 206.841 94.4688 204.76Z" fill="url(#paint21_linear_1878_51668)"/>
<path d="M159.316 165.756C146.428 161.918 138.954 157.396 130.335 159.224C124.361 158.308 110.665 162.821 99.7814 165.304C94.4486 191.266 93.7177 217.001 85.5627 244.995C90.9311 255.08 137.394 251.31 148.247 247.252C149.297 222.419 150.951 211.583 152.743 199.844C156.05 189.129 158.696 169.819 159.316 165.756Z" fill="#BCC6F9"/>
<path d="M151.608 181.376C154.922 197.024 141.5 217.584 143.219 246.406C135.893 250.688 118.636 252.11 114.318 252.089" stroke="#3554EC" stroke-width="0.416654" stroke-linecap="round"/>
<path d="M100.916 180.791C92.6595 196.369 100.379 216.166 89.5536 244.917C95.4197 251.549 104.421 251.616 120.071 251.703" stroke="#3554EC" stroke-width="0.416654" stroke-linecap="round"/>
<path d="M159.81 165.438L138.651 159.27C138.651 159.27 133.26 205.924 125.77 239.015C118.279 272.106 117.327 292.372 117.327 292.372C127.001 288.255 136.77 294.821 151.243 290.262C143.48 233.991 156.288 188.074 159.81 165.438Z" fill="#798DF3"/>
<path d="M138.651 159.27C138.651 159.27 133.26 205.924 125.77 239.015C118.279 272.106 117.327 292.372 117.327 292.372C127.001 288.255 136.77 294.821 151.243 290.262C144.783 255.857 150.276 224.353 152.886 200.348" stroke="#3554EC" stroke-width="0.416654"/>
<path d="M125.77 239.015C118.866 269.469 117.523 289.056 117.348 291.986M151.192 289.914C145.72 260.421 149.001 233.091 151.679 210.786M139.879 173.425L139.754 173.255L139.874 173.044C140.918 171.216 142.701 170.619 144.394 170.586C145.401 170.584 146.38 170.724 147.304 171L137.423 159.912C137.503 160.327 137.57 160.77 137.639 161.251C137.8 163.125 137.829 165.026 137.728 166.942C137.545 171.44 136.911 177.276 135.979 183.904C134.261 196.203 131.559 211.263 128.909 225.626L146.565 182.338L139.879 173.425Z" stroke="#3554EC" stroke-width="0.416654"/>
<path d="M99.4757 165.442C99.4757 165.442 119.814 158.996 124.183 158.271C118.743 160.094 112.166 206.736 109.359 239.844C106.552 272.951 101.215 293.201 101.215 293.201C92.8279 289.055 81.0288 295.543 67.9711 290.908C94.5586 237.659 94.5409 185.392 99.4757 165.442Z" fill="#798DF3"/>
<path d="M108.535 171.755L121.485 160.832C121.331 161.147 121.183 161.483 121.042 161.839C120.35 163.66 119.788 165.508 119.358 167.369C118.265 171.779 117.284 177.57 116.292 184.182C115.359 190.296 114.467 197.127 113.519 204.224L113.292 205.957C112.383 212.763 111.442 219.785 110.425 226.637L105.007 182.71C106.351 181.798 108.362 179.987 110.277 178.196C112.294 176.289 114.221 174.366 115.083 173.479L115.435 173.127L115.046 172.924C113.814 172.339 112.466 171.963 111.05 171.808C110.339 171.713 109.61 171.681 108.873 171.713L108.535 171.755Z" stroke="#3554EC" stroke-width="0.416654"/>
<path d="M124.193 157.839C124.193 157.839 119.398 158.995 116.095 160.467C112.642 162.013 105.097 163.414 98.4674 165.441" stroke="#3554EC" stroke-width="0.416654"/>
<path d="M159.736 165.459C153.747 163.432 146.603 162.031 143.623 160.484C140.786 159.013 136.327 157.856 136.327 157.856" stroke="#3554EC" stroke-width="0.416654"/>
<path d="M111.057 171.821C111.962 173.537 113 174.524 114.101 174.764C113.754 172.447 113.763 168.397 115.623 164.795C116.68 162.673 118.406 160.864 120.512 159.672C122.814 158.345 125.902 157.533 129.918 157.553C133.933 157.574 136.611 158.441 138.339 159.829C139.907 161.115 140.859 162.985 141.02 165.098C141.16 167.031 140.982 169.02 140.494 170.992C140.304 171.821 140.108 172.588 139.928 173.272C139.916 173.347 139.905 173.421 139.894 173.492C139.757 174.002 139.646 174.453 139.559 174.835C144.1 173.558 147.616 169.861 150.292 164.82C153.063 159.597 154.894 152.994 156.015 146.337C157.051 140.08 157.542 133.828 157.481 127.65C157.469 125.34 157.328 123.052 157.058 120.794C156.82 118.941 156.498 117.639 156.145 117.014C154.625 114.315 152.867 112.901 151.503 112.155C150.977 111.865 150.412 111.635 149.818 111.471C149.664 111.426 149.505 111.39 149.343 111.364H149.221H149.188L148.956 111.343L148.909 111.127C148.913 111.118 148.914 111.108 148.913 111.098C148.918 111.069 148.895 111.028 148.882 110.974C148.869 110.92 148.801 110.709 148.73 110.514C148.537 109.99 148.294 109.491 148.004 109.022C147.193 107.626 145.897 106.593 144.309 106.079C134.051 105.162 126.389 108.98 120.812 115.198C115.235 121.416 111.686 130.17 109.822 139.054C107.958 147.937 107.762 156.928 108.765 163.697C109.227 167.054 110.025 169.861 111.057 171.821Z" fill="#3554EC" stroke="#3554EC" stroke-width="0.416654"/>
<path d="M139.164 128.015C110.717 127.858 111.667 175.171 114.566 175.187C113.712 170.909 113.99 157.831 129.846 157.918C145.702 158.005 140.422 173.086 139.064 175.328C149.05 168.862 151.197 131.986 139.164 128.015Z" fill="url(#paint22_linear_1878_51668)"/>
<path d="M145.537 128.736C145.526 128.54 145.491 128.349 145.43 128.168L145.264 128.127L145.307 127.845C145.313 127.817 145.317 127.79 145.32 127.762C145.329 127.638 145.33 127.515 145.326 127.393C145.311 126.856 145.252 126.328 145.147 125.814C144.634 123.478 143.828 121.252 142.745 119.182C140.316 119.223 137.371 120.197 134.739 121.507C132.014 122.854 129.733 124.512 128.715 125.764C126.567 128.392 125.733 129.424 123.2 133.802L122.903 134.316L122.576 133.901C121.896 132.985 121.054 132.202 120.083 131.58C119.378 131.165 118.841 131.136 118.452 131.261C118.238 131.344 118.04 131.474 117.875 131.639C117.71 131.804 117.581 132 117.501 132.21C117.214 132.869 117.062 133.559 117.053 134.237C117.004 136.08 117.452 137.832 118.352 139.319C119.304 140.865 120.768 142.009 122.771 142.146H122.985L123.048 142.337C123.278 143.087 123.591 143.799 123.983 144.463C124.385 145.135 124.96 145.906 125.969 147.216L126.015 147.274L126.029 147.348C126.214 148.447 126.115 150.499 125.813 152.563C125.51 154.627 125.004 156.787 124.325 158.101L124.278 158.188L124.197 158.25C123.185 159.025 122.347 160.005 121.757 161.103C121.167 162.202 120.843 163.385 120.812 164.551C120.701 167.038 121.739 169.757 124.356 172.174L124.448 172.261L124.453 172.393C124.464 174.876 124.879 177.283 125.682 179.527C125.887 180.069 126.138 180.587 126.432 181.078C126.472 181.148 126.513 181.206 126.548 181.256C126.601 181.206 126.665 181.148 126.734 181.078C127.21 180.596 127.653 180.084 128.06 179.548C129.699 177.326 131.013 174.92 131.954 172.414L132.003 172.282L132.133 172.203C135.843 169.902 137.648 167.158 138.161 164.65C138.407 163.448 138.364 162.248 138.033 161.15C137.703 160.051 137.096 159.084 136.262 158.329L136.221 158.292L136.196 158.238L136.537 158.043L136.196 158.238C136.199 158.228 136.2 158.218 136.201 158.209C136.201 158.209 136.179 158.155 136.169 158.113C136.129 157.991 136.098 157.865 136.075 157.736C135.986 157.195 135.948 156.64 135.959 156.078C135.976 154.482 136.252 151.821 137.264 147.526L137.284 147.394L137.396 147.298C138.418 146.472 139.369 145.559 140.234 144.575C140.607 144.14 140.957 143.687 141.281 143.22C141.362 143.099 141.447 142.983 141.527 142.871L141.661 142.685H141.879C143.869 142.685 145.561 141.537 146.891 139.866C148.192 138.157 149.11 136.233 149.571 134.245C149.766 133.474 149.847 132.696 149.81 131.936C149.759 131.306 149.581 130.991 149.386 130.892C149.191 130.792 148.924 130.809 148.314 131.281C147.401 132.068 146.605 132.977 145.955 133.972L145.136 135.128L145.287 133.81C145.598 130.921 145.606 129.462 145.537 128.736Z" fill="white" stroke="#3554EC" stroke-width="0.416654" stroke-linecap="round"/>
<path d="M137.524 147.062C132.24 151.166 129.782 150.656 126.036 147" stroke="#3554EC" stroke-width="0.416654" stroke-linecap="round"/>
<path d="M142.868 127.621C142.868 127.621 138.427 128.38 137.75 129.623C137.073 130.867 136.915 135.924 136.624 136.757C136.333 137.59 134.216 138.776 134.216 138.776" stroke="#3554EC" stroke-width="0.416654" stroke-linecap="round"/>
<path d="M134.223 142.576C132.556 142.688 131.625 142.655 130.013 141.826" stroke="#3554EC" stroke-width="0.416654" stroke-linecap="round"/>
<path d="M136.059 148.682C136.059 148.682 135.457 149.466 132.468 150.341C129.479 151.215 126.716 148.38 126.716 148.38C128.108 152.243 130.815 154.125 135.343 153.209L136.059 148.682Z" fill="url(#paint23_linear_1878_51668)"/>
<path d="M147.117 129.416C147.055 127.484 139.409 127.807 137.886 129.366C137.176 131.157 137.179 133.045 137.894 134.626C139.12 137.155 143.735 136.168 145.466 134.402C147.196 132.637 147.117 129.416 147.117 129.416Z" fill="white"/>
<path d="M125.199 129.296C125.871 127.368 133.41 127.774 134.429 129.345C134.575 131.141 133.975 133.027 132.759 134.597C130.733 137.109 126.436 136.073 125.246 134.295C124.056 132.516 125.199 129.296 125.199 129.296Z" fill="white"/>
<path d="M134.417 129.345L137.903 129.366L134.417 129.345ZM134.417 129.345C133.397 127.774 125.871 127.368 125.186 129.296C125.186 129.296 124.069 132.512 125.238 134.295C126.406 136.077 130.687 137.109 132.75 134.597C133.965 133.026 134.564 131.14 134.417 129.345ZM137.903 129.366C139.401 127.807 147.055 127.484 147.134 129.416C147.134 129.416 147.234 132.637 145.501 134.39C143.768 136.143 139.156 137.142 137.929 134.614C137.211 133.038 137.202 131.155 137.903 129.366V129.366Z" stroke="#3554EC" stroke-width="0.416654" stroke-linecap="round"/>
<rect x="0.869313" y="-0.741388" width="15.9503" height="15.9503" rx="7.97515" transform="matrix(-1 0 -0.159084 0.988518 121.22 92.5393)" stroke="white" stroke-width="1.5"/>
<line x1="0.75" y1="-0.75" x2="8.73759" y2="-0.75" transform="matrix(-1 0 -0.14001 0.988493 115.625 100.497)" stroke="white" stroke-width="1.5" stroke-linecap="round"/>
<path d="M111.65 95.8604L110.217 103.817" stroke="white" stroke-width="1.5" stroke-linecap="round"/>
<path d="M110.22 87.6914H83L115.78 192.691H143L110.22 87.6914Z" fill="white" fill-opacity="0.8"/>
<path d="M149.073 86.0762H140.526L175.98 200.076H184.526L149.073 86.0762Z" fill="white" fill-opacity="0.8"/>
</g>
<rect x="-0.11988" y="0.102971" width="82.7943" height="100.568" rx="4.89568" transform="matrix(-1 0 -0.150886 0.988551 182.809 87.8303)" stroke="#3554EC" stroke-width="0.208327"/>
<path d="M436.732 57.3252C436.929 56.0463 436.558 54.8332 435.715 53.9947L434.675 52.9599C434.568 52.8536 434.417 52.7981 434.251 52.8048L385.352 54.7758C385.006 54.7897 384.689 55.0679 384.632 55.4076L374.689 115.026C374.653 115.239 374.728 115.439 374.889 115.558L377.444 117.446C378.107 117.936 378.938 118.198 379.831 118.198H423.249C425.523 118.198 427.656 116.37 428.001 114.125L436.732 57.3252Z" fill="#3554EC" stroke="#3554EC" stroke-width="0.143123"/>
<g clip-path="url(#clip6_1878_51668)">
<rect width="53.8568" height="65.3897" rx="4.99985" transform="matrix(-1 0 -0.150886 0.988551 436.178 51.5859)" fill="url(#paint24_linear_1878_51668)"/>
<path d="M431.775 132.516L431.993 134.227C432.171 135.598 431.834 137.06 431.042 138.357C430.25 139.654 429.053 140.703 427.66 141.322C426.262 141.943 424.757 142.091 423.409 141.741C422.06 141.39 420.954 140.563 420.285 139.404L419.557 138.143C418.009 133.485 415.534 126.134 411.012 113.154C409.166 107.858 414.159 101.779 420.114 101.951C420.332 101.951 420.55 101.951 420.768 101.951C423.32 101.51 428.332 117.516 431.775 132.516Z" fill="#798DF3"/>
<path d="M431.547 131.834C428.427 119.039 424.117 105.715 421.282 102.691" stroke="#3554EC" stroke-width="0.416654"/>
<path d="M418.634 133.943C422.374 122.899 417.119 123.606 416.705 114.895C416.613 117.729 416.346 120.365 415.575 127.458C416.189 128.808 418.121 133.943 418.634 133.943Z" fill="url(#paint25_linear_1878_51668)"/>
<path d="M360.968 132.516L360.224 134.227C359.629 135.598 359.52 137.06 359.916 138.357C360.312 139.653 361.188 140.703 362.392 141.322C363.6 141.943 365.06 142.091 366.515 141.741C367.971 141.39 369.329 140.563 370.352 139.404L371.468 138.143C374.438 133.485 379.157 126.134 387.642 113.154C391.104 107.858 387.966 101.779 381.959 101.951C381.741 101.951 381.524 101.951 381.306 101.951C378.888 101.51 368.99 117.516 360.968 132.516Z" fill="#798DF3"/>
<path d="M380.566 102.691C376.805 105.715 368.428 119.039 361.405 131.834" stroke="#3554EC" stroke-width="0.416654"/>
<path d="M378.713 127.458C380.103 120.365 380.642 117.729 381.418 114.895C378.342 123.606 373.303 122.899 373.672 133.943C374.184 133.943 377.687 128.808 378.713 127.458Z" fill="url(#paint26_linear_1878_51668)"/>
<path d="M420.788 102.148C412.425 99.6581 407.576 96.7242 401.983 97.9103C398.107 97.3159 389.22 100.244 382.158 101.855C378.698 118.701 378.224 135.399 372.932 153.563C376.416 160.107 406.564 157.661 413.606 155.028C414.287 138.915 415.36 131.884 416.523 124.267C418.668 117.314 420.385 104.785 420.788 102.148Z" fill="#BCC6F9"/>
<path d="M415.786 112.284C417.937 122.438 409.228 135.778 410.343 154.479C405.59 157.258 394.392 158.18 391.59 158.167" stroke="#3554EC" stroke-width="0.416654" stroke-linecap="round"/>
<path d="M382.895 111.904C377.538 122.012 382.547 134.858 375.522 153.513C379.329 157.816 385.169 157.859 395.324 157.916" stroke="#3554EC" stroke-width="0.416654" stroke-linecap="round"/>
<path d="M421.109 101.942L407.38 97.9395C407.38 97.9395 403.882 128.211 399.021 149.683C394.161 171.154 393.544 184.304 393.544 184.304C399.82 181.633 406.159 185.893 415.55 182.935C410.513 146.423 418.823 116.63 421.109 101.942Z" fill="#798DF3"/>
<path d="M407.38 97.9395C407.38 97.9395 403.882 128.211 399.021 149.683C394.161 171.154 393.544 184.304 393.544 184.304C399.82 181.633 406.159 185.893 415.55 182.935C411.358 160.611 414.923 140.169 416.616 124.594" stroke="#3554EC" stroke-width="0.416654"/>
<path d="M399.021 149.684C394.542 169.445 393.67 182.153 393.557 184.055M415.517 182.71C411.966 163.573 414.095 145.84 415.833 131.367M408.176 107.126L408.095 107.015L408.173 106.878C408.85 105.692 410.008 105.305 411.106 105.283C411.759 105.282 412.395 105.373 412.994 105.552L406.583 98.3574C406.635 98.6264 406.678 98.9142 406.723 99.2262C406.827 100.442 406.846 101.676 406.78 102.919C406.662 105.837 406.25 109.624 405.646 113.925C404.531 121.905 402.778 131.677 401.059 140.996L412.514 112.908L408.176 107.126Z" stroke="#3554EC" stroke-width="0.416654"/>
<path d="M381.96 101.944C381.96 101.944 395.157 97.7617 397.991 97.291C394.462 98.4745 390.194 128.738 388.373 150.22C386.552 171.702 383.089 184.841 383.089 184.841C377.646 182.152 369.991 186.361 361.518 183.354C378.769 148.803 378.758 114.889 381.96 101.944Z" fill="#798DF3"/>
<path d="M387.839 106.041L396.242 98.9541C396.142 99.1585 396.046 99.3764 395.954 99.6077C395.506 100.789 395.141 101.988 394.862 103.196C394.153 106.057 393.516 109.815 392.872 114.105C392.267 118.072 391.689 122.505 391.073 127.109L390.926 128.233C390.336 132.65 389.725 137.206 389.066 141.652L385.55 113.15C386.422 112.558 387.727 111.383 388.97 110.221C390.278 108.984 391.529 107.736 392.088 107.16L392.316 106.932L392.064 106.8C391.265 106.421 390.39 106.177 389.471 106.076C389.01 106.014 388.537 105.993 388.059 106.014L387.839 106.041Z" stroke="#3554EC" stroke-width="0.416654"/>
<path d="M397.999 97.0117C397.999 97.0117 394.887 97.7621 392.744 98.7169C390.504 99.7202 385.608 100.629 381.307 101.945" stroke="#3554EC" stroke-width="0.416654"/>
<path d="M421.061 101.955C417.174 100.64 412.539 99.7309 410.605 98.7277C408.765 97.7729 405.871 97.0225 405.871 97.0225" stroke="#3554EC" stroke-width="0.416654"/>
<path d="M389.474 106.085C390.062 107.199 390.735 107.839 391.45 107.995C391.224 106.491 391.23 103.864 392.437 101.526C393.123 100.149 394.243 98.9756 395.609 98.2018C397.103 97.3412 399.107 96.814 401.713 96.8274C404.318 96.8409 406.055 97.403 407.177 98.3041C408.194 99.1385 408.812 100.352 408.916 101.723C409.007 102.977 408.892 104.268 408.575 105.547C408.452 106.085 408.324 106.583 408.208 107.027C408.2 107.075 408.193 107.123 408.186 107.169C408.097 107.5 408.025 107.793 407.968 108.041C410.915 107.212 413.196 104.813 414.933 101.542C416.731 98.1534 417.919 93.8688 418.646 89.5493C419.318 85.4897 419.637 81.4332 419.598 77.4244C419.589 75.9257 419.498 74.4407 419.323 72.9757C419.169 71.7735 418.96 70.9289 418.73 70.5228C417.744 68.7718 416.603 67.8547 415.718 67.3705C415.377 67.182 415.011 67.0332 414.625 66.9268C414.525 66.897 414.422 66.8737 414.317 66.8568H414.238H414.216L414.066 66.8434L414.035 66.7035C414.038 66.6973 414.039 66.6909 414.038 66.6847C414.041 66.6659 414.026 66.639 414.018 66.604C414.009 66.569 413.965 66.4319 413.919 66.3055C413.794 65.9655 413.636 65.6416 413.448 65.3372C412.922 64.4314 412.081 63.7616 411.05 63.4275C404.395 62.8331 399.423 65.3103 395.804 69.3447C392.186 73.3792 389.883 79.0597 388.674 84.8236C387.464 90.5875 387.337 96.4213 387.988 100.813C388.287 102.992 388.805 104.813 389.474 106.085Z" fill="#3554EC" stroke="#3554EC" stroke-width="0.416654"/>
<path d="M407.712 77.6614C389.254 77.5592 389.87 108.259 391.751 108.269C391.197 105.494 391.378 97.0079 401.666 97.0644C411.954 97.1209 408.528 106.906 407.647 108.361C414.126 104.165 415.52 80.2381 407.712 77.6614Z" fill="url(#paint27_linear_1878_51668)"/>
<path d="M411.848 78.1293C411.841 78.0018 411.818 77.878 411.778 77.7608L411.671 77.7339L411.699 77.551C411.703 77.5331 411.705 77.5152 411.707 77.4972C411.713 77.4169 411.714 77.337 411.711 77.2579C411.701 76.9095 411.663 76.5668 411.595 76.2331C411.262 74.7176 410.739 73.2731 410.036 71.9297C408.46 71.9566 406.549 72.5886 404.842 73.4386C403.073 74.3127 401.593 75.3886 400.932 76.2008C399.539 77.9061 398.998 78.5758 397.354 81.416L397.162 81.7495L396.95 81.4806C396.508 80.8863 395.962 80.3781 395.332 79.9744C394.874 79.7054 394.526 79.6866 394.274 79.7673C394.135 79.8213 394.006 79.9054 393.899 80.0126C393.792 80.1197 393.709 80.2468 393.657 80.3832C393.471 80.8109 393.372 81.2586 393.366 81.6984C393.334 82.8944 393.625 84.0309 394.209 84.9959C394.827 85.9992 395.776 86.7415 397.076 86.8303H397.215L397.256 86.954C397.405 87.4406 397.608 87.903 397.863 88.3338C398.123 88.7695 398.496 89.2698 399.151 90.1197L399.181 90.1574L399.19 90.2058C399.31 90.9185 399.246 92.2499 399.049 93.5893C398.853 94.9288 398.525 96.3301 398.084 97.1827L398.054 97.2392L398.001 97.2795C397.344 97.7827 396.801 98.4182 396.418 99.1308C396.035 99.8434 395.825 100.611 395.805 101.368C395.733 102.982 396.407 104.746 398.104 106.314L398.164 106.37L398.167 106.457C398.175 108.068 398.444 109.629 398.965 111.085C399.098 111.437 399.26 111.773 399.451 112.091C399.477 112.137 399.504 112.175 399.526 112.207C399.561 112.175 399.603 112.137 399.648 112.091C399.956 111.779 400.244 111.447 400.508 111.099C401.571 109.657 402.424 108.096 403.034 106.47L403.066 106.384L403.15 106.333C405.558 104.84 406.729 103.06 407.062 101.432C407.222 100.652 407.193 99.8739 406.979 99.1609C406.765 98.4479 406.371 97.8206 405.83 97.3306L405.803 97.3064L405.787 97.2714L406.008 97.145L405.787 97.2714C405.789 97.2652 405.79 97.2589 405.79 97.2526C405.79 97.2526 405.776 97.2176 405.769 97.1908C405.744 97.1113 405.723 97.0295 405.708 96.946C405.651 96.5949 405.626 96.2349 405.633 95.8701C405.644 94.8346 405.823 93.1079 406.48 90.3214L406.493 90.2354L406.565 90.1735C407.229 89.6369 407.846 89.045 408.407 88.4064C408.649 88.1241 408.876 87.8304 409.086 87.5269C409.139 87.4489 409.194 87.3736 409.246 87.301L409.333 87.1799H409.474C410.766 87.1799 411.863 86.4349 412.726 85.351C413.571 84.2423 414.166 82.9936 414.465 81.7038C414.592 81.2036 414.644 80.6988 414.62 80.2057C414.587 79.7969 414.471 79.5925 414.345 79.5279C414.219 79.4634 414.045 79.4741 413.65 79.7807C413.058 80.2912 412.541 80.8807 412.119 81.5263L411.588 82.2767L411.686 81.4214C411.887 79.5467 411.893 78.6 411.848 78.1293Z" fill="white" stroke="#3554EC" stroke-width="0.416654" stroke-linecap="round"/>
<path d="M406.648 90.0198C403.22 92.6826 401.625 92.3518 399.194 89.9795" stroke="#3554EC" stroke-width="0.416654" stroke-linecap="round"/>
<path d="M410.115 77.4053C410.115 77.4053 407.234 77.8975 406.794 78.7044C406.355 79.5113 406.252 82.7926 406.063 83.3332C405.875 83.8738 404.501 84.6431 404.501 84.6431" stroke="#3554EC" stroke-width="0.416654" stroke-linecap="round"/>
<path d="M404.507 87.1099C403.425 87.1825 402.821 87.161 401.775 86.623" stroke="#3554EC" stroke-width="0.416654" stroke-linecap="round"/>
<path d="M405.698 91.0713C405.698 91.0713 405.307 91.5797 403.367 92.1472C401.428 92.7147 399.635 90.875 399.635 90.875C400.539 93.3817 402.295 94.6028 405.233 94.0084L405.698 91.0713Z" fill="url(#paint28_linear_1878_51668)"/>
<path d="M412.873 78.5698C412.832 77.3164 407.871 77.5262 406.883 78.5375C406.423 79.6994 406.424 80.9245 406.888 81.9507C407.684 83.5914 410.678 82.9512 411.801 81.8055C412.924 80.6597 412.873 78.5698 412.873 78.5698Z" fill="white"/>
<path d="M398.65 78.492C399.086 77.2414 403.978 77.5049 404.64 78.5243C404.734 79.6893 404.345 80.9132 403.555 81.9321C402.241 83.562 399.453 82.8896 398.681 81.7357C397.909 80.5819 398.65 78.492 398.65 78.492Z" fill="white"/>
<path d="M404.631 78.5243L406.894 78.5378L404.631 78.5243ZM404.631 78.5243C403.97 77.5049 399.086 77.2414 398.642 78.492C398.642 78.492 397.917 80.5792 398.675 81.7357C399.433 82.8923 402.211 83.562 403.55 81.9321C404.338 80.9128 404.727 79.6889 404.631 78.5243ZM406.894 78.5378C407.865 77.5265 412.832 77.3167 412.883 78.57C412.883 78.57 412.948 80.6599 411.824 81.7976C410.699 82.9353 407.706 83.5835 406.911 81.9428C406.445 80.9204 406.439 79.6985 406.894 78.5378V78.5378Z" stroke="#3554EC" stroke-width="0.416654" stroke-linecap="round"/>
<rect x="0.869313" y="-0.741388" width="10.8762" height="10.8762" rx="5.43809" transform="matrix(-1 0 -0.159084 0.988518 396.638 54.6389)" stroke="white" stroke-width="1.5"/>
<line x1="0.75" y1="-0.75" x2="5.40609" y2="-0.75" transform="matrix(-1 0 -0.143831 0.988527 392.439 59.8057)" stroke="white" stroke-width="1.5" stroke-linecap="round"/>
<path d="M389.859 56.7969L388.929 61.9597" stroke="white" stroke-width="1.5" stroke-linecap="round"/>
</g>
<rect x="-0.11988" y="0.102971" width="53.6485" height="65.1814" rx="4.89568" transform="matrix(-1 0 -0.150886 0.988551 435.954 51.5871)" stroke="#3554EC" stroke-width="0.208327"/>
<path d="M184.664 259.989C183.864 259.989 183.27 260.726 183.438 261.505L202.753 350.838C202.878 351.414 203.388 351.826 203.978 351.826H337.246C338.045 351.826 338.64 351.089 338.471 350.31L319.156 260.977C319.032 260.401 318.522 259.989 317.931 259.989H184.664Z" fill="url(#paint29_linear_1878_51668)" stroke="#07134E"/>
<path d="M180.283 259.989C179.483 259.989 178.889 260.726 179.058 261.505L198.372 350.838C198.497 351.414 199.007 351.826 199.597 351.826H332.865C333.664 351.826 334.259 351.089 334.09 350.31L314.776 260.977C314.651 260.401 314.141 259.989 313.55 259.989H180.283Z" fill="url(#paint30_linear_1878_51668)" stroke="#07134E"/>
<path d="M326.448 227.621C327.025 224.953 325.603 222.255 323.073 221.221L318.51 219.356C318.359 219.294 318.198 219.263 318.035 219.263H138.309C137.715 219.263 137.204 219.678 137.082 220.258L111.113 343.983C110.265 348.025 113.352 351.824 117.488 351.824H292.915C296.808 351.824 300.173 349.111 300.995 345.31L326.448 227.621Z" fill="#0C2083" stroke="#07134E"/>
<path d="M322.195 226.703C323.069 222.651 319.978 218.825 315.828 218.825H135.753C131.033 218.825 126.953 222.116 125.958 226.725L100.65 343.947C99.7748 347.999 102.866 351.825 107.017 351.825H288.507C292.401 351.825 295.767 349.11 296.588 345.308L322.195 226.703Z" fill="#3554EC" stroke="#07134E"/>
<path d="M313.052 229.097C313.218 228.319 312.624 227.584 311.826 227.584H134.531C133.939 227.584 133.429 227.997 133.305 228.574L108.915 342.43C108.748 343.208 109.342 343.943 110.141 343.943H287.436C288.028 343.943 288.538 343.53 288.662 342.953L313.052 229.097Z" fill="#0A1A69" stroke="#07134E"/>
<g filter="url(#filter0_b_1878_51668)">
<path d="M203.334 208.597C206.903 201.135 214.388 195.442 222.451 194.056L283.337 183.588C290.485 182.359 296.979 184.713 300.47 189.798L300.815 190.301C303.467 194.164 304.126 199.236 302.647 204.401L283.476 271.34C280.522 281.656 269.935 289.716 259.338 289.716H190.789C185.456 289.716 180.815 287.639 177.898 283.946L177.421 283.342C173.613 278.521 173.215 271.56 176.369 264.966L203.334 208.597Z" fill="#0C2083"/>
</g>
<g filter="url(#filter1_b_1878_51668)">
<path d="M190.906 197.253C193.781 186.86 204.427 178.691 215.097 178.691H277.922C289.347 178.691 296.335 188.009 293.257 199.137L276.298 260.449C273.423 270.843 262.778 279.011 252.108 279.011H189.282C177.857 279.011 170.869 269.694 173.947 258.565L190.906 197.253Z" fill="url(#paint31_linear_1878_51668)"/>
</g>
<path d="M207.883 259.848C202.557 259.848 199.44 255.608 200.946 250.352L213.184 207.637C214.684 202.4 220.216 198.141 225.562 198.141C230.888 198.141 234.005 202.381 232.499 207.637L220.261 250.352C218.761 255.588 213.228 259.848 207.883 259.848Z" fill="#D0FF00"/>
<path d="M242.373 228.73C248.675 228.73 255.211 223.746 256.972 217.599C258.734 211.451 255.053 206.468 248.751 206.468C242.449 206.468 235.913 211.451 234.152 217.599C232.391 223.746 236.071 228.73 242.373 228.73Z" fill="#D0FF00"/>
<path d="M228.35 248.492C225.909 246.603 226.176 242.713 228.946 239.804L234.129 234.36C236.9 231.451 241.124 230.624 243.565 232.514L253.881 240.498C256.322 242.387 256.055 246.277 253.285 249.187L248.102 254.63C245.331 257.539 241.107 258.366 238.666 256.477L228.35 248.492Z" fill="#D0FF00"/>
<defs>
<filter id="filter0_b_1878_51668" x="172.735" y="181.746" width="132.207" height="109.491" filterUnits="userSpaceOnUse" color-interpolation-filters="sRGB">
<feFlood flood-opacity="0" result="BackgroundImageFix"/>
<feGaussianBlur in="BackgroundImageFix" stdDeviation="0.760408"/>
<feComposite in2="SourceAlpha" operator="in" result="effect1_backgroundBlur_1878_51668"/>
<feBlend mode="normal" in="SourceGraphic" in2="effect1_backgroundBlur_1878_51668" result="shape"/>
</filter>
<filter id="filter1_b_1878_51668" x="171.699" y="177.171" width="123.806" height="103.361" filterUnits="userSpaceOnUse" color-interpolation-filters="sRGB">
<feFlood flood-opacity="0" result="BackgroundImageFix"/>
<feGaussianBlur in="BackgroundImageFix" stdDeviation="0.760408"/>
<feComposite in2="SourceAlpha" operator="in" result="effect1_backgroundBlur_1878_51668"/>
<feBlend mode="normal" in="SourceGraphic" in2="effect1_backgroundBlur_1878_51668" result="shape"/>
</filter>
<linearGradient id="paint0_linear_1878_51668" x1="153" y1="-1.80859" x2="196.5" y2="76.6914" gradientUnits="userSpaceOnUse">
<stop stop-color="white"/>
<stop offset="0.642453" stop-color="white" stop-opacity="0.50758"/>
<stop offset="1" stop-color="white" stop-opacity="0"/>
</linearGradient>
<linearGradient id="paint1_linear_1878_51668" x1="154" y1="-1.30859" x2="185.5" y2="70.1914" gradientUnits="userSpaceOnUse">
<stop stop-color="#BCC6F9"/>
<stop offset="1" stop-color="#798DF3" stop-opacity="0"/>
</linearGradient>
<linearGradient id="paint2_linear_1878_51668" x1="49.1113" y1="89.8118" x2="78.9169" y2="143.599" gradientUnits="userSpaceOnUse">
<stop stop-color="white"/>
<stop offset="0.642453" stop-color="white" stop-opacity="0.50758"/>
<stop offset="1" stop-color="white" stop-opacity="0"/>
</linearGradient>
<linearGradient id="paint3_linear_1878_51668" x1="49.7963" y1="90.1544" x2="71.3796" y2="139.145" gradientUnits="userSpaceOnUse">
<stop stop-color="#BCC6F9"/>
<stop offset="1" stop-color="#798DF3" stop-opacity="0"/>
</linearGradient>
<linearGradient id="paint4_linear_1878_51668" x1="344.111" y1="226.812" x2="373.917" y2="280.599" gradientUnits="userSpaceOnUse">
<stop stop-color="white"/>
<stop offset="0.642453" stop-color="white" stop-opacity="0.50758"/>
<stop offset="1" stop-color="white" stop-opacity="0"/>
</linearGradient>
<linearGradient id="paint5_linear_1878_51668" x1="344.796" y1="227.154" x2="366.38" y2="276.145" gradientUnits="userSpaceOnUse">
<stop stop-color="#BCC6F9"/>
<stop offset="1" stop-color="#798DF3" stop-opacity="0"/>
</linearGradient>
<linearGradient id="paint6_linear_1878_51668" x1="372.392" y1="31.2739" x2="404.232" y2="88.7326" gradientUnits="userSpaceOnUse">
<stop stop-color="white"/>
<stop offset="0.642453" stop-color="white" stop-opacity="0.50758"/>
<stop offset="1" stop-color="white" stop-opacity="0"/>
</linearGradient>
<linearGradient id="paint7_linear_1878_51668" x1="373.124" y1="31.6399" x2="396.18" y2="83.9749" gradientUnits="userSpaceOnUse">
<stop stop-color="#BCC6F9"/>
<stop offset="1" stop-color="#798DF3" stop-opacity="0"/>
</linearGradient>
<linearGradient id="paint8_linear_1878_51668" x1="18.3398" y1="212.625" x2="71.548" y2="308.644" gradientUnits="userSpaceOnUse">
<stop stop-color="white"/>
<stop offset="0.642453" stop-color="white" stop-opacity="0.50758"/>
<stop offset="1" stop-color="white" stop-opacity="0"/>
</linearGradient>
<linearGradient id="paint9_linear_1878_51668" x1="19.5622" y1="213.236" x2="58.0923" y2="300.694" gradientUnits="userSpaceOnUse">
<stop stop-color="#BCC6F9"/>
<stop offset="1" stop-color="#798DF3" stop-opacity="0"/>
</linearGradient>
<linearGradient id="paint10_linear_1878_51668" x1="281.667" y1="92.997" x2="337.251" y2="193.303" gradientUnits="userSpaceOnUse">
<stop stop-color="white"/>
<stop offset="0.642453" stop-color="white" stop-opacity="0.50758"/>
<stop offset="1" stop-color="white" stop-opacity="0"/>
</linearGradient>
<linearGradient id="paint11_linear_1878_51668" x1="282.944" y1="93.6359" x2="323.194" y2="184.997" gradientUnits="userSpaceOnUse">
<stop stop-color="#BCC6F9"/>
<stop offset="1" stop-color="#798DF3" stop-opacity="0"/>
</linearGradient>
<linearGradient id="paint12_linear_1878_51668" x1="294.818" y1="117.873" x2="290.161" y2="77.2821" gradientUnits="userSpaceOnUse">
<stop stop-color="#7D9900"/>
<stop offset="1" stop-color="#F6FFCC"/>
</linearGradient>
<linearGradient id="paint13_linear_1878_51668" x1="1312.88" y1="6661.93" x2="1306.35" y2="6517.13" gradientUnits="userSpaceOnUse">
<stop stop-color="#95D0FF"/>
<stop offset="1" stop-color="#E5F3FE"/>
</linearGradient>
<linearGradient id="paint14_linear_1878_51668" x1="50.8573" y1="98.6417" x2="47.8897" y2="72.7774" gradientUnits="userSpaceOnUse">
<stop stop-color="#3554EC"/>
<stop offset="1" stop-color="#798DF3" stop-opacity="0"/>
</linearGradient>
<linearGradient id="paint15_linear_1878_51668" x1="699.566" y1="4268.51" x2="695.403" y2="4176.24" gradientUnits="userSpaceOnUse">
<stop stop-color="#95D0FF"/>
<stop offset="1" stop-color="#E5F3FE"/>
</linearGradient>
<linearGradient id="paint16_linear_1878_51668" x1="-8129.13" y1="11576.6" x2="-8129.13" y2="10932" gradientUnits="userSpaceOnUse">
<stop stop-color="#A54D12"/>
<stop offset="1" stop-color="#A54D12" stop-opacity="0"/>
</linearGradient>
<linearGradient id="paint17_linear_1878_51668" x1="11608" y1="-11046.1" x2="11608" y2="-10401.5" gradientUnits="userSpaceOnUse">
<stop stop-color="#A54D12"/>
<stop offset="1" stop-color="#A54D12" stop-opacity="0"/>
</linearGradient>
<linearGradient id="paint18_linear_1878_51668" x1="-3420.42" y1="4656.24" x2="-3424.98" y2="4559.09" gradientUnits="userSpaceOnUse">
<stop stop-color="#95D0FF"/>
<stop offset="1" stop-color="#E5F3FE"/>
</linearGradient>
<linearGradient id="paint19_linear_1878_51668" x1="41.5013" y1="0" x2="41.5013" y2="100.777" gradientUnits="userSpaceOnUse">
<stop stop-color="#E8EFFD"/>
<stop offset="1" stop-color="#BCC6F9"/>
</linearGradient>
<linearGradient id="paint20_linear_1878_51668" x1="157.116" y1="185.397" x2="157.116" y2="214.754" gradientUnits="userSpaceOnUse">
<stop stop-color="#364962"/>
<stop offset="1" stop-color="#364962" stop-opacity="0"/>
</linearGradient>
<linearGradient id="paint21_linear_1878_51668" x1="94.5418" y1="185.397" x2="94.5418" y2="214.754" gradientUnits="userSpaceOnUse">
<stop stop-color="#364962"/>
<stop offset="1" stop-color="#364962" stop-opacity="0"/>
</linearGradient>
<linearGradient id="paint22_linear_1878_51668" x1="126.886" y1="69.3632" x2="143.979" y2="181.354" gradientUnits="userSpaceOnUse">
<stop stop-color="#07134E"/>
<stop offset="1" stop-color="#07134E" stop-opacity="0"/>
</linearGradient>
<linearGradient id="paint23_linear_1878_51668" x1="130.954" y1="144.751" x2="133.411" y2="150.127" gradientUnits="userSpaceOnUse">
<stop stop-color="#95D0FF"/>
<stop offset="1" stop-color="#E5F3FE"/>
</linearGradient>
<linearGradient id="paint24_linear_1878_51668" x1="26.9284" y1="0" x2="26.9284" y2="65.3897" gradientUnits="userSpaceOnUse">
<stop stop-color="#E8EFFD"/>
<stop offset="1" stop-color="#BCC6F9"/>
</linearGradient>
<linearGradient id="paint25_linear_1878_51668" x1="419.361" y1="114.895" x2="419.361" y2="133.943" gradientUnits="userSpaceOnUse">
<stop stop-color="#364962"/>
<stop offset="1" stop-color="#364962" stop-opacity="0"/>
</linearGradient>
<linearGradient id="paint26_linear_1878_51668" x1="378.76" y1="114.895" x2="378.76" y2="133.943" gradientUnits="userSpaceOnUse">
<stop stop-color="#364962"/>
<stop offset="1" stop-color="#364962" stop-opacity="0"/>
</linearGradient>
<linearGradient id="paint27_linear_1878_51668" x1="399.745" y1="39.6047" x2="410.836" y2="112.271" gradientUnits="userSpaceOnUse">
<stop stop-color="#07134E"/>
<stop offset="1" stop-color="#07134E" stop-opacity="0"/>
</linearGradient>
<linearGradient id="paint28_linear_1878_51668" x1="402.385" y1="88.5204" x2="403.98" y2="92.0088" gradientUnits="userSpaceOnUse">
<stop stop-color="#95D0FF"/>
<stop offset="1" stop-color="#E5F3FE"/>
</linearGradient>
<linearGradient id="paint29_linear_1878_51668" x1="291.551" y1="259.489" x2="257.456" y2="332.366" gradientUnits="userSpaceOnUse">
<stop stop-color="#0C2083"/>
<stop offset="1" stop-color="#3554EC"/>
</linearGradient>
<linearGradient id="paint30_linear_1878_51668" x1="312.681" y1="283.136" x2="356.283" y2="339.755" gradientUnits="userSpaceOnUse">
<stop stop-color="#0C2083"/>
<stop offset="1" stop-color="#3554EC"/>
</linearGradient>
<linearGradient id="paint31_linear_1878_51668" x1="245.209" y1="178.691" x2="245.209" y2="279.011" gradientUnits="userSpaceOnUse">
<stop stop-color="#0C2083"/>
<stop offset="1" stop-color="#3554EC"/>
</linearGradient>
<clipPath id="clip0_1878_51668">
<rect width="60.4036" height="74.6037" rx="4.37786" transform="matrix(-1 0 -0.148327 0.988938 325.203 75.4902)" fill="white"/>
</clipPath>
<clipPath id="clip1_1878_51668">
<rect width="38.4891" height="47.5374" rx="4.37786" transform="matrix(-1 0 -0.148327 0.988938 70.2168 71.6348)" fill="white"/>
</clipPath>
<clipPath id="clip2_1878_51668">
<rect width="41.5675" height="51.3396" rx="4.37786" transform="matrix(-1 0 -0.148327 0.988938 49.1836 244.367)" fill="white"/>
</clipPath>
<clipPath id="clip3_1878_51668">
<rect width="41.5675" height="51.3396" rx="4.37786" transform="matrix(-1 0 -0.148327 0.988938 185.672 0.691406)" fill="white"/>
</clipPath>
<clipPath id="clip4_1878_51668">
<rect width="62.9508" height="77.7498" rx="4.37786" transform="matrix(-1 0 -0.148327 0.988938 427.66 173.424)" fill="white"/>
</clipPath>
<clipPath id="clip5_1878_51668">
<rect width="83.0026" height="100.777" rx="4.99985" transform="matrix(-1 0 -0.150886 0.988551 183.033 87.8291)" fill="white"/>
</clipPath>
<clipPath id="clip6_1878_51668">
<rect width="53.8568" height="65.3897" rx="4.99985" transform="matrix(-1 0 -0.150886 0.988551 436.178 51.5859)" fill="white"/>
</clipPath>
</defs>
</svg>
