<svg width="20" height="17" viewBox="0 0 20 17" fill="none" xmlns="http://www.w3.org/2000/svg">
<path d="M17.841 4.7652C17.841 4.9402 17.841 5.1152 17.841 5.2652C17.841 10.4402 13.891 16.4152 6.69102 16.4152C4.46602 16.4152 2.41602 15.7652 0.666016 14.6652C0.966016 14.6902 1.29102 14.7152 1.59102 14.7152C3.41602 14.7152 5.11602 14.0902 6.46602 13.0402C4.74102 13.0152 3.29102 11.8652 2.81602 10.3152C3.06602 10.3652 3.29102 10.3902 3.56602 10.3902C3.91602 10.3902 4.26602 10.3402 4.59102 10.2402C2.79102 9.8902 1.44102 8.3152 1.44102 6.4152C1.44102 6.3902 1.44102 6.3902 1.44102 6.3652C1.96602 6.6652 2.56602 6.8402 3.21602 6.8652C2.16602 6.1652 1.46602 4.9652 1.46602 3.5902C1.46602 2.8652 1.66602 2.1902 1.99102 1.6152C3.91602 3.9902 6.81602 5.5402 10.066 5.7152C9.99102 5.4402 9.96602 5.1152 9.96602 4.8152C9.96602 2.6402 11.716 0.890198 13.891 0.890198C15.016 0.890198 16.041 1.3652 16.741 2.1152C17.641 1.9402 18.466 1.6152 19.241 1.1652C18.941 2.0902 18.316 2.8402 17.516 3.3402C18.316 3.2402 19.066 3.0402 19.766 2.7152C19.266 3.5152 18.616 4.2152 17.841 4.7652Z" fill="#A6B0B9"/>
</svg>
