<svg width="103" height="103" viewBox="0 0 103 103" fill="none" xmlns="http://www.w3.org/2000/svg">
<g filter="url(#filter0_ddd_29223_473988)">
<rect x="19.5" y="10.5" width="64" height="64" rx="32" fill="url(#paint0_linear_29223_473988)"/>
<rect x="19.5" y="10.5" width="64" height="64" rx="30" fill="#0DC143"/>
<path d="M64.6676 29.2821C61.2369 25.7506 56.4946 23.8335 51.6513 23.8335C41.3595 23.8335 33.0856 32.2083 33.1865 42.3993C33.1865 45.6281 34.0946 48.756 35.6081 51.5812L32.9847 61.1668L42.7721 58.6443C45.4964 60.1578 48.5234 60.8641 51.5504 60.8641C61.7414 60.8641 70.0153 52.4894 70.0153 42.2984C70.0153 37.3542 68.0982 32.7128 64.6676 29.2821ZM51.6513 57.7362C48.927 57.7362 46.2027 57.0299 43.882 55.6173L43.2766 55.3146L37.4243 56.8281L38.9378 51.0767L38.5342 50.4713C34.0946 43.3074 36.2135 33.8227 43.4784 29.383C50.7432 24.9434 60.127 27.0623 64.5667 34.3272C69.0063 41.5921 66.8874 50.9758 59.6225 55.4155C57.3018 56.929 54.4766 57.7362 51.6513 57.7362ZM60.5306 46.5362L59.4207 46.0317C59.4207 46.0317 57.8063 45.3254 56.7973 44.8209C56.6964 44.8209 56.5955 44.72 56.4946 44.72C56.1919 44.72 55.9901 44.8209 55.7883 44.9218C55.7883 44.9218 55.6874 45.0227 54.2748 46.6371C54.1739 46.8389 53.9721 46.9398 53.7703 46.9398H53.6694C53.5685 46.9398 53.3667 46.8389 53.2658 46.738L52.7613 46.5362C51.6513 46.0317 50.6423 45.4263 49.8351 44.6191C49.6333 44.4173 49.3306 44.2155 49.1288 44.0137C48.4225 43.3074 47.7162 42.5002 47.2117 41.5921L47.1108 41.3903C47.0099 41.2894 47.0099 41.1885 46.909 40.9867C46.909 40.7848 46.909 40.583 47.0099 40.4821C47.0099 40.4821 47.4135 39.9776 47.7162 39.6749C47.918 39.4731 48.0189 39.1704 48.2207 38.9686C48.4225 38.6659 48.5234 38.2623 48.4225 37.9596C48.3216 37.4551 47.1108 34.7308 46.8081 34.1254C46.6063 33.8227 46.4045 33.7218 46.1018 33.6209H45.7991C45.5973 33.6209 45.2946 33.6209 44.9919 33.6209C44.7901 33.6209 44.5883 33.7218 44.3865 33.7218L44.2856 33.8227C44.0838 33.9236 43.882 34.1254 43.6802 34.2263C43.4784 34.4281 43.3775 34.6299 43.1757 34.8317C42.4694 35.7398 42.0658 36.8497 42.0658 37.9596C42.0658 38.7668 42.2676 39.574 42.5703 40.2803L42.6712 40.583C43.5793 42.5002 44.7901 44.2155 46.4045 45.729L46.8081 46.1326C47.1108 46.4353 47.4135 46.6371 47.6153 46.9398C49.7342 48.756 52.1559 50.0677 54.8802 50.774C55.1829 50.8749 55.5865 50.8749 55.8892 50.9758C56.1919 50.9758 56.5955 50.9758 56.8982 50.9758C57.4027 50.9758 58.0081 50.774 58.4117 50.5722C58.7144 50.3704 58.9162 50.3704 59.118 50.1686L59.3198 49.9668C59.5216 49.765 59.7234 49.6641 59.9252 49.4623C60.127 49.2605 60.3288 49.0587 60.4297 48.8569C60.6315 48.4533 60.7324 47.9488 60.8333 47.4443C60.8333 47.2425 60.8333 46.9398 60.8333 46.738C60.8333 46.738 60.7324 46.6371 60.5306 46.5362Z" fill="white"/>
</g>
<defs>
<filter id="filter0_ddd_29223_473988" x="0.5" y="0.5" width="102" height="102" filterUnits="userSpaceOnUse" color-interpolation-filters="sRGB">
<feFlood flood-opacity="0" result="BackgroundImageFix"/>
<feColorMatrix in="SourceAlpha" type="matrix" values="0 0 0 0 0 0 0 0 0 0 0 0 0 0 0 0 0 0 127 0" result="hardAlpha"/>
<feOffset dy="0.884112"/>
<feGaussianBlur stdDeviation="0.63176"/>
<feColorMatrix type="matrix" values="0 0 0 0 0.196078 0 0 0 0 0.627451 0 0 0 0 1 0 0 0 0.0698213 0"/>
<feBlend mode="normal" in2="BackgroundImageFix" result="effect1_dropShadow_29223_473988"/>
<feColorMatrix in="SourceAlpha" type="matrix" values="0 0 0 0 0 0 0 0 0 0 0 0 0 0 0 0 0 0 127 0" result="hardAlpha"/>
<feOffset dy="2.75905"/>
<feGaussianBlur stdDeviation="2.12195"/>
<feColorMatrix type="matrix" values="0 0 0 0 0.196078 0 0 0 0 0.627451 0 0 0 0 1 0 0 0 0.173992 0"/>
<feBlend mode="normal" in2="effect1_dropShadow_29223_473988" result="effect2_dropShadow_29223_473988"/>
<feColorMatrix in="SourceAlpha" type="matrix" values="0 0 0 0 0 0 0 0 0 0 0 0 0 0 0 0 0 0 127 0" result="hardAlpha"/>
<feOffset dy="9"/>
<feGaussianBlur stdDeviation="9.5"/>
<feColorMatrix type="matrix" values="0 0 0 0 0.196078 0 0 0 0 0.627451 0 0 0 0 1 0 0 0 0.39 0"/>
<feBlend mode="normal" in2="effect2_dropShadow_29223_473988" result="effect3_dropShadow_29223_473988"/>
<feBlend mode="normal" in="SourceGraphic" in2="effect3_dropShadow_29223_473988" result="shape"/>
</filter>
<linearGradient id="paint0_linear_29223_473988" x1="19.5" y1="15.0714" x2="88.517" y2="24.3317" gradientUnits="userSpaceOnUse">
<stop stop-color="#1E40EB"/>
<stop offset="1" stop-color="#4FA8FF"/>
</linearGradient>
</defs>
</svg>
