<svg width="20" height="15" viewBox="0 0 20 15" fill="none" xmlns="http://www.w3.org/2000/svg">
<path fill-rule="evenodd" clip-rule="evenodd" d="M17.8253 0.650533C18.682 0.881174 19.3574 1.55662 19.5881 2.41329C20.0164 3.97836 19.9999 7.24029 19.9999 7.24029C19.9999 7.24029 19.9999 10.4857 19.5881 12.0508C19.3574 12.9075 18.682 13.5829 17.8253 13.8136C16.2602 14.2254 9.99996 14.2254 9.99996 14.2254C9.99996 14.2254 3.75616 14.2254 2.17462 13.7971C1.31795 13.5665 0.642501 12.891 0.41186 12.0343C0 10.4857 0 7.22382 0 7.22382C0 7.22382 0 3.97836 0.41186 2.41329C0.642501 1.55662 1.33443 0.8647 2.17462 0.634058C3.73969 0.222198 9.99996 0.222198 9.99996 0.222198C9.99996 0.222198 16.2602 0.222198 17.8253 0.650533ZM13.212 7.22325L8.00609 10.2216V4.22491L13.212 7.22325Z" fill="#A6B0B9"/>
</svg>
