<svg width="140" height="36" viewBox="0 0 140 36" fill="none" xmlns="http://www.w3.org/2000/svg">
<g clip-path="url(#clip0_3369_104388)">
<path d="M57.3945 5.39551H60.5431V19.9532H65.9705V22.8268H57.4077L57.3945 5.39551Z" fill="#BCC6F9"/>
<path d="M73.2622 9.7631C74.9304 9.74303 76.5117 10.4737 77.5374 11.7379V10.0226H80.4748V22.8524H77.5374V21.1371C76.5117 22.4013 74.9304 23.132 73.2622 23.1119C69.6 23.1119 66.8203 20.1054 66.8203 16.4343C66.8203 12.7632 69.6 9.7631 73.2622 9.7631ZM73.7961 12.3328C71.4181 12.3328 69.8436 14.1304 69.8436 16.4343C69.8436 18.7383 71.4442 20.5422 73.7961 20.5422C76.1476 20.5422 77.7481 18.7446 77.7481 16.4343C77.7481 14.1241 76.1736 12.3328 73.7961 12.3328Z" fill="#BCC6F9"/>
<path d="M82.7617 20.6243L89.7635 12.5859H82.8669V10.0225H93.5574V12.2821L86.5821 20.2888H93.7156V22.8522H82.7617V20.6243Z" fill="#BCC6F9"/>
<path d="M101.186 9.7631C102.853 9.74303 104.435 10.4737 105.46 11.7379V10.0226H108.398V22.8524H105.46V21.1371C104.435 22.4013 102.853 23.132 101.186 23.1119C97.5234 23.1119 94.75 20.1054 94.75 16.4343C94.75 12.7632 97.5234 9.7631 101.186 9.7631ZM101.719 12.3328C99.341 12.3328 97.767 14.1304 97.767 16.4343C97.767 18.7383 99.3676 20.5422 101.719 20.5422C104.07 20.5422 105.671 18.7446 105.671 16.4343C105.671 14.1241 104.097 12.3328 101.719 12.3328Z" fill="#BCC6F9"/>
<path d="M116.79 9.76329C118.456 9.74225 120.036 10.4733 121.058 11.738V4.36426H123.995V22.8526H121.058V21.1373C120.036 22.402 118.456 23.1331 116.79 23.1121C113.127 23.1121 110.348 20.1056 110.348 16.4345C110.348 12.7634 113.127 9.76329 116.79 9.76329ZM117.323 12.333C114.945 12.333 113.371 14.1306 113.371 16.4345C113.371 18.7384 114.978 20.5424 117.323 20.5424C119.668 20.5424 121.275 18.7448 121.275 16.4345C121.275 14.1243 119.701 12.333 117.323 12.333Z" fill="#BCC6F9"/>
<path d="M132.385 9.76314C134.051 9.7421 135.631 10.4732 136.653 11.7379V10.0226H139.584V22.8524H136.64V21.1372C135.618 22.4019 134.038 23.133 132.372 23.1119C128.709 23.1119 125.93 20.1054 125.93 16.4344C125.93 12.7633 128.722 9.76314 132.385 9.76314ZM132.918 12.3329C130.541 12.3329 128.966 14.1305 128.966 16.4344C128.966 18.7383 130.573 20.5422 132.918 20.5422C135.263 20.5422 136.871 18.7446 136.871 16.4344C136.871 14.1241 135.296 12.3329 132.918 12.3329Z" fill="#BCC6F9"/>
<path d="M23.0285 35.4999C22.71 35.502 22.3965 35.4237 22.1193 35.2728C19.7463 33.9535 2.17104 23.3644 1.50731 23.0411C1.00219 22.8146 0.657267 22.3506 0.598087 21.818V6.96528C0.585016 6.41087 0.870244 5.88913 1.35274 5.58486L1.48003 5.51497C3.18027 4.50149 8.87196 1.164 9.77209 0.683474C9.97865 0.565688 10.2139 0.502397 10.454 0.5C10.6791 0.502448 10.9004 0.556355 11.0996 0.657264C11.0996 0.657264 19.0644 5.64602 20.2827 6.0916C21.1376 6.469 22.0697 6.6571 23.0104 6.64202C24.0763 6.66343 25.1295 6.41645 26.0653 5.9256C27.2564 5.32276 34.8666 0.683474 34.9484 0.683474C35.1402 0.572118 35.3607 0.514613 35.5848 0.517474C35.8252 0.518604 36.0607 0.581987 36.2668 0.700948C37.3033 1.25137 44.3588 5.40139 44.6588 5.58486C45.1551 5.87255 45.4559 6.39096 45.4499 6.94782V21.8005C45.3942 22.3344 45.0482 22.7999 44.5407 23.0237C43.8769 23.3731 26.3563 33.9622 23.9377 35.2553C23.6624 35.4124 23.3487 35.4967 23.0285 35.4999Z" fill="#BCC6F9"/>
<path d="M22.9375 35.5001L23.0284 35.5C23.347 35.5022 23.6605 35.4238 23.9376 35.2729C26.3107 33.9536 43.8768 23.3645 44.5406 23.0412C45.0481 22.8175 45.3941 22.352 45.4498 21.8181V6.96538C45.4527 6.71395 45.3935 6.46543 45.277 6.24023L22.9375 18.0263V35.5001Z" fill="#BCC6F9"/>
<path d="M22.8594 35.2909L22.7694 35.2909C22.4543 35.2929 22.1441 35.2154 21.8699 35.0661C19.5221 33.7609 2.14314 23.2846 1.48646 22.9648C0.984354 22.7434 0.642015 22.2829 0.586958 21.7546V7.0602C0.584061 6.81144 0.642612 6.56557 0.757866 6.34277L22.8594 18.0032V35.2909Z" fill="#BCC6F9"/>
</g>
<defs>
<clipPath id="clip0_3369_104388">
<rect width="139" height="35" fill="white" transform="translate(0.585938 0.5)"/>
</clipPath>
</defs>
</svg>
