<svg width="124" height="36" viewBox="0 0 124 36" fill="none" xmlns="http://www.w3.org/2000/svg">
<g id="Ecommerce" clip-path="url(#clip0_3369_104387)">
<g id="Group">
<g id="Group_2">
<path id="Vector" d="M26.8997 7.15464C26.875 6.98169 26.7267 6.88834 26.6005 6.87736C26.477 6.86638 23.8503 6.67146 23.8503 6.67146C23.8503 6.67146 22.0278 4.85956 21.8274 4.65915C21.627 4.45874 21.2373 4.51914 21.0836 4.56306C21.0616 4.56855 20.6856 4.6866 20.0625 4.87878C19.4559 3.12726 18.38 1.51577 16.4889 1.51577C16.4367 1.51577 16.3819 1.51851 16.3297 1.52126C15.789 0.81022 15.1248 0.5 14.5484 0.5C10.1431 0.5 8.03788 6.00984 7.3764 8.81006C5.66369 9.33991 4.44777 9.71876 4.29132 9.76543C3.33616 10.0647 3.30596 10.0949 3.17971 10.9953C3.08639 11.6789 0.585938 31.0224 0.585938 31.0224L20.0735 34.6737L30.6325 32.3896C30.6297 32.3896 26.9244 7.32485 26.8997 7.15464ZM18.9866 5.2137C18.498 5.3647 17.9409 5.53765 17.337 5.72433C17.337 5.60903 17.337 5.49373 17.337 5.36744C17.337 4.27755 17.1861 3.39905 16.9445 2.70449C17.9189 2.82803 18.5694 3.93713 18.9866 5.2137ZM15.7368 2.92137C16.0086 3.59946 16.1842 4.57405 16.1842 5.8918C16.1842 5.95768 16.1842 6.02083 16.1842 6.08397C15.111 6.41615 13.9473 6.77579 12.778 7.13817C13.434 4.60424 14.6609 3.38258 15.7368 2.92137ZM14.4276 1.68323C14.617 1.68323 14.8091 1.74637 14.993 1.87266C13.5795 2.53702 12.0671 4.21166 11.4276 7.55546C10.4944 7.84371 9.58042 8.12648 8.73504 8.39003C9.48435 5.83963 11.2629 1.68323 14.4276 1.68323Z" fill="#BCC6F9"/>
<path id="Vector_2" d="M26.6 6.87752C26.4765 6.86653 23.8498 6.67162 23.8498 6.67162C23.8498 6.67162 22.0273 4.85971 21.8269 4.6593C21.7528 4.58518 21.6513 4.54675 21.5442 4.53027L20.0703 34.6738L30.6265 32.3897C30.6265 32.3897 26.9212 7.325 26.8965 7.15479C26.8745 6.98184 26.7235 6.88575 26.6 6.87752Z" fill="#BCC6F9"/>
<path id="Vector_3" d="M16.4871 12.711L15.1861 16.5847C15.1861 16.5847 14.0443 15.9752 12.6473 15.9752C10.5969 15.9752 10.4954 17.2628 10.4954 17.5867C10.4954 19.3547 15.1065 20.0328 15.1065 24.1782C15.1065 27.4396 13.0398 29.5371 10.2511 29.5371C6.90528 29.5371 5.19531 27.4561 5.19531 27.4561L6.09009 24.4967C6.09009 24.4967 7.84947 26.0066 9.33162 26.0066C10.3005 26.0066 10.6958 25.2434 10.6958 24.6861C10.6958 22.3773 6.91351 22.2757 6.91351 18.4844C6.91351 15.2944 9.20262 12.2031 13.8275 12.2031C15.6061 12.2004 16.4871 12.711 16.4871 12.711Z" fill="#07134E"/>
</g>
<path id="s 1" d="M42.9385 19.9724C41.8846 19.4014 41.3438 18.9182 41.3438 18.2566C41.3438 17.4138 42.0959 16.873 43.2706 16.873C44.6375 16.873 45.8589 17.444 45.8589 17.444L46.8223 14.4955C46.8223 14.4955 45.9358 13.8037 43.3338 13.8037C39.708 13.8037 37.1966 15.8792 37.1966 18.8002C37.1966 20.4556 38.3686 21.7185 39.9331 22.6217C41.1956 23.3437 41.6485 23.8543 41.6485 24.6065C41.6485 25.3889 41.0172 26.0204 39.8425 26.0204C38.0941 26.0204 36.4418 25.1172 36.4418 25.1172L35.418 28.0656C35.418 28.0656 36.944 29.0896 39.5104 29.0896C43.2405 29.0896 45.9193 27.253 45.9193 23.9449C45.9166 22.1687 44.5634 20.9058 42.9385 19.9724Z" fill="#BCC6F9"/>
<path id="h 1" d="M57.7999 13.7732C55.9636 13.7732 54.5199 14.6462 53.4083 15.9695L53.3479 15.9393L54.9426 7.60449H50.7898L46.7578 28.8203H50.9106L52.2939 21.5672C52.8346 18.8301 54.2482 17.1445 55.5739 17.1445C56.5071 17.1445 56.8667 17.7759 56.8667 18.6791C56.8667 19.2501 56.8063 19.9419 56.6855 20.5157L55.121 28.8203H59.2738L60.8987 20.2439C61.0798 19.3407 61.2006 18.2591 61.2006 17.5343C61.2006 15.187 59.9682 13.7732 57.7999 13.7732Z" fill="#BCC6F9"/>
<path id="o 1" d="M70.5879 13.7734C65.5925 13.7734 62.2852 18.2867 62.2852 23.3134C62.2852 26.5336 64.2696 29.1197 68.0024 29.1197C72.9072 29.1197 76.2146 24.7272 76.2146 19.5798C76.2146 16.6039 74.469 13.7734 70.5879 13.7734ZM68.5431 25.9324C67.1296 25.9324 66.5285 24.73 66.5285 23.2255C66.5285 20.8481 67.7609 16.9662 70.017 16.9662C71.491 16.9662 71.9713 18.2291 71.9713 19.4645C71.9713 22.0204 70.7389 25.9324 68.5431 25.9324Z" fill="#BCC6F9"/>
<path id="p 1" d="M86.8329 13.7734C84.0305 13.7734 82.4413 16.2415 82.4413 16.2415H82.3809L82.6225 14.015H78.9527C78.7716 15.5195 78.4422 17.8063 78.1101 19.5221L75.2227 34.7174H79.3754L80.5172 28.5789H80.6078C80.6078 28.5789 81.4614 29.1197 83.0451 29.1197C87.9198 29.1197 91.1092 24.1233 91.1092 19.0691C91.1064 16.2717 89.8713 13.7734 86.8329 13.7734ZM82.8612 25.9901C81.7826 25.9901 81.1458 25.3889 81.1458 25.3889L81.8375 21.507C82.3178 18.9182 83.6737 17.2051 85.1174 17.2051C86.38 17.2051 86.7725 18.3773 86.7725 19.4919C86.7725 22.1686 85.1778 25.9901 82.8612 25.9901Z" fill="#BCC6F9"/>
<path id="dot 1" d="M97.0332 7.81641C95.7102 7.81641 94.6562 8.87061 94.6562 10.224C94.6562 11.4567 95.4385 12.2995 96.6105 12.2995H96.6709C97.9636 12.2995 99.078 11.4265 99.1082 9.89186C99.1082 8.68942 98.2958 7.81641 97.0332 7.81641Z" fill="#BCC6F9"/>
<path id="i 1" d="M91.2266 28.8203H95.3766L98.2064 14.1055H94.0234L91.2266 28.8203Z" fill="#BCC6F9"/>
<path id="f 1" d="M108.765 14.0754H105.878L106.029 13.3836C106.27 11.9698 107.113 10.7042 108.496 10.7042C109.234 10.7042 109.819 10.9156 109.819 10.9156L110.631 7.66512C110.631 7.66512 109.91 7.30273 108.375 7.30273C106.901 7.30273 105.427 7.72277 104.313 8.68637C102.9 9.88882 102.238 11.6348 101.906 13.3809L101.785 14.0727H99.8584L99.2573 17.2023H101.184L98.9883 28.8178H103.141L105.337 17.2023H108.194L108.765 14.0754Z" fill="#BCC6F9"/>
<path id="y 1" d="M118.753 14.1055C118.753 14.1055 116.157 20.6448 114.993 24.2165H114.932C114.853 23.0662 113.909 14.1055 113.909 14.1055H109.547L112.045 27.6179C112.105 27.9199 112.075 28.0983 111.954 28.3097C111.474 29.2431 110.662 30.1463 109.698 30.808C108.916 31.379 108.043 31.7414 107.352 31.983L108.493 35.5052C109.336 35.324 111.082 34.6322 112.556 33.2485C114.452 31.4723 116.195 28.7352 118.001 25.0044L123.084 14.111H118.753V14.1055Z" fill="#BCC6F9"/>
</g>
</g>
<defs>
<clipPath id="clip0_3369_104387">
<rect width="122.5" height="35" fill="white" transform="translate(0.585938 0.5)"/>
</clipPath>
</defs>
</svg>
