<svg width="127" height="40" viewBox="0 0 127 40" fill="none" xmlns="http://www.w3.org/2000/svg">
<g id="Ecommerce" clip-path="url(#clip0_3369_104385)">
<g id="g4">
<path id="path2" fill-rule="evenodd" clip-rule="evenodd" d="M23.8861 28.2315C23.666 30.0431 22.5651 31.494 20.8599 32.2205C19.9102 32.6252 18.6351 32.8437 17.6258 32.7751C16.0514 32.7151 14.5722 32.3333 13.2087 31.6354C12.7216 31.3859 11.9955 30.8878 11.4379 30.4212C11.2967 30.3034 11.2799 30.2278 11.3734 30.0956C11.4238 30.0198 11.5169 29.8829 11.7225 29.5825C12.0207 29.1468 12.0579 29.0922 12.0915 29.0411C12.1869 28.8951 12.3419 28.8823 12.4949 29.0023C12.5109 29.0148 12.5109 29.0148 12.523 29.0243C12.5481 29.0436 12.5481 29.0436 12.6073 29.0895C12.6672 29.1361 12.7027 29.1635 12.7171 29.1743C14.1876 30.3226 15.9001 30.9849 17.6291 31.0511C20.0345 31.0184 21.7643 29.94 22.0742 28.284C22.415 26.4615 20.9802 24.8873 18.1731 24.0098C17.2952 23.7354 15.0761 22.8497 14.6669 22.6104C12.7455 21.4862 11.8471 20.0138 11.9748 18.1952C12.1704 15.6742 14.5175 13.794 17.4832 13.7814C18.8094 13.7787 20.1329 14.0535 21.4043 14.5877C21.8545 14.7769 22.6583 15.213 22.9358 15.4196C23.0956 15.5367 23.1272 15.6731 23.0356 15.8202C22.9844 15.9056 22.8998 16.0409 22.7215 16.3229L22.7196 16.326C22.4849 16.6974 22.4776 16.709 22.4237 16.7959C22.3307 16.9372 22.2213 16.9503 22.0536 16.8442C20.6931 15.9329 19.1849 15.4744 17.5262 15.4413C15.4611 15.482 13.9133 16.7075 13.8115 18.3769C13.7845 19.8846 14.9186 20.9854 17.3685 21.8247C22.3413 23.4181 24.2443 25.2862 23.8861 28.2315ZM17.7448 2.20258C20.9823 2.20258 23.6213 5.2661 23.7448 9.10098H11.7449C11.8684 5.2661 14.5074 2.20258 17.7448 2.20258ZM34.5001 9.82197C34.5001 9.42376 34.1785 9.10098 33.7819 9.10098H26.0039C25.8131 4.03752 22.1884 0 17.7448 0C13.3013 0 9.6766 4.03752 9.48576 9.10098L1.69665 9.10112C1.3061 9.1082 0.991665 9.42829 0.991665 9.82197C0.991665 9.84079 0.992371 9.85947 0.993778 9.87786H0.988281L2.09862 34.2831C2.09876 34.3511 2.10129 34.4196 2.10637 34.4885C2.1075 34.504 2.10877 34.5195 2.11003 34.5349L2.11243 34.5864L2.11511 34.5891C2.28381 36.2873 3.51987 37.6552 5.20059 37.7183L5.20439 37.722H29.9121C29.9238 37.7221 29.9355 37.7222 29.9472 37.7222C29.9589 37.7222 29.9706 37.7221 29.9823 37.722H30.0348L30.036 37.721C31.746 37.6744 33.1312 36.2875 33.2775 34.5683L33.2783 34.5675L33.2794 34.5444C33.2808 34.5263 33.2822 34.5083 33.2833 34.4902C33.286 34.4469 33.2878 34.4037 33.2885 34.3608L34.5 9.8592C34.5008 9.84688 34.5001 9.83442 34.5001 9.82197ZM116.869 25.728C117.345 24.1797 118.784 23.1475 120.464 23.1475C122.067 23.1475 123.594 24.2332 124.121 25.725L124.157 25.8276H116.838L116.869 25.728ZM125.786 27.9711C125.796 27.9715 125.796 27.9715 125.811 27.9717C125.825 27.9715 125.825 27.9715 125.84 27.9711C126.19 27.9551 126.468 27.6572 126.468 27.2947C126.468 27.2771 126.467 27.262 126.466 27.2377C126.466 27.2332 126.466 27.2243 126.466 27.1958C126.466 23.7764 123.778 21.0053 120.462 21.0053C117.146 21.0053 114.458 23.7764 114.458 27.1958C114.458 27.4507 114.473 27.7049 114.503 27.9576L114.505 27.9711L114.514 28.0378C114.679 29.2682 115.206 30.3974 116.037 31.3111C116.037 31.3111 116.037 31.3116 116.042 31.3163C116.964 32.328 118.215 33.0175 119.604 33.2753L119.622 33.2788V33.277L119.712 33.292C119.758 33.2999 119.807 33.3076 119.873 33.3177C121.7 33.5368 123.321 33.2742 124.694 32.585C125.031 32.4152 125.335 32.2278 125.599 32.0299C125.683 31.9662 125.76 31.9045 125.826 31.8468C125.859 31.817 125.887 31.792 125.901 31.7775C126.211 31.4594 126.23 31.3466 126.043 31.0562C125.837 30.7298 125.656 30.4517 125.5 30.2215C125.446 30.1409 125.399 30.0722 125.359 30.0152C125.337 29.9839 125.337 29.9839 125.323 29.9641C125.318 29.9563 125.318 29.9563 125.314 29.9514L125.312 29.9489C125.142 29.7389 125.027 29.7197 124.839 29.885C124.819 29.9027 124.752 29.9542 124.74 29.967C123.419 31.1361 121.616 31.5122 119.816 31.1365C119.481 31.0468 119.167 30.9328 118.878 30.7951C117.75 30.2311 116.951 29.2261 116.72 28.0629L116.702 27.9711L125.786 27.9711ZM102.582 25.728C103.058 24.1797 104.497 23.1475 106.177 23.1475C107.78 23.1475 109.307 24.2332 109.834 25.725L109.87 25.8276H102.551L102.582 25.728ZM111.499 27.9711C111.509 27.9715 111.509 27.9715 111.524 27.9717C111.538 27.9715 111.538 27.9715 111.553 27.9711C111.903 27.9551 112.18 27.6572 112.18 27.2947C112.18 27.2771 112.18 27.262 112.178 27.2377C112.179 27.2332 112.179 27.2243 112.179 27.1958C112.179 23.7764 109.49 21.0053 106.175 21.0053C102.859 21.0053 100.171 23.7764 100.171 27.1958C100.171 27.4507 100.186 27.7049 100.216 27.9576L100.217 27.9711L100.227 28.0378C100.392 29.2682 100.918 30.3974 101.75 31.3111C101.75 31.3111 101.75 31.3116 101.755 31.3163C102.676 32.328 103.928 33.0175 105.317 33.2753L105.335 33.2788V33.277L105.425 33.292C105.471 33.2999 105.52 33.3076 105.586 33.3177C107.413 33.5368 109.034 33.2742 110.406 32.585C110.744 32.4152 111.048 32.2278 111.311 32.0299C111.396 31.9662 111.472 31.9045 111.538 31.8468C111.572 31.817 111.599 31.792 111.614 31.7775C111.923 31.4594 111.943 31.3466 111.756 31.0562C111.55 30.7298 111.369 30.4517 111.213 30.2215C111.159 30.1409 111.111 30.0722 111.072 30.0152C111.05 29.9839 111.05 29.9839 111.036 29.9641C111.03 29.9563 111.03 29.9563 111.026 29.9514L111.025 29.9489C110.856 29.7389 110.74 29.7197 110.552 29.885C110.532 29.9027 110.465 29.9542 110.453 29.967C109.133 31.1361 107.33 31.5122 105.529 31.1365C105.194 31.0468 104.88 30.9328 104.591 30.7951C103.463 30.2311 102.664 29.2261 102.434 28.0629L102.415 27.9711L111.499 27.9711ZM91.6779 31.3806C89.4448 31.3806 87.6184 29.6152 87.5623 27.4029V27.1946C87.6178 24.9859 89.4448 23.2202 91.6779 23.2202C93.9513 23.2202 95.7944 25.047 95.7944 27.3004C95.7944 29.5538 93.9513 31.3806 91.6779 31.3806ZM91.6792 21.0557C90.2145 21.0557 88.8151 21.5531 87.6903 22.4654L87.5625 22.569V21.4272C87.5625 21.1227 87.4969 21.0557 87.1878 21.0557H85.7504C85.4373 21.0557 85.3755 21.1178 85.3755 21.4272V39.6285C85.3755 39.9274 85.4454 40 85.7504 40H87.1878C87.4939 40 87.5625 39.929 87.5625 39.6285V32.038L87.6903 32.1416C88.8152 33.0541 90.2147 33.5515 91.6792 33.5515C95.1605 33.5515 97.9827 30.7542 97.9827 27.3035C97.9827 23.853 95.1605 21.0557 91.6792 21.0557ZM76.8756 31.2411C74.5975 31.2411 72.7507 29.4304 72.7507 27.1962C72.7507 24.9619 74.5976 23.1511 76.8756 23.1511C79.1532 23.1511 81.0001 24.9619 81.0001 27.1962C81.0001 29.4303 79.1534 31.2411 76.8756 31.2411ZM76.8769 21.0053C73.3886 21.0053 70.5613 23.7785 70.5613 27.1992C70.5613 30.6198 73.3886 33.3931 76.8769 33.3931C80.365 33.3931 83.1921 30.6198 83.1921 27.1992C83.1921 23.7785 80.3651 21.0053 76.8769 21.0053ZM62.7983 21.1429C61.525 21.1429 60.2928 21.5511 59.2705 22.3056L59.1462 22.3973V13.9443C59.1462 13.6641 59.0541 13.5727 58.7731 13.5727H57.2685C56.9647 13.5727 56.8952 13.6451 56.8952 13.9443V33.2277C56.8952 33.5196 56.9702 33.5996 57.2685 33.5996H58.7731C59.0522 33.5996 59.1462 33.5036 59.1462 33.2277V26.9291C59.1619 24.9464 60.7928 23.346 62.7983 23.346C64.809 23.346 66.4417 24.9542 66.4503 26.9435V33.2277C66.4503 33.5467 66.5035 33.5995 66.8235 33.5995H68.3245C68.6426 33.5995 68.6977 33.5452 68.6977 33.2277V26.925C68.6858 23.7457 66.027 21.1429 62.7983 21.1429ZM41.8327 30.1017L41.8292 30.1071C41.6147 30.4312 41.5248 30.5675 41.4746 30.6458C41.3055 30.8968 41.3265 31.0087 41.5848 31.2264C42.1875 31.7109 42.9623 32.2198 43.4851 32.4746C44.9395 33.1838 46.5105 33.5585 48.1752 33.5924C49.2507 33.6465 50.6013 33.3916 51.607 32.9443C53.4278 32.1344 54.5876 30.5559 54.7908 28.6117C55.1201 25.4613 53.0643 23.4919 47.7691 21.9048L47.7678 21.9044C45.3007 21.111 44.1417 20.0563 44.1413 18.5838C44.214 16.9562 45.7274 15.7403 47.7692 15.6645C49.4139 15.6686 50.868 16.1041 52.2968 17.0209C52.5981 17.2032 52.7371 17.1695 52.9396 16.9075C52.9629 16.8688 53.0276 16.775 53.2985 16.3872L53.2993 16.386C53.5522 16.0237 53.6355 15.9028 53.6562 15.8671C53.8269 15.5468 53.8025 15.4234 53.4944 15.2055C53.191 14.9888 52.3363 14.5454 51.8476 14.3509C50.4882 13.8101 49.0828 13.5475 47.6841 13.5746C44.501 13.6435 42.0186 15.7077 41.8549 18.4157C41.7511 20.3716 42.7467 21.9445 44.8269 23.1073C45.41 23.4142 47.5422 24.2179 48.5374 24.5085C51.3671 25.3347 52.8424 26.8548 52.5376 28.6481C52.2607 30.2775 50.5486 31.3612 48.1459 31.4353C46.4036 31.3992 44.6482 30.7625 43.1239 29.6203C43.1163 29.6148 43.0776 29.5862 43.0064 29.5332C42.9062 29.4587 42.9062 29.4587 42.8913 29.4476C42.5805 29.2337 42.3977 29.2515 42.208 29.5333C42.1852 29.5682 41.9491 29.926 41.8327 30.1017Z" fill="#BCC6F9"/>
</g>
</g>
<defs>
<clipPath id="clip0_3369_104385">
<rect width="125.479" height="40" fill="white" transform="translate(0.988281)"/>
</clipPath>
</defs>
</svg>
