<svg width="121" height="36" viewBox="0 0 121 36" fill="none" xmlns="http://www.w3.org/2000/svg">
<g id="Ecommerce" clip-path="url(#clip0_3369_104386)">
<g id="Group">
<path id="Vector" d="M23.4196 13.1347C25.6795 14.7493 28.448 15.6994 31.4381 15.6994V9.94845C30.8722 9.94857 30.3078 9.88959 29.7541 9.77236V14.2991C26.7643 14.2991 23.9961 13.3491 21.7356 11.7346V23.4705C21.7356 29.3415 16.9739 34.1004 11.1003 34.1004C8.90877 34.1004 6.8718 33.4382 5.17969 32.3025C7.11095 34.2762 9.80425 35.5005 12.7839 35.5005C18.6578 35.5005 23.4198 30.7416 23.4198 24.8704V13.1347H23.4196ZM25.4969 7.33275C24.3419 6.07162 23.5836 4.44186 23.4196 2.64008V1.90039H21.8238C22.2255 4.19045 23.5955 6.14694 25.4969 7.33275ZM8.89471 27.7973C8.24944 26.9517 7.90073 25.9172 7.90229 24.8536C7.90229 22.1685 10.0803 19.9913 12.7673 19.9913C13.2681 19.9912 13.7659 20.0678 14.2431 20.2192V14.3397C13.6854 14.2633 13.1225 14.2309 12.5599 14.2428V18.8191C12.0823 18.6677 11.5843 18.5909 11.0834 18.5913C8.39634 18.5913 6.21847 20.7682 6.21847 23.4537C6.21847 25.3526 7.30711 26.9965 8.89471 27.7973Z" fill="#E8EFFD" fill-opacity="0.5"/>
<path id="Vector_2" d="M21.7356 11.7345C23.9961 13.349 26.7642 14.299 29.7541 14.299V9.77223C28.0851 9.41692 26.6077 8.54522 25.4968 7.33275C23.5954 6.14682 22.2254 4.19033 21.8237 1.90039H17.6321V24.8702C17.6226 27.548 15.4483 29.7162 12.767 29.7162C11.187 29.7162 9.78329 28.9634 8.89429 27.7973C7.30681 26.9965 6.21817 25.3524 6.21817 23.4538C6.21817 20.7686 8.39604 18.5915 11.0831 18.5915C11.5979 18.5915 12.0941 18.6716 12.5596 18.8192V14.2429C6.78922 14.3621 2.14844 19.0746 2.14844 24.8703C2.14844 27.7635 3.3041 30.3862 5.17975 32.3026C6.87186 33.4382 8.90883 34.1005 11.1004 34.1005C16.9741 34.1005 21.7357 29.3413 21.7357 23.4705V11.7345H21.7356Z" fill="#BCC6F9"/>
<path id="Vector_3" d="M29.7543 9.77182V8.54782C28.2493 8.5501 26.7739 8.12884 25.4971 7.33222C26.6274 8.56908 28.1158 9.42192 29.7543 9.77182ZM21.824 1.89998C21.7856 1.68112 21.7562 1.46083 21.7358 1.23969V0.5H15.9482V23.47C15.939 26.1475 13.7648 28.3157 11.0833 28.3157C10.2961 28.3157 9.55277 28.1289 8.89452 27.797C9.78351 28.963 11.1872 29.7157 12.7673 29.7157C15.4483 29.7157 17.6229 27.5477 17.6323 24.8699V1.89998H21.824ZM12.5601 14.2425V12.9395C12.0765 12.8734 11.5889 12.8403 11.1007 12.8405C5.22658 12.8404 0.464844 17.5996 0.464844 23.47C0.464844 27.1504 2.33629 30.394 5.18009 32.302C3.30444 30.3857 2.14878 27.7628 2.14878 24.8698C2.14878 19.0742 6.78944 14.3617 12.5601 14.2425Z" fill="#E8EFFD" fill-opacity="0.5"/>
<path id="Vector_4" d="M96.8145 29.2874C101.017 29.2874 104.424 25.9077 104.424 21.7392C104.424 17.5707 101.017 14.1904 96.8145 14.1904H95.668C99.8709 14.1904 103.278 17.5706 103.278 21.7392C103.278 25.9077 99.8709 29.2874 95.668 29.2874H96.8145Z" fill="#E8EFFD" fill-opacity="0.5"/>
<path id="Vector_5" d="M95.5655 14.1904H94.4191C90.2164 14.1904 86.8086 17.5706 86.8086 21.7392C86.8086 25.9077 90.2164 29.2874 94.4191 29.2874H95.5655C91.3622 29.2874 87.955 25.9077 87.955 21.7392C87.9549 17.5707 91.3622 14.1904 95.5655 14.1904Z" fill="#E8EFFD" fill-opacity="0.5"/>
<path id="Vector_6" d="M37.7109 10.7783V14.6045H42.1927V29.1837H46.6762V14.7078H50.3245L51.5754 10.7784H37.7109V10.7783ZM74.405 10.7783V14.6045H78.8867V29.1837H83.3703V14.7078H87.0184L88.2692 10.7784H74.405V10.7783ZM52.4101 12.9496C52.4101 11.7507 53.3886 10.7783 54.5974 10.7783C55.8074 10.7783 56.787 11.7507 56.787 12.9496C56.787 14.1486 55.808 15.121 54.5974 15.121C53.3886 15.1204 52.4101 14.1486 52.4101 12.9496ZM52.4101 16.6724H56.787V29.1837H52.4101V16.6724ZM58.6637 10.7783V29.1836H63.0422V24.4276L64.3975 23.1857L68.671 29.2869H73.3616L67.2107 20.3945L72.7358 15.0171H67.4196L63.0422 19.3597V10.7783H58.6637ZM105.885 10.7783V29.1836H110.265V24.4276L111.619 23.1857L115.894 29.2869H120.585L114.434 20.3945L119.959 15.0171H114.643L110.265 19.3597V10.7783H105.885Z" fill="#BCC6F9"/>
<path id="Vector_7" d="M95.6671 29.2874C99.8698 29.2874 103.278 25.9077 103.278 21.7392C103.278 17.5707 99.8698 14.1904 95.6671 14.1904H95.5632C91.3603 14.1904 87.9531 17.5706 87.9531 21.7392C87.9531 25.9077 91.3603 29.2874 95.5632 29.2874H95.6671ZM91.9144 21.7392C91.9144 19.7114 93.572 18.0689 95.6161 18.0689C97.6587 18.0689 99.3162 19.7114 99.3162 21.7392C99.3162 23.7669 97.6587 25.4103 95.6161 25.4103C93.572 25.41 91.9144 23.7669 91.9144 21.7392Z" fill="#BCC6F9"/>
</g>
</g>
<defs>
<clipPath id="clip0_3369_104386">
<rect width="120.118" height="35" fill="white" transform="translate(0.464844 0.5)"/>
</clipPath>
</defs>
</svg>
