<svg width="143" height="30" viewBox="0 0 143 30" fill="none" xmlns="http://www.w3.org/2000/svg">
<g id="Ecommerce">
<path id="Vector" fill-rule="evenodd" clip-rule="evenodd" d="M22.1622 11.4951C21.2449 10.5554 20.0219 10.0617 18.5957 10.0617C15.4889 10.0617 13.6031 12.2855 13.6031 15.2021C13.6031 18.0689 15.4889 20.3424 18.5957 20.3424C21.6533 20.3424 23.5884 18.1187 23.5884 15.2021C23.5371 13.6691 23.0795 12.4328 22.1622 11.4951ZM119.298 7.11726H122.662V22.9823H122.407C120.675 22.9823 119.249 21.5986 119.249 19.9184V7.11726H119.298ZM90.7686 23.2789C88.6283 23.7229 86.4901 23.3765 84.4011 22.2397C82.3634 21.1527 81.0378 19.5222 80.377 17.396C79.0001 13.046 81.8032 8.20227 86.3382 7.0655C88.5791 6.47222 90.7194 6.76886 92.757 7.85586C96.1204 9.68544 97.3926 12.5025 97.1382 16.1597L83.5351 16.1099C83.7383 17.5931 84.7068 18.7796 86.0325 19.4704C87.4073 20.211 88.6304 20.3603 89.8021 20.0139C91.0764 19.6197 92.1455 18.5805 92.9602 17.6409L95.712 19.6178C94.5895 21.6484 93.0628 22.835 90.7686 23.2789ZM93.3665 13.1475C92.9602 11.8614 92.4 11.2204 91.177 10.5773C88.2733 8.99661 85.3696 10.3305 84.044 13.1475H93.3665ZM139.626 14.0872C139.626 12.8011 139.117 11.7639 138.097 10.9735C137.18 10.2807 136.06 9.93629 134.633 9.93629C131.576 9.93629 129.589 12.2596 129.589 15.1264C129.589 17.8937 131.678 20.1672 134.582 20.1672C136.62 20.1672 137.689 19.0305 138.861 17.597V21.7002C138.249 22.1441 137.586 22.5901 136.923 22.8867C136.211 23.1833 135.343 23.3307 134.326 23.3307C129.436 23.3307 126.224 19.4266 126.224 14.8796C126.224 12.5562 126.989 10.6291 128.467 9.14593C130.047 7.56321 132.136 6.77284 134.683 6.77284C139.523 6.77284 142.987 9.44257 142.987 14.3341V22.9843H142.733C141.001 22.9843 139.575 21.6006 139.575 19.9204V14.0872H139.626ZM122.459 5.2399C122.101 5.63607 121.593 5.7834 120.981 5.7834C119.809 5.7834 118.995 4.94326 118.995 3.85626C118.995 2.71949 119.809 1.92913 120.981 1.92913C122.101 1.92913 122.967 2.71949 122.967 3.85626C122.967 4.39777 122.814 4.89349 122.459 5.2399ZM112.931 20.9078C111.402 22.5383 109.364 23.3287 106.972 23.3287C104.423 23.3287 102.336 22.4885 100.756 20.7585C99.2785 19.128 98.5151 17.1013 98.5151 14.6785C98.5151 10.3783 101.928 6.82063 106.411 6.82063C108.143 6.82063 109.672 7.16703 111.15 8.00716V11.5668C109.927 10.7764 108.398 9.98407 106.871 9.98407C103.713 9.98407 101.827 12.1103 101.827 15.0747C101.827 18.041 103.814 20.215 106.92 20.215C108.347 20.215 109.467 19.7213 110.436 18.6821C111.353 17.6448 111.81 16.1617 111.81 14.135V3.06391C111.81 1.38364 113.237 0 114.969 0H115.223V14.6307C115.223 17.2009 114.46 19.2753 112.931 20.9078ZM76.3016 21.0551C74.7215 22.5881 72.889 23.3785 70.6974 23.3785C68.9655 23.3785 67.488 23.032 65.9592 22.1919V18.6821C67.1823 19.4724 68.7111 20.2628 70.2378 20.2628C73.3959 20.2628 75.2817 18.1386 75.2817 15.1722C75.2817 12.2058 73.3466 10.0319 70.1865 10.0319C68.7603 10.0319 67.6399 10.5256 66.7226 11.515C65.754 12.602 65.2964 14.0852 65.2964 16.1119V30H65.042C63.31 30 61.8839 28.6164 61.8839 26.9361V15.5684C61.8839 10.7744 64.9414 6.8684 70.1372 6.8684C72.7351 6.8684 74.8241 7.70854 76.4042 9.43858C77.8817 11.0193 78.6451 13.0958 78.6451 15.5186C78.6451 17.6448 77.8796 19.5242 76.3016 21.0551ZM55.4281 11.4951C54.5108 10.5554 53.2878 10.0617 51.8616 10.0617C48.7548 10.0617 46.869 12.2855 46.869 15.2021C46.869 18.0689 48.7548 20.3424 51.8616 20.3424C54.9192 20.3424 56.8543 18.1187 56.8543 15.2021C56.805 13.6691 56.3454 12.4328 55.4281 11.4951ZM57.8228 21.1328C56.1422 22.6657 54.1538 23.4561 51.8103 23.4561C49.5182 23.4561 47.4805 22.6657 45.8491 21.1328C44.1685 19.5501 43.3517 17.5732 43.3517 15.2021C43.3517 10.5554 47.0208 6.94804 51.8596 6.94804C54.1517 6.94804 56.1894 7.7384 57.8721 9.32112C59.5527 10.9038 60.4187 12.8807 60.4187 15.2518C60.3715 17.5732 59.5055 19.5501 57.8228 21.1328ZM40.4009 11.0989C39.892 11.8893 39.5349 12.4826 39.2292 12.829C38.9234 13.2252 38.6176 13.5218 38.3632 13.7189C40.7066 14.4595 41.5726 16.0422 41.5726 18.3655V23.1097H41.3182C39.5862 23.1097 38.16 21.7261 38.16 20.0458V18.6622C38.16 17.1292 37.4459 16.092 35.8166 16.092H32.759V23.1097H32.5046C30.7726 23.1097 29.3465 21.7261 29.3465 20.0458V3.19132C29.3465 1.51105 30.7726 0.127417 32.5046 0.127417H32.759V12.9783H33.7768C34.8973 12.9783 35.6114 12.6319 36.0177 11.9391L38.87 7.29245H42.7423L40.4009 11.0989ZM24.6062 21.1328C22.9256 22.6657 20.9371 23.4561 18.5957 23.4561C16.3036 23.4561 14.2659 22.6657 12.6345 21.1328C10.9539 19.5501 10.1372 17.5732 10.1372 15.2021C10.1372 10.5554 13.8062 6.94804 18.645 6.94804C20.9371 6.94804 22.9748 7.7384 24.6575 9.32112C26.3381 10.9038 27.2041 12.8807 27.2041 15.2518C27.1036 17.5732 26.2889 19.5501 24.6062 21.1328ZM4.94135 23.1595C1.63138 23.1595 0 20.9835 0 17.9196V6.35278C0 4.67251 1.42618 3.28887 3.15811 3.28887H3.41257V7.24268H9.11934V10.4061H3.41257V18.266C3.41257 19.5998 4.02408 19.996 5.34766 19.996H9.11729V23.1595H4.94135Z" fill="#BCC6F9"/>
</g>
</svg>
